<?xml version="1.0" encoding="UTF-8" standalone="no"?>
<!-- Created with Inkscape (http://www.inkscape.org/) -->

<svg
   xmlns:dc="http://purl.org/dc/elements/1.1/"
   xmlns:cc="http://creativecommons.org/ns#"
   xmlns:rdf="http://www.w3.org/1999/02/22-rdf-syntax-ns#"
   xmlns:svg="http://www.w3.org/2000/svg"
   xmlns="http://www.w3.org/2000/svg"
   xmlns:sodipodi="http://sodipodi.sourceforge.net/DTD/sodipodi-0.dtd"
   xmlns:inkscape="http://www.inkscape.org/namespaces/inkscape"
   width="110.46358mm"
   height="178.8524mm"
   viewBox="0 0 110.46358 178.8524"
   version="1.1"
   id="svg8"
   sodipodi:docname="graphLG_01.svg"
   inkscape:version="0.92.4 (5da689c313, 2019-01-14)">
  <defs
     id="defs2" />
  <sodipodi:namedview
     id="base"
     pagecolor="#00a19a"
     bordercolor="#666666"
     borderopacity="1.0"
     inkscape:pageopacity="0"
     inkscape:pageshadow="2"
     inkscape:zoom="0.22627417"
     inkscape:cx="-25.79457"
     inkscape:cy="166.74819"
     inkscape:document-units="mm"
     inkscape:current-layer="layer1"
     showgrid="false"
     showborder="false"
     fit-margin-top="0"
     fit-margin-left="0"
     fit-margin-right="0"
     fit-margin-bottom="0"
     inkscape:window-width="1920"
     inkscape:window-height="1013"
     inkscape:window-x="-9"
     inkscape:window-y="-9"
     inkscape:window-maximized="1" />
  <metadata
     id="metadata5">
    <rdf:RDF>
      <cc:Work
         rdf:about="">
        <dc:format>image/svg+xml</dc:format>
        <dc:type
           rdf:resource="http://purl.org/dc/dcmitype/StillImage" />
        <dc:title></dc:title>
      </cc:Work>
    </rdf:RDF>
  </metadata>
  <g
     inkscape:label="Layer 1"
     inkscape:groupmode="layer"
     id="layer1"
     transform="translate(1173.3566,-926.612)">
    <g
       transform="translate(-1085.2014,928.33655)"
       id="g5103">
      <g
         style="fill:#ffffff"
         transform="matrix(0.12962476,0.11733321,-0.11733321,0.12962476,-38.027066,-5.70591)"
         id="g1140">
        <g
           style="fill:#ffffff"
           id="g912">
          <g
             style="fill:#ffffff"
             id="g910">
            <path
               style="fill:#ffffff"
               inkscape:connector-curvature="0"
               d="M 147.064,0 H 38.128 C 32.115,0 27.234,4.88 27.234,10.894 V 392.17 c 0,6.013 4.88,10.894 10.894,10.894 h 108.936 c 6.013,0 10.894,-4.88 10.894,-10.894 V 10.894 C 157.957,4.88 153.077,0 147.064,0 Z M 136.17,381.277 H 49.021 V 21.787 h 87.149 z"
               id="path908" />
          </g>
        </g>
        <g
           style="fill:#ffffff"
           id="g918">
          <g
             style="fill:#ffffff"
             id="g916">
            <path
               style="fill:#ffffff"
               inkscape:connector-curvature="0"
               d="M 256,54.468 H 147.064 c -6.013,0 -10.894,4.88 -10.894,10.894 v 435.745 c 0,6.013 4.88,10.894 10.894,10.894 H 256 c 6.013,0 10.894,-4.88 10.894,-10.894 V 65.362 c 0,-6.014 -4.881,-10.894 -10.894,-10.894 z M 245.106,490.213 H 157.957 V 76.255 h 87.149 z"
               id="path914" />
          </g>
        </g>
        <g
           style="fill:#ffffff"
           id="g924">
          <g
             style="fill:#ffffff"
             id="g922">
            <path
               style="fill:#ffffff"
               inkscape:connector-curvature="0"
               d="M 364.936,0 H 256 c -6.013,0 -10.894,4.88 -10.894,10.894 V 392.17 c 0,6.013 4.88,10.894 10.894,10.894 h 108.936 c 6.013,0 10.894,-4.88 10.894,-10.894 V 10.894 C 375.83,4.88 370.949,0 364.936,0 Z M 354.043,381.277 H 266.894 V 21.787 h 87.149 z"
               id="path920" />
          </g>
        </g>
        <g
           style="fill:#ffffff"
           id="g930">
          <g
             style="fill:#ffffff"
             id="g928">
            <path
               style="fill:#ffffff"
               inkscape:connector-curvature="0"
               d="M 473.872,54.468 H 364.936 c -6.013,0 -10.894,4.88 -10.894,10.894 v 435.745 c 0,6.013 4.88,10.894 10.894,10.894 h 108.936 c 6.013,0 10.894,-4.88 10.894,-10.894 V 65.362 c 0,-6.014 -4.88,-10.894 -10.894,-10.894 z M 462.979,490.213 H 375.83 V 76.255 h 87.149 z"
               id="path926" />
          </g>
        </g>
        <g
           style="fill:#ffffff"
           id="g936">
          <g
             style="fill:#ffffff"
             id="g934">
            <path
               style="fill:#ffffff"
               inkscape:connector-curvature="0"
               d="m 65.362,32.681 c -3.007,0 -5.447,2.44 -5.447,5.447 v 108.936 c 0,3.007 2.44,5.447 5.447,5.447 3.007,0 5.447,-2.44 5.447,-5.447 V 38.128 c 0,-3.007 -2.441,-5.447 -5.447,-5.447 z"
               id="path932" />
          </g>
        </g>
        <g
           style="fill:#ffffff"
           id="g942">
          <g
             style="fill:#ffffff"
             id="g940">
            <path
               style="fill:#ffffff"
               inkscape:connector-curvature="0"
               d="m 92.596,196.085 c -3.007,0 -5.447,2.44 -5.447,5.447 V 256 c 0,3.007 2.44,5.447 5.447,5.447 3.007,0 5.447,-2.44 5.447,-5.447 v -54.468 c 0,-3.007 -2.441,-5.447 -5.447,-5.447 z"
               id="path938" />
          </g>
        </g>
        <g
           style="fill:#ffffff"
           id="g948">
          <g
             style="fill:#ffffff"
             id="g946">
            <path
               style="fill:#ffffff"
               inkscape:connector-curvature="0"
               d="m 92.596,305.021 c -3.007,0 -5.447,2.435 -5.447,5.447 v 27.234 c 0,3.012 2.44,5.447 5.447,5.447 3.007,0 5.447,-2.435 5.447,-5.447 v -27.234 c 0,-3.012 -2.441,-5.447 -5.447,-5.447 z"
               id="path944" />
          </g>
        </g>
        <g
           style="fill:#ffffff"
           id="g954">
          <g
             style="fill:#ffffff"
             id="g952">
            <path
               style="fill:#ffffff"
               inkscape:connector-curvature="0"
               d="m 92.596,59.915 c -3.007,0 -5.447,2.44 -5.447,5.447 v 54.468 c 0,3.007 2.44,5.447 5.447,5.447 3.007,0 5.447,-2.44 5.447,-5.447 V 65.362 c 0,-3.007 -2.441,-5.447 -5.447,-5.447 z"
               id="path950" />
          </g>
        </g>
        <g
           style="fill:#ffffff"
           id="g960">
          <g
             style="fill:#ffffff"
             id="g958">
            <path
               style="fill:#ffffff"
               inkscape:connector-curvature="0"
               d="m 228.766,87.149 c -3.007,0 -5.447,2.44 -5.447,5.447 v 136.17 c 0,3.007 2.44,5.447 5.447,5.447 3.007,0 5.447,-2.44 5.447,-5.447 V 92.596 c 0,-3.007 -2.44,-5.447 -5.447,-5.447 z"
               id="path956" />
          </g>
        </g>
        <g
           style="fill:#ffffff"
           id="g966">
          <g
             style="fill:#ffffff"
             id="g964">
            <path
               style="fill:#ffffff"
               inkscape:connector-curvature="0"
               d="m 201.532,141.617 c -3.007,0 -5.447,2.44 -5.447,5.447 v 54.468 c 0,3.007 2.44,5.447 5.447,5.447 3.007,0 5.447,-2.44 5.447,-5.447 v -54.468 c 0,-3.007 -2.44,-5.447 -5.447,-5.447 z"
               id="path962" />
          </g>
        </g>
        <g
           style="fill:#ffffff"
           id="g972">
          <g
             style="fill:#ffffff"
             id="g970">
            <path
               style="fill:#ffffff"
               inkscape:connector-curvature="0"
               d="m 174.298,277.787 c -3.007,0 -5.447,2.435 -5.447,5.447 v 81.702 c 0,3.012 2.44,5.447 5.447,5.447 3.007,0 5.447,-2.435 5.447,-5.447 v -81.702 c 0,-3.012 -2.44,-5.447 -5.447,-5.447 z"
               id="path968" />
          </g>
        </g>
        <g
           style="fill:#ffffff"
           id="g978">
          <g
             style="fill:#ffffff"
             id="g976">
            <path
               style="fill:#ffffff"
               inkscape:connector-curvature="0"
               d="m 201.532,305.021 c -3.007,0 -5.447,2.435 -5.447,5.447 v 136.17 c 0,3.012 2.44,5.447 5.447,5.447 3.007,0 5.447,-2.435 5.447,-5.447 v -136.17 c 0,-3.012 -2.44,-5.447 -5.447,-5.447 z"
               id="path974" />
          </g>
        </g>
        <g
           style="fill:#ffffff"
           id="g984">
          <g
             style="fill:#ffffff"
             id="g982">
            <path
               style="fill:#ffffff"
               inkscape:connector-curvature="0"
               d="m 310.468,32.681 c -3.012,0 -5.447,2.44 -5.447,5.447 v 54.468 c 0,3.007 2.435,5.447 5.447,5.447 3.012,0 5.447,-2.44 5.447,-5.447 V 38.128 c 0,-3.007 -2.435,-5.447 -5.447,-5.447 z"
               id="path980" />
          </g>
        </g>
        <g
           style="fill:#ffffff"
           id="g990">
          <g
             style="fill:#ffffff"
             id="g988">
            <path
               style="fill:#ffffff"
               inkscape:connector-curvature="0"
               d="m 337.702,114.383 c -3.012,0 -5.447,2.44 -5.447,5.447 v 163.404 c 0,3.012 2.435,5.447 5.447,5.447 3.012,0 5.447,-2.435 5.447,-5.447 V 119.83 c 0,-3.007 -2.435,-5.447 -5.447,-5.447 z"
               id="path986" />
          </g>
        </g>
        <g
           style="fill:#ffffff"
           id="g996">
          <g
             style="fill:#ffffff"
             id="g994">
            <path
               style="fill:#ffffff"
               inkscape:connector-curvature="0"
               d="m 310.468,141.617 c -3.012,0 -5.447,2.44 -5.447,5.447 v 27.234 c 0,3.007 2.435,5.447 5.447,5.447 3.012,0 5.447,-2.44 5.447,-5.447 v -27.234 c 0,-3.007 -2.435,-5.447 -5.447,-5.447 z"
               id="path992" />
          </g>
        </g>
        <g
           style="fill:#ffffff"
           id="g1002">
          <g
             style="fill:#ffffff"
             id="g1000">
            <path
               style="fill:#ffffff"
               inkscape:connector-curvature="0"
               d="m 283.234,196.085 c -3.012,0 -5.447,2.44 -5.447,5.447 v 136.17 c 0,3.012 2.435,5.447 5.447,5.447 3.012,0 5.447,-2.435 5.447,-5.447 v -136.17 c 0,-3.007 -2.435,-5.447 -5.447,-5.447 z"
               id="path998" />
          </g>
        </g>
        <g
           style="fill:#ffffff"
           id="g1008">
          <g
             style="fill:#ffffff"
             id="g1006">
            <path
               style="fill:#ffffff"
               inkscape:connector-curvature="0"
               d="m 392.17,359.489 c -3.012,0 -5.447,2.435 -5.447,5.447 v 108.936 c 0,3.012 2.435,5.447 5.447,5.447 3.012,0 5.447,-2.435 5.447,-5.447 V 364.936 c 0,-3.012 -2.435,-5.447 -5.447,-5.447 z"
               id="path1004" />
          </g>
        </g>
        <g
           style="fill:#ffffff"
           id="g1014">
          <g
             style="fill:#ffffff"
             id="g1012">
            <path
               style="fill:#ffffff"
               inkscape:connector-curvature="0"
               d="m 419.404,305.021 c -3.012,0 -5.447,2.435 -5.447,5.447 v 108.936 c 0,3.012 2.435,5.447 5.447,5.447 3.012,0 5.447,-2.435 5.447,-5.447 V 310.468 c 0,-3.012 -2.435,-5.447 -5.447,-5.447 z"
               id="path1010" />
          </g>
        </g>
        <g
           style="fill:#ffffff"
           id="g1020">
          <g
             style="fill:#ffffff"
             id="g1018">
            <path
               style="fill:#ffffff"
               inkscape:connector-curvature="0"
               d="m 392.17,141.617 c -3.012,0 -5.447,2.44 -5.447,5.447 v 27.234 c 0,3.007 2.435,5.447 5.447,5.447 3.012,0 5.447,-2.44 5.447,-5.447 v -27.234 c 0,-3.007 -2.435,-5.447 -5.447,-5.447 z"
               id="path1016" />
          </g>
        </g>
        <g
           style="fill:#ffffff"
           id="g1026">
          <g
             style="fill:#ffffff"
             id="g1024">
            <path
               style="fill:#ffffff"
               inkscape:connector-curvature="0"
               d="m 446.638,196.085 c -3.012,0 -5.447,2.44 -5.447,5.447 v 81.702 c 0,3.012 2.435,5.447 5.447,5.447 3.012,0 5.447,-2.435 5.447,-5.447 v -81.702 c 0,-3.007 -2.435,-5.447 -5.447,-5.447 z"
               id="path1022" />
          </g>
        </g>
        <g
           style="fill:#ffffff"
           id="g1028" />
        <g
           style="fill:#ffffff"
           id="g1030" />
        <g
           style="fill:#ffffff"
           id="g1032" />
        <g
           style="fill:#ffffff"
           id="g1034" />
        <g
           style="fill:#ffffff"
           id="g1036" />
        <g
           style="fill:#ffffff"
           id="g1038" />
        <g
           style="fill:#ffffff"
           id="g1040" />
        <g
           style="fill:#ffffff"
           id="g1042" />
        <g
           style="fill:#ffffff"
           id="g1044" />
        <g
           style="fill:#ffffff"
           id="g1046" />
        <g
           style="fill:#ffffff"
           id="g1048" />
        <g
           style="fill:#ffffff"
           id="g1050" />
        <g
           style="fill:#ffffff"
           id="g1052" />
        <g
           style="fill:#ffffff"
           id="g1054" />
        <g
           style="fill:#ffffff"
           id="g1056" />
      </g>
      <g
         transform="matrix(0.35277777,0,0,-0.35277777,-188.62628,283.47066)"
         id="g1465">
        <g
           id="text5173"
           style="font-style:normal;font-weight:normal;font-size:64.7104187px;line-height:1.25;font-family:sans-serif;letter-spacing:0px;word-spacing:0px;fill:#ffffff;fill-opacity:1;stroke:none;stroke-width:1.61776042"
           transform="scale(1,-1)"
           aria-label="PARKIETY">
          <path
             id="path1250"
             style="fill:#ffffff;stroke-width:1.61776042"
             d="m 315.5753,-431.78769 q 0,3.12809 -1.10589,5.81383 -1.07429,2.65414 -3.0333,4.61314 -2.43296,2.43296 -5.75063,3.66524 -3.31768,1.20068 -8.37318,1.20068 h -6.25618 v 17.53627 h -6.25618 v -47.04776 h 12.76514 q 4.23398,0 7.17249,0.72673 2.93851,0.69513 5.21349,2.21178 2.68573,1.80103 4.13919,4.48676 1.48505,2.68574 1.48505,6.79333 z m -6.50896,0.15799 q 0,-2.43296 -0.85311,-4.23399 -0.85312,-1.80102 -2.59095,-2.93851 -1.51665,-0.9795 -3.47565,-1.39026 -1.92741,-0.44236 -4.89752,-0.44236 h -6.19299 v 18.80015 h 5.27668 q 3.79163,0 6.16139,-0.66354 2.36977,-0.69513 3.85482,-2.18018 1.48506,-1.51665 2.0854,-3.19129 0.63193,-1.67463 0.63193,-3.76002 z"
             inkscape:connector-curvature="0" />
          <path
             id="path1252"
             style="fill:#ffffff;stroke-width:1.61776042"
             d="m 359.43178,-398.95853 h -6.66695 l -4.61314,-13.1127 H 327.8033 l -4.61315,13.1127 h -6.35097 l 17.12551,-47.04776 h 8.34158 z m -13.2075,-18.48417 -8.24679,-23.09733 -8.27838,23.09733 z"
             inkscape:connector-curvature="0" />
          <path
             id="path1254"
             style="fill:#ffffff;stroke-width:1.61776042"
             d="m 405.50003,-398.95853 h -8.1204 l -15.73524,-18.70535 h -8.81553 v 18.70535 h -6.25619 v -47.04776 h 13.1759 q 4.26558,0 7.1093,0.56875 2.84372,0.53714 5.1187,1.959 2.55935,1.61144 3.9812,4.076 1.45346,2.43296 1.45346,6.19299 0,5.0871 -2.55935,8.53116 -2.55934,3.41246 -7.0461,5.15029 z m -14.62935,-33.80866 q 0,-2.0222 -0.72673,-3.57045 -0.69513,-1.57984 -2.33817,-2.65414 -1.35867,-0.91631 -3.22288,-1.26387 -1.86422,-0.37917 -4.39197,-0.37917 h -7.36207 v 17.75745 h 6.31937 q 2.97011,0 5.18189,-0.50555 2.21178,-0.53715 3.76003,-1.959 1.42186,-1.32707 2.0854,-3.03331 0.69513,-1.73782 0.69513,-4.39196 z"
             inkscape:connector-curvature="0" />
          <path
             id="path1256"
             style="fill:#ffffff;stroke-width:1.61776042"
             d="m 449.3881,-398.95853 h -8.1204 l -18.61056,-20.94873 -4.67634,4.99231 v 15.95642 h -6.25619 v -47.04776 h 6.25619 v 24.55078 l 22.84454,-24.55078 h 7.58326 l -21.01193,22.11782 z"
             inkscape:connector-curvature="0" />
          <path
             id="path1258"
             style="fill:#ffffff;stroke-width:1.61776042"
             d="m 473.02258,-398.95853 h -18.57897 v -4.80272 h 6.16139 v -37.44231 h -6.16139 v -4.80273 h 18.57897 v 4.80273 h -6.16139 v 37.44231 h 6.16139 z"
             inkscape:connector-curvature="0" />
          <path
             id="path1260"
             style="fill:#ffffff;stroke-width:1.61776042"
             d="m 514.73046,-398.95853 h -30.99655 v -47.04776 h 30.99655 v 5.56105 H 489.9901 v 12.89153 h 24.74036 v 5.56105 H 489.9901 v 17.47308 h 24.74036 z"
             inkscape:connector-curvature="0" />
          <path
             id="path1262"
             style="fill:#ffffff;stroke-width:1.61776042"
             d="m 558.23937,-440.44524 h -16.80954 v 41.48671 h -6.25618 v -41.48671 h -16.80954 v -5.56105 h 39.87526 z"
             inkscape:connector-curvature="0" />
          <path
             id="path1264"
             style="fill:#ffffff;stroke-width:1.61776042"
             d="m 597.92504,-446.00629 -16.55676,26.415 v 20.63276 h -6.25619 v -19.96923 l -16.61996,-27.07853 h 6.91972 l 12.85993,21.04353 12.98632,-21.04353 z"
             inkscape:connector-curvature="0" />
        </g>
        <g
           id="text5177"
           style="font-style:normal;font-weight:normal;font-size:64.2971344px;line-height:1.25;font-family:sans-serif;letter-spacing:0px;word-spacing:0px;fill:#ffffff;fill-opacity:1;stroke:none;stroke-width:1.60742819"
           transform="scale(1,-1)"
           aria-label="I PANELE">
          <path
             id="path1235"
             style="fill:#ffffff;stroke-width:1.60742819"
             d="m 315.65658,-301.44421 h -18.46031 v -4.77206 h 6.12204 v -37.20317 h -6.12204 v -4.77206 h 18.46031 v 4.77206 h -6.12204 v 37.20317 h 6.12204 z"
             inkscape:connector-curvature="0" />
          <path
             id="path1237"
             style="fill:#ffffff;stroke-width:1.60742819"
             d="m 379.48278,-334.06371 q 0,3.10812 -1.09882,5.7767 -1.06744,2.63719 -3.01393,4.58368 -2.41742,2.41742 -5.71391,3.64183 -3.29648,1.19301 -8.3197,1.19301 h -6.21622 v 17.42428 h -6.21623 v -46.74729 h 12.68362 q 4.20694,0 7.12668,0.72209 2.91974,0.69069 5.18019,2.19766 2.66858,1.78952 4.11276,4.4581 1.47556,2.66858 1.47556,6.74994 z m -6.46738,0.15698 q 0,-2.41742 -0.84767,-4.20694 -0.84767,-1.78952 -2.5744,-2.91975 -1.50696,-0.97324 -3.45346,-1.38138 -1.9151,-0.43953 -4.86624,-0.43953 h -6.15343 v 18.68007 h 5.24298 q 3.76741,0 6.12204,-0.65929 2.35463,-0.69069 3.8302,-2.16626 1.47557,-1.50697 2.07207,-3.17091 0.62791,-1.66394 0.62791,-3.73601 z"
             inkscape:connector-curvature="0" />
          <path
             id="path1239"
             style="fill:#ffffff;stroke-width:1.60742819"
             d="m 423.05916,-301.44421 h -6.62436 l -4.58368,-13.02896 h -20.21844 l -4.58368,13.02896 h -6.31041 l 17.01614,-46.74729 h 8.2883 z m -13.12314,-18.36613 -8.19412,-22.94981 -8.22551,22.94981 z"
             inkscape:connector-curvature="0" />
          <path
             id="path1241"
             style="fill:#ffffff;stroke-width:1.60742819"
             d="m 465.81926,-301.44421 h -7.69179 l -22.16493,-41.81826 v 41.81826 h -5.8081 v -46.74729 h 9.6383 l 20.21843,38.17643 v -38.17643 h 5.80809 z"
             inkscape:connector-curvature="0" />
          <path
             id="path1243"
             style="fill:#ffffff;stroke-width:1.60742819"
             d="m 509.0503,-301.44421 h -30.79858 v -46.74729 h 30.79858 v 5.52554 h -24.58235 v 12.80919 h 24.58235 v 5.52554 h -24.58235 v 17.36148 h 24.58235 z"
             inkscape:connector-curvature="0" />
          <path
             id="path1245"
             style="fill:#ffffff;stroke-width:1.60742819"
             d="m 548.51392,-301.44421 h -29.57417 v -46.74729 h 6.21623 v 41.22175 h 23.35794 z"
             inkscape:connector-curvature="0" />
          <path
             id="path1247"
             style="fill:#ffffff;stroke-width:1.60742819"
             d="m 585.52872,-301.44421 h -30.79858 v -46.74729 h 30.79858 v 5.52554 h -24.58235 v 12.80919 h 24.58235 v 5.52554 h -24.58235 v 17.36148 h 24.58235 z"
             inkscape:connector-curvature="0" />
        </g>
      </g>
    </g>
  </g>
</svg>
