<?xml version="1.0" encoding="UTF-8" standalone="no"?>
<!-- Created with Inkscape (http://www.inkscape.org/) -->

<svg
   xmlns:dc="http://purl.org/dc/elements/1.1/"
   xmlns:cc="http://creativecommons.org/ns#"
   xmlns:rdf="http://www.w3.org/1999/02/22-rdf-syntax-ns#"
   xmlns:svg="http://www.w3.org/2000/svg"
   xmlns="http://www.w3.org/2000/svg"
   xmlns:sodipodi="http://sodipodi.sourceforge.net/DTD/sodipodi-0.dtd"
   xmlns:inkscape="http://www.inkscape.org/namespaces/inkscape"
   width="395.44016mm"
   height="121.74557mm"
   viewBox="0 0 395.44016 121.74558"
   version="1.1"
   id="svg411"
   inkscape:version="0.92.4 (5da689c313, 2019-01-14)">
  <defs
     id="defs405" />
  <sodipodi:namedview
     id="base"
     pagecolor="#6adcff"
     bordercolor="#666666"
     borderopacity="1.0"
     inkscape:pageopacity="0"
     inkscape:pageshadow="2"
     inkscape:zoom="0.175"
     inkscape:cx="831.7412"
     inkscape:cy="34.479817"
     inkscape:document-units="mm"
     inkscape:current-layer="layer1"
     showgrid="false"
     showborder="false"
     fit-margin-top="0"
     fit-margin-left="0"
     fit-margin-right="0"
     fit-margin-bottom="0"
     inkscape:window-width="1920"
     inkscape:window-height="1013"
     inkscape:window-x="-9"
     inkscape:window-y="-9"
     inkscape:window-maximized="1" />
  <metadata
     id="metadata408">
    <rdf:RDF>
      <cc:Work
         rdf:about="">
        <dc:format>image/svg+xml</dc:format>
        <dc:type
           rdf:resource="http://purl.org/dc/dcmitype/StillImage" />
        <dc:title></dc:title>
      </cc:Work>
    </rdf:RDF>
  </metadata>
  <g
     inkscape:label="Layer 1"
     inkscape:groupmode="layer"
     id="layer1"
     transform="translate(114.56532,-60.746259)">
    <g
       transform="matrix(0.35277777,0,0,-0.35277777,-2.4005758,-31.426852)"
       id="g455">
      <g
         id="g1451"
         transform="matrix(1.6293574,0,0,1.6293574,1249.5905,-1047.1597)">
        <g
           id="text1425"
           style="font-style:normal;font-variant:normal;font-weight:normal;font-stretch:normal;font-size:69.25964355px;line-height:1.25;font-family:Lato;-inkscape-font-specification:'Lato, Normal';font-variant-ligatures:normal;font-variant-caps:normal;font-variant-numeric:normal;font-feature-settings:normal;text-align:end;letter-spacing:0px;word-spacing:0px;writing-mode:lr-tb;text-anchor:end;fill:#ffffff;fill-opacity:1;stroke:none;stroke-width:1.73149109"
           transform="scale(1.0069981,-0.99305054)"
           aria-label="MALOWANIE ">
          <path
             inkscape:connector-curvature="0"
             id="path1210"
             style="font-style:normal;font-variant:normal;font-weight:normal;font-stretch:normal;font-size:69.25964355px;font-family:Lato;-inkscape-font-specification:'Lato, Normal';font-variant-ligatures:normal;font-variant-caps:normal;font-variant-numeric:normal;font-feature-settings:normal;text-align:end;writing-mode:lr-tb;text-anchor:end;fill:#ffffff;stroke-width:1.73149109"
             d="m -640.63191,-456.57494 v 49.62453 h -5.88707 v -36.4652 q 0,-0.72723 0.0346,-1.55834 0.0693,-0.83112 0.13851,-1.69686 l -17.03787,31.02832 q -0.79648,1.55834 -2.42409,1.55834 h -0.96963 q -1.6276,0 -2.42409,-1.55834 l -17.38417,-31.16684 q 0.20778,1.83538 0.20778,3.39372 v 36.4652 h -5.88707 v -49.62453 h 4.95207 q 0.90037,0 1.38519,0.17315 0.48482,0.17314 0.935,0.96963 l 17.14177,30.5435 q 0.41555,0.83112 0.79648,1.73149 0.41556,0.90038 0.76186,1.83539 0.3463,-0.93501 0.72722,-1.83539 0.38093,-0.935 0.83112,-1.76612 l 16.83009,-30.50887 q 0.41556,-0.79649 0.90038,-0.96963 0.51945,-0.17315 1.41982,-0.17315 z" />
          <path
             inkscape:connector-curvature="0"
             id="path1212"
             style="font-style:normal;font-variant:normal;font-weight:normal;font-stretch:normal;font-size:69.25964355px;font-family:Lato;-inkscape-font-specification:'Lato, Normal';font-variant-ligatures:normal;font-variant-caps:normal;font-variant-numeric:normal;font-feature-settings:normal;text-align:end;writing-mode:lr-tb;text-anchor:end;fill:#ffffff;stroke-width:1.73149109"
             d="m -601.65713,-425.37347 -7.79171,-20.18919 q -0.3463,-0.90038 -0.72723,-2.07779 -0.38092,-1.21204 -0.72722,-2.56261 -0.72723,2.80502 -1.48908,4.67503 l -7.79171,20.15456 z m 13.99045,18.42306 h -5.19448 q -0.90037,0 -1.45445,-0.45019 -0.55407,-0.45018 -0.83111,-1.14278 l -4.6404,-11.98192 h -22.26697 l -4.6404,11.98192 q -0.20778,0.62334 -0.79649,1.10815 -0.5887,0.48482 -1.45445,0.48482 h -5.19447 l 19.84289,-49.62453 h 6.78744 z" />
          <path
             inkscape:connector-curvature="0"
             id="path1214"
             style="font-style:normal;font-variant:normal;font-weight:normal;font-stretch:normal;font-size:69.25964355px;font-family:Lato;-inkscape-font-specification:'Lato, Normal';font-variant-ligatures:normal;font-variant-caps:normal;font-variant-numeric:normal;font-feature-settings:normal;text-align:end;writing-mode:lr-tb;text-anchor:end;fill:#ffffff;stroke-width:1.73149109"
             d="m -552.91674,-412.59507 v 5.64466 h -28.15404 v -49.62453 h 6.68356 v 43.97987 z" />
          <path
             inkscape:connector-curvature="0"
             id="path1216"
             style="font-style:normal;font-variant:normal;font-weight:normal;font-stretch:normal;font-size:69.25964355px;font-family:Lato;-inkscape-font-specification:'Lato, Normal';font-variant-ligatures:normal;font-variant-caps:normal;font-variant-numeric:normal;font-feature-settings:normal;text-align:end;writing-mode:lr-tb;text-anchor:end;fill:#ffffff;stroke-width:1.73149109"
             d="m -501.94381,-431.74536 q 0,5.5754 -1.76612,10.25043 -1.76612,4.64039 -4.9867,7.99948 -3.22057,3.3591 -7.75708,5.22911 -4.50187,1.83538 -9.97339,1.83538 -5.47151,0 -9.97338,-1.83538 -4.50188,-1.87001 -7.72245,-5.22911 -3.22058,-3.35909 -4.9867,-7.99948 -1.76612,-4.67503 -1.76612,-10.25043 0,-5.5754 1.76612,-10.2158 1.76612,-4.67502 4.9867,-8.03412 3.22057,-3.39372 7.72245,-5.26373 4.50187,-1.87001 9.97338,-1.87001 5.47152,0 9.97339,1.87001 4.53651,1.87001 7.75708,5.26373 3.22058,3.3591 4.9867,8.03412 1.76612,4.6404 1.76612,10.2158 z m -6.89134,0 q 0,-4.57114 -1.24667,-8.20727 -1.24667,-3.63613 -3.53224,-6.12948 -2.28557,-2.52797 -5.54077,-3.87854 -3.25521,-1.35056 -7.27227,-1.35056 -3.98243,0 -7.23763,1.35056 -3.2552,1.35057 -5.5754,3.87854 -2.28557,2.49335 -3.53224,6.12948 -1.24668,3.63613 -1.24668,8.20727 0,4.57114 1.24668,8.20727 1.24667,3.6015 3.53224,6.12947 2.3202,2.49335 5.5754,3.84392 3.2552,1.31593 7.23763,1.31593 4.01706,0 7.27227,-1.31593 3.2552,-1.35057 5.54077,-3.84392 2.28557,-2.52797 3.53224,-6.12947 1.24667,-3.63613 1.24667,-8.20727 z" />
          <path
             inkscape:connector-curvature="0"
             id="path1218"
             style="font-style:normal;font-variant:normal;font-weight:normal;font-stretch:normal;font-size:69.25964355px;font-family:Lato;-inkscape-font-specification:'Lato, Normal';font-variant-ligatures:normal;font-variant-caps:normal;font-variant-numeric:normal;font-feature-settings:normal;text-align:end;writing-mode:lr-tb;text-anchor:end;fill:#ffffff;stroke-width:1.73149109"
             d="m -428.70066,-456.57494 -15.47953,49.62453 h -6.02558 l -12.57063,-37.85039 q -0.17315,-0.55408 -0.3463,-1.17742 -0.13852,-0.62333 -0.31167,-1.31593 -0.17315,0.6926 -0.34629,1.31593 -0.17315,0.62334 -0.3463,1.17742 l -12.63989,37.85039 h -6.02559 l -15.47953,-49.62453 h 5.5754 q 0.90038,0 1.48909,0.45018 0.62333,0.45019 0.79648,1.14279 l 10.25043,34.4913 q 0.24241,0.93501 0.45019,2.00853 0.24241,1.07352 0.45018,2.28557 0.24241,-1.21205 0.48482,-2.28557 0.27704,-1.10815 0.58871,-2.00853 l 11.67025,-34.4913 q 0.20778,-0.58871 0.79649,-1.07353 0.62333,-0.51944 1.48908,-0.51944 h 1.93927 q 0.90037,0 1.45445,0.45018 0.55408,0.45019 0.83112,1.14279 l 11.63562,34.4913 q 0.31166,0.90038 0.55407,1.93927 0.27704,1.0389 0.51945,2.18168 0.17315,-1.14278 0.38093,-2.18168 0.20778,-1.03889 0.45019,-1.93927 l 10.28505,-34.4913 q 0.17315,-0.62334 0.76186,-1.10816 0.62334,-0.48481 1.48908,-0.48481 z" />
          <path
             inkscape:connector-curvature="0"
             id="path1220"
             style="font-style:normal;font-variant:normal;font-weight:normal;font-stretch:normal;font-size:69.25964355px;font-family:Lato;-inkscape-font-specification:'Lato, Normal';font-variant-ligatures:normal;font-variant-caps:normal;font-variant-numeric:normal;font-feature-settings:normal;text-align:end;writing-mode:lr-tb;text-anchor:end;fill:#ffffff;stroke-width:1.73149109"
             d="m -397.93637,-425.37347 -7.79171,-20.18919 q -0.3463,-0.90038 -0.72723,-2.07779 -0.38093,-1.21204 -0.72723,-2.56261 -0.72722,2.80502 -1.48908,4.67503 l -7.79171,20.15456 z m 13.99044,18.42306 h -5.19447 q -0.90037,0 -1.45445,-0.45019 -0.55408,-0.45018 -0.83112,-1.14278 l -4.64039,-11.98192 h -22.26698 l -4.64039,11.98192 q -0.20778,0.62334 -0.79649,1.10815 -0.58871,0.48482 -1.45445,0.48482 h -5.19448 l 19.84289,-49.62453 h 6.78745 z" />
          <path
             inkscape:connector-curvature="0"
             id="path1222"
             style="font-style:normal;font-variant:normal;font-weight:normal;font-stretch:normal;font-size:69.25964355px;font-family:Lato;-inkscape-font-specification:'Lato, Normal';font-variant-ligatures:normal;font-variant-caps:normal;font-variant-numeric:normal;font-feature-settings:normal;text-align:end;writing-mode:lr-tb;text-anchor:end;fill:#ffffff;stroke-width:1.73149109"
             d="m -337.14481,-456.57494 v 49.62453 h -3.35909 q -0.79649,0 -1.35056,-0.27704 -0.51945,-0.27704 -1.0389,-0.935 l -28.70812,-37.40021 q 0.0693,0.86575 0.10389,1.69686 0.0346,0.83112 0.0346,1.55834 v 35.35705 h -5.88707 v -49.62453 h 3.46298 q 0.45019,0 0.76186,0.0693 0.31167,0.0346 0.55407,0.17315 0.24241,0.10388 0.48482,0.34629 0.24241,0.20778 0.51945,0.55408 l 28.70812,37.36558 q -0.0693,-0.90038 -0.13852,-1.73149 -0.0346,-0.86575 -0.0346,-1.6276 v -35.14927 z" />
          <path
             inkscape:connector-curvature="0"
             id="path1224"
             style="font-style:normal;font-variant:normal;font-weight:normal;font-stretch:normal;font-size:69.25964355px;font-family:Lato;-inkscape-font-specification:'Lato, Normal';font-variant-ligatures:normal;font-variant-caps:normal;font-variant-numeric:normal;font-feature-settings:normal;text-align:end;writing-mode:lr-tb;text-anchor:end;fill:#ffffff;stroke-width:1.73149109"
             d="m -317.74021,-406.95041 h -6.71819 v -49.62453 h 6.71819 z" />
          <path
             inkscape:connector-curvature="0"
             id="path1226"
             style="font-style:normal;font-variant:normal;font-weight:normal;font-stretch:normal;font-size:69.25964355px;font-family:Lato;-inkscape-font-specification:'Lato, Normal';font-variant-ligatures:normal;font-variant-caps:normal;font-variant-numeric:normal;font-feature-settings:normal;text-align:end;writing-mode:lr-tb;text-anchor:end;fill:#ffffff;stroke-width:1.73149109"
             d="m -274.50164,-412.42192 -0.0346,5.47151 h -30.57814 v -49.62453 h 30.57814 v 5.47151 h -23.85995 v 16.48379 h 19.32344 v 5.26374 h -19.32344 v 16.93398 z" />
        </g>
        <g
           id="text1435"
           style="font-style:normal;font-weight:normal;font-size:49.84759521px;line-height:1.25;font-family:sans-serif;letter-spacing:0px;word-spacing:0px;fill:#ffffff;fill-opacity:1;stroke:none;stroke-width:1.24618971"
           transform="scale(0.89290631,-1.1199383)"
           aria-label="I SZPACHLOWANIE">
          <path
             inkscape:connector-curvature="0"
             id="path1181"
             style="fill:#ffffff;stroke-width:1.24618971"
             d="m -767.18786,-268.26645 h -14.31171 v -3.69963 h 4.74623 v -28.84248 h -4.74623 v -3.69962 h 14.31171 v 3.69962 h -4.74623 v 28.84248 h 4.74623 z" />
          <path
             inkscape:connector-curvature="0"
             id="path1183"
             style="fill:#ffffff;stroke-width:1.24618971"
             d="m -715.07668,-278.6108 q 0,2.11755 -0.99792,4.18642 -0.97359,2.06887 -2.75038,3.50491 -1.94718,1.55774 -4.55152,2.43396 -2.58,0.87623 -6.23095,0.87623 -3.91868,0 -7.0585,-0.73019 -3.11547,-0.73019 -6.35264,-2.16623 v -6.03623 h 0.34075 q 2.75038,2.28793 6.35265,3.52925 3.60227,1.24132 6.76642,1.24132 4.4785,0 6.96114,-1.67943 2.50698,-1.67944 2.50698,-4.4785 0,-2.40962 -1.19264,-3.55359 -1.1683,-1.14396 -3.57793,-1.77679 -1.82547,-0.48679 -3.96736,-0.80321 -2.11755,-0.31641 -4.50283,-0.80321 -4.81925,-1.02226 -7.15586,-3.48057 -2.31227,-2.48264 -2.31227,-6.45 0,-4.55152 3.84567,-7.44793 3.84566,-2.92076 9.7602,-2.92076 3.82132,0 7.00981,0.73019 3.1885,0.73019 5.6468,1.80113 v 5.69548 h -0.34075 q -2.06887,-1.75246 -5.45208,-2.89642 -3.35887,-1.1683 -6.88812,-1.1683 -3.87001,0 -6.23095,1.60641 -2.33661,1.60642 -2.33661,4.13774 0,2.26359 1.1683,3.55359 1.16831,1.29 4.1134,1.97151 1.55774,0.34076 4.42982,0.82755 2.87208,0.48679 4.86793,0.99793 4.04038,1.07094 6.08491,3.23717 2.04453,2.16623 2.04453,6.06057 z" />
          <path
             inkscape:connector-curvature="0"
             id="path1185"
             style="fill:#ffffff;stroke-width:1.24618971"
             d="m -680.85514,-268.26645 h -28.28267 v -4.47849 l 22.2221,-27.47946 h -21.39455 v -4.28378 h 26.91965 v 4.35679 l -22.44116,27.60116 h 22.97663 z" />
          <path
             inkscape:connector-curvature="0"
             id="path1187"
             style="fill:#ffffff;stroke-width:1.24618971"
             d="m -649.45699,-293.55534 q 0,2.40962 -0.85189,4.47849 -0.82755,2.04453 -2.33661,3.55359 -1.87415,1.87415 -4.42981,2.8234 -2.55567,0.92491 -6.45001,0.92491 h -4.81925 v 13.5085 h -4.81925 v -36.24173 h 9.83322 q 3.26151,0 5.5251,0.55981 2.26358,0.53547 4.01604,1.70378 2.06887,1.38735 3.18849,3.45622 1.14397,2.06887 1.14397,5.23303 z m -5.01397,0.1217 q 0,-1.87416 -0.65717,-3.26152 -0.65717,-1.38736 -1.99585,-2.26358 -1.16831,-0.75453 -2.67736,-1.07095 -1.48472,-0.34075 -3.77265,-0.34075 h -4.77057 v 14.48209 h 4.06472 q 2.92076,0 4.74623,-0.51114 1.82548,-0.53547 2.96944,-1.67943 1.14396,-1.1683 1.60642,-2.45831 0.48679,-1.29 0.48679,-2.89641 z" />
          <path
             inkscape:connector-curvature="0"
             id="path1189"
             style="fill:#ffffff;stroke-width:1.24618971"
             d="m -615.67357,-268.26645 h -5.13566 l -3.55359,-10.10095 h -15.67473 l -3.55359,10.10095 h -4.89227 l 13.19209,-36.24173 h 6.42566 z m -10.17397,-14.23869 -6.35265,-17.79228 -6.37698,17.79228 z" />
          <path
             inkscape:connector-curvature="0"
             id="path1191"
             style="fill:#ffffff;stroke-width:1.24618971"
             d="m -582.18222,-270.89513 q -1.33868,0.58415 -2.43396,1.09528 -1.07095,0.51114 -2.8234,1.07095 -1.48472,0.46245 -3.23718,0.77887 -1.72811,0.34075 -3.82132,0.34075 -3.94302,0 -7.1802,-1.09528 -3.21283,-1.11963 -5.59811,-3.48057 -2.33661,-2.31227 -3.65095,-5.86586 -1.31434,-3.57792 -1.31434,-8.29982 0,-4.47849 1.26566,-8.00774 1.26566,-3.52925 3.65095,-5.96321 2.31226,-2.36095 5.57378,-3.60227 3.28585,-1.24132 7.27755,-1.24132 2.92076,0 5.81718,0.70585 2.92075,0.70585 6.47434,2.48264 v 5.71982 h -0.36509 q -2.99378,-2.50699 -5.93888,-3.65095 -2.94509,-1.14396 -6.30397,-1.14396 -2.75038,0 -4.96528,0.90056 -2.19057,0.87623 -3.91869,2.75038 -1.67943,1.82548 -2.62868,4.62454 -0.9249,2.77472 -0.9249,6.42566 0,3.82133 1.02226,6.57171 1.04661,2.75038 2.67736,4.47849 1.70378,1.80114 3.96736,2.67736 2.28793,0.85189 4.81925,0.85189 3.48057,0 6.52303,-1.19264 3.04245,-1.19264 5.69548,-3.57793 h 0.34075 z" />
          <path
             inkscape:connector-curvature="0"
             id="path1193"
             style="fill:#ffffff;stroke-width:1.24618971"
             d="m -547.59558,-268.26645 h -4.81925 v -17.7436 h -18.08436 v 17.7436 h -4.81925 v -36.24173 h 4.81925 v 14.21435 h 18.08436 v -14.21435 h 4.81925 z" />
          <path
             inkscape:connector-curvature="0"
             id="path1195"
             style="fill:#ffffff;stroke-width:1.24618971"
             d="m -514.90743,-268.26645 h -22.92795 v -36.24173 h 4.81925 v 31.95795 h 18.1087 z" />
          <path
             inkscape:connector-curvature="0"
             id="path1197"
             style="fill:#ffffff;stroke-width:1.24618971"
             d="m -483.55797,-300.3461 q 2.21491,2.43396 3.38322,5.96321 1.19264,3.52925 1.19264,8.00774 0,4.4785 -1.21698,8.03209 -1.19265,3.52925 -3.35888,5.89019 -2.23924,2.45831 -5.30604,3.69963 -3.04245,1.24132 -6.96114,1.24132 -3.82132,0 -6.96114,-1.26566 -3.11547,-1.26566 -5.30604,-3.67529 -2.19057,-2.40962 -3.38321,-5.91453 -1.1683,-3.50491 -1.1683,-8.00775 0,-4.42981 1.1683,-7.93472 1.1683,-3.52925 3.40755,-6.03623 2.14189,-2.38529 5.30604,-3.65095 3.1885,-1.26566 6.9368,-1.26566 3.89435,0 6.98548,1.29 3.11548,1.26566 5.2817,3.62661 z m -0.43811,13.97095 q 0,-7.05849 -3.16415,-10.87982 -3.16416,-3.84566 -8.64058,-3.84566 -5.5251,0 -8.68925,3.84566 -3.13982,3.82133 -3.13982,10.87982 0,7.13152 3.21284,10.92851 3.21283,3.77264 8.61623,3.77264 5.4034,0 8.5919,-3.77264 3.21283,-3.79699 3.21283,-10.92851 z" />
          <path
             inkscape:connector-curvature="0"
             id="path1199"
             style="fill:#ffffff;stroke-width:1.24618971"
             d="m -429.15886,-304.50818 -9.41944,36.24173 h -5.42775 l -7.6183,-30.0838 -7.44794,30.0838 h -5.30604 l -9.58982,-36.24173 h 4.94095 l 7.61831,30.13248 7.49661,-30.13248 h 4.89227 l 7.56963,30.42456 7.56963,-30.42456 z" />
          <path
             inkscape:connector-curvature="0"
             id="path1201"
             style="fill:#ffffff;stroke-width:1.24618971"
             d="m -394.66957,-268.26645 h -5.13567 l -3.55358,-10.10095 h -15.67474 l -3.55358,10.10095 h -4.89227 l 13.19209,-36.24173 h 6.42566 z m -10.17397,-14.23869 -6.35265,-17.79228 -6.37699,17.79228 z" />
          <path
             inkscape:connector-curvature="0"
             id="path1203"
             style="fill:#ffffff;stroke-width:1.24618971"
             d="m -361.51898,-268.26645 h -5.96321 l -17.18379,-32.42041 v 32.42041 h -4.50283 v -36.24173 h 7.47227 l 15.67473,29.59701 v -29.59701 h 4.50283 z" />
          <path
             inkscape:connector-curvature="0"
             id="path1205"
             style="fill:#ffffff;stroke-width:1.24618971"
             d="m -339.10217,-268.26645 h -14.31171 v -3.69963 h 4.74623 v -28.84248 h -4.74623 v -3.69962 h 14.31171 v 3.69962 h -4.74623 v 28.84248 h 4.74623 z" />
          <path
             inkscape:connector-curvature="0"
             id="path1207"
             style="fill:#ffffff;stroke-width:1.24618971"
             d="m -306.97384,-268.26645 h -23.87719 v -36.24173 h 23.87719 v 4.28378 h -19.05794 v 9.93057 h 19.05794 v 4.28378 h -19.05794 v 13.45982 h 19.05794 z" />
        </g>
      </g>
      <g
         id="g1954"
         transform="matrix(0.90587834,0,0,0.90587834,221.18061,-1023.617)">
        <path
           inkscape:connector-curvature="0"
           d="m -471.90062,481.09087 -0.20633,82.49772 -29.01421,-0.10193 0.20632,-82.49774 c 0.0241,-9.49481 6.53874,-17.16972 14.55011,-17.14157 8.01137,0.0281 14.48786,7.74915 14.46411,17.2435 z"
           id="path4674"
           style="fill:#ffffff;fill-opacity:1;stroke:#ffffff;stroke-width:6.52602339;stroke-miterlimit:4;stroke-dasharray:none;stroke-opacity:1" />
        <g
           id="g1756">
          <path
             style="fill:#ffffff;fill-opacity:1;stroke:#ffffff;stroke-width:5.06792116;stroke-miterlimit:4;stroke-dasharray:none;stroke-opacity:1"
             id="path4670"
             d="m -562.1844,601.81708 145.28388,0.43061 c 5.84433,0.0173 10.56995,4.77106 10.55455,10.61731 l -0.0385,13.12476 -0.0252,8.46767 -0.0389,13.12899 c -0.0173,5.84433 -4.77105,10.56996 -10.6173,10.55455 l -145.28466,-0.43061 c -5.84432,-0.0173 -10.56996,-4.77105 -10.55455,-10.6173 l 0.10294,-34.72105 c 0.0192,-5.84701 4.77067,-10.57034 10.61769,-10.55493 z"
             inkscape:connector-curvature="0" />
          <path
             style="fill:#ffffff;fill-opacity:1;stroke:#ffffff;stroke-width:5.99472427;stroke-miterlimit:4;stroke-dasharray:none;stroke-opacity:0"
             id="path4676"
             d="m -481.60025,561.63685 -0.0356,12.01974 c -0.0269,8.96352 -9.54484,16.22927 -21.21813,16.19466 l -68.05205,-0.20361 c -7.00505,-0.0208 -12.71877,5.65919 -12.73953,12.66422 l -0.0305,10.30055 c -0.0179,6.04943 4.22473,11.11785 9.89207,12.40484 l -0.0255,8.58981 c -10.35984,-1.3954 -18.36681,-10.29055 -18.33692,-21.02167 l 0.0305,-10.30054 c 0.0346,-11.6733 9.5594,-21.14179 21.23268,-21.10719 l 68.05014,0.20169 c 7.48439,0.0223 12.71405,-4.06674 12.72497,-7.75171 l 0.0356,-12.01974 z"
             inkscape:connector-curvature="0" />
          <rect
             ry="0.097223975"
             transform="scale(1,-1)"
             y="-838.45935"
             x="-559.32739"
             height="167.61343"
             width="142.1456"
             id="rect1315"
             style="opacity:1;fill:none;fill-opacity:1;fill-rule:nonzero;stroke:#ffffff;stroke-width:6.17460108;stroke-linecap:round;stroke-miterlimit:4;stroke-dasharray:none;stroke-dashoffset:29.09999657;stroke-opacity:1;paint-order:markers fill stroke" />
          <rect
             ry="6.5617294"
             transform="scale(1,-1)"
             y="-560.02997"
             x="-460.10986"
             height="70.084854"
             width="12.868394"
             id="rect1432"
             style="opacity:1;fill:#ffffff;fill-opacity:1;fill-rule:nonzero;stroke:#ffffff;stroke-width:6.26428795;stroke-linecap:round;stroke-miterlimit:4;stroke-dasharray:none;stroke-dashoffset:29.09999657;stroke-opacity:1;paint-order:markers fill stroke" />
          <rect
             rx="9.7646875"
             ry="6.5773277"
             transform="scale(1,-1)"
             y="-553.14746"
             x="-510.94717"
             height="13.818087"
             width="59.129459"
             id="rect1393"
             style="opacity:1;fill:#0096ff;fill-opacity:1;fill-rule:nonzero;stroke:#ffffff;stroke-width:5.60953283;stroke-linecap:round;stroke-miterlimit:4;stroke-dasharray:none;stroke-dashoffset:29.09999657;stroke-opacity:1;paint-order:markers fill stroke" />
          <ellipse
             ry="7.4152536"
             rx="11.387712"
             transform="scale(1,-1)"
             cy="-559.7594"
             cx="-456.53494"
             id="path1419"
             style="opacity:1;fill:#0096ff;fill-opacity:1;fill-rule:nonzero;stroke:#ffffff;stroke-width:6;stroke-linecap:round;stroke-miterlimit:4;stroke-dasharray:none;stroke-dashoffset:29.09999657;stroke-opacity:1;paint-order:markers fill stroke" />
          <rect
             style="opacity:1;fill:#0096ff;fill-opacity:1;fill-rule:nonzero;stroke:#ffffff;stroke-width:5.60953283;stroke-linecap:round;stroke-miterlimit:4;stroke-dasharray:none;stroke-dashoffset:29.09999657;stroke-opacity:1;paint-order:markers fill stroke"
             id="rect1426"
             width="59.129459"
             height="13.818087"
             x="-510.94717"
             y="-539.32935"
             transform="scale(1,-1)"
             ry="6.5773277"
             rx="9.7646875" />
          <rect
             rx="9.7646875"
             ry="6.5773277"
             transform="scale(1,-1)"
             y="-520.97754"
             x="-510.94717"
             height="13.818087"
             width="59.129459"
             id="rect1428"
             style="opacity:1;fill:#0096ff;fill-opacity:1;fill-rule:nonzero;stroke:#ffffff;stroke-width:5.60953283;stroke-linecap:round;stroke-miterlimit:4;stroke-dasharray:none;stroke-dashoffset:29.09999657;stroke-opacity:1;paint-order:markers fill stroke" />
          <rect
             style="opacity:1;fill:#0096ff;fill-opacity:1;fill-rule:nonzero;stroke:#ffffff;stroke-width:5.60953283;stroke-linecap:round;stroke-miterlimit:4;stroke-dasharray:none;stroke-dashoffset:29.09999657;stroke-opacity:1;paint-order:markers fill stroke"
             id="rect1430"
             width="59.129459"
             height="13.818087"
             x="-510.94717"
             y="-502.62573"
             transform="scale(1,-1)"
             ry="6.5773277"
             rx="9.7646875" />
          <g
             id="g1690">
            <g
               id="g1685">
              <g
                 id="g1681">
                <path
                   style="fill:none;stroke:#ffffff;stroke-width:6;stroke-linecap:butt;stroke-linejoin:miter;stroke-miterlimit:4;stroke-dasharray:none;stroke-opacity:1"
                   d="m -553.4223,807.08639 28.46405,30.7112 -29.96216,-53.18282 45.69228,47.93944 -46.44133,-75.65443 67.41483,77.15254 -67.41483,-100.3732 78.65064,101.87131 -75.65443,-119.09955 95.12983,117.60144 -97.37699,-137.82589 113.85617,137.82589 -112.35806,-150.5598 127.33914,151.30885 -120.59765,-160.2975 125.09197,147.56359 -108.61279,-146.81453 109.36184,130.33535 -91.38455,-129.5863 95.12982,107.86374 -73.40726,-107.11469 71.1601,75.65443 -51.68471,-74.15632 50.93566,52.43376 -34.45647,-54.68092 33.70741,36.70363 -14.23202,-34.45647 14.23202,8.98864"
                   id="path1434"
                   inkscape:connector-curvature="0" />
              </g>
            </g>
          </g>
        </g>
      </g>
    </g>
  </g>
</svg>
