<?xml version="1.0" encoding="UTF-8" standalone="no"?>
<!-- Created with Inkscape (http://www.inkscape.org/) -->

<svg
   xmlns:dc="http://purl.org/dc/elements/1.1/"
   xmlns:cc="http://creativecommons.org/ns#"
   xmlns:rdf="http://www.w3.org/1999/02/22-rdf-syntax-ns#"
   xmlns:svg="http://www.w3.org/2000/svg"
   xmlns="http://www.w3.org/2000/svg"
   xmlns:sodipodi="http://sodipodi.sourceforge.net/DTD/sodipodi-0.dtd"
   xmlns:inkscape="http://www.inkscape.org/namespaces/inkscape"
   width="141.69986mm"
   height="171.40639mm"
   viewBox="0 0 141.69986 171.40639"
   version="1.1"
   id="svg8"
   sodipodi:docname="graphLG_01.svg"
   inkscape:version="0.92.4 (5da689c313, 2019-01-14)">
  <defs
     id="defs2">
    <clipPath
       clipPathUnits="userSpaceOnUse"
       id="clipPath918-0">
      <rect
         rx="0"
         transform="rotate(45.14541)"
         ry="15.040849"
         y="494.38312"
         x="-690.24603"
         height="139.19397"
         width="118.24004"
         id="rect920-9"
         style="opacity:1;fill:#ff0000;fill-opacity:1;stroke:none;stroke-width:13.22916603;stroke-linecap:round;stroke-miterlimit:4;stroke-dasharray:none;stroke-dashoffset:0;stroke-opacity:1;paint-order:markers fill stroke" />
    </clipPath>
    <clipPath
       clipPathUnits="userSpaceOnUse"
       id="clipPath5595">
      <rect
         rx="0"
         transform="rotate(45.14541)"
         ry="15.040849"
         y="494.38312"
         x="-690.24603"
         height="139.19397"
         width="118.24004"
         id="rect5593"
         style="opacity:1;fill:#ff0000;fill-opacity:1;stroke:none;stroke-width:13.22916603;stroke-linecap:round;stroke-miterlimit:4;stroke-dasharray:none;stroke-dashoffset:0;stroke-opacity:1;paint-order:markers fill stroke" />
    </clipPath>
    <clipPath
       clipPathUnits="userSpaceOnUse"
       id="clipPath5599">
      <rect
         rx="0"
         transform="rotate(45.14541)"
         ry="15.040849"
         y="494.38312"
         x="-690.24603"
         height="139.19397"
         width="118.24004"
         id="rect5597"
         style="opacity:1;fill:#ff0000;fill-opacity:1;stroke:none;stroke-width:13.22916603;stroke-linecap:round;stroke-miterlimit:4;stroke-dasharray:none;stroke-dashoffset:0;stroke-opacity:1;paint-order:markers fill stroke" />
    </clipPath>
    <clipPath
       clipPathUnits="userSpaceOnUse"
       id="clipPath5603">
      <rect
         rx="0"
         transform="rotate(45.14541)"
         ry="15.040849"
         y="494.38312"
         x="-690.24603"
         height="139.19397"
         width="118.24004"
         id="rect5601"
         style="opacity:1;fill:#ff0000;fill-opacity:1;stroke:none;stroke-width:13.22916603;stroke-linecap:round;stroke-miterlimit:4;stroke-dasharray:none;stroke-dashoffset:0;stroke-opacity:1;paint-order:markers fill stroke" />
    </clipPath>
    <clipPath
       clipPathUnits="userSpaceOnUse"
       id="clipPath1014-5">
      <rect
         style="opacity:1;fill:#ff0000;fill-opacity:1;stroke:none;stroke-width:13.22916603;stroke-linecap:round;stroke-miterlimit:4;stroke-dasharray:none;stroke-dashoffset:0;stroke-opacity:1;paint-order:markers fill stroke"
         id="rect1016-5"
         width="300.83859"
         height="580.72321"
         x="-995.23877"
         y="-233.01669"
         ry="15.035927" />
    </clipPath>
    <clipPath
       clipPathUnits="userSpaceOnUse"
       id="clipPath1010-7">
      <rect
         style="opacity:1;fill:#ff0000;fill-opacity:1;stroke:none;stroke-width:13.22916603;stroke-linecap:round;stroke-miterlimit:4;stroke-dasharray:none;stroke-dashoffset:0;stroke-opacity:1;paint-order:markers fill stroke"
         id="rect1012-2"
         width="300.83859"
         height="580.72321"
         x="-995.23877"
         y="-233.01669"
         ry="15.035927" />
    </clipPath>
    <clipPath
       clipPathUnits="userSpaceOnUse"
       id="clipPath1006-2">
      <rect
         style="opacity:1;fill:#ff0000;fill-opacity:1;stroke:none;stroke-width:13.22916603;stroke-linecap:round;stroke-miterlimit:4;stroke-dasharray:none;stroke-dashoffset:0;stroke-opacity:1;paint-order:markers fill stroke"
         id="rect1008-9"
         width="300.83859"
         height="580.72321"
         x="-995.23877"
         y="-233.01669"
         ry="15.035927" />
    </clipPath>
    <clipPath
       clipPathUnits="userSpaceOnUse"
       id="clipPath1002-0">
      <rect
         style="opacity:1;fill:#ff0000;fill-opacity:1;stroke:none;stroke-width:13.22916603;stroke-linecap:round;stroke-miterlimit:4;stroke-dasharray:none;stroke-dashoffset:0;stroke-opacity:1;paint-order:markers fill stroke"
         id="rect1004-9"
         width="300.83859"
         height="580.72321"
         x="-995.23877"
         y="-233.01669"
         ry="15.035927" />
    </clipPath>
  </defs>
  <sodipodi:namedview
     id="base"
     pagecolor="#00a19a"
     bordercolor="#666666"
     borderopacity="1.0"
     inkscape:pageopacity="0"
     inkscape:pageshadow="2"
     inkscape:zoom="0.22627417"
     inkscape:cx="-129.24653"
     inkscape:cy="8.9492783"
     inkscape:document-units="mm"
     inkscape:current-layer="layer1"
     showgrid="false"
     showborder="false"
     fit-margin-top="0"
     fit-margin-left="0"
     fit-margin-right="0"
     fit-margin-bottom="0"
     inkscape:window-width="1920"
     inkscape:window-height="1013"
     inkscape:window-x="-9"
     inkscape:window-y="-9"
     inkscape:window-maximized="1" />
  <metadata
     id="metadata5">
    <rdf:RDF>
      <cc:Work
         rdf:about="">
        <dc:format>image/svg+xml</dc:format>
        <dc:type
           rdf:resource="http://purl.org/dc/dcmitype/StillImage" />
        <dc:title></dc:title>
      </cc:Work>
    </rdf:RDF>
  </metadata>
  <g
     inkscape:label="Layer 1"
     inkscape:groupmode="layer"
     id="layer1"
     transform="translate(1145.9849,-892.30706)">
    <g
       transform="translate(-1209.4539,885.80413)"
       id="g5366">
      <g
         transform="matrix(0.35277777,0,0,-0.35277777,-188.62628,283.47066)"
         id="g1471">
        <g
           id="text5181"
           style="font-style:normal;font-weight:normal;font-size:61.34245682px;line-height:1.25;font-family:sans-serif;letter-spacing:0px;word-spacing:0px;fill:#ffffff;fill-opacity:1;stroke:none;stroke-width:1.53356147"
           transform="scale(1,-1)"
           aria-label="TYNKI">
          <path
             id="path1290"
             style="fill:#ffffff;stroke-width:1.53356147"
             d="m 862.14108,-435.91792 h -15.93466 v 39.32747 h -5.93057 v -39.32747 h -15.93466 v -5.27162 h 37.79989 z"
             inkscape:connector-curvature="0" />
          <path
             id="path1292"
             style="fill:#ffffff;stroke-width:1.53356147"
             d="m 899.76126,-441.18954 -15.69504,25.04019 v 19.5589 h -5.93057 v -18.9299 l -15.75495,-25.66919 h 6.55957 l 12.19061,19.94828 12.31043,-19.94828 z"
             inkscape:connector-curvature="0" />
          <path
             id="path1294"
             style="fill:#ffffff;stroke-width:1.53356147"
             d="m 939.95734,-396.59045 h -7.33833 l -21.14638,-39.89656 v 39.89656 h -5.54118 v -44.59909 h 9.19537 l 19.28933,36.42209 v -36.42209 h 5.54119 z"
             inkscape:connector-curvature="0" />
          <path
             id="path1296"
             style="fill:#ffffff;stroke-width:1.53356147"
             d="m 987.67147,-396.59045 h -7.69776 l -17.64195,-19.85843 -4.43295,4.73248 v 15.12595 h -5.93057 v -44.59909 h 5.93057 v 23.273 l 21.65556,-23.273 h 7.18857 l -19.91832,20.96666 z"
             inkscape:connector-curvature="0" />
          <path
             id="path1298"
             style="fill:#ffffff;stroke-width:1.53356147"
             d="m 1010.0758,-396.59045 h -17.61196 v -4.55276 h 5.84071 v -35.49356 h -5.84071 v -4.55277 h 17.61196 v 4.55277 h -5.8407 v 35.49356 h 5.8407 z"
             inkscape:connector-curvature="0" />
        </g>
        <g
           id="text5185"
           style="font-style:normal;font-weight:normal;font-size:54.90969467px;line-height:1.25;font-family:sans-serif;letter-spacing:0px;word-spacing:0px;fill:#ffffff;fill-opacity:1;stroke:none;stroke-width:1.3727423"
           transform="scale(1,-1)"
           aria-label="DEKORACYJNE">
          <path
             id="path1267"
             style="fill:#ffffff;stroke-width:1.3727423"
             d="m 751.8762,-319.98103 q 0,5.44271 -2.38621,9.86658 -2.3594,4.42388 -6.30067,6.86372 -2.73476,1.68911 -6.113,2.43983 -3.35142,0.75072 -8.84775,0.75072 h -10.08108 v -39.92214 h 9.97383 q 5.84488,0 9.27674,0.85797 3.45867,0.83115 5.84488,2.30578 4.07533,2.54708 6.35429,6.78327 2.27897,4.2362 2.27897,10.05427 z m -5.54995,-0.0804 q 0,-4.69199 -1.6355,-7.90935 -1.63549,-3.21737 -4.87967,-5.06735 -2.3594,-1.34057 -5.01372,-1.84999 -2.65433,-0.53622 -6.3543,-0.53622 h -4.98692 v 30.80627 h 4.98692 q 3.83403,0 6.67603,-0.56304 2.86882,-0.56304 5.25503,-2.09129 2.97606,-1.90361 4.45069,-5.01373 1.50144,-3.11012 1.50144,-7.7753 z"
             inkscape:connector-curvature="0" />
          <path
             id="path1269"
             style="fill:#ffffff;stroke-width:1.3727423"
             d="m 786.81142,-300.06018 h -26.30196 v -39.92214 h 26.30196 v 4.7188 h -20.9933 v 10.93905 h 20.9933 v 4.7188 h -20.9933 v 14.82669 h 20.9933 z"
             inkscape:connector-curvature="0" />
          <path
             id="path1271"
             style="fill:#ffffff;stroke-width:1.3727423"
             d="m 827.35022,-300.06018 h -6.89052 l -15.7919,-17.77594 -3.96809,4.2362 v 13.53974 h -5.30865 v -39.92214 h 5.30865 v 20.83244 l 19.38463,-20.83244 h 6.43473 l -17.82957,18.76796 z"
             inkscape:connector-curvature="0" />
          <path
             id="path1273"
             style="fill:#ffffff;stroke-width:1.3727423"
             d="m 862.55355,-335.39757 q 2.43983,2.68114 3.72678,6.56878 1.31376,3.88765 1.31376,8.82095 0,4.93329 -1.34057,8.84775 -1.31376,3.88765 -3.69997,6.48835 -2.46665,2.70795 -5.84488,4.07533 -3.35142,1.36738 -7.66805,1.36738 -4.20939,0 -7.66806,-1.39419 -3.43185,-1.39419 -5.84488,-4.04852 -2.41302,-2.65432 -3.72678,-6.51516 -1.28694,-3.86084 -1.28694,-8.82094 0,-4.87967 1.28694,-8.74051 1.28695,-3.88765 3.7536,-6.64922 2.3594,-2.62752 5.84487,-4.02171 3.51229,-1.39419 7.64125,-1.39419 4.28982,0 7.69486,1.421 3.43186,1.39419 5.81807,3.9949 z m -0.48261,15.38973 q 0,-7.7753 -3.48547,-11.98469 -3.48548,-4.23619 -9.51804,-4.23619 -6.08618,0 -9.57166,4.23619 -3.45867,4.20939 -3.45867,11.98469 0,7.85573 3.5391,12.0383 3.5391,4.15577 9.49123,4.15577 5.95212,0 9.46441,-4.15577 3.5391,-4.18257 3.5391,-12.0383 z"
             inkscape:connector-curvature="0" />
          <path
             id="path1275"
             style="fill:#ffffff;stroke-width:1.3727423"
             d="m 909.04448,-300.06018 h -6.89053 l -13.35206,-15.87233 h -7.48037 v 15.87233 h -5.30866 v -39.92214 h 11.18035 q 3.61953,0 6.03256,0.48261 2.41302,0.45579 4.34344,1.6623 2.17172,1.36738 3.37823,3.45867 1.23333,2.06448 1.23333,5.25503 0,4.31663 -2.17173,7.23907 -2.17172,2.89563 -5.97893,4.37025 z m -12.41367,-28.68817 q 0,-1.71593 -0.61666,-3.02969 -0.58985,-1.34057 -1.98404,-2.25215 -1.15289,-0.77753 -2.73476,-1.07246 -1.58187,-0.32173 -3.72678,-0.32173 h -6.24705 v 15.06799 h 5.36227 q 2.52027,0 4.39707,-0.42898 1.87679,-0.4558 3.19055,-1.66231 1.20651,-1.12608 1.76955,-2.57389 0.58985,-1.47463 0.58985,-3.72678 z"
             inkscape:connector-curvature="0" />
          <path
             id="path1277"
             style="fill:#ffffff;stroke-width:1.3727423"
             d="m 945.66881,-300.06018 h -5.6572 l -3.91446,-11.12672 h -17.26652 l -3.91446,11.12672 h -5.38909 l 14.53177,-39.92214 h 7.0782 z m -11.20715,-15.68465 -6.99777,-19.59912 -7.02458,19.59912 z"
             inkscape:connector-curvature="0" />
          <path
             id="path1279"
             style="fill:#ffffff;stroke-width:1.3727423"
             d="m 982.56126,-302.95581 q -1.47462,0.64347 -2.68114,1.20651 -1.1797,0.56304 -3.11012,1.1797 -1.63549,0.50942 -3.56591,0.85797 -1.90361,0.37536 -4.20938,0.37536 -4.34345,0 -7.90936,-1.20652 -3.5391,-1.23332 -6.16662,-3.83402 -2.57389,-2.54708 -4.0217,-6.46154 -1.44782,-3.94128 -1.44782,-9.14268 0,-4.93329 1.3942,-8.82094 1.39419,-3.88765 4.0217,-6.56879 2.54708,-2.6007 6.13981,-3.96808 3.61953,-1.36738 8.0166,-1.36738 3.21736,0 6.40792,0.77753 3.21736,0.77753 7.13182,2.73476 v 6.30067 h -0.40217 q -3.2978,-2.76157 -6.54197,-4.02171 -3.24418,-1.26013 -6.94415,-1.26013 -3.02969,0 -5.46952,0.99202 -2.41302,0.96521 -4.31663,3.02968 -1.84999,2.01086 -2.89563,5.09417 -1.01883,3.05649 -1.01883,7.0782 0,4.20938 1.12607,7.23907 1.15289,3.02968 2.94926,4.93329 1.87679,1.98404 4.37025,2.94925 2.52027,0.9384 5.30865,0.9384 3.83403,0 7.18545,-1.31376 3.35142,-1.31375 6.27386,-3.94127 h 0.37536 z"
             inkscape:connector-curvature="0" />
          <path
             id="path1281"
             style="fill:#ffffff;stroke-width:1.3727423"
             d="m 1018.3813,-339.98232 -14.0492,22.41431 v 17.50783 h -5.30865 v -16.94479 l -14.10279,-22.97735 h 5.8717 l 10.91224,17.85638 11.0195,-17.85638 z"
             inkscape:connector-curvature="0" />
          <path
             id="path1283"
             style="fill:#ffffff;stroke-width:1.3727423"
             d="m 1038.5434,-310.43618 q 0,5.25503 -3.2174,8.09703 -3.1905,2.84201 -8.5796,2.84201 -1.287,0 -3.4319,-0.2413 -2.1449,-0.2145 -3.5927,-0.53623 v -4.96011 h 0.2949 q 1.0993,0.37536 2.708,0.77753 1.6087,0.40217 3.2978,0.40217 2.4666,0 3.9144,-0.56303 1.4747,-0.56304 2.1718,-1.60869 0.7239,-1.07245 0.9116,-2.62751 0.2144,-1.55506 0.2144,-3.59273 v -23.29908 h -8.4455 v -4.2362 h 13.7542 z"
             inkscape:connector-curvature="0" />
          <path
             id="path1285"
             style="fill:#ffffff;stroke-width:1.3727423"
             d="m 1079.3503,-300.06018 h -6.5688 l -18.9288,-35.71275 v 35.71275 h -4.9601 v -39.92214 h 8.2311 l 17.2665,32.60263 v -32.60263 h 4.9601 z"
             inkscape:connector-curvature="0" />
          <path
             id="path1287"
             style="fill:#ffffff;stroke-width:1.3727423"
             d="m 1116.2696,-300.06018 h -26.302 v -39.92214 h 26.302 v 4.7188 h -20.9933 v 10.93905 h 20.9933 v 4.7188 h -20.9933 v 14.82669 h 20.9933 z"
             inkscape:connector-curvature="0" />
        </g>
      </g>
      <g
         id="g5300">
        <rect
           style="opacity:1;fill:#ffffff;fill-opacity:1;stroke:#ffffff;stroke-width:0.31586081;stroke-linecap:round;stroke-miterlimit:4;stroke-dasharray:none;stroke-dashoffset:0;stroke-opacity:1;paint-order:markers fill stroke"
           id="rect825"
           width="1.8049191"
           height="69.48938"
           x="158.4807"
           y="41.14521"
           ry="0.82477689" />
        <rect
           ry="0.7541393"
           y="-199.87029"
           x="61.864124"
           height="63.538002"
           width="1.6503378"
           id="rect827"
           style="opacity:1;fill:#ffffff;fill-opacity:1;stroke:#ffffff;stroke-width:0.28880909;stroke-linecap:round;stroke-miterlimit:4;stroke-dasharray:none;stroke-dashoffset:0;stroke-opacity:1;paint-order:markers fill stroke"
           transform="rotate(90)" />
        <circle
           r="2.8252034"
           cy="57.101665"
           cx="166.22643"
           id="circle831"
           style="opacity:1;fill:#ffffff;fill-opacity:1;stroke:#ffffff;stroke-width:0.5888018;stroke-linecap:round;stroke-miterlimit:4;stroke-dasharray:none;stroke-dashoffset:0;stroke-opacity:1;paint-order:markers fill stroke" />
        <circle
           style="opacity:1;fill:#ffffff;fill-opacity:1;stroke:#ffffff;stroke-width:0.5888018;stroke-linecap:round;stroke-miterlimit:4;stroke-dasharray:none;stroke-dashoffset:0;stroke-opacity:1;paint-order:markers fill stroke"
           id="circle837"
           cx="152.53989"
           cy="56.976112"
           r="2.8252034" />
        <circle
           style="opacity:1;fill:#ffffff;fill-opacity:1;stroke:#ffffff;stroke-width:0.5888018;stroke-linecap:round;stroke-miterlimit:4;stroke-dasharray:none;stroke-dashoffset:0;stroke-opacity:1;paint-order:markers fill stroke"
           id="circle839"
           cx="166.22643"
           cy="68.752808"
           r="2.8252034" />
        <circle
           r="2.8252034"
           cy="68.627235"
           cx="152.53989"
           id="circle841"
           style="opacity:1;fill:#ffffff;fill-opacity:1;stroke:#ffffff;stroke-width:0.5888018;stroke-linecap:round;stroke-miterlimit:4;stroke-dasharray:none;stroke-dashoffset:0;stroke-opacity:1;paint-order:markers fill stroke" />
        <rect
           ry="1.7145139"
           y="-131.54272"
           x="140.19757"
           height="144.4518"
           width="3.7519956"
           id="rect853"
           style="opacity:1;fill:#ffffff;fill-opacity:1;stroke:#ffffff;stroke-width:0.65659916;stroke-linecap:round;stroke-miterlimit:4;stroke-dasharray:none;stroke-dashoffset:0;stroke-opacity:1;paint-order:markers fill stroke"
           transform="rotate(45)"
           inkscape:transform-center-x="340.24097"
           inkscape:transform-center-y="-28.235802" />
        <rect
           ry="15.040849"
           y="-117.47245"
           x="-999.26379"
           height="82.126373"
           width="164.25275"
           id="rect884"
           style="opacity:1;fill:none;fill-opacity:1;stroke:#ffffff;stroke-width:13.22916698;stroke-linecap:round;stroke-miterlimit:4;stroke-dasharray:none;stroke-dashoffset:0;stroke-opacity:1;paint-order:markers fill stroke"
           clip-path="url(#clipPath918-0)"
           transform="matrix(-0.23490256,0,0,-0.23490256,-27.796916,0.97071617)" />
        <rect
           style="opacity:1;fill:none;fill-opacity:1;stroke:#ffffff;stroke-width:3.11387372;stroke-linecap:round;stroke-miterlimit:4;stroke-dasharray:none;stroke-dashoffset:0;stroke-opacity:1;paint-order:markers fill stroke"
           id="rect916"
           width="38.752872"
           height="19.285387"
           x="124.64245"
           y="9.2767439"
           ry="3.5319784" />
        <rect
           transform="matrix(-0.23490256,0,0,-0.23490256,-52.055993,26.284539)"
           clip-path="url(#clipPath918-0)"
           style="opacity:1;fill:none;fill-opacity:1;stroke:#ffffff;stroke-width:13.22916698;stroke-linecap:round;stroke-miterlimit:4;stroke-dasharray:none;stroke-dashoffset:0;stroke-opacity:1;paint-order:markers fill stroke"
           id="rect933-6"
           width="164.25275"
           height="82.126373"
           x="-999.26379"
           y="-117.47245"
           ry="15.040849" />
        <rect
           ry="15.040849"
           y="-117.47245"
           x="-999.26379"
           height="82.126373"
           width="164.25275"
           id="rect935"
           style="opacity:1;fill:none;fill-opacity:1;stroke:#ffffff;stroke-width:13.22916698;stroke-linecap:round;stroke-miterlimit:4;stroke-dasharray:none;stroke-dashoffset:0;stroke-opacity:1;paint-order:markers fill stroke"
           clip-path="url(#clipPath918-0)"
           transform="matrix(-0.23490256,0,0,-0.23490256,-76.666653,50.543616)" />
        <rect
           transform="matrix(-0.23490256,0,0,-0.23490256,-104.79312,78.845876)"
           clip-path="url(#clipPath918-0)"
           style="opacity:1;fill:none;fill-opacity:1;stroke:#ffffff;stroke-width:13.22916698;stroke-linecap:round;stroke-miterlimit:4;stroke-dasharray:none;stroke-dashoffset:0;stroke-opacity:1;paint-order:markers fill stroke"
           id="rect937"
           width="164.25275"
           height="82.126373"
           x="-999.26379"
           y="-117.47245"
           ry="15.040849" />
        <rect
           ry="3.5319784"
           y="34.590572"
           x="97.746521"
           height="19.285387"
           width="38.752872"
           id="rect939"
           style="opacity:1;fill:none;fill-opacity:1;stroke:#ffffff;stroke-width:3.11387372;stroke-linecap:round;stroke-miterlimit:4;stroke-dasharray:none;stroke-dashoffset:0;stroke-opacity:1;paint-order:markers fill stroke" />
        <rect
           style="opacity:1;fill:none;fill-opacity:1;stroke:#ffffff;stroke-width:3.11387372;stroke-linecap:round;stroke-miterlimit:4;stroke-dasharray:none;stroke-dashoffset:0;stroke-opacity:1;paint-order:markers fill stroke"
           id="rect941"
           width="38.752872"
           height="19.285387"
           x="74.717957"
           y="58.849663"
           ry="3.5319784"
           clip-path="none" />
        <rect
           ry="3.5319784"
           y="9.2767439"
           x="79.640091"
           height="19.285387"
           width="38.752872"
           id="rect943"
           style="opacity:1;fill:none;fill-opacity:1;stroke:#ffffff;stroke-width:3.11387372;stroke-linecap:round;stroke-miterlimit:4;stroke-dasharray:none;stroke-dashoffset:0;stroke-opacity:1;paint-order:markers fill stroke" />
        <rect
           style="opacity:1;fill:none;fill-opacity:1;stroke:#ffffff;stroke-width:13.25602245;stroke-linecap:round;stroke-miterlimit:4;stroke-dasharray:none;stroke-dashoffset:0;stroke-opacity:1;paint-order:markers fill stroke"
           id="rect945"
           width="164.97424"
           height="82.099518"
           x="-1043.8885"
           y="-44.868618"
           ry="15.035931"
           clip-path="url(#clipPath1014-5)"
           transform="matrix(0.23490256,0,0,0.23490256,297.2531,45.13033)" />
        <rect
           ry="15.035931"
           y="178.88943"
           x="-1069.0592"
           height="82.099518"
           width="164.97424"
           id="rect958"
           style="opacity:1;fill:none;fill-opacity:1;stroke:#ffffff;stroke-width:13.25602245;stroke-linecap:round;stroke-miterlimit:4;stroke-dasharray:none;stroke-dashoffset:0;stroke-opacity:1;paint-order:markers fill stroke"
           clip-path="url(#clipPath1010-7)"
           transform="matrix(0.23490256,0,0,0.23490256,297.2531,45.13033)" />
        <rect
           style="opacity:1;fill:none;fill-opacity:1;stroke:#ffffff;stroke-width:13.25602245;stroke-linecap:round;stroke-miterlimit:4;stroke-dasharray:none;stroke-dashoffset:0;stroke-opacity:1;paint-order:markers fill stroke"
           id="rect960"
           width="164.97424"
           height="82.099518"
           x="-1141.0259"
           y="58.404324"
           ry="15.035931"
           clip-path="url(#clipPath1006-2)"
           transform="matrix(0.23490256,0,0,0.23490256,297.2531,45.13033)" />
        <rect
           ry="15.035931"
           y="-152.6317"
           x="-1125.1509"
           height="82.099518"
           width="164.97424"
           id="rect962"
           style="opacity:1;fill:none;fill-opacity:1;stroke:#ffffff;stroke-width:13.25602245;stroke-linecap:round;stroke-miterlimit:4;stroke-dasharray:none;stroke-dashoffset:0;stroke-opacity:1;paint-order:markers fill stroke"
           clip-path="url(#clipPath1002-0)"
           transform="matrix(0.23490256,0,0,0.23490256,297.2531,45.13033)" />
        <path
           style="opacity:1;fill:#ffffff;fill-opacity:1;stroke:none;stroke-width:3.10756493;stroke-linecap:round;stroke-miterlimit:4;stroke-dasharray:none;stroke-dashoffset:0;stroke-opacity:1;paint-order:markers fill stroke"
           id="path1022-9"
           d="m 135.67571,83.122785 c 0.7212,-0.105749 1.42309,-0.299255 2.11671,-0.519067 0.37676,-0.12198 0.76313,-0.225044 1.12342,-0.392938 0.79565,-0.37078 2.38095,-1.348666 -1.47413,0.861631 0.37551,-0.195269 0.61798,-0.500281 0.8172,-0.862809 0.29424,-0.510106 0.45243,-1.067915 0.5946,-1.634078 0.10613,-0.616341 0.34604,-1.190748 0.61144,-1.752744 0.19587,-0.453648 0.3947,-0.905937 0.59931,-1.355729 0.0268,-0.06868 0.0536,-0.137361 0.0804,-0.20604 0,0 2.35697,-1.098952 2.35697,-1.098952 v 0 c -0.025,0.07357 -0.0501,0.14714 -0.0752,0.220712 -0.19002,0.459853 -0.42343,0.901785 -0.59995,1.367709 -0.27012,0.546844 -0.54767,1.097301 -0.63977,1.707688 -0.14438,0.574283 -0.26792,1.154045 -0.55571,1.67906 -0.18051,0.391654 -0.38681,0.768561 -0.76634,1.001501 -1.38265,0.79799 -2.57617,1.639965 -4.1024,2.034896 -0.71166,0.213628 -1.43139,0.38572 -2.15919,0.534024 0,0 2.07265,-1.584864 2.07265,-1.584864 z"
           inkscape:connector-curvature="0" />
        <path
           style="opacity:1;fill:#ffffff;fill-opacity:1;stroke:none;stroke-width:3.10756493;stroke-linecap:round;stroke-miterlimit:4;stroke-dasharray:none;stroke-dashoffset:0;stroke-opacity:1;paint-order:markers fill stroke"
           id="path1028"
           d="m 145.86111,101.90796 c 0.43686,-0.67256 0.73982,-1.41661 1.015,-2.166298 0.34576,-0.939147 0.65082,-1.892868 1.01982,-2.823238 0.27362,-0.657977 0.51226,-1.327644 0.73158,-2.005214 0,0 2.33543,-1.096832 2.33543,-1.096832 v 0 c -0.23404,0.682855 -0.46335,1.366111 -0.74813,2.03055 -0.37942,0.922169 -0.67529,1.874531 -1.01751,2.8108 -0.26521,0.76086 -0.56811,1.498752 -0.94357,2.212562 0,0 -2.39262,1.03767 -2.39262,1.03767 z"
           inkscape:connector-curvature="0" />
        <path
           style="opacity:1;fill:#ffffff;fill-opacity:1;stroke:none;stroke-width:3.10756493;stroke-linecap:round;stroke-miterlimit:4;stroke-dasharray:none;stroke-dashoffset:0;stroke-opacity:1;paint-order:markers fill stroke"
           id="path1030"
           d="m 151.99722,85.044517 c 0.17009,-0.303664 0.0872,-0.14575 0.24727,-0.474437 0,0 2.35776,-1.075951 2.35776,-1.075951 v 0 c -0.1468,0.338109 -0.0726,0.175662 -0.22136,0.487839 0,0 -2.38367,1.062549 -2.38367,1.062549 z"
           inkscape:connector-curvature="0" />
        <path
           style="opacity:1;fill:#ffffff;fill-opacity:1;stroke:none;stroke-width:3.10752583;stroke-linecap:round;stroke-miterlimit:4;stroke-dasharray:none;stroke-dashoffset:0;stroke-opacity:1;paint-order:markers fill stroke"
           id="path1032"
           d="m 171.71473,91.889182 c 0.54349,-0.589919 1.03858,-1.219592 1.59286,-1.800649 0.47939,-0.509559 1.03487,-0.93642 1.53173,-1.427624 0.34836,-0.342262 0.66114,-0.717317 0.99575,-1.072399 0,0 2.39211,-0.996615 2.39211,-0.996615 v 0 c -0.34286,0.350788 -0.65571,0.726267 -0.99801,1.077698 -0.49173,0.507223 -1.04605,0.939228 -1.55074,1.432807 -0.55707,0.5637 -1.06782,1.162801 -1.55388,1.788611 0,0 -2.40982,0.998171 -2.40982,0.998171 z"
           inkscape:connector-curvature="0" />
        <path
           style="opacity:1;fill:#ffffff;fill-opacity:1;stroke:none;stroke-width:3.10752583;stroke-linecap:round;stroke-miterlimit:4;stroke-dasharray:none;stroke-dashoffset:0;stroke-opacity:1;paint-order:markers fill stroke"
           id="path1034"
           d="m 180.49279,73.773433 c 0.87006,-0.49288 1.82351,-0.817333 2.77174,-1.12388 1.67827,-0.504052 3.40028,-0.840066 5.10709,-1.230436 1.15514,-0.247558 2.31564,-0.462001 3.48453,-0.632004 0,0 -2.00769,1.503926 -2.00769,1.503926 v 0 c -1.15782,0.172015 -2.30918,0.37985 -3.45246,0.632372 -1.71609,0.391485 -3.44639,0.739578 -5.12516,1.275384 -0.96943,0.335347 -1.91999,0.70994 -2.83174,1.18237 0,0 2.05369,-1.607732 2.05369,-1.607732 z"
           inkscape:connector-curvature="0" />
        <path
           style="opacity:1;fill:#ffffff;fill-opacity:1;stroke:none;stroke-width:3.10752583;stroke-linecap:round;stroke-miterlimit:4;stroke-dasharray:none;stroke-dashoffset:0;stroke-opacity:1;paint-order:markers fill stroke"
           id="path1036"
           d="m 168.54498,84.692282 c 0.40453,-0.328496 0.79742,-0.671692 1.23102,-0.961661 1.15038,-0.74615 2.31112,-1.529126 3.60832,-1.989406 0.58191,-0.165654 1.18131,-0.247985 1.77616,-0.350739 0,0 -2.03835,1.536083 -2.03835,1.536083 v 0 c -0.59615,0.107484 -1.19849,0.202583 -1.77055,0.409409 -0.31323,0.13154 -0.28914,0.113729 -0.58283,0.266189 -0.0764,0.03969 -0.30127,0.167223 -0.22687,0.123761 3.6291,-2.120611 2.40203,-1.439873 1.65679,-0.940654 -0.43586,0.278314 -0.84716,0.584126 -1.23282,0.929887 0,0 -2.42087,0.977131 -2.42087,0.977131 z"
           inkscape:connector-curvature="0" />
        <path
           style="opacity:1;fill:#ffffff;fill-opacity:1;stroke:none;stroke-width:3.10752583;stroke-linecap:round;stroke-miterlimit:4;stroke-dasharray:none;stroke-dashoffset:0;stroke-opacity:1;paint-order:markers fill stroke"
           id="path1038"
           d="m 175.4419,104.17766 c 1.4333,0.24469 2.89743,0.25179 4.34738,0.29068 1.35079,0.0371 2.70207,0.04 4.05324,0.0425 0,0 -1.96338,1.42491 -1.96338,1.42491 v 0 c -1.36028,-0.0119 -2.72055,-0.0208 -4.08087,-0.0273 -1.50166,-0.0245 -3.01702,-0.0154 -4.50416,-0.24926 0,0 2.14779,-1.48146 2.14779,-1.48146 z"
           inkscape:connector-curvature="0" />
        <path
           style="opacity:1;fill:#ffffff;fill-opacity:1;stroke:none;stroke-width:3.10752583;stroke-linecap:round;stroke-miterlimit:4;stroke-dasharray:none;stroke-dashoffset:0;stroke-opacity:1;paint-order:markers fill stroke"
           id="path1040"
           d="m 184.01454,96.294452 c 0.77985,-0.59527 1.54075,-1.212236 2.26617,-1.872774 0.90798,-0.892757 1.81257,-1.793568 2.65589,-2.748414 0.41652,-0.494129 0.21152,-0.250349 0.61507,-0.731294 0,0 2.35888,-1.000647 2.35888,-1.000647 v 0 c -0.41099,0.485189 -0.20204,0.238068 -0.62682,0.741412 -0.83992,0.968008 -1.76089,1.862663 -2.65719,2.777606 -0.6967,0.65811 -1.4296,1.275165 -2.19114,1.85698 0,0 -2.42086,0.977131 -2.42086,0.977131 z"
           inkscape:connector-curvature="0" />
        <path
           style="opacity:1;fill:#ffffff;fill-opacity:1;stroke:none;stroke-width:3.10752583;stroke-linecap:round;stroke-miterlimit:4;stroke-dasharray:none;stroke-dashoffset:0;stroke-opacity:1;paint-order:markers fill stroke"
           id="path1042"
           d="m 188.59835,79.113007 c 0.93568,-0.188066 1.88271,-0.314054 2.81552,-0.515797 1.03456,-0.242827 2.08859,-0.37217 3.14618,-0.457718 0.12055,-0.0076 0.24105,-0.01521 0.36156,-0.02279 0,0 -2.07779,1.529137 -2.07779,1.529137 v 0 c -0.11698,0.007 -0.23399,0.01397 -0.35098,0.02092 -1.04475,0.08246 -2.08234,0.228181 -3.10395,0.466214 -0.95842,0.192204 -1.92359,0.351137 -2.88265,0.540148 0,0 2.09211,-1.56012 2.09211,-1.56012 z"
           inkscape:connector-curvature="0" />
        <path
           style="opacity:1;fill:#ffffff;fill-opacity:1;stroke:none;stroke-width:3.10752583;stroke-linecap:round;stroke-miterlimit:4;stroke-dasharray:none;stroke-dashoffset:0;stroke-opacity:1;paint-order:markers fill stroke"
           id="path1044"
           d="m 170.67128,101.72889 c 0.93747,-0.30074 1.83935,-0.70298 2.771,-1.02387 0.76997,-0.26788 1.54824,-0.5132 2.29792,-0.834598 0,0 -2.01658,1.588588 -2.01658,1.588588 v 0 c -0.7553,0.29569 -1.52566,0.54918 -2.29235,0.81348 -0.94435,0.33795 -1.86461,0.73949 -2.81714,1.05457 0,0 2.05715,-1.59817 2.05715,-1.59817 z"
           inkscape:connector-curvature="0" />
        <path
           style="opacity:1;fill:#ffffff;fill-opacity:1;stroke:none;stroke-width:3.10756493;stroke-linecap:round;stroke-miterlimit:4;stroke-dasharray:none;stroke-dashoffset:0;stroke-opacity:1;paint-order:markers fill stroke"
           id="path1046"
           d="m 123.06431,88.21431 c 0.62923,0.335135 1.28588,0.614704 1.93182,0.915137 0.45308,0.21022 0.93132,0.415978 1.31042,0.747434 0.24888,0.175835 0.46247,0.378079 0.64649,0.621171 0.14401,0.104359 0.29913,0.196338 0.45625,0.281333 0,0 -2.19144,1.423804 -2.19144,1.423804 v 0 c -0.17973,-0.108895 -0.36848,-0.211476 -0.51299,-0.367033 -0.17626,-0.224053 -0.38405,-0.404778 -0.60927,-0.578757 -0.37221,-0.301643 -0.82526,-0.493554 -1.25236,-0.703181 -0.64389,-0.302091 -1.28827,-0.604884 -1.94259,-0.88355 0,0 2.16367,-1.456358 2.16367,-1.456358 z"
           inkscape:connector-curvature="0" />
        <path
           style="opacity:1;fill:#ffffff;fill-opacity:1;stroke:none;stroke-width:3.10756493;stroke-linecap:round;stroke-miterlimit:4;stroke-dasharray:none;stroke-dashoffset:0;stroke-opacity:1;paint-order:markers fill stroke"
           id="path1048"
           d="m 129.90823,102.73896 c 0.60881,0.71244 1.4036,1.19262 2.22274,1.6239 1.22481,0.61391 2.56509,0.92966 3.87382,1.30753 0.82802,0.23629 1.67375,0.39932 2.52801,0.50166 0,0 -2.10312,1.48499 -2.10312,1.48499 v 0 c -0.84924,-0.12935 -1.68779,-0.31892 -2.51328,-0.5572 -1.32339,-0.38156 -2.67191,-0.72688 -3.90893,-1.34655 -0.8476,-0.44895 -1.65579,-0.95217 -2.32321,-1.65147 0,0 2.22397,-1.36286 2.22397,-1.36286 z"
           inkscape:connector-curvature="0" />
        <path
           style="opacity:1;fill:#ffffff;fill-opacity:1;stroke:none;stroke-width:3.10756493;stroke-linecap:round;stroke-miterlimit:4;stroke-dasharray:none;stroke-dashoffset:0;stroke-opacity:1;paint-order:markers fill stroke"
           id="path1050"
           d="m 112.62017,104.73304 c 0.47799,-0.7723 1.05061,-1.47857 1.59462,-2.20395 0.54178,-0.78339 1.13431,-1.52692 1.7411,-2.26023 0.39132,-0.462887 0.81902,-0.892531 1.22631,-1.340972 0,0 2.39948,-1.000798 2.39948,-1.000798 v 0 c -0.43177,0.432696 -0.83617,0.89493 -1.25806,1.337881 -0.62464,0.721868 -1.224,1.465579 -1.76498,2.253199 -0.52667,0.71139 -1.09182,1.39602 -1.5548,2.15233 0,0 -2.38367,1.06254 -2.38367,1.06254 z"
           inkscape:connector-curvature="0" />
        <path
           style="opacity:1;fill:#ffffff;fill-opacity:1;stroke:none;stroke-width:3.10756493;stroke-linecap:round;stroke-miterlimit:4;stroke-dasharray:none;stroke-dashoffset:0;stroke-opacity:1;paint-order:markers fill stroke"
           id="path1052"
           d="m 169.56035,41.741673 c 0.0817,-0.03439 0.16453,-0.06632 0.24518,-0.103201 0.34198,-0.156443 0.66294,-0.348739 0.57171,-0.295931 -0.64209,0.371619 -2.57002,1.483501 -1.93043,1.107598 2.27386,-1.336403 1.64846,-1.023232 2.72739,-1.5514 -2.82219,1.618287 -2.69127,1.544144 0.3901,-0.227019 0,0 -2.02603,1.634969 -2.02603,1.634969 v 0 c 2.8521,-1.649525 2.72573,-1.573583 -0.38718,0.213741 -0.0799,0.0429 -0.31789,0.174435 -0.2396,0.128697 0.64755,-0.378386 2.59933,-1.497767 1.94754,-1.126726 -1.1098,0.631783 -2.18059,1.30737 -3.32758,1.860751 0,0 2.0289,-1.641479 2.0289,-1.641479 z"
           inkscape:connector-curvature="0" />
        <path
           style="opacity:1;fill:#ffffff;fill-opacity:1;stroke:none;stroke-width:3.10756493;stroke-linecap:round;stroke-miterlimit:4;stroke-dasharray:none;stroke-dashoffset:0;stroke-opacity:1;paint-order:markers fill stroke"
           id="path1054"
           d="m 173.1385,49.438459 c 0.9881,0.02124 1.97655,0.01901 2.96482,0.02134 1.25511,7.05e-4 2.51022,0.0011 3.76534,-7.06e-4 0.99233,-7.05e-4 1.98462,-0.0063 2.97695,-0.0094 0.41158,-0.0018 0.8232,-0.0049 1.23483,-0.0074 0,0 -2.1008,1.526315 -2.1008,1.526315 v 0 c -0.40488,-0.0025 -0.80973,-0.0054 -1.21457,-0.0074 -0.98369,-0.0032 -1.96738,-0.0085 -2.95106,-0.0094 -1.25448,-0.0018 -2.50892,-0.0014 -3.7634,-7.06e-4 -1.00789,0.0025 -2.01591,3.53e-4 -3.02362,0.02134 0,0 2.11151,-1.534107 2.11151,-1.534107 z"
           inkscape:connector-curvature="0" />
        <path
           style="opacity:1;fill:#ffffff;fill-opacity:1;stroke:none;stroke-width:3.10756493;stroke-linecap:round;stroke-miterlimit:4;stroke-dasharray:none;stroke-dashoffset:0;stroke-opacity:1;paint-order:markers fill stroke"
           id="path1056"
           d="m 182.62689,57.962618 c 0.58709,-0.4656 1.21281,-0.875418 1.79179,-1.351538 0.59372,-0.451986 1.17605,-0.915367 1.70042,-1.447285 0.3139,-0.342339 0.56865,-0.731287 0.83019,-1.113391 0,0 2.38284,-1.042176 2.38284,-1.042176 v 0 c -0.25954,0.397005 -0.53717,0.78256 -0.8267,1.158473 -0.50539,0.563192 -1.09562,1.039124 -1.70741,1.482333 -0.23297,0.201574 -0.41948,0.370381 -0.66604,0.55463 -0.35909,0.268337 -0.76158,0.479097 -1.0795,0.800862 0,0 -2.42559,0.958092 -2.42559,0.958092 z"
           inkscape:connector-curvature="0" />
        <path
           style="opacity:1;fill:#ffffff;fill-opacity:1;stroke:none;stroke-width:3.10756493;stroke-linecap:round;stroke-miterlimit:4;stroke-dasharray:none;stroke-dashoffset:0;stroke-opacity:1;paint-order:markers fill stroke"
           id="path1058"
           d="m 177.70909,39.446727 c 0.64065,-1.07466 1.23543,-2.17484 1.77317,-3.304342 0.54652,-1.152197 1.13834,-2.282211 1.71489,-3.419553 0.21826,-0.454864 0.44817,-0.903608 0.68548,-1.348754 0,0 2.34033,-1.048004 2.34033,-1.048004 v 0 c -0.24966,0.441667 -0.4917,0.887317 -0.70588,1.347646 -0.57107,1.14759 -1.19464,2.268531 -1.74572,3.426192 -0.51893,1.120715 -1.10229,2.207123 -1.6874,3.294239 0,0 -2.37487,1.052576 -2.37487,1.052576 z"
           inkscape:connector-curvature="0" />
        <path
           style="opacity:1;fill:#ffffff;fill-opacity:1;stroke:none;stroke-width:3.10756493;stroke-linecap:round;stroke-miterlimit:4;stroke-dasharray:none;stroke-dashoffset:0;stroke-opacity:1;paint-order:markers fill stroke"
           id="path1060"
           d="m 187.58916,22.433225 c 0.62424,0.148622 1.26365,0.216327 1.90264,0.260269 0.36234,0.01774 0.18528,0.01058 0.53125,0.0218 0,0 -2.10725,1.516881 -2.10725,1.516881 v 0 c -0.34509,-0.01919 -0.16842,-0.008 -0.52998,-0.03408 -0.65052,-0.05893 -1.29773,-0.14788 -1.93784,-0.279671 0,0 2.14118,-1.485233 2.14118,-1.485233 z"
           inkscape:connector-curvature="0" />
        <path
           style="opacity:1;fill:#ffffff;fill-opacity:1;stroke:none;stroke-width:3.10756493;stroke-linecap:round;stroke-miterlimit:4;stroke-dasharray:none;stroke-dashoffset:0;stroke-opacity:1;paint-order:markers fill stroke"
           id="path1062"
           d="m 196.2029,15.577395 c 1.01004,0.195778 2.044,0.231239 3.0697,0.269515 0.85436,-0.01206 1.6964,0.100785 2.53457,0.249689 0,0 -2.12362,1.484549 -2.12362,1.484549 v 0 c -0.81686,-0.155917 -1.64116,-0.245195 -2.47421,-0.248087 -1.05159,-0.04715 -2.10852,-0.09201 -3.14762,-0.270426 0,0 2.14118,-1.48524 2.14118,-1.48524 z"
           inkscape:connector-curvature="0" />
        <path
           style="opacity:1;fill:#ffffff;fill-opacity:1;stroke:none;stroke-width:3.10756493;stroke-linecap:round;stroke-miterlimit:4;stroke-dasharray:none;stroke-dashoffset:0;stroke-opacity:1;paint-order:markers fill stroke"
           id="path1064"
           d="m 196.66003,27.779368 c 0.1228,0.588779 0.37169,1.100815 0.78553,1.535518 0.3501,0.36601 0.82317,0.547377 1.27702,0.747861 0.0643,0.03636 0.12852,0.07272 0.1928,0.109075 0,0 -2.1801,1.422217 -2.1801,1.422217 v 0 c -0.0595,-0.03171 -0.11899,-0.06343 -0.17847,-0.09514 -0.479,-0.225231 -0.96742,-0.43139 -1.32454,-0.840412 -0.42577,-0.477717 -0.70249,-1.018575 -0.8673,-1.637993 0,0 2.29506,-1.241121 2.29506,-1.241121 z"
           inkscape:connector-curvature="0" />
        <path
           style="opacity:1;fill:#ffffff;fill-opacity:1;stroke:none;stroke-width:3.10756493;stroke-linecap:round;stroke-miterlimit:4;stroke-dasharray:none;stroke-dashoffset:0;stroke-opacity:1;paint-order:markers fill stroke"
           id="path1066"
           d="m 197.22204,41.749205 c 0.2909,0.324602 0.64749,0.579335 0.96291,0.878935 0,0 -2.20906,1.362164 -2.20906,1.362164 v 0 c -0.3248,-0.305897 -0.68626,-0.571073 -0.99205,-0.897294 0,0 2.2382,-1.343805 2.2382,-1.343805 z"
           inkscape:connector-curvature="0" />
        <path
           style="opacity:1;fill:#ffffff;fill-opacity:1;stroke:none;stroke-width:3.10756493;stroke-linecap:round;stroke-miterlimit:4;stroke-dasharray:none;stroke-dashoffset:0;stroke-opacity:1;paint-order:markers fill stroke"
           id="path1068"
           d="m 193.91232,36.472518 c -0.48666,0.485253 -0.99036,0.953322 -1.5028,1.411125 -0.4584,0.393118 -0.92019,0.778217 -1.4121,1.128857 -1.15147,0.802227 -2.38517,1.480128 -3.61361,2.155758 -0.27785,0.128961 -0.1385,0.07139 -0.41758,0.173761 0,0 2.04424,-1.610438 2.04424,-1.610438 v 0 c 0.26233,-0.119821 0.13039,-0.05534 0.39539,-0.194218 0.75428,-0.417195 1.5584,-0.864013 -1.78675,1.046907 -0.0766,0.04374 0.14429,-0.101576 0.21947,-0.147716 0.51957,-0.318992 -0.0123,0.04173 0.50771,-0.308405 0.0812,-0.05469 0.16073,-0.111859 0.24109,-0.167788 0.50257,-0.337728 0.9718,-0.712622 1.42939,-1.108012 0.52451,-0.42516 1.00633,-0.906515 1.48576,-1.381657 0,0 2.40979,-0.998174 2.40979,-0.998174 z"
           inkscape:connector-curvature="0" />
        <path
           style="opacity:1;fill:#ffffff;fill-opacity:1;stroke:none;stroke-width:3.10756493;stroke-linecap:round;stroke-miterlimit:4;stroke-dasharray:none;stroke-dashoffset:0;stroke-opacity:1;paint-order:markers fill stroke"
           id="path1070"
           d="m 194.62055,56.322963 c -0.2656,-0.610708 -0.47134,-1.244152 -0.71434,-1.863457 -0.20605,-0.613375 -0.49322,-1.194057 -0.73018,-1.795099 -0.0771,-0.232318 -0.161,-0.462255 -0.24052,-0.693759 0,0 2.27813,-1.254978 2.27813,-1.254978 v 0 c 0.0748,0.229912 0.15798,0.456879 0.22603,0.688961 0.22532,0.605645 0.52151,1.182422 0.72026,1.798535 0.24046,0.615805 0.4378,1.249743 0.73738,1.841097 0,0 -2.27676,1.2787 -2.27676,1.2787 z"
           inkscape:connector-curvature="0" />
        <path
           style="opacity:1;fill:#ffffff;fill-opacity:1;stroke:none;stroke-width:3.10756493;stroke-linecap:round;stroke-miterlimit:4;stroke-dasharray:none;stroke-dashoffset:0;stroke-opacity:1;paint-order:markers fill stroke"
           id="path1072"
           d="m 137.80462,93.210274 c 0.69615,0.05074 1.37833,-0.01944 2.06312,-0.136535 0.67163,-0.124732 1.28706,-0.407533 1.87744,-0.7395 -0.63636,0.362701 -1.27271,0.725399 -1.90907,1.088097 0,0 2.40514,-0.934219 2.40514,-0.934219 v 0 c -0.83624,0.488936 -1.67246,0.977868 -2.50869,1.466801 -0.60663,0.316067 -1.24613,0.561678 -1.92582,0.666679 -0.70221,0.104309 -1.40385,0.134666 -2.11363,0.122784 0,0 2.11151,-1.534107 2.11151,-1.534107 z"
           inkscape:connector-curvature="0" />
        <path
           style="opacity:1;fill:#ffffff;fill-opacity:1;stroke:none;stroke-width:3.10756493;stroke-linecap:round;stroke-miterlimit:4;stroke-dasharray:none;stroke-dashoffset:0;stroke-opacity:1;paint-order:markers fill stroke"
           id="path1074"
           d="m 144.83744,87.786655 c 0.9299,-0.443696 4.10992,-2.269095 0.27159,-0.07879 0.66328,-0.385639 1.24813,-0.873491 1.80248,-1.399293 0.46852,-0.460502 0.73068,-1.054646 0.95937,-1.658563 0,0 2.32534,-1.084365 2.32534,-1.084365 v 0 c -0.21883,0.626262 -0.4516,1.253508 -0.89789,1.759081 -0.5536,0.544808 -1.13155,1.060178 -1.80073,1.461872 -1.54814,0.897269 -3.08882,1.821201 -4.68996,2.623703 0,0 2.0298,-1.623645 2.0298,-1.623645 z"
           inkscape:connector-curvature="0" />
      </g>
    </g>
  </g>
</svg>
