<?xml version="1.0" encoding="UTF-8" standalone="no"?>
<!-- Created with Inkscape (http://www.inkscape.org/) -->

<svg
   xmlns:dc="http://purl.org/dc/elements/1.1/"
   xmlns:cc="http://creativecommons.org/ns#"
   xmlns:rdf="http://www.w3.org/1999/02/22-rdf-syntax-ns#"
   xmlns:svg="http://www.w3.org/2000/svg"
   xmlns="http://www.w3.org/2000/svg"
   xmlns:sodipodi="http://sodipodi.sourceforge.net/DTD/sodipodi-0.dtd"
   xmlns:inkscape="http://www.inkscape.org/namespaces/inkscape"
   width="134.03743mm"
   height="178.14459mm"
   viewBox="0 0 134.03743 178.14459"
   version="1.1"
   id="svg8"
   sodipodi:docname="graphLG_01.svg"
   inkscape:version="0.92.4 (5da689c313, 2019-01-14)">
  <defs
     id="defs2" />
  <sodipodi:namedview
     id="base"
     pagecolor="#00a19a"
     bordercolor="#666666"
     borderopacity="1.0"
     inkscape:pageopacity="0"
     inkscape:pageshadow="2"
     inkscape:zoom="0.22627417"
     inkscape:cx="132.26719"
     inkscape:cy="460.73609"
     inkscape:document-units="mm"
     inkscape:current-layer="layer1"
     showgrid="false"
     showborder="false"
     fit-margin-top="0"
     fit-margin-left="0"
     fit-margin-right="0"
     fit-margin-bottom="0"
     inkscape:window-width="1920"
     inkscape:window-height="1013"
     inkscape:window-x="-9"
     inkscape:window-y="-9"
     inkscape:window-maximized="1" />
  <metadata
     id="metadata5">
    <rdf:RDF>
      <cc:Work
         rdf:about="">
        <dc:format>image/svg+xml</dc:format>
        <dc:type
           rdf:resource="http://purl.org/dc/dcmitype/StillImage" />
        <dc:title></dc:title>
      </cc:Work>
    </rdf:RDF>
  </metadata>
  <g
     inkscape:label="Layer 1"
     inkscape:groupmode="layer"
     id="layer1"
     transform="translate(1215.1771,-1005.1041)">
    <g
       transform="translate(-952.97409,1006.5984)"
       id="g5157">
      <g
         transform="matrix(0.35277777,0,0,-0.35277777,-188.62628,283.47066)"
         id="g1459">
        <g
           id="text5150"
           style="font-style:normal;font-variant:normal;font-weight:400;font-size:73.15251923px;line-height:125%;font-family:Calibri;text-align:start;letter-spacing:0px;word-spacing:0px;text-anchor:start;fill:#ffffff;fill-opacity:1;stroke:none;stroke-width:4.95949221"
           transform="scale(1,-1)"
           aria-label="SUCHA  ">
          <path
             inkscape:connector-curvature="0"
             id="path1224"
             style="font-style:normal;font-variant:normal;font-weight:400;font-size:73.15251923px;font-family:Calibri;fill:#ffffff;stroke-width:4.95949221"
             d="m -104.07952,-415.46371 q 0,3.25043 -1.21445,5.78648 -1.17872,2.53605 -3.32186,4.322 -2.10743,1.75023 -5.00067,2.6432 -2.85752,0.89298 -6.17938,0.89298 -2.32174,0 -4.322,-0.39291 -1.96455,-0.39291 -3.53618,-0.96441 -1.53592,-0.57151 -2.60749,-1.17873 -1.03585,-0.60722 -1.46448,-1.03585 -0.39291,-0.42863 -0.60722,-1.07157 -0.1786,-0.67866 -0.1786,-1.78595 0,-0.78582 0.0714,-1.28588 0.0714,-0.53579 0.21431,-0.85726 0.14288,-0.32147 0.35719,-0.42863 0.21432,-0.14288 0.50007,-0.14288 0.50007,0 1.39304,0.60723 0.9287,0.60722 2.35746,1.3216 1.42876,0.71438 3.42902,1.35732 2.03598,0.60723 4.67919,0.60723 2.00026,0 3.64334,-0.53579 1.67879,-0.53578 2.85752,-1.5002 1.21444,-1.00013 1.85739,-2.42889 0.64294,-1.42876 0.64294,-3.25043 0,-1.96454 -0.89298,-3.35758 -0.89297,-1.39305 -2.35745,-2.4289 -1.46448,-1.07157 -3.35759,-1.92882 -1.85739,-0.89298 -3.82193,-1.78595 -1.96455,-0.9287 -3.82193,-2.03599 -1.85739,-1.10729 -3.32187,-2.60748 -1.46448,-1.5002 -2.39317,-3.50047 -0.89298,-2.03598 -0.89298,-4.85778 0,-2.89324 1.03585,-5.14354 1.07157,-2.28601 2.92896,-3.82193 1.89311,-1.53592 4.46487,-2.32174 2.60749,-0.82153 5.60789,-0.82153 1.53592,0 3.07183,0.28575 1.57164,0.25003 2.92896,0.71438 1.39304,0.42863 2.46461,1.00013 1.07157,0.53579 1.39304,0.89298 0.35719,0.32147 0.46435,0.53578 0.10716,0.1786 0.1786,0.50007 0.0714,0.28575 0.10715,0.71438 0.0357,0.42863 0.0357,1.10729 0,0.64294 -0.0714,1.143 -0.0357,0.50007 -0.14287,0.85726 -0.10716,0.32147 -0.32147,0.50007 -0.1786,0.14287 -0.42863,0.14287 -0.39291,0 -1.25017,-0.50006 -0.82153,-0.50007 -2.03598,-1.10729 -1.21445,-0.64294 -2.89324,-1.14301 -1.64307,-0.53579 -3.71478,-0.53579 -1.92882,0 -3.35758,0.53579 -1.42876,0.50007 -2.35746,1.35732 -0.92869,0.85726 -1.39304,2.03599 -0.46434,1.17872 -0.46434,2.50033 0,1.92882 0.89297,3.32186 0.89298,1.39304 2.35745,2.46461 1.5002,1.07157 3.39331,1.96455 1.89311,0.89297 3.85765,1.82167 1.96455,0.89297 3.85766,2.00026 1.8931,1.07157 3.35758,2.57177 1.5002,1.46448 2.39317,3.50046 0.9287,2.00027 0.9287,4.75063 z" />
          <path
             inkscape:connector-curvature="0"
             id="path1226"
             style="font-style:normal;font-variant:normal;font-weight:400;font-size:73.15251923px;font-family:Calibri;fill:#ffffff;stroke-width:4.95949221"
             d="m -60.573775,-419.57139 q 0,4.21484 -1.250166,7.5367 -1.214446,3.28615 -3.500462,5.57217 -2.286016,2.28602 -5.572164,3.46474 -3.286149,1.17873 -7.465272,1.17873 -3.821934,0 -6.965206,-1.10729 -3.143272,-1.10729 -5.393569,-3.25043 -2.250298,-2.17886 -3.464744,-5.42929 -1.214446,-3.25043 -1.214446,-7.50099 v -28.68236 q 0,-0.28575 0.142876,-0.50006 0.142876,-0.21432 0.500066,-0.32147 0.35719,-0.14288 0.928694,-0.21432 0.571504,-0.10716 1.500198,-0.10716 0.857257,0 1.46448,0.10716 0.607223,0.0714 0.928694,0.21432 0.35719,0.10715 0.500066,0.32147 0.142876,0.21431 0.142876,0.50006 v 27.93226 q 0,3.21471 0.785818,5.60789 0.785818,2.39317 2.250297,4.00053 1.500198,1.57163 3.5719,2.39317 2.107422,0.78582 4.714909,0.78582 2.678925,0 4.750627,-0.78582 2.107422,-0.78582 3.536182,-2.35746 1.464479,-1.57163 2.214578,-3.89337 0.785818,-2.32173 0.785818,-5.42929 v -28.25373 q 0,-0.28575 0.142876,-0.50006 0.142876,-0.21432 0.500066,-0.32147 0.35719,-0.14288 0.928694,-0.21432 0.607223,-0.10716 1.500198,-0.10716 0.857256,0 1.42876,0.10716 0.607223,0.0714 0.928695,0.21432 0.35719,0.10715 0.500066,0.32147 0.178595,0.21431 0.178595,0.50006 z" />
          <path
             inkscape:connector-curvature="0"
             id="path1228"
             style="font-style:normal;font-variant:normal;font-weight:400;font-size:73.15251923px;font-family:Calibri;fill:#ffffff;stroke-width:4.95949221"
             d="m -17.460933,-409.03429 q 0,0.57151 -0.03572,1.00013 -0.03572,0.42863 -0.142876,0.7501 -0.07144,0.32147 -0.214314,0.57151 -0.142876,0.25003 -0.500066,0.60722 -0.35719,0.35719 -1.500198,1.10729 -1.143008,0.71438 -2.85752,1.42876 -1.678793,0.67866 -3.893372,1.14301 -2.178859,0.50006 -4.786346,0.50006 -4.500594,0 -8.143933,-1.5002 -3.607619,-1.50019 -6.179387,-4.42915 -2.53605,-2.92896 -3.929091,-7.21524 -1.357322,-4.322 -1.357322,-9.92988 0,-5.75076 1.464479,-10.25136 1.500198,-4.50059 4.179124,-7.60815 2.678925,-3.14327 6.393701,-4.78634 3.750496,-1.64308 8.286809,-1.64308 2.000264,0 3.893371,0.39291 1.893108,0.35719 3.500463,0.9287 1.607355,0.5715 2.85752,1.3216 1.250165,0.7501 1.714512,1.25017 0.500066,0.46434 0.642942,0.71438 0.142876,0.25003 0.214314,0.60722 0.107157,0.32147 0.142876,0.78582 0.07144,0.46434 0.07144,1.10729 0,0.71438 -0.07144,1.21444 -0.07144,0.50007 -0.214314,0.85726 -0.142876,0.32147 -0.35719,0.50006 -0.178595,0.14288 -0.464347,0.14288 -0.500066,0 -1.393041,-0.67866 -0.892975,-0.71438 -2.321735,-1.53592 -1.393041,-0.85725 -3.429024,-1.53592 -2.000265,-0.71438 -4.822066,-0.71438 -3.071834,0 -5.607884,1.25017 -2.50033,1.21445 -4.28628,3.60762 -1.78595,2.39317 -2.786082,5.85792 -0.964413,3.42902 -0.964413,7.85818 0,4.39343 0.928694,7.78674 0.964413,3.35759 2.714644,5.6436 1.78595,2.2503 4.357718,3.42903 2.571769,1.143 5.822198,1.143 2.750363,0 4.786347,-0.67866 2.071702,-0.67866 3.500462,-1.50019 1.464479,-0.85726 2.393173,-1.53592 0.928694,-0.67866 1.464479,-0.67866 0.250033,0 0.428628,0.10715 0.178595,0.10716 0.285752,0.42863 0.107157,0.28575 0.142876,0.82154 0.07144,0.53578 0.07144,1.35732 z" />
          <path
             inkscape:connector-curvature="0"
             id="path1230"
             style="font-style:normal;font-variant:normal;font-weight:400;font-size:73.15251923px;font-family:Calibri;fill:#ffffff;stroke-width:4.95949221"
             d="m 23.973109,-403.42641 q 0,0.28576 -0.142876,0.50007 -0.142876,0.21431 -0.500066,0.35719 -0.35719,0.10716 -0.964413,0.1786 -0.571504,0.10715 -1.42876,0.10715 -0.928694,0 -1.500198,-0.10715 -0.571504,-0.0714 -0.928694,-0.1786 -0.35719,-0.14288 -0.500066,-0.35719 -0.142876,-0.21431 -0.142876,-0.50007 v -20.5027 H -3.1733333 v 20.5027 q 0,0.28576 -0.142876,0.50007 -0.142876,0.21431 -0.500066,0.35719 -0.3571901,0.10716 -0.9644131,0.1786 -0.5715041,0.10715 -1.4644792,0.10715 -0.857256,0 -1.4644791,-0.10715 -0.6072231,-0.0714 -0.9644131,-0.1786 -0.35719,-0.14288 -0.5000661,-0.35719 -0.142876,-0.21431 -0.142876,-0.50007 v -44.363 q 0,-0.28575 0.142876,-0.50006 0.1428761,-0.21432 0.5000661,-0.32147 0.35719,-0.14288 0.9644131,-0.21432 0.6072231,-0.10716 1.4644791,-0.10716 0.8929751,0 1.4644792,0.10716 0.607223,0.0714 0.9644131,0.21432 0.35719,0.10715 0.500066,0.32147 0.142876,0.21431 0.142876,0.50006 v 18.50245 H 17.86516 v -18.50245 q 0,-0.28575 0.142876,-0.50006 0.142876,-0.21432 0.500066,-0.32147 0.35719,-0.14288 0.928694,-0.21432 0.571504,-0.10716 1.500198,-0.10716 0.857256,0 1.42876,0.10716 0.607223,0.0714 0.964413,0.21432 0.35719,0.10715 0.500066,0.32147 0.142876,0.21431 0.142876,0.50006 z" />
          <path
             inkscape:connector-curvature="0"
             id="path1232"
             style="font-style:normal;font-variant:normal;font-weight:400;font-size:73.15251923px;font-family:Calibri;fill:#ffffff;stroke-width:4.95949221"
             d="m 70.872159,-404.67657 q 0.285752,0.78582 0.285752,1.28588 0.03572,0.46435 -0.250033,0.71438 -0.285752,0.25004 -0.964414,0.32147 -0.642942,0.0714 -1.750231,0.0714 -1.107289,0 -1.78595,-0.0714 -0.642942,-0.0357 -1.000132,-0.14287 -0.321471,-0.14288 -0.500066,-0.35719 -0.142876,-0.21432 -0.285752,-0.53579 l -3.964809,-11.25148 H 41.4397 l -3.786215,11.10861 q -0.107157,0.32147 -0.285752,0.5715 -0.178595,0.21432 -0.535785,0.39291 -0.321471,0.14288 -0.964413,0.21431 -0.607223,0.0714 -1.607355,0.0714 -1.035851,0 -1.714512,-0.10715 -0.642942,-0.0714 -0.928694,-0.32148 -0.250033,-0.25003 -0.250033,-0.71438 0.03572,-0.50006 0.321471,-1.28588 l 15.502047,-42.93424 q 0.142876,-0.39291 0.35719,-0.64294 0.250033,-0.25004 0.678661,-0.39291 0.464347,-0.14288 1.143008,-0.1786 0.71438,-0.0714 1.785951,-0.0714 1.143008,0 1.893107,0.0714 0.750099,0.0357 1.214446,0.1786 0.464347,0.14287 0.71438,0.42863 0.250033,0.25003 0.392909,0.64294 z m -19.895485,-37.89786 h -0.03572 l -7.965338,23.03875 h 16.073551 z" />
        </g>
        <g
           id="text5165"
           style="font-style:normal;font-weight:normal;font-size:62.7678299px;line-height:1.25;font-family:sans-serif;letter-spacing:0px;word-spacing:0px;fill:#f9f9f9;fill-opacity:1;stroke:none;stroke-width:1.56919575"
           transform="scale(1,-1)"
           aria-label="ZABUDOWA ">
          <path
             inkscape:connector-curvature="0"
             id="path1207"
             style="fill:#f9f9f9;stroke-width:1.56919575"
             d="m -171.94202,-303.74808 h -35.61339 v -5.63929 l 27.98195,-34.602 h -26.9399 v -5.39411 h 33.89708 v 5.48606 l -28.25779,34.75523 h 28.93205 z" />
          <path
             inkscape:connector-curvature="0"
             id="path1209"
             style="fill:#f9f9f9;stroke-width:1.56919575"
             d="m -126.27597,-303.74808 h -6.4668 l -4.47466,-12.71906 h -19.73754 l -4.47466,12.71906 h -6.16032 l 16.61141,-45.6354 h 8.09116 z m -12.81101,-17.92928 -7.99922,-22.40395 -8.02987,22.40395 z" />
          <path
             inkscape:connector-curvature="0"
             id="path1211"
             style="fill:#f9f9f9;stroke-width:1.56919575"
             d="m -84.931338,-317.78502 q 0,3.40196 -1.287231,6.00707 -1.287231,2.60511 -3.463264,4.29077 -2.574462,2.02279 -5.669945,2.88095 -3.064836,0.85815 -7.815332,0.85815 h -16.18233 v -45.6354 h 13.51592 q 4.99569,0 7.478203,0.36778 2.482517,0.36778 4.750495,1.53242 2.513165,1.31788 3.647154,3.40197 1.133989,2.05344 1.133989,4.93438 0,3.24873 -1.655011,5.54736 -1.655011,2.26797 -4.413363,3.64715 v 0.24519 q 4.627902,0.9501 7.294308,4.07623 2.666407,3.09548 2.666407,7.84598 z m -10.205902,-20.56505 q 0,-1.65501 -0.55167,-2.789 -0.551671,-1.13399 -1.777605,-1.8389 -1.440472,-0.82751 -3.493915,-1.0114 -2.05344,-0.21454 -5.08762,-0.21454 h -7.23302 v 13.1788 h 7.84598 q 2.8503,0 4.53596,-0.27584 1.685659,-0.30648 3.126132,-1.22593 1.440472,-0.91945 2.022791,-2.35993 0.612967,-1.47112 0.612967,-3.46326 z m 3.892341,20.81023 q 0,-2.75835 -0.827505,-4.38271 -0.827506,-1.62436 -3.003539,-2.75835 -1.471121,-0.76621 -3.585858,-0.98075 -2.084089,-0.24519 -5.087629,-0.24519 h -9.53164 v 16.97919 h 8.02987 q 3.98429,0 6.528103,-0.39843 2.543813,-0.42907 4.168176,-1.53242 1.716308,-1.19528 2.513165,-2.7277 0.796857,-1.53242 0.796857,-3.95364 z" />
          <path
             inkscape:connector-curvature="0"
             id="path1213"
             style="fill:#f9f9f9;stroke-width:1.56919575"
             d="m -41.962346,-322.07579 q 0,4.96503 -1.103341,8.67348 -1.072692,3.6778 -3.555209,6.12967 -2.359923,2.32928 -5.516703,3.40197 -3.156781,1.07269 -7.355606,1.07269 -4.290769,0 -7.478198,-1.13399 -3.187429,-1.13399 -5.363462,-3.34067 -2.482517,-2.51316 -3.585858,-6.06837 -1.072692,-3.55521 -1.072692,-8.73478 v -27.30769 h 6.068374 v 27.61417 q 0,3.70845 0.490374,5.85384 0.521022,2.14538 1.716308,3.89234 1.348527,1.99214 3.647154,3.00354 2.329275,1.01139 5.578,1.01139 3.279374,0 5.578001,-0.98075 2.298627,-1.01139 3.677802,-3.03418 1.195286,-1.74696 1.68566,-3.98429 0.521022,-2.26798 0.521022,-5.60865 v -27.76741 h 6.068374 z" />
          <path
             inkscape:connector-curvature="0"
             id="path1215"
             style="fill:#f9f9f9;stroke-width:1.56919575"
             d="m 8.2089977,-326.5198 q 0,6.22161 -2.7277036,11.27859 -2.6970552,5.05698 -7.2023633,7.84598 -3.1261321,1.93084 -6.9878248,2.789 -3.831044,0.85815 -10.113957,0.85815 h -11.523781 v -45.6354 h 11.401188 q 6.681341,0 10.6043303,0.98075 3.9536377,0.9501 6.6813412,2.63576 4.6585499,2.91159 7.26366,7.75403 2.6051102,4.84244 2.6051102,11.49314 z m -6.3442094,-0.0919 q 0,-5.36346 -1.86954962,-9.04126 -1.86954958,-3.67781 -5.57800048,-5.79254 -2.6970552,-1.53242 -5.7312422,-2.11474 -3.034187,-0.61297 -7.26366,-0.61297 h -5.700594 v 35.21496 h 5.700594 q 4.382715,0 7.63144,-0.64361 3.2793741,-0.64362 6.0070776,-2.39057 3.4019674,-2.17604 5.08762686,-5.73125 1.71630784,-3.55521 1.71630784,-8.88802 z" />
          <path
             inkscape:connector-curvature="0"
             id="path1217"
             style="fill:#f9f9f9;stroke-width:1.56919575"
             d="m 52.097449,-344.14261 q 2.789,3.06484 4.260121,7.50885 1.50177,4.44401 1.50177,10.08331 0,5.63929 -1.532418,10.11395 -1.501769,4.44402 -4.229473,7.41691 -2.819648,3.09548 -6.681341,4.65855 -3.831044,1.56306 -8.765429,1.56306 -4.811792,0 -8.76543,-1.59371 -3.922989,-1.59372 -6.681341,-4.6279 -2.758352,-3.03419 -4.260121,-7.44755 -1.471121,-4.41337 -1.471121,-10.08331 0,-5.578 1.471121,-9.99137 1.471121,-4.44401 4.290769,-7.60079 2.697055,-3.00354 6.681342,-4.59725 4.014934,-1.59372 8.734781,-1.59372 4.903736,0 8.796077,1.62437 3.92299,1.59371 6.650693,4.5666 z m -0.55167,17.59216 q 0,-8.88803 -3.984286,-13.69982 -3.984286,-4.84244 -10.880166,-4.84244 -6.957177,0 -10.941463,4.84244 -3.953637,4.81179 -3.953637,13.69982 0,8.97996 4.045582,13.76111 4.045583,4.75049 10.849518,4.75049 6.803935,0 10.818869,-4.75049 4.045583,-4.78115 4.045583,-13.76111 z" />
          <path
             inkscape:connector-curvature="0"
             id="path1219"
             style="fill:#f9f9f9;stroke-width:1.56919575"
             d="m 120.59653,-349.38348 -11.86092,45.6354 h -6.83458 l -9.592936,-37.88136 -9.378396,37.88136 h -6.681342 l -12.075451,-45.6354 h 6.221616 l 9.592935,37.94267 9.439693,-37.94267 h 6.160319 l 9.531642,38.31045 9.53163,-38.31045 z" />
          <path
             inkscape:connector-curvature="0"
             id="path1221"
             style="fill:#f9f9f9;stroke-width:1.56919575"
             d="m 164.02525,-303.74808 h -6.4668 l -4.47466,-12.71906 h -19.73754 l -4.47466,12.71906 h -6.16032 l 16.61141,-45.6354 h 8.09116 z m -12.81101,-17.92928 -7.99922,-22.40395 -8.02987,22.40395 z" />
        </g>
      </g>
      <g
         transform="matrix(0.35277777,0,0,-0.35277777,-195.36853,282.72325)"
         id="g1881">
        <path
           inkscape:connector-curvature="0"
           id="path817"
           d="m -98.309039,555.74696 c 4.575391,-2.38511 7.748239,-3.5415 8.967103,-3.26814 1.38457,0.31047 6.998365,8.28259 21.104858,29.97068 l 19.218542,29.54766 6.946412,2.90304 c 16.336101,6.8272 35.5894446,19.95122 48.422078,33.00681 3.2253376,3.28139 5.802225,6.17845 5.726396,6.43791 -0.07585,0.25946 -15.6491056,8.88164 -34.607278,19.1604 l -34.469371,18.68866 -2.484686,-5.35099 c -7.068973,-15.22372 -10.657283,-34.2902 -10.142613,-53.89281 l 0.258449,-9.84439 -18.78174,-29.19471 c -22.267971,-34.61387 -21.622261,-32.18795 -10.15815,-38.16412 z m 11.763184,37.33419 18.538767,28.73769 8.275328,-4.45899 c 4.551444,-2.45246 8.377526,-4.80861 8.502441,-5.23593 0.124865,-0.42732 -8.073343,-13.59269 -18.2183,-29.25635 -13.537251,-20.90136 -18.946952,-28.59191 -20.330419,-28.90217 -2.648297,-0.59393 -14.011682,5.94783 -14.756152,8.49492 -0.43206,1.47834 3.43484,8.06087 17.988335,30.62083 z m -8.381903,-30.76444 c 4.188693,-2.27185 5.108544,-1.29124 19.064896,20.32395 7.321984,11.34004 13.145752,21.18937 12.941728,21.88737 -0.204024,0.69802 -1.887222,2.21546 -3.740471,3.3721 l -3.369569,2.10297 -13.97224,-21.60403 c -14.643892,-22.64251 -15.129365,-23.8016 -10.924344,-26.08236 z m 5.991634,15.94244 c 4.066149,6.13125 10.165279,15.33001 13.553603,20.44173 6.079557,9.17178 6.187736,9.28085 8.226981,8.29448 1.136505,-0.5497 2.27427,-1.71065 2.528325,-2.57988 0.554062,-1.89549 -24.344637,-40.76304 -26.409595,-41.22615 -1.716651,-0.385 -4.473331,1.11991 -4.933114,2.69302 -0.197562,0.67599 2.967629,6.24553 7.0338,12.3768 z m 20.811578,57.62904 c -0.163173,9.29361 0.990234,19.5269 3.381814,30.00393 1.776059,7.78056 6.271139,20.82579 7.869052,22.83686 0.670772,0.84418 7.859192,-2.73046 33.839538,-16.82754 C 8.4886999,654.79697 9.8970492,653.93539 8.6779975,652.501 5.1886362,648.39517 -5.6096668,638.69913 -11.964694,633.96542 c -10.44852,-7.78288 -30.028931,-18.56063 -36.31063,-19.98666 -1.444067,-0.32793 -4.472838,0.85801 -10.60411,4.15182 -9.799804,5.26459 -8.99876,3.72593 -9.245112,17.75761 z"
           style="fill:#ffffff;stroke:#ffffff;stroke-width:2.07087684;stroke-miterlimit:4;stroke-dasharray:none;stroke-opacity:1" />
        <path
           sodipodi:nodetypes="ccccc"
           inkscape:connector-curvature="0"
           id="rect4654"
           d="M 7.8931963,656.11788 7.215293,804.06929 -48.873172,803.68581 -47.825963,685.73128 Z"
           style="opacity:1;fill:#ffffff;fill-opacity:1;stroke:#ffffff;stroke-width:3.15216804;stroke-linecap:round;stroke-miterlimit:4;stroke-dasharray:none;stroke-dashoffset:0;stroke-opacity:1;paint-order:markers fill stroke" />
        <rect
           transform="matrix(0,1,1,0,0,0)"
           ry="3.3393466"
           y="-143.35092"
           x="480.14719"
           height="332.36978"
           width="323.94885"
           id="rect819"
           style="opacity:1;fill:none;fill-opacity:1;stroke:#ffffff;stroke-width:2.95515752;stroke-linecap:round;stroke-miterlimit:4;stroke-dasharray:none;stroke-dashoffset:29.09999657;stroke-opacity:1;paint-order:markers fill stroke" />
        <path
           id="path837"
           d="M -21.740404,480.45611 V 625.67245"
           style="fill:#ffffff;stroke:#ffffff;stroke-width:8.25;stroke-linecap:butt;stroke-linejoin:miter;stroke-miterlimit:4;stroke-dasharray:none;stroke-opacity:1"
           inkscape:connector-curvature="0"
           sodipodi:nodetypes="cc" />
        <path
           style="fill:#ffffff;stroke:#ffffff;stroke-width:8.27703285;stroke-linecap:butt;stroke-linejoin:miter;stroke-miterlimit:4;stroke-dasharray:none;stroke-opacity:1"
           d="m 120.62805,478.41088 c 0,324.88246 0,324.88246 0,324.88246"
           id="path845"
           inkscape:connector-curvature="0" />
        <g
           id="g1834">
          <ellipse
             ry="13.065035"
             rx="13.691584"
             transform="scale(1,-1)"
             style="opacity:1;fill:#ffffff;fill-opacity:0;stroke:#ffffff;stroke-width:1.01723623;stroke-linecap:round;stroke-miterlimit:4;stroke-dasharray:none;stroke-dashoffset:29.09999657;stroke-opacity:1;paint-order:markers fill stroke"
             id="path2383"
             cx="-2.4716642"
             cy="-496.17987" />
          <g
             id="g2395"
             style="stroke:#ffffff;stroke-width:7.80198574;stroke-miterlimit:4;stroke-dasharray:none;stroke-opacity:1"
             transform="matrix(0.6888517,0,0,-0.65732873,28.36795,547.51159)">
            <rect
               ry="0.12976696"
               y="67.190971"
               x="-44.899364"
               height="21.800848"
               width="0.25953391"
               id="rect2389"
               style="opacity:1;fill:#ffffff;fill-opacity:0;stroke:#ffffff;stroke-width:7.80198574;stroke-linecap:round;stroke-miterlimit:4;stroke-dasharray:none;stroke-dashoffset:29.09999657;stroke-opacity:1;paint-order:markers fill stroke" />
            <rect
               transform="rotate(90)"
               style="opacity:1;fill:#ffffff;fill-opacity:0;stroke:#ffffff;stroke-width:7.80198574;stroke-linecap:round;stroke-miterlimit:4;stroke-dasharray:none;stroke-dashoffset:29.09999657;stroke-opacity:1;paint-order:markers fill stroke"
               id="rect2391"
               width="0.25953391"
               height="21.800848"
               x="77.961632"
               y="33.869175"
               ry="0.12976696" />
          </g>
        </g>
        <rect
           ry="0.12766756"
           y="-803.61011"
           x="-187.72293"
           height="323.46292"
           width="44.372002"
           id="rect2440"
           style="opacity:1;fill:#ffffff;fill-opacity:1;fill-rule:nonzero;stroke:#ffffff;stroke-width:3.45851922;stroke-linecap:round;stroke-miterlimit:4;stroke-dasharray:none;stroke-dashoffset:29.09999657;stroke-opacity:1;paint-order:markers fill stroke"
           transform="scale(1,-1)" />
        <g
           id="g1642">
          <circle
             style="opacity:1;fill:#ffffff;fill-opacity:1;stroke:#ffffff;stroke-width:1.66904449;stroke-linecap:round;stroke-miterlimit:4;stroke-dasharray:none;stroke-dashoffset:0;stroke-opacity:1;paint-order:markers fill stroke"
             id="circle1616"
             cx="-6.6204109"
             cy="-597.46313"
             r="8.0084505"
             transform="scale(1,-1)" />
          <circle
             style="opacity:1;fill:#ffffff;fill-opacity:1;stroke:#ffffff;stroke-width:1.66904449;stroke-linecap:round;stroke-miterlimit:4;stroke-dasharray:none;stroke-dashoffset:0;stroke-opacity:1;paint-order:markers fill stroke"
             id="circle1636"
             cx="-6.6204109"
             cy="-534.96313"
             r="8.0084505"
             transform="scale(1,-1)" />
        </g>
        <g
           id="g1646">
          <circle
             transform="scale(1,-1)"
             r="8.0084505"
             cy="-567.27246"
             cx="-38.40007"
             id="circle1634"
             style="opacity:1;fill:#ffffff;fill-opacity:1;stroke:#ffffff;stroke-width:1.66904449;stroke-linecap:round;stroke-miterlimit:4;stroke-dasharray:none;stroke-dashoffset:0;stroke-opacity:1;paint-order:markers fill stroke" />
          <circle
             transform="scale(1,-1)"
             r="8.0084505"
             cy="-515.89532"
             cx="-38.40007"
             id="circle1638"
             style="opacity:1;fill:#ffffff;fill-opacity:1;stroke:#ffffff;stroke-width:1.66904449;stroke-linecap:round;stroke-miterlimit:4;stroke-dasharray:none;stroke-dashoffset:0;stroke-opacity:1;paint-order:markers fill stroke" />
        </g>
        <g
           id="g1652"
           transform="translate(143.00847,192.26694)">
          <circle
             transform="scale(1,-1)"
             r="8.0084505"
             cy="-597.46313"
             cx="-6.6204109"
             id="circle1648"
             style="opacity:1;fill:#ffffff;fill-opacity:1;stroke:#ffffff;stroke-width:1.66904449;stroke-linecap:round;stroke-miterlimit:4;stroke-dasharray:none;stroke-dashoffset:0;stroke-opacity:1;paint-order:markers fill stroke" />
          <circle
             transform="scale(1,-1)"
             r="8.0084505"
             cy="-534.96313"
             cx="-6.6204109"
             id="circle1650"
             style="opacity:1;fill:#ffffff;fill-opacity:1;stroke:#ffffff;stroke-width:1.66904449;stroke-linecap:round;stroke-miterlimit:4;stroke-dasharray:none;stroke-dashoffset:0;stroke-opacity:1;paint-order:markers fill stroke" />
        </g>
        <g
           transform="translate(109.63983,153.07203)"
           id="g1658">
          <circle
             style="opacity:1;fill:#ffffff;fill-opacity:1;stroke:#ffffff;stroke-width:1.66904449;stroke-linecap:round;stroke-miterlimit:4;stroke-dasharray:none;stroke-dashoffset:0;stroke-opacity:1;paint-order:markers fill stroke"
             id="circle1654"
             cx="-6.6204109"
             cy="-597.46313"
             r="8.0084505"
             transform="scale(1,-1)" />
          <circle
             style="opacity:1;fill:#ffffff;fill-opacity:1;stroke:#ffffff;stroke-width:1.66904449;stroke-linecap:round;stroke-miterlimit:4;stroke-dasharray:none;stroke-dashoffset:0;stroke-opacity:1;paint-order:markers fill stroke"
             id="circle1656"
             cx="-6.6204109"
             cy="-534.96313"
             r="8.0084505"
             transform="scale(1,-1)" />
        </g>
        <g
           id="g1664"
           transform="translate(141.94915,61.440679)">
          <circle
             transform="scale(1,-1)"
             r="8.0084505"
             cy="-597.46313"
             cx="-6.6204109"
             id="circle1660"
             style="opacity:1;fill:#ffffff;fill-opacity:1;stroke:#ffffff;stroke-width:1.66904449;stroke-linecap:round;stroke-miterlimit:4;stroke-dasharray:none;stroke-dashoffset:0;stroke-opacity:1;paint-order:markers fill stroke" />
          <circle
             transform="scale(1,-1)"
             r="8.0084505"
             cy="-534.96313"
             cx="-6.6204109"
             id="circle1662"
             style="opacity:1;fill:#ffffff;fill-opacity:1;stroke:#ffffff;stroke-width:1.66904449;stroke-linecap:round;stroke-miterlimit:4;stroke-dasharray:none;stroke-dashoffset:0;stroke-opacity:1;paint-order:markers fill stroke" />
        </g>
        <g
           transform="translate(110.16949,21.186444)"
           id="g1670">
          <circle
             style="opacity:1;fill:#ffffff;fill-opacity:1;stroke:#ffffff;stroke-width:1.66904449;stroke-linecap:round;stroke-miterlimit:4;stroke-dasharray:none;stroke-dashoffset:0;stroke-opacity:1;paint-order:markers fill stroke"
             id="circle1666"
             cx="-6.6204109"
             cy="-597.46313"
             r="8.0084505"
             transform="scale(1,-1)" />
          <circle
             style="opacity:1;fill:#ffffff;fill-opacity:1;stroke:#ffffff;stroke-width:1.66904449;stroke-linecap:round;stroke-miterlimit:4;stroke-dasharray:none;stroke-dashoffset:0;stroke-opacity:1;paint-order:markers fill stroke"
             id="circle1668"
             cx="-6.6204109"
             cy="-534.96313"
             r="8.0084505"
             transform="scale(1,-1)" />
        </g>
        <circle
           style="opacity:1;fill:#ffffff;fill-opacity:1;stroke:#ffffff;stroke-width:1.66904449;stroke-linecap:round;stroke-miterlimit:4;stroke-dasharray:none;stroke-dashoffset:0;stroke-opacity:1;paint-order:markers fill stroke"
           id="circle1672"
           cx="136.91772"
           cy="-524.8996"
           r="8.0084505"
           transform="scale(1,-1)" />
        <g
           id="g1844"
           transform="translate(102.24584,-0.37452687)">
          <ellipse
             cy="-496.17987"
             cx="-2.4716642"
             id="ellipse1836"
             style="opacity:1;fill:#ffffff;fill-opacity:0;stroke:#ffffff;stroke-width:1.01723623;stroke-linecap:round;stroke-miterlimit:4;stroke-dasharray:none;stroke-dashoffset:29.09999657;stroke-opacity:1;paint-order:markers fill stroke"
             transform="scale(1,-1)"
             rx="13.691584"
             ry="13.065035" />
          <g
             transform="matrix(0.6888517,0,0,-0.65732873,28.36795,547.51159)"
             style="stroke:#ffffff;stroke-width:7.80198574;stroke-miterlimit:4;stroke-dasharray:none;stroke-opacity:1"
             id="g1842">
            <rect
               style="opacity:1;fill:#ffffff;fill-opacity:0;stroke:#ffffff;stroke-width:7.80198574;stroke-linecap:round;stroke-miterlimit:4;stroke-dasharray:none;stroke-dashoffset:29.09999657;stroke-opacity:1;paint-order:markers fill stroke"
               id="rect1838"
               width="0.25953391"
               height="21.800848"
               x="-44.899364"
               y="67.190971"
               ry="0.12976696" />
            <rect
               ry="0.12976696"
               y="33.869175"
               x="77.961632"
               height="21.800848"
               width="0.25953391"
               id="rect1840"
               style="opacity:1;fill:#ffffff;fill-opacity:0;stroke:#ffffff;stroke-width:7.80198574;stroke-linecap:round;stroke-miterlimit:4;stroke-dasharray:none;stroke-dashoffset:29.09999657;stroke-opacity:1;paint-order:markers fill stroke"
               transform="rotate(90)" />
          </g>
        </g>
      </g>
    </g>
  </g>
</svg>
