<?xml version="1.0" encoding="UTF-8" standalone="no"?>
<!-- Created with Inkscape (http://www.inkscape.org/) -->

<svg
   xmlns:dc="http://purl.org/dc/elements/1.1/"
   xmlns:cc="http://creativecommons.org/ns#"
   xmlns:rdf="http://www.w3.org/1999/02/22-rdf-syntax-ns#"
   xmlns:svg="http://www.w3.org/2000/svg"
   xmlns="http://www.w3.org/2000/svg"
   xmlns:sodipodi="http://sodipodi.sourceforge.net/DTD/sodipodi-0.dtd"
   xmlns:inkscape="http://www.inkscape.org/namespaces/inkscape"
   width="415.01544mm"
   height="115.44485mm"
   viewBox="0 0 415.01545 115.44486"
   version="1.1"
   id="svg411"
   inkscape:version="0.92.4 (5da689c313, 2019-01-14)">
  <defs
     id="defs405" />
  <sodipodi:namedview
     id="base"
     pagecolor="#6adcff"
     bordercolor="#666666"
     borderopacity="1.0"
     inkscape:pageopacity="0"
     inkscape:pageshadow="2"
     inkscape:zoom="0.175"
     inkscape:cx="661.73662"
     inkscape:cy="378.3576"
     inkscape:document-units="mm"
     inkscape:current-layer="layer1"
     showgrid="false"
     showborder="false"
     fit-margin-top="0"
     fit-margin-left="0"
     fit-margin-right="0"
     fit-margin-bottom="0"
     inkscape:window-width="958"
     inkscape:window-height="1003"
     inkscape:window-x="952"
     inkscape:window-y="0"
     inkscape:window-maximized="0" />
  <metadata
     id="metadata408">
    <rdf:RDF>
      <cc:Work
         rdf:about="">
        <dc:format>image/svg+xml</dc:format>
        <dc:type
           rdf:resource="http://purl.org/dc/dcmitype/StillImage" />
        <dc:title></dc:title>
      </cc:Work>
    </rdf:RDF>
  </metadata>
  <g
     inkscape:label="Layer 1"
     inkscape:groupmode="layer"
     id="layer1"
     transform="translate(69.584944,-278.98369)">
    <g
       transform="matrix(0.35277777,0,0,-0.35277777,79.026195,52.79643)"
       id="g509">
      <g
         transform="matrix(1.5925315,0,0,1.5925315,-300.79166,519.47694)"
         id="g1550">
        <g
           aria-label="SUCHA  "
           transform="scale(1,-1)"
           style="font-style:normal;font-variant:normal;font-weight:400;font-size:73.15251923px;line-height:125%;font-family:Calibri;text-align:start;letter-spacing:0px;word-spacing:0px;text-anchor:start;fill:#ffffff;fill-opacity:1;stroke:none;stroke-width:4.95949221"
           id="text5150-9">
          <path
             inkscape:connector-curvature="0"
             d="m 394.9612,796.22217 q 0,3.25043 -1.21444,5.78648 -1.17873,2.53605 -3.32187,4.322 -2.10742,1.75023 -5.00066,2.64321 -2.85752,0.89297 -6.17939,0.89297 -2.32173,0 -4.322,-0.39291 -1.96454,-0.39291 -3.53618,-0.96441 -1.53592,-0.5715 -2.60749,-1.17873 -1.03585,-0.60722 -1.46447,-1.03585 -0.39291,-0.42863 -0.60723,-1.07157 -0.17859,-0.67866 -0.17859,-1.78595 0,-0.78582 0.0714,-1.28588 0.0714,-0.53579 0.21431,-0.85726 0.14288,-0.32147 0.35719,-0.42863 0.21431,-0.14287 0.50007,-0.14287 0.50006,0 1.39304,0.60722 0.92869,0.60722 2.35745,1.3216 1.42876,0.71438 3.42903,1.35733 2.03598,0.60722 4.67918,0.60722 2.00027,0 3.64334,-0.53579 1.6788,-0.53578 2.85752,-1.50019 1.21445,-1.00014 1.85739,-2.4289 0.64294,-1.42876 0.64294,-3.25043 0,-1.96454 -0.89297,-3.35758 -0.89298,-1.39304 -2.35746,-2.42889 -1.46447,-1.07157 -3.35758,-1.92883 -1.85739,-0.89298 -3.82194,-1.78595 -1.96454,-0.92869 -3.82193,-2.03598 -1.85739,-1.10729 -3.32187,-2.60749 -1.46448,-1.5002 -2.39317,-3.50046 -0.89297,-2.03599 -0.89297,-4.85779 0,-2.89324 1.03585,-5.14353 1.07157,-2.28602 2.92896,-3.82194 1.8931,-1.53592 4.46487,-2.32173 2.60749,-0.82154 5.60788,-0.82154 1.53592,0 3.07184,0.28575 1.57163,0.25003 2.92896,0.71438 1.39304,0.42863 2.46461,1.00013 1.07157,0.53579 1.39304,0.89298 0.35719,0.32147 0.46435,0.53578 0.10715,0.1786 0.17859,0.50007 0.0714,0.28575 0.10716,0.71438 0.0357,0.42863 0.0357,1.10729 0,0.64294 -0.0714,1.14301 -0.0357,0.50006 -0.14288,0.85725 -0.10715,0.32147 -0.32147,0.50007 -0.17859,0.14288 -0.42863,0.14288 -0.3929,0 -1.25016,-0.50007 -0.82154,-0.50007 -2.03598,-1.10729 -1.21445,-0.64294 -2.89324,-1.14301 -1.64308,-0.53578 -3.71478,-0.53578 -1.92883,0 -3.35759,0.53578 -1.42876,0.50007 -2.35745,1.35732 -0.92869,0.85726 -1.39304,2.03599 -0.46435,1.17872 -0.46435,2.50033 0,1.92882 0.89298,3.32187 0.89297,1.39304 2.35745,2.46461 1.5002,1.07157 3.39331,1.96454 1.8931,0.89298 3.85765,1.82167 1.96454,0.89298 3.85765,2.00027 1.89311,1.07157 3.35759,2.57176 1.5002,1.46448 2.39317,3.50047 0.92869,2.00026 0.92869,4.75062 z"
             style="font-style:normal;font-variant:normal;font-weight:400;font-size:73.15251923px;font-family:Calibri;fill:#ffffff;stroke-width:4.95949221"
             id="path1019" />
          <path
             inkscape:connector-curvature="0"
             d="m 438.46695,792.11449 q 0,4.21484 -1.25016,7.53671 -1.21445,3.28615 -3.50047,5.57216 -2.28601,2.28602 -5.57216,3.46475 -3.28615,1.17872 -7.46527,1.17872 -3.82194,0 -6.96521,-1.10729 -3.14327,-1.10729 -5.39357,-3.25043 -2.2503,-2.17886 -3.46474,-5.42928 -1.21445,-3.25043 -1.21445,-7.501 v -28.68236 q 0,-0.28575 0.14288,-0.50006 0.14287,-0.21432 0.50006,-0.32147 0.35719,-0.14288 0.9287,-0.21432 0.5715,-0.10715 1.5002,-0.10715 0.85725,0 1.46448,0.10715 0.60722,0.0714 0.92869,0.21432 0.35719,0.10715 0.50007,0.32147 0.14287,0.21431 0.14287,0.50006 v 27.93227 q 0,3.21471 0.78582,5.60788 0.78582,2.39317 2.2503,4.00053 1.50019,1.57163 3.5719,2.39317 2.10742,0.78582 4.71491,0.78582 2.67892,0 4.75062,-0.78582 2.10742,-0.78582 3.53618,-2.35745 1.46448,-1.57164 2.21458,-3.89337 0.78582,-2.32174 0.78582,-5.42929 v -28.25374 q 0,-0.28575 0.14288,-0.50006 0.14287,-0.21432 0.50006,-0.32147 0.35719,-0.14288 0.9287,-0.21432 0.60722,-0.10715 1.50019,-0.10715 0.85726,0 1.42877,0.10715 0.60722,0.0714 0.92869,0.21432 0.35719,0.10715 0.50007,0.32147 0.17859,0.21431 0.17859,0.50006 z"
             style="font-style:normal;font-variant:normal;font-weight:400;font-size:73.15251923px;font-family:Calibri;fill:#ffffff;stroke-width:4.95949221"
             id="path1021" />
          <path
             inkscape:connector-curvature="0"
             d="m 481.57979,802.65159 q 0,0.57151 -0.0357,1.00014 -0.0357,0.42862 -0.14287,0.75009 -0.0714,0.32148 -0.21432,0.57151 -0.14287,0.25003 -0.50006,0.60722 -0.35719,0.35719 -1.5002,1.10729 -1.14301,0.71438 -2.85752,1.42876 -1.67879,0.67866 -3.89337,1.14301 -2.17886,0.50007 -4.78635,0.50007 -4.50059,0 -8.14393,-1.5002 -3.60762,-1.5002 -6.17939,-4.42916 -2.53605,-2.92896 -3.92909,-7.21524 -1.35732,-4.322 -1.35732,-9.92988 0,-5.75076 1.46448,-10.25135 1.5002,-4.5006 4.17912,-7.60815 2.67893,-3.14327 6.3937,-4.78635 3.7505,-1.64307 8.28681,-1.64307 2.00027,0 3.89337,0.39291 1.89311,0.35719 3.50047,0.92869 1.60735,0.5715 2.85752,1.3216 1.25016,0.7501 1.71451,1.25017 0.50006,0.46435 0.64294,0.71438 0.14288,0.25003 0.21431,0.60722 0.10716,0.32147 0.14288,0.78582 0.0714,0.46435 0.0714,1.10729 0,0.71438 -0.0714,1.21444 -0.0714,0.50007 -0.21431,0.85726 -0.14288,0.32147 -0.35719,0.50007 -0.1786,0.14287 -0.46435,0.14287 -0.50007,0 -1.39304,-0.67866 -0.89298,-0.71438 -2.32174,-1.53592 -1.39304,-0.85725 -3.42902,-1.53591 -2.00027,-0.71438 -4.82207,-0.71438 -3.07183,0 -5.60788,1.25016 -2.50033,1.21445 -4.28628,3.60762 -1.78595,2.39318 -2.78608,5.85792 -0.96442,3.42902 -0.96442,7.85818 0,4.39344 0.9287,7.78674 0.96441,3.35759 2.71464,5.6436 1.78595,2.2503 4.35772,3.42903 2.57177,1.14301 5.8222,1.14301 2.75036,0 4.78634,-0.67866 2.07171,-0.67867 3.50047,-1.5002 1.46448,-0.85726 2.39317,-1.53592 0.92869,-0.67866 1.46448,-0.67866 0.25003,0 0.42863,0.10716 0.17859,0.10715 0.28575,0.42862 0.10716,0.28576 0.14288,0.82154 0.0714,0.53579 0.0714,1.35732 z"
             style="font-style:normal;font-variant:normal;font-weight:400;font-size:73.15251923px;font-family:Calibri;fill:#ffffff;stroke-width:4.95949221"
             id="path1023" />
          <path
             inkscape:connector-curvature="0"
             d="m 523.01384,808.25948 q 0,0.28575 -0.14288,0.50006 -0.14288,0.21432 -0.50007,0.35719 -0.35719,0.10716 -0.96441,0.1786 -0.5715,0.10716 -1.42876,0.10716 -0.92869,0 -1.5002,-0.10716 -0.5715,-0.0714 -0.92869,-0.1786 -0.35719,-0.14287 -0.50007,-0.35719 -0.14287,-0.21431 -0.14287,-0.50006 v -20.50271 h -21.0385 v 20.50271 q 0,0.28575 -0.14287,0.50006 -0.14288,0.21432 -0.50007,0.35719 -0.35719,0.10716 -0.96441,0.1786 -0.57151,0.10716 -1.46448,0.10716 -0.85726,0 -1.46448,-0.10716 -0.60722,-0.0714 -0.96441,-0.1786 -0.35719,-0.14287 -0.50007,-0.35719 -0.14288,-0.21431 -0.14288,-0.50006 v -44.36301 q 0,-0.28575 0.14288,-0.50006 0.14288,-0.21432 0.50007,-0.32147 0.35719,-0.14288 0.96441,-0.21432 0.60722,-0.10715 1.46448,-0.10715 0.89297,0 1.46448,0.10715 0.60722,0.0714 0.96441,0.21432 0.35719,0.10715 0.50007,0.32147 0.14287,0.21431 0.14287,0.50006 v 18.50245 h 21.0385 v -18.50245 q 0,-0.28575 0.14287,-0.50006 0.14288,-0.21432 0.50007,-0.32147 0.35719,-0.14288 0.92869,-0.21432 0.57151,-0.10715 1.5002,-0.10715 0.85726,0 1.42876,0.10715 0.60722,0.0714 0.96441,0.21432 0.35719,0.10715 0.50007,0.32147 0.14288,0.21431 0.14288,0.50006 z"
             style="font-style:normal;font-variant:normal;font-weight:400;font-size:73.15251923px;font-family:Calibri;fill:#ffffff;stroke-width:4.95949221"
             id="path1025" />
          <path
             inkscape:connector-curvature="0"
             d="m 569.91288,807.00931 q 0.28576,0.78582 0.28576,1.28589 0.0357,0.46434 -0.25004,0.71438 -0.28575,0.25003 -0.96441,0.32147 -0.64294,0.0714 -1.75023,0.0714 -1.10729,0 -1.78595,-0.0714 -0.64294,-0.0357 -1.00013,-0.14288 -0.32147,-0.14287 -0.50007,-0.35719 -0.14288,-0.21431 -0.28575,-0.53578 l -3.96481,-11.25149 h -19.21682 l -3.78622,11.10861 q -0.10716,0.32147 -0.28575,0.5715 -0.1786,0.21432 -0.53579,0.39291 -0.32147,0.14288 -0.96441,0.21432 -0.60722,0.0714 -1.60735,0.0714 -1.03586,0 -1.71452,-0.10716 -0.64294,-0.0714 -0.92869,-0.32147 -0.25003,-0.25004 -0.25003,-0.71438 0.0357,-0.50007 0.32147,-1.28589 l 15.50204,-42.93424 q 0.14288,-0.39291 0.35719,-0.64294 0.25004,-0.25003 0.67867,-0.39291 0.46434,-0.14288 1.143,-0.1786 0.71438,-0.0714 1.78595,-0.0714 1.14301,0 1.89311,0.0714 0.7501,0.0357 1.21445,0.1786 0.46434,0.14288 0.71438,0.42863 0.25003,0.25003 0.39291,0.64294 z M 550.0174,769.11145 h -0.0357 l -7.96534,23.03876 h 16.07355 z"
             style="font-style:normal;font-variant:normal;font-weight:400;font-size:73.15251923px;font-family:Calibri;fill:#ffffff;stroke-width:4.95949221"
             id="path1027" />
        </g>
        <g
           aria-label="ZABUDOWA "
           transform="scale(1,-1)"
           style="font-style:normal;font-weight:normal;font-size:62.7678299px;line-height:1.25;font-family:sans-serif;letter-spacing:0px;word-spacing:0px;fill:#f9f9f9;fill-opacity:1;stroke:none;stroke-width:1.56919563"
           id="text5165-7">
          <path
             inkscape:connector-curvature="0"
             d="m 327.09871,907.93781 h -35.61339 v -5.6393 l 27.98195,-34.60199 h -26.93991 v -5.39411 h 33.89708 v 5.48605 l -28.25778,34.75523 h 28.93205 z"
             style="fill:#f9f9f9;stroke-width:1.56919563"
             id="path1030" />
          <path
             inkscape:connector-curvature="0"
             d="m 372.76475,907.93781 h -6.4668 l -4.47466,-12.71907 h -19.73754 l -4.47466,12.71907 h -6.16032 l 16.61141,-45.6354 h 8.09117 z m -12.81101,-17.92929 -7.99922,-22.40395 -8.02987,22.40395 z"
             style="fill:#f9f9f9;stroke-width:1.56919563"
             id="path1032" />
          <path
             inkscape:connector-curvature="0"
             d="m 414.10939,893.90086 q 0,3.40197 -1.28723,6.00708 -1.28723,2.60511 -3.46327,4.29077 -2.57446,2.02279 -5.66994,2.88094 -3.06484,0.85816 -7.81533,0.85816 h -16.18233 v -45.6354 h 13.51592 q 4.99568,0 7.4782,0.36778 2.48252,0.36778 4.75049,1.53241 2.51317,1.31788 3.64716,3.40197 1.13399,2.05344 1.13399,4.93439 0,3.24872 -1.65501,5.54735 -1.65502,2.26798 -4.41337,3.64715 v 0.24519 q 4.6279,0.9501 7.29431,4.07623 2.66641,3.09548 2.66641,7.84598 z m -10.2059,-20.56505 q 0,-1.65501 -0.55167,-2.789 -0.55167,-1.13399 -1.77761,-1.8389 -1.44047,-0.8275 -3.49391,-1.01139 -2.05344,-0.21454 -5.08763,-0.21454 h -7.23301 v 13.17879 h 7.84598 q 2.8503,0 4.53596,-0.27584 1.68565,-0.30648 3.12613,-1.22593 1.44047,-0.91945 2.02279,-2.35992 0.61297,-1.47112 0.61297,-3.46327 z m 3.89234,20.81024 q 0,-2.75836 -0.82751,-4.38272 -0.8275,-1.62436 -3.00354,-2.75835 -1.47112,-0.76621 -3.58585,-0.98075 -2.08409,-0.24519 -5.08763,-0.24519 h -9.53164 v 16.97919 h 8.02987 q 3.98428,0 6.5281,-0.39843 2.54381,-0.42907 4.16817,-1.53241 1.71631,-1.19529 2.51317,-2.72771 0.79686,-1.53241 0.79686,-3.95363 z"
             style="fill:#f9f9f9;stroke-width:1.56919563"
             id="path1034" />
          <path
             inkscape:connector-curvature="0"
             d="m 457.07838,889.61009 q 0,4.96503 -1.10334,8.67348 -1.07269,3.67781 -3.55521,6.12967 -2.35992,2.32928 -5.5167,3.40197 -3.15678,1.07269 -7.35561,1.07269 -4.29077,0 -7.4782,-1.13398 -3.18743,-1.13399 -5.36346,-3.34068 -2.48252,-2.51316 -3.58586,-6.06837 -1.07269,-3.55521 -1.07269,-8.73478 v -27.30768 h 6.06837 v 27.61416 q 0,3.70845 0.49038,5.85384 0.52102,2.14538 1.71631,3.89234 1.34852,1.99214 3.64715,3.00354 2.32928,1.01139 5.578,1.01139 3.27938,0 5.578,-0.98074 2.29863,-1.0114 3.6778,-3.03419 1.19529,-1.74696 1.68566,-3.98429 0.52103,-2.26797 0.52103,-5.60865 v -27.7674 h 6.06837 z"
             style="fill:#f9f9f9;stroke-width:1.56919563"
             id="path1036" />
          <path
             inkscape:connector-curvature="0"
             d="m 507.24972,885.16608 q 0,6.22161 -2.7277,11.27859 -2.69706,5.05698 -7.20236,7.84598 -3.12614,1.93085 -6.98783,2.789 -3.83104,0.85816 -10.11396,0.85816 h -11.52378 v -45.6354 h 11.40119 q 6.68134,0 10.60433,0.98074 3.95364,0.9501 6.68134,2.63576 4.65855,2.91159 7.26366,7.75403 2.60511,4.84244 2.60511,11.49314 z m -6.34421,-0.0919 q 0,-5.36346 -1.86955,-9.04126 -1.86955,-3.6778 -5.578,-5.79254 -2.69705,-1.53242 -5.73124,-2.11474 -3.03419,-0.61296 -7.26366,-0.61296 h -5.70059 v 35.21495 h 5.70059 q 4.38272,0 7.63144,-0.64361 3.27938,-0.64362 6.00708,-2.39057 3.40197,-2.17604 5.08763,-5.73124 1.7163,-3.55521 1.7163,-8.88803 z"
             style="fill:#f9f9f9;stroke-width:1.56919563"
             id="path1038" />
          <path
             inkscape:connector-curvature="0"
             d="m 551.13817,867.54327 q 2.78901,3.06484 4.26013,7.50885 1.50177,4.44401 1.50177,10.08331 0,5.6393 -1.53242,10.11396 -1.50177,4.44401 -4.22948,7.4169 -2.81964,3.09548 -6.68134,4.65855 -3.83104,1.56306 -8.76543,1.56306 -4.81179,0 -8.76543,-1.59371 -3.92298,-1.59371 -6.68134,-4.6279 -2.75835,-3.03419 -4.26012,-7.44755 -1.47112,-4.41336 -1.47112,-10.08331 0,-5.578 1.47112,-9.99136 1.47112,-4.44402 4.29077,-7.6008 2.69706,-3.00353 6.68134,-4.59725 4.01494,-1.59371 8.73478,-1.59371 4.90374,0 8.79608,1.62436 3.92299,1.59371 6.65069,4.5666 z m -0.55167,17.59216 q 0,-8.88802 -3.98428,-13.69981 -3.98429,-4.84244 -10.88017,-4.84244 -6.95717,0 -10.94146,4.84244 -3.95364,4.81179 -3.95364,13.69981 0,8.97997 4.04559,13.76111 4.04558,4.7505 10.84951,4.7505 6.80394,0 10.81887,-4.7505 4.04558,-4.78114 4.04558,-13.76111 z"
             style="fill:#f9f9f9;stroke-width:1.56919563"
             id="path1040" />
          <path
             inkscape:connector-curvature="0"
             d="m 619.63725,862.30241 -11.86091,45.6354 h -6.83459 l -9.59293,-37.88137 -9.3784,37.88137 h -6.68134 l -12.07545,-45.6354 h 6.22162 l 9.59293,37.94266 9.43969,-37.94266 h 6.16032 l 9.53164,38.31044 9.53164,-38.31044 z"
             style="fill:#f9f9f9;stroke-width:1.56919563"
             id="path1042" />
          <path
             inkscape:connector-curvature="0"
             d="m 663.06598,907.93781 h -6.4668 l -4.47466,-12.71907 h -19.73754 l -4.47466,12.71907 H 621.752 l 16.6114,-45.6354 h 8.09117 z m -12.81101,-17.92929 -7.99922,-22.40395 -8.02987,22.40395 z"
             style="fill:#f9f9f9;stroke-width:1.56919563"
             id="path1044" />
        </g>
      </g>
      <g
         id="g1881"
         transform="translate(-231.80774,-1446.8169)">
        <path
           inkscape:connector-curvature="0"
           id="path817"
           d="m -98.309039,555.74696 c 4.575391,-2.38511 7.748239,-3.5415 8.967103,-3.26814 1.38457,0.31047 6.998365,8.28259 21.104858,29.97068 l 19.218542,29.54766 6.946412,2.90304 c 16.336101,6.8272 35.5894446,19.95122 48.422078,33.00681 3.2253376,3.28139 5.802225,6.17845 5.726396,6.43791 -0.07585,0.25946 -15.6491056,8.88164 -34.607278,19.1604 l -34.469371,18.68866 -2.484686,-5.35099 c -7.068973,-15.22372 -10.657283,-34.2902 -10.142613,-53.89281 l 0.258449,-9.84439 -18.78174,-29.19471 c -22.267971,-34.61387 -21.622261,-32.18795 -10.15815,-38.16412 z m 11.763184,37.33419 18.538767,28.73769 8.275328,-4.45899 c 4.551444,-2.45246 8.377526,-4.80861 8.502441,-5.23593 0.124865,-0.42732 -8.073343,-13.59269 -18.2183,-29.25635 -13.537251,-20.90136 -18.946952,-28.59191 -20.330419,-28.90217 -2.648297,-0.59393 -14.011682,5.94783 -14.756152,8.49492 -0.43206,1.47834 3.43484,8.06087 17.988335,30.62083 z m -8.381903,-30.76444 c 4.188693,-2.27185 5.108544,-1.29124 19.064896,20.32395 7.321984,11.34004 13.145752,21.18937 12.941728,21.88737 -0.204024,0.69802 -1.887222,2.21546 -3.740471,3.3721 l -3.369569,2.10297 -13.97224,-21.60403 c -14.643892,-22.64251 -15.129365,-23.8016 -10.924344,-26.08236 z m 5.991634,15.94244 c 4.066149,6.13125 10.165279,15.33001 13.553603,20.44173 6.079557,9.17178 6.187736,9.28085 8.226981,8.29448 1.136505,-0.5497 2.27427,-1.71065 2.528325,-2.57988 0.554062,-1.89549 -24.344637,-40.76304 -26.409595,-41.22615 -1.716651,-0.385 -4.473331,1.11991 -4.933114,2.69302 -0.197562,0.67599 2.967629,6.24553 7.0338,12.3768 z m 20.811578,57.62904 c -0.163173,9.29361 0.990234,19.5269 3.381814,30.00393 1.776059,7.78056 6.271139,20.82579 7.869052,22.83686 0.670772,0.84418 7.859192,-2.73046 33.839538,-16.82754 C 8.4886999,654.79697 9.8970492,653.93539 8.6779975,652.501 5.1886362,648.39517 -5.6096668,638.69913 -11.964694,633.96542 c -10.44852,-7.78288 -30.028931,-18.56063 -36.31063,-19.98666 -1.444067,-0.32793 -4.472838,0.85801 -10.60411,4.15182 -9.799804,5.26459 -8.99876,3.72593 -9.245112,17.75761 z"
           style="fill:#ffffff;stroke:#ffffff;stroke-width:2.07087684;stroke-miterlimit:4;stroke-dasharray:none;stroke-opacity:1" />
        <path
           sodipodi:nodetypes="ccccc"
           inkscape:connector-curvature="0"
           id="rect4654"
           d="M 7.8931963,656.11788 7.215293,804.06929 -48.873172,803.68581 -47.825963,685.73128 Z"
           style="opacity:1;fill:#ffffff;fill-opacity:1;stroke:#ffffff;stroke-width:3.15216804;stroke-linecap:round;stroke-miterlimit:4;stroke-dasharray:none;stroke-dashoffset:0;stroke-opacity:1;paint-order:markers fill stroke" />
        <rect
           transform="matrix(0,1,1,0,0,0)"
           ry="3.3393466"
           y="-143.35092"
           x="480.14719"
           height="332.36978"
           width="323.94885"
           id="rect819"
           style="opacity:1;fill:none;fill-opacity:1;stroke:#ffffff;stroke-width:2.95515752;stroke-linecap:round;stroke-miterlimit:4;stroke-dasharray:none;stroke-dashoffset:29.09999657;stroke-opacity:1;paint-order:markers fill stroke" />
        <path
           id="path837"
           d="M -21.740404,480.45611 V 625.67245"
           style="fill:#ffffff;stroke:#ffffff;stroke-width:8.25;stroke-linecap:butt;stroke-linejoin:miter;stroke-miterlimit:4;stroke-dasharray:none;stroke-opacity:1"
           inkscape:connector-curvature="0"
           sodipodi:nodetypes="cc" />
        <path
           style="fill:#ffffff;stroke:#ffffff;stroke-width:8.27703285;stroke-linecap:butt;stroke-linejoin:miter;stroke-miterlimit:4;stroke-dasharray:none;stroke-opacity:1"
           d="m 120.62805,478.41088 c 0,324.88246 0,324.88246 0,324.88246"
           id="path845"
           inkscape:connector-curvature="0" />
        <g
           id="g1834">
          <ellipse
             ry="13.065035"
             rx="13.691584"
             transform="scale(1,-1)"
             style="opacity:1;fill:#ffffff;fill-opacity:0;stroke:#ffffff;stroke-width:1.01723623;stroke-linecap:round;stroke-miterlimit:4;stroke-dasharray:none;stroke-dashoffset:29.09999657;stroke-opacity:1;paint-order:markers fill stroke"
             id="path2383"
             cx="-2.4716642"
             cy="-496.17987" />
          <g
             id="g2395"
             style="stroke:#ffffff;stroke-width:7.80198574;stroke-miterlimit:4;stroke-dasharray:none;stroke-opacity:1"
             transform="matrix(0.6888517,0,0,-0.65732873,28.36795,547.51159)">
            <rect
               ry="0.12976696"
               y="67.190971"
               x="-44.899364"
               height="21.800848"
               width="0.25953391"
               id="rect2389"
               style="opacity:1;fill:#ffffff;fill-opacity:0;stroke:#ffffff;stroke-width:7.80198574;stroke-linecap:round;stroke-miterlimit:4;stroke-dasharray:none;stroke-dashoffset:29.09999657;stroke-opacity:1;paint-order:markers fill stroke" />
            <rect
               transform="rotate(90)"
               style="opacity:1;fill:#ffffff;fill-opacity:0;stroke:#ffffff;stroke-width:7.80198574;stroke-linecap:round;stroke-miterlimit:4;stroke-dasharray:none;stroke-dashoffset:29.09999657;stroke-opacity:1;paint-order:markers fill stroke"
               id="rect2391"
               width="0.25953391"
               height="21.800848"
               x="77.961632"
               y="33.869175"
               ry="0.12976696" />
          </g>
        </g>
        <rect
           ry="0.12766756"
           y="-803.61011"
           x="-187.72293"
           height="323.46292"
           width="44.372002"
           id="rect2440"
           style="opacity:1;fill:#ffffff;fill-opacity:1;fill-rule:nonzero;stroke:#ffffff;stroke-width:3.45851922;stroke-linecap:round;stroke-miterlimit:4;stroke-dasharray:none;stroke-dashoffset:29.09999657;stroke-opacity:1;paint-order:markers fill stroke"
           transform="scale(1,-1)" />
        <g
           id="g1642">
          <circle
             style="opacity:1;fill:#ffffff;fill-opacity:1;stroke:#ffffff;stroke-width:1.66904449;stroke-linecap:round;stroke-miterlimit:4;stroke-dasharray:none;stroke-dashoffset:0;stroke-opacity:1;paint-order:markers fill stroke"
             id="circle1616"
             cx="-6.6204109"
             cy="-597.46313"
             r="8.0084505"
             transform="scale(1,-1)" />
          <circle
             style="opacity:1;fill:#ffffff;fill-opacity:1;stroke:#ffffff;stroke-width:1.66904449;stroke-linecap:round;stroke-miterlimit:4;stroke-dasharray:none;stroke-dashoffset:0;stroke-opacity:1;paint-order:markers fill stroke"
             id="circle1636"
             cx="-6.6204109"
             cy="-534.96313"
             r="8.0084505"
             transform="scale(1,-1)" />
        </g>
        <g
           id="g1646">
          <circle
             transform="scale(1,-1)"
             r="8.0084505"
             cy="-567.27246"
             cx="-38.40007"
             id="circle1634"
             style="opacity:1;fill:#ffffff;fill-opacity:1;stroke:#ffffff;stroke-width:1.66904449;stroke-linecap:round;stroke-miterlimit:4;stroke-dasharray:none;stroke-dashoffset:0;stroke-opacity:1;paint-order:markers fill stroke" />
          <circle
             transform="scale(1,-1)"
             r="8.0084505"
             cy="-515.89532"
             cx="-38.40007"
             id="circle1638"
             style="opacity:1;fill:#ffffff;fill-opacity:1;stroke:#ffffff;stroke-width:1.66904449;stroke-linecap:round;stroke-miterlimit:4;stroke-dasharray:none;stroke-dashoffset:0;stroke-opacity:1;paint-order:markers fill stroke" />
        </g>
        <g
           id="g1652"
           transform="translate(143.00847,192.26694)">
          <circle
             transform="scale(1,-1)"
             r="8.0084505"
             cy="-597.46313"
             cx="-6.6204109"
             id="circle1648"
             style="opacity:1;fill:#ffffff;fill-opacity:1;stroke:#ffffff;stroke-width:1.66904449;stroke-linecap:round;stroke-miterlimit:4;stroke-dasharray:none;stroke-dashoffset:0;stroke-opacity:1;paint-order:markers fill stroke" />
          <circle
             transform="scale(1,-1)"
             r="8.0084505"
             cy="-534.96313"
             cx="-6.6204109"
             id="circle1650"
             style="opacity:1;fill:#ffffff;fill-opacity:1;stroke:#ffffff;stroke-width:1.66904449;stroke-linecap:round;stroke-miterlimit:4;stroke-dasharray:none;stroke-dashoffset:0;stroke-opacity:1;paint-order:markers fill stroke" />
        </g>
        <g
           transform="translate(109.63983,153.07203)"
           id="g1658">
          <circle
             style="opacity:1;fill:#ffffff;fill-opacity:1;stroke:#ffffff;stroke-width:1.66904449;stroke-linecap:round;stroke-miterlimit:4;stroke-dasharray:none;stroke-dashoffset:0;stroke-opacity:1;paint-order:markers fill stroke"
             id="circle1654"
             cx="-6.6204109"
             cy="-597.46313"
             r="8.0084505"
             transform="scale(1,-1)" />
          <circle
             style="opacity:1;fill:#ffffff;fill-opacity:1;stroke:#ffffff;stroke-width:1.66904449;stroke-linecap:round;stroke-miterlimit:4;stroke-dasharray:none;stroke-dashoffset:0;stroke-opacity:1;paint-order:markers fill stroke"
             id="circle1656"
             cx="-6.6204109"
             cy="-534.96313"
             r="8.0084505"
             transform="scale(1,-1)" />
        </g>
        <g
           id="g1664"
           transform="translate(141.94915,61.440679)">
          <circle
             transform="scale(1,-1)"
             r="8.0084505"
             cy="-597.46313"
             cx="-6.6204109"
             id="circle1660"
             style="opacity:1;fill:#ffffff;fill-opacity:1;stroke:#ffffff;stroke-width:1.66904449;stroke-linecap:round;stroke-miterlimit:4;stroke-dasharray:none;stroke-dashoffset:0;stroke-opacity:1;paint-order:markers fill stroke" />
          <circle
             transform="scale(1,-1)"
             r="8.0084505"
             cy="-534.96313"
             cx="-6.6204109"
             id="circle1662"
             style="opacity:1;fill:#ffffff;fill-opacity:1;stroke:#ffffff;stroke-width:1.66904449;stroke-linecap:round;stroke-miterlimit:4;stroke-dasharray:none;stroke-dashoffset:0;stroke-opacity:1;paint-order:markers fill stroke" />
        </g>
        <g
           transform="translate(110.16949,21.186444)"
           id="g1670">
          <circle
             style="opacity:1;fill:#ffffff;fill-opacity:1;stroke:#ffffff;stroke-width:1.66904449;stroke-linecap:round;stroke-miterlimit:4;stroke-dasharray:none;stroke-dashoffset:0;stroke-opacity:1;paint-order:markers fill stroke"
             id="circle1666"
             cx="-6.6204109"
             cy="-597.46313"
             r="8.0084505"
             transform="scale(1,-1)" />
          <circle
             style="opacity:1;fill:#ffffff;fill-opacity:1;stroke:#ffffff;stroke-width:1.66904449;stroke-linecap:round;stroke-miterlimit:4;stroke-dasharray:none;stroke-dashoffset:0;stroke-opacity:1;paint-order:markers fill stroke"
             id="circle1668"
             cx="-6.6204109"
             cy="-534.96313"
             r="8.0084505"
             transform="scale(1,-1)" />
        </g>
        <circle
           style="opacity:1;fill:#ffffff;fill-opacity:1;stroke:#ffffff;stroke-width:1.66904449;stroke-linecap:round;stroke-miterlimit:4;stroke-dasharray:none;stroke-dashoffset:0;stroke-opacity:1;paint-order:markers fill stroke"
           id="circle1672"
           cx="136.91772"
           cy="-524.8996"
           r="8.0084505"
           transform="scale(1,-1)" />
        <g
           id="g1844"
           transform="translate(102.24584,-0.37452687)">
          <ellipse
             cy="-496.17987"
             cx="-2.4716642"
             id="ellipse1836"
             style="opacity:1;fill:#ffffff;fill-opacity:0;stroke:#ffffff;stroke-width:1.01723623;stroke-linecap:round;stroke-miterlimit:4;stroke-dasharray:none;stroke-dashoffset:29.09999657;stroke-opacity:1;paint-order:markers fill stroke"
             transform="scale(1,-1)"
             rx="13.691584"
             ry="13.065035" />
          <g
             transform="matrix(0.6888517,0,0,-0.65732873,28.36795,547.51159)"
             style="stroke:#ffffff;stroke-width:7.80198574;stroke-miterlimit:4;stroke-dasharray:none;stroke-opacity:1"
             id="g1842">
            <rect
               style="opacity:1;fill:#ffffff;fill-opacity:0;stroke:#ffffff;stroke-width:7.80198574;stroke-linecap:round;stroke-miterlimit:4;stroke-dasharray:none;stroke-dashoffset:29.09999657;stroke-opacity:1;paint-order:markers fill stroke"
               id="rect1838"
               width="0.25953391"
               height="21.800848"
               x="-44.899364"
               y="67.190971"
               ry="0.12976696" />
            <rect
               ry="0.12976696"
               y="33.869175"
               x="77.961632"
               height="21.800848"
               width="0.25953391"
               id="rect1840"
               style="opacity:1;fill:#ffffff;fill-opacity:0;stroke:#ffffff;stroke-width:7.80198574;stroke-linecap:round;stroke-miterlimit:4;stroke-dasharray:none;stroke-dashoffset:29.09999657;stroke-opacity:1;paint-order:markers fill stroke"
               transform="rotate(90)" />
          </g>
        </g>
      </g>
    </g>
  </g>
</svg>
