<?xml version="1.0" encoding="UTF-8" standalone="no"?>
<!-- Created with Inkscape (http://www.inkscape.org/) -->

<svg
   xmlns:dc="http://purl.org/dc/elements/1.1/"
   xmlns:cc="http://creativecommons.org/ns#"
   xmlns:rdf="http://www.w3.org/1999/02/22-rdf-syntax-ns#"
   xmlns:svg="http://www.w3.org/2000/svg"
   xmlns="http://www.w3.org/2000/svg"
   xmlns:sodipodi="http://sodipodi.sourceforge.net/DTD/sodipodi-0.dtd"
   xmlns:inkscape="http://www.inkscape.org/namespaces/inkscape"
   width="427.40085mm"
   height="104.2896mm"
   viewBox="0 0 427.40086 104.2896"
   version="1.1"
   id="svg411"
   inkscape:version="0.92.4 (5da689c313, 2019-01-14)">
  <defs
     id="defs405">
    <clipPath
       id="clipPath918-0"
       clipPathUnits="userSpaceOnUse">
      <rect
         style="opacity:1;fill:#ff0000;fill-opacity:1;stroke:none;stroke-width:13.22916603;stroke-linecap:round;stroke-miterlimit:4;stroke-dasharray:none;stroke-dashoffset:0;stroke-opacity:1;paint-order:markers fill stroke"
         id="rect920-9"
         width="118.24004"
         height="139.19397"
         x="-690.24603"
         y="494.38312"
         ry="15.040849"
         transform="rotate(45.14541)"
         rx="0" />
    </clipPath>
    <clipPath
       id="clipPath1392"
       clipPathUnits="userSpaceOnUse">
      <rect
         style="opacity:1;fill:#ff0000;fill-opacity:1;stroke:none;stroke-width:13.22916603;stroke-linecap:round;stroke-miterlimit:4;stroke-dasharray:none;stroke-dashoffset:0;stroke-opacity:1;paint-order:markers fill stroke"
         id="rect1390"
         width="118.24004"
         height="139.19397"
         x="-690.24603"
         y="494.38312"
         ry="15.040849"
         transform="rotate(45.14541)"
         rx="0" />
    </clipPath>
    <clipPath
       id="clipPath1396"
       clipPathUnits="userSpaceOnUse">
      <rect
         style="opacity:1;fill:#ff0000;fill-opacity:1;stroke:none;stroke-width:13.22916603;stroke-linecap:round;stroke-miterlimit:4;stroke-dasharray:none;stroke-dashoffset:0;stroke-opacity:1;paint-order:markers fill stroke"
         id="rect1394"
         width="118.24004"
         height="139.19397"
         x="-690.24603"
         y="494.38312"
         ry="15.040849"
         transform="rotate(45.14541)"
         rx="0" />
    </clipPath>
    <clipPath
       id="clipPath1400"
       clipPathUnits="userSpaceOnUse">
      <rect
         style="opacity:1;fill:#ff0000;fill-opacity:1;stroke:none;stroke-width:13.22916603;stroke-linecap:round;stroke-miterlimit:4;stroke-dasharray:none;stroke-dashoffset:0;stroke-opacity:1;paint-order:markers fill stroke"
         id="rect1398"
         width="118.24004"
         height="139.19397"
         x="-690.24603"
         y="494.38312"
         ry="15.040849"
         transform="rotate(45.14541)"
         rx="0" />
    </clipPath>
    <clipPath
       id="clipPath1014-5"
       clipPathUnits="userSpaceOnUse">
      <rect
         ry="15.035927"
         y="-233.01669"
         x="-995.23877"
         height="580.72321"
         width="300.83859"
         id="rect1016-5"
         style="opacity:1;fill:#ff0000;fill-opacity:1;stroke:none;stroke-width:13.22916603;stroke-linecap:round;stroke-miterlimit:4;stroke-dasharray:none;stroke-dashoffset:0;stroke-opacity:1;paint-order:markers fill stroke" />
    </clipPath>
    <clipPath
       id="clipPath1010-7"
       clipPathUnits="userSpaceOnUse">
      <rect
         ry="15.035927"
         y="-233.01669"
         x="-995.23877"
         height="580.72321"
         width="300.83859"
         id="rect1012-2"
         style="opacity:1;fill:#ff0000;fill-opacity:1;stroke:none;stroke-width:13.22916603;stroke-linecap:round;stroke-miterlimit:4;stroke-dasharray:none;stroke-dashoffset:0;stroke-opacity:1;paint-order:markers fill stroke" />
    </clipPath>
    <clipPath
       id="clipPath1006-2"
       clipPathUnits="userSpaceOnUse">
      <rect
         ry="15.035927"
         y="-233.01669"
         x="-995.23877"
         height="580.72321"
         width="300.83859"
         id="rect1008-9"
         style="opacity:1;fill:#ff0000;fill-opacity:1;stroke:none;stroke-width:13.22916603;stroke-linecap:round;stroke-miterlimit:4;stroke-dasharray:none;stroke-dashoffset:0;stroke-opacity:1;paint-order:markers fill stroke" />
    </clipPath>
    <clipPath
       id="clipPath1002-0"
       clipPathUnits="userSpaceOnUse">
      <rect
         ry="15.035927"
         y="-233.01669"
         x="-995.23877"
         height="580.72321"
         width="300.83859"
         id="rect1004-9"
         style="opacity:1;fill:#ff0000;fill-opacity:1;stroke:none;stroke-width:13.22916603;stroke-linecap:round;stroke-miterlimit:4;stroke-dasharray:none;stroke-dashoffset:0;stroke-opacity:1;paint-order:markers fill stroke" />
    </clipPath>
  </defs>
  <sodipodi:namedview
     id="base"
     pagecolor="#6adcff"
     bordercolor="#666666"
     borderopacity="1.0"
     inkscape:pageopacity="0"
     inkscape:pageshadow="2"
     inkscape:zoom="0.175"
     inkscape:cx="519.11819"
     inkscape:cy="43.718194"
     inkscape:document-units="mm"
     inkscape:current-layer="layer1"
     showgrid="false"
     showborder="false"
     fit-margin-top="0"
     fit-margin-left="0"
     fit-margin-right="0"
     fit-margin-bottom="0"
     inkscape:window-width="958"
     inkscape:window-height="1003"
     inkscape:window-x="952"
     inkscape:window-y="0"
     inkscape:window-maximized="0" />
  <metadata
     id="metadata408">
    <rdf:RDF>
      <cc:Work
         rdf:about="">
        <dc:format>image/svg+xml</dc:format>
        <dc:type
           rdf:resource="http://purl.org/dc/dcmitype/StillImage" />
        <dc:title></dc:title>
      </cc:Work>
    </rdf:RDF>
  </metadata>
  <g
     inkscape:label="Layer 1"
     inkscape:groupmode="layer"
     id="layer1"
     transform="translate(31.850481,-201.59895)">
    <g
       transform="matrix(0.35277777,0,0,-0.35277777,118.91104,-299.33729)"
       id="g672">
      <g
         transform="matrix(1.6321105,0,0,1.6321105,-559.2993,1114.849)"
         id="g1562">
        <g
           aria-label="TYNKI"
           transform="scale(1,-1)"
           style="font-style:normal;font-weight:normal;font-size:61.34245682px;line-height:1.25;font-family:sans-serif;letter-spacing:0px;word-spacing:0px;fill:#ffffff;fill-opacity:1;stroke:none;stroke-width:1.53356147"
           id="text5181-8">
          <path
             inkscape:connector-curvature="0"
             d="m 569.02273,1584.1042 h -15.93466 v 39.3274 h -5.93057 v -39.3274 h -15.93466 v -5.2716 h 37.79989 z"
             style="fill:#ffffff;stroke-width:1.53356147"
             id="path1079" />
          <path
             inkscape:connector-curvature="0"
             d="m 606.64291,1578.8326 -15.69504,25.0401 v 19.5589 h -5.93057 v -18.9299 l -15.75495,-25.6691 h 6.55957 l 12.19062,19.9482 12.31042,-19.9482 z"
             style="fill:#ffffff;stroke-width:1.53356147"
             id="path1081" />
          <path
             inkscape:connector-curvature="0"
             d="m 646.83899,1623.4316 h -7.33833 l -21.14637,-39.8965 v 39.8965 h -5.54119 v -44.599 h 9.19538 l 19.28932,36.422 v -36.422 h 5.54119 z"
             style="fill:#ffffff;stroke-width:1.53356147"
             id="path1083" />
          <path
             inkscape:connector-curvature="0"
             d="m 694.55312,1623.4316 h -7.69776 l -17.64195,-19.8584 -4.43295,4.7325 v 15.1259 h -5.93057 v -44.599 h 5.93057 v 23.273 l 21.65557,-23.273 h 7.18857 l -19.91833,20.9666 z"
             style="fill:#ffffff;stroke-width:1.53356147"
             id="path1085" />
          <path
             inkscape:connector-curvature="0"
             d="m 716.95749,1623.4316 h -17.612 v -4.5527 h 5.84072 v -35.4936 h -5.84072 v -4.5527 h 17.612 v 4.5527 h -5.84071 v 35.4936 h 5.84071 z"
             style="fill:#ffffff;stroke-width:1.53356147"
             id="path1087" />
        </g>
        <g
           aria-label="DEKORACYJNE"
           transform="scale(1,-1)"
           style="font-style:normal;font-weight:normal;font-size:54.90969086px;line-height:1.25;font-family:sans-serif;letter-spacing:0px;word-spacing:0px;fill:#ffffff;fill-opacity:1;stroke:none;stroke-width:1.3727423"
           id="text5185-7">
          <path
             inkscape:connector-curvature="0"
             d="m 458.75785,1695.5411 q 0,5.4427 -2.38621,9.8665 -2.3594,4.4239 -6.30067,6.8638 -2.73476,1.6891 -6.113,2.4398 -3.35142,0.7507 -8.84775,0.7507 h -10.08108 v -39.9221 h 9.97384 q 5.84487,0 9.27673,0.8579 3.45867,0.8312 5.84488,2.3058 4.07533,2.5471 6.35429,6.7833 2.27897,4.2362 2.27897,10.0543 z m -5.54995,-0.08 q 0,-4.692 -1.6355,-7.9093 -1.63549,-3.2174 -4.87967,-5.0674 -2.3594,-1.3405 -5.01372,-1.85 -2.65433,-0.5362 -6.3543,-0.5362 h -4.98691 v 30.8063 h 4.98691 q 3.83403,0 6.67603,-0.5631 2.86882,-0.563 5.25503,-2.0912 2.97606,-1.9037 4.45069,-5.0138 1.50144,-3.1101 1.50144,-7.7753 z"
             style="fill:#ffffff;stroke-width:1.3727423"
             id="path1090" />
          <path
             inkscape:connector-curvature="0"
             d="m 493.69307,1715.4619 h -26.30196 v -39.9221 h 26.30196 v 4.7188 h -20.9933 v 10.939 h 20.9933 v 4.7188 h -20.9933 v 14.8267 h 20.9933 z"
             style="fill:#ffffff;stroke-width:1.3727423"
             id="path1092" />
          <path
             inkscape:connector-curvature="0"
             d="m 534.23187,1715.4619 h -6.89052 l -15.7919,-17.7759 -3.96808,4.2362 v 13.5397 h -5.30866 v -39.9221 h 5.30866 v 20.8324 l 19.38462,-20.8324 h 6.43473 l -17.82957,18.7679 z"
             style="fill:#ffffff;stroke-width:1.3727423"
             id="path1094" />
          <path
             inkscape:connector-curvature="0"
             d="m 569.4352,1680.1245 q 2.43983,2.6812 3.72678,6.5688 1.31376,3.8877 1.31376,8.821 0,4.9332 -1.34057,8.8477 -1.31376,3.8877 -3.69997,6.4884 -2.46665,2.7079 -5.84488,4.0753 -3.35142,1.3674 -7.66805,1.3674 -4.20939,0 -7.66805,-1.3942 -3.43186,-1.3942 -5.84488,-4.0485 -2.41303,-2.6544 -3.72678,-6.5152 -1.28695,-3.8608 -1.28695,-8.8209 0,-4.8797 1.28695,-8.7406 1.28694,-3.8876 3.75359,-6.6492 2.3594,-2.6275 5.84488,-4.0217 3.51229,-1.3942 7.64124,-1.3942 4.28982,0 7.69486,1.421 3.43186,1.3942 5.81807,3.9949 z m -0.48261,15.3898 q 0,-7.7753 -3.48547,-11.9847 -3.48548,-4.2362 -9.51804,-4.2362 -6.08618,0 -9.57166,4.2362 -3.45867,4.2094 -3.45867,11.9847 0,7.8557 3.5391,12.0383 3.5391,4.1557 9.49123,4.1557 5.95212,0 9.46441,-4.1557 3.5391,-4.1826 3.5391,-12.0383 z"
             style="fill:#ffffff;stroke-width:1.3727423"
             id="path1096" />
          <path
             inkscape:connector-curvature="0"
             d="m 615.92611,1715.4619 h -6.89052 l -13.35206,-15.8723 h -7.48038 v 15.8723 h -5.30865 v -39.9221 h 11.18034 q 3.61954,0 6.03256,0.4826 2.41303,0.4558 4.34344,1.6623 2.17173,1.3674 3.37824,3.4587 1.23332,2.0644 1.23332,5.255 0,4.3166 -2.17172,7.2391 -2.17172,2.8956 -5.97894,4.3702 z m -12.41366,-28.6882 q 0,-1.7159 -0.61667,-3.0296 -0.58985,-1.3406 -1.98404,-2.2522 -1.15289,-0.7775 -2.73476,-1.0724 -1.58187,-0.3218 -3.72678,-0.3218 h -6.24705 v 15.068 h 5.36228 q 2.52027,0 4.39706,-0.429 1.8768,-0.4558 3.19056,-1.6623 1.20651,-1.1261 1.76955,-2.5739 0.58985,-1.4746 0.58985,-3.7268 z"
             style="fill:#ffffff;stroke-width:1.3727423"
             id="path1098" />
          <path
             inkscape:connector-curvature="0"
             d="m 652.55045,1715.4619 h -5.6572 l -3.91446,-11.1267 h -17.26652 l -3.91446,11.1267 h -5.38909 l 14.53176,-39.9221 h 7.07821 z m -11.20715,-15.6846 -6.99777,-19.5992 -7.02458,19.5992 z"
             style="fill:#ffffff;stroke-width:1.3727423"
             id="path1100" />
          <path
             inkscape:connector-curvature="0"
             d="m 689.44291,1712.5663 q -1.47462,0.6435 -2.68114,1.2065 -1.1797,0.563 -3.11012,1.1797 -1.63549,0.5094 -3.56591,0.858 -1.9036,0.3753 -4.20938,0.3753 -4.34345,0 -7.90936,-1.2065 -3.5391,-1.2333 -6.16661,-3.834 -2.5739,-2.5471 -4.02171,-6.4616 -1.44781,-3.9412 -1.44781,-9.1426 0,-4.9333 1.39419,-8.821 1.39419,-3.8876 4.0217,-6.5688 2.54708,-2.6007 6.13981,-3.968 3.61953,-1.3674 8.0166,-1.3674 3.21736,0 6.40792,0.7775 3.21736,0.7775 7.13182,2.7348 v 6.3006 h -0.40217 q -3.2978,-2.7615 -6.54197,-4.0217 -3.24418,-1.2601 -6.94415,-1.2601 -3.02968,0 -5.46952,0.992 -2.41302,0.9652 -4.31663,3.0297 -1.84999,2.0109 -2.89563,5.0942 -1.01883,3.0565 -1.01883,7.0782 0,4.2093 1.12608,7.239 1.15289,3.0297 2.94925,4.9333 1.87679,1.9841 4.37025,2.9493 2.52027,0.9384 5.30865,0.9384 3.83403,0 7.18545,-1.3138 3.35142,-1.3137 6.27386,-3.9413 h 0.37536 z"
             style="fill:#ffffff;stroke-width:1.3727423"
             id="path1102" />
          <path
             inkscape:connector-curvature="0"
             d="m 725.26291,1675.5398 -14.04916,22.4143 v 17.5078 h -5.30865 v -16.9448 l -14.10278,-22.9773 h 5.87169 l 10.91223,17.8564 11.01947,-17.8564 z"
             style="fill:#ffffff;stroke-width:1.3727423"
             id="path1104" />
          <path
             inkscape:connector-curvature="0"
             d="m 745.42505,1705.0859 q 0,5.255 -3.21736,8.097 -3.19056,2.8421 -8.57964,2.8421 -1.28695,0 -3.43186,-0.2413 -2.14491,-0.2145 -3.59272,-0.5363 v -4.9601 h 0.29492 q 1.09927,0.3754 2.70795,0.7775 1.60868,0.4022 3.2978,0.4022 2.46665,0 3.91446,-0.563 1.47463,-0.5631 2.17172,-1.6087 0.72391,-1.0725 0.91159,-2.6275 0.21449,-1.5551 0.21449,-3.5927 v -23.2991 h -8.44558 v -4.2362 h 13.75423 z"
             style="fill:#ffffff;stroke-width:1.3727423"
             id="path1106" />
          <path
             inkscape:connector-curvature="0"
             d="m 786.23195,1715.4619 h -6.56879 l -18.92882,-35.7127 v 35.7127 h -4.96011 v -39.9221 h 8.23109 l 17.26653,32.6026 v -32.6026 h 4.9601 z"
             style="fill:#ffffff;stroke-width:1.3727423"
             id="path1108" />
          <path
             inkscape:connector-curvature="0"
             d="m 823.15123,1715.4619 h -26.30196 v -39.9221 h 26.30196 v 4.7188 h -20.9933 v 10.939 h 20.9933 v 4.7188 h -20.9933 v 14.8267 h 20.9933 z"
             style="fill:#ffffff;stroke-width:1.3727423"
             id="path1110" />
        </g>
      </g>
      <g
         inkscape:label="Layer 1"
         id="layer1-8"
         transform="matrix(0.66586553,0,0,-0.66586553,235.33969,-1529.4718)">
        <g
           id="g999">
          <rect
             ry="3.5111446"
             y="-16.965017"
             x="-590.76581"
             height="295.82214"
             width="7.6836929"
             id="rect825"
             style="opacity:1;fill:#ffffff;fill-opacity:1;stroke:#ffffff;stroke-width:1.3446461;stroke-linecap:round;stroke-miterlimit:4;stroke-dasharray:none;stroke-dashoffset:0;stroke-opacity:1;paint-order:markers fill stroke" />
          <rect
             transform="rotate(90)"
             style="opacity:1;fill:#ffffff;fill-opacity:1;stroke:#ffffff;stroke-width:1.22948468;stroke-linecap:round;stroke-miterlimit:4;stroke-dasharray:none;stroke-dashoffset:0;stroke-opacity:1;paint-order:markers fill stroke"
             id="rect827"
             width="7.0256271"
             height="270.48663"
             x="71.237183"
             y="414.5668"
             ry="3.2104347" />
          <circle
             style="opacity:1;fill:#ffffff;fill-opacity:1;stroke:#ffffff;stroke-width:2.50657892;stroke-linecap:round;stroke-miterlimit:4;stroke-dasharray:none;stroke-dashoffset:0;stroke-opacity:1;paint-order:markers fill stroke"
             id="circle831"
             cx="-557.79163"
             cy="50.963009"
             r="12.027128" />
          <circle
             r="12.027128"
             cy="50.428471"
             cx="-616.0564"
             id="circle837"
             style="opacity:1;fill:#ffffff;fill-opacity:1;stroke:#ffffff;stroke-width:2.50657892;stroke-linecap:round;stroke-miterlimit:4;stroke-dasharray:none;stroke-dashoffset:0;stroke-opacity:1;paint-order:markers fill stroke" />
          <circle
             r="12.027128"
             cy="100.56285"
             cx="-557.79163"
             id="circle839"
             style="opacity:1;fill:#ffffff;fill-opacity:1;stroke:#ffffff;stroke-width:2.50657892;stroke-linecap:round;stroke-miterlimit:4;stroke-dasharray:none;stroke-dashoffset:0;stroke-opacity:1;paint-order:markers fill stroke" />
          <circle
             style="opacity:1;fill:#ffffff;fill-opacity:1;stroke:#ffffff;stroke-width:2.50657892;stroke-linecap:round;stroke-miterlimit:4;stroke-dasharray:none;stroke-dashoffset:0;stroke-opacity:1;paint-order:markers fill stroke"
             id="circle841"
             cx="-616.0564"
             cy="100.02831"
             r="12.027128" />
          <rect
             inkscape:transform-center-y="-28.235802"
             inkscape:transform-center-x="340.24097"
             transform="rotate(45)"
             style="opacity:1;fill:#ffffff;fill-opacity:1;stroke:#ffffff;stroke-width:2.79519796;stroke-linecap:round;stroke-miterlimit:4;stroke-dasharray:none;stroke-dashoffset:0;stroke-opacity:1;paint-order:markers fill stroke"
             id="rect853"
             width="15.972562"
             height="614.94354"
             x="-433.81424"
             y="198.95474"
             ry="7.2988305" />
          <rect
             transform="rotate(180,-691.88266,-93.995599)"
             clip-path="url(#clipPath918-0)"
             style="opacity:1;fill:none;fill-opacity:1;stroke:#ffffff;stroke-width:13.22916698;stroke-linecap:round;stroke-miterlimit:4;stroke-dasharray:none;stroke-dashoffset:0;stroke-opacity:1;paint-order:markers fill stroke"
             id="rect884"
             width="164.25275"
             height="82.126373"
             x="-999.26379"
             y="-117.47245"
             ry="15.040849" />
          <rect
             ry="15.035931"
             y="-152.6317"
             x="-734.81812"
             height="82.099518"
             width="164.97424"
             id="rect916"
             style="opacity:1;fill:none;fill-opacity:1;stroke:#ffffff;stroke-width:13.25602245;stroke-linecap:round;stroke-miterlimit:4;stroke-dasharray:none;stroke-dashoffset:0;stroke-opacity:1;paint-order:markers fill stroke" />
          <rect
             ry="15.040849"
             y="-117.47245"
             x="-999.26379"
             height="82.126373"
             width="164.25275"
             id="rect933-6"
             style="opacity:1;fill:none;fill-opacity:1;stroke:#ffffff;stroke-width:13.22916698;stroke-linecap:round;stroke-miterlimit:4;stroke-dasharray:none;stroke-dashoffset:0;stroke-opacity:1;paint-order:markers fill stroke"
             clip-path="url(#clipPath918-0)"
             transform="rotate(180,-743.51913,-40.114062)" />
          <rect
             transform="rotate(180,-795.90396,11.52241)"
             clip-path="url(#clipPath918-0)"
             style="opacity:1;fill:none;fill-opacity:1;stroke:#ffffff;stroke-width:13.22916698;stroke-linecap:round;stroke-miterlimit:4;stroke-dasharray:none;stroke-dashoffset:0;stroke-opacity:1;paint-order:markers fill stroke"
             id="rect935"
             width="164.25275"
             height="82.126373"
             x="-999.26379"
             y="-117.47245"
             ry="15.040849" />
          <rect
             ry="15.040849"
             y="-117.47245"
             x="-999.26379"
             height="82.126373"
             width="164.25275"
             id="rect937"
             style="opacity:1;fill:none;fill-opacity:1;stroke:#ffffff;stroke-width:13.22916698;stroke-linecap:round;stroke-miterlimit:4;stroke-dasharray:none;stroke-dashoffset:0;stroke-opacity:1;paint-order:markers fill stroke"
             clip-path="url(#clipPath918-0)"
             transform="rotate(180,-855.77233,71.764962)" />
          <rect
             style="opacity:1;fill:none;fill-opacity:1;stroke:#ffffff;stroke-width:13.25602245;stroke-linecap:round;stroke-miterlimit:4;stroke-dasharray:none;stroke-dashoffset:0;stroke-opacity:1;paint-order:markers fill stroke"
             id="rect939"
             width="164.97424"
             height="82.099518"
             x="-849.31635"
             y="-44.868618"
             ry="15.035931" />
          <rect
             clip-path="none"
             ry="15.035931"
             y="58.404324"
             x="-947.35083"
             height="82.099518"
             width="164.97424"
             id="rect941"
             style="opacity:1;fill:none;fill-opacity:1;stroke:#ffffff;stroke-width:13.25602245;stroke-linecap:round;stroke-miterlimit:4;stroke-dasharray:none;stroke-dashoffset:0;stroke-opacity:1;paint-order:markers fill stroke" />
          <rect
             style="opacity:1;fill:none;fill-opacity:1;stroke:#ffffff;stroke-width:13.25602245;stroke-linecap:round;stroke-miterlimit:4;stroke-dasharray:none;stroke-dashoffset:0;stroke-opacity:1;paint-order:markers fill stroke"
             id="rect943"
             width="164.97424"
             height="82.099518"
             x="-926.39691"
             y="-152.6317"
             ry="15.035931" />
          <rect
             clip-path="url(#clipPath1014-5)"
             ry="15.035931"
             y="-44.868618"
             x="-1043.8885"
             height="82.099518"
             width="164.97424"
             id="rect945"
             style="opacity:1;fill:none;fill-opacity:1;stroke:#ffffff;stroke-width:13.25602245;stroke-linecap:round;stroke-miterlimit:4;stroke-dasharray:none;stroke-dashoffset:0;stroke-opacity:1;paint-order:markers fill stroke" />
          <rect
             clip-path="url(#clipPath1010-7)"
             style="opacity:1;fill:none;fill-opacity:1;stroke:#ffffff;stroke-width:13.25602245;stroke-linecap:round;stroke-miterlimit:4;stroke-dasharray:none;stroke-dashoffset:0;stroke-opacity:1;paint-order:markers fill stroke"
             id="rect958"
             width="164.97424"
             height="82.099518"
             x="-1069.0592"
             y="178.88943"
             ry="15.035931" />
          <rect
             clip-path="url(#clipPath1006-2)"
             ry="15.035931"
             y="58.404324"
             x="-1141.0259"
             height="82.099518"
             width="164.97424"
             id="rect960"
             style="opacity:1;fill:none;fill-opacity:1;stroke:#ffffff;stroke-width:13.25602245;stroke-linecap:round;stroke-miterlimit:4;stroke-dasharray:none;stroke-dashoffset:0;stroke-opacity:1;paint-order:markers fill stroke" />
          <rect
             clip-path="url(#clipPath1002-0)"
             style="opacity:1;fill:none;fill-opacity:1;stroke:#ffffff;stroke-width:13.25602245;stroke-linecap:round;stroke-miterlimit:4;stroke-dasharray:none;stroke-dashoffset:0;stroke-opacity:1;paint-order:markers fill stroke"
             id="rect962"
             width="164.97424"
             height="82.099518"
             x="-1125.1509"
             y="-152.6317"
             ry="15.035931" />
          <path
             inkscape:connector-curvature="0"
             d="m -687.84858,161.73709 c 3.07022,-0.45019 6.05824,-1.27395 9.01102,-2.20972 1.6039,-0.51928 3.24871,-0.95802 4.78248,-1.67276 3.38719,-1.57844 10.13592,-5.74139 -6.27547,3.66803 1.59856,-0.83128 2.63078,-2.12973 3.47887,-3.67305 1.25262,-2.17156 1.92604,-4.54621 2.53127,-6.95641 0.4518,-2.62381 1.47312,-5.06911 2.60297,-7.46158 0.83384,-1.93122 1.68027,-3.85665 2.5513,-5.77145 0.11404,-0.29238 0.22807,-0.58475 0.34208,-0.87712 0,0 10.03379,-4.67834 10.03379,-4.67834 v 0 c -0.10665,0.3132 -0.2133,0.62639 -0.31996,0.93959 -0.80891,1.95763 -1.80255,3.83898 -2.55402,5.82245 -1.14993,2.32796 -2.33148,4.67131 -2.72354,7.26977 -0.61466,2.44477 -1.14059,4.91287 -2.36572,7.1479 -0.76846,1.6673 -1.64669,3.27184 -3.26239,4.26348 -5.88603,3.39711 -10.96695,6.98146 -17.46425,8.66272 -3.02958,0.90943 -6.09356,1.64205 -9.19186,2.27339 0,0 8.82343,-6.7469 8.82343,-6.7469 z"
             id="path1022-9"
             style="opacity:1;fill:#ffffff;fill-opacity:1;stroke:none;stroke-width:13.22916603;stroke-linecap:round;stroke-miterlimit:4;stroke-dasharray:none;stroke-dashoffset:0;stroke-opacity:1;paint-order:markers fill stroke" />
          <path
             inkscape:connector-curvature="0"
             d="m -644.48845,241.70716 c 1.85975,-2.86313 3.14946,-6.03061 4.32096,-9.22211 1.4719,-3.99803 2.77056,-8.0581 4.34142,-12.01877 1.16482,-2.80105 2.18074,-5.65188 3.11441,-8.53636 0,0 9.94214,-4.66931 9.94214,-4.66931 v 0 c -0.99634,2.90698 -1.97252,5.81565 -3.18487,8.64423 -1.6152,3.92575 -2.87475,7.98003 -4.33163,11.96581 -1.12903,3.23904 -2.41847,6.3803 -4.01685,9.41905 0,0 -10.18558,4.41746 -10.18558,4.41746 z"
             id="path1028"
             style="opacity:1;fill:#ffffff;fill-opacity:1;stroke:none;stroke-width:13.22916603;stroke-linecap:round;stroke-miterlimit:4;stroke-dasharray:none;stroke-dashoffset:0;stroke-opacity:1;paint-order:markers fill stroke" />
          <path
             inkscape:connector-curvature="0"
             d="m -618.36651,169.91806 c 0.72408,-1.29272 0.37132,-0.62047 1.05264,-2.01972 0,0 10.03721,-4.58041 10.03721,-4.58041 v 0 c -0.62495,1.43936 -0.30927,0.74781 -0.94237,2.07677 0,0 -10.14748,4.52336 -10.14748,4.52336 z"
             id="path1030-8"
             style="opacity:1;fill:#ffffff;fill-opacity:1;stroke:none;stroke-width:13.22916603;stroke-linecap:round;stroke-miterlimit:4;stroke-dasharray:none;stroke-dashoffset:0;stroke-opacity:1;paint-order:markers fill stroke" />
          <path
             inkscape:connector-curvature="0"
             d="m -534.42737,199.05638 c 2.31357,-2.51133 4.42124,-5.19191 6.78087,-7.66552 2.04081,-2.16923 4.40553,-3.98642 6.52066,-6.07751 1.48302,-1.45704 2.81464,-3.05368 4.2391,-4.56529 0,0 10.18331,-4.24268 10.18331,-4.24268 v 0 c -1.4596,1.49333 -2.79133,3.09178 -4.24847,4.58785 -2.09341,2.1593 -4.45328,3.99838 -6.60175,6.09958 -2.37151,2.39972 -4.54578,4.95014 -6.615,7.61427 0,0 -10.25872,4.2493 -10.25872,4.2493 z"
             id="path1032-9"
             style="opacity:1;fill:#ffffff;fill-opacity:1;stroke:none;stroke-width:13.22900009;stroke-linecap:round;stroke-miterlimit:4;stroke-dasharray:none;stroke-dashoffset:0;stroke-opacity:1;paint-order:markers fill stroke" />
          <path
             inkscape:connector-curvature="0"
             d="m -497.05849,121.93611 c 3.70395,-2.09823 7.76287,-3.47946 11.79949,-4.78445 7.14459,-2.14579 14.4753,-3.57624 21.74134,-5.23808 4.91752,-1.05387 9.85787,-1.96677 14.83399,-2.69049 0,0 -8.54691,6.40235 -8.54691,6.40235 v 0 c -4.92895,0.73228 -9.83046,1.61705 -14.6975,2.69206 -7.30546,1.66658 -14.67157,3.14844 -21.8181,5.42941 -4.12699,1.4276 -8.17361,3.02228 -12.05505,5.03344 0,0 8.74274,-6.84424 8.74274,-6.84424 z"
             id="path1034-6"
             style="opacity:1;fill:#ffffff;fill-opacity:1;stroke:none;stroke-width:13.22900009;stroke-linecap:round;stroke-miterlimit:4;stroke-dasharray:none;stroke-dashoffset:0;stroke-opacity:1;paint-order:markers fill stroke" />
          <path
             inkscape:connector-curvature="0"
             d="m -547.92128,168.41857 c 1.72207,-1.39844 3.39463,-2.85945 5.24058,-4.09388 4.89714,-3.17642 9.83855,-6.50961 15.36081,-8.46906 2.47726,-0.70521 5.02896,-1.05569 7.56134,-1.49313 0,0 -8.67749,6.53923 -8.67749,6.53923 v 0 c -2.53778,0.45757 -5.10209,0.86242 -7.53737,1.74289 -1.33345,0.55999 -1.23092,0.48416 -2.4811,1.1332 -0.32549,0.16898 -1.28252,0.71188 -0.96587,0.52686 15.44942,-9.02763 10.22565,-6.12966 7.05311,-4.00445 -1.85545,1.18481 -3.60646,2.48667 -5.24825,3.95861 0,0 -10.30576,4.15973 -10.30576,4.15973 z"
             id="path1036-1"
             style="opacity:1;fill:#ffffff;fill-opacity:1;stroke:none;stroke-width:13.22900009;stroke-linecap:round;stroke-miterlimit:4;stroke-dasharray:none;stroke-dashoffset:0;stroke-opacity:1;paint-order:markers fill stroke" />
          <path
             inkscape:connector-curvature="0"
             d="m -518.56049,251.36948 c 6.10158,1.04166 12.33455,1.07189 18.50718,1.23743 5.7504,0.15777 11.50292,0.17006 17.25493,0.18075 0,0 -8.35832,6.06596 -8.35832,6.06596 v 0 c -5.79083,-0.0504 -11.58166,-0.0886 -17.37262,-0.11632 -6.3927,-0.10405 -12.84364,-0.0656 -19.17446,-1.06115 0,0 9.14329,-6.30667 9.14329,-6.30667 z"
             id="path1038-5"
             style="opacity:1;fill:#ffffff;fill-opacity:1;stroke:none;stroke-width:13.22900009;stroke-linecap:round;stroke-miterlimit:4;stroke-dasharray:none;stroke-dashoffset:0;stroke-opacity:1;paint-order:markers fill stroke" />
          <path
             inkscape:connector-curvature="0"
             d="m -482.06606,217.80998 c 3.31983,-2.53411 6.55904,-5.16059 9.64729,-7.97255 3.86524,-3.80055 7.7163,-7.63538 11.30628,-11.70023 1.77318,-2.10355 0.90045,-1.06576 2.61837,-3.11319 0,0 10.04207,-4.25984 10.04207,-4.25984 v 0 c -1.74966,2.0655 -0.86013,1.01348 -2.6684,3.15626 -3.57571,4.12089 -7.49626,7.92952 -11.31202,11.82451 -2.9659,2.80163 -6.08584,5.42848 -9.32784,7.90531 0,0 -10.30575,4.15973 -10.30575,4.15973 z"
             id="path1040-8"
             style="opacity:1;fill:#ffffff;fill-opacity:1;stroke:none;stroke-width:13.22900009;stroke-linecap:round;stroke-miterlimit:4;stroke-dasharray:none;stroke-dashoffset:0;stroke-opacity:1;paint-order:markers fill stroke" />
          <path
             inkscape:connector-curvature="0"
             d="m -462.55241,144.66712 c 3.98325,-0.80061 8.01481,-1.33695 11.98592,-2.19578 4.4042,-1.03374 8.89135,-1.58436 13.3936,-1.94855 0.51306,-0.0323 1.02611,-0.0647 1.53916,-0.097 0,0 -8.84534,6.50966 -8.84534,6.50966 v 0 c -0.49807,0.0297 -0.99615,0.0594 -1.49423,0.089 -4.44746,0.35104 -8.8646,0.97138 -13.21374,1.98471 -4.08006,0.81822 -8.18891,1.49482 -12.27164,2.29945 0,0 8.90627,-6.64156 8.90627,-6.64156 z"
             id="path1042-0"
             style="opacity:1;fill:#ffffff;fill-opacity:1;stroke:none;stroke-width:13.22900009;stroke-linecap:round;stroke-miterlimit:4;stroke-dasharray:none;stroke-dashoffset:0;stroke-opacity:1;paint-order:markers fill stroke" />
          <path
             inkscape:connector-curvature="0"
             d="m -538.86951,240.94484 c 3.99087,-1.28025 7.83031,-2.99265 11.79644,-4.35869 3.27782,-1.14042 6.59091,-2.18474 9.78242,-3.55296 0,0 -8.58475,6.76275 -8.58475,6.76275 v 0 c -3.21535,1.25879 -6.49483,2.3379 -9.75866,3.46306 -4.02029,1.43868 -7.93792,3.14807 -11.99282,4.4894 0,0 8.75737,-6.80356 8.75737,-6.80356 z"
             id="path1044-9"
             style="opacity:1;fill:#ffffff;fill-opacity:1;stroke:none;stroke-width:13.22900009;stroke-linecap:round;stroke-miterlimit:4;stroke-dasharray:none;stroke-dashoffset:0;stroke-opacity:1;paint-order:markers fill stroke" />
          <path
             inkscape:connector-curvature="0"
             d="m -741.53637,183.41213 c 2.67869,1.4267 5.47412,2.61685 8.22396,3.89582 1.92876,0.89493 3.96467,1.77085 5.57853,3.18189 1.05952,0.74854 1.96879,1.60952 2.75217,2.64438 0.61309,0.44427 1.27341,0.83583 1.94228,1.19766 0,0 -9.32913,6.06126 -9.32913,6.06126 v 0 c -0.76512,-0.46359 -1.56864,-0.90028 -2.18382,-1.5625 -0.75039,-0.95381 -1.63497,-1.72317 -2.59374,-2.46382 -1.58451,-1.28411 -3.51319,-2.1011 -5.3314,-2.9935 -2.74109,-1.28603 -5.48426,-2.57503 -8.26977,-3.76134 0,0 9.21092,-6.19985 9.21092,-6.19985 z"
             id="path1046"
             style="opacity:1;fill:#ffffff;fill-opacity:1;stroke:none;stroke-width:13.22916603;stroke-linecap:round;stroke-miterlimit:4;stroke-dasharray:none;stroke-dashoffset:0;stroke-opacity:1;paint-order:markers fill stroke" />
          <path
             inkscape:connector-curvature="0"
             d="m -712.4012,245.24479 c 2.59173,3.0329 5.97524,5.07707 9.4624,6.91307 5.21409,2.61348 10.91978,3.95768 16.49116,5.56626 3.52497,1.00591 7.12528,1.69996 10.76195,2.13563 0,0 -8.95318,6.32172 -8.95318,6.32172 v 0 c -3.61526,-0.55065 -7.18505,-1.35766 -10.69924,-2.37204 -5.63375,-1.62434 -11.37452,-3.09438 -16.64063,-5.73238 -3.60833,-1.91122 -7.04884,-4.05347 -9.89012,-7.03046 0,0 9.46766,-5.8018 9.46766,-5.8018 z"
             id="path1048"
             style="opacity:1;fill:#ffffff;fill-opacity:1;stroke:none;stroke-width:13.22916603;stroke-linecap:round;stroke-miterlimit:4;stroke-dasharray:none;stroke-dashoffset:0;stroke-opacity:1;paint-order:markers fill stroke" />
          <path
             inkscape:connector-curvature="0"
             d="m -785.99794,253.73379 c 2.03483,-3.28777 4.47252,-6.29441 6.78842,-9.38243 2.30642,-3.33493 4.82888,-6.50022 7.41201,-9.622 1.66587,-1.97053 3.48663,-3.79957 5.22049,-5.70862 0,0 10.2148,-4.26048 10.2148,-4.26048 v 0 c -1.83806,1.84203 -3.55965,3.80979 -5.35565,5.69548 -2.65914,3.07305 -5.21067,6.23909 -7.51366,9.59203 -2.24208,3.02847 -4.64796,5.94301 -6.61895,9.16265 0,0 -10.14746,4.52337 -10.14746,4.52337 z"
             id="path1050"
             style="opacity:1;fill:#ffffff;fill-opacity:1;stroke:none;stroke-width:13.22916603;stroke-linecap:round;stroke-miterlimit:4;stroke-dasharray:none;stroke-dashoffset:0;stroke-opacity:1;paint-order:markers fill stroke" />
          <path
             inkscape:connector-curvature="0"
             d="m -543.59875,-14.425789 c 0.3479,-0.14645 0.70043,-0.282324 1.04367,-0.43935 1.45582,-0.66599 2.82223,-1.484599 2.4338,-1.259794 -2.73339,1.582018 -10.94079,6.3153822 -8.21801,4.71514 9.68002,-5.689192 7.01775,-4.355984 11.61079,-6.604444 -12.01431,6.88918 -11.45699,6.573543 1.66076,-0.966443 0,0 -8.62507,6.960202 -8.62507,6.960202 v 0 c 12.14167,-7.022159 11.60375,-6.698879 -1.64828,0.909919 -0.33999,0.182625 -1.35316,0.74258 -1.01994,0.547875 2.75667,-1.610828 11.06561,-6.376124 8.2909,-4.796572 -4.72458,2.689553 -9.28306,5.5655821 -14.16584,7.9213725 0,0 8.63722,-6.9879055 8.63722,-6.9879055 z"
             id="path1052"
             style="opacity:1;fill:#ffffff;fill-opacity:1;stroke:none;stroke-width:13.22916603;stroke-linecap:round;stroke-miterlimit:4;stroke-dasharray:none;stroke-dashoffset:0;stroke-opacity:1;paint-order:markers fill stroke" />
          <path
             inkscape:connector-curvature="0"
             d="m -528.3663,18.34007 c 4.20648,0.09048 8.41431,0.08102 12.62153,0.09092 5.34313,0.0035 10.68626,0.004 16.02938,-0.003 4.22437,-0.0037 8.44865,-0.02688 12.67299,-0.03999 1.75228,-0.0082 3.50454,-0.02075 5.25679,-0.03134 0,0 -8.94326,6.497653 -8.94326,6.497653 v 0 c -1.72349,-0.01059 -3.44699,-0.02315 -5.17051,-0.03134 -4.18764,-0.01312 -8.37523,-0.03638 -12.56289,-0.04 -5.34038,-0.007 -10.68076,-0.0065 -16.02111,-0.003 -4.29066,0.01003 -8.58186,0.002 -12.87182,0.09092 0,0 8.9889,-6.530818 8.9889,-6.530818 z"
             id="path1054"
             style="opacity:1;fill:#ffffff;fill-opacity:1;stroke:none;stroke-width:13.22916603;stroke-linecap:round;stroke-miterlimit:4;stroke-dasharray:none;stroke-dashoffset:0;stroke-opacity:1;paint-order:markers fill stroke" />
          <path
             inkscape:connector-curvature="0"
             d="m -487.97347,54.628139 c 2.49933,-1.982097 5.163,-3.726733 7.62778,-5.753618 2.52754,-1.924135 5.00658,-3.896789 7.23889,-6.161207 1.33631,-1.457372 2.42078,-3.113153 3.53417,-4.739801 0,0 10.14402,-4.436637 10.14402,-4.436637 v 0 c -1.10495,1.690087 -2.28684,3.331419 -3.51943,4.931712 -2.15143,2.397554 -4.66413,4.42364 -7.26853,6.310426 -0.99184,0.858107 -1.7858,1.576747 -2.83541,2.36111 -1.52863,1.142323 -3.24212,2.039546 -4.59557,3.409326 0,0 -10.32592,4.078689 -10.32592,4.078689 z"
             id="path1056"
             style="opacity:1;fill:#ffffff;fill-opacity:1;stroke:none;stroke-width:13.22916603;stroke-linecap:round;stroke-miterlimit:4;stroke-dasharray:none;stroke-dashoffset:0;stroke-opacity:1;paint-order:markers fill stroke" />
          <path
             inkscape:connector-curvature="0"
             d="m -508.90894,-24.195575 c 2.7273,-4.574912 5.25936,-9.258476 7.54859,-14.066858 2.3265,-4.905004 4.84595,-9.715579 7.30035,-14.557329 0.92927,-1.936396 1.90791,-3.846743 2.91812,-5.74176 0,0 9.96302,-4.461444 9.96302,-4.461444 v 0 c -1.06281,1.880208 -2.09318,3.777385 -3.0049,5.737042 -2.4311,4.885383 -5.08574,9.657329 -7.43167,14.585588 -2.20917,4.770987 -4.69252,9.395912 -7.18352,14.023858 0,0 -10.10999,4.480903 -10.10999,4.480903 z"
             id="path1058"
             style="opacity:1;fill:#ffffff;fill-opacity:1;stroke:none;stroke-width:13.22916603;stroke-linecap:round;stroke-miterlimit:4;stroke-dasharray:none;stroke-dashoffset:0;stroke-opacity:1;paint-order:markers fill stroke" />
          <path
             inkscape:connector-curvature="0"
             d="m -466.84855,-96.623493 c 2.65742,0.632706 5.3794,0.920922 8.09958,1.107985 1.5426,0.07547 0.78872,0.04509 2.26155,0.09288 0,0 -8.9707,6.457495 -8.9707,6.457495 v 0 c -1.46899,-0.08167 -0.71688,-0.03393 -2.25618,-0.145 -2.76929,-0.250886 -5.52452,-0.629544 -8.24947,-1.190591 0,0 9.11522,-6.322771 9.11522,-6.322771 z"
             id="path1060"
             style="opacity:1;fill:#ffffff;fill-opacity:1;stroke:none;stroke-width:13.22916603;stroke-linecap:round;stroke-miterlimit:4;stroke-dasharray:none;stroke-dashoffset:0;stroke-opacity:1;paint-order:markers fill stroke" />
          <path
             inkscape:connector-curvature="0"
             d="m -430.17916,-125.80933 c 4.2998,0.83344 8.70146,0.9844 13.06796,1.14734 3.63696,-0.0513 7.22167,0.42905 10.78979,1.06295 0,0 -9.04031,6.31985 -9.04031,6.31985 v 0 c -3.47747,-0.66376 -6.98659,-1.04382 -10.53299,-1.05613 -4.47669,-0.2007 -8.97607,-0.39167 -13.39966,-1.15123 0,0 9.11521,-6.32278 9.11521,-6.32278 z"
             id="path1062"
             style="opacity:1;fill:#ffffff;fill-opacity:1;stroke:none;stroke-width:13.22916603;stroke-linecap:round;stroke-miterlimit:4;stroke-dasharray:none;stroke-dashoffset:0;stroke-opacity:1;paint-order:markers fill stroke" />
          <path
             inkscape:connector-curvature="0"
             d="m -428.2332,-73.864501 c 0.52287,2.506477 1.58239,4.686252 3.34412,6.536822 1.49037,1.558134 3.5043,2.330233 5.4364,3.183713 0.27357,0.154779 0.54715,0.309555 0.82073,0.464333 0,0 -9.28095,6.054495 -9.28095,6.054495 v 0 c -0.25325,-0.135009 -0.50651,-0.270018 -0.75975,-0.405027 -2.03911,-0.958839 -4.11829,-1.836465 -5.63861,-3.577706 -1.81256,-2.033688 -2.99061,-4.336161 -3.69218,-6.973078 0,0 9.77024,-5.283552 9.77024,-5.283552 z"
             id="path1064-3"
             style="opacity:1;fill:#ffffff;fill-opacity:1;stroke:none;stroke-width:13.22916603;stroke-linecap:round;stroke-miterlimit:4;stroke-dasharray:none;stroke-dashoffset:0;stroke-opacity:1;paint-order:markers fill stroke" />
          <path
             inkscape:connector-curvature="0"
             d="m -425.84063,-14.393733 c 1.23831,1.381852 2.75641,2.466287 4.09914,3.741701 0,0 -9.40416,5.7988424 -9.40416,5.7988424 v 0 c -1.38264,-1.3022289 -2.92137,-2.4311038 -4.22315,-3.8198461 0,0 9.52817,-5.7206973 9.52817,-5.7206973 z"
             id="path1066-9"
             style="opacity:1;fill:#ffffff;fill-opacity:1;stroke:none;stroke-width:13.22916603;stroke-linecap:round;stroke-miterlimit:4;stroke-dasharray:none;stroke-dashoffset:0;stroke-opacity:1;paint-order:markers fill stroke" />
          <path
             inkscape:connector-curvature="0"
             d="m -439.9304,-36.857029 c -2.07172,2.065753 -4.21606,4.058359 -6.39757,6.007274 -1.95144,1.673532 -3.91727,3.312935 -6.01142,4.805631 -4.90188,3.415153 -10.15388,6.301037 -15.38343,9.177243 -1.18282,0.549013 -0.58965,0.303918 -1.77771,0.739718 0,0 8.70247,-6.855761 8.70247,-6.855761 v 0 c 1.11686,-0.510091 0.5552,-0.235606 1.68333,-0.826806 3.21101,-1.77603 6.63421,-3.678181 -7.60645,4.456768 -0.32597,0.186208 0.61438,-0.43242 0.93429,-0.628831 2.21195,-1.35798 -0.0519,0.177622 2.16144,-1.312913 0.3457,-0.23282 0.68421,-0.476192 1.02632,-0.714288 2.13952,-1.437735 4.13699,-3.033696 6.08502,-4.716899 2.23295,-1.80994 4.28405,-3.859112 6.32499,-5.881838 0,0 10.25872,-4.249298 10.25872,-4.249298 z"
             id="path1068-6"
             style="opacity:1;fill:#ffffff;fill-opacity:1;stroke:none;stroke-width:13.22916603;stroke-linecap:round;stroke-miterlimit:4;stroke-dasharray:none;stroke-dashoffset:0;stroke-opacity:1;paint-order:markers fill stroke" />
          <path
             inkscape:connector-curvature="0"
             d="m -436.91537,47.647978 c -1.13072,-2.599822 -2.00663,-5.29646 -3.04101,-7.932893 -0.87726,-2.611184 -2.09966,-5.083191 -3.10849,-7.641884 -0.32845,-0.988996 -0.68532,-1.967865 -1.02388,-2.953387 0,0 9.69822,-5.342552 9.69822,-5.342552 v 0 c 0.31843,0.978756 0.67252,1.944967 0.96218,2.932973 0.9592,2.578272 2.22007,5.033671 3.06629,7.656502 1.02359,2.621542 1.86369,5.320265 3.13907,7.837717 0,0 -9.69238,5.443524 -9.69238,5.443524 z"
             id="path1070-6"
             style="opacity:1;fill:#ffffff;fill-opacity:1;stroke:none;stroke-width:13.22916603;stroke-linecap:round;stroke-miterlimit:4;stroke-dasharray:none;stroke-dashoffset:0;stroke-opacity:1;paint-order:markers fill stroke" />
          <path
             inkscape:connector-curvature="0"
             d="m -678.7856,204.68038 c 2.96358,0.216 5.86764,-0.0828 8.78285,-0.58125 2.85919,-0.53099 5.47915,-1.73489 7.99242,-3.1481 -2.70901,1.54404 -5.41803,3.08808 -8.12704,4.63212 0,0 10.23884,-3.97705 10.23884,-3.97705 v 0 c -3.55991,2.08143 -7.1198,4.16286 -10.67969,6.24429 -2.58249,1.34553 -5.30487,2.39111 -8.19835,2.83811 -2.98937,0.44405 -5.97633,0.57329 -8.99793,0.5227 0,0 8.9889,-6.53082 8.9889,-6.53082 z"
             id="path1072-8"
             style="opacity:1;fill:#ffffff;fill-opacity:1;stroke:none;stroke-width:13.22916603;stroke-linecap:round;stroke-miterlimit:4;stroke-dasharray:none;stroke-dashoffset:0;stroke-opacity:1;paint-order:markers fill stroke" />
          <path
             inkscape:connector-curvature="0"
             d="m -648.8463,181.59157 c 3.95867,-1.88884 17.49626,-9.65972 1.15618,-0.33541 2.82363,-1.6417 5.31339,-3.71852 7.67331,-5.9569 1.99454,-1.9604 3.11055,-4.48972 4.08411,-7.06065 0,0 9.89915,-4.61623 9.89915,-4.61623 v 0 c -0.93155,2.66604 -1.92247,5.33629 -3.82236,7.48855 -2.35672,2.31929 -4.81711,4.51327 -7.66588,6.22332 -6.59058,3.81974 -13.14937,7.753 -19.96554,11.16932 0,0 8.64103,-6.912 8.64103,-6.912 z"
             id="path1074-8"
             style="opacity:1;fill:#ffffff;fill-opacity:1;stroke:none;stroke-width:13.22916603;stroke-linecap:round;stroke-miterlimit:4;stroke-dasharray:none;stroke-dashoffset:0;stroke-opacity:1;paint-order:markers fill stroke" />
        </g>
      </g>
    </g>
  </g>
</svg>
