<?xml version="1.0" encoding="UTF-8" standalone="no"?>
<!-- Created with Inkscape (http://www.inkscape.org/) -->

<svg
   xmlns:dc="http://purl.org/dc/elements/1.1/"
   xmlns:cc="http://creativecommons.org/ns#"
   xmlns:rdf="http://www.w3.org/1999/02/22-rdf-syntax-ns#"
   xmlns:svg="http://www.w3.org/2000/svg"
   xmlns="http://www.w3.org/2000/svg"
   xmlns:sodipodi="http://sodipodi.sourceforge.net/DTD/sodipodi-0.dtd"
   xmlns:inkscape="http://www.inkscape.org/namespaces/inkscape"
   width="333.50827mm"
   height="72.474129mm"
   viewBox="0 0 333.50827 72.474129"
   version="1.1"
   id="svg49"
   inkscape:version="0.92.4 (5da689c313, 2019-01-14)"
   sodipodi:docname="nip.svg">
  <defs
     id="defs43" />
  <sodipodi:namedview
     id="base"
     pagecolor="#ffffff"
     bordercolor="#666666"
     borderopacity="1.0"
     inkscape:pageopacity="0.0"
     inkscape:pageshadow="2"
     inkscape:zoom="0.35"
     inkscape:cx="226.53462"
     inkscape:cy="242.14688"
     inkscape:document-units="mm"
     inkscape:current-layer="layer1"
     showgrid="false"
     fit-margin-top="0"
     fit-margin-left="0"
     fit-margin-right="0"
     fit-margin-bottom="0"
     inkscape:window-width="1920"
     inkscape:window-height="1013"
     inkscape:window-x="-9"
     inkscape:window-y="-9"
     inkscape:window-maximized="1" />
  <metadata
     id="metadata46">
    <rdf:RDF>
      <cc:Work
         rdf:about="">
        <dc:format>image/svg+xml</dc:format>
        <dc:type
           rdf:resource="http://purl.org/dc/dcmitype/StillImage" />
        <dc:title></dc:title>
      </cc:Work>
    </rdf:RDF>
  </metadata>
  <g
     inkscape:label="Layer 1"
     inkscape:groupmode="layer"
     id="layer1"
     transform="translate(91.687284,-140.42723)">
    <g
       aria-label="Nip 7792355201"
       style="font-style:normal;font-variant:normal;font-weight:normal;font-stretch:normal;font-size:59.22866058px;line-height:1.25;font-family:Pacifico;-inkscape-font-specification:'Pacifico, Normal';font-variant-ligatures:normal;font-variant-caps:normal;font-variant-numeric:normal;font-feature-settings:normal;text-align:start;letter-spacing:0px;word-spacing:0px;writing-mode:lr-tb;text-anchor:start;fill:#000000;fill-opacity:1;stroke:none;stroke-width:1.48071647"
       id="text53">
      <path
         d="m -77.227161,168.39311 q 1.995496,-5.89973 3.933153,-10.26669 1.937656,-4.39588 3.788552,-7.49034 1.879816,-3.12339 3.61503,-5.08997 1.764135,-1.99549 3.412589,-3.12338 1.677374,-1.12789 3.210147,-1.5617 1.561694,-0.4338 3.007706,-0.4338 1.677374,0 2.863104,0.80977 1.18573,0.80976 1.937656,2.08226 0.780847,1.27249 1.12789,2.80526 0.347043,1.53277 0.347043,3.0077 0,1.73522 -0.289203,3.87532 -0.260282,2.11117 -0.665165,4.48263 -0.404884,2.37146 -0.896528,4.91645 -0.491644,2.51606 -0.896527,5.03212 -0.404884,2.48714 -0.694086,4.91644 -0.260282,2.40038 -0.260282,4.54048 0,0.69408 0.02892,1.56169 0.05784,0.83869 0.202442,1.73522 0.144601,0.8676 0.404883,1.70629 0.289202,0.83869 0.751926,1.50385 0.491644,0.66517 1.18573,1.07005 0.723006,0.40489 1.706295,0.40489 1.388171,0 2.920944,-0.69409 1.561694,-0.69409 3.036626,-1.73521 1.503853,-1.07005 2.834184,-2.2847 1.359252,-1.24357 2.37146,-2.2847 1.041129,-1.07005 1.619534,-1.76414 0.607325,-0.723 0.607325,-0.75192 l 1.735215,6.27569 q -0.925448,1.24357 -2.111178,2.48714 -1.18573,1.21465 -2.544982,2.31362 -1.359251,1.09897 -2.892024,2.05334 -1.503853,0.92544 -3.094466,1.61953 -1.590614,0.69409 -3.210148,1.07005 -1.590613,0.40488 -3.152306,0.40488 -2.024417,0 -3.55719,-0.69408 -1.532773,-0.69409 -2.660663,-1.87982 -1.098969,-1.18573 -1.850895,-2.74742 -0.751927,-1.59062 -1.214651,-3.35475 -0.433803,-1.76414 -0.636245,-3.58611 -0.173521,-1.82198 -0.173521,-3.52827 0,-2.25578 0.347042,-4.4248 0.375964,-2.16902 0.896528,-4.25127 0.520564,-2.11118 1.15681,-4.10668 0.636245,-1.9955 1.15681,-3.87531 0.520564,-1.90874 0.867607,-3.67287 0.375963,-1.79306 0.375963,-3.44151 0,-0.43381 -0.05784,-1.15681 -0.05784,-0.72301 -0.260283,-1.38817 -0.173521,-0.66517 -0.578404,-1.15681 -0.404884,-0.49165 -1.09897,-0.49165 -1.15681,0 -2.40038,1.09897 -1.21465,1.07005 -2.516061,2.97879 -1.272491,1.90873 -2.573902,4.54048 -1.301411,2.60282 -2.602822,5.63944 -1.272491,3.00771 -2.544982,6.36246 -1.24357,3.32583 -2.4293,6.70949 -1.15681,3.35475 -2.255779,6.62274 -1.098969,3.26799 -2.053338,6.16001 -0.809766,1.5617 -1.879815,2.22686 -1.041129,0.63625 -2.34254,0.63625 -0.751927,0 -1.474933,-0.31813 -0.694086,-0.31812 -1.24357,-0.92544 -0.549485,-0.63625 -0.867608,-1.53278 -0.318122,-0.92544 -0.318122,-2.08225 0,-1.21465 0.115681,-2.19794 0.115681,-0.98329 0.347043,-1.9955 0.723006,-3.29691 1.330331,-6.10217 0.636245,-2.80527 1.15681,-5.35025 0.520564,-2.54498 0.925448,-4.91644 0.433803,-2.40038 0.780846,-4.80076 0.347043,-2.4293 0.607325,-4.97428 0.260282,-2.54498 0.462724,-5.43701 0,-0.26028 0,-0.66516 0,-0.40489 -0.08676,-0.75193 -0.08676,-0.37596 -0.318122,-0.63624 -0.202442,-0.26029 -0.636246,-0.26029 -0.578405,0 -1.417092,0.54949 -0.809766,0.54948 -1.706294,1.53277 -0.867607,0.95437 -1.793055,2.25578 -0.896528,1.30141 -1.648454,2.80526 -0.173522,0.43381 -0.549485,0.63625 -0.375963,0.17352 -0.838687,0.17352 -0.375963,0 -0.780846,-0.23136 -0.404884,-0.26028 -0.751927,-0.60733 -0.347043,-0.34704 -0.578405,-0.723 -0.231362,-0.40489 -0.231362,-0.72301 0,-0.17352 0.115681,-0.2892 0.954368,-3.26799 2.169019,-5.52377 1.24357,-2.2847 2.602822,-3.67287 1.388171,-1.41709 2.805263,-2.05334 1.417092,-0.63624 2.776344,-0.63624 2.053337,0 3.441509,0.63624 1.417092,0.60733 2.284699,1.73522 0.867608,1.09897 1.243571,2.66066 0.375963,1.56169 0.375963,3.47043 0,1.90874 -0.318123,4.10667 -0.318122,2.19794 -0.867607,4.5694 -0.549485,2.34254 -1.243571,4.80076 -0.694085,2.45822 -1.417092,4.88753 z"
         style="font-style:normal;font-variant:normal;font-weight:normal;font-stretch:normal;font-size:59.22866058px;font-family:Pacifico;-inkscape-font-specification:'Pacifico, Normal';font-variant-ligatures:normal;font-variant-caps:normal;font-variant-numeric:normal;font-feature-settings:normal;text-align:start;writing-mode:lr-tb;text-anchor:start;stroke-width:1.48071647"
         id="path55" />
      <path
         d="m -22.220857,184.2414 q -1.041129,0.95437 -2.602822,2.05334 -1.532773,1.07005 -3.325828,1.9955 -1.793055,0.89652 -3.672871,1.50385 -1.850896,0.60732 -3.52827,0.60732 -1.503853,0 -2.544982,-0.40488 -1.012208,-0.4338 -1.648453,-1.18573 -0.636246,-0.75193 -0.925448,-1.82198 -0.260282,-1.09897 -0.260282,-2.40038 0,-1.82197 0.404883,-4.22235 0.433804,-2.4293 1.041129,-5.0032 0.607325,-2.60283 1.272491,-5.17673 0.694085,-2.5739 1.21465,-4.74292 0.202441,-0.75192 0.809767,-1.27249 0.607325,-0.54948 1.359251,-0.86761 0.780847,-0.34704 1.590614,-0.49164 0.838687,-0.17352 1.503852,-0.17352 1.214651,0 1.648454,0.46272 0.433804,0.43381 0.433804,1.18573 0,0.63625 -0.289203,1.8509 -0.289202,1.18573 -0.723006,2.7185 -0.433803,1.50385 -0.925448,3.26799 -0.491644,1.73521 -0.925447,3.49935 -0.433804,1.73521 -0.723006,3.41259 -0.289203,1.64845 -0.289203,2.97878 0,1.30141 0.289203,2.08226 0.289202,0.75193 1.18573,0.75193 1.041128,0 2.313619,-0.72301 1.272491,-0.72301 2.573902,-1.73521 1.301411,-1.04113 2.544981,-2.1401 1.243571,-1.09897 2.197939,-1.87982 z m -12.927349,-29.73001 q 0,-0.66517 0.289202,-1.50385 0.289203,-0.83869 0.925448,-1.5617 0.665166,-0.75192 1.735215,-1.24357 1.098969,-0.52056 2.718503,-0.52056 1.012208,0 1.908736,0.23136 0.896527,0.23136 1.561693,0.72301 0.665166,0.46272 1.041129,1.24357 0.404883,0.78084 0.404883,1.85089 0,0.98329 -0.318123,1.90874 -0.318122,0.92545 -1.012208,1.64845 -0.694086,0.72301 -1.764135,1.18573 -1.041129,0.43381 -2.516061,0.43381 -2.544982,0 -3.759632,-1.18573 -1.21465,-1.21465 -1.21465,-3.21015 z"
         style="font-style:normal;font-variant:normal;font-weight:normal;font-stretch:normal;font-size:59.22866058px;font-family:Pacifico;-inkscape-font-specification:'Pacifico, Normal';font-variant-ligatures:normal;font-variant-caps:normal;font-variant-numeric:normal;font-feature-settings:normal;text-align:start;writing-mode:lr-tb;text-anchor:start;stroke-width:1.48071647"
         id="path57" />
      <path
         d="m -12.503655,185.25361 q 2.920945,0 5.3213253,-0.57841 2.4003803,-0.5784 4.3380366,-1.56169 1.96657667,-0.98329 3.52826987,-2.2847 1.59061343,-1.33033 2.86310423,-2.83418 l 0.3181227,6.62273 q -0.9254479,1.12789 -2.2557791,2.19794 -1.30141101,1.04113 -2.8631042,1.8509 -1.5616932,0.78084 -3.2969079,1.27249 -1.7062944,0.46272 -3.3836686,0.46272 -0.2024417,0 -0.5205644,-0.0578 -0.2892024,-0.0578 -1.0411288,-0.20244 -0.7519267,-0.1446 -2.1690187,-0.37596 -1.388171,-0.26028 -3.788552,-0.60733 v 0.52057 q 0,5.26348 -0.896527,9.54368 -0.867608,4.30911 -2.34254,7.34574 -1.474932,3.03663 -3.383669,4.68508 -1.908736,1.64845 -3.962073,1.64845 -1.648454,0 -2.747423,-0.80976 -1.09897,-0.80977 -1.735215,-2.19794 -0.665166,-1.35925 -0.925448,-3.21015 -0.289202,-1.82197 -0.289202,-3.87531 0,-1.18573 0.375963,-2.68958 0.375963,-1.47494 1.012209,-3.12339 0.636245,-1.61953 1.446012,-3.32583 0.780846,-1.67737 1.619533,-3.26799 1.966577,-3.70179 4.482638,-7.63494 0.318123,-2.25578 0.636246,-4.62724 0.347043,-2.37146 0.838687,-4.59832 0.520564,-2.22686 1.272491,-4.22236 0.780846,-1.99549 1.966576,-3.47042 1.21465,-1.47494 2.892025,-2.34254 1.677374,-0.86761 4.048834,-0.86761 1.7641347,0 3.2969077,0.49164 1.5327729,0.46273 2.6895827,1.53278 1.1568098,1.07004 1.8219754,2.77634 0.6651656,1.67737 0.6651656,4.13559 0,1.96658 -0.5784049,3.81748 -0.5784049,1.82197 -1.8219754,3.49935 -1.2146502,1.67737 -3.1233864,3.1523 -1.8798157,1.44601 -4.4826377,2.60282 z m -3.64395,-2.92095 q 1.735214,-0.8676 2.978785,-1.93765 1.27249,-1.07005 2.169018,-2.2847 0.925448,-1.21465 1.5038527,-2.51606 0.5784049,-1.30141 0.9254479,-2.66066 0.1446012,-0.63625 0.1735214,-1.47494 0.05784,-0.8676 -0.1735214,-1.61953 -0.2024418,-0.75193 -0.7519264,-1.27249 -0.5205644,-0.54949 -1.4749322,-0.54949 -1.070049,0 -1.879816,0.60733 -0.809767,0.5784 -1.417092,1.59061 -0.578405,1.01221 -0.983288,2.40038 -0.375964,1.38817 -0.636246,2.97879 -0.231362,1.59061 -0.347043,3.32583 -0.08676,1.70629 -0.08676,3.41258 z m -10.064246,20.82258 q 0,0.23136 0.08676,0.75193 0.115681,0.52056 0.347043,1.04113 0.231362,0.52056 0.607325,0.92544 0.375963,0.40489 0.925448,0.40489 0.491644,0 0.809767,-0.54949 0.318123,-0.52056 0.520564,-1.41709 0.202442,-0.89653 0.289203,-2.02442 0.08676,-1.12789 0.144601,-2.31362 0.05784,-1.18573 0.05784,-2.31362 0.02892,-1.12789 0.08676,-2.02441 0.08676,-1.5617 0.115681,-2.66067 0.05784,-1.07004 0.08676,-1.79305 0.02892,-0.80977 0.05784,-1.35925 -0.549484,0.95437 -1.070049,2.19794 -0.520564,1.27249 -0.983288,2.63174 -0.462724,1.35925 -0.838687,2.7185 -0.375963,1.35925 -0.665166,2.51606 -0.260282,1.18573 -0.433803,2.02442 -0.144602,0.86761 -0.144602,1.24357 z"
         style="font-style:normal;font-variant:normal;font-weight:normal;font-stretch:normal;font-size:59.22866058px;font-family:Pacifico;-inkscape-font-specification:'Pacifico, Normal';font-variant-ligatures:normal;font-variant-caps:normal;font-variant-numeric:normal;font-feature-settings:normal;text-align:start;writing-mode:lr-tb;text-anchor:start;stroke-width:1.48071647"
         id="path59" />
      <path
         d="m 20.320823,192.02095 q -0.231362,0 -0.809767,-0.11568 -0.578405,-0.0868 -1.21465,-0.43381 -0.607325,-0.31812 -1.09897,-0.92545 -0.462723,-0.5784 -0.462723,-1.56169 0,-0.11568 0,-0.20244 0,-0.11568 0.02892,-0.26028 0.462724,-2.66067 1.503852,-5.35025 1.07005,-2.7185 2.544982,-5.46592 1.503853,-2.74743 3.383669,-5.58161 1.879815,-2.83419 4.019914,-5.78405 -1.388172,-0.34704 -2.25578,-0.66517 -0.867607,-0.31812 -1.503852,-0.54948 -0.607325,-0.23136 -1.15681,-0.37596 -0.520564,-0.14461 -1.21465,-0.14461 -0.925448,0 -1.532773,0.0289 -0.607325,0.0289 -1.041129,0.20244 -0.404883,0.17352 -0.751926,0.52056 -0.318123,0.34704 -0.723006,0.98329 -0.896528,1.38817 -1.503853,2.05334 -0.607325,0.63624 -1.098969,0.63624 -0.462724,0 -0.665166,-0.40488 -0.173522,-0.4338 -0.173522,-1.12789 0,-0.2892 0.02892,-0.60733 0.02892,-0.34704 0.08676,-0.69408 0.433804,-2.51606 1.243571,-4.07776 0.809767,-1.56169 1.793055,-2.40038 1.012209,-0.8676 2.082258,-1.15681 1.098969,-0.31812 2.024417,-0.31812 1.070049,0 2.111178,0.34704 1.041128,0.31813 2.111177,0.72301 1.09897,0.40488 2.226859,0.75193 1.12789,0.31812 2.34254,0.34704 0.578405,0.0289 1.041129,0.0289 0.491644,0 0.896527,0 1.15681,0 1.821976,-0.0289 0.694086,-0.0578 1.041129,-0.11568 0.375963,-0.0578 0.520564,-0.0868 0.173522,-0.0578 0.260282,-0.0578 1.012209,0 1.446012,0.723 0.462724,0.69409 0.462724,1.90874 0,0.78085 -0.173521,1.67737 -0.02892,0.17353 -0.462724,0.54949 -0.433804,0.34704 -1.012209,0.75192 -0.549484,0.40489 -1.127889,0.80977 -0.578405,0.37596 -0.896528,0.57841 -1.908736,2.60282 -3.210147,5.17672 -1.301411,2.54498 -2.313619,5.26348 -0.983289,2.71851 -1.850896,5.69729 -0.867607,2.94987 -1.879816,6.36246 -0.231362,0.80976 -0.809767,1.27249 -0.578405,0.49164 -1.301411,0.723 -0.694086,0.23137 -1.446012,0.28921 -0.751926,0.0868 -1.330331,0.0868 z"
         style="font-style:normal;font-variant:normal;font-weight:normal;font-stretch:normal;font-size:59.22866058px;font-family:Pacifico;-inkscape-font-specification:'Pacifico, Normal';font-variant-ligatures:normal;font-variant-caps:normal;font-variant-numeric:normal;font-feature-settings:normal;text-align:start;writing-mode:lr-tb;text-anchor:start;stroke-width:1.48071647"
         id="path61" />
      <path
         d="m 37.904334,192.02095 q -0.231362,0 -0.809767,-0.11568 -0.578405,-0.0868 -1.21465,-0.43381 -0.607325,-0.31812 -1.098969,-0.92545 -0.462724,-0.5784 -0.462724,-1.56169 0,-0.11568 0,-0.20244 0,-0.11568 0.02892,-0.26028 0.462724,-2.66067 1.503853,-5.35025 1.070049,-2.7185 2.544981,-5.46592 1.503853,-2.74743 3.383669,-5.58161 1.879816,-2.83419 4.019914,-5.78405 -1.388172,-0.34704 -2.255779,-0.66517 -0.867607,-0.31812 -1.503853,-0.54948 -0.607325,-0.23136 -1.15681,-0.37596 -0.520564,-0.14461 -1.21465,-0.14461 -0.925448,0 -1.532773,0.0289 -0.607325,0.0289 -1.041129,0.20244 -0.404883,0.17352 -0.751926,0.52056 -0.318123,0.34704 -0.723006,0.98329 -0.896528,1.38817 -1.503853,2.05334 -0.607325,0.63624 -1.098969,0.63624 -0.462724,0 -0.665166,-0.40488 -0.173521,-0.4338 -0.173521,-1.12789 0,-0.2892 0.02892,-0.60733 0.02892,-0.34704 0.08676,-0.69408 0.433803,-2.51606 1.24357,-4.07776 0.809767,-1.56169 1.793055,-2.40038 1.012209,-0.8676 2.082258,-1.15681 1.098969,-0.31812 2.024417,-0.31812 1.070049,0 2.111178,0.34704 1.041129,0.31813 2.111178,0.72301 1.098969,0.40488 2.226859,0.75193 1.127889,0.31812 2.342539,0.34704 0.578405,0.0289 1.041129,0.0289 0.491644,0 0.896528,0 1.15681,0 1.821975,-0.0289 0.694086,-0.0578 1.041129,-0.11568 0.375963,-0.0578 0.520564,-0.0868 0.173522,-0.0578 0.260283,-0.0578 1.012208,0 1.446012,0.723 0.462724,0.69409 0.462724,1.90874 0,0.78085 -0.173522,1.67737 -0.02892,0.17353 -0.462724,0.54949 -0.433803,0.34704 -1.012208,0.75192 -0.549485,0.40489 -1.12789,0.80977 -0.578405,0.37596 -0.896527,0.57841 -1.908736,2.60282 -3.210147,5.17672 -1.301411,2.54498 -2.31362,5.26348 -0.983288,2.71851 -1.850896,5.69729 -0.867607,2.94987 -1.879816,6.36246 -0.231361,0.80976 -0.809766,1.27249 -0.578405,0.49164 -1.301411,0.723 -0.694086,0.23137 -1.446013,0.28921 -0.751926,0.0868 -1.330331,0.0868 z"
         style="font-style:normal;font-variant:normal;font-weight:normal;font-stretch:normal;font-size:59.22866058px;font-family:Pacifico;-inkscape-font-specification:'Pacifico, Normal';font-variant-ligatures:normal;font-variant-caps:normal;font-variant-numeric:normal;font-feature-settings:normal;text-align:start;writing-mode:lr-tb;text-anchor:start;stroke-width:1.48071647"
         id="path63" />
      <path
         d="m 61.069453,175.62317 q 0.549484,-0.60733 0.780846,-0.60733 0.231362,0 0.260283,0.17352 0.02892,0.14461 0.02892,0.43381 0,0.92545 -0.433804,1.96657 -0.404883,1.01221 -1.15681,1.87982 -0.723006,0.86761 -1.764135,1.44601 -1.012208,0.54949 -2.226858,0.54949 -1.908737,0 -3.325829,-0.83869 -1.388171,-0.83869 -2.284699,-2.1401 -0.896527,-1.33033 -1.330331,-2.97878 -0.433804,-1.67738 -0.433804,-3.32583 0,-1.50385 0.375963,-3.06555 0.375964,-1.56169 1.09897,-3.03662 0.723006,-1.47494 1.793055,-2.77635 1.070049,-1.30141 2.487141,-2.25578 1.417092,-0.98328 3.152307,-1.53277 1.735214,-0.5784 3.788552,-0.5784 1.764134,0 3.672871,0.66516 1.937656,0.66517 3.528269,2.11118 1.590614,1.41709 2.602822,3.64395 1.041129,2.22686 1.041129,5.37917 0,4.65616 -1.359251,8.41579 -1.330332,3.75963 -3.672871,6.73841 -2.31362,2.94987 -5.437006,5.14781 -3.094466,2.22686 -6.622736,3.78855 -0.578405,0.26028 -1.09897,0.4338 -0.520564,0.17353 -1.012208,0.17353 -1.301411,0 -2.024417,-0.57841 -0.723006,-0.54948 -0.723006,-1.35925 0,-0.66517 0.404883,-1.38817 0.404884,-0.69409 1.330331,-1.30141 2.892025,-1.47494 5.263485,-3.26799 2.40038,-1.82198 4.106675,-4.1356 1.706294,-2.34254 2.631742,-5.23456 0.925448,-2.89202 0.925448,-6.50706 0,-1.41709 -0.202442,-2.7185 -0.173522,-1.30141 -0.636245,-2.2847 -0.462724,-1.01221 -1.243571,-1.59061 -0.751926,-0.60733 -1.908736,-0.60733 -1.18573,0 -2.169018,0.75193 -0.983289,0.72301 -1.706295,1.87982 -0.694086,1.12789 -1.098969,2.54498 -0.375963,1.41709 -0.375963,2.77634 0,1.04113 0.260282,1.8509 0.260282,0.80976 0.694086,1.38817 0.433803,0.54948 0.983288,0.83869 0.549485,0.2892 1.12789,0.2892 0.491644,0 0.983288,-0.2892 0.520564,-0.28921 0.925448,-0.86761 z"
         style="font-style:normal;font-variant:normal;font-weight:normal;font-stretch:normal;font-size:59.22866058px;font-family:Pacifico;-inkscape-font-specification:'Pacifico, Normal';font-variant-ligatures:normal;font-variant-caps:normal;font-variant-numeric:normal;font-feature-settings:normal;text-align:start;writing-mode:lr-tb;text-anchor:start;stroke-width:1.48071647"
         id="path65" />
      <path
         d="m 96.265386,190.37249 q -0.838688,0 -1.706295,-0.23136 -0.838687,-0.26028 -1.706294,-0.66516 -0.838687,-0.43381 -1.706295,-0.95437 -0.838687,-0.54949 -1.677374,-1.15681 -1.677374,1.27249 -3.55719,2.08225 -1.879816,0.78085 -3.990994,0.92545 -1.503852,0 -2.805263,-0.52056 -1.301411,-0.54949 -2.2847,-1.41709 -0.954368,-0.89653 -1.503852,-2.05334 -0.549485,-1.15681 -0.549485,-2.37146 0,-0.95437 0.318123,-1.93766 0.318122,-1.01221 0.983288,-1.82197 0.694086,-0.83869 1.735215,-1.35925 1.070049,-0.52057 2.573901,-0.52057 2.2847,0 4.019914,0.66517 1.764135,0.66516 3.239068,1.59061 0.867607,-1.04113 1.619533,-2.22686 0.780847,-1.21465 1.359252,-2.48714 0.578405,-1.27249 0.896527,-2.54498 0.347043,-1.30141 0.347043,-2.54498 0,-2.11118 -0.404883,-3.44151 -0.404883,-1.35925 -1.070049,-2.11118 -0.636245,-0.75193 -1.417092,-1.01221 -0.780847,-0.2892 -1.532773,-0.2892 -0.925448,0 -1.764135,0.31812 -0.809767,0.31812 -1.474932,0.89653 -0.636246,0.54948 -1.012209,1.33033 -0.375963,0.78085 -0.375963,1.73522 0,0.52056 0.809767,1.07004 0.838687,0.54949 2.660662,1.12789 0.05784,0.17353 0.05784,0.28921 0,0.34704 -0.665166,0.75192 -0.665166,0.37597 -1.677374,0.72301 -0.983288,0.31812 -2.169018,0.54948 -1.18573,0.20245 -2.226859,0.20245 -0.231362,-0.23137 -0.462724,-0.26029 -0.202442,-0.0289 -0.375963,-0.0289 -1.214651,-0.98329 -1.764135,-2.11117 -0.549485,-1.15681 -0.549485,-2.37146 0,-1.61954 0.896528,-3.21015 0.925447,-1.61954 2.487141,-2.89203 1.590613,-1.27249 3.701791,-2.05333 2.140098,-0.78085 4.540478,-0.78085 0.636246,0 1.677375,0.1446 1.070049,0.11568 2.284699,0.52057 1.24357,0.40488 2.487141,1.12788 1.272491,0.69409 2.284699,1.8509 1.041129,1.15681 1.677374,2.83418 0.665166,1.67738 0.665166,3.96208 0,1.27249 -0.433804,3.0077 -0.404883,1.7063 -1.21465,3.64395 -0.780847,1.90874 -1.966577,3.90424 -1.156809,1.99549 -2.631742,3.75963 0.983288,0.49164 2.024417,0.80977 1.070049,0.2892 2.34254,0.2892 0.318123,0 0.694086,-0.43381 0.404883,-0.46272 0.751926,-1.0122 0.347043,-0.54949 0.636246,-0.98329 0.318122,-0.46273 0.462724,-0.46273 0.404884,0 0.636244,0.31813 0.26028,0.31812 0.26028,1.12789 0,1.07005 -0.46272,3.09446 -0.1446,0.57841 -0.404884,1.21465 -0.260282,0.63625 -0.723006,1.18573 -0.462724,0.52057 -1.18573,0.86761 -0.694086,0.34704 -1.677374,0.34704 z m -14.720405,-5.49484 q 1.21465,0 2.920945,-1.21465 -0.694086,-0.43381 -1.330331,-0.69409 -0.607326,-0.26028 -1.09897,-0.26028 -1.301411,0 -1.850895,0.23136 -0.520565,0.23136 -0.520565,0.5784 0,0.26029 0.144601,0.49165 0.173522,0.23136 0.433804,0.4338 0.260282,0.20244 0.607325,0.31813 0.347043,0.11568 0.694086,0.11568 z"
         style="font-style:normal;font-variant:normal;font-weight:normal;font-stretch:normal;font-size:59.22866058px;font-family:Pacifico;-inkscape-font-specification:'Pacifico, Normal';font-variant-ligatures:normal;font-variant-caps:normal;font-variant-numeric:normal;font-feature-settings:normal;text-align:start;writing-mode:lr-tb;text-anchor:start;stroke-width:1.48071647"
         id="path67" />
      <path
         d="m 108.23836,183.20027 q 0,0.98329 0.20244,1.67738 0.20245,0.69408 0.54949,1.12789 0.37596,0.4338 0.83869,0.63624 0.49164,0.20244 1.0122,0.20244 0.75193,0 1.53278,-0.34704 0.78084,-0.37596 1.38817,-1.01221 0.63624,-0.63624 1.04113,-1.50385 0.40488,-0.89653 0.40488,-1.90874 0,-1.64845 -0.40488,-2.74742 -0.40489,-1.12789 -1.24357,-1.82198 -0.80977,-0.723 -2.08226,-1.09897 -1.24357,-0.37596 -2.92095,-0.54948 -0.92544,-0.0578 -1.33033,-0.37596 -0.40488,-0.34705 -0.40488,-0.83869 0,-0.40488 0.0868,-0.86761 0.11568,-0.49164 0.31812,-0.89653 0.23137,-0.4338 0.60733,-0.69408 0.37596,-0.2892 0.89653,-0.2892 1.15681,0 2.08225,-0.43381 0.92545,-0.4338 1.5617,-1.07005 0.66516,-0.66516 0.98329,-1.44601 0.34704,-0.80977 0.34704,-1.56169 0,-0.98329 -0.63625,-1.67738 -0.60732,-0.69408 -1.93765,-0.69408 -1.04113,0 -1.76414,0.49164 -0.69408,0.49165 -0.69408,1.15681 0,0.34705 0.23136,0.72301 0.26028,0.37596 0.83868,0.69408 0.31813,0.17353 0.31813,0.37597 0,0.23136 -0.43381,0.46272 -0.40488,0.20244 -0.95436,0.37596 -0.54949,0.14461 -1.04113,0.26029 -0.49165,0.0868 -0.66517,0.0868 -0.34704,0 -0.69408,-0.1446 -0.31813,-0.17353 -0.60733,-0.54949 -0.2892,-0.37596 -0.46272,-1.01221 -0.17353,-0.63624 -0.17353,-1.59061 0,-1.50385 0.66517,-2.60282 0.66517,-1.09897 1.76414,-1.82198 1.12788,-0.723 2.54498,-1.07005 1.41709,-0.34704 2.92094,-0.34704 1.61954,0 3.18123,0.40488 1.59061,0.37597 2.80526,1.12789 1.24357,0.72301 1.9955,1.82198 0.78085,1.07005 0.78085,2.48714 0,0.80977 -0.20245,1.79305 -0.17352,0.95437 -0.723,1.90874 -0.52057,0.95437 -1.53278,1.82198 -0.98328,0.83868 -2.5739,1.41709 1.76414,0.46272 3.00771,1.38817 1.27249,0.89653 2.05334,2.1401 0.80976,1.21465 1.18573,2.66066 0.37596,1.41709 0.37596,2.92095 0,1.53277 -0.78085,3.06554 -0.78084,1.50385 -2.19794,2.7185 -1.38817,1.18573 -3.32582,1.93766 -1.90874,0.75193 -4.19344,0.75193 -2.68958,0 -4.62724,-0.57841 -1.90873,-0.5784 -3.15231,-1.64845 -1.21465,-1.07005 -1.79305,-2.54498 -0.54949,-1.50386 -0.54949,-3.29691 0,-1.09897 0.31813,-1.82198 0.34704,-0.75192 0.89653,-1.18573 0.54948,-0.46272 1.27249,-0.63624 0.723,-0.20244 1.50385,-0.20244 0.66516,0 1.50385,0.17352 0.83869,0.1446 1.56169,0.40488 0.72301,0.26028 1.21465,0.57841 0.49165,0.31812 0.49165,0.60732 0,0.23136 -0.49165,0.37596 -0.49164,0.14461 -1.09896,0.40489 -0.60733,0.23136 -1.09897,0.63624 -0.49165,0.37597 -0.49165,1.07005 z"
         style="font-style:normal;font-variant:normal;font-weight:normal;font-stretch:normal;font-size:59.22866058px;font-family:Pacifico;-inkscape-font-specification:'Pacifico, Normal';font-variant-ligatures:normal;font-variant-caps:normal;font-variant-numeric:normal;font-feature-settings:normal;text-align:start;writing-mode:lr-tb;text-anchor:start;stroke-width:1.48071647"
         id="path69" />
      <path
         d="m 139.21195,167.93038 q -1.21465,-0.11568 -2.05334,-0.26028 -0.80977,-0.17352 -1.41709,-0.2892 -0.60733,-0.1446 -1.07005,-0.23136 -0.46273,-0.0868 -0.98329,-0.0868 -0.17352,0 -0.37596,0.0289 -0.20245,0 -0.43381,0.0289 0.11568,0.69408 0.23136,1.47493 0.11569,0.66516 0.23137,1.53277 0.1446,0.86761 0.34704,1.79306 1.73521,-0.17352 3.23907,-0.17352 2.77634,0 4.714,0.52056 1.93765,0.49164 3.21014,1.33033 1.30141,0.80977 2.02442,1.87982 0.72301,1.07005 1.07005,2.19794 0.37596,1.09896 0.46272,2.19793 0.0868,1.07005 0.0868,1.93766 0,1.64845 -0.8676,3.26799 -0.86761,1.61953 -2.4293,2.92094 -1.53278,1.27249 -3.67287,2.08226 -2.1401,0.78085 -4.68508,0.78085 -2.68959,0 -4.62724,-0.57841 -1.90874,-0.5784 -3.15231,-1.64845 -1.21465,-1.07005 -1.79305,-2.54498 -0.54949,-1.50386 -0.54949,-3.29691 0,-1.09897 0.31812,-1.82198 0.34705,-0.75192 0.89653,-1.18573 0.54949,-0.46272 1.27249,-0.63624 0.72301,-0.20244 1.50385,-0.20244 0.66517,0 1.50386,0.17352 0.83868,0.1446 1.56169,0.40488 0.72301,0.26028 1.21465,0.57841 0.49164,0.31812 0.49164,0.60732 0,0.23136 -0.49164,0.37596 -0.49164,0.14461 -1.09897,0.40489 -0.60732,0.23136 -1.09897,0.63624 -0.49164,0.37597 -0.49164,1.07005 0,0.98329 0.20244,1.67738 0.20244,0.69408 0.54948,1.12789 0.37597,0.4338 0.83869,0.63624 0.49165,0.20244 1.01221,0.20244 0.95437,0 1.93766,-0.40488 0.98328,-0.40488 1.76413,-1.09897 0.80977,-0.72301 1.30141,-1.70629 0.52057,-0.98329 0.52057,-2.1401 0,-1.41709 -0.40489,-2.37146 -0.40488,-0.98329 -1.24357,-1.59062 -0.80976,-0.60732 -2.08226,-0.92544 -1.24357,-0.31813 -2.92094,-0.46273 -0.83869,-0.1446 -1.41709,-0.20244 -0.57841,-0.0868 -0.98329,-0.26028 -0.37596,-0.17352 -0.63625,-0.54949 -0.23136,-0.37596 -0.37596,-1.09897 -0.11568,-0.75192 -0.17352,-1.93765 -0.0578,-1.18573 -0.0868,-2.97879 -0.0578,-0.8676 -0.11568,-1.59061 -0.0289,-0.75193 -0.0289,-1.41709 0,-2.22686 0.31812,-3.32583 0.31812,-1.12789 0.72301,-1.56169 0.4338,-0.43381 0.8676,-0.43381 h 0.72301 q 0.83869,0 1.67737,0.17352 0.86761,0.14461 1.73522,0.34705 0.86761,0.17352 1.76413,0.34704 0.92545,0.1446 1.8509,0.1446 0.2892,0 0.54948,0 0.28921,-0.0289 0.57841,-0.0868 1.30141,-0.2892 1.85089,-0.49164 0.54949,-0.20245 0.75193,-0.31813 0.20244,-0.1446 0.23136,-0.20244 0.0578,-0.0868 0.37597,-0.0868 1.07005,0 1.53277,1.04113 0.49164,1.01221 0.49164,2.68958 v 0.1446 q 0,0.14461 -0.17352,0.43381 -0.1446,0.26028 -0.54948,0.63624 -0.37597,0.34705 -1.12789,0.78085 -0.75193,0.40488 -1.93766,0.80977 -1.18573,0.40488 -2.97878,0.78084 z"
         style="font-style:normal;font-variant:normal;font-weight:normal;font-stretch:normal;font-size:59.22866058px;font-family:Pacifico;-inkscape-font-specification:'Pacifico, Normal';font-variant-ligatures:normal;font-variant-caps:normal;font-variant-numeric:normal;font-feature-settings:normal;text-align:start;writing-mode:lr-tb;text-anchor:start;stroke-width:1.48071647"
         id="path71" />
      <path
         d="m 163.27359,167.93038 q -1.21465,-0.11568 -2.05334,-0.26028 -0.80976,-0.17352 -1.41709,-0.2892 -0.60732,-0.1446 -1.07005,-0.23136 -0.46272,-0.0868 -0.98329,-0.0868 -0.17352,0 -0.37596,0.0289 -0.20244,0 -0.4338,0.0289 0.11568,0.69408 0.23136,1.47493 0.11568,0.66516 0.23136,1.53277 0.1446,0.86761 0.34704,1.79306 1.73522,-0.17352 3.23907,-0.17352 2.77635,0 4.714,0.52056 1.93766,0.49164 3.21015,1.33033 1.30141,0.80977 2.02442,1.87982 0.723,1.07005 1.07005,2.19794 0.37596,1.09896 0.46272,2.19793 0.0868,1.07005 0.0868,1.93766 0,1.64845 -0.86761,3.26799 -0.8676,1.61953 -2.4293,2.92094 -1.53277,1.27249 -3.67287,2.08226 -2.1401,0.78085 -4.68508,0.78085 -2.68958,0 -4.62724,-0.57841 -1.90873,-0.5784 -3.1523,-1.64845 -1.21465,-1.07005 -1.79306,-2.54498 -0.54948,-1.50386 -0.54948,-3.29691 0,-1.09897 0.31812,-1.82198 0.34704,-0.75192 0.89653,-1.18573 0.54948,-0.46272 1.27249,-0.63624 0.723,-0.20244 1.50385,-0.20244 0.66517,0 1.50385,0.17352 0.83869,0.1446 1.5617,0.40488 0.723,0.26028 1.21465,0.57841 0.49164,0.31812 0.49164,0.60732 0,0.23136 -0.49164,0.37596 -0.49165,0.14461 -1.09897,0.40489 -0.60733,0.23136 -1.09897,0.63624 -0.49165,0.37597 -0.49165,1.07005 0,0.98329 0.20244,1.67738 0.20245,0.69408 0.54949,1.12789 0.37596,0.4338 0.83869,0.63624 0.49164,0.20244 1.01221,0.20244 0.95436,0 1.93765,-0.40488 0.98329,-0.40488 1.76414,-1.09897 0.80976,-0.72301 1.30141,-1.70629 0.52056,-0.98329 0.52056,-2.1401 0,-1.41709 -0.40488,-2.37146 -0.40489,-0.98329 -1.24357,-1.59062 -0.80977,-0.60732 -2.08226,-0.92544 -1.24357,-0.31813 -2.92094,-0.46273 -0.83869,-0.1446 -1.4171,-0.20244 -0.5784,-0.0868 -0.98328,-0.26028 -0.37597,-0.17352 -0.63625,-0.54949 -0.23136,-0.37596 -0.37596,-1.09897 -0.11568,-0.75192 -0.17352,-1.93765 -0.0579,-1.18573 -0.0868,-2.97879 -0.0578,-0.8676 -0.11568,-1.59061 -0.0289,-0.75193 -0.0289,-1.41709 0,-2.22686 0.31813,-3.32583 0.31812,-1.12789 0.723,-1.56169 0.43381,-0.43381 0.86761,-0.43381 h 0.72301 q 0.83868,0 1.67737,0.17352 0.86761,0.14461 1.73521,0.34705 0.86761,0.17352 1.76414,0.34704 0.92545,0.1446 1.85089,0.1446 0.28921,0 0.54949,0 0.2892,-0.0289 0.5784,-0.0868 1.30142,-0.2892 1.8509,-0.49164 0.54948,-0.20245 0.75193,-0.31813 0.20244,-0.1446 0.23136,-0.20244 0.0578,-0.0868 0.37596,-0.0868 1.07005,0 1.53277,1.04113 0.49165,1.01221 0.49165,2.68958 v 0.1446 q 0,0.14461 -0.17352,0.43381 -0.1446,0.26028 -0.54949,0.63624 -0.37596,0.34705 -1.12789,0.78085 -0.75192,0.40488 -1.93765,0.80977 -1.18573,0.40488 -2.97879,0.78084 z"
         style="font-style:normal;font-variant:normal;font-weight:normal;font-stretch:normal;font-size:59.22866058px;font-family:Pacifico;-inkscape-font-specification:'Pacifico, Normal';font-variant-ligatures:normal;font-variant-caps:normal;font-variant-numeric:normal;font-feature-settings:normal;text-align:start;writing-mode:lr-tb;text-anchor:start;stroke-width:1.48071647"
         id="path73" />
      <path
         d="m 195.28829,190.37249 q -0.83869,0 -1.7063,-0.23136 -0.83868,-0.26028 -1.70629,-0.66516 -0.83869,-0.43381 -1.70629,-0.95437 -0.83869,-0.54949 -1.67738,-1.15681 -1.67737,1.27249 -3.55719,2.08225 -1.87981,0.78085 -3.99099,0.92545 -1.50385,0 -2.80527,-0.52056 -1.30141,-0.54949 -2.2847,-1.41709 -0.95436,-0.89653 -1.50385,-2.05334 -0.54948,-1.15681 -0.54948,-2.37146 0,-0.95437 0.31812,-1.93766 0.31812,-1.01221 0.98329,-1.82197 0.69408,-0.83869 1.73521,-1.35925 1.07005,-0.52057 2.5739,-0.52057 2.2847,0 4.01992,0.66517 1.76413,0.66516 3.23907,1.59061 0.8676,-1.04113 1.61953,-2.22686 0.78085,-1.21465 1.35925,-2.48714 0.57841,-1.27249 0.89653,-2.54498 0.34704,-1.30141 0.34704,-2.54498 0,-2.11118 -0.40488,-3.44151 -0.40489,-1.35925 -1.07005,-2.11118 -0.63625,-0.75193 -1.41709,-1.01221 -0.78085,-0.2892 -1.53278,-0.2892 -0.92544,0 -1.76413,0.31812 -0.80977,0.31812 -1.47493,0.89653 -0.63625,0.54948 -1.01221,1.33033 -0.37596,0.78085 -0.37596,1.73522 0,0.52056 0.80976,1.07004 0.83869,0.54949 2.66066,1.12789 0.0579,0.17353 0.0579,0.28921 0,0.34704 -0.66517,0.75192 -0.66517,0.37597 -1.67737,0.72301 -0.98329,0.31812 -2.16902,0.54948 -1.18573,0.20245 -2.22686,0.20245 -0.23136,-0.23137 -0.46273,-0.26029 -0.20244,-0.0289 -0.37596,-0.0289 -1.21465,-0.98329 -1.76413,-2.11117 -0.54949,-1.15681 -0.54949,-2.37146 0,-1.61954 0.89653,-3.21015 0.92545,-1.61954 2.48714,-2.89203 1.59061,-1.27249 3.70179,-2.05333 2.1401,-0.78085 4.54048,-0.78085 0.63625,0 1.67737,0.1446 1.07005,0.11568 2.2847,0.52057 1.24357,0.40488 2.48714,1.12788 1.2725,0.69409 2.2847,1.8509 1.04113,1.15681 1.67738,2.83418 0.66516,1.67738 0.66516,3.96208 0,1.27249 -0.4338,3.0077 -0.40488,1.7063 -1.21465,3.64395 -0.78085,1.90874 -1.96658,3.90424 -1.15681,1.99549 -2.63174,3.75963 0.98329,0.49164 2.02442,0.80977 1.07005,0.2892 2.34254,0.2892 0.31812,0 0.69408,-0.43381 0.40489,-0.46272 0.75193,-1.0122 0.34704,-0.54949 0.63625,-0.98329 0.31812,-0.46273 0.46272,-0.46273 0.40488,0 0.63624,0.31813 0.26029,0.31812 0.26029,1.12789 0,1.07005 -0.46273,3.09446 -0.1446,0.57841 -0.40488,1.21465 -0.26028,0.63625 -0.72301,1.18573 -0.46272,0.52057 -1.18573,0.86761 -0.69408,0.34704 -1.67737,0.34704 z m -14.72041,-5.49484 q 1.21465,0 2.92095,-1.21465 -0.69409,-0.43381 -1.33033,-0.69409 -0.60733,-0.26028 -1.09897,-0.26028 -1.30141,0 -1.8509,0.23136 -0.52056,0.23136 -0.52056,0.5784 0,0.26029 0.1446,0.49165 0.17352,0.23136 0.4338,0.4338 0.26029,0.20244 0.60733,0.31813 0.34704,0.11568 0.69408,0.11568 z"
         style="font-style:normal;font-variant:normal;font-weight:normal;font-stretch:normal;font-size:59.22866058px;font-family:Pacifico;-inkscape-font-specification:'Pacifico, Normal';font-variant-ligatures:normal;font-variant-caps:normal;font-variant-numeric:normal;font-feature-settings:normal;text-align:start;writing-mode:lr-tb;text-anchor:start;stroke-width:1.48071647"
         id="path75" />
      <path
         d="m 210.32684,190.40141 q -2.22686,0 -3.90423,-0.95437 -1.64845,-0.98328 -2.74742,-2.60282 -1.09897,-1.64845 -1.64846,-3.78855 -0.54948,-2.16902 -0.54948,-4.5694 0,-2.11118 0.37596,-4.30911 0.40488,-2.22686 1.15681,-4.2802 0.75193,-2.08226 1.8509,-3.90423 1.12789,-1.8509 2.5739,-3.21015 1.44601,-1.38817 3.21014,-2.16902 1.79306,-0.80977 3.87532,-0.80977 2.40038,0 4.13559,0.92545 1.76414,0.89653 2.89203,2.45822 1.12789,1.5617 1.64845,3.64395 0.54949,2.05334 0.54949,4.36696 0,2.1401 -0.43381,4.39588 -0.40488,2.25578 -1.21465,4.39587 -0.80977,2.1401 -1.9955,4.04884 -1.15681,1.87982 -2.66066,3.29691 -1.47493,1.41709 -3.26799,2.25578 -1.79305,0.80976 -3.84639,0.80976 z m 0.46273,-5.26348 q 0.78084,0 1.53277,-0.69409 0.75193,-0.723 1.41709,-1.90873 0.66517,-1.18573 1.21465,-2.71851 0.57841,-1.53277 0.98329,-3.1523 0.40488,-1.64846 0.63624,-3.26799 0.23137,-1.61953 0.23137,-2.97879 0,-1.12789 -0.1446,-2.11117 -0.14461,-0.98329 -0.43381,-1.7063 -0.2892,-0.723 -0.75192,-1.12789 -0.43381,-0.4338 -1.07005,-0.4338 -0.86761,0 -1.64846,0.723 -0.75192,0.69409 -1.41709,1.8509 -0.63624,1.15681 -1.15681,2.66066 -0.49164,1.50386 -0.86761,3.12339 -0.34704,1.59061 -0.54948,3.18123 -0.17352,1.56169 -0.17352,2.89202 0,1.21465 0.11568,2.25578 0.1446,1.01221 0.40488,1.79305 0.2892,0.75193 0.69409,1.18573 0.4338,0.43381 0.98329,0.43381 z"
         style="font-style:normal;font-variant:normal;font-weight:normal;font-stretch:normal;font-size:59.22866058px;font-family:Pacifico;-inkscape-font-specification:'Pacifico, Normal';font-variant-ligatures:normal;font-variant-caps:normal;font-variant-numeric:normal;font-feature-settings:normal;text-align:start;writing-mode:lr-tb;text-anchor:start;stroke-width:1.48071647"
         id="path77" />
      <path
         d="m 234.59093,165.81921 q -0.43381,0.46272 -0.95437,0.95436 -0.49165,0.46273 -0.98329,0.86761 -0.46272,0.37596 -0.86761,0.63625 -0.40488,0.23136 -0.60732,0.23136 -2.7185,0 -4.16452,-0.46273 -1.44601,-0.49164 -1.44601,-0.98328 0,-0.31813 0.60733,-0.52057 0.60732,-0.20244 1.87981,-0.20244 0.31812,0 0.95437,-0.46272 0.63625,-0.49165 1.50385,-1.21465 0.89653,-0.72301 1.96658,-1.5617 1.07005,-0.83868 2.19794,-1.56169 1.12789,-0.72301 2.2847,-1.18573 1.15681,-0.49165 2.25578,-0.49165 1.56169,0 2.08225,0.23137 0.52057,0.20244 0.52057,0.60732 0,0.43381 -0.11568,1.07005 -0.11568,0.63625 -0.11568,1.50385 0,0 -0.17353,1.04113 -0.1446,1.04113 -0.40488,2.71851 -0.26028,1.67737 -0.60732,3.81747 -0.31813,2.11118 -0.63625,4.30911 -0.31812,2.16902 -0.60732,4.25128 -0.28921,2.05334 -0.49165,3.58611 -0.0868,0.34704 -0.23136,1.04113 -0.11568,0.69409 -0.34704,1.53277 -0.23137,0.80977 -0.57841,1.67738 -0.31812,0.83868 -0.78085,1.56169 -0.46272,0.69409 -1.09896,1.15681 -0.60733,0.4338 -1.38818,0.4338 -0.95436,0 -1.79305,-0.11568 -0.83869,-0.11568 -1.44601,-0.34704 -0.60733,-0.26028 -0.95437,-0.63625 -0.34704,-0.40488 -0.34704,-0.95436 0,-0.23137 0.0289,-0.46273 0.0289,-0.23136 0.23136,-0.5784 0.46272,-1.67738 0.89653,-3.47043 0.46272,-1.82198 0.8676,-3.64395 0.43381,-1.82198 0.80977,-3.58611 0.37596,-1.79306 0.69409,-3.38367 0.75192,-3.73071 1.35925,-7.40358 z"
         style="font-style:normal;font-variant:normal;font-weight:normal;font-stretch:normal;font-size:59.22866058px;font-family:Pacifico;-inkscape-font-specification:'Pacifico, Normal';font-variant-ligatures:normal;font-variant-caps:normal;font-variant-numeric:normal;font-feature-settings:normal;text-align:start;writing-mode:lr-tb;text-anchor:start;stroke-width:1.48071647"
         id="path79" />
    </g>
  </g>
</svg>
