<?xml version="1.0" encoding="UTF-8" standalone="no"?>
<!-- Created with Inkscape (http://www.inkscape.org/) -->

<svg
   xmlns:dc="http://purl.org/dc/elements/1.1/"
   xmlns:cc="http://creativecommons.org/ns#"
   xmlns:rdf="http://www.w3.org/1999/02/22-rdf-syntax-ns#"
   xmlns:svg="http://www.w3.org/2000/svg"
   xmlns="http://www.w3.org/2000/svg"
   xmlns:sodipodi="http://sodipodi.sourceforge.net/DTD/sodipodi-0.dtd"
   xmlns:inkscape="http://www.inkscape.org/namespaces/inkscape"
   width="780.54144mm"
   height="128.37901mm"
   viewBox="0 0 780.54145 128.37901"
   version="1.1"
   id="svg3755"
   inkscape:version="0.92.4 (5da689c313, 2019-01-14)"
   sodipodi:docname="phoneNumber2.svg">
  <defs
     id="defs3749" />
  <sodipodi:namedview
     id="base"
     pagecolor="#ffffff"
     bordercolor="#666666"
     borderopacity="1.0"
     inkscape:pageopacity="0.0"
     inkscape:pageshadow="2"
     inkscape:zoom="0.35"
     inkscape:cx="455.78057"
     inkscape:cy="256.89151"
     inkscape:document-units="mm"
     inkscape:current-layer="layer1"
     showgrid="false"
     inkscape:window-width="1920"
     inkscape:window-height="1013"
     inkscape:window-x="-9"
     inkscape:window-y="-9"
     inkscape:window-maximized="1"
     fit-margin-top="0"
     fit-margin-left="0"
     fit-margin-right="0"
     fit-margin-bottom="0" />
  <metadata
     id="metadata3752">
    <rdf:RDF>
      <cc:Work
         rdf:about="">
        <dc:format>image/svg+xml</dc:format>
        <dc:type
           rdf:resource="http://purl.org/dc/dcmitype/StillImage" />
        <dc:title></dc:title>
      </cc:Work>
    </rdf:RDF>
  </metadata>
  <g
     inkscape:label="Layer 1"
     inkscape:groupmode="layer"
     id="layer1"
     transform="translate(137.51662,-88.423592)">
    <g
       id="g3748">
      <g
         transform="matrix(0.26458333,0,0,0.26458333,-137.51688,85.479399)"
         id="g4">
        <path
           inkscape:connector-curvature="0"
           id="path2"
           d="m 242.607,11.12766 c -133.978,0 -242.606,108.628 -242.606,242.606 0,133.976 108.628,242.606 242.606,242.606 133.978,0 242.604,-108.631 242.604,-242.606 10e-4,-133.978 -108.626,-242.606 -242.604,-242.606 z m 128.112,353.989 -19.425,19.429 c -3.468,3.463 -13.623,5.624 -13.949,5.624 -61.452,0.536 -120.621,-23.602 -164.095,-67.08 -43.593,-43.618 -67.759,-102.998 -67.11,-164.657 0,-0.028 2.224,-9.892 5.689,-13.324 l 19.424,-19.427 c 7.108,-7.141 20.762,-10.368 30.327,-7.168 l 4.086,1.363 c 9.537,3.197 19.55,13.742 22.185,23.457 l 9.771,35.862 c 2.635,9.743 -0.919,23.604 -8.025,30.712 l -12.97,12.972 c 12.734,47.142 49.723,84.138 96.873,96.903 l 12.965,-12.975 c 7.141,-7.141 20.997,-10.692 30.719,-8.061 l 35.857,9.806 c 9.717,2.67 20.26,12.62 23.456,22.154 l 1.363,4.145 c 3.168,9.538 -0.034,23.189 -7.141,30.265 z" />
      </g>
      <g
         transform="matrix(1.3152978,0,0,1.3152978,-7.9278387,-46.500378)"
         id="text3777"
         style="font-style:normal;font-variant:normal;font-weight:normal;font-stretch:normal;font-size:123.62049866px;line-height:1.25;font-family:Pacifico;-inkscape-font-specification:'Pacifico, Normal';font-variant-ligatures:normal;font-variant-caps:normal;font-variant-numeric:normal;font-feature-settings:normal;text-align:start;letter-spacing:0px;word-spacing:0px;writing-mode:lr-tb;text-anchor:start;fill:#000000;fill-opacity:1;stroke:none;stroke-width:3.09053493"
         aria-label="514 455 311">
        <path
           id="path16"
           style="font-style:normal;font-variant:normal;font-weight:normal;font-stretch:normal;font-size:123.62049866px;font-family:Pacifico;-inkscape-font-specification:'Pacifico, Normal';font-variant-ligatures:normal;font-variant-caps:normal;font-variant-numeric:normal;font-feature-settings:normal;text-align:start;writing-mode:lr-tb;text-anchor:start;stroke-width:3.09053493"
           d="m 29.641931,136.22493 q -2.535186,-0.24145 -4.285672,-0.54326 -1.690124,-0.36216 -2.957717,-0.60361 -1.267593,-0.30181 -2.233378,-0.48289 -0.965785,-0.18109 -2.052293,-0.18109 -0.36217,0 -0.784701,0.0604 -0.422531,0 -0.905423,0.0604 0.241446,1.44868 0.482892,3.07844 0.241446,1.38832 0.482893,3.19917 0.301808,1.81085 0.724339,3.74242 3.621694,-0.36217 6.760496,-0.36217 5.79471,0 9.838936,1.0865 4.044225,1.02615 6.700134,2.77664 2.716271,1.69012 4.22531,3.9235 1.509039,2.23338 2.233378,4.58748 0.784701,2.29374 0.965785,4.58748 0.181085,2.23338 0.181085,4.04422 0,3.44061 -1.810847,6.82086 -1.810847,3.38025 -5.070372,6.09652 -3.199163,2.65591 -7.66592,4.34603 -4.466756,1.62976 -9.778574,1.62976 -5.613626,0 -9.657852,-1.20723 -3.983863,-1.20723 -6.579411,-3.44061 -2.535186,-2.23337 -3.7424174,-5.31181 -1.1468699,-3.13881 -1.1468699,-6.88122 0,-2.29374 0.6639773,-3.80278 0.7243389,-1.5694 1.8712088,-2.47483 1.1468698,-0.96578 2.6559091,-1.32795 1.5090391,-0.42253 3.1388021,-0.42253 1.388316,0 3.138801,0.36217 1.750486,0.3018 3.259525,0.84506 1.50904,0.54325 2.535186,1.20723 1.026147,0.66398 1.026147,1.26759 0,0.4829 -1.026147,0.7847 -1.026146,0.30181 -2.293739,0.84507 -1.267593,0.48289 -2.29374,1.32795 -1.026147,0.7847 -1.026147,2.23338 0,2.05229 0.422531,3.50097 0.422531,1.44868 1.14687,2.3541 0.7847,0.90542 1.750486,1.32796 1.026146,0.42253 2.112655,0.42253 1.991931,0 4.044225,-0.84507 2.052293,-0.84506 3.682056,-2.29374 1.690124,-1.50903 2.71627,-3.56133 1.086509,-2.05229 1.086509,-4.46675 0,-2.95772 -0.845062,-4.94965 -0.845062,-2.0523 -2.595548,-3.31989 -1.690124,-1.26759 -4.346033,-1.93157 -2.595548,-0.66398 -6.096519,-0.96579 -1.750485,-0.3018 -2.957717,-0.42253 -1.207231,-0.18108 -2.052293,-0.54325 -0.784701,-0.36217 -1.327955,-1.14687 -0.482892,-0.7847 -0.7847,-2.29374 -0.241447,-1.5694 -0.36217,-4.04423 -0.120723,-2.47482 -0.181084,-6.21724 -0.120724,-1.81084 -0.241447,-3.31988 -0.06036,-1.5694 -0.06036,-2.95772 0,-4.64784 0.663977,-6.94158 0.663977,-2.3541 1.509039,-3.25953 0.905424,-0.90542 1.810847,-0.90542 h 1.50904 q 1.750485,0 3.500971,0.36217 1.810847,0.30181 3.621694,0.72434 1.810847,0.36217 3.682056,0.72434 1.93157,0.30181 3.863141,0.30181 0.603615,0 1.14687,0 0.603615,-0.0604 1.207231,-0.18109 2.716271,-0.60362 3.863141,-1.02615 1.146869,-0.42253 1.5694,-0.66397 0.422531,-0.30181 0.482893,-0.42253 0.120723,-0.18109 0.7847,-0.18109 2.233379,0 3.199164,2.17302 1.026146,2.11265 1.026146,5.61362 v 0.30181 q 0,0.30181 -0.362169,0.90543 -0.301808,0.54325 -1.14687,1.32795 -0.7847,0.72434 -2.354101,1.62976 -1.569401,0.84506 -4.044225,1.69013 -2.474825,0.84506 -6.217242,1.62976 z"
           inkscape:connector-curvature="0" />
        <path
           id="path18"
           style="font-style:normal;font-variant:normal;font-weight:normal;font-stretch:normal;font-size:123.62049866px;font-family:Pacifico;-inkscape-font-specification:'Pacifico, Normal';font-variant-ligatures:normal;font-variant-caps:normal;font-variant-numeric:normal;font-feature-settings:normal;text-align:start;writing-mode:lr-tb;text-anchor:start;stroke-width:3.09053493"
           d="m 70.325631,131.81853 q -0.905423,0.96579 -1.991931,1.99194 -1.026147,0.96578 -2.052294,1.81084 -0.965785,0.7847 -1.810847,1.32796 -0.845062,0.48289 -1.267593,0.48289 -5.673988,0 -8.692066,-0.96579 -3.018079,-1.02614 -3.018079,-2.05229 0,-0.66398 1.267593,-1.08651 1.267593,-0.42253 3.923502,-0.42253 0.663977,0 1.991932,-0.96578 1.327955,-1.02615 3.138802,-2.53519 1.871209,-1.50904 4.104587,-3.25952 2.233378,-1.75049 4.587479,-3.25953 2.354101,-1.50904 4.768564,-2.47482 2.414463,-1.02615 4.708203,-1.02615 3.259525,0 4.346033,0.48289 1.086508,0.42253 1.086508,1.2676 0,0.90542 -0.241446,2.23337 -0.241446,1.32796 -0.241446,3.13881 0,0 -0.36217,2.17301 -0.301808,2.17302 -0.845062,5.67399 -0.543254,3.50097 -1.267593,7.96773 -0.663977,4.40639 -1.327954,8.99387 -0.663978,4.52712 -1.267593,8.87315 -0.603616,4.28567 -1.026147,7.48484 -0.181085,0.72434 -0.482893,2.17301 -0.241446,1.44868 -0.724338,3.19917 -0.482893,1.69012 -1.207232,3.50097 -0.663977,1.75048 -1.629762,3.25952 -0.965785,1.44868 -2.29374,2.41447 -1.267593,0.90542 -2.897355,0.90542 -1.991932,0 -3.742418,-0.24145 -1.750485,-0.24144 -3.018078,-0.72434 -1.267594,-0.54325 -1.991932,-1.32795 -0.724339,-0.84506 -0.724339,-1.99193 0,-0.48289 0.06036,-0.96579 0.06036,-0.48289 0.482893,-1.20723 0.965785,-3.50097 1.871209,-7.24339 0.965785,-3.80278 1.810847,-7.60556 0.905423,-3.80277 1.690124,-7.48483 0.7847,-3.74242 1.448678,-7.0623 1.5694,-7.78665 2.836993,-15.45257 z"
           inkscape:connector-curvature="0" />
        <path
           id="path20"
           style="font-style:normal;font-variant:normal;font-weight:normal;font-stretch:normal;font-size:123.62049866px;font-family:Pacifico;-inkscape-font-specification:'Pacifico, Normal';font-variant-ligatures:normal;font-variant-caps:normal;font-variant-numeric:normal;font-feature-settings:normal;text-align:start;writing-mode:lr-tb;text-anchor:start;stroke-width:3.09053493"
           d="m 138.05132,185.41961 q -2.59555,0 -5.31182,0.18108 -2.65591,0.24145 -5.13074,0.24145 -1.93157,0 -3.38024,-0.30181 -1.44868,-0.24144 -2.47483,-1.02614 -1.02615,-0.7847 -1.5694,-2.11266 -0.48289,-1.38832 -0.48289,-3.56133 0,-2.41446 0.60361,-5.55327 0.60362,-3.1388 1.50904,-6.63977 -3.74241,0 -6.88122,0.7847 -3.1388,0.72434 -5.91543,1.69013 -2.77663,0.90542 -5.31182,1.69012 -2.47482,0.72434 -4.889286,0.72434 -1.086508,0 -1.569401,-0.7847 -0.482893,-0.7847 -0.482893,-1.93157 0,-1.5694 0.965786,-3.68206 0.965785,-2.11265 2.535184,-4.46675 1.26759,-3.31989 2.29374,-6.15689 1.08651,-2.89735 1.93157,-5.55326 0.84506,-2.71627 1.5694,-5.43254 0.72434,-2.71627 1.38832,-5.73435 0.72434,-3.07844 1.44868,-6.57941 0.72434,-3.56133 1.5694,-7.96773 0.36217,-0.96578 1.44867,-1.62976 1.14687,-0.66398 2.71628,-1.08651 1.5694,-0.48289 3.38024,-0.66398 1.87121,-0.24144 3.68206,-0.24144 1.50904,0 2.83699,0.18108 1.38832,0.12072 2.3541,0.36217 1.02615,0.24145 1.62977,0.66398 0.60361,0.36217 0.60361,0.7847 -0.66397,4.64784 -1.93157,9.23532 -1.20723,4.58748 -2.89735,9.23532 -1.62977,4.64784 -3.68206,9.47677 -1.99193,4.76856 -4.22531,9.77857 2.29374,0.12072 3.86314,0.18109 1.5694,0 2.837,0 h 0.7847 q 1.20723,-3.92351 2.41446,-7.60556 1.20723,-3.74242 2.23338,-7.00195 0.36217,-1.5694 1.32795,-2.6559 1.02615,-1.14687 2.29374,-1.81085 1.26759,-0.72434 2.59555,-1.02615 1.38832,-0.36217 2.47482,-0.36217 2.837,0 3.80278,0.90543 1.02615,0.90542 1.02615,2.47482 0,0.96579 -0.42253,2.59555 -0.36217,1.62976 -1.02615,3.68205 -0.66398,2.0523 -1.50904,4.46676 -0.84506,2.41446 -1.69012,4.94965 3.01808,-0.48289 5.43254,-0.90542 2.41446,-0.4829 4.10459,-0.4829 0.7847,0 1.0865,0.66398 0.36217,0.66398 0.36217,1.75049 0,2.59554 -0.48289,4.16494 -0.42253,1.56941 -1.02615,2.47483 -0.60361,0.84506 -1.20723,1.14687 -0.60361,0.24144 -0.90542,0.24144 -2.29374,0 -4.82893,-0.0604 -2.47482,-0.12072 -5.19109,-0.24144 -0.48289,1.93157 -0.84506,3.80278 -0.36217,1.81084 -0.4829,3.44061 v 1.14687 q 0,1.0865 0.84507,2.47482 0.90542,1.38832 1.93157,2.77663 1.02614,1.32796 1.87121,2.47483 0.90542,1.14687 0.90542,1.81084 0,0.30181 -0.18109,0.42253 -0.12072,0.18109 -0.72433,0.18109 z"
           inkscape:connector-curvature="0" />
        <path
           id="path22"
           style="font-style:normal;font-variant:normal;font-weight:normal;font-stretch:normal;font-size:123.62049866px;font-family:Pacifico;-inkscape-font-specification:'Pacifico, Normal';font-variant-ligatures:normal;font-variant-caps:normal;font-variant-numeric:normal;font-feature-settings:normal;text-align:start;writing-mode:lr-tb;text-anchor:start;stroke-width:3.09053493"
           d="m 226.90356,185.41961 q -2.59555,0 -5.31182,0.18108 -2.65591,0.24145 -5.13073,0.24145 -1.93158,0 -3.38025,-0.30181 -1.44868,-0.24144 -2.47483,-1.02614 -1.02614,-0.7847 -1.5694,-2.11266 -0.48289,-1.38832 -0.48289,-3.56133 0,-2.41446 0.60361,-5.55327 0.60362,-3.1388 1.50904,-6.63977 -3.74241,0 -6.88121,0.7847 -3.13881,0.72434 -5.91544,1.69013 -2.77663,0.90542 -5.31182,1.69012 -2.47482,0.72434 -4.88928,0.72434 -1.08651,0 -1.56941,-0.7847 -0.48289,-0.7847 -0.48289,-1.93157 0,-1.5694 0.96579,-3.68206 0.96578,-2.11265 2.53518,-4.46675 1.2676,-3.31989 2.29374,-6.15689 1.08651,-2.89735 1.93157,-5.55326 0.84507,-2.71627 1.5694,-5.43254 0.72434,-2.71627 1.38832,-5.73435 0.72434,-3.07844 1.44868,-6.57941 0.72434,-3.56133 1.5694,-7.96773 0.36217,-0.96578 1.44868,-1.62976 1.14687,-0.66398 2.71627,-1.08651 1.5694,-0.48289 3.38025,-0.66398 1.8712,-0.24144 3.68205,-0.24144 1.50904,0 2.83699,0.18108 1.38832,0.12072 2.35411,0.36217 1.02614,0.24145 1.62976,0.66398 0.60361,0.36217 0.60361,0.7847 -0.66397,4.64784 -1.93157,9.23532 -1.20723,4.58748 -2.89735,9.23532 -1.62976,4.64784 -3.68206,9.47677 -1.99193,4.76856 -4.22531,9.77857 2.29374,0.12072 3.86314,0.18109 1.5694,0 2.837,0 h 0.7847 q 1.20723,-3.92351 2.41446,-7.60556 1.20723,-3.74242 2.23338,-7.00195 0.36217,-1.5694 1.32795,-2.6559 1.02615,-1.14687 2.29374,-1.81085 1.2676,-0.72434 2.59555,-1.02615 1.38832,-0.36217 2.47482,-0.36217 2.837,0 3.80278,0.90543 1.02615,0.90542 1.02615,2.47482 0,0.96579 -0.42253,2.59555 -0.36217,1.62976 -1.02615,3.68205 -0.66397,2.0523 -1.50904,4.46676 -0.84506,2.41446 -1.69012,4.94965 3.01808,-0.48289 5.43254,-0.90542 2.41446,-0.4829 4.10459,-0.4829 0.7847,0 1.08651,0.66398 0.36217,0.66398 0.36217,1.75049 0,2.59554 -0.4829,4.16494 -0.42253,1.56941 -1.02614,2.47483 -0.60362,0.84506 -1.20724,1.14687 -0.60361,0.24144 -0.90542,0.24144 -2.29374,0 -4.82892,-0.0604 -2.47483,-0.12072 -5.1911,-0.24144 -0.48289,1.93157 -0.84506,3.80278 -0.36217,1.81084 -0.48289,3.44061 v 1.14687 q 0,1.0865 0.84506,2.47482 0.90542,1.38832 1.93157,2.77663 1.02614,1.32796 1.87121,2.47483 0.90542,1.14687 0.90542,1.81084 0,0.30181 -0.18108,0.42253 -0.12073,0.18109 -0.72434,0.18109 z"
           inkscape:connector-curvature="0" />
        <path
           id="path24"
           style="font-style:normal;font-variant:normal;font-weight:normal;font-stretch:normal;font-size:123.62049866px;font-family:Pacifico;-inkscape-font-specification:'Pacifico, Normal';font-variant-ligatures:normal;font-variant-caps:normal;font-variant-numeric:normal;font-feature-settings:normal;text-align:start;writing-mode:lr-tb;text-anchor:start;stroke-width:3.09053493"
           d="m 265.29351,136.22493 q -2.53518,-0.24145 -4.28567,-0.54326 -1.69012,-0.36216 -2.95772,-0.60361 -1.26759,-0.30181 -2.23338,-0.48289 -0.96578,-0.18109 -2.05229,-0.18109 -0.36217,0 -0.7847,0.0604 -0.42253,0 -0.90542,0.0604 0.24144,1.44868 0.48289,3.07844 0.24145,1.38832 0.48289,3.19917 0.30181,1.81085 0.72434,3.74242 3.6217,-0.36217 6.7605,-0.36217 5.79471,0 9.83893,1.0865 4.04423,1.02615 6.70014,2.77664 2.71627,1.69012 4.22531,3.9235 1.50904,2.23338 2.23338,4.58748 0.7847,2.29374 0.96578,4.58748 0.18109,2.23338 0.18109,4.04422 0,3.44061 -1.81085,6.82086 -1.81085,3.38025 -5.07037,6.09652 -3.19917,2.65591 -7.66592,4.34603 -4.46676,1.62976 -9.77858,1.62976 -5.61362,0 -9.65785,-1.20723 -3.98386,-1.20723 -6.57941,-3.44061 -2.53519,-2.23337 -3.74242,-5.31181 -1.14687,-3.13881 -1.14687,-6.88122 0,-2.29374 0.66398,-3.80278 0.72434,-1.5694 1.87121,-2.47483 1.14687,-0.96578 2.65591,-1.32795 1.50904,-0.42253 3.1388,-0.42253 1.38832,0 3.1388,0.36217 1.75049,0.3018 3.25953,0.84506 1.50904,0.54325 2.53518,1.20723 1.02615,0.66398 1.02615,1.26759 0,0.4829 -1.02615,0.7847 -1.02614,0.30181 -2.29374,0.84507 -1.26759,0.48289 -2.29374,1.32795 -1.02614,0.7847 -1.02614,2.23338 0,2.05229 0.42253,3.50097 0.42253,1.44868 1.14687,2.3541 0.7847,0.90542 1.75048,1.32796 1.02615,0.42253 2.11266,0.42253 1.99193,0 4.04422,-0.84507 2.0523,-0.84506 3.68206,-2.29374 1.69012,-1.50903 2.71627,-3.56133 1.08651,-2.05229 1.08651,-4.46675 0,-2.95772 -0.84506,-4.94965 -0.84507,-2.0523 -2.59555,-3.31989 -1.69013,-1.26759 -4.34604,-1.93157 -2.59554,-0.66398 -6.09651,-0.96579 -1.75049,-0.3018 -2.95772,-0.42253 -1.20723,-0.18108 -2.05229,-0.54325 -0.7847,-0.36217 -1.32796,-1.14687 -0.48289,-0.7847 -0.7847,-2.29374 -0.24145,-1.5694 -0.36217,-4.04423 -0.12072,-2.47482 -0.18108,-6.21724 -0.12073,-1.81084 -0.24145,-3.31988 -0.0604,-1.5694 -0.0604,-2.95772 0,-4.64784 0.66398,-6.94158 0.66397,-2.3541 1.50904,-3.25953 0.90542,-0.90542 1.81084,-0.90542 h 1.50904 q 1.75049,0 3.50097,0.36217 1.81085,0.30181 3.6217,0.72434 1.81084,0.36217 3.68205,0.72434 1.93157,0.30181 3.86314,0.30181 0.60362,0 1.14687,0 0.60362,-0.0604 1.20723,-0.18109 2.71628,-0.60362 3.86315,-1.02615 1.14687,-0.42253 1.5694,-0.66397 0.42253,-0.30181 0.48289,-0.42253 0.12072,-0.18109 0.7847,-0.18109 2.23338,0 3.19916,2.17302 1.02615,2.11265 1.02615,5.61362 v 0.30181 q 0,0.30181 -0.36217,0.90543 -0.30181,0.54325 -1.14687,1.32795 -0.7847,0.72434 -2.3541,1.62976 -1.5694,0.84506 -4.04423,1.69013 -2.47482,0.84506 -6.21724,1.62976 z"
           inkscape:connector-curvature="0" />
        <path
           id="path26"
           style="font-style:normal;font-variant:normal;font-weight:normal;font-stretch:normal;font-size:123.62049866px;font-family:Pacifico;-inkscape-font-specification:'Pacifico, Normal';font-variant-ligatures:normal;font-variant-caps:normal;font-variant-numeric:normal;font-feature-settings:normal;text-align:start;writing-mode:lr-tb;text-anchor:start;stroke-width:3.09053493"
           d="m 315.51434,136.22493 q -2.53519,-0.24145 -4.28567,-0.54326 -1.69013,-0.36216 -2.95772,-0.60361 -1.26759,-0.30181 -2.23338,-0.48289 -0.96579,-0.18109 -2.05229,-0.18109 -0.36217,0 -0.7847,0.0604 -0.42253,0 -0.90543,0.0604 0.24145,1.44868 0.4829,3.07844 0.24144,1.38832 0.48289,3.19917 0.30181,1.81085 0.72434,3.74242 3.62169,-0.36217 6.76049,-0.36217 5.79471,0 9.83894,1.0865 4.04422,1.02615 6.70013,2.77664 2.71627,1.69012 4.22531,3.9235 1.50904,2.23338 2.23338,4.58748 0.7847,2.29374 0.96579,4.58748 0.18108,2.23338 0.18108,4.04422 0,3.44061 -1.81085,6.82086 -1.81084,3.38025 -5.07037,6.09652 -3.19916,2.65591 -7.66592,4.34603 -4.46675,1.62976 -9.77857,1.62976 -5.61363,0 -9.65785,-1.20723 -3.98387,-1.20723 -6.57941,-3.44061 -2.53519,-2.23337 -3.74242,-5.31181 -1.14687,-3.13881 -1.14687,-6.88122 0,-2.29374 0.66398,-3.80278 0.72433,-1.5694 1.8712,-2.47483 1.14687,-0.96578 2.65591,-1.32795 1.50904,-0.42253 3.1388,-0.42253 1.38832,0 3.13881,0.36217 1.75048,0.3018 3.25952,0.84506 1.50904,0.54325 2.53519,1.20723 1.02614,0.66398 1.02614,1.26759 0,0.4829 -1.02614,0.7847 -1.02615,0.30181 -2.29374,0.84507 -1.2676,0.48289 -2.29374,1.32795 -1.02615,0.7847 -1.02615,2.23338 0,2.05229 0.42253,3.50097 0.42253,1.44868 1.14687,2.3541 0.7847,0.90542 1.75049,1.32796 1.02614,0.42253 2.11265,0.42253 1.99193,0 4.04423,-0.84507 2.05229,-0.84506 3.68205,-2.29374 1.69013,-1.50903 2.71627,-3.56133 1.08651,-2.05229 1.08651,-4.46675 0,-2.95772 -0.84506,-4.94965 -0.84506,-2.0523 -2.59555,-3.31989 -1.69012,-1.26759 -4.34603,-1.93157 -2.59555,-0.66398 -6.09652,-0.96579 -1.75048,-0.3018 -2.95772,-0.42253 -1.20723,-0.18108 -2.05229,-0.54325 -0.7847,-0.36217 -1.32795,-1.14687 -0.4829,-0.7847 -0.7847,-2.29374 -0.24145,-1.5694 -0.36217,-4.04423 -0.12073,-2.47482 -0.18109,-6.21724 -0.12072,-1.81084 -0.24144,-3.31988 -0.0604,-1.5694 -0.0604,-2.95772 0,-4.64784 0.66398,-6.94158 0.66398,-2.3541 1.50904,-3.25953 0.90542,-0.90542 1.81085,-0.90542 h 1.50904 q 1.75048,0 3.50097,0.36217 1.81085,0.30181 3.62169,0.72434 1.81085,0.36217 3.68206,0.72434 1.93157,0.30181 3.86314,0.30181 0.60361,0 1.14687,0 0.60361,-0.0604 1.20723,-0.18109 2.71627,-0.60362 3.86314,-1.02615 1.14687,-0.42253 1.5694,-0.66397 0.42253,-0.30181 0.48289,-0.42253 0.12073,-0.18109 0.7847,-0.18109 2.23338,0 3.19917,2.17302 1.02614,2.11265 1.02614,5.61362 v 0.30181 q 0,0.30181 -0.36216,0.90543 -0.30181,0.54325 -1.14687,1.32795 -0.78471,0.72434 -2.35411,1.62976 -1.5694,0.84506 -4.04422,1.69013 -2.47483,0.84506 -6.21724,1.62976 z"
           inkscape:connector-curvature="0" />
        <path
           id="path28"
           style="font-style:normal;font-variant:normal;font-weight:normal;font-stretch:normal;font-size:123.62049866px;font-family:Pacifico;-inkscape-font-specification:'Pacifico, Normal';font-variant-ligatures:normal;font-variant-caps:normal;font-variant-numeric:normal;font-feature-settings:normal;text-align:start;writing-mode:lr-tb;text-anchor:start;stroke-width:3.09053493"
           d="m 384.14545,168.09584 q 0,2.05229 0.42253,3.50097 0.42253,1.44868 1.14687,2.3541 0.7847,0.90542 1.75048,1.32796 1.02615,0.42253 2.11266,0.42253 1.5694,0 3.19916,-0.72434 1.62976,-0.7847 2.89736,-2.11266 1.32795,-1.32795 2.17301,-3.1388 0.84507,-1.87121 0.84507,-3.98386 0,-3.44061 -0.84507,-5.73435 -0.84506,-2.3541 -2.59554,-3.80278 -1.69013,-1.50904 -4.34604,-2.29374 -2.59554,-0.7847 -6.09652,-1.14687 -1.93157,-0.12072 -2.77663,-0.7847 -0.84506,-0.72434 -0.84506,-1.75049 0,-0.84506 0.18108,-1.81084 0.24145,-1.02615 0.66398,-1.87121 0.48289,-0.90543 1.26759,-1.44868 0.78471,-0.60362 1.87121,-0.60362 2.41447,0 4.34604,-0.90542 1.93157,-0.90542 3.25952,-2.23338 1.38832,-1.38831 2.05229,-3.01808 0.72434,-1.69012 0.72434,-3.25952 0,-2.05229 -1.32795,-3.50097 -1.26759,-1.44868 -4.04423,-1.44868 -2.17301,0 -3.68205,1.02615 -1.44868,1.02614 -1.44868,2.41446 0,0.72434 0.48289,1.50904 0.54326,0.7847 1.75049,1.44868 0.66398,0.36217 0.66398,0.7847 0,0.48289 -0.90543,0.96578 -0.84506,0.42253 -1.99193,0.7847 -1.14687,0.30181 -2.17302,0.54326 -1.02614,0.18108 -1.38831,0.18108 -0.72434,0 -1.44868,-0.30181 -0.66398,-0.36217 -1.26759,-1.14687 -0.60362,-0.7847 -0.96579,-2.11265 -0.36217,-1.32796 -0.36217,-3.31989 0,-3.1388 1.38832,-5.43254 1.38831,-2.29374 3.68205,-3.80278 2.35411,-1.50904 5.31182,-2.23338 2.95772,-0.72434 6.09652,-0.72434 3.38025,0 6.63977,0.84507 3.31989,0.7847 5.85508,2.3541 2.59554,1.50904 4.16495,3.80278 1.62976,2.23338 1.62976,5.19109 0,1.69013 -0.42253,3.74242 -0.36217,1.99193 -1.50904,3.98386 -1.08651,1.99194 -3.19917,3.80278 -2.05229,1.75049 -5.37218,2.95772 3.68206,0.96578 6.27761,2.89735 2.65591,1.87121 4.28567,4.46676 1.69012,2.53519 2.47482,5.55327 0.7847,2.95771 0.7847,6.09651 0,3.19917 -1.62976,6.39833 -1.62976,3.1388 -4.58748,5.67399 -2.89735,2.47482 -6.94158,4.04422 -3.98386,1.5694 -8.75243,1.5694 -5.61362,0 -9.65785,-1.20723 -3.98386,-1.20723 -6.57941,-3.44061 -2.53519,-2.23337 -3.74242,-5.31181 -1.14687,-3.13881 -1.14687,-6.88122 0,-2.29374 0.66398,-3.80278 0.72434,-1.5694 1.87121,-2.47483 1.14687,-0.96578 2.65591,-1.32795 1.50904,-0.42253 3.1388,-0.42253 1.38832,0 3.1388,0.36217 1.75049,0.3018 3.25953,0.84506 1.50904,0.54325 2.53518,1.20723 1.02615,0.66398 1.02615,1.26759 0,0.4829 -1.02615,0.7847 -1.02614,0.30181 -2.29374,0.84507 -1.26759,0.48289 -2.29374,1.32795 -1.02614,0.7847 -1.02614,2.23338 z"
           inkscape:connector-curvature="0" />
        <path
           id="path30"
           style="font-style:normal;font-variant:normal;font-weight:normal;font-stretch:normal;font-size:123.62049866px;font-family:Pacifico;-inkscape-font-specification:'Pacifico, Normal';font-variant-ligatures:normal;font-variant-caps:normal;font-variant-numeric:normal;font-feature-settings:normal;text-align:start;writing-mode:lr-tb;text-anchor:start;stroke-width:3.09053493"
           d="m 439.25556,131.81853 q -0.90542,0.96579 -1.99193,1.99194 -1.02615,0.96578 -2.0523,1.81084 -0.96578,0.7847 -1.81084,1.32796 -0.84507,0.48289 -1.2676,0.48289 -5.67398,0 -8.69206,-0.96579 -3.01808,-1.02614 -3.01808,-2.05229 0,-0.66398 1.26759,-1.08651 1.26759,-0.42253 3.9235,-0.42253 0.66398,0 1.99194,-0.96578 1.32795,-1.02615 3.1388,-2.53519 1.87121,-1.50904 4.10458,-3.25952 2.23338,-1.75049 4.58748,-3.25953 2.35411,-1.50904 4.76857,-2.47482 2.41446,-1.02615 4.7082,-1.02615 3.25953,0 4.34603,0.48289 1.08651,0.42253 1.08651,1.2676 0,0.90542 -0.24144,2.23337 -0.24145,1.32796 -0.24145,3.13881 0,0 -0.36217,2.17301 -0.30181,2.17302 -0.84506,5.67399 -0.54326,3.50097 -1.26759,7.96773 -0.66398,4.40639 -1.32796,8.99387 -0.66398,4.52712 -1.26759,8.87315 -0.60362,4.28567 -1.02615,7.48484 -0.18108,0.72434 -0.48289,2.17301 -0.24145,1.44868 -0.72434,3.19917 -0.48289,1.69012 -1.20723,3.50097 -0.66398,1.75048 -1.62976,3.25952 -0.96579,1.44868 -2.29374,2.41447 -1.2676,0.90542 -2.89736,0.90542 -1.99193,0 -3.74242,-0.24145 -1.75048,-0.24144 -3.01808,-0.72434 -1.26759,-0.54325 -1.99193,-1.32795 -0.72434,-0.84506 -0.72434,-1.99193 0,-0.48289 0.0604,-0.96579 0.0604,-0.48289 0.48289,-1.20723 0.96578,-3.50097 1.87121,-7.24339 0.96578,-3.80278 1.81084,-7.60556 0.90543,-3.80277 1.69013,-7.48483 0.7847,-3.74242 1.44868,-7.0623 1.5694,-7.78665 2.83699,-15.45257 z"
           inkscape:connector-curvature="0" />
        <path
           id="path32"
           style="font-style:normal;font-variant:normal;font-weight:normal;font-stretch:normal;font-size:123.62049866px;font-family:Pacifico;-inkscape-font-specification:'Pacifico, Normal';font-variant-ligatures:normal;font-variant-caps:normal;font-variant-numeric:normal;font-feature-settings:normal;text-align:start;writing-mode:lr-tb;text-anchor:start;stroke-width:3.09053493"
           d="m 479.81855,131.81853 q -0.90543,0.96579 -1.99193,1.99194 -1.02615,0.96578 -2.0523,1.81084 -0.96578,0.7847 -1.81084,1.32796 -0.84507,0.48289 -1.2676,0.48289 -5.67399,0 -8.69206,-0.96579 -3.01808,-1.02614 -3.01808,-2.05229 0,-0.66398 1.26759,-1.08651 1.26759,-0.42253 3.9235,-0.42253 0.66398,0 1.99193,-0.96578 1.32796,-1.02615 3.13881,-2.53519 1.8712,-1.50904 4.10458,-3.25952 2.23338,-1.75049 4.58748,-3.25953 2.3541,-1.50904 4.76857,-2.47482 2.41446,-1.02615 4.7082,-1.02615 3.25952,0 4.34603,0.48289 1.08651,0.42253 1.08651,1.2676 0,0.90542 -0.24145,2.23337 -0.24144,1.32796 -0.24144,3.13881 0,0 -0.36217,2.17301 -0.30181,2.17302 -0.84506,5.67399 -0.54326,3.50097 -1.2676,7.96773 -0.66397,4.40639 -1.32795,8.99387 -0.66398,4.52712 -1.26759,8.87315 -0.60362,4.28567 -1.02615,7.48484 -0.18109,0.72434 -0.48289,2.17301 -0.24145,1.44868 -0.72434,3.19917 -0.48289,1.69012 -1.20723,3.50097 -0.66398,1.75048 -1.62977,3.25952 -0.96578,1.44868 -2.29374,2.41447 -1.26759,0.90542 -2.89735,0.90542 -1.99193,0 -3.74242,-0.24145 -1.75048,-0.24144 -3.01808,-0.72434 -1.26759,-0.54325 -1.99193,-1.32795 -0.72434,-0.84506 -0.72434,-1.99193 0,-0.48289 0.0604,-0.96579 0.0604,-0.48289 0.4829,-1.20723 0.96578,-3.50097 1.8712,-7.24339 0.96579,-3.80278 1.81085,-7.60556 0.90543,-3.80277 1.69013,-7.48483 0.7847,-3.74242 1.44867,-7.0623 1.5694,-7.78665 2.837,-15.45257 z"
           inkscape:connector-curvature="0" />
      </g>
    </g>
  </g>
</svg>
