<?xml version="1.0" encoding="UTF-8" standalone="no"?>
<!-- Created with Inkscape (http://www.inkscape.org/) -->

<svg
   xmlns:dc="http://purl.org/dc/elements/1.1/"
   xmlns:cc="http://creativecommons.org/ns#"
   xmlns:rdf="http://www.w3.org/1999/02/22-rdf-syntax-ns#"
   xmlns:svg="http://www.w3.org/2000/svg"
   xmlns="http://www.w3.org/2000/svg"
   xmlns:sodipodi="http://sodipodi.sourceforge.net/DTD/sodipodi-0.dtd"
   xmlns:inkscape="http://www.inkscape.org/namespaces/inkscape"
   width="170.49496mm"
   height="67.777336mm"
   viewBox="0 0 170.49496 67.777336"
   version="1.1"
   id="svg8"
   inkscape:version="0.92.4 (5da689c313, 2019-01-14)"
   sodipodi:docname="projectIcon.svg">
  <defs
     id="defs2" />
  <sodipodi:namedview
     id="base"
     pagecolor="#ffffff"
     bordercolor="#666666"
     borderopacity="1.0"
     inkscape:pageopacity="0.0"
     inkscape:pageshadow="2"
     inkscape:zoom="0.7"
     inkscape:cx="-247.14622"
     inkscape:cy="-43.485443"
     inkscape:document-units="mm"
     inkscape:current-layer="layer1"
     showgrid="false"
     fit-margin-top="0"
     fit-margin-left="0"
     fit-margin-right="0"
     fit-margin-bottom="0"
     inkscape:window-width="1920"
     inkscape:window-height="1013"
     inkscape:window-x="-9"
     inkscape:window-y="-9"
     inkscape:window-maximized="1" />
  <metadata
     id="metadata5">
    <rdf:RDF>
      <cc:Work
         rdf:about="">
        <dc:format>image/svg+xml</dc:format>
        <dc:type
           rdf:resource="http://purl.org/dc/dcmitype/StillImage" />
        <dc:title></dc:title>
      </cc:Work>
    </rdf:RDF>
  </metadata>
  <g
     inkscape:label="Layer 1"
     inkscape:groupmode="layer"
     id="layer1"
     transform="translate(-37.537761,-79.024376)">
    <g
       aria-label="Nasze Projekty"
       style="font-style:normal;font-variant:normal;font-weight:normal;font-stretch:normal;font-size:26.33944702px;line-height:1.25;font-family:Pacifico;-inkscape-font-specification:'Pacifico, Normal';font-variant-ligatures:normal;font-variant-caps:normal;font-variant-numeric:normal;font-feature-settings:normal;text-align:start;letter-spacing:0px;word-spacing:0px;writing-mode:lr-tb;text-anchor:start;fill:#000000;fill-opacity:1;stroke:none;stroke-width:0.65848678"
       id="text14">
      <path
         d="m 45.207339,109.42126 q 0.887413,-2.62365 1.749104,-4.56567 0.861691,-1.95489 1.684799,-3.33102 0.835969,-1.38899 1.607632,-2.263545 0.784525,-0.887413 1.517605,-1.388994 0.745941,-0.501581 1.427577,-0.694497 0.694497,-0.192916 1.33755,-0.192916 0.745942,0 1.273245,0.36011 0.527304,0.360109 0.861691,0.925996 0.347249,0.565887 0.501581,1.247523 0.154333,0.681633 0.154333,1.337553 0,0.77166 -0.128611,1.72338 -0.115749,0.93886 -0.295804,1.99346 -0.180055,1.05461 -0.398693,2.18638 -0.218638,1.11891 -0.398693,2.23783 -0.180054,1.10605 -0.308665,2.18638 -0.115749,1.06746 -0.115749,2.01918 0,0.30867 0.01286,0.6945 0.02572,0.37297 0.09003,0.77166 0.06431,0.38583 0.180055,0.75881 0.12861,0.37297 0.334387,0.66877 0.218638,0.2958 0.527304,0.47586 0.321526,0.18005 0.758802,0.18005 0.617331,0 1.298967,-0.30866 0.694497,-0.30867 1.350411,-0.77166 0.668775,-0.47586 1.260384,-1.01603 0.60447,-0.55302 1.054607,-1.01602 0.462998,-0.47586 0.720219,-0.78453 0.270082,-0.32152 0.270082,-0.33438 l 0.771664,2.79085 q -0.411554,0.55302 -0.938858,1.10605 -0.527303,0.54016 -1.131773,1.02888 -0.60447,0.48872 -1.286106,0.91314 -0.668775,0.41155 -1.376133,0.72022 -0.707358,0.30866 -1.427577,0.47586 -0.707358,0.18005 -1.401856,0.18005 -0.900274,0 -1.58191,-0.30867 -0.681636,-0.30866 -1.183217,-0.83596 -0.48872,-0.52731 -0.823108,-1.2218 -0.334387,-0.70736 -0.540164,-1.49189 -0.192916,-0.78452 -0.282944,-1.59477 -0.07717,-0.81025 -0.07717,-1.56905 0,-1.00316 0.154333,-1.96774 0.167194,-0.96458 0.398693,-1.89058 0.231499,-0.93885 0.514442,-1.82627 0.282943,-0.88741 0.514442,-1.72338 0.231499,-0.84883 0.385832,-1.63335 0.167194,-0.79739 0.167194,-1.53047 0,-0.19291 -0.02572,-0.51444 -0.02572,-0.32153 -0.11575,-0.61733 -0.07717,-0.2958 -0.257221,-0.51444 -0.180055,-0.21864 -0.48872,-0.21864 -0.514443,0 -1.067468,0.48872 -0.540165,0.47586 -1.118912,1.32469 -0.565887,0.84883 -1.144634,2.01918 -0.578748,1.1575 -1.157496,2.50791 -0.565886,1.33755 -1.131773,2.82943 -0.553025,1.47903 -1.080329,2.98377 -0.514442,1.49188 -1.003162,2.94518 -0.48872,1.4533 -0.913135,2.73941 -0.36011,0.69449 -0.835969,0.9903 -0.462998,0.28294 -1.041746,0.28294 -0.334387,0 -0.655914,-0.14147 -0.308665,-0.14147 -0.553025,-0.41155 -0.24436,-0.28295 -0.385832,-0.68164 -0.141472,-0.41155 -0.141472,-0.926 0,-0.54016 0.05145,-0.97744 0.05144,-0.43727 0.154332,-0.88741 0.321527,-1.46616 0.591609,-2.71368 0.282943,-1.24753 0.514442,-2.3793 0.231499,-1.13177 0.411554,-2.18638 0.192916,-1.06747 0.347249,-2.13493 0.154333,-1.08033 0.270082,-2.21211 0.11575,-1.13177 0.205777,-2.41788 0,-0.11574 0,-0.2958 0,-0.18005 -0.03858,-0.33439 -0.03858,-0.16719 -0.141472,-0.28294 -0.09003,-0.11575 -0.282943,-0.11575 -0.257221,0 -0.630192,0.24436 -0.36011,0.24436 -0.758802,0.68164 -0.385832,0.42441 -0.797386,1.00316 -0.398693,0.57875 -0.73308,1.24752 -0.07717,0.19292 -0.24436,0.28294 -0.167194,0.0772 -0.372971,0.0772 -0.167194,0 -0.347249,-0.10289 -0.180054,-0.11575 -0.334387,-0.27008 -0.154333,-0.15433 -0.257221,-0.32153 -0.102889,-0.18005 -0.102889,-0.32152 0,-0.0772 0.05144,-0.12861 0.424415,-1.4533 0.96458,-2.45647 0.553025,-1.016019 1.157495,-1.63335 0.617331,-0.630191 1.247523,-0.913135 0.630192,-0.282943 1.234661,-0.282943 0.913135,0 1.530466,0.282943 0.630192,0.270083 1.016024,0.771664 0.385831,0.48872 0.553025,1.183217 0.167194,0.694494 0.167194,1.543324 0,0.84883 -0.141472,1.82627 -0.141471,0.97744 -0.385831,2.03205 -0.24436,1.04175 -0.553026,2.13494 -0.308665,1.09319 -0.630192,2.17352 z"
         style=""
         id="path18" />
      <path
         d="m 75.302215,116.05757 q -0.295804,0.41155 -0.797385,0.96458 -0.488721,0.55302 -1.106051,1.0546 -0.617331,0.50158 -1.324689,0.84883 -0.707359,0.34725 -1.414717,0.34725 -0.84883,0 -1.414716,-0.54016 -0.565887,-0.55303 -0.977441,-1.59477 -0.308665,0.36011 -0.758802,0.73308 -0.450137,0.37297 -0.990302,0.68163 -0.527303,0.29581 -1.106051,0.48872 -0.578747,0.19292 -1.157495,0.19292 -0.617331,0 -1.208939,-0.24436 -0.578748,-0.25722 -1.028885,-0.72022 -0.450137,-0.47586 -0.720219,-1.14463 -0.270082,-0.68164 -0.270082,-1.53047 0,-0.96458 0.270082,-1.9806 0.270082,-1.01603 0.745941,-1.98061 0.475859,-0.97744 1.118912,-1.83913 0.655914,-0.86169 1.427578,-1.50474 0.771663,-0.64305 1.620493,-1.01603 0.861691,-0.38583 1.749104,-0.38583 0.295804,0 0.462998,0.11575 0.167194,0.11575 0.270082,0.27008 0.11575,0.14148 0.218638,0.28295 0.102889,0.14147 0.257221,0.20577 0.154333,0.0643 0.308666,0.09 0.167194,0.0129 0.334387,0.0129 0.141472,0 0.282944,0 0.154332,-0.0129 0.295804,-0.0129 0.192916,0 0.36011,0.0386 0.167193,0.0386 0.295804,0.16719 0.12861,0.12861 0.192916,0.36011 0.07717,0.2315 0.07717,0.63019 0,0.61733 -0.12861,1.37613 -0.128611,0.74595 -0.282944,1.54333 -0.154332,0.78453 -0.282943,1.58191 -0.128611,0.78453 -0.128611,1.49188 0,0.60447 0.102889,0.95172 0.115749,0.33439 0.475859,0.33439 0.270082,0 0.565887,-0.12861 0.295804,-0.14147 0.591608,-0.36011 0.308666,-0.21864 0.60447,-0.48872 0.308665,-0.28294 0.578748,-0.57875 0.630191,-0.6945 1.273244,-1.56905 z m -10.983344,-1.01603 q 0,0.32153 0.03858,0.6302 0.05144,0.2958 0.167193,0.54016 0.11575,0.2315 0.308666,0.38583 0.192916,0.14147 0.48872,0.14147 0.475859,0 0.861691,-0.41155 0.385832,-0.41155 0.668775,-0.9903 0.282943,-0.57875 0.450137,-1.19608 0.180055,-0.61733 0.231499,-1.02888 l 0.784525,-3.78116 q -0.527304,0 -1.028885,0.27009 -0.501581,0.25722 -0.951718,0.70735 -0.437276,0.45014 -0.810247,1.02889 -0.372971,0.57875 -0.643053,1.2218 -0.270082,0.63019 -0.424415,1.27324 -0.141472,0.64306 -0.141472,1.20894 z"
         style=""
         id="path20" />
      <path
         d="m 73.373055,114.26988 q 0.720219,-0.61733 1.170356,-1.02888 0.450137,-0.41156 0.771664,-0.74595 0.321526,-0.34724 0.578747,-0.69449 0.270083,-0.34725 0.630192,-0.82311 0.36011,-0.47586 0.874552,-1.1575 0.514442,-0.69449 1.33755,-1.72338 0.167194,-0.2315 0.372971,-0.45013 0.205777,-0.21864 0.450137,-0.38584 0.257221,-0.18005 0.553025,-0.28294 0.308666,-0.11575 0.681637,-0.11575 0.61733,0 0.951718,0.14147 0.334387,0.12861 0.48872,0.32153 0.154333,0.19291 0.180055,0.41155 0.02572,0.20578 0.02572,0.36011 0,0.30867 -0.24436,0.68164 -0.24436,0.37297 -0.540165,0.72022 -0.295804,0.34725 -0.565886,0.64305 -0.257221,0.28294 -0.295804,0.42442 0,0.39869 0.05144,0.73308 0.0643,0.32152 0.154332,0.64305 0.102889,0.30866 0.205777,0.66877 0.102889,0.34725 0.192916,0.81025 0.102889,0.463 0.154333,1.06747 0.0643,0.60447 0.0643,1.42758 0.462998,-0.30867 0.990302,-0.55303 0.540164,-0.25722 1.118912,-0.5273 0.578747,-0.27009 1.183217,-0.59161 0.617331,-0.33439 1.234662,-0.79739 l 0.01286,2.88088 q -0.797386,0.61733 -1.851993,1.15749 -1.041745,0.54017 -2.199241,0.95172 -1.144634,0.41156 -2.327851,0.65592 -1.170356,0.2315 -2.224963,0.2315 -0.758803,0 -1.414717,-0.14148 -0.655913,-0.14147 -1.157495,-0.43727 -0.48872,-0.30867 -0.797385,-0.79739 -0.308666,-0.48872 -0.372971,-1.18321 -0.180055,0.0386 -0.36011,0.0514 -0.167193,0.0129 -0.334387,0.0129 -0.205777,0 -0.385832,-0.0129 -0.180055,-0.0129 -0.308665,-0.09 -0.128611,-0.09 -0.205777,-0.27008 -0.07717,-0.19292 -0.07717,-0.54016 0,-0.30867 0.154333,-0.56589 0.154333,-0.27008 0.36011,-0.47586 0.205777,-0.20578 0.411554,-0.36011 0.205777,-0.15433 0.308665,-0.24436 z m 1.646215,1.64622 q 0.154333,0 0.334388,0.19291 0.192916,0.19292 0.437276,0.42442 0.24436,0.2315 0.565886,0.42441 0.321527,0.19292 0.733081,0.19292 0.501581,0 0.823107,-0.1672 0.334388,-0.16719 0.527304,-0.43727 0.192916,-0.28295 0.270082,-0.64306 0.07717,-0.37297 0.07717,-0.77166 0,-0.34725 -0.05144,-0.70736 -0.03858,-0.36011 -0.115749,-0.68163 -0.06431,-0.33439 -0.154333,-0.61733 -0.07717,-0.29581 -0.141472,-0.50159 z"
         style=""
         id="path22" />
      <path
         d="m 83.597596,116.80351 q 0,-0.28294 0.102888,-0.463 0.102889,-0.19292 0.270082,-0.36011 0.167194,-0.16719 0.385832,-0.33439 0.218638,-0.18005 0.450137,-0.43727 l 3.999789,-5.37592 q -0.231499,-0.10289 -0.398693,-0.19292 -0.167193,-0.09 -0.308665,-0.15433 -0.128611,-0.0772 -0.270082,-0.11575 -0.141472,-0.0386 -0.308666,-0.0386 -0.411553,0 -0.681636,0.0129 -0.270082,0.0129 -0.462998,0.09 -0.180055,0.0772 -0.334387,0.2315 -0.141472,0.15433 -0.321527,0.43728 -0.398693,0.61733 -0.668775,0.91313 -0.270082,0.28295 -0.48872,0.28295 -0.205777,0 -0.295804,-0.18006 -0.07717,-0.19291 -0.07717,-0.50158 0,-0.12861 0.01286,-0.27008 0.01286,-0.15434 0.03858,-0.30867 0.192915,-1.11891 0.553025,-1.81341 0.36011,-0.69449 0.797386,-1.06746 0.450137,-0.38584 0.925996,-0.51445 0.48872,-0.14147 0.900274,-0.14147 0.308665,0 0.617331,0.15433 0.308665,0.14148 0.604469,0.32153 0.308666,0.18006 0.617331,0.33439 0.321527,0.14147 0.655914,0.15433 0.257221,0.0129 0.462998,0.0129 0.218638,0 0.398693,0 0.514442,0 0.823108,-0.0129 0.308665,-0.0257 0.462998,-0.0514 0.167194,-0.0257 0.231499,-0.0386 0.06431,-0.0257 0.102888,-0.0257 0.450137,0 0.643053,0.32153 0.205777,0.30866 0.205777,0.84883 0,0.34725 -0.07717,0.74594 -0.02572,0.10289 -0.257221,0.27008 -0.231499,0.15433 -0.771664,0.29581 -0.154332,0.28294 -0.514442,0.79738 -0.36011,0.51444 -0.835969,1.14464 -0.462998,0.63019 -0.97744,1.29896 -0.501581,0.66878 -0.96458,1.26039 -0.450137,0.57874 -0.797385,1.01602 -0.334388,0.42441 -0.450137,0.57875 l -0.06431,0.25722 q 0.01286,0 0.2315,0.09 0.218638,0.09 0.514442,0.20577 0.295804,0.10289 0.617331,0.19292 0.334387,0.09 0.578747,0.09 0.540165,0 0.977441,-0.15434 0.450137,-0.16719 0.823107,-0.41155 0.385832,-0.24436 0.707359,-0.51444 0.334387,-0.28295 0.630191,-0.52731 0.308666,-0.24436 0.60447,-0.39869 0.295805,-0.16719 0.617331,-0.16719 0.24436,0 0.437276,0.11575 0.205777,0.11575 0.334387,0.2958 0.141472,0.18006 0.205777,0.41155 0.07717,0.21864 0.07717,0.43728 0,0.37297 -0.282944,0.78452 -0.282943,0.3987 -0.758802,0.78453 -0.475859,0.38583 -1.106051,0.73308 -0.630192,0.34725 -1.324689,0.61733 -0.681636,0.25722 -1.401855,0.41155 -0.707358,0.15434 -1.33755,0.15434 -0.05145,0 -0.270083,-0.0515 -0.218638,-0.0514 -0.578747,-0.16719 -0.36011,-0.12861 -0.835969,-0.32153 -0.475859,-0.19291 -1.041746,-0.48872 -0.48872,0.15434 -0.848829,0.15434 -0.385832,0 -0.668776,-0.12862 -0.282943,-0.14147 -0.475859,-0.37297 -0.180054,-0.2315 -0.270082,-0.5273 -0.09003,-0.2958 -0.09003,-0.63019 z"
         style=""
         id="path24" />
      <path
         d="m 97.886232,119.20853 q -1.20894,0 -2.122075,-0.43728 -0.900274,-0.43728 -1.504744,-1.17036 -0.604469,-0.74594 -0.913135,-1.71052 -0.295804,-0.97744 -0.295804,-2.0449 0,-0.72022 0.141472,-1.51761 0.141471,-0.81025 0.424414,-1.58191 0.295805,-0.77166 0.733081,-1.46616 0.437276,-0.70736 1.016023,-1.23466 0.591609,-0.54017 1.311828,-0.84883 0.733081,-0.32153 1.620494,-0.32153 0.720219,0 1.33755,0.2315 0.617334,0.2315 1.067464,0.65591 0.463,0.41156 0.72022,1.00317 0.25722,0.59161 0.25722,1.32469 0,0.79738 -0.39869,1.59477 -0.38583,0.79738 -1.08033,1.50474 -0.694495,0.70736 -1.659074,1.26039 -0.951719,0.55302 -2.070631,0.86169 0.192916,0.34724 0.372971,0.57874 0.192916,0.2315 0.385832,0.36011 0.192916,0.12861 0.398693,0.18006 0.218638,0.0514 0.462998,0.0514 0.771663,0 1.620493,-0.30866 0.861688,-0.30867 1.671938,-0.77167 0.81025,-0.46299 1.53047,-1.00316 0.72021,-0.55302 1.2218,-1.04174 l 1.65907,1.72338 q -1.13177,1.17035 -2.40502,2.07063 -0.55302,0.38583 -1.19607,0.7588 -0.6302,0.37297 -1.33755,0.66877 -0.6945,0.28295 -1.453303,0.463 -0.745942,0.1672 -1.517605,0.1672 z m -1.710521,-6.0447 q 0.462998,0 1.003163,-0.2315 0.553025,-0.24436 1.016023,-0.61733 0.475859,-0.37297 0.797386,-0.81025 0.321526,-0.43727 0.321526,-0.84883 0,-0.57874 -0.218638,-0.95172 -0.205777,-0.37297 -0.514442,-0.37297 -0.553026,0 -0.951718,0.20578 -0.385832,0.20578 -0.655914,0.54017 -0.257222,0.32152 -0.424415,0.74594 -0.154333,0.41155 -0.24436,0.83597 -0.07717,0.42441 -0.102889,0.8231 -0.02572,0.3987 -0.02572,0.68164 z"
         style=""
         id="path26" />
      <path
         d="m 121.3448,95.762818 q 2.16066,0 3.78115,0.591608 1.63336,0.578748 2.71368,1.556188 1.08033,0.96458 1.6205,2.224966 0.55302,1.26038 0.55302,2.61079 0,1.26039 -0.48872,2.49505 -0.48872,1.23466 -1.47902,2.2764 -0.97744,1.04175 -2.48218,1.80055 -1.49189,0.75881 -3.51107,1.06747 -0.0386,0.93886 -0.0643,1.72338 -0.0129,0.33439 -0.0257,0.66878 -0.0129,0.33439 -0.0257,0.61733 0,0.27008 -0.0129,0.47586 0,0.20577 0,0.28294 -0.0257,0.90027 -0.21864,1.87772 -0.18005,0.96457 -0.54016,1.89057 -0.34725,0.926 -0.8617,1.7491 -0.50158,0.83597 -1.18321,1.4533 -0.66878,0.6302 -1.50475,0.99031 -0.83597,0.37297 -1.82627,0.37297 -1.0546,0 -1.89057,-0.55303 -0.82311,-0.54016 -1.4533,-1.46616 -0.61733,-0.926 -1.05461,-2.13494 -0.42441,-1.20893 -0.6945,-2.52076 -0.27008,-1.32469 -0.39869,-2.66224 -0.11575,-1.33755 -0.11575,-2.52077 0,-2.03205 0.37297,-3.92262 0.37297,-1.89058 1.06747,-3.53679 0.6945,-1.65908 1.6848,-3.02235 0.9903,-1.363274 2.22496,-2.340714 1.24752,-0.977441 2.70082,-1.504744 1.46616,-0.540164 3.11238,-0.540164 z m -7.71663,14.532992 q 0,0.52731 0,1.42758 0.0129,0.88741 0.0772,1.90344 0.0643,1.01602 0.20578,2.05777 0.14147,1.04174 0.41155,1.89057 0.28295,0.83597 0.6945,1.37614 0.42441,0.5273 1.05461,0.5273 0.65591,0 1.11891,-0.45014 0.463,-0.463 0.77166,-1.18322 0.30867,-0.73308 0.48872,-1.64621 0.18006,-0.926 0.27008,-1.85199 0.09,-0.926 0.11575,-1.76197 0.0257,-0.84883 0.0257,-1.44044 v -0.60447 q -1.06747,-0.42441 -1.6848,-0.74594 -0.60447,-0.32152 -0.91314,-0.61733 -0.30866,-0.2958 -0.39869,-0.61733 -0.0772,-0.33439 -0.0772,-0.77166 0,-0.2315 0.0129,-0.45014 0.0129,-0.2315 0.0643,-0.39869 0.0643,-0.18006 0.16719,-0.28295 0.11575,-0.11575 0.30867,-0.11575 0.12861,0 0.2315,0.0515 0.11575,0.0514 0.28294,0.14147 0.42442,0.2315 0.77166,0.38583 0.34725,0.14147 0.59161,0.2315 0.28295,0.10289 0.51445,0.15433 0,-0.16719 0,-0.65591 0.0129,-0.50158 0.0772,-1.13177 0.0772,-0.64306 0.24436,-1.33755 0.1672,-0.6945 0.48872,-1.27325 0.32153,-0.57875 0.83597,-0.95172 0.51444,-0.38583 1.27325,-0.38583 0.23149,0 0.47585,0.0515 0.24437,0.0386 0.43728,0.16719 0.20578,0.11575 0.33439,0.32153 0.14147,0.20577 0.14147,0.5273 0,0.09 -0.0129,0.12861 0,0.0257 0,0.0772 l -0.78453,3.30529 -0.11575,1.01602 q 1.26039,-0.19291 2.17352,-0.61733 0.91314,-0.42441 1.50475,-1.00316 0.60447,-0.57875 0.88741,-1.27325 0.2958,-0.69449 0.2958,-1.42757 0,-0.72022 -0.28294,-1.46616 -0.27008,-0.75881 -0.95172,-1.37614 -0.68163,-0.617328 -1.82627,-1.016021 -1.14463,-0.398693 -2.88087,-0.398693 -1.29897,0 -2.35358,0.501582 -1.0546,0.48872 -1.87771,1.337552 -0.82311,0.84883 -1.42758,1.9806 -0.60447,1.13177 -1.00316,2.41788 -0.38583,1.27324 -0.57875,2.63652 -0.18005,1.35041 -0.18005,2.63651 z"
         style=""
         id="path28" />
      <path
         d="m 129.19005,116.52057 q 0,-0.56589 0.0643,-1.31183 0.0643,-0.7588 0.16719,-1.59477 0.11575,-0.83597 0.25722,-1.69766 0.15433,-0.87456 0.32153,-1.65908 0.16719,-0.78452 0.33438,-1.44044 0.1672,-0.65591 0.33439,-1.08033 0.10289,-0.28294 0.20578,-0.45013 0.10289,-0.1672 0.2315,-0.25723 0.14147,-0.10288 0.33439,-0.12861 0.20577,-0.0386 0.50158,-0.0386 0.33438,0 0.51444,0.0386 0.19291,0.0257 0.28294,0.15434 0.09,0.11575 0.10289,0.34725 0.0257,0.23149 0.0257,0.63019 0,0.47586 0,1.15749 0,0.66878 0.0257,1.32469 h 0.14148 q 0.25722,-0.51444 0.57874,-1.14463 0.32153,-0.64306 0.74595,-1.19608 0.42441,-0.55303 0.96457,-0.926 0.54017,-0.38583 1.24753,-0.38583 0.24436,0 0.47586,0.09 0.2315,0.0772 0.39869,0.2315 0.18005,0.15433 0.28294,0.38583 0.10289,0.21864 0.10289,0.50158 0,0.21864 -0.0643,0.61733 -0.0643,0.38583 -0.14148,0.82311 -0.0772,0.42441 -0.14147,0.83597 -0.0643,0.39869 -0.0643,0.66877 0,0.463 0.09,0.77167 0.09,0.30866 0.2315,0.50158 0.15434,0.18005 0.33439,0.25722 0.19292,0.0772 0.39869,0.0772 0.57875,0 1.19608,-0.25722 0.61733,-0.25722 1.13178,-0.57874 0.60447,-0.37297 1.18321,-0.84883 l -0.19291,3.00948 q -0.33439,0.21864 -0.75881,0.48872 -0.42441,0.27009 -0.91313,0.51445 -0.47586,0.2315 -1.00316,0.39869 -0.51445,0.15433 -1.05461,0.15433 -0.96458,0 -1.55619,-0.38583 -0.59161,-0.39869 -0.93886,-1.02888 -0.34724,-0.64306 -0.51444,-1.42758 -0.16719,-0.79739 -0.27008,-1.60763 h -0.20578 l -2.30213,6.41766 q -0.18005,0.50159 -0.34724,0.83597 -0.15434,0.32153 -0.32153,0.52731 -0.16719,0.20577 -0.36011,0.2958 -0.19292,0.0772 -0.42442,0.0772 -0.5273,0 -0.84883,-0.21864 -0.32152,-0.2315 -0.50158,-0.60447 -0.16719,-0.38583 -0.2315,-0.86169 -0.0514,-0.48872 -0.0514,-1.00316 z"
         style=""
         id="path30" />
      <path
         d="m 148.19869,109.57559 q 0.37297,0.74595 0.55303,1.58191 0.19291,0.82311 0.19291,1.58191 0,0.75881 -0.16719,1.53047 -0.16719,0.77166 -0.48872,1.49188 -0.30866,0.72022 -0.77166,1.35041 -0.45014,0.6302 -1.04175,1.09319 -0.57875,0.463 -1.27324,0.73308 -0.6945,0.27009 -1.47902,0.27009 -1.13178,0 -1.94202,-0.48872 -0.79739,-0.50158 -1.31183,-1.29897 -0.51444,-0.79739 -0.7588,-1.80055 -0.2315,-1.00316 -0.2315,-2.03205 0,-1.41471 0.42441,-2.63651 0.42442,-1.23466 1.20894,-2.13494 0.79739,-0.91313 1.94202,-1.42758 1.14463,-0.5273 2.57221,-0.5273 1.2218,0 2.28927,0.38583 1.06747,0.37297 1.99346,1.01603 0.93886,0.63019 1.73625,1.4533 0.81024,0.8231 1.50474,1.69766 l -0.24436,1.8134 q -0.34725,-0.46299 -0.93886,-1.00316 -0.59161,-0.54016 -1.26038,-1.0546 -0.65591,-0.51445 -1.29897,-0.96458 -0.64305,-0.463 -1.10605,-0.77167 z m -3.97406,7.16361 q 0.43727,0 0.84883,-0.43727 0.41155,-0.45014 0.72022,-1.11891 0.30866,-0.68164 0.48872,-1.49189 0.19291,-0.82311 0.19291,-1.56905 0,-0.59161 -0.09,-1.09319 -0.09,-0.51444 -0.27008,-0.88741 -0.18005,-0.37297 -0.463,-0.59161 -0.28294,-0.21864 -0.68163,-0.21864 -0.52731,0 -1.00316,0.45014 -0.47586,0.45014 -0.83597,1.1575 -0.36011,0.69449 -0.56589,1.54332 -0.20578,0.84883 -0.20578,1.63336 0,0.54016 0.10289,1.01602 0.10289,0.47586 0.32153,0.83597 0.21864,0.34725 0.57875,0.56589 0.36011,0.20577 0.86169,0.20577 z"
         style=""
         id="path32" />
      <path
         d="m 149.87063,119.20853 q 0,-0.20578 0.0514,-0.72022 0.0643,-0.52731 0.15433,-1.26039 0.10289,-0.74594 0.24436,-1.64621 0.14147,-0.90028 0.30866,-1.83913 0.1672,-0.95172 0.36011,-1.87772 0.19292,-0.93885 0.3987,-1.7491 0.20577,-0.82311 0.41155,-1.4533 0.21864,-0.63019 0.42442,-0.97744 0.18005,-0.29581 0.42441,-0.463 0.24436,-0.16719 0.5273,-0.24436 0.29581,-0.0772 0.60447,-0.09 0.32153,-0.0257 0.6302,-0.0257 0.45013,0 0.64305,0.27008 0.20578,0.27009 0.20578,0.56589 0,0.15433 -0.0772,0.48872 -0.0643,0.33439 -0.16719,0.72022 -0.10289,0.38583 -0.20578,0.73308 -0.10289,0.34725 -0.15433,0.51444 l -0.72022,2.05777 q 0.72022,-0.11575 1.38899,-0.15433 0.66878,-0.0514 1.46616,-0.1672 0.79739,-0.12861 1.80055,-0.41155 1.00316,-0.2958 2.39216,-0.91313 v 2.46932 q -0.84883,0.463 -1.71052,0.72022 -0.84883,0.24436 -1.54333,0.36011 -0.81025,0.14147 -1.58191,0.15433 0.32152,0.83597 0.56589,1.73624 0.21863,0.77167 0.38583,1.72338 0.18005,0.93886 0.18005,1.89058 0,0.16719 -0.0386,0.77166 -0.0257,0.61733 -0.15433,1.44044 -0.11575,0.82311 -0.38584,1.73625 -0.25722,0.92599 -0.72022,1.68479 -0.45013,0.77167 -1.14463,1.27325 -0.68164,0.50158 -1.67194,0.50158 -0.90027,0 -1.53046,-0.5273 -0.63019,-0.52731 -1.02889,-1.53047 -0.38583,-1.00316 -0.56588,-2.45646 -0.1672,-1.4533 -0.1672,-3.30529 z m 3.67826,-5.7489 q -0.33438,1.99347 -0.56588,4.02551 -0.2315,2.03205 -0.2315,4.19271 0,0.70736 0.09,1.17036 0.09,0.47586 0.21863,0.7588 0.14148,0.2958 0.27009,0.41155 0.14147,0.12861 0.24436,0.12861 0.42441,0 0.66877,-0.463 0.25722,-0.46299 0.37297,-1.14463 0.12861,-0.68164 0.15434,-1.47902 0.0386,-0.78453 0.0386,-1.44044 0,-0.37297 -0.0643,-0.83597 -0.0514,-0.47586 -0.14147,-0.97744 -0.0772,-0.50158 -0.19291,-1.01602 -0.11575,-0.51444 -0.2315,-1.00316 -0.28295,-1.13178 -0.6302,-2.32786 z m -0.8231,-10.21168 q 0,-0.2958 0.12861,-0.66877 0.12861,-0.37297 0.41155,-0.6945 0.29581,-0.33439 0.77167,-0.55302 0.48872,-0.2315 1.20893,-0.2315 0.45014,0 0.84883,0.10289 0.3987,0.10288 0.6945,0.32152 0.29581,0.20578 0.463,0.55303 0.18005,0.34725 0.18005,0.8231 0,0.43728 -0.14147,0.84883 -0.14147,0.41156 -0.45013,0.73309 -0.30867,0.32152 -0.78453,0.5273 -0.463,0.19291 -1.11891,0.19291 -1.13177,0 -1.67194,-0.5273 -0.54016,-0.54016 -0.54016,-1.42758 z"
         style=""
         id="path34" />
      <path
         d="m 164.50652,119.20853 q -1.20894,0 -2.12208,-0.43728 -0.90027,-0.43728 -1.50474,-1.17036 -0.60447,-0.74594 -0.91314,-1.71052 -0.2958,-0.97744 -0.2958,-2.0449 0,-0.72022 0.14147,-1.51761 0.14147,-0.81025 0.42442,-1.58191 0.2958,-0.77166 0.73308,-1.46616 0.43727,-0.70736 1.01602,-1.23466 0.59161,-0.54017 1.31183,-0.84883 0.73308,-0.32153 1.62049,-0.32153 0.72022,0 1.33755,0.2315 0.61733,0.2315 1.06747,0.65591 0.463,0.41156 0.72022,1.00317 0.25722,0.59161 0.25722,1.32469 0,0.79738 -0.39869,1.59477 -0.38584,0.79738 -1.08033,1.50474 -0.6945,0.70736 -1.65908,1.26039 -0.95172,0.55302 -2.07063,0.86169 0.19292,0.34724 0.37297,0.57874 0.19292,0.2315 0.38583,0.36011 0.19292,0.12861 0.3987,0.18006 0.21863,0.0514 0.46299,0.0514 0.77167,0 1.6205,-0.30866 0.86169,-0.30867 1.67193,-0.77167 0.81025,-0.46299 1.53047,-1.00316 0.72022,-0.55302 1.2218,-1.04174 l 1.65908,1.72338 q -1.13178,1.17035 -2.40502,2.07063 -0.55303,0.38583 -1.19608,0.7588 -0.63019,0.37297 -1.33755,0.66877 -0.6945,0.28295 -1.4533,0.463 -0.74594,0.1672 -1.5176,0.1672 z m -1.71052,-6.0447 q 0.46299,0 1.00316,-0.2315 0.55302,-0.24436 1.01602,-0.61733 0.47586,-0.37297 0.79739,-0.81025 0.32152,-0.43727 0.32152,-0.84883 0,-0.57874 -0.21863,-0.95172 -0.20578,-0.37297 -0.51445,-0.37297 -0.55302,0 -0.95171,0.20578 -0.38584,0.20578 -0.65592,0.54017 -0.25722,0.32152 -0.42441,0.74594 -0.15434,0.41155 -0.24436,0.83597 -0.0772,0.42441 -0.10289,0.8231 -0.0257,0.3987 -0.0257,0.68164 z"
         style=""
         id="path36" />
      <path
         d="m 174.42239,112.0192 q 0.46299,-0.59161 1.01602,-1.29897 0.55302,-0.70736 1.08033,-1.35041 0.54016,-0.64306 0.97744,-1.14464 0.45013,-0.50158 0.70736,-0.68163 0.39869,-0.28295 0.97744,-0.47586 0.57874,-0.20578 1.2861,-0.20578 0.36011,0 0.68164,0.16719 0.33439,0.1672 0.57875,0.47586 0.24436,0.30867 0.38583,0.74595 0.14147,0.43727 0.14147,0.97744 0,0.5273 -0.25722,1.06746 -0.25722,0.52731 -0.64305,1.06747 -0.38584,0.54017 -0.83597,1.08033 -0.45014,0.54016 -0.83597,1.09319 -0.38583,0.54016 -0.64306,1.08033 -0.25722,0.54016 -0.25722,1.08033 0,0.463 0.21864,0.66877 0.2315,0.19292 0.70736,0.19292 0.25722,0 0.55303,-0.1672 0.30866,-0.18005 0.63019,-0.46299 0.32152,-0.28295 0.64305,-0.6302 0.33439,-0.34724 0.63019,-0.70735 0.30867,-0.36011 0.57875,-0.68164 0.27008,-0.33439 0.48872,-0.56589 l 0.77166,3.15096 q -0.39869,0.57875 -1.01602,1.08033 -0.60447,0.48872 -1.32469,0.86169 -0.70736,0.36011 -1.47902,0.56589 -0.7588,0.20578 -1.46616,0.20578 -0.926,0 -1.51761,-0.21864 -0.57874,-0.2315 -0.91313,-0.60447 -0.33439,-0.37297 -0.463,-0.83597 -0.11575,-0.47586 -0.11575,-0.97744 0,-0.2958 0.0643,-0.72022 0.0772,-0.43728 0.27008,-0.97744 0.20578,-0.54016 0.56588,-1.18322 0.36011,-0.65591 0.93886,-1.40185 0.2315,-0.2315 0.42442,-0.41156 0.19291,-0.19291 0.33438,-0.33438 0.14148,-0.15434 0.21864,-0.28295 0.0772,-0.12861 0.0772,-0.27008 0,-0.27008 -0.10289,-0.43728 -0.09,-0.16719 -0.27008,-0.16719 -0.21864,0 -0.56589,0.28294 -0.34725,0.28295 -0.7588,0.99031 l -3.78115,6.6363 q -0.29581,0.51444 -0.61733,0.72022 -0.30867,0.19292 -0.72022,0.19292 -0.55303,0 -0.87455,-0.2315 -0.32153,-0.24436 -0.48872,-0.64306 -0.1672,-0.41155 -0.21864,-0.93885 -0.0386,-0.54017 -0.0386,-1.14464 0,-0.73308 0.0515,-1.94202 0.0514,-1.20894 0.15433,-2.64937 0.10289,-1.4533 0.27008,-3.03521 0.18006,-1.58191 0.42442,-3.0738 0.09,-0.5273 0.2315,-1.27324 0.14147,-0.7588 0.34725,-1.6205 0.21863,-0.86169 0.50158,-1.78768 0.2958,-0.93886 0.66877,-1.813411 0.38583,-0.887413 0.86169,-1.684799 0.47586,-0.797386 1.06747,-1.388994 0.59161,-0.60447 1.29897,-0.951719 0.70736,-0.347248 1.54333,-0.347248 0.65591,0 1.08032,0.218638 0.42442,0.205777 0.66878,0.591608 0.25722,0.372971 0.36011,0.900275 0.10289,0.527303 0.10289,1.144634 0,1.09319 -0.28295,2.353573 -0.27008,1.260383 -0.69449,2.533633 -0.42442,1.26038 -0.926,2.45646 -0.50158,1.19608 -0.96458,2.16066 -0.463,0.96457 -0.82311,1.63335 -0.34724,0.65591 -0.46299,0.86169 l -1.53047,2.28927 z m 2.52076,-14.442973 q -0.41155,0 -0.70736,0.257221 -0.2958,0.257221 -0.56588,0.73308 -0.25722,0.475859 -0.52731,1.157496 -0.25722,0.681636 -0.5916,1.517606 -0.20578,0.73308 -0.38584,1.5176 -0.16719,0.78453 -0.30866,1.56905 -0.14147,0.77167 -0.25722,1.53047 -0.10289,0.7588 -0.18006,1.42758 -0.19291,1.58191 -0.30866,3.11237 0.28294,-0.84883 0.61733,-1.83913 0.33439,-1.00316 0.65591,-1.96774 0.33439,-0.97744 0.61733,-1.83913 0.29581,-0.87455 0.48872,-1.47902 0.09,-0.28295 0.25722,-0.70736 0.1672,-0.42442 0.36011,-0.91314 0.19292,-0.48872 0.38584,-1.01602 0.19291,-0.5273 0.34724,-1.016025 0.1672,-0.48872 0.27009,-0.913135 0.10288,-0.424415 0.10288,-0.720219 0,-0.411554 -0.27008,-0.411554 z"
         style=""
         id="path38" />
      <path
         d="m 193.75256,116.32765 q -1.23466,0.72022 -2.19924,1.26038 -0.96458,0.54017 -1.72338,0.90028 -0.74594,0.36011 -1.33755,0.54016 -0.57875,0.18006 -1.05461,0.18006 -0.97744,0 -1.72338,-0.59161 -0.74594,-0.59161 -1.24752,-1.69766 -0.50158,-1.11891 -0.7588,-2.70082 -0.24436,-1.58191 -0.24436,-3.56252 0,-0.77166 0.0643,-1.64621 0.0643,-0.87455 0.18006,-1.73625 -0.38583,-0.0514 -0.60447,-0.09 -0.20578,-0.0515 -0.45014,-0.09 -0.2315,-0.0514 -0.60447,-0.10289 -0.36011,-0.0514 -1.05461,-0.12861 -0.30866,-0.0386 -0.47585,-0.14147 -0.1672,-0.11575 -0.24436,-0.25722 -0.0772,-0.15433 -0.09,-0.30867 -0.0129,-0.16719 -0.0129,-0.28294 0,-0.25722 0.25722,-0.38583 0.24436,-0.14147 0.64305,-0.20578 0.38583,-0.0643 0.84883,-0.0643 0.47586,-0.0129 0.90028,0 0.43727,0.0129 0.77166,0.0257 0.34725,0 0.47586,-0.0257 0.34725,-1.73625 0.87455,-3.35674 0.54016,-1.63336 1.19608,-2.893739 0.66877,-1.273245 1.4533,-2.032047 0.78452,-0.771664 1.64621,-0.771664 0.55303,0 1.00317,0.308666 0.46299,0.308665 0.78452,0.823108 0.32153,0.514442 0.48872,1.208939 0.18006,0.681636 0.18006,1.427577 0,0.63019 -0.18006,1.33755 -0.18005,0.6945 -0.48872,1.42758 -0.30867,0.72022 -0.73308,1.46616 -0.41155,0.74594 -0.87455,1.47902 0.11575,0.0129 0.38583,0.0257 0.27008,0 0.61733,0.0129 0.36011,0.0129 0.77166,0.0386 0.41156,0.0129 0.79739,0.0257 0.38583,0.0129 0.72022,0.0257 0.33439,0.0129 0.55302,0.0257 0.25723,0.0129 0.37297,0.25722 0.11575,0.24436 0.11575,0.61733 0,0.45014 -0.25722,0.73309 -0.25722,0.28294 -0.56588,0.28294 h -4.93865 q -0.37297,0.51444 -0.7588,1.01602 -0.37297,0.48872 -0.6945,0.88742 -0.0514,0.79738 -0.09,1.56904 -0.0129,0.33439 -0.0257,0.6945 -0.0129,0.34725 -0.0257,0.6945 -0.0129,0.34725 -0.0257,0.66877 0,0.32153 0,0.59161 0,0.6945 0.12861,1.17036 0.12861,0.47586 0.37297,0.78452 0.24436,0.29581 0.59161,0.43728 0.36011,0.12861 0.79738,0.12861 0.27008,0 0.66878,-0.12861 0.41155,-0.12861 0.88741,-0.34725 0.48872,-0.2315 1.01602,-0.54016 0.54017,-0.30867 1.05461,-0.66878 0.5273,-0.37297 1.00316,-0.77166 0.47586,-0.41156 0.86169,-0.83597 z m -4.11553,-16.2821 q 0,-0.141472 -0.0257,-0.308665 -0.0129,-0.180055 -0.0772,-0.334388 -0.0643,-0.154333 -0.20578,-0.257221 -0.12861,-0.102889 -0.37297,-0.102889 -0.33439,0 -0.68164,0.591609 -0.33438,0.591604 -0.65591,1.517604 -0.30867,0.91314 -0.59161,2.01919 -0.27008,1.10605 -0.50158,2.14779 0.19292,0.0257 0.38583,0.0515 0.19292,0.0129 0.39869,0.0386 0.38584,-0.65591 0.79739,-1.41472 0.42441,-0.77166 0.7588,-1.50474 0.33439,-0.74594 0.55303,-1.38899 0.21864,-0.64306 0.21864,-1.05461 z"
         style=""
         id="path40" />
      <path
         d="m 199.92587,109.33123 q 0.10289,-0.43727 0.36011,-0.77166 0.27009,-0.34725 0.60447,-0.57875 0.34725,-0.2315 0.72022,-0.34725 0.37297,-0.11575 0.70736,-0.11575 0.39869,0 0.66878,0.18006 0.27008,0.16719 0.27008,0.54016 0,0.11575 -0.0386,0.27009 -0.0772,0.33438 -0.19292,0.91313 -0.11575,0.57875 -0.25722,1.31183 -0.12861,0.73308 -0.27008,1.55619 -0.14148,0.81024 -0.27009,1.62049 -0.32152,1.90344 -0.65591,4.08982 0.38583,-0.21864 0.83597,-0.54017 0.45014,-0.32152 1.00316,-0.86169 0.55303,-0.54016 1.23466,-1.35041 0.68164,-0.82311 1.53047,-2.04491 l 0.61733,2.85516 q -0.2315,0.39869 -0.60447,0.82311 -0.36011,0.41155 -0.81025,0.83596 -0.43727,0.41156 -0.92599,0.81025 -0.47586,0.38583 -0.93886,0.73308 -1.09319,0.82311 -2.35357,1.59477 -0.24436,1.37614 -0.57875,2.6751 -0.33439,1.31183 -0.79739,2.4436 -0.45013,1.14464 -1.04174,2.09636 -0.57875,0.95171 -1.32469,1.63335 -0.73308,0.68164 -1.64622,1.05461 -0.91313,0.38583 -2.01918,0.38583 -0.43728,0 -0.95172,-0.09 -0.50158,-0.09 -0.93886,-0.36011 -0.42441,-0.27008 -0.70736,-0.77166 -0.28294,-0.50158 -0.28294,-1.33755 0,-0.57875 0.2958,-1.31183 0.29581,-0.72022 0.81025,-1.53047 0.51444,-0.79738 1.2218,-1.67193 0.70736,-0.86169 1.53047,-1.72339 0.83597,-0.86169 1.73624,-1.69765 0.91314,-0.83597 1.83913,-1.59478 l 0.34725,-1.19607 q -0.6945,0.61733 -1.4533,1.00316 -0.74594,0.37297 -1.4533,0.37297 -0.61733,0 -1.20894,-0.24436 -0.57875,-0.25722 -1.02888,-0.72022 -0.45014,-0.47586 -0.72022,-1.14463 -0.27008,-0.68164 -0.27008,-1.53047 0,-1.11891 0.10288,-2.05777 0.11575,-0.93886 0.32153,-1.78769 0.20578,-0.84883 0.51444,-1.63335 0.30867,-0.79739 0.70736,-1.60763 0.29581,-0.57875 0.84883,-0.87456 0.55303,-0.30866 1.08033,-0.30866 0.45014,0 0.77166,0.2315 0.32153,0.21864 0.32153,0.6945 0,0.14147 -0.0386,0.30866 -0.0257,0.16719 -0.10289,0.36011 -0.2315,0.59161 -0.463,1.40186 -0.21864,0.79738 -0.39869,1.64621 -0.1672,0.83597 -0.27009,1.64622 -0.10288,0.81024 -0.10288,1.42757 0,0.32153 0.0386,0.6302 0.0514,0.2958 0.16719,0.54016 0.11575,0.2315 0.30867,0.38583 0.19291,0.14147 0.48872,0.14147 0.47586,0 0.86169,-0.41155 0.38583,-0.41155 0.66877,-0.9903 0.28295,-0.57875 0.45014,-1.19608 0.18006,-0.61733 0.2315,-1.02888 z m -6.01897,19.34304 q 0.54016,0 1.01602,-0.32153 0.48872,-0.30867 0.88742,-0.82311 0.41155,-0.51444 0.74594,-1.17036 0.33438,-0.65591 0.59161,-1.35041 0.25722,-0.68163 0.43727,-1.33755 0.18006,-0.65591 0.28295,-1.17035 -0.50159,0.33439 -1.02889,0.79738 -0.51444,0.463 -1.01602,0.9903 -0.48872,0.54017 -0.93886,1.10606 -0.43728,0.56588 -0.77166,1.08032 -0.33439,0.52731 -0.52731,0.97744 -0.19291,0.45014 -0.19291,0.74595 0,0.47586 0.51444,0.47586 z"
         style=""
         id="path42" />
    </g>
  </g>
</svg>
