<?xml version="1.0" encoding="UTF-8" standalone="no"?>
<!-- Created with Inkscape (http://www.inkscape.org/) -->

<svg
   xmlns:dc="http://purl.org/dc/elements/1.1/"
   xmlns:cc="http://creativecommons.org/ns#"
   xmlns:rdf="http://www.w3.org/1999/02/22-rdf-syntax-ns#"
   xmlns:svg="http://www.w3.org/2000/svg"
   xmlns="http://www.w3.org/2000/svg"
   xmlns:sodipodi="http://sodipodi.sourceforge.net/DTD/sodipodi-0.dtd"
   xmlns:inkscape="http://www.inkscape.org/namespaces/inkscape"
   width="463.215mm"
   height="90.669838mm"
   viewBox="0 0 463.215 90.669838"
   version="1.1"
   id="svg8"
   inkscape:version="0.92.4 (5da689c313, 2019-01-14)"
   sodipodi:docname="regon.svg">
  <defs
     id="defs2" />
  <sodipodi:namedview
     id="base"
     pagecolor="#ffffff"
     bordercolor="#666666"
     borderopacity="1.0"
     inkscape:pageopacity="0.0"
     inkscape:pageshadow="2"
     inkscape:zoom="0.35"
     inkscape:cx="461.51782"
     inkscape:cy="186.69639"
     inkscape:document-units="mm"
     inkscape:current-layer="layer1"
     showgrid="false"
     fit-margin-top="0"
     fit-margin-left="0"
     fit-margin-right="0"
     fit-margin-bottom="0"
     inkscape:window-width="1920"
     inkscape:window-height="1013"
     inkscape:window-x="-9"
     inkscape:window-y="-9"
     inkscape:window-maximized="1" />
  <metadata
     id="metadata5">
    <rdf:RDF>
      <cc:Work
         rdf:about="">
        <dc:format>image/svg+xml</dc:format>
        <dc:type
           rdf:resource="http://purl.org/dc/dcmitype/StillImage" />
        <dc:title></dc:title>
      </cc:Work>
    </rdf:RDF>
  </metadata>
  <g
     inkscape:label="Layer 1"
     inkscape:groupmode="layer"
     id="layer1"
     transform="translate(134.22879,-107.56025)">
    <g
       aria-label="Regon 302450608 "
       style="font-style:normal;font-variant:normal;font-weight:normal;font-stretch:normal;font-size:69.91409302px;line-height:1.25;font-family:Pacifico;-inkscape-font-specification:'Pacifico, Normal';font-variant-ligatures:normal;font-variant-caps:normal;font-variant-numeric:normal;font-feature-settings:normal;text-align:start;letter-spacing:0px;word-spacing:0px;writing-mode:lr-tb;text-anchor:start;fill:#000000;fill-opacity:1;stroke:none;stroke-width:1.74785233"
       id="text12">
      <path
         d="m -74.146366,123.4343 q 0,1.63861 -0.546203,3.44791 -0.546204,1.8093 -1.67275,3.58446 -1.126545,1.74103 -2.901708,3.37964 -1.741025,1.63861 -4.198942,2.93584 -2.457917,1.29724 -5.598589,2.18482 -3.140672,0.85344 -7.066513,1.09241 2.389642,0.88758 3.994116,2.28722 1.604474,1.39965 2.662744,3.14068 1.092407,1.70688 1.706887,3.6186 0.648617,1.91171 1.092408,3.75515 0.44379,1.84344 0.785168,3.55032 0.375515,1.67275 0.853443,2.96999 0.512066,1.26309 1.263096,2.04826 0.751031,0.75103 2.014127,0.75103 1.160683,0 2.526193,-0.37551 1.399647,-0.40966 2.833432,-1.12655 1.467923,-0.71689 2.867571,-1.70689 1.433785,-0.98999 2.662743,-2.18481 l 3.959978,6.691 q 0,-0.0341 -0.648617,0.44379 -0.648617,0.44379 -1.8093,1.16068 -1.160683,0.68275 -2.765157,1.50206 -1.570336,0.85344 -3.482049,1.57034 -1.911714,0.71689 -4.062392,1.19482 -2.11654,0.47793 -4.335493,0.47793 -2.492055,0 -4.267217,-1.22896 -1.741025,-1.22896 -2.969984,-3.24309 -1.228958,-2.01413 -2.048264,-4.57446 -0.819306,-2.59446 -1.433785,-5.29135 -0.61448,-2.69688 -1.160683,-5.25721 -0.512067,-2.59447 -1.160684,-4.60859 -0.648617,-2.01413 -1.536198,-3.24309 -0.887581,-1.22896 -2.218952,-1.22896 h -2.15068 q -0.68275,7.47617 -1.70689,13.41614 -1.02413,5.90582 -2.73102,10.03649 -1.67274,4.13067 -4.23307,6.31548 -2.5262,2.18482 -6.21307,2.18482 -2.73102,0 -5.01825,-1.05827 -2.25309,-1.02413 -4.09653,-2.83343 -1.8093,-1.8093 -3.17481,-4.23308 -1.36551,-2.42378 -2.28723,-5.18894 -0.88758,-2.79929 -1.36551,-5.76928 -0.44379,-2.96998 -0.44379,-5.90583 0,-5.29135 1.29723,-10.34373 1.33138,-5.08653 3.78929,-9.59271 2.49206,-4.50618 6.00825,-8.26133 3.51618,-3.78929 7.88581,-6.52031 4.40377,-2.76516 9.55857,-4.30136 5.18894,-1.53619 10.958217,-1.53619 2.56033,0 5.086523,0.47792 2.526193,0.47793 4.813422,1.39965 2.287228,0.92172 4.233079,2.28723 1.979989,1.36551 3.379637,3.14067 1.433785,1.74103 2.253091,3.89171 0.819305,2.15067 0.819305,4.67687 z m -21.199537,-8.2272 q -5.632727,0 -10.070637,1.57034 -4.40376,1.57033 -7.74926,4.23308 -3.3455,2.66274 -5.70101,6.17893 -2.3555,3.51618 -3.82342,7.37375 -1.46793,3.85756 -2.15068,7.81754 -0.64862,3.95998 -0.64862,7.54444 0,2.76516 0.47793,5.56445 0.47793,2.76516 1.50206,4.98411 1.02413,2.21896 2.62861,3.61861 1.63861,1.3655 3.92584,1.3655 1.16068,0 2.04826,-0.88758 0.88758,-0.92172 1.57034,-2.42378 0.68275,-1.53619 1.19482,-3.51618 0.51207,-2.01413 0.85344,-4.16481 0.34138,-2.15068 0.54621,-4.33549 0.20482,-2.18482 0.30724,-4.09653 0.13655,-1.91171 0.17068,-3.37964 0.0341,-1.50206 0.0341,-2.28722 -2.66274,-1.2631 -4.06239,-2.35551 -1.36551,-1.09241 -1.36551,-2.52619 0,-0.34138 0.0341,-0.81931 0.0683,-0.47793 0.23896,-0.88758 0.17069,-0.40965 0.47793,-0.68275 0.34138,-0.30724 0.88758,-0.30724 0.23897,0 0.95586,0.10241 0.71689,0.0683 1.50206,0.20483 0.78517,0.10241 1.43379,0.20482 0.68275,0.0683 0.88758,0.0683 l 0.0341,-0.71689 q 0.0341,-0.54621 0.10242,-1.50206 0.10241,-0.95586 0.30724,-2.04827 0.20482,-1.09241 0.58034,-2.18481 0.40965,-1.12655 1.05827,-2.01413 0.64862,-0.92172 1.5362,-1.46792 0.92172,-0.58035 2.21895,-0.58035 1.70689,0 2.25309,0.78517 0.58034,0.75103 0.58034,1.94585 v 0.30724 q -0.0341,1.29724 -0.40965,3.44792 -0.34138,2.11653 -0.64862,4.91583 5.564455,-0.10241 9.183055,-1.09241 3.618601,-1.02413 5.735141,-2.56033 2.11654,-1.5362 2.969983,-3.3455 0.853444,-1.84344 0.853444,-3.55032 0,-1.67275 -0.819306,-3.20895 -0.785168,-1.5362 -2.355504,-2.69688 -1.570336,-1.19482 -3.891703,-1.87758 -2.321366,-0.71689 -5.393763,-0.71689 z"
         style="font-style:normal;font-variant:normal;font-weight:normal;font-stretch:normal;font-size:69.91409302px;font-family:Pacifico;-inkscape-font-specification:'Pacifico, Normal';font-variant-ligatures:normal;font-variant-caps:normal;font-variant-numeric:normal;font-feature-settings:normal;text-align:start;writing-mode:lr-tb;text-anchor:start;stroke-width:1.74785233"
         id="path14" />
      <path
         d="m -62.471257,166.55026 q -3.208948,0 -5.632727,-1.16068 -2.389642,-1.16068 -3.994116,-3.10654 -1.604474,-1.97998 -2.423779,-4.54031 -0.785168,-2.59447 -0.785168,-5.42791 0,-1.91171 0.375515,-4.02825 0.375515,-2.15068 1.126545,-4.19894 0.785168,-2.04827 1.945851,-3.8917 1.160684,-1.87758 2.696882,-3.27723 1.570336,-1.43378 3.482049,-2.25309 1.945852,-0.85344 4.301356,-0.85344 1.911713,0 3.550325,0.61448 1.638611,0.61448 2.833432,1.74102 1.228959,1.09241 1.911714,2.66275 0.682755,1.57033 0.682755,3.51618 0,2.11654 -1.05827,4.23308 -1.024133,2.11654 -2.867571,3.99412 -1.843438,1.87758 -4.403768,3.3455 -2.526193,1.46792 -5.496176,2.28723 0.512066,0.92172 0.989994,1.5362 0.512066,0.61447 1.024132,0.95585 0.512066,0.34138 1.05827,0.47793 0.580342,0.13655 1.228959,0.13655 2.048264,0 4.301355,-0.8193 2.287229,-0.81931 4.437907,-2.04827 2.150677,-1.22896 4.062391,-2.66274 1.911713,-1.46793 3.243085,-2.76516 l 4.403769,4.57446 q -3.004122,3.10653 -6.383758,5.49617 -1.467923,1.02414 -3.17481,2.01413 -1.672749,0.99 -3.550325,1.77516 -1.843438,0.75103 -3.857565,1.22896 -1.979988,0.44379 -4.028253,0.44379 z m -4.540319,-16.04474 q 1.228958,0 2.662743,-0.61448 1.467923,-0.64861 2.696882,-1.63861 1.263096,-0.98999 2.11654,-2.15067 0.853443,-1.16069 0.853443,-2.2531 0,-1.53619 -0.580341,-2.52619 -0.546204,-0.98999 -1.36551,-0.98999 -1.467923,0 -2.526193,0.5462 -1.024132,0.54621 -1.741025,1.43379 -0.682754,0.85344 -1.126545,1.97999 -0.409653,1.0924 -0.648617,2.21895 -0.204826,1.12654 -0.273102,2.18481 -0.06827,1.05827 -0.06827,1.8093 z"
         style="font-style:normal;font-variant:normal;font-weight:normal;font-stretch:normal;font-size:69.91409302px;font-family:Pacifico;-inkscape-font-specification:'Pacifico, Normal';font-variant-ligatures:normal;font-variant-caps:normal;font-variant-numeric:normal;font-feature-settings:normal;text-align:start;writing-mode:lr-tb;text-anchor:start;stroke-width:1.74785233"
         id="path16" />
      <path
         d="m -33.010387,162.9658 q -1.843438,1.63861 -3.857565,2.66274 -1.979989,0.99 -3.857564,0.99 -1.638612,0 -3.208948,-0.64862 -1.536198,-0.68275 -2.731019,-1.91171 -1.194821,-1.2631 -1.911714,-3.03826 -0.716892,-1.8093 -0.716892,-4.06239 0,-2.56033 0.716892,-5.25721 0.716893,-2.69689 1.979989,-5.25722 1.263097,-2.59447 2.969984,-4.88169 1.741024,-2.28723 3.789289,-3.99412 2.048264,-1.70689 4.301355,-2.69688 2.287229,-1.02413 4.642733,-1.02413 0.785168,0 1.228959,0.30724 0.44379,0.30724 0.716892,0.71689 0.30724,0.37551 0.580342,0.75103 0.273102,0.37551 0.682755,0.5462 0.409652,0.17069 0.819305,0.23897 0.443791,0.0341 0.887582,0.0341 0.375515,0 0.75103,0 0.409653,-0.0341 0.785168,-0.0341 0.512066,0 0.955857,0.10241 0.44379,0.10241 0.785168,0.44379 0.341377,0.34138 0.512066,0.95586 0.204826,0.61448 0.204826,1.67275 0,0.88758 -0.136551,2.38964 -0.136551,1.50206 -0.375515,3.3455 -0.238964,1.84344 -0.546204,3.92584 -0.273102,2.04826 -0.580341,4.02825 -0.716893,4.71101 -1.638612,10.07063 1.024132,-0.58034 2.218953,-1.43378 1.194821,-0.85344 2.662744,-2.28723 1.467923,-1.43378 3.277223,-3.58446 1.8093,-2.18482 4.062391,-5.4279 l 1.638612,7.57858 q -0.614479,1.05827 -1.604474,2.18481 -0.955857,1.09241 -2.150678,2.21895 -1.160683,1.09241 -2.457917,2.15068 -1.263096,1.02413 -2.492055,1.94585 -2.901708,2.18482 -6.247207,4.23308 -0.648617,3.65274 -1.536198,7.10065 -0.887581,3.48205 -2.11654,6.48617 -1.194821,3.03826 -2.765157,5.56446 -1.536198,2.52619 -3.516187,4.33549 -1.945851,1.8093 -4.369631,2.79929 -2.42378,1.02414 -5.359625,1.02414 -1.160683,0 -2.526193,-0.23897 -1.331372,-0.23896 -2.492055,-0.95586 -1.126546,-0.71689 -1.877576,-2.04826 -0.75103,-1.33137 -0.75103,-3.55032 0,-1.5362 0.785168,-3.48205 0.785168,-1.91172 2.150678,-4.0624 1.365509,-2.11654 3.243085,-4.4379 1.877576,-2.28723 4.062391,-4.57446 2.218953,-2.28723 4.608595,-4.50618 2.42378,-2.21895 4.881697,-4.23308 z m -7.544441,-7.47617 q 0,0.85345 0.102414,1.67275 0.13655,0.78517 0.44379,1.43379 0.30724,0.61448 0.819306,1.02413 0.512066,0.37552 1.297234,0.37552 1.263096,0 2.287229,-1.09241 1.024132,-1.09241 1.775162,-2.62861 0.751031,-1.5362 1.194821,-3.17481 0.477929,-1.63861 0.614479,-2.73102 l 2.082403,-10.03649 q -1.399648,0 -2.73102,0.71689 -1.331371,0.68275 -2.526192,1.87758 -1.160684,1.19482 -2.150678,2.73102 -0.989995,1.53619 -1.706887,3.24308 -0.716893,1.67275 -1.126546,3.37964 -0.375515,1.70688 -0.375515,3.20894 z m -5.052385,36.18601 q 1.433785,0 2.696881,-0.85344 1.297234,-0.81931 2.355504,-2.18482 1.092408,-1.36551 1.979989,-3.10653 0.887582,-1.74103 1.570336,-3.58447 0.682755,-1.8093 1.160684,-3.55032 0.477928,-1.74103 0.75103,-3.10654 -1.331372,0.88759 -2.731019,2.11654 -1.36551,1.22896 -2.696882,2.62861 -1.297234,1.43379 -2.492055,2.93585 -1.160683,1.50206 -2.048264,2.86757 -0.887582,1.39964 -1.399648,2.59446 -0.512066,1.19483 -0.512066,1.97999 0,1.2631 1.36551,1.2631 z"
         style="font-style:normal;font-variant:normal;font-weight:normal;font-stretch:normal;font-size:69.91409302px;font-family:Pacifico;-inkscape-font-specification:'Pacifico, Normal';font-variant-ligatures:normal;font-variant-caps:normal;font-variant-numeric:normal;font-feature-settings:normal;text-align:start;writing-mode:lr-tb;text-anchor:start;stroke-width:1.74785233"
         id="path18" />
      <path
         d="m 5.5311237,140.98109 q 0.9899945,1.97999 1.4679229,4.19895 0.5120661,2.18481 0.5120661,4.19894 0,2.01413 -0.4437906,4.06239 -0.4437907,2.04826 -1.2972342,3.95998 -0.8193058,1.91171 -2.0482644,3.58446 -1.194821,1.67275 -2.76515703,2.90171 -1.53619833,1.22896 -3.37963637,1.94585 -1.843438,0.71689 -3.9258401,0.71689 -3.0041212,0 -5.154799,-1.29723 -2.11654,-1.33137 -3.482049,-3.44791 -1.36551,-2.11654 -2.014127,-4.77929 -0.614479,-2.66274 -0.614479,-5.39376 0,-3.75515 1.126545,-6.99824 1.126545,-3.27722 3.208948,-5.66686 2.11654,-2.42378 5.1547984,-3.78929 3.038259,-1.39965 6.8275482,-1.39965 3.2430854,0 6.0765178,1.02413 2.8334325,0.99 5.2913496,2.69689 2.492055,1.67274 4.608595,3.85756 2.150678,2.18482 3.994116,4.50618 l -0.648617,4.81342 q -0.921719,-1.22896 -2.492055,-2.66274 -1.570336,-1.43379 -3.345499,-2.7993 -1.741025,-1.36551 -3.4479116,-2.56033 -1.7068871,-1.22895 -2.9358457,-2.04826 z m -10.5485619,19.01473 q 1.1606832,0 2.2530909,-1.16069 1.0924077,-1.19482 1.91171351,-2.96998 0.81930578,-1.8093 1.29723415,-3.95998 0.51206611,-2.18481 0.51206611,-4.1648 0,-1.57034 -0.23896419,-2.90171 -0.23896418,-1.36551 -0.7168925509,-2.3555 -0.4779283691,-0.99 -1.2289586291,-1.57034 -0.7510303,-0.58034 -1.8093003,-0.58034 -1.3996474,0 -2.6627438,1.19482 -1.2630964,1.19482 -2.2189531,3.0724 -0.9558568,1.84343 -1.5020606,4.09652 -0.5462039,2.25309 -0.5462039,4.3355 0,1.43378 0.273102,2.69688 0.2731019,1.2631 0.8534435,2.21895 0.5803416,0.92172 1.5361983,1.50206 0.9558568,0.54621 2.2872286,0.54621 z"
         style="font-style:normal;font-variant:normal;font-weight:normal;font-stretch:normal;font-size:69.91409302px;font-family:Pacifico;-inkscape-font-specification:'Pacifico, Normal';font-variant-ligatures:normal;font-variant-caps:normal;font-variant-numeric:normal;font-feature-settings:normal;text-align:start;writing-mode:lr-tb;text-anchor:start;stroke-width:1.74785233"
         id="path20" />
      <path
         d="m 14.338655,159.41547 q 0,-2.25309 0.273102,-5.18893 0.273102,-2.96999 0.682755,-6.00824 0.409653,-3.0724 0.921719,-5.90583 0.512066,-2.83344 0.989995,-4.84756 0.375515,-1.57034 1.433785,-2.62861 1.092408,-1.05827 2.935846,-1.05827 1.843438,0 2.56033,1.12655 0.716893,1.12654 0.716893,3.00412 0,0.51206 -0.102414,1.39965 -0.102413,0.85344 -0.273102,1.91171 -0.13655,1.02413 -0.307239,2.15068 -0.170689,1.0924 -0.341378,2.04826 -0.136551,0.92172 -0.238964,1.63861 -0.102413,0.68276 -0.102413,0.92172 h 0.682755 q 0.204826,-0.37551 0.648617,-1.19482 0.443791,-0.85344 1.024132,-1.94585 0.580342,-1.09241 1.228959,-2.28723 0.682755,-1.22896 1.263096,-2.32137 0.580342,-1.12654 1.05827,-1.97998 0.477929,-0.85345 0.716893,-1.2631 1.092407,-1.84344 2.492055,-2.52619 1.399647,-0.68276 3.106534,-0.68276 1.706887,0 2.696882,1.43379 1.024132,1.43378 1.024132,3.95997 0,0.37552 -0.170689,1.2631 -0.136551,0.88758 -0.375515,2.11654 -0.238964,1.22896 -0.546204,2.69688 -0.273102,1.46793 -0.512066,3.00412 -0.238964,1.5362 -0.409653,3.03826 -0.136551,1.50206 -0.136551,2.76516 0,2.11654 0.512066,3.48205 0.546204,1.36551 1.67275,1.36551 0.512066,0 1.160683,-0.30724 0.682755,-0.30724 1.433785,-0.78517 0.785168,-0.51207 1.570336,-1.16068 0.819306,-0.64862 1.604474,-1.33137 1.8093,-1.60448 3.789289,-3.6186 l 0.580342,7.64685 -1.706887,1.29723 q -1.399648,1.05827 -2.867571,2.11654 -1.433785,1.05827 -3.004121,1.91172 -1.570336,0.8193 -3.277223,1.36551 -1.706887,0.51206 -3.584463,0.51206 -1.877575,0 -3.17481,-2.69688 -1.263096,-2.73102 -1.263096,-7.95409 0,-2.04827 0.273102,-4.40377 0.273102,-2.38964 0.682755,-5.12066 h -0.546204 l -8.944088,17.75162 q -0.682755,1.39965 -1.536198,1.91172 -0.853444,0.51206 -1.979989,0.51206 -1.399648,0 -2.253091,-0.58034 -0.853444,-0.61448 -1.331372,-1.60447 -0.443791,-1.02414 -0.61448,-2.28723 -0.136551,-1.29724 -0.136551,-2.66275 z"
         style="font-style:normal;font-variant:normal;font-weight:normal;font-stretch:normal;font-size:69.91409302px;font-family:Pacifico;-inkscape-font-specification:'Pacifico, Normal';font-variant-ligatures:normal;font-variant-caps:normal;font-variant-numeric:normal;font-feature-settings:normal;text-align:start;writing-mode:lr-tb;text-anchor:start;stroke-width:1.74785233"
         id="path22" />
      <path
         d="m 68.378708,158.04997 q 0,1.16068 0.238964,1.97998 0.238964,0.81931 0.648617,1.33138 0.443791,0.51206 0.989994,0.75103 0.580342,0.23896 1.194821,0.23896 0.887582,0 1.809301,-0.40965 0.921719,-0.44379 1.638611,-1.19482 0.75103,-0.75103 1.228959,-1.77517 0.477928,-1.05827 0.477928,-2.25309 0,-1.94585 -0.477928,-3.24308 -0.477929,-1.33137 -1.467923,-2.15068 -0.955857,-0.85344 -2.457917,-1.29723 -1.467923,-0.44379 -3.447912,-0.64862 -1.092408,-0.0683 -1.570336,-0.44379 -0.477929,-0.40965 -0.477929,-0.99 0,-0.47792 0.102414,-1.02413 0.136551,-0.58034 0.375515,-1.05827 0.273102,-0.51206 0.716892,-0.8193 0.443791,-0.34138 1.05827,-0.34138 1.36551,0 2.457918,-0.51207 1.092407,-0.51206 1.843438,-1.26309 0.785168,-0.78517 1.160683,-1.70689 0.409653,-0.95586 0.409653,-1.84344 0,-1.16068 -0.751031,-1.97999 -0.716892,-0.8193 -2.287228,-0.8193 -1.228959,0 -2.082402,0.58034 -0.819306,0.58034 -0.819306,1.36551 0,0.40965 0.273102,0.85344 0.307239,0.44379 0.989994,0.81931 0.375515,0.20482 0.375515,0.44379 0,0.2731 -0.512066,0.5462 -0.477928,0.23897 -1.126545,0.44379 -0.648617,0.17069 -1.228959,0.30724 -0.580342,0.10241 -0.785168,0.10241 -0.409653,0 -0.819306,-0.17068 -0.375515,-0.20483 -0.716892,-0.64862 -0.341378,-0.44379 -0.546204,-1.19482 -0.204827,-0.75103 -0.204827,-1.87758 0,-1.77516 0.785168,-3.07239 0.785168,-1.29724 2.082403,-2.15068 1.331372,-0.85345 3.004121,-1.2631 1.672749,-0.40965 3.447912,-0.40965 1.911713,0 3.755151,0.47793 1.877576,0.44379 3.311361,1.33137 1.467923,0.85344 2.355504,2.15068 0.921719,1.26309 0.921719,2.93584 0,0.95586 -0.238964,2.11654 -0.204827,1.12655 -0.853444,2.25309 -0.614479,1.12655 -1.8093,2.15068 -1.160683,0.99 -3.038259,1.67275 2.082402,0.5462 3.550325,1.63861 1.502061,1.05827 2.42378,2.52619 0.955857,1.43379 1.399647,3.14068 0.443791,1.67275 0.443791,3.44791 0,1.8093 -0.921719,3.6186 -0.921719,1.77516 -2.594468,3.20895 -1.638612,1.39964 -3.925841,2.28723 -2.253091,0.88758 -4.949972,0.88758 -3.17481,0 -5.462039,-0.68276 -2.25309,-0.68275 -3.721013,-1.94585 -1.433785,-1.2631 -2.11654,-3.00412 -0.648617,-1.77516 -0.648617,-3.8917 0,-1.29724 0.375515,-2.15068 0.409653,-0.88758 1.05827,-1.39965 0.648617,-0.5462 1.50206,-0.75103 0.853444,-0.23896 1.775163,-0.23896 0.785168,0 1.775162,0.20482 0.989995,0.17069 1.843438,0.47793 0.853444,0.30724 1.433786,0.68276 0.580341,0.37551 0.580341,0.71689 0,0.2731 -0.580341,0.44379 -0.580342,0.17069 -1.297235,0.47793 -0.716892,0.2731 -1.297234,0.75103 -0.580341,0.44379 -0.580341,1.2631 z"
         style="font-style:normal;font-variant:normal;font-weight:normal;font-stretch:normal;font-size:69.91409302px;font-family:Pacifico;-inkscape-font-specification:'Pacifico, Normal';font-variant-ligatures:normal;font-variant-caps:normal;font-variant-numeric:normal;font-feature-settings:normal;text-align:start;writing-mode:lr-tb;text-anchor:start;stroke-width:1.74785233"
         id="path24" />
      <path
         d="m 100.3999,166.55026 q -2.62861,0 -4.608599,-1.12654 -1.945851,-1.16069 -3.243085,-3.0724 -1.297234,-1.94585 -1.945852,-4.47204 -0.648617,-2.56033 -0.648617,-5.39377 0,-2.49205 0.443791,-5.08652 0.477928,-2.62861 1.36551,-5.05239 0.887581,-2.45791 2.184815,-4.60859 1.331372,-2.18482 3.038259,-3.78929 1.706887,-1.63861 3.789288,-2.56033 2.11654,-0.95586 4.57446,-0.95586 2.83343,0 4.8817,1.09241 2.0824,1.05827 3.41377,2.90171 1.33137,1.84344 1.94585,4.30135 0.64862,2.42378 0.64862,5.1548 0,2.5262 -0.51207,5.18894 -0.47793,2.66274 -1.43378,5.18894 -0.95586,2.52619 -2.35551,4.77928 -1.36551,2.21895 -3.14067,3.8917 -1.74102,1.67275 -3.85756,2.66275 -2.11654,0.95585 -4.54032,0.95585 z m 0.5462,-6.21307 q 0.92172,0 1.8093,-0.8193 0.88758,-0.85345 1.67275,-2.25309 0.78517,-1.39965 1.43378,-3.20895 0.68276,-1.8093 1.16069,-3.72101 0.47793,-1.94586 0.75103,-3.85757 0.2731,-1.91171 0.2731,-3.51619 0,-1.33137 -0.17069,-2.49205 -0.17069,-1.16068 -0.51206,-2.01413 -0.34138,-0.85344 -0.88759,-1.33137 -0.51206,-0.51207 -1.26309,-0.51207 -1.02413,0 -1.94585,0.85345 -0.88758,0.8193 -1.67275,2.18481 -0.75103,1.36551 -1.36551,3.14067 -0.580344,1.77517 -1.024135,3.68688 -0.409653,1.87758 -0.648617,3.75515 -0.204826,1.84344 -0.204826,3.41378 0,1.43378 0.136551,2.66274 0.170688,1.19482 0.477928,2.11654 0.341377,0.88758 0.819306,1.39965 0.512063,0.51206 1.160683,0.51206 z"
         style="font-style:normal;font-variant:normal;font-weight:normal;font-stretch:normal;font-size:69.91409302px;font-family:Pacifico;-inkscape-font-specification:'Pacifico, Normal';font-variant-ligatures:normal;font-variant-caps:normal;font-variant-numeric:normal;font-feature-settings:normal;text-align:start;writing-mode:lr-tb;text-anchor:start;stroke-width:1.74785233"
         id="path26" />
      <path
         d="m 143.8231,166.51612 q -0.98999,0 -2.01412,-0.2731 -0.99,-0.30724 -2.01413,-0.78517 -0.98999,-0.51206 -2.01413,-1.12654 -0.98999,-0.64862 -1.97998,-1.36551 -1.97999,1.50206 -4.19895,2.45792 -2.21895,0.92172 -4.711,1.0924 -1.77517,0 -3.31137,-0.61447 -1.53619,-0.64862 -2.69688,-1.67275 -1.12654,-1.05827 -1.77516,-2.42378 -0.64862,-1.36551 -0.64862,-2.7993 0,-1.12654 0.37552,-2.28723 0.37551,-1.19482 1.16068,-2.15067 0.81931,-0.99 2.04827,-1.60448 1.26309,-0.61448 3.03825,-0.61448 2.69689,0 4.74515,0.78517 2.0824,0.78517 3.82343,1.87758 1.02413,-1.22896 1.91171,-2.62861 0.92172,-1.43379 1.60448,-2.93585 0.68275,-1.50206 1.05827,-3.00412 0.40965,-1.5362 0.40965,-3.00412 0,-2.49205 -0.47793,-4.06239 -0.47793,-1.60447 -1.2631,-2.49205 -0.75103,-0.88759 -1.67275,-1.19483 -0.92172,-0.34137 -1.8093,-0.34137 -1.0924,0 -2.0824,0.37551 -0.95586,0.37552 -1.74102,1.05827 -0.75103,0.64862 -1.19482,1.57034 -0.44379,0.92172 -0.44379,2.04826 0,0.61448 0.95585,1.2631 0.99,0.64862 3.14067,1.33137 0.0683,0.20483 0.0683,0.34138 0,0.40965 -0.78517,0.88758 -0.78517,0.44379 -1.97999,0.85344 -1.16068,0.37552 -2.56033,0.64862 -1.39965,0.23896 -2.6286,0.23896 -0.27311,-0.2731 -0.54621,-0.30723 -0.23896,-0.0341 -0.44379,-0.0341 -1.43378,-1.16069 -2.0824,-2.49206 -0.64862,-1.36551 -0.64862,-2.79929 0,-1.91172 1.05827,-3.78929 1.09241,-1.91172 2.93585,-3.41378 1.87757,-1.50206 4.36963,-2.42378 2.52619,-0.92171 5.35962,-0.92171 0.75103,0 1.97999,0.17068 1.2631,0.13656 2.69688,0.61448 1.46793,0.47793 2.93585,1.33138 1.50206,0.8193 2.69688,2.18481 1.22896,1.36551 1.97999,3.3455 0.78517,1.97999 0.78517,4.67687 0,1.50206 -0.51207,3.55033 -0.47793,2.01412 -1.43378,4.30135 -0.92172,2.25309 -2.32137,4.6086 -1.36551,2.3555 -3.10653,4.4379 1.16068,0.58034 2.38964,0.95586 1.26309,0.34138 2.76516,0.34138 0.37551,0 0.8193,-0.51207 0.47793,-0.5462 0.88758,-1.19482 0.40966,-0.64862 0.75103,-1.16068 0.37552,-0.54621 0.54621,-0.54621 0.47793,0 0.75103,0.37552 0.30724,0.37551 0.30724,1.33137 0,1.2631 -0.54621,3.65274 -0.17069,0.68275 -0.47793,1.43378 -0.30724,0.75103 -0.85344,1.39965 -0.5462,0.61448 -1.39965,1.02413 -0.8193,0.40965 -1.97999,0.40965 z m -17.37611,-6.48617 q 1.43379,0 3.44792,-1.43378 -0.81931,-0.51207 -1.57034,-0.81931 -0.71689,-0.30724 -1.29723,-0.30724 -1.5362,0 -2.18482,0.27311 -0.61448,0.2731 -0.61448,0.68275 0,0.30724 0.17069,0.58034 0.20483,0.2731 0.51207,0.51207 0.30724,0.23896 0.71689,0.37551 0.40965,0.13655 0.8193,0.13655 z"
         style="font-style:normal;font-variant:normal;font-weight:normal;font-stretch:normal;font-size:69.91409302px;font-family:Pacifico;-inkscape-font-specification:'Pacifico, Normal';font-variant-ligatures:normal;font-variant-caps:normal;font-variant-numeric:normal;font-feature-settings:normal;text-align:start;writing-mode:lr-tb;text-anchor:start;stroke-width:1.74785233"
         id="path28" />
      <path
         d="m 176.08327,167.8475 q -1.46792,0 -3.00412,0.10241 -1.50206,0.13655 -2.90171,0.13655 -1.09241,0 -1.91171,-0.17069 -0.81931,-0.13655 -1.39965,-0.58034 -0.58034,-0.44379 -0.88758,-1.19482 -0.2731,-0.78517 -0.2731,-2.01413 0,-1.36551 0.34138,-3.14067 0.34137,-1.77516 0.85344,-3.75515 -2.11654,0 -3.8917,0.44379 -1.77517,0.40965 -3.3455,0.95586 -1.57034,0.51206 -3.00412,0.95585 -1.39965,0.40966 -2.76516,0.40966 -0.61448,0 -0.88758,-0.44379 -0.2731,-0.4438 -0.2731,-1.09241 0,-0.88758 0.5462,-2.0824 0.5462,-1.19483 1.43379,-2.5262 0.71689,-1.87757 1.29723,-3.48205 0.61448,-1.63861 1.09241,-3.14067 0.47793,-1.5362 0.88758,-3.0724 0.40965,-1.53619 0.78517,-3.24308 0.40965,-1.74103 0.8193,-3.72101 0.40966,-2.01413 0.88758,-4.50619 0.20483,-0.5462 0.81931,-0.92172 0.64862,-0.37551 1.5362,-0.61447 0.88758,-0.27311 1.91171,-0.37552 1.05827,-0.13655 2.0824,-0.13655 0.85345,0 1.60448,0.10241 0.78517,0.0683 1.33137,0.20483 0.58034,0.13655 0.92172,0.37551 0.34138,0.20483 0.34138,0.44379 -0.37552,2.62861 -1.09241,5.22308 -0.68276,2.59447 -1.63861,5.22307 -0.92172,2.62861 -2.08241,5.35963 -1.12654,2.69688 -2.38964,5.53031 1.29724,0.0683 2.18482,0.10242 0.88758,0 1.60447,0 h 0.44379 q 0.68276,-2.21896 1.36551,-4.30136 0.68276,-2.11654 1.2631,-3.95998 0.20482,-0.88758 0.75103,-1.50206 0.58034,-0.64862 1.29723,-1.02413 0.7169,-0.40965 1.46793,-0.58034 0.78516,-0.20483 1.39964,-0.20483 1.60448,0 2.15068,0.51207 0.58034,0.51206 0.58034,1.39965 0,0.5462 -0.23896,1.46792 -0.20483,0.92172 -0.58034,2.0824 -0.37552,1.16068 -0.85345,2.52619 -0.47793,1.36551 -0.95585,2.7993 1.70688,-0.2731 3.07239,-0.51207 1.36551,-0.2731 2.32137,-0.2731 0.44379,0 0.61448,0.37551 0.20482,0.37552 0.20482,0.99 0,1.46792 -0.2731,2.3555 -0.23896,0.88758 -0.58034,1.39965 -0.34138,0.47793 -0.68275,0.64862 -0.34138,0.13655 -0.51207,0.13655 -1.29723,0 -2.73102,-0.0341 -1.39965,-0.0683 -2.93584,-0.13655 -0.27311,1.09241 -0.47793,2.15068 -0.20483,1.02413 -0.2731,1.94585 v 0.64862 q 0,0.61448 0.47792,1.39964 0.51207,0.78517 1.09241,1.57034 0.58034,0.75103 1.05827,1.39965 0.51207,0.64861 0.51207,1.02413 0,0.17069 -0.10242,0.23896 -0.0683,0.10242 -0.40965,0.10242 z"
         style="font-style:normal;font-variant:normal;font-weight:normal;font-stretch:normal;font-size:69.91409302px;font-family:Pacifico;-inkscape-font-specification:'Pacifico, Normal';font-variant-ligatures:normal;font-variant-caps:normal;font-variant-numeric:normal;font-feature-settings:normal;text-align:start;writing-mode:lr-tb;text-anchor:start;stroke-width:1.74785233"
         id="path30" />
      <path
         d="m 197.79486,140.02524 q -1.43378,-0.13655 -2.42378,-0.30724 -0.95586,-0.20483 -1.67275,-0.34138 -0.71689,-0.17069 -1.26309,-0.2731 -0.54621,-0.10241 -1.16069,-0.10241 -0.20482,0 -0.44379,0.0341 -0.23896,0 -0.51206,0.0341 0.13655,0.81931 0.2731,1.74103 0.13655,0.78516 0.2731,1.8093 0.17069,1.02413 0.40965,2.11654 2.04827,-0.20483 3.82343,-0.20483 3.27722,0 5.56445,0.61448 2.28723,0.58034 3.78929,1.57034 1.5362,0.95585 2.38964,2.21895 0.85345,1.26309 1.2631,2.59447 0.44379,1.29723 0.5462,2.59446 0.10242,1.2631 0.10242,2.28723 0,1.94585 -1.02414,3.85757 -1.02413,1.91171 -2.86757,3.44791 -1.8093,1.50206 -4.33549,2.45792 -2.52619,0.92172 -5.53031,0.92172 -3.17481,0 -5.46204,-0.68276 -2.25309,-0.68275 -3.72102,-1.94585 -1.43378,-1.2631 -2.11654,-3.00412 -0.64861,-1.77516 -0.64861,-3.8917 0,-1.29724 0.37551,-2.15068 0.40965,-0.88758 1.05827,-1.39965 0.64862,-0.5462 1.50206,-0.75103 0.85345,-0.23896 1.77516,-0.23896 0.78517,0 1.77517,0.20482 0.98999,0.17069 1.84344,0.47793 0.85344,0.30724 1.43378,0.68276 0.58034,0.37551 0.58034,0.71689 0,0.2731 -0.58034,0.44379 -0.58034,0.17069 -1.29723,0.47793 -0.7169,0.2731 -1.29724,0.75103 -0.58034,0.44379 -0.58034,1.2631 0,1.16068 0.23896,1.97998 0.23897,0.81931 0.64862,1.33138 0.44379,0.51206 0.99,0.75103 0.58034,0.23896 1.19482,0.23896 1.12654,0 2.28723,-0.47793 1.16068,-0.47793 2.0824,-1.29723 0.95585,-0.85345 1.5362,-2.01413 0.61448,-1.16068 0.61448,-2.52619 0,-1.67275 -0.47793,-2.7993 -0.47793,-1.16068 -1.46793,-1.87757 -0.95585,-0.71689 -2.45791,-1.09241 -1.46793,-0.37552 -3.44791,-0.5462 -0.99,-0.17069 -1.67275,-0.23897 -0.68276,-0.10241 -1.16069,-0.30724 -0.44379,-0.20482 -0.75103,-0.64861 -0.2731,-0.4438 -0.44379,-1.29724 -0.13655,-0.88758 -0.20482,-2.28723 -0.0683,-1.39964 -0.10242,-3.51618 -0.0683,-1.02414 -0.13655,-1.87758 -0.0341,-0.88758 -0.0341,-1.67275 0,-2.62861 0.37552,-3.92584 0.37551,-1.33137 0.85344,-1.84344 0.51207,-0.51206 1.02413,-0.51206 h 0.85345 q 0.98999,0 1.97999,0.20482 1.02413,0.17069 2.04826,0.40966 1.02413,0.20482 2.0824,0.40965 1.09241,0.17069 2.18482,0.17069 0.34138,0 0.64862,0 0.34137,-0.0341 0.68275,-0.10242 1.5362,-0.34137 2.18482,-0.58034 0.64861,-0.23896 0.88758,-0.37551 0.23896,-0.17069 0.2731,-0.23897 0.0683,-0.10241 0.44379,-0.10241 1.2631,0 1.8093,1.22896 0.58034,1.19482 0.58034,3.17481 v 0.17069 q 0,0.17069 -0.20482,0.51206 -0.17069,0.30724 -0.64862,0.75103 -0.44379,0.40966 -1.33137,0.92172 -0.88759,0.47793 -2.28723,0.95586 -1.39965,0.47793 -3.51619,0.92172 z"
         style="font-style:normal;font-variant:normal;font-weight:normal;font-stretch:normal;font-size:69.91409302px;font-family:Pacifico;-inkscape-font-specification:'Pacifico, Normal';font-variant-ligatures:normal;font-variant-caps:normal;font-variant-numeric:normal;font-feature-settings:normal;text-align:start;writing-mode:lr-tb;text-anchor:start;stroke-width:1.74785233"
         id="path32" />
      <path
         d="m 221.65716,166.55026 q -2.62861,0 -4.6086,-1.12654 -1.94585,-1.16069 -3.24308,-3.0724 -1.29724,-1.94585 -1.94585,-4.47204 -0.64862,-2.56033 -0.64862,-5.39377 0,-2.49205 0.44379,-5.08652 0.47793,-2.62861 1.36551,-5.05239 0.88758,-2.45791 2.18482,-4.60859 1.33137,-2.18482 3.03826,-3.78929 1.70688,-1.63861 3.78928,-2.56033 2.11654,-0.95586 4.57446,-0.95586 2.83343,0 4.8817,1.09241 2.0824,1.05827 3.41377,2.90171 1.33137,1.84344 1.94585,4.30135 0.64862,2.42378 0.64862,5.1548 0,2.5262 -0.51207,5.18894 -0.47792,2.66274 -1.43378,5.18894 -0.95586,2.52619 -2.3555,4.77928 -1.36551,2.21895 -3.14068,3.8917 -1.74102,1.67275 -3.85756,2.66275 -2.11654,0.95585 -4.54032,0.95585 z m 0.5462,-6.21307 q 0.92172,0 1.8093,-0.8193 0.88758,-0.85345 1.67275,-2.25309 0.78517,-1.39965 1.43379,-3.20895 0.68275,-1.8093 1.16068,-3.72101 0.47793,-1.94586 0.75103,-3.85757 0.2731,-1.91171 0.2731,-3.51619 0,-1.33137 -0.17069,-2.49205 -0.17068,-1.16068 -0.51206,-2.01413 -0.34138,-0.85344 -0.88758,-1.33137 -0.51207,-0.51207 -1.2631,-0.51207 -1.02413,0 -1.94585,0.85345 -0.88758,0.8193 -1.67275,2.18481 -0.75103,1.36551 -1.36551,3.14067 -0.58034,1.77517 -1.02413,3.68688 -0.40965,1.87758 -0.64862,3.75515 -0.20483,1.84344 -0.20483,3.41378 0,1.43378 0.13656,2.66274 0.17068,1.19482 0.47792,2.11654 0.34138,0.88758 0.81931,1.39965 0.51207,0.51206 1.16068,0.51206 z"
         style="font-style:normal;font-variant:normal;font-weight:normal;font-stretch:normal;font-size:69.91409302px;font-family:Pacifico;-inkscape-font-specification:'Pacifico, Normal';font-variant-ligatures:normal;font-variant-caps:normal;font-variant-numeric:normal;font-feature-settings:normal;text-align:start;writing-mode:lr-tb;text-anchor:start;stroke-width:1.74785233"
         id="path34" />
      <path
         d="m 260.71072,151.80276 q 0,-2.21895 -0.75103,-3.37964 -0.75103,-1.19482 -1.91171,-1.19482 -0.85345,0 -1.43379,0.44379 -0.58034,0.40965 -0.98999,1.05827 -0.40965,0.61448 -0.71689,1.36551 -0.30724,0.75103 -0.61448,1.39965 -0.30724,0.61448 -0.64862,1.05827 -0.34138,0.40965 -0.81931,0.40965 -0.17069,0 -0.40965,-0.78517 -0.20483,-0.8193 -0.20483,-2.01412 0,-1.87758 0.75103,-3.37964 0.78517,-1.50206 2.01413,-2.52619 1.22896,-1.05827 2.7993,-1.60448 1.57033,-0.58034 3.20894,-0.58034 1.57034,0 3.03826,0.54621 1.46793,0.5462 2.62861,1.70688 1.16068,1.12655 1.84344,2.90171 0.71689,1.77516 0.71689,4.23308 0,2.73102 -1.05827,5.4279 -1.05827,2.69688 -3.03826,4.84756 -1.97999,2.15068 -4.81342,3.48205 -2.83343,1.33137 -6.4179,1.33137 -2.49205,0 -4.88169,-0.71689 -2.38965,-0.75103 -4.26722,-2.38964 -1.87758,-1.63861 -3.03826,-4.23308 -1.12655,-2.59447 -1.12655,-6.31548 0,-4.23308 1.60448,-8.26134 1.63861,-4.02825 4.4379,-7.54444 2.7993,-3.55032 6.58859,-6.45203 3.78929,-2.93585 8.09064,-4.94997 0.68276,-0.30724 1.2631,-0.47793 0.61448,-0.20483 1.22896,-0.20483 1.50206,0 2.3555,0.78517 0.85345,0.75103 0.85345,1.84344 0,0.78517 -0.47793,1.60447 -0.44379,0.81931 -1.5362,1.57034 -3.03826,1.8093 -5.93997,4.40377 -2.86757,2.56033 -5.12066,5.63272 -2.21895,3.0724 -3.58446,6.52031 -1.36551,3.41378 -1.36551,6.86169 0,1.33137 0.23896,2.52619 0.27311,1.19482 0.85345,2.11654 0.61448,0.92172 1.57033,1.46792 0.95586,0.51207 2.38964,0.51207 1.46793,0 2.69689,-0.81931 1.26309,-0.85344 2.11654,-2.15067 0.88758,-1.33138 1.36551,-2.93585 0.51206,-1.60447 0.51206,-3.14067 z"
         style="font-style:normal;font-variant:normal;font-weight:normal;font-stretch:normal;font-size:69.91409302px;font-family:Pacifico;-inkscape-font-specification:'Pacifico, Normal';font-variant-ligatures:normal;font-variant-caps:normal;font-variant-numeric:normal;font-feature-settings:normal;text-align:start;writing-mode:lr-tb;text-anchor:start;stroke-width:1.74785233"
         id="path36" />
      <path
         d="m 282.83199,166.55026 q -2.6286,0 -4.60859,-1.12654 -1.94585,-1.16069 -3.24309,-3.0724 -1.29723,-1.94585 -1.94585,-4.47204 -0.64861,-2.56033 -0.64861,-5.39377 0,-2.49205 0.44379,-5.08652 0.47792,-2.62861 1.36551,-5.05239 0.88758,-2.45791 2.18481,-4.60859 1.33137,-2.18482 3.03826,-3.78929 1.70689,-1.63861 3.78929,-2.56033 2.11654,-0.95586 4.57446,-0.95586 2.83343,0 4.88169,1.09241 2.08241,1.05827 3.41378,2.90171 1.33137,1.84344 1.94585,4.30135 0.64862,2.42378 0.64862,5.1548 0,2.5262 -0.51207,5.18894 -0.47793,2.66274 -1.43379,5.18894 -0.95585,2.52619 -2.3555,4.77928 -1.36551,2.21895 -3.14067,3.8917 -1.74103,1.67275 -3.85757,2.66275 -2.11654,0.95585 -4.54032,0.95585 z m 0.54621,-6.21307 q 0.92172,0 1.8093,-0.8193 0.88758,-0.85345 1.67275,-2.25309 0.78517,-1.39965 1.43378,-3.20895 0.68276,-1.8093 1.16069,-3.72101 0.47792,-1.94586 0.75103,-3.85757 0.2731,-1.91171 0.2731,-3.51619 0,-1.33137 -0.17069,-2.49205 -0.17069,-1.16068 -0.51207,-2.01413 -0.34137,-0.85344 -0.88758,-1.33137 -0.51206,-0.51207 -1.26309,-0.51207 -1.02414,0 -1.94586,0.85345 -0.88758,0.8193 -1.67274,2.18481 -0.75103,1.36551 -1.36551,3.14067 -0.58035,1.77517 -1.02414,3.68688 -0.40965,1.87758 -0.64861,3.75515 -0.20483,1.84344 -0.20483,3.41378 0,1.43378 0.13655,2.66274 0.17069,1.19482 0.47793,2.11654 0.34138,0.88758 0.81931,1.39965 0.51206,0.51206 1.16068,0.51206 z"
         style="font-style:normal;font-variant:normal;font-weight:normal;font-stretch:normal;font-size:69.91409302px;font-family:Pacifico;-inkscape-font-specification:'Pacifico, Normal';font-variant-ligatures:normal;font-variant-caps:normal;font-variant-numeric:normal;font-feature-settings:normal;text-align:start;writing-mode:lr-tb;text-anchor:start;stroke-width:1.74785233"
         id="path38" />
      <path
         d="m 305.60185,138.31835 q 0,-2.49205 1.19483,-4.36963 1.22895,-1.87758 3.14067,-3.10653 1.91171,-1.2631 4.30135,-1.87758 2.42378,-0.61448 4.77929,-0.61448 1.97999,0 3.78929,0.40965 1.8093,0.40966 3.17481,1.22896 1.36551,0.81931 2.18481,2.04827 0.81931,1.22896 0.81931,2.86757 0,2.96998 -0.85345,5.1548 -0.85344,2.18481 -2.25309,3.82342 -1.39964,1.63861 -3.27722,2.86757 -1.84344,1.19482 -3.82343,2.18482 1.50206,1.12654 2.90171,2.3555 1.39965,1.19482 2.49206,2.56033 1.0924,1.36551 1.74102,2.93585 0.64862,1.57033 0.64862,3.41377 0,2.38964 -0.99,4.36963 -0.95585,1.94585 -2.69688,3.3455 -1.70689,1.43379 -4.06239,2.21896 -2.3555,0.78516 -5.1548,0.78516 -1.97999,0 -4.09653,-0.40965 -2.11654,-0.40965 -3.8917,-1.50206 -1.74102,-1.09241 -2.90171,-3.00412 -1.12654,-1.94585 -1.12654,-4.98411 0,-2.59447 0.78516,-4.57446 0.81931,-2.01413 2.11654,-3.58446 1.29724,-1.60448 2.96999,-2.83343 1.67275,-1.22896 3.41377,-2.32137 -2.76515,-1.77516 -4.06239,-4.26722 -1.2631,-2.52619 -1.2631,-5.12066 z m 11.98235,-5.76928 q -0.98999,0 -1.91171,0.34138 -0.88758,0.30724 -1.57034,0.92172 -0.64862,0.61448 -1.05827,1.50206 -0.37551,0.85344 -0.37551,1.94585 0,0.88758 0.17069,1.87758 0.20482,0.98999 0.58034,1.97999 0.37551,0.98999 0.88758,1.94585 0.5462,0.92172 1.26309,1.67275 1.16069,-0.7169 2.21896,-1.8093 1.09241,-1.12655 1.94585,-2.35551 0.85344,-1.22896 1.36551,-2.45792 0.51207,-1.22895 0.51207,-2.21895 0,-0.85344 -0.34138,-1.46792 -0.34138,-0.64862 -0.92172,-1.05827 -0.54621,-0.40965 -1.29724,-0.61448 -0.71689,-0.20483 -1.46792,-0.20483 z m 0.23897,25.91055 q 0,-1.74103 -0.85345,-3.03826 -0.8193,-1.29724 -2.01412,-2.49206 -1.33138,0.61448 -2.49206,1.33138 -1.12654,0.71689 -1.97999,1.60447 -0.8193,0.88758 -1.29723,2.01413 -0.44379,1.0924 -0.44379,2.49205 0,1.09241 0.30724,1.91171 0.34137,0.81931 0.85344,1.39965 0.51207,0.54621 1.12655,0.85345 0.61447,0.2731 1.19482,0.2731 1.02413,0 2.01412,-0.37552 1.02414,-0.40965 1.8093,-1.19482 0.81931,-0.8193 1.29724,-1.97999 0.47793,-1.19482 0.47793,-2.79929 z"
         style="font-style:normal;font-variant:normal;font-weight:normal;font-stretch:normal;font-size:69.91409302px;font-family:Pacifico;-inkscape-font-specification:'Pacifico, Normal';font-variant-ligatures:normal;font-variant-caps:normal;font-variant-numeric:normal;font-feature-settings:normal;text-align:start;writing-mode:lr-tb;text-anchor:start;stroke-width:1.74785233"
         id="path40" />
    </g>
  </g>
</svg>
