<?xml version="1.0" encoding="UTF-8" standalone="no"?>
<svg
   xmlns:dc="http://purl.org/dc/elements/1.1/"
   xmlns:cc="http://creativecommons.org/ns#"
   xmlns:rdf="http://www.w3.org/1999/02/22-rdf-syntax-ns#"
   xmlns:svg="http://www.w3.org/2000/svg"
   xmlns="http://www.w3.org/2000/svg"
   xmlns:sodipodi="http://sodipodi.sourceforge.net/DTD/sodipodi-0.dtd"
   xmlns:inkscape="http://www.inkscape.org/namespaces/inkscape"
   height="150.05815mm"
   id="Layer_1"
   version="1.1"
   viewBox="0 0 974.07739 567.14892"
   width="257.72464mm"
   xml:space="preserve"
   sodipodi:docname="LogoRemontyMarcinaMono.svg"
   inkscape:version="0.92.4 (5da689c313, 2019-01-14)"
   inkscape:export-filename="C:\Users\Maro\Documents\##Marek\Projekty\RemontyMarcina\res\logo\LogoRemontyMarcinav2.png"
   inkscape:export-xdpi="96"
   inkscape:export-ydpi="96"><metadata
   id="metadata9"><rdf:RDF><cc:Work
       rdf:about=""><dc:format>image/svg+xml</dc:format><dc:type
         rdf:resource="http://purl.org/dc/dcmitype/StillImage" /><dc:title /></cc:Work></rdf:RDF></metadata><defs
   id="defs7">
	

		
		
		
		
	



</defs><sodipodi:namedview
   pagecolor="#ffffff"
   bordercolor="#666666"
   borderopacity="1"
   objecttolerance="1"
   gridtolerance="10"
   guidetolerance="10"
   inkscape:pageopacity="0"
   inkscape:pageshadow="2"
   inkscape:window-width="1920"
   inkscape:window-height="1001"
   id="namedview5"
   showgrid="false"
   inkscape:zoom="0.32593203"
   inkscape:cx="180.20944"
   inkscape:cy="380.08242"
   inkscape:window-x="-9"
   inkscape:window-y="-9"
   inkscape:window-maximized="1"
   inkscape:current-layer="Layer_1"
   units="mm"
   inkscape:snap-text-baseline="false"
   fit-margin-top="0"
   fit-margin-left="0"
   fit-margin-right="0"
   fit-margin-bottom="0" />

<g
   id="g4682"
   transform="matrix(0,0.57103563,-0.57103563,0,859.892,416.05057)">
</g><g
   id="g4684"
   transform="matrix(0,0.57103563,-0.57103563,0,859.892,416.05057)">
</g><g
   id="g4686"
   transform="matrix(0,0.57103563,-0.57103563,0,859.892,416.05057)">
</g><g
   id="g4688"
   transform="matrix(0,0.57103563,-0.57103563,0,859.892,416.05057)">
</g><g
   id="g4690"
   transform="matrix(0,0.57103563,-0.57103563,0,859.892,416.05057)">
</g><g
   id="g4692"
   transform="matrix(0,0.57103563,-0.57103563,0,859.892,416.05057)">
</g><g
   id="g4694"
   transform="matrix(0,0.57103563,-0.57103563,0,859.892,416.05057)">
</g><g
   id="g4696"
   transform="matrix(0,0.57103563,-0.57103563,0,859.892,416.05057)">
</g><g
   id="g4698"
   transform="matrix(0,0.57103563,-0.57103563,0,859.892,416.05057)">
</g><g
   id="g4700"
   transform="matrix(0,0.57103563,-0.57103563,0,859.892,416.05057)">
</g><g
   id="g4702"
   transform="matrix(0,0.57103563,-0.57103563,0,859.892,416.05057)">
</g><g
   id="g4704"
   transform="matrix(0,0.57103563,-0.57103563,0,859.892,416.05057)">
</g><g
   id="g4706"
   transform="matrix(0,0.57103563,-0.57103563,0,859.892,416.05057)">
</g><g
   id="g4708"
   transform="matrix(0,0.57103563,-0.57103563,0,859.892,416.05057)">
</g><g
   id="g4710"
   transform="matrix(0,0.57103563,-0.57103563,0,859.892,416.05057)">
</g><path
   style="fill:#000000;fill-opacity:1;stroke-width:19.10171127"
   d="m 152.81445,0 c -9.1115,0 -13.88681,5.67334 -19.10156,10.60157 L 95.50976,48.76758 V 38.20313 c 0,-10.50594 -8.59562,-19.10156 -19.101555,-19.10156 H 57.306641 c -10.50594,0 -19.103516,8.59562 -19.103516,19.10156 v 67.83008 L 10.507813,133.71094 C 4.548073,139.919 0,144.44789 0,152.81446 c 0,10.75426 8.253756,19.09961 19.103516,19.09961 h 19.099609 v 114.61132 c 0,10.50595 8.597576,19.10157 19.103516,19.10157 h 57.304679 v -0.0937 h 76.40625 v 0.0937 h 57.30664 c 10.506,0 19.09961,-8.59562 19.09961,-19.10157 V 171.91407 h 19.10352 c 10.8498,0 19.10156,-8.34535 19.10156,-19.09961 0,-8.36657 -4.54616,-12.89546 -10.50586,-19.10352 L 171.91796,10.60157 C 166.70326,5.67334 161.92598,0 152.81445,0 Z m 49.74219,95.46485 c 7.04041,-0.0273 13.94235,0.5602 20.70703,1.76172 11.05878,1.92243 21.64802,4.62966 31.76562,8.125 4.23528,1.57291 7.88259,4.28208 10.94141,8.12695 3.2941,3.84487 5.76311,8.04005 7.41015,12.58398 1.88236,4.54394 2.82422,9.08693 2.82422,13.63086 0,4.54395 -1.05814,8.3024 -3.17578,11.27344 -3.2941,4.19441 -6.35423,8.12678 -9.17773,11.79688 -2.82354,3.6701 -5.88168,7.16576 -9.17578,10.48632 -3.05881,3.14581 -6.58791,6.2028 -10.58789,9.17383 -3.76469,2.97103 -8.23565,5.94303 -13.41211,8.91406 -9.88232,5.59255 -19.88238,11.09787 -30,16.51563 -9.88232,5.243 -20.00063,10.6594 -30.35352,16.25195 -0.70588,0.34953 -1.52757,0.78821 -2.46875,1.3125 -0.94116,0.34954 -1.76482,0.87319 -2.4707,1.57227 -0.4706,0.34952 -0.70703,0.96014 -0.70703,1.83398 0,0.69908 0.23643,1.22469 0.70703,1.57422 1.64704,0.87383 3.05791,1.57336 4.23437,2.09766 1.41178,0.5243 2.82458,1.22187 4.23633,2.0957 11.29407,5.06824 22.23406,10.22378 32.82227,15.4668 10.82348,5.06822 21.52898,10.22379 32.11718,15.46679 2.58822,1.22338 5.05917,2.53546 7.41211,3.9336 2.35293,1.39812 4.70566,2.79521 7.0586,4.19336 5.41174,3.32056 6.35361,6.90317 2.82422,10.74804 -1.41176,1.39814 -2.35364,2.88413 -2.82422,4.45703 -0.4706,1.39813 -0.11788,2.97108 1.05859,4.71876 0.70588,0.87384 0.70588,1.92313 0,3.14648 -0.47059,1.39814 -0.82331,2.70827 -1.05859,3.93164 -1.41177,-0.34953 -3.05907,-0.61234 -4.94141,-0.78711 -1.64705,-0.17476 -3.05791,-0.61148 -4.23437,-1.31055 -11.52938,-5.06824 -22.35311,-10.48661 -32.47071,-16.2539 -9.88232,-5.94208 -20.58781,-11.44544 -32.11718,-16.51367 -3.2941,-1.22338 -6.70693,-2.88523 -10.23633,-4.98243 -3.29411,-2.09721 -6.82321,-4.19382 -10.58789,-6.29101 -3.7647,-2.09721 -7.52828,-4.01991 -11.29297,-5.76758 -3.5294,-1.74767 -7.06045,-2.97086 -10.58985,-3.66992 -0.70588,-0.17477 -1.29309,-0.69845 -1.76367,-1.57227 -0.2353,-1.04861 -0.588,-2.01093 -1.05859,-2.88476 l -0.35352,-0.26172 0.35352,0.78711 c -1.41176,0.34954 -2.58814,0.61039 -3.5293,0.78515 -0.70589,0 -1.29504,0.0889 -1.76562,0.26368 -0.4706,0 -0.82332,0.17389 -1.0586,0.52343 -0.23529,0.34952 -0.46978,1.04906 -0.70508,2.09766 -0.4706,2.27197 -1.05975,5.24201 -1.76562,8.91211 -0.47059,3.49533 -0.94151,7.16684 -1.41211,11.01172 -0.47058,3.84486 -1.0578,7.60138 -1.76367,11.27148 -0.4706,3.6701 -0.82331,6.64209 -1.0586,8.91406 -0.47058,0.69907 -0.94153,1.48555 -1.4121,2.35938 -0.2353,0.69907 -0.58801,1.48554 -1.0586,2.35937 -1.17645,-0.87383 -2.47103,-1.57335 -3.88281,-2.09765 -1.17645,-0.52431 -2.00012,-1.22383 -2.4707,-2.09766 -0.47059,-1.39812 -0.70508,-2.97107 -0.70508,-4.71875 0,-1.92244 -0.23644,-3.75624 -0.70703,-5.5039 0,-0.34954 -0.35272,-0.61235 -1.0586,-0.78711 -0.47058,-0.17477 -0.94151,-0.43758 -1.41211,-0.78711 -0.23528,0.34953 -0.46978,0.61234 -0.70507,0.78711 -0.23529,0.17476 -0.35352,0.43757 -0.35352,0.78711 0.23528,1.57289 0.35351,3.14583 0.35352,4.71875 0.23529,1.39813 0.46979,2.96913 0.70507,4.71679 0.2353,2.97104 -0.23369,4.8068 -1.41015,5.50586 -0.94118,0.69907 -3.41213,0.96188 -7.41211,0.78711 -5.17645,-0.17477 -9.41292,-0.52454 -12.70703,-1.04883 -3.05882,-0.69907 -5.411545,-1.74833 -7.058595,-3.14648 -1.64706,-1.39813 -2.7052,-3.32084 -3.17578,-5.76758 -0.23529,-2.44673 -0.11706,-5.67957 0.35352,-9.69922 1.64706,-12.40844 3.2924,-23.41908 4.93945,-33.03125 1.882335,-9.61218 3.882355,-18.52425 5.999995,-26.73828 2.35293,-8.3888 4.82389,-16.51634 7.41211,-24.38086 2.82353,-7.8645 5.99992,-16.2529 9.5293,-25.16601 0.2353,-0.69906 0.35351,-1.30969 0.35351,-1.83399 v -1.83594 c -0.94118,0.17478 -1.76482,0.26172 -2.4707,0.26172 -0.70587,0 -1.41131,0.17587 -2.11719,0.52539 -1.64705,1.22338 -3.17612,2.5335 -4.58789,3.93164 -1.41175,1.22336 -2.94084,2.44655 -4.58789,3.66993 -2.11764,2.44673 -4.3541,3.93272 -6.70703,4.45703 -2.117635,0.5243 -5.059525,0.34845 -8.824215,-0.52539 -1.88235,-0.5243 -3.64593,-0.96104 -5.29297,-1.31055 -1.64707,-0.52431 -3.41258,-1.13492 -5.294921,-1.83399 -6.588207,-1.39813 -10.940956,-3.9334 -13.058593,-7.60351 -1.882354,-3.6701 -0.940476,-7.51356 2.824218,-11.5332 3.294105,-3.49534 6.941421,-6.90405 10.941406,-10.22461 4.23527,-3.49534 8.70624,-6.55429 13.41211,-9.17578 16.235215,-9.26265 33.527975,-16.51482 51.880855,-21.75782 18.58815,-5.41778 38.11738,-9.08733 58.58789,-11.00976 4.32352,-0.45876 8.59802,-0.69651 12.82227,-0.71289 z m 27.14843,24.91211 c -1.88234,-0.0109 -3.91142,0.0486 -6.08789,0.17968 -8.70582,0.34954 -17.64776,1.57273 -26.82422,3.66993 -8.94114,2.0972 -17.17569,4.80638 -24.70507,8.12695 -7.2941,3.32057 -11.76506,6.99013 -13.41211,11.00976 -1.41176,3.32056 -2.94083,7.25294 -4.58789,11.79688 -1.64705,4.36917 -3.41258,9.00106 -5.29493,13.89453 -1.64706,4.7187 -3.29241,9.43754 -4.93945,14.15625 -1.64706,4.71871 -3.05987,8.9139 -4.23633,12.58398 l 0.70703,2.09571 c 0.70588,-0.52432 1.99851,-1.13493 3.88086,-1.83399 7.99998,-3.32056 16.9419,-7.33989 26.82422,-12.05859 10.1176,-4.71871 19.88124,-9.52451 29.29297,-14.41797 9.64703,-5.06825 18.35446,-9.96293 26.11914,-14.68164 7.76467,-4.89345 13.41005,-8.99973 16.93945,-12.32031 5.41174,-5.06824 7.6482,-9.26341 6.70704,-12.58399 -0.70589,-3.32056 -3.17684,-5.8539 -7.41211,-7.60156 -2.99998,-1.31075 -7.32367,-1.98285 -12.97071,-2.01562 z m -86.91211,26.39453 c 0,0.29519 0.26807,0.458 0.77149,0.5039 0.0961,-0.0786 0.19301,-0.16889 0.28906,-0.24023 z m 0.73438,0.53515 c -1.95416,0.0269 -3.50273,0.2796 -4.61524,0.77539 -0.94116,0.52432 -1.64854,1.22383 -2.11914,2.09766 -0.23529,0.69905 -0.46979,1.57248 -0.70507,2.62109 -0.2353,0.87383 -0.58802,1.66031 -1.0586,2.35938 0,0.17477 0.11822,0.35062 0.35352,0.52539 0.47058,0.17477 0.8233,0.34867 1.05859,0.52344 0.94119,-0.87385 1.64662,-1.83423 2.11719,-2.88281 0.70588,-1.22338 1.52954,-2.27266 2.4707,-3.14649 0.83274,-1.23704 1.66532,-2.18327 2.49805,-2.87305 z m -12.83789,19.70313 c -0.0754,0.0701 -0.15367,0.14084 -0.24805,0.21094 -0.2353,0.17476 -0.47174,0.34867 -0.70703,0.52343 -0.2353,0 -0.46978,0.087 -0.70508,0.26172 v 0.26172 h 0.35352 c 0.49449,-0.24486 0.92762,-0.66989 1.30664,-1.25781 z m -9.77735,21.70703 c -0.16566,0.12305 -0.27431,0.18317 -0.41406,0.27734 0.024,-0.002 0.0335,-0.0156 0.0606,-0.0156 0.23529,0 0.35351,-0.0869 0.35351,-0.26172 z m -0.69531,0.46484 c -0.3155,0.19263 -0.57418,0.32032 -0.71679,0.32032 0.47058,0 0.70507,-0.0869 0.70507,-0.26172 0,-0.0222 0.008,-0.0392 0.0117,-0.0586 z m -1.42187,4.77735 c 0,0.34952 -0.11821,0.61234 -0.35352,0.78711 v 0.52343 H 119.5 c 0,-0.17476 -0.11822,-0.34867 -0.35352,-0.52343 -0.23529,-0.17477 -0.35156,-0.43759 -0.35156,-0.78711 z m -0.70703,8.91406 c 0,0.17477 -0.11823,0.34867 -0.35352,0.52344 v 0.52343 c 0.23529,-0.17477 0.35352,-0.52258 0.35352,-1.04687 z m -0.35352,1.04687 c -0.47059,0.17477 -0.82331,0.26368 -1.05859,0.26368 -0.2353,0 -0.588,0.1739 -1.0586,0.52343 -0.47057,0.34953 -0.70508,0.61234 -0.70508,0.78711 0,0.17476 -0.1182,0.34866 -0.35351,0.52344 v 0.26172 0.26367 c 0.23531,0 0.35351,0.087 0.35351,0.26172 0.23528,-0.69907 0.70623,-1.31164 1.41211,-1.83594 z m 23.29492,31.19727 c 0.2353,0.17477 0.35352,0.34866 0.35352,0.52344 0.2353,0 0.35156,-0.087 0.35156,-0.26172 z M 111.73437,256.875 c -0.2353,0.5243 -0.46979,1.13687 -0.70508,1.83594 0,0.69907 -0.11821,1.30969 -0.35351,1.83398 v 1.04883 c 0.2353,0.17477 0.35351,0.43759 0.35351,0.78711 0.47059,-0.34952 0.70508,-0.69929 0.70508,-1.04883 0.23529,-0.52429 0.47174,-0.96102 0.70703,-1.31054 -0.23529,-0.87384 -0.47174,-1.48641 -0.70703,-1.83594 z"
   id="path2"
   inkscape:connector-curvature="0" /><path
   inkscape:connector-curvature="0"
   id="path4522"
   style="font-style:normal;font-variant:normal;font-weight:normal;font-stretch:normal;font-size:247.7036438px;line-height:1.25;font-family:Takota;-inkscape-font-specification:'Takota, Normal';font-variant-ligatures:normal;font-variant-caps:normal;font-variant-numeric:normal;font-feature-settings:normal;text-align:start;letter-spacing:0px;word-spacing:0px;writing-mode:lr-tb;text-anchor:start;fill:#000000;fill-opacity:1;stroke:none;stroke-width:6.19242573"
   d="m 380.1985,191.51799 q 1.14965,1.0674 1.72448,2.56176 0.57483,1.28087 1.43707,2.34828 -1.72448,-0.42697 -3.44896,-0.64044 -1.43707,-0.21348 -3.16156,-0.42697 -0.86225,-0.21347 -2.0119,-0.64043 -1.14965,-0.64044 -2.0119,-0.21348 -2.87413,0.85391 -5.46086,0.21348 -2.2993,-0.64044 -4.59861,-1.92132 -4.59863,-2.13481 -7.76018,0 -4.02379,2.56175 -8.04758,4.91003 -3.73639,2.13481 -6.32311,5.12353 -4.88604,5.76396 -9.48465,11.95487 -4.31122,5.97745 -8.90984,12.16836 v 2.13481 q 2.29931,0.85391 4.31122,0.85391 7.18534,-0.21348 13.50844,-0.42695 6.61052,-0.42696 13.50845,-0.64045 0.57483,-0.21348 1.72448,0 1.43707,0.21349 2.0119,0.85392 0.86224,0.42697 1.72448,1.49436 0.86224,0.85392 0.57483,1.70784 0,0.85393 -1.14966,1.49436 -0.86224,0.64044 -2.01189,0.85392 l -26.15466,1.28089 q -1.72448,0.21347 -3.73637,0.21347 -1.72449,0 -3.44898,0 -4.3112,0.21348 -7.18534,1.49437 -2.87413,1.28088 -3.73637,4.69656 -1.14966,2.98872 -2.87414,5.97744 -1.43708,2.98871 -1.72449,5.97743 -0.57483,6.83137 -0.28742,11.52793 0.57483,4.69656 1.43707,7.68527 0.86224,2.98872 2.01191,4.69656 1.14965,1.49436 2.29931,2.34828 1.43706,-0.21348 4.3112,-1.0674 12.93362,-3.2022 24.43017,-7.68528 11.78397,-4.48308 22.41828,-10.67399 l 3.73638,-2.13481 q 0.86224,-0.21347 2.58673,-0.21347 1.72448,0 3.16155,0.21347 1.72448,0.21348 2.87413,0.64044 1.14966,0.42696 1.14966,0.85392 -0.28742,1.0674 -1.14966,2.1348 -0.86224,0.85393 -2.01189,1.70784 -10.63431,7.25832 -22.70569,13.02228 -11.78397,5.76396 -25.86725,9.82008 -8.335,2.34828 -18.39448,1.92132 -18.39449,-0.64044 -26.44207,-13.44924 -2.29931,-3.84264 -4.3112,-7.89876 -1.72448,-4.26959 -4.02379,-8.32571 0.57481,-5.55049 0.2874,-11.10096 0,-5.55049 0.86224,-10.46053 2.01191,-11.95488 6.61052,-22.41539 4.59862,-10.67401 12.07139,-20.70757 3.16155,-4.26959 6.89793,-7.89875 4.02379,-3.62916 8.6224,-6.83136 9.19725,-6.19092 20.11898,-7.25832 11.20913,-1.0674 24.14276,4.05612 6.3231,2.34828 12.35879,5.337 6.03569,2.98872 11.78396,5.97744 1.14966,0.42696 2.01191,1.28088 1.14965,0.85392 1.72448,1.49436 z m -68.40449,32.66243 q 2.29931,-5.55047 4.31121,-11.10095 2.29931,-5.76396 4.59861,-11.52792 -5.74827,5.97744 -9.19723,12.8088 -3.44898,6.61787 -6.32311,13.66271 -0.28742,0.42697 0.28741,1.06741 0.57483,0.42696 0.86224,0.85391 0.57483,0 1.43707,0 1.14967,-0.21348 1.14967,-0.64044 1.14965,-1.28088 1.72448,-2.56175 0.57482,-1.28088 1.14965,-2.56177 z m -14.94552,44.8308 q 0.28742,1.70784 0.28742,3.2022 0.28741,1.28088 0.86224,2.34828 l 4.88603,-35.86464 q -0.86224,0 -1.43707,0.42696 -0.57483,0.42697 -1.14965,2.34828 -1.72449,6.83137 -3.16155,13.66272 -1.43707,6.83136 -0.28742,13.8762 z m 18.6819,13.66272 h -0.28741 z m -9.48466,-44.19036 q 0.28741,0.21348 0.28741,0 z" /><path
   inkscape:connector-curvature="0"
   id="path4524"
   style="font-style:normal;font-variant:normal;font-weight:normal;font-stretch:normal;font-size:247.7036438px;line-height:1.25;font-family:Takota;-inkscape-font-specification:'Takota, Normal';font-variant-ligatures:normal;font-variant-caps:normal;font-variant-numeric:normal;font-feature-settings:normal;text-align:start;letter-spacing:0px;word-spacing:0px;writing-mode:lr-tb;text-anchor:start;fill:#000000;fill-opacity:1;stroke:none;stroke-width:6.19242573"
   d="m 559.63309,171.87783 q 9.77206,0.64044 7.47276,8.32571 -2.0119,5.55049 -4.31121,11.31445 -2.29931,5.55047 -4.02379,11.10096 -6.61052,18.1458 -11.20914,36.50507 -4.31121,18.1458 -8.335,36.50508 -0.28741,2.34828 -0.28741,4.69656 0.28741,2.1348 0.28741,4.48308 -0.28741,0.85392 -1.14965,1.49436 -0.57483,0.64044 -1.14966,1.70784 -1.14965,-0.42696 -2.0119,-1.0674 -0.86224,-0.64044 -1.43707,-1.0674 -1.14966,-1.0674 -1.72448,-2.56176 -0.57483,-1.49436 -2.87414,-1.70784 0.57483,1.0674 0.86224,2.1348 0.57483,0.85392 0,1.28088 -1.43707,1.0674 -3.73638,2.56176 -2.01189,1.28088 -4.3112,1.92132 -1.43707,0.42696 -3.44896,-0.64044 -1.7245,-1.28088 -2.58674,-2.34828 -1.14965,-1.0674 -1.43707,-2.34828 0,-1.28088 -0.28741,-2.56176 -1.43707,-16.65144 0,-33.0894 1.43707,-16.43796 7.18535,-32.66244 l -0.57483,-0.21347 0.28742,0.21347 q -2.29931,-0.85391 -3.16156,0.21349 -0.86224,0.85391 -1.43707,1.49435 -4.59862,5.337 -8.90982,10.674 -4.31121,5.12352 -8.62242,10.46052 -1.43707,1.92133 -3.16155,3.84265 -1.72448,1.70784 -3.44897,3.84263 l -0.28741,0.21349 q -9.19725,6.19091 -14.08328,13.87619 -4.88603,7.68529 -9.77206,15.58404 -3.16156,4.48308 -10.63432,3.84265 -5.74827,-1.06741 -5.74827,-6.40441 0.57483,-11.52792 1.43707,-22.84235 0.86224,-11.52793 1.72448,-23.26932 0.57483,-4.05613 1.14966,-8.11225 0.57482,-4.26959 0.86224,-8.5392 0,-0.42695 -0.57483,-1.70783 -0.57483,0.42695 -1.14966,0.64044 -0.57482,0.21348 -0.57482,0.42695 -0.57483,0.64044 -1.14966,1.28089 -0.57482,0.42695 -0.86224,1.06739 -14.6581,18.78624 -27.87914,37.99944 -13.22104,19.2132 -21.55604,40.13424 -0.57482,1.92132 -2.01189,2.98872 -1.14966,1.0674 -4.02379,1.0674 h -6.89794 q -2.01189,0 -4.3112,0.21348 -2.29931,0.42696 -2.58673,-0.21348 -2.58672,-3.41568 -2.58672,-7.4718 0,-2.98872 0.57483,-5.55048 0.28741,-2.56176 0.86224,-5.55048 2.29931,-19.42668 4.88603,-38.85335 2.87414,-19.64017 9.48466,-39.06684 1.72448,-5.55048 4.31121,-10.674 2.58672,-5.337 5.17344,-10.88748 0.57483,-1.49436 2.29931,-2.77525 2.0119,-1.49435 3.44896,-1.28087 3.16156,0.42696 6.0357,1.49436 2.87414,0.85392 6.03569,2.13479 0.57482,0.42697 0,2.13481 -0.28742,1.49436 -0.86224,2.56175 -4.31121,12.8088 -8.62241,25.6176 -4.0238,12.59533 -8.0476,25.40413 -0.57482,1.06739 -0.28741,2.34828 0.28741,1.28088 0.28741,2.34828 1.43707,-1.0674 3.73638,-1.0674 2.29931,0 2.87415,-1.92133 0.57483,1.0674 1.14965,1.28089 0.28742,0.21347 1.14966,0 0.86224,-0.21349 0.86224,-0.42697 6.61051,-8.5392 12.6462,-16.86492 6.32311,-8.32571 12.93362,-16.86492 3.73638,-4.69656 7.76018,-9.17963 4.02379,-4.48308 8.04758,-8.75268 3.16155,-3.20221 5.46086,-3.84264 2.58674,-0.64044 6.89794,0.64043 5.74827,1.28088 7.76017,3.20221 2.29931,1.92132 1.72448,5.55047 -1.14965,8.11225 -2.29931,16.22449 -0.86224,7.89875 -2.29931,15.79752 -0.86224,5.76396 -2.01189,11.52792 -0.86224,5.55047 -1.72449,11.31443 0,0.42697 0,0.85392 0.28742,0.42696 0.28742,0.85393 0.57483,-0.42697 1.14965,-0.64044 0.86224,-0.21349 1.43707,-0.85393 7.47276,-8.96616 14.65811,-17.71884 7.18534,-8.96615 15.23293,-17.50536 9.19724,-9.60659 18.6819,-18.57276 9.48465,-8.96615 19.25672,-17.93231 3.73638,-3.62916 5.46086,-3.62916 2.0119,-0.21348 6.61051,2.1348 1.43708,0.64043 2.58674,1.0674 1.43707,0.42696 3.44896,0.64044 z m -61.50656,60.84179 v 0.21348 z m -9.19724,13.87621 q 0.86225,0 1.43707,0 0.57483,-0.21349 1.43707,-0.21349 -0.57483,-2.13479 -0.57483,-3.41567 -0.57482,0.42695 -0.86224,0.85391 -0.28741,0.42697 -0.57482,0.85392 -0.57483,0.42696 -0.57483,1.0674 0,0.42696 -0.28742,0.85393 z m 10.3469,-13.66273 q 0,0 0.57482,-0.21348 h -1.43707 q 0.28742,0.21348 0.86225,0.21348 z m 3.73638,-6.19091 q 0,0.21347 0,0.21347 0.28742,0 0.28742,0.21349 v -0.42696 z m 25.86724,54.86435 q 2.0119,-2.1348 2.58672,-4.2696 0.57483,-2.34828 0.57483,-4.48307 0,-2.34828 -0.28741,-4.69656 -0.28742,-2.34828 0.28741,-4.69657 h -0.28741 q -0.57483,0 -0.57483,-0.21348 -0.86224,0.64044 -0.86224,1.28088 -0.57483,4.26961 -0.86224,8.5392 0,4.2696 -0.57483,8.5392 z m 2.58672,-22.62888 q 0,0 0.57483,-0.21348 h 0.57483 q -0.28742,-1.49436 -1.14966,-2.56176 0,-0.21348 -0.28741,-0.42696 -0.28741,-0.21348 -0.57483,-0.64044 0,0.21349 0,0.42696 0.28742,0 0.28742,0.21348 0,0.21348 0.28741,0.42696 0.28741,1.0674 0.28741,2.77524 z m -0.86224,-3.84264 q 2.0119,-1.28088 2.58673,-2.56176 0.86224,-1.49436 0.28741,-3.84264 v -0.42695 q 0,1.28087 -0.57483,2.34828 -0.28741,1.06739 -0.86224,2.13479 -0.57483,1.49436 -1.43707,2.34828 z m 3.73638,-8.53919 q 0,-0.64044 0.28741,-0.85393 0,-0.21348 -0.28741,-0.21348 0,0 0,-0.21347 v 0.64044 z m 0.28741,-6.4044 q 0,0 0.57483,-0.85393 v -0.64044 q -0.57483,0.42696 -0.57483,0.85393 z m -121.57604,-7.04484 q 0,0.42695 -0.2874,0.42695 v -0.64044 h 0.2874 v 0.42696 z" /><path
   inkscape:connector-curvature="0"
   id="path4526"
   style="font-style:normal;font-variant:normal;font-weight:normal;font-stretch:normal;font-size:247.7036438px;line-height:1.25;font-family:Takota;-inkscape-font-specification:'Takota, Normal';font-variant-ligatures:normal;font-variant-caps:normal;font-variant-numeric:normal;font-feature-settings:normal;text-align:start;letter-spacing:0px;word-spacing:0px;writing-mode:lr-tb;text-anchor:start;fill:#000000;fill-opacity:1;stroke:none;stroke-width:6.19242573"
   d="m 573.52328,224.39391 q -0.86224,0.64044 -1.72448,1.28087 -0.57483,0.42697 -1.14965,1.49437 -6.0357,16.22447 -2.29931,33.30287 0.86224,2.34828 1.14965,4.91004 0.57483,2.34828 0.86224,4.69656 l 0.28742,0.21348 q -5.17346,-2.56176 -7.18536,-6.19091 -1.72448,-3.62917 -3.16155,-7.89877 -2.58672,-8.11224 -1.72448,-16.22448 0.86224,-8.11223 3.73638,-16.22447 4.88604,-14.51664 13.79586,-26.89848 9.19725,-12.59533 25.005,-22.20192 8.33501,-5.337 18.10708,-7.89877 10.05948,-2.56175 21.26862,-0.64043 4.31121,0.64043 8.335,2.56176 4.02379,1.70784 7.76017,3.41568 2.0119,0.64044 3.16155,1.92132 1.43707,1.0674 0,2.98872 -1.43706,1.70784 -3.16155,2.98872 -1.43706,1.0674 -4.31121,0.85391 -0.57483,-0.21347 -1.14965,-0.21347 -0.28742,0 -0.86225,-0.21348 -5.74827,-2.34828 -10.34689,-0.42696 -4.31121,1.70784 -8.04759,4.48308 -14.6581,10.24704 -23.85534,23.05584 -8.90983,12.8088 -13.79587,27.11195 -2.29931,6.4044 -3.16155,12.8088 -0.57482,6.4044 0.86224,12.8088 0.57483,1.28088 0.57483,2.56176 0,1.0674 0.57483,2.34828 1.43707,3.62917 2.58672,5.55048 1.14966,1.92132 2.87414,2.34828 1.72448,0.21348 4.0238,-0.85392 2.58672,-1.28088 6.61051,-3.84264 9.19724,-5.97743 14.08328,-13.66271 5.17345,-7.89877 9.19724,-16.01101 4.88604,-9.82008 4.88604,-19.42668 0.28741,-9.82008 -5.17345,-19.64015 -2.58673,-3.84264 2.87413,-3.84264 6.89794,0.42696 12.07138,2.56175 5.17345,2.13481 7.18536,7.68528 3.16155,6.83136 4.02379,13.66273 0.86224,6.61787 -1.72449,13.23575 -3.16156,10.67401 -8.90983,20.2806 -5.74827,9.39312 -15.80776,17.0784 -6.03569,4.48308 -12.93361,7.25833 -6.89794,2.77523 -15.23294,3.41567 -4.0238,0.42696 -8.335,0 -4.31121,-0.64044 -8.335,-2.1348 -4.0238,-1.70784 -7.47276,-4.48308 -3.16155,-2.77524 -4.88603,-6.83136 -7.18534,-16.43796 -3.73638,-33.0894 0.57483,-2.56175 1.14965,-5.12352 0.57483,-2.77524 1.14966,-5.12352 0.28741,-1.28088 0.28741,-2.56176 0,-1.28087 0.28742,-2.77524 2.58672,-0.42695 2.01189,-1.70784 -0.28741,-1.28088 -0.86224,-2.56176 0.28741,-0.21347 0.86224,-1.28087 0.28741,0.42696 1.14966,1.0674 -1.43707,0 -2.0119,0.21347 -0.28741,1.06741 -0.57483,2.34828 0,1.28088 -0.28741,2.34828 -0.28741,1.28088 -0.57483,2.56176 0,1.28089 0,2.56177 z" /><path
   inkscape:connector-curvature="0"
   id="path4528"
   style="font-style:normal;font-variant:normal;font-weight:normal;font-stretch:normal;font-size:247.7036438px;line-height:1.25;font-family:Takota;-inkscape-font-specification:'Takota, Normal';font-variant-ligatures:normal;font-variant-caps:normal;font-variant-numeric:normal;font-feature-settings:normal;text-align:start;letter-spacing:0px;word-spacing:0px;writing-mode:lr-tb;text-anchor:start;fill:#000000;fill-opacity:1;stroke:none;stroke-width:6.19242573"
   d="m 671.01044,243.60711 q 3.73638,-17.71885 6.61052,-35.22421 3.16156,-17.71884 8.90983,-35.01071 0.57483,-1.70784 1.14966,-2.98872 0.86224,-1.49436 1.43706,-3.2022 2.58673,-5.12353 5.74828,-5.97744 3.16156,-1.0674 9.77207,1.92132 1.43707,0.42696 2.58672,2.77524 0.28742,0.21348 -0.28741,0.64044 -0.28741,0.21347 0,0.42696 2.87414,2.34828 3.16155,4.69656 0.57483,2.34828 -0.28741,4.69656 -0.57483,2.34828 -2.0119,4.69656 -1.14965,2.34828 -1.43707,4.69656 -1.14965,4.91003 -3.16155,10.03356 -1.72448,4.91003 -3.44896,10.03355 -0.57483,1.06741 -0.86224,2.56176 -0.28743,1.28089 -0.86224,2.56177 -3.73639,7.4718 -5.17346,15.37055 -1.14965,7.89877 -2.58672,15.79752 -0.28742,1.28088 0.28741,3.41568 0.57483,-0.64043 1.14966,-1.0674 0.86224,-0.42696 1.43706,-1.28088 7.47277,-8.96615 14.65811,-17.93232 7.47277,-9.17963 14.08328,-18.57275 4.88603,-7.25833 10.6343,-13.44924 6.0357,-6.19092 13.50846,-11.31445 6.61052,-4.48307 13.79586,-8.11224 7.18534,-3.84263 13.79586,-7.89875 2.58673,-1.70784 5.17345,-1.49437 2.87414,0.21349 5.74827,0.64045 3.16156,0.42696 4.88605,1.49436 2.01189,0.85392 1.43706,3.62916 0,0.42696 1.14966,1.0674 1.14965,0.42696 1.72448,1.0674 0.57483,0.64044 1.14965,1.49435 0.57483,0.85393 0.28742,1.70784 -2.0119,5.12353 -3.73638,10.46053 -1.72448,5.12352 -4.02379,10.03355 -4.31121,9.60661 -7.47276,18.35929 -3.16156,8.53919 -5.46086,17.0784 -2.0119,8.53919 -3.16155,17.29187 -1.14966,8.75268 -1.7245,18.78624 -0.2874,2.56176 -0.2874,5.12352 0.2874,2.56177 0.57483,4.91005 1.14965,2.56175 -0.28743,3.62915 -1.14965,0.85392 -4.3112,0.85392 h -0.86224 q -10.92172,0.85392 -15.23293,-1.70784 -4.0238,-2.56176 -3.44897,-11.10096 0,-2.34828 0,-3.41567 0.28742,-1.28089 0.57483,-2.13481 0.28741,-1.0674 0.86224,-2.1348 0.86224,-1.0674 2.0119,-3.41568 l 0.28741,0.21348 q 1.43708,-5.97743 2.87415,-11.52792 1.43706,-5.76396 2.2993,-11.52792 2.0119,-10.03356 2.87414,-19.85363 1.14966,-9.82008 4.59862,-19.64016 0.28741,-1.0674 0,-1.92132 -0.28741,-0.85393 -0.28741,-1.92133 h 0.57482 l -0.28741,0.21349 q -3.44896,2.34828 -6.89793,4.48307 -3.16155,2.13481 -6.32311,4.69656 -33.6274,27.53892 -52.88414,61.9092 -0.86224,1.70784 -2.29931,4.48308 -1.43707,2.77525 -2.87413,5.76396 -1.14966,2.98872 -2.29931,5.97744 -1.14966,2.77524 -1.72449,4.48308 -0.57482,1.0674 -1.14965,2.56176 -0.28741,1.28088 0.57483,1.92132 2.01189,1.92132 2.01189,2.98872 0,1.0674 -1.14965,1.70784 -1.14966,0.64044 -2.87414,0.85392 -1.43707,0.42696 -2.58672,1.0674 -1.14967,0.42696 -2.29932,0.64044 -0.86224,0.21348 -2.0119,0.64044 -10.05947,2.1348 -14.08326,-0.21348 -4.31122,-2.34828 -3.73639,-9.82008 0.28741,-3.2022 1.43707,-7.4718 0.86224,-4.2696 2.01189,-8.75268 0.86224,-4.69656 2.01191,-8.96616 1.14965,-4.2696 2.01189,-7.25832 0.57483,-2.56175 1.43707,-5.12352 1.14966,-2.56176 2.58672,-5.12351 l -0.57482,-0.21349 h 0.28741 z" /><path
   inkscape:connector-curvature="0"
   id="path4530"
   style="font-style:normal;font-variant:normal;font-weight:normal;font-stretch:normal;font-size:247.7036438px;line-height:1.25;font-family:Takota;-inkscape-font-specification:'Takota, Normal';font-variant-ligatures:normal;font-variant-caps:normal;font-variant-numeric:normal;font-feature-settings:normal;text-align:start;letter-spacing:0px;word-spacing:0px;writing-mode:lr-tb;text-anchor:start;fill:#000000;fill-opacity:1;stroke:none;stroke-width:6.19242573"
   d="m 972.92768,122.77743 q 0.57486,0.21348 0.57486,1.28088 0.2874,1.0674 0.5748,1.92132 -1.72449,0.64044 -4.31121,0.64044 -8.62241,-0.21348 -17.53224,-0.42696 -8.62241,-0.42696 -17.53224,-0.21348 -18.96932,0.85392 -37.3638,1.92132 -18.39448,1.0674 -37.36379,2.1348 -3.44897,0 -5.46086,0.21348 -2.01191,0.21348 -3.16156,1.0674 -1.14966,0.64044 -2.0119,2.1348 -0.57482,1.49436 -1.72448,4.05612 -9.77206,27.96588 -18.39448,55.50479 -8.62241,27.53892 -14.37069,55.93177 -1.72449,7.47179 -2.0119,15.15708 -0.28741,7.68527 -0.86224,15.15707 -0.57483,1.70784 0.57483,3.2022 0.86224,4.2696 0,5.337 -0.86224,0.85392 -6.61052,1.70784 -5.74827,0.64044 -9.77207,-1.0674 -3.73638,-1.92132 -4.59862,-6.19092 -0.86224,-5.337 -1.43707,-10.46052 -0.86224,-5.33699 -0.28741,-10.46052 0.57483,-18.1458 3.44896,-35.43768 3.16155,-17.29187 7.47277,-34.79723 3.16155,-12.8088 6.61051,-25.6176 3.73638,-13.02228 7.18534,-25.83108 0,-0.42696 0,-0.85392 0.28742,-0.64044 0.28742,-1.28088 0.57482,-2.77524 -0.28742,-3.41568 -0.57483,-0.64044 -4.59862,0.21348 -5.74827,0.42696 -11.20914,1.0674 -5.17344,0.64044 -10.6343,1.49436 -7.76018,1.28088 -15.23294,2.56176 -7.76016,1.28088 -15.80776,2.56176 -3.16155,0.64044 -5.74827,0.85392 -2.58672,0.21348 -4.88604,-1.70784 -2.58672,-2.56176 -4.88603,-5.12352 -2.29931,-2.56176 -2.0119,-5.97744 0.28741,-3.62916 5.74827,-4.2696 12.93363,-1.70784 25.57984,-3.41568 12.35878,-1.70784 25.005,-3.41568 5.17345,-0.42696 10.3469,-0.85392 5.17344,-0.42696 10.6343,-0.85392 6.0357,0 7.76018,-4.48308 1.43707,-3.41568 3.16155,-7.04484 1.72448,-3.62916 3.44896,-7.25832 1.43707,-2.34828 3.16155,-3.2022 1.7245,-0.85392 4.88605,0.21348 4.02379,1.06741 8.04758,1.70785 4.02379,0.64043 7.47276,2.34828 4.59862,1.70784 5.17345,3.41567 0.86224,1.49436 -0.57483,5.33701 -0.86224,2.56175 -1.14965,4.05612 -0.28742,1.28087 0.28741,1.92131 0.57483,0.42697 2.58672,0.64044 2.0119,0 5.46086,0 10.3469,-0.21347 20.69379,0 10.34691,0 20.69381,0 4.59861,0 8.90982,-0.21347 4.59862,-0.21349 9.48466,-0.42697 l 0.28741,0.42697 -0.28741,-0.42697 q 1.14965,0 2.01189,0.64044 0.86225,3.84264 6.03569,3.84264 7.18535,0 13.79587,0.21348 6.89792,0 13.50845,0.64044 3.16155,0.42696 5.74827,1.28088 2.87414,0.85392 5.46086,1.92132 z" /><text
   xml:space="preserve"
   style="font-style:normal;font-variant:normal;font-weight:normal;font-stretch:normal;font-size:159.98445129px;line-height:1.25;font-family:Takota;-inkscape-font-specification:'Takota, Normal';font-variant-ligatures:normal;font-variant-caps:normal;font-variant-numeric:normal;font-feature-settings:normal;text-align:start;letter-spacing:0px;word-spacing:0px;writing-mode:lr-tb;text-anchor:start;fill:#000000;fill-opacity:1;stroke:none;stroke-width:3.99948692;"
   x="246.41924"
   y="466.58823"
   id="text4531"
   transform="scale(1.1603132,0.86183627)"><tspan
     sodipodi:role="line"
     id="tspan4529"
     x="246.41924"
     y="466.58823"
     style="font-style:normal;font-variant:normal;font-weight:normal;font-stretch:normal;font-size:159.98445129px;font-family:Takota;-inkscape-font-specification:'Takota, Normal';font-variant-ligatures:normal;font-variant-caps:normal;font-variant-numeric:normal;font-feature-settings:normal;text-align:start;writing-mode:lr-tb;text-anchor:start;fill:#000000;fill-opacity:1;stroke-width:3.99948692;">Marcina</tspan></text>
<g
   style="fill:#000000;stroke:#000000"
   id="g931"
   transform="matrix(1.1262047,0,0,1.1262047,-33.201298,-37.566623)"><path
     style="fill:#000000;fill-opacity:1;stroke:#000000;stroke-width:6;stroke-miterlimit:4;stroke-dasharray:none;stroke-opacity:1"
     id="path4670"
     d="m 78.575166,388.50099 172.004104,-0.50981 c 6.9192,-0.0205 12.51395,-5.64854 12.49572,-12.57002 l -0.0456,-15.53863 -0.0298,-10.02502 -0.0461,-15.54364 c -0.0205,-6.9192 -5.64853,-12.51395 -12.57001,-12.49571 l -172.005025,0.50981 c -6.919197,0.0205 -12.513954,5.64852 -12.495716,12.57 l 0.121874,41.10686 c 0.02275,6.92237 5.648082,12.5144 12.57047,12.49616 z"
     inkscape:connector-curvature="0" /><path
     style="fill:#000000;fill-opacity:1;stroke:#000000;stroke-width:7.09725809;stroke-miterlimit:4;stroke-dasharray:none;stroke-opacity:1"
     id="path4674"
     d="m 185.4637,516.17503 -0.24428,-82.41467 -34.35043,0.10185 0.24427,82.41469 c 0.0285,9.48525 7.74133,17.15243 17.22613,17.12431 9.4848,-0.0281 17.15243,-7.74133 17.12431,-17.22613 z"
     inkscape:connector-curvature="0" /><path
     style="fill:#000000;fill-opacity:1;stroke:#000000;stroke-width:7.09725809;stroke-miterlimit:4;stroke-dasharray:none;stroke-opacity:0"
     id="path4676"
     d="m 173.98014,436.07106 -0.0422,-14.23038 c -0.0318,-10.61207 -11.3003,-19.21411 -25.12051,-19.17314 l -80.568006,0.24106 c -8.293394,0.0246 -15.057967,-6.70001 -15.082548,-14.99339 l -0.03615,-12.195 c -0.02123,-7.16203 5.001734,-13.16261 11.711395,-14.68631 l -0.03013,-10.16962 C 52.546795,352.51632 43.06721,363.04744 43.102593,375.7522 l 0.03615,12.19499 c 0.04097,13.82022 11.317531,25.03013 25.137736,24.98917 l 80.565741,-0.23879 c 8.8609,-0.0264 15.05238,4.81469 15.06531,9.17739 l 0.0422,14.23037 z"
     inkscape:connector-curvature="0" /></g><text
   xml:space="preserve"
   style="font-style:normal;font-variant:normal;font-weight:normal;font-stretch:normal;font-size:291.08535767px;line-height:1.25;font-family:Takota;-inkscape-font-specification:'Takota, Normal';font-variant-ligatures:normal;font-variant-caps:normal;font-variant-numeric:normal;font-feature-settings:normal;text-align:start;letter-spacing:0px;word-spacing:0px;writing-mode:lr-tb;text-anchor:start;fill:#000000;fill-opacity:1;stroke:none;stroke-width:7.27713394;"
   x="771.89777"
   y="385.49197"
   id="text4775"
   transform="scale(1.0841522,0.92237972)"><tspan
     sodipodi:role="line"
     id="tspan4773"
     x="771.89777"
     y="385.49197"
     style="fill:#000000;fill-opacity:1;stroke-width:7.27713394;">y</tspan></text>
<flowRoot
   xml:space="preserve"
   id="flowRoot4781"
   style="font-style:normal;font-weight:normal;font-size:40px;line-height:1.25;font-family:sans-serif;letter-spacing:0px;word-spacing:0px;fill:#000000;fill-opacity:1;stroke:none"
   transform="translate(-17.42926,-118.55601)"><flowRegion
     id="flowRegion4783"><rect
       id="rect4785"
       width="374.31116"
       height="124.25903"
       x="1271.7375"
       y="577.39801" /></flowRegion><flowPara
     id="flowPara4787" /></flowRoot></svg>