<?xml version="1.0" encoding="UTF-8" standalone="no"?>
<!-- Created with Inkscape (http://www.inkscape.org/) -->

<svg
   xmlns:dc="http://purl.org/dc/elements/1.1/"
   xmlns:cc="http://creativecommons.org/ns#"
   xmlns:rdf="http://www.w3.org/1999/02/22-rdf-syntax-ns#"
   xmlns:svg="http://www.w3.org/2000/svg"
   xmlns="http://www.w3.org/2000/svg"
   xmlns:sodipodi="http://sodipodi.sourceforge.net/DTD/sodipodi-0.dtd"
   xmlns:inkscape="http://www.inkscape.org/namespaces/inkscape"
   width="170.49496mm"
   height="67.777336mm"
   viewBox="0 0 170.49496 67.777336"
   version="1.1"
   id="svg8"
   inkscape:version="0.92.4 (5da689c313, 2019-01-14)"
   sodipodi:docname="aboutUsIcon.svg">
  <defs
     id="defs2" />
  <sodipodi:namedview
     id="base"
     pagecolor="#ffffff"
     bordercolor="#666666"
     borderopacity="1.0"
     inkscape:pageopacity="0.0"
     inkscape:pageshadow="2"
     inkscape:zoom="0.35"
     inkscape:cx="-261.875"
     inkscape:cy="-7.6785764"
     inkscape:document-units="mm"
     inkscape:current-layer="layer1"
     showgrid="false"
     fit-margin-top="0"
     fit-margin-left="0"
     fit-margin-right="0"
     fit-margin-bottom="0"
     inkscape:window-width="1920"
     inkscape:window-height="1001"
     inkscape:window-x="-9"
     inkscape:window-y="-9"
     inkscape:window-maximized="1" />
  <metadata
     id="metadata5">
    <rdf:RDF>
      <cc:Work
         rdf:about="">
        <dc:format>image/svg+xml</dc:format>
        <dc:type
           rdf:resource="http://purl.org/dc/dcmitype/StillImage" />
        <dc:title></dc:title>
      </cc:Work>
    </rdf:RDF>
  </metadata>
  <g
     inkscape:label="Layer 1"
     inkscape:groupmode="layer"
     id="layer1"
     transform="translate(-37.537761,-79.024376)">
    <g
       aria-label="O nas"
       style="font-style:normal;font-variant:normal;font-weight:normal;font-stretch:normal;font-size:69.47346497px;line-height:1.25;font-family:Pacifico;-inkscape-font-specification:'Pacifico, Normal';font-variant-ligatures:normal;font-variant-caps:normal;font-variant-numeric:normal;font-feature-settings:normal;text-align:start;letter-spacing:0px;word-spacing:0px;writing-mode:lr-tb;text-anchor:start;fill:#000000;fill-opacity:1;stroke:none;stroke-width:1.73683643"
       id="text817">
      <path
         d="m 59.451755,146.80171 q -5.054466,0 -9.125177,-2.06928 -4.036788,-2.06927 -6.886286,-5.76684 -2.849497,-3.73148 -4.376014,-8.85379 -1.526517,-5.15624 -1.526517,-11.29623 0,-3.25656 0.474917,-6.68275 0.474916,-3.42618 1.424749,-6.81844 0.983755,-3.42618 2.408503,-6.682747 1.458672,-3.290491 3.358337,-6.207834 1.933588,-2.917342 4.308169,-5.359769 2.374581,-2.476349 5.224079,-4.240324 2.88342,-1.797897 6.173911,-2.781652 3.324414,-1.017678 7.123744,-1.017678 5.088389,0 9.091254,1.83182 4.036789,1.83182 6.784518,5.122311 2.781653,3.290491 4.240324,7.870041 1.492594,4.545627 1.492594,10.041082 0,4.54563 -0.91591,9.49833 -0.881987,4.91878 -2.612039,9.70186 -1.730052,4.74916 -4.308169,9.05733 -2.578117,4.30817 -5.936453,7.56474 -3.358337,3.25657 -7.496893,5.15623 -4.104633,1.93359 -8.921641,1.93359 z m 0.814142,-8.27711 q 2.713807,0 5.054466,-1.0516 2.340659,-1.0516 4.274246,-2.88342 1.967511,-1.83182 3.561872,-4.27425 1.628285,-2.47635 2.88342,-5.29192 1.255136,-2.81558 2.171046,-5.83469 0.949833,-3.01911 1.560439,-5.97037 0.610607,-2.95127 0.881988,-5.66508 0.305303,-2.74773 0.305303,-4.98662 0,-3.256565 -0.712374,-6.106062 -0.712375,-2.883421 -2.171046,-4.986621 -1.424749,-2.137123 -3.629717,-3.358337 -2.171046,-1.221213 -5.088389,-1.221213 -3.120878,0 -6.038221,1.526517 -2.917343,1.492594 -5.49546,4.07071 -2.578116,2.544195 -4.71524,5.936454 -2.137123,3.358332 -3.663639,7.089822 -1.526517,3.73148 -2.374582,7.59866 -0.848064,3.86717 -0.848064,7.39512 0,3.83326 0.949832,7.15767 0.983755,3.29049 2.781653,5.699 1.831819,2.4085 4.409936,3.79933 2.61204,1.3569 5.902531,1.3569 z"
         style="font-style:normal;font-variant:normal;font-weight:normal;font-stretch:normal;font-size:69.47346497px;font-family:Pacifico;-inkscape-font-specification:'Pacifico, Normal';font-variant-ligatures:normal;font-variant-caps:normal;font-variant-numeric:normal;font-feature-settings:normal;text-align:start;writing-mode:lr-tb;text-anchor:start;stroke-width:1.73683643"
         id="path819"
         inkscape:connector-curvature="0" />
      <path
         d="m 112.43884,133.19875 q 0,-2.23889 0.27138,-5.15623 0.27139,-2.95127 0.67846,-5.97038 0.40707,-3.05303 0.91591,-5.8686 0.50884,-2.81558 0.98375,-4.81701 0.37315,-1.56044 1.42475,-2.61204 1.08552,-1.0516 2.91734,-1.0516 1.83182,0 2.5442,1.11944 0.71237,1.11945 0.71237,2.98519 0,0.50884 -0.10177,1.39083 -0.10176,0.84806 -0.27138,1.89966 -0.13569,1.01768 -0.3053,2.13713 -0.16961,1.08552 -0.33923,2.03535 -0.13569,0.91591 -0.23745,1.62829 -0.10177,0.67845 -0.10177,0.91591 h 0.67845 q 0.20354,-0.37315 0.64453,-1.1873 0.44099,-0.84806 1.01768,-1.93358 0.57668,-1.08553 1.22121,-2.27282 0.67845,-1.22121 1.25514,-2.30673 0.57668,-1.11945 1.0516,-1.96751 0.47491,-0.84807 0.71237,-1.25514 1.08552,-1.83182 2.47635,-2.51027 1.39083,-0.67845 3.08696,-0.67845 1.69612,0 2.67988,1.42475 1.01768,1.42475 1.01768,3.93502 0,0.37315 -0.16962,1.25513 -0.13569,0.88199 -0.37314,2.1032 -0.23746,1.22122 -0.54277,2.67989 -0.27138,1.45867 -0.50883,2.98519 -0.23746,1.52651 -0.40708,3.01911 -0.13569,1.49259 -0.13569,2.74773 0,2.1032 0.50884,3.4601 0.54276,1.3569 1.66221,1.3569 0.50884,0 1.15337,-0.3053 0.67845,-0.3053 1.42475,-0.78022 0.78022,-0.50884 1.56044,-1.15337 0.81414,-0.64453 1.59436,-1.32298 1.7979,-1.59436 3.76541,-3.59579 l 0.57668,7.59866 -1.69613,1.28906 q -1.39083,1.0516 -2.8495,2.1032 -1.42475,1.0516 -2.98519,1.89966 -1.56043,0.81414 -3.25656,1.35691 -1.69613,0.50883 -3.56188,0.50883 -1.86574,0 -3.1548,-2.67988 -1.25513,-2.71381 -1.25513,-7.90396 0,-2.03536 0.27138,-4.37602 0.27138,-2.37458 0.67845,-5.08839 h -0.54276 l -8.88772,17.63975 q -0.67845,1.39083 -1.52652,1.89967 -0.84806,0.50883 -1.96751,0.50883 -1.39082,0 -2.23889,-0.57668 -0.84806,-0.61061 -1.32298,-1.59436 -0.44099,-1.01768 -0.61061,-2.27282 -0.13569,-1.28905 -0.13569,-2.64596 z"
         style="font-style:normal;font-variant:normal;font-weight:normal;font-stretch:normal;font-size:69.47346497px;font-family:Pacifico;-inkscape-font-specification:'Pacifico, Normal';font-variant-ligatures:normal;font-variant-caps:normal;font-variant-numeric:normal;font-feature-settings:normal;text-align:start;writing-mode:lr-tb;text-anchor:start;stroke-width:1.73683643"
         id="path821"
         inkscape:connector-curvature="0" />
      <path
         d="m 179.40204,131.97754 q -0.78022,1.08552 -2.1032,2.54419 -1.28906,1.45868 -2.91735,2.78166 -1.62828,1.32298 -3.49402,2.23889 -1.86575,0.91591 -3.73149,0.91591 -2.23889,0 -3.73148,-1.42475 -1.4926,-1.45867 -2.57812,-4.2064 -0.81414,0.94983 -2.00143,1.93358 -1.18729,0.98376 -2.61204,1.7979 -1.39083,0.78022 -2.91735,1.28906 -1.52651,0.50884 -3.05303,0.50884 -1.62828,0 -3.18872,-0.64453 -1.52652,-0.67845 -2.71381,-1.89966 -1.18729,-1.25514 -1.89966,-3.01912 -0.71238,-1.79789 -0.71238,-4.03678 0,-2.5442 0.71238,-5.22408 0.71237,-2.67989 1.96751,-5.22408 1.25513,-2.57812 2.95126,-4.85093 1.73005,-2.27282 3.76541,-3.96894 2.03535,-1.69613 4.27425,-2.67989 2.27281,-1.01768 4.61347,-1.01768 0.78022,0 1.22121,0.30531 0.44099,0.3053 0.71238,0.71237 0.3053,0.37315 0.57668,0.7463 0.27138,0.37315 0.67845,0.54276 0.40707,0.16961 0.81414,0.23746 0.441,0.0339 0.88199,0.0339 0.37315,0 0.7463,0 0.40707,-0.0339 0.78022,-0.0339 0.50884,0 0.94983,0.10176 0.44099,0.10177 0.78022,0.441 0.33923,0.33922 0.50884,0.94983 0.20353,0.61061 0.20353,1.66221 0,1.62828 -0.33922,3.62972 -0.33923,1.96751 -0.7463,4.07071 -0.40707,2.06927 -0.7463,4.17247 -0.33922,2.06928 -0.33922,3.93502 0,1.59437 0.27138,2.51028 0.3053,0.88198 1.25513,0.88198 0.71238,0 1.4926,-0.33922 0.78022,-0.37315 1.56044,-0.94983 0.81414,-0.57669 1.59436,-1.28906 0.81414,-0.7463 1.52652,-1.52652 1.6622,-1.83182 3.35833,-4.13856 z m -28.9699,-2.67989 q 0,0.84807 0.10177,1.66221 0.13569,0.78022 0.441,1.42475 0.3053,0.61061 0.81414,1.01768 0.50884,0.37315 1.28906,0.37315 1.25513,0 2.27281,-1.08553 1.01768,-1.08552 1.76397,-2.61204 0.7463,-1.52651 1.1873,-3.1548 0.47491,-1.62828 0.6106,-2.7138 l 2.06928,-9.97325 q -1.39083,0 -2.71381,0.71238 -1.32298,0.67845 -2.51027,1.86574 -1.15337,1.18729 -2.13712,2.71381 -0.98376,1.52652 -1.69613,3.22265 -0.71238,1.6622 -1.11945,3.35833 -0.37315,1.69613 -0.37315,3.18872 z"
         style="font-style:normal;font-variant:normal;font-weight:normal;font-stretch:normal;font-size:69.47346497px;font-family:Pacifico;-inkscape-font-specification:'Pacifico, Normal';font-variant-ligatures:normal;font-variant-caps:normal;font-variant-numeric:normal;font-feature-settings:normal;text-align:start;writing-mode:lr-tb;text-anchor:start;stroke-width:1.73683643"
         id="path823"
         inkscape:connector-curvature="0" />
      <path
         d="m 174.31364,127.2623 q 1.89967,-1.62828 3.08696,-2.71381 1.18729,-1.08552 2.03535,-1.96751 0.84807,-0.91591 1.52652,-1.83182 0.71237,-0.91591 1.6622,-2.17104 0.94984,-1.25514 2.30674,-3.05304 1.3569,-1.83182 3.52795,-4.54562 0.44099,-0.61061 0.98376,-1.18729 0.54276,-0.57669 1.18729,-1.01768 0.67845,-0.47492 1.45867,-0.7463 0.81414,-0.3053 1.79789,-0.3053 1.62829,0 2.51028,0.37315 0.88198,0.33922 1.28906,0.84806 0.40707,0.50884 0.47491,1.08552 0.0679,0.54277 0.0679,0.94984 0,0.81414 -0.64453,1.79789 -0.64453,0.98376 -1.42475,1.89967 -0.78022,0.91591 -1.4926,1.69613 -0.67845,0.7463 -0.78022,1.11944 0,1.0516 0.1357,1.93359 0.16961,0.84807 0.40707,1.69613 0.27138,0.81414 0.54276,1.76398 0.27138,0.91591 0.50884,2.13712 0.27138,1.22121 0.40707,2.81557 0.16961,1.59437 0.16961,3.76541 1.22121,-0.81414 2.61204,-1.45867 1.42475,-0.67845 2.95127,-1.39083 1.52651,-0.71237 3.12087,-1.56044 1.62829,-0.88198 3.25657,-2.1032 l 0.0339,7.59866 q -2.10321,1.62829 -4.88486,3.05304 -2.74773,1.42475 -5.80076,2.51027 -3.01911,1.08552 -6.13999,1.73005 -3.08696,0.61061 -5.86861,0.61061 -2.00143,0 -3.73148,-0.37315 -1.73005,-0.37315 -3.05304,-1.15337 -1.28905,-0.81414 -2.1032,-2.1032 -0.81414,-1.28906 -0.98375,-3.12088 -0.47492,0.10177 -0.94983,0.13569 -0.441,0.0339 -0.88199,0.0339 -0.54276,0 -1.01768,-0.0339 -0.47492,-0.0339 -0.81414,-0.23746 -0.33923,-0.23745 -0.54276,-0.71237 -0.20354,-0.50884 -0.20354,-1.42475 0,-0.81414 0.40707,-1.49259 0.40707,-0.71238 0.94984,-1.25514 0.54276,-0.54276 1.08552,-0.94983 0.54276,-0.40707 0.81414,-0.64453 z m 4.34209,4.34209 q 0.40707,0 0.88199,0.50884 0.50884,0.50884 1.15337,1.11945 0.64453,0.6106 1.49259,1.11944 0.84807,0.50884 1.93359,0.50884 1.32298,0 2.17104,-0.44099 0.88199,-0.441 1.39083,-1.15337 0.50884,-0.7463 0.71238,-1.69613 0.20353,-0.98376 0.20353,-2.03536 0,-0.91591 -0.13569,-1.86574 -0.10177,-0.94983 -0.3053,-1.7979 -0.16962,-0.88198 -0.40707,-1.62828 -0.20354,-0.78022 -0.37315,-1.32298 z"
         style="font-style:normal;font-variant:normal;font-weight:normal;font-stretch:normal;font-size:69.47346497px;font-family:Pacifico;-inkscape-font-specification:'Pacifico, Normal';font-variant-ligatures:normal;font-variant-caps:normal;font-variant-numeric:normal;font-feature-settings:normal;text-align:start;writing-mode:lr-tb;text-anchor:start;stroke-width:1.73683643"
         id="path825"
         inkscape:connector-curvature="0" />
    </g>
  </g>
</svg>
