<?xml version="1.0" encoding="UTF-8" standalone="no"?>
<!-- Generator: Adobe Illustrator 16.0.0, SVG Export Plug-In . SVG Version: 6.00 Build 0)  -->

<svg
   xmlns:dc="http://purl.org/dc/elements/1.1/"
   xmlns:cc="http://creativecommons.org/ns#"
   xmlns:rdf="http://www.w3.org/1999/02/22-rdf-syntax-ns#"
   xmlns:svg="http://www.w3.org/2000/svg"
   xmlns="http://www.w3.org/2000/svg"
   xmlns:sodipodi="http://sodipodi.sourceforge.net/DTD/sodipodi-0.dtd"
   xmlns:inkscape="http://www.inkscape.org/namespaces/inkscape"
   version="1.1"
   id="Capa_1"
   x="0px"
   y="0px"
   width="399.12097"
   height="60.731998"
   viewBox="0 0 399.12096 60.731997"
   xml:space="preserve"
   sodipodi:docname="fbRemontyMarcina.svg"
   inkscape:version="0.92.4 (5da689c313, 2019-01-14)"><metadata
   id="metadata41"><rdf:RDF><cc:Work
       rdf:about=""><dc:format>image/svg+xml</dc:format><dc:type
         rdf:resource="http://purl.org/dc/dcmitype/StillImage" /><dc:title></dc:title></cc:Work></rdf:RDF></metadata><defs
   id="defs39" /><sodipodi:namedview
   pagecolor="#ffffff"
   bordercolor="#666666"
   borderopacity="1"
   objecttolerance="10"
   gridtolerance="10"
   guidetolerance="10"
   inkscape:pageopacity="0"
   inkscape:pageshadow="2"
   inkscape:window-width="1920"
   inkscape:window-height="1001"
   id="namedview37"
   showgrid="false"
   inkscape:zoom="2.7477186"
   inkscape:cx="198.71888"
   inkscape:cy="20.777288"
   inkscape:window-x="-9"
   inkscape:window-y="-9"
   inkscape:window-maximized="1"
   inkscape:current-layer="Capa_1"
   showborder="false"
   fit-margin-top="0"
   fit-margin-left="0"
   fit-margin-right="0"
   fit-margin-bottom="0" />

<g
   id="g6"
   transform="translate(-17.105099,2.2607621)">
</g>
<g
   id="g8"
   transform="translate(-17.105099,2.2607621)">
</g>
<g
   id="g10"
   transform="translate(-17.105099,2.2607621)">
</g>
<g
   id="g12"
   transform="translate(-17.105099,2.2607621)">
</g>
<g
   id="g14"
   transform="translate(-17.105099,2.2607621)">
</g>
<g
   id="g16"
   transform="translate(-17.105099,2.2607621)">
</g>
<g
   id="g18"
   transform="translate(-17.105099,2.2607621)">
</g>
<g
   id="g20"
   transform="translate(-17.105099,2.2607621)">
</g>
<g
   id="g22"
   transform="translate(-17.105099,2.2607621)">
</g>
<g
   id="g24"
   transform="translate(-17.105099,2.2607621)">
</g>
<g
   id="g26"
   transform="translate(-17.105099,2.2607621)">
</g>
<g
   id="g28"
   transform="translate(-17.105099,2.2607621)">
</g>
<g
   id="g30"
   transform="translate(-17.105099,2.2607621)">
</g>
<g
   id="g32"
   transform="translate(-17.105099,2.2607621)">
</g>
<g
   id="g34"
   transform="translate(-17.105099,2.2607621)">
</g>
<g
   id="g901"
   transform="translate(-17.105099,2.2607621)"><g
     transform="translate(17.105099,-2.2617621)"
     style="fill:#0096ff;fill-opacity:1"
     id="g4">
	<path
   inkscape:connector-curvature="0"
   style="fill:#0096ff;fill-opacity:1"
   id="path2"
   d="M 57.378,0.001 H 3.352 C 1.502,0.001 0,1.5 0,3.353 v 54.026 c 0,1.853 1.502,3.354 3.352,3.354 H 32.438 V 37.214 h -7.914 v -9.167 h 7.914 v -6.76 c 0,-7.843 4.789,-12.116 11.787,-12.116 3.355,0 6.232,0.251 7.071,0.36 v 8.198 l -4.854,0.002 c -3.805,0 -4.539,1.809 -4.539,4.462 v 5.851 h 9.078 l -1.187,9.166 h -7.892 v 23.52 h 15.475 c 1.852,0 3.355,-1.503 3.355,-3.351 V 3.351 C 60.731,1.5 59.23,0.001 57.378,0.001 Z" />
</g><g
     id="text850"
     style="font-style:normal;font-variant:normal;font-weight:normal;font-stretch:normal;font-size:40px;line-height:1.25;font-family:Pacifico;-inkscape-font-specification:'Pacifico, Normal';font-variant-ligatures:normal;font-variant-caps:normal;font-variant-numeric:normal;font-feature-settings:normal;text-align:start;letter-spacing:0px;word-spacing:0px;writing-mode:lr-tb;text-anchor:start;fill:#000000;fill-opacity:1;stroke:none"
     aria-label="@RemontyMarcina"><path
       id="path852"
       d="m 114.97607,16.445084 q -0.44921,-0.117188 -0.95703,-0.175782 -0.48828,-0.07813 -0.9375,-0.07813 -1.25,0 -2.4414,0.644532 -1.19141,0.644531 -2.26563,1.699218 -1.07422,1.035157 -1.97265,2.402344 -0.89844,1.347656 -1.5625,2.792969 -0.64454,1.425781 -1.01563,2.8125 -0.35156,1.386719 -0.35156,2.519531 0,1.464844 0.60547,2.265625 0.625,0.78125 1.93359,0.78125 0.87891,0 1.66016,-0.351562 0.80078,-0.371094 1.46484,-0.957032 0.68359,-0.605468 1.23047,-1.347656 0.56641,-0.742187 0.97656,-1.503906 0.42969,-0.761719 0.70313,-1.464844 0.27343,-0.722656 0.37109,-1.230469 z M 88.140137,32.343521 q 0,-2.226562 0.46875,-4.550781 0.46875,-2.324219 1.347656,-4.589844 0.898437,-2.285156 2.167969,-4.453125 1.289062,-2.167969 2.890625,-4.082031 1.621093,-1.914063 3.535156,-3.515625 1.933597,-1.6210939 4.101567,-2.7734376 2.1875,-1.171875 4.57031,-1.8164063 2.40234,-0.6445312 4.98047,-0.6445312 1.89453,0 3.76953,0.3320312 1.89453,0.3320313 3.61328,1.0351563 1.73828,0.6835937 3.20312,1.7773437 1.48438,1.0742189 2.57813,2.5976559 1.09375,1.503907 1.71875,3.476563 0.625,1.953125 0.625,4.414062 0,0.507813 -0.0195,1.035157 -0.0195,0.527343 -0.0977,1.074218 -0.17578,1.328125 -0.72265,2.890625 -0.52735,1.542969 -1.38672,3.085938 -0.83985,1.523437 -1.97266,2.949219 -1.13281,1.425781 -2.5,2.519531 -1.36719,1.074219 -2.94922,1.738281 -1.58203,0.644531 -3.30078,0.644531 -0.42969,0 -0.87891,-0.136718 -0.42968,-0.15625 -0.78125,-0.546875 -0.35156,-0.390625 -0.5664,-1.074219 -0.21485,-0.683594 -0.21485,-1.777344 0,-0.46875 0.0586,-0.996094 0.0781,-0.527343 0.19531,-1.152343 -0.74219,1.503906 -1.67969,2.636718 -0.91797,1.132813 -1.97265,1.914063 -1.05469,0.78125 -2.1875,1.171875 -1.11328,0.390625 -2.22657,0.390625 -1.28906,0 -2.46093,-0.429688 -1.15235,-0.429687 -2.050785,-1.269531 -0.878906,-0.859375 -1.40625,-2.109375 -0.527343,-1.269531 -0.527343,-2.949219 0,-1.699218 0.527343,-3.613281 0.546875,-1.914062 1.523435,-3.789062 0.9961,-1.875 2.38282,-3.574219 1.40625,-1.71875 3.14453,-3.027344 1.73828,-1.308594 3.76953,-2.070312 2.05078,-0.78125 4.29687,-0.78125 0.44922,0 0.72266,0.07813 0.27344,0.05859 0.41016,0.175781 0.13671,0.09766 0.17578,0.214844 0.0391,0.117187 0.0391,0.195312 0,0.07813 -0.0195,0.136719 0,0.03906 0,0.07813 v 0.07813 q 0.44922,0.195312 0.9375,0.234375 0.50781,0.03906 0.97656,0.07813 0.46875,0.03906 0.87891,0.136719 0.42968,0.09766 0.74218,0.410156 0.33204,0.3125 0.50782,0.917969 0.19531,0.605468 0.19531,1.621093 0,0.78125 -0.17578,1.777344 -0.15625,0.976563 -0.42969,2.050781 -0.25391,1.074219 -0.58594,2.1875 -0.33203,1.09375 -0.64453,2.148438 -0.3125,1.035156 -0.58594,1.953125 -0.2539,0.917969 -0.39062,1.621094 -0.27344,0.878906 -0.27344,1.503906 0,0.449219 0.13672,0.722656 0.15625,0.273438 0.48828,0.273438 0.72266,0 1.44531,-0.429688 0.72266,-0.449219 1.38672,-1.210937 0.6836,-0.761719 1.25,-1.777344 0.58594,-1.035156 1.01563,-2.207031 0.42969,-1.191407 0.66406,-2.460938 0.25391,-1.269531 0.25391,-2.519531 0,-2.929688 -0.83985,-4.960938 -0.82031,-2.03125 -2.26562,-3.28125 -1.44531,-1.269531 -3.37891,-1.816406 -1.93359,-0.5664061 -4.14062,-0.5664061 -2.75391,0 -5.19532,1.0156251 -2.4414,1.015625 -4.49218,2.734375 -2.05078,1.699219 -3.671878,3.925781 -1.621094,2.207031 -2.753907,4.628906 -1.132812,2.421875 -1.738281,4.882813 -0.585937,2.441406 -0.585937,4.589844 0,1.738281 0.605468,3.144531 0.605469,1.386719 1.972657,2.382812 1.367187,0.996094 3.574218,1.523438 2.20703,0.546875 5.41016,0.546875 4.66797,0 8.24218,-0.722656 3.59375,-0.703125 6.23047,-1.914063 0.44922,-0.195312 0.82032,-0.195312 0.33203,0 0.5664,0.15625 0.23438,0.15625 0.39063,0.410156 0.15625,0.253906 0.21484,0.566406 0.0781,0.332031 0.0781,0.664063 0,0.507812 -0.15625,0.957031 -0.15625,0.46875 -0.42969,0.625 -1.875,1.113281 -4.14063,1.953125 -2.24609,0.839844 -4.60937,1.386719 -2.36328,0.566406 -4.70703,0.839843 -2.34375,0.273438 -4.375,0.273438 -3.808597,0 -6.679691,-0.878906 -2.871094,-0.878907 -4.785156,-2.441407 -1.914063,-1.542968 -2.890625,-3.691406 -0.957031,-2.148437 -0.957031,-4.6875 z"
       inkscape:connector-curvature="0" /><path
       id="path854"
       d="m 165.32764,11.874771 q 0,0.9375 -0.3125,1.972656 -0.3125,1.035157 -0.95703,2.050782 -0.64454,0.996093 -1.66016,1.933593 -0.99609,0.9375 -2.40234,1.679688 -1.40625,0.742187 -3.20313,1.25 -1.79687,0.488281 -4.04297,0.625 1.36719,0.507812 2.28516,1.308594 0.91797,0.800781 1.52344,1.796875 0.625,0.976562 0.97656,2.070312 0.37109,1.09375 0.625,2.148438 0.2539,1.054687 0.44922,2.03125 0.21484,0.957031 0.48828,1.699218 0.29297,0.722657 0.72265,1.171875 0.42969,0.429688 1.15235,0.429688 0.66406,0 1.44531,-0.214844 0.80078,-0.234375 1.62109,-0.644531 0.83985,-0.410156 1.64063,-0.976563 0.82031,-0.566406 1.52344,-1.25 l 2.26562,3.828125 q 0,-0.01953 -0.37109,0.253907 -0.3711,0.253906 -1.03516,0.664062 -0.66406,0.390625 -1.58203,0.859375 -0.89844,0.488281 -1.99219,0.898438 -1.09375,0.410156 -2.32422,0.683593 -1.21093,0.273438 -2.48046,0.273438 -1.42579,0 -2.44141,-0.703125 -0.99609,-0.703125 -1.69922,-1.855469 -0.70312,-1.152344 -1.17187,-2.617187 -0.46875,-1.484375 -0.82032,-3.027344 -0.35156,-1.542969 -0.66406,-3.007813 -0.29297,-1.484375 -0.66406,-2.636718 -0.3711,-1.152344 -0.87891,-1.855469 -0.50781,-0.703125 -1.26953,-0.703125 h -1.23047 q -0.39062,4.277344 -0.97656,7.675781 -0.58594,3.378906 -1.5625,5.742188 -0.95703,2.363281 -2.42188,3.613281 -1.44531,1.25 -3.55468,1.25 -1.5625,0 -2.8711,-0.605469 -1.28906,-0.585937 -2.34375,-1.621094 -1.03515,-1.035156 -1.8164,-2.421875 -0.78125,-1.386718 -1.3086,-2.96875 -0.50781,-1.601562 -0.78125,-3.300781 -0.2539,-1.699219 -0.2539,-3.378906 0,-3.027344 0.74218,-5.917969 0.76172,-2.910156 2.16797,-5.488281 1.42578,-2.578125 3.4375,-4.7265626 2.01172,-2.1679688 4.51172,-3.7304688 2.51953,-1.5820312 5.46875,-2.4609375 2.96875,-0.8789062 6.26953,-0.8789062 1.46485,0 2.91016,0.2734375 1.44531,0.2734375 2.75391,0.8007812 1.30859,0.5273438 2.42187,1.3085938 1.13281,0.78125 1.93359,1.796875 0.82032,0.9960937 1.28907,2.2265625 0.46875,1.2304691 0.46875,2.6757811 z M 153.19873,7.1677399 q -3.22266,0 -5.76172,0.8984375 -2.51953,0.8984375 -4.43359,2.4218746 -1.91406,1.523438 -3.26172,3.535157 -1.34766,2.011718 -2.1875,4.21875 -0.83984,2.207031 -1.23047,4.472656 -0.37109,2.265625 -0.37109,4.316406 0,1.582031 0.27343,3.183594 0.27344,1.582031 0.85938,2.851562 0.58594,1.269532 1.50391,2.070313 0.9375,0.78125 2.24609,0.78125 0.66406,0 1.17187,-0.507813 0.50782,-0.527343 0.89844,-1.386718 0.39063,-0.878907 0.6836,-2.011719 0.29296,-1.152344 0.48828,-2.382813 0.19531,-1.230468 0.3125,-2.480468 0.11718,-1.25 0.17578,-2.34375 0.0781,-1.09375 0.0976,-1.933594 0.0195,-0.859375 0.0195,-1.308594 -1.52344,-0.722656 -2.32422,-1.347656 -0.78125,-0.625 -0.78125,-1.445313 0,-0.195312 0.0195,-0.46875 0.0391,-0.273437 0.13672,-0.507812 0.0976,-0.234375 0.27343,-0.390625 0.19532,-0.175781 0.50782,-0.175781 0.13672,0 0.54687,0.05859 0.41016,0.03906 0.85938,0.117188 0.44922,0.05859 0.82031,0.117187 0.39062,0.03906 0.50781,0.03906 l 0.0195,-0.410156 q 0.0195,-0.3125 0.0586,-0.859375 0.0586,-0.546875 0.17578,-1.171875 0.11719,-0.625 0.33203,-1.25 0.23437,-0.644532 0.60547,-1.152344 0.37109,-0.527344 0.8789,-0.839844 0.52735,-0.332031 1.26954,-0.332031 0.97656,0 1.28906,0.449219 0.33203,0.429687 0.33203,1.113281 v 0.175781 q -0.0195,0.742188 -0.23438,1.972656 -0.19531,1.210938 -0.37109,2.8125 3.18359,-0.05859 5.25391,-0.625 2.07031,-0.585937 3.28125,-1.464843 1.21093,-0.878907 1.69922,-1.914063 0.48828,-1.054687 0.48828,-2.03125 0,-0.957031 -0.46875,-1.835937 -0.44922,-0.8789066 -1.34766,-1.5429691 -0.89844,-0.6835938 -2.22656,-1.0742188 -1.32813,-0.4101562 -3.08594,-0.4101562 z"
       inkscape:connector-curvature="0" /><path
       id="path856"
       d="m 172.00732,36.54274 q -1.83593,0 -3.22265,-0.664063 -1.36719,-0.664062 -2.28516,-1.777343 -0.91797,-1.132813 -1.38672,-2.597657 -0.44922,-1.484375 -0.44922,-3.105468 0,-1.09375 0.21485,-2.304688 0.21484,-1.230469 0.64453,-2.402344 0.44922,-1.171875 1.11328,-2.226562 0.66406,-1.074219 1.54297,-1.875 0.89844,-0.820313 1.99219,-1.289063 1.11328,-0.488281 2.46093,-0.488281 1.09375,0 2.03125,0.351563 0.9375,0.351562 1.6211,0.996093 0.70312,0.625 1.09375,1.523438 0.39062,0.898437 0.39062,2.011719 0,1.210937 -0.60547,2.421875 -0.58593,1.210937 -1.64062,2.285156 -1.05469,1.074219 -2.51953,1.914062 -1.44531,0.839844 -3.14453,1.308594 0.29297,0.527344 0.5664,0.878906 0.29297,0.351563 0.58594,0.546875 0.29297,0.195313 0.60547,0.273438 0.33203,0.07813 0.70312,0.07813 1.17188,0 2.46094,-0.46875 1.3086,-0.46875 2.53906,-1.171875 1.23047,-0.703125 2.32422,-1.523438 1.09375,-0.839843 1.85547,-1.582031 l 2.51953,2.617188 q -1.71875,1.777343 -3.65234,3.144531 -0.83984,0.585937 -1.81641,1.152344 -0.95703,0.566406 -2.03125,1.015625 -1.05468,0.429687 -2.20703,0.703125 -1.13281,0.253906 -2.30469,0.253906 z m -2.59765,-9.179688 q 0.70312,0 1.52344,-0.351562 0.83984,-0.371094 1.54296,-0.9375 0.72266,-0.566406 1.21094,-1.230469 0.48828,-0.664062 0.48828,-1.289062 0,-0.878907 -0.33203,-1.445313 -0.3125,-0.566406 -0.78125,-0.566406 -0.83984,0 -1.44531,0.3125 -0.58594,0.3125 -0.99609,0.820312 -0.39063,0.488282 -0.64454,1.132813 -0.23437,0.625 -0.37109,1.269531 -0.11719,0.644531 -0.15625,1.25 -0.0391,0.605469 -0.0391,1.035156 z"
       inkscape:connector-curvature="0" /><path
       id="path858"
       d="m 188.92139,32.890396 q 0,-0.253906 0.0391,-0.722656 0.0391,-0.46875 0.11719,-1.074219 0.0781,-0.605469 0.17578,-1.269531 0.0976,-0.683594 0.19531,-1.347656 0.21484,-1.5625 0.52734,-3.359375 h -0.29296 q -0.23438,0.292968 -0.54688,0.878906 -0.29297,0.585937 -0.83984,1.71875 -0.54688,1.132812 -1.40625,2.949219 -0.83985,1.796875 -2.1875,4.511718 -0.39063,0.800782 -0.91797,1.09375 -0.50781,0.273438 -1.13281,0.273438 -0.80079,0 -1.28907,-0.332031 -0.48828,-0.351563 -0.76172,-0.917969 -0.2539,-0.585938 -0.35156,-1.308594 -0.0781,-0.742187 -0.0781,-1.523437 0,-0.800782 0.0976,-1.894532 0.0977,-1.09375 0.25391,-2.304687 0.15625,-1.210938 0.35156,-2.460938 0.21485,-1.269531 0.42969,-2.421875 0.23437,-1.152343 0.46875,-2.109375 0.23437,-0.957031 0.42969,-1.5625 0.19531,-0.625 0.37109,-0.996093 0.17578,-0.371094 0.39063,-0.566407 0.23437,-0.214843 0.54687,-0.273437 0.3125,-0.07813 0.80078,-0.07813 0.74219,0 1.15235,0.05859 0.42968,0.03906 0.625,0.234375 0.21484,0.175781 0.2539,0.527343 0.0391,0.351563 0.0391,0.957032 0,0.332031 -0.0391,0.761718 -0.0195,0.429688 -0.0781,0.917969 -0.0586,0.488281 -0.13672,1.015625 -0.0586,0.507813 -0.13672,0.996094 -0.17578,1.152344 -0.37109,2.382812 l 0.21484,0.234375 q 0.0391,-0.05859 0.41016,-0.742187 0.39062,-0.683594 0.9375,-1.640625 0.5664,-0.957031 1.21093,-1.992188 0.64453,-1.054687 1.23047,-1.855468 0.56641,-0.800782 1.19141,-1.328125 0.64453,-0.527344 1.52344,-0.527344 0.82031,0 1.40625,0.488281 0.58593,0.46875 0.58593,1.347656 0,0.761719 -0.0976,1.445313 -0.0977,0.683594 -0.25391,1.328125 -0.13672,0.644531 -0.29297,1.269531 -0.15625,0.605469 -0.29297,1.25 -0.0976,0.449219 -0.11718,0.566406 -0.0195,0.117188 -0.0195,0.15625 l 0.21485,0.234375 q 0.0391,-0.05859 0.44922,-0.722656 0.41015,-0.683594 0.99609,-1.640625 0.60547,-0.957031 1.26953,-2.011719 0.6836,-1.054687 1.26953,-1.855468 0.56641,-0.78125 1.13282,-1.308594 0.5664,-0.546875 1.38671,-0.546875 0.91797,0 1.54297,0.488281 0.64453,0.46875 0.64453,1.347656 0,1.347657 -0.13671,2.558594 -0.13672,1.210938 -0.3125,2.382813 -0.17579,1.171875 -0.3125,2.382812 -0.13672,1.191406 -0.13672,2.539063 0,1.054687 0.27343,1.71875 0.27344,0.664062 0.66407,0.664062 0.41015,0 0.85937,-0.175781 0.44922,-0.175781 0.91797,-0.449219 0.46875,-0.273437 0.91797,-0.625 0.44922,-0.371094 0.85937,-0.761719 0.95704,-0.898437 1.89454,-2.03125 l 0.33203,4.609375 q -0.85938,0.683594 -1.71875,1.425782 -0.83985,0.722656 -1.79688,1.328125 -0.9375,0.585937 -2.07031,0.976562 -1.13281,0.371094 -2.55859,0.371094 -0.70313,0 -1.19141,-0.449219 -0.46875,-0.46875 -0.76172,-1.289062 -0.29297,-0.820313 -0.42969,-1.933594 -0.11718,-1.113281 -0.11718,-2.421875 0,-1.230469 0.0781,-2.597656 0.0977,-1.386719 0.25391,-2.792969 h -0.29297 l -3.96485,10.097656 q -0.50781,0.820313 -1.13281,1.113281 -0.625,0.273438 -1.44531,0.273438 -0.625,0 -0.99609,-0.332031 -0.3711,-0.351563 -0.58594,-0.878907 -0.19531,-0.546875 -0.27344,-1.191406 -0.0586,-0.644531 -0.0586,-1.25 z"
       inkscape:connector-curvature="0" /><path
       id="path860"
       d="m 218.41357,21.913834 q 0.56641,1.132812 0.83985,2.402343 0.29297,1.25 0.29297,2.402344 0,1.152344 -0.25391,2.324219 -0.25391,1.171875 -0.74219,2.265625 -0.46875,1.09375 -1.17187,2.050781 -0.6836,0.957031 -1.58203,1.660156 -0.87891,0.703125 -1.9336,1.113282 -1.05468,0.410156 -2.24609,0.410156 -1.71875,0 -2.94922,-0.742188 -1.21094,-0.761718 -1.99219,-1.972656 -0.78125,-1.210937 -1.15234,-2.734375 -0.35156,-1.523437 -0.35156,-3.085937 0,-2.148438 0.64453,-4.003907 0.64453,-1.875 1.83594,-3.242187 1.21093,-1.386719 2.94921,-2.167969 1.73829,-0.800781 3.90625,-0.800781 1.85547,0 3.47657,0.585937 1.62109,0.566407 3.02734,1.542969 1.42578,0.957031 2.63672,2.207031 1.23047,1.25 2.28516,2.578125 l -0.3711,2.753907 q -0.52734,-0.703125 -1.42578,-1.523438 -0.89844,-0.820312 -1.91406,-1.601562 -0.9961,-0.78125 -1.97266,-1.464844 -0.97656,-0.703125 -1.67969,-1.171875 z m -6.03515,10.878906 q 0.66406,0 1.28906,-0.664063 0.625,-0.683593 1.09375,-1.699218 0.46875,-1.035157 0.74219,-2.265625 0.29297,-1.25 0.29297,-2.382813 0,-0.898437 -0.13672,-1.660156 -0.13672,-0.78125 -0.41016,-1.347656 -0.27344,-0.566407 -0.70312,-0.898438 -0.42969,-0.332031 -1.03516,-0.332031 -0.80078,0 -1.52344,0.683594 -0.72265,0.683593 -1.26953,1.757812 -0.54687,1.054688 -0.85937,2.34375 -0.3125,1.289063 -0.3125,2.480469 0,0.820312 0.15625,1.542969 0.15625,0.722656 0.48828,1.269531 0.33203,0.527344 0.8789,0.859375 0.54688,0.3125 1.3086,0.3125 z"
       inkscape:connector-curvature="0" /><path
       id="path862"
       d="m 223.45264,32.460709 q 0,-1.289063 0.15625,-2.96875 0.15625,-1.699219 0.39062,-3.4375 0.23438,-1.757813 0.52735,-3.378907 0.29296,-1.621093 0.5664,-2.773437 0.21485,-0.898438 0.82031,-1.503906 0.625,-0.605469 1.67969,-0.605469 1.05469,0 1.46485,0.644531 0.41015,0.644531 0.41015,1.71875 0,0.292969 -0.0586,0.800781 -0.0586,0.488282 -0.15625,1.09375 -0.0781,0.585938 -0.17578,1.230469 -0.0977,0.625 -0.19532,1.171875 -0.0781,0.527344 -0.13671,0.9375 -0.0586,0.390625 -0.0586,0.527344 h 0.39063 q 0.11718,-0.214844 0.37109,-0.683594 0.25391,-0.488281 0.58594,-1.113281 0.33203,-0.625 0.70312,-1.308594 0.39063,-0.703125 0.72266,-1.328125 0.33203,-0.644531 0.60547,-1.132812 0.27344,-0.488282 0.41015,-0.722657 0.625,-1.054687 1.42579,-1.445312 0.80078,-0.390625 1.77734,-0.390625 0.97656,0 1.54297,0.820312 0.58594,0.820313 0.58594,2.265625 0,0.214844 -0.0977,0.722657 -0.0781,0.507812 -0.21484,1.210937 -0.13672,0.703125 -0.3125,1.542969 -0.15625,0.839844 -0.29297,1.71875 -0.13672,0.878906 -0.23438,1.738281 -0.0781,0.859375 -0.0781,1.582031 0,1.210938 0.29297,1.992188 0.3125,0.78125 0.95703,0.78125 0.29297,0 0.66406,-0.175781 0.39062,-0.175782 0.82031,-0.449219 0.44922,-0.292969 0.89844,-0.664063 0.46875,-0.371093 0.91797,-0.761718 1.03515,-0.917969 2.16797,-2.070313 l 0.33203,4.375 -0.97656,0.742188 q -0.80079,0.605468 -1.64063,1.210937 -0.82031,0.605469 -1.71875,1.09375 -0.89844,0.46875 -1.875,0.78125 -0.97656,0.292969 -2.05078,0.292969 -1.07422,0 -1.81641,-1.542969 -0.72265,-1.5625 -0.72265,-4.550781 0,-1.171875 0.15625,-2.519531 0.15625,-1.367188 0.39062,-2.929688 h -0.3125 l -5.11719,10.15625 q -0.39062,0.800781 -0.8789,1.09375 -0.48828,0.292969 -1.13281,0.292969 -0.80079,0 -1.28907,-0.332031 -0.48828,-0.351563 -0.76172,-0.917969 -0.2539,-0.585938 -0.35156,-1.308594 -0.0781,-0.742187 -0.0781,-1.523437 z"
       inkscape:connector-curvature="0" /><path
       id="path864"
       d="m 257.82764,32.16774 q -1.875,1.09375 -3.33985,1.914062 -1.46484,0.820313 -2.61718,1.367188 -1.13282,0.546875 -2.03125,0.820312 -0.87891,0.273438 -1.60157,0.273438 -1.48437,0 -2.61718,-0.898438 -1.13282,-0.898437 -1.89454,-2.578125 -0.76171,-1.699218 -1.15234,-4.101562 -0.37109,-2.402344 -0.37109,-5.410156 0,-1.171875 0.0976,-2.5 0.0977,-1.328125 0.27344,-2.636719 -0.58594,-0.07813 -0.91797,-0.136719 -0.3125,-0.07813 -0.68359,-0.136719 -0.35156,-0.07813 -0.91797,-0.15625 -0.54688,-0.07813 -1.60156,-0.195312 -0.46875,-0.05859 -0.72266,-0.214844 -0.25391,-0.175781 -0.37109,-0.390625 -0.11719,-0.234375 -0.13672,-0.46875 -0.0195,-0.253906 -0.0195,-0.429687 0,-0.390625 0.39062,-0.585938 0.3711,-0.214844 0.97656,-0.3125 0.58594,-0.09766 1.28907,-0.09766 0.72265,-0.01953 1.36718,0 0.66407,0.01953 1.17188,0.03906 0.52734,0 0.72266,-0.03906 0.52734,-2.636719 1.32812,-5.097656 0.82031,-2.4804691 1.81641,-4.3945316 1.01562,-1.9335938 2.20703,-3.0859375 1.1914,-1.171875 2.5,-1.171875 0.83984,0 1.52344,0.46875 0.70312,0.46875 1.1914,1.25 0.48828,0.78125 0.74219,1.8359375 0.27344,1.0351562 0.27344,2.1679687 0,0.9570313 -0.27344,2.03125 -0.27344,1.0546879 -0.74219,2.1679689 -0.46875,1.09375 -1.11328,2.226562 -0.625,1.132813 -1.32812,2.246094 0.17578,0.01953 0.58593,0.03906 0.41016,0 0.9375,0.01953 0.54688,0.01953 1.17188,0.05859 0.625,0.01953 1.21094,0.03906 0.58593,0.01953 1.09375,0.03906 0.50781,0.01953 0.83984,0.03906 0.39062,0.01953 0.56641,0.390625 0.17578,0.371094 0.17578,0.9375 0,0.683594 -0.39063,1.113281 -0.39062,0.429688 -0.85937,0.429688 h -7.5 q -0.56641,0.78125 -1.15235,1.542969 -0.5664,0.742187 -1.05468,1.347656 -0.0781,1.210937 -0.13672,2.382812 -0.0195,0.507813 -0.0391,1.054688 -0.0195,0.527344 -0.0391,1.054687 -0.0195,0.527344 -0.0391,1.015625 0,0.488282 0,0.898438 0,1.054687 0.19531,1.777344 0.19531,0.722656 0.56641,1.191406 0.37109,0.449219 0.89844,0.664062 0.54687,0.195313 1.21093,0.195313 0.41016,0 1.01563,-0.195313 0.625,-0.195312 1.34765,-0.527343 0.74219,-0.351563 1.54297,-0.820313 0.82032,-0.46875 1.60157,-1.015625 0.80078,-0.566406 1.52343,-1.171875 0.72266,-0.625 1.3086,-1.269531 z m -6.25,-24.7265626 q 0,-0.2148438 -0.0391,-0.46875 -0.0195,-0.2734375 -0.11718,-0.5078125 -0.0977,-0.234375 -0.3125,-0.390625 -0.19532,-0.15625 -0.56641,-0.15625 -0.50781,0 -1.03516,0.8984375 -0.50781,0.8984375 -0.99609,2.3046875 -0.46875,1.3867191 -0.89844,3.0664061 -0.41015,1.679688 -0.76172,3.261719 0.29297,0.03906 0.58594,0.07813 0.29297,0.01953 0.60547,0.05859 0.58594,-0.996094 1.21094,-2.148438 0.64453,-1.171875 1.15234,-2.285156 0.50781,-1.132813 0.83985,-2.1093751 0.33203,-0.9765625 0.33203,-1.6015625 z"
       inkscape:connector-curvature="0" /><path
       id="path866"
       d="m 267.20264,21.54274 q 0.15625,-0.664063 0.54687,-1.171875 0.41016,-0.527344 0.91797,-0.878906 0.52734,-0.351563 1.09375,-0.527344 0.56641,-0.175781 1.07422,-0.175781 0.60547,0 1.01562,0.273437 0.41016,0.253906 0.41016,0.820313 0,0.175781 -0.0586,0.410156 -0.11719,0.507812 -0.29297,1.386719 -0.17578,0.878906 -0.39063,1.992187 -0.19531,1.113281 -0.41015,2.363281 -0.21485,1.230469 -0.41016,2.460938 -0.48828,2.890625 -0.99609,6.210937 0.58593,-0.332031 1.26953,-0.820312 0.68359,-0.488281 1.52344,-1.308594 0.83984,-0.820312 1.875,-2.050781 1.03515,-1.25 2.32421,-3.105469 l 0.9375,4.335938 q -0.35156,0.605468 -0.91796,1.25 -0.54688,0.625 -1.23047,1.269531 -0.66407,0.625 -1.40625,1.230469 -0.72266,0.585937 -1.42578,1.113281 -1.66016,1.25 -3.57422,2.421875 -0.3711,2.089844 -0.87891,4.0625 -0.50781,1.992187 -1.21094,3.710937 -0.68359,1.738282 -1.58203,3.183594 -0.8789,1.445313 -2.01172,2.480469 -1.11328,1.035156 -2.5,1.601562 -1.38672,0.585938 -3.0664,0.585938 -0.66407,0 -1.44532,-0.136719 -0.76171,-0.136719 -1.42578,-0.546875 -0.64453,-0.410156 -1.07422,-1.171875 -0.42968,-0.761719 -0.42968,-2.03125 0,-0.878906 0.44922,-1.992187 0.44921,-1.09375 1.23046,-2.324219 0.78125,-1.210938 1.85547,-2.539063 1.07422,-1.308593 2.32422,-2.617187 1.26953,-1.308594 2.63672,-2.578125 1.38672,-1.269531 2.79297,-2.421875 l 0.52734,-1.816406 q -1.05468,0.9375 -2.20703,1.523437 -1.13281,0.566406 -2.20703,0.566406 -0.9375,0 -1.83594,-0.371093 -0.8789,-0.390625 -1.5625,-1.09375 -0.68359,-0.722657 -1.09375,-1.738282 -0.41015,-1.035156 -0.41015,-2.324218 0,-1.699219 0.15625,-3.125 0.17578,-1.425782 0.48828,-2.714844 0.3125,-1.289063 0.78125,-2.480469 0.46875,-1.210937 1.07422,-2.441406 0.44922,-0.878906 1.28906,-1.328125 0.83984,-0.46875 1.64062,-0.46875 0.6836,0 1.17188,0.351562 0.48828,0.332032 0.48828,1.054688 0,0.214844 -0.0586,0.46875 -0.0391,0.253906 -0.15625,0.546875 -0.35157,0.898437 -0.70313,2.128906 -0.33203,1.210938 -0.60547,2.5 -0.2539,1.269531 -0.41015,2.5 -0.15625,1.230469 -0.15625,2.167969 0,0.488281 0.0586,0.957031 0.0781,0.449219 0.25391,0.820313 0.17578,0.351562 0.46875,0.585937 0.29297,0.214844 0.74218,0.214844 0.72266,0 1.3086,-0.625 0.58594,-0.625 1.01562,-1.503906 0.42969,-0.878907 0.6836,-1.816407 0.27343,-0.9375 0.35156,-1.5625 z m -9.14063,29.375 q 0.82031,0 1.54297,-0.488281 0.74219,-0.46875 1.34766,-1.25 0.625,-0.78125 1.13281,-1.777344 0.50781,-0.996094 0.89844,-2.050781 0.39062,-1.035157 0.66406,-2.03125 0.27344,-0.996094 0.42969,-1.777344 -0.76172,0.507812 -1.5625,1.210937 -0.78125,0.703125 -1.54297,1.503907 -0.74219,0.820312 -1.42578,1.679687 -0.66407,0.859375 -1.17188,1.640625 -0.50781,0.800781 -0.80078,1.484375 -0.29297,0.683594 -0.29297,1.132813 0,0.722656 0.78125,0.722656 z"
       inkscape:connector-curvature="0" /><path
       id="path868"
       d="m 281.42139,34.628677 q -0.0781,0.585938 -0.3711,0.957032 -0.29297,0.371093 -0.70312,0.585937 -0.41016,0.214844 -0.87891,0.3125 -0.46875,0.07813 -0.89844,0.07813 -0.50781,0 -0.99609,-0.09766 -0.46875,-0.117188 -0.83984,-0.332031 -0.3711,-0.234375 -0.58594,-0.546875 -0.21484,-0.332032 -0.21484,-0.742188 0,-0.800781 0.0781,-1.464844 0.0781,-0.683593 0.23438,-1.367187 0.54687,-2.285156 0.95703,-4.238281 0.41015,-1.972657 0.70312,-3.730469 0.29297,-1.757813 0.50781,-3.398438 0.21485,-1.660156 0.3711,-3.320312 0.17578,-1.679688 0.3125,-3.457031 0.13672,-1.777344 0.29297,-3.808594 0,-0.1757814 0,-0.4492189 0,-0.2734375 -0.0586,-0.5078125 -0.0586,-0.2539062 -0.21484,-0.4296875 -0.13672,-0.1757812 -0.42969,-0.1757812 -0.46875,0 -1.15234,0.3320312 -0.66406,0.3125 -1.40625,0.859375 -0.74219,0.5468749 -1.48438,1.2890629 -0.74218,0.722656 -1.36718,1.5625 -0.11719,0.292968 -0.3711,0.429687 -0.2539,0.117188 -0.5664,0.117188 -0.0977,0 -0.19532,-0.15625 -0.11718,-0.175782 -0.19531,-0.410157 -0.0977,-0.234375 -0.15625,-0.488281 -0.0586,-0.273437 -0.0586,-0.488281 0,-0.117188 0.0781,-0.195313 0.70313,-2.3046871 1.58203,-3.8476559 0.89844,-1.5625 1.875,-2.4804687 0.9961,-0.9375 2.01172,-1.328125 1.03516,-0.390625 1.97266,-0.390625 1.21094,0 2.01172,0.46875 0.80078,0.4492187 1.26953,1.2890625 0.46875,0.8203125 0.64453,1.9921875 0.19531,1.171875 0.19531,2.5976562 0,1.0937504 -0.17578,2.5585934 -0.17578,1.464844 -0.44922,3.085938 -0.2539,1.601562 -0.5664,3.222656 -0.3125,1.621094 -0.60547,3.027344 0.625,-2.597656 1.46484,-4.980469 0.85938,-2.402344 1.85547,-4.472656 1.01562,-2.0898439 2.14844,-3.7695314 1.13281,-1.6992187 2.32422,-2.9101562 1.21093,-1.2109375 2.4414,-1.875 1.23047,-0.6640625 2.44141,-0.6640625 0.89844,0 1.66015,0.390625 0.76172,0.390625 1.3086,1.2109375 0.54687,0.8203125 0.83984,2.0703125 0.3125,1.25 0.3125,2.96875 0,0.15625 -0.0391,0.4882812 -0.0195,0.3320309 -0.0781,0.7617189 -0.0391,0.429687 -0.11718,0.9375 -0.0586,0.488281 -0.11719,0.976562 -0.15625,1.171875 -0.33203,2.539063 l 0.41015,-0.01953 q 0.76172,-2.890625 1.875,-5.1953129 1.11329,-2.3046875 2.5,-3.90625 1.38672,-1.6210937 2.98829,-2.4804687 1.60156,-0.859375 3.32031,-0.859375 1.1914,0 2.10937,0.703125 0.9375,0.703125 1.5625,1.9140625 0.625,1.1914062 0.95703,2.8125 0.33204,1.6015625 0.33204,3.3984371 0,1.679688 -0.23438,3.457032 -0.21484,1.757812 -0.54687,3.496093 -0.33204,1.71875 -0.72266,3.378907 -0.37109,1.660156 -0.70313,3.144531 -0.33203,1.484375 -0.5664,2.753906 -0.21485,1.25 -0.21485,2.167969 0,1.152344 0.41016,1.679687 0.42969,0.507813 1.23047,0.507813 0.44922,0 0.9375,-0.234375 0.50781,-0.253906 0.99609,-0.644531 0.50782,-0.410157 0.9961,-0.917969 0.48828,-0.527344 0.9375,-1.074219 1.03515,-1.25 2.05078,-2.871094 0,0.01953 0.17578,0.410157 0.13672,0.332031 0.44922,1.132812 0.3125,0.800781 0.8789,2.304688 -0.97656,1.71875 -2.01171,2.910156 -1.03516,1.191406 -2.10938,1.953125 -1.07422,0.742187 -2.1875,1.074219 -1.09375,0.332031 -2.1875,0.332031 -1.05469,0 -2.07031,-0.371094 -0.9961,-0.371094 -1.77735,-1.09375 -0.78125,-0.742187 -1.25,-1.816406 -0.46875,-1.09375 -0.46875,-2.5 0,-0.15625 0,-0.332031 0.0195,-0.175782 0.0391,-0.351563 0.0781,-1.308594 0.33203,-2.773437 0.2539,-1.484375 0.5664,-3.046875 0.33204,-1.5625 0.6836,-3.183594 0.35156,-1.621094 0.64453,-3.222656 0.29297,-1.621094 0.48828,-3.183594 0.19531,-1.582031 0.19531,-3.027344 0,-0.878906 -0.0586,-1.582031 -0.0586,-0.7226564 -0.23438,-1.2109376 -0.17578,-0.5078125 -0.50781,-0.78125 -0.33203,-0.2734375 -0.8789,-0.2734375 -1.03516,0 -1.95313,0.7226562 -0.91797,0.7226563 -1.73828,1.9921879 -0.82031,1.269531 -1.54297,3.007812 -0.70312,1.738281 -1.34766,3.769531 -0.625,2.011719 -1.17187,4.238282 -0.54688,2.207031 -1.01563,4.453125 -0.46875,2.246093 -0.8789,4.433593 -0.41016,2.1875 -0.76172,4.140625 -0.15625,0.546875 -0.48828,0.9375 -0.3125,0.371094 -0.74219,0.605469 -0.41016,0.234375 -0.87891,0.351563 -0.46875,0.09766 -0.9375,0.09766 -0.41015,0 -0.82031,-0.15625 -0.39062,-0.15625 -0.70312,-0.488281 -0.29297,-0.351563 -0.48828,-0.878907 -0.17579,-0.527343 -0.17579,-1.289062 0,-0.507813 0.23438,-1.738281 0.23437,-1.25 0.58594,-2.96875 0.37109,-1.738282 0.78125,-3.789063 0.42968,-2.070312 0.78125,-4.199219 0.37109,-2.148437 0.60547,-4.238281 0.23437,-2.089844 0.23437,-3.847656 0,-1.210938 -0.0586,-2.167969 -0.0586,-0.9570311 -0.27344,-1.6210936 -0.21484,-0.6640625 -0.625,-1.015625 -0.39063,-0.3515625 -1.05469,-0.3515625 -0.54687,0 -1.25,0.7421875 -0.70312,0.7421875 -1.52344,2.0507816 -0.80078,1.308593 -1.66015,3.085937 -0.85938,1.757813 -1.71875,3.808594 -0.83985,2.050781 -1.64063,4.296875 -0.78125,2.226562 -1.44531,4.472656 -0.66406,2.226563 -1.17187,4.375 -0.50782,2.128906 -0.76172,4.003906 z"
       inkscape:connector-curvature="0" /><path
       id="path870"
       d="m 338.25732,31.757584 q -0.44921,0.625 -1.21093,1.464843 -0.74219,0.839844 -1.67969,1.601563 -0.9375,0.761719 -2.01172,1.289062 -1.07422,0.527344 -2.14844,0.527344 -1.28906,0 -2.14843,-0.820312 -0.85938,-0.839844 -1.48438,-2.421875 -0.46875,0.546875 -1.15234,1.113281 -0.6836,0.566406 -1.50391,1.035156 -0.80078,0.449219 -1.67969,0.742188 -0.8789,0.292968 -1.75781,0.292968 -0.9375,0 -1.83594,-0.371093 -0.8789,-0.390625 -1.5625,-1.09375 -0.68359,-0.722657 -1.09375,-1.738282 -0.41015,-1.035156 -0.41015,-2.324218 0,-1.464844 0.41015,-3.007813 0.41016,-1.542969 1.13282,-3.007812 0.72265,-1.484375 1.69921,-2.792969 0.9961,-1.308594 2.16797,-2.285156 1.17188,-0.976563 2.46094,-1.542969 1.30859,-0.585938 2.65625,-0.585938 0.44922,0 0.70313,0.175782 0.2539,0.175781 0.41015,0.410156 0.17578,0.214844 0.33203,0.429687 0.15625,0.214844 0.39063,0.3125 0.23437,0.09766 0.46875,0.136719 0.2539,0.01953 0.50781,0.01953 0.21484,0 0.42969,0 0.23437,-0.01953 0.44922,-0.01953 0.29297,0 0.54687,0.05859 0.25391,0.05859 0.44922,0.253906 0.19531,0.195313 0.29297,0.546875 0.11719,0.351563 0.11719,0.957031 0,0.9375 -0.19532,2.089844 -0.19531,1.132813 -0.42968,2.34375 -0.23438,1.191406 -0.42969,2.402344 -0.19531,1.191406 -0.19531,2.265625 0,0.917969 0.15625,1.445312 0.17578,0.507813 0.72265,0.507813 0.41016,0 0.85938,-0.195313 0.44922,-0.214843 0.89844,-0.546875 0.46875,-0.332031 0.91796,-0.742187 0.46875,-0.429688 0.87891,-0.878906 0.95703,-1.054688 1.93359,-2.382813 z m -16.67968,-1.542969 q 0,0.488281 0.0586,0.957031 0.0781,0.449219 0.25391,0.820313 0.17578,0.351562 0.46875,0.585937 0.29297,0.214844 0.74218,0.214844 0.72266,0 1.3086,-0.625 0.58594,-0.625 1.01562,-1.503906 0.42969,-0.878907 0.6836,-1.816407 0.27343,-0.9375 0.35156,-1.5625 l 1.19141,-5.742187 q -0.80079,0 -1.5625,0.410156 -0.76172,0.390625 -1.44532,1.074219 -0.66406,0.683594 -1.23047,1.5625 -0.5664,0.878906 -0.97656,1.855469 -0.41015,0.957031 -0.64453,1.933593 -0.21484,0.976563 -0.21484,1.835938 z"
       inkscape:connector-curvature="0" /><path
       id="path872"
       d="m 335.95264,32.460709 q 0,-0.859375 0.0977,-1.992188 0.0977,-1.152344 0.25391,-2.421875 0.17578,-1.269531 0.39062,-2.578125 0.23438,-1.328125 0.48829,-2.519531 0.2539,-1.191406 0.50781,-2.1875 0.2539,-0.996094 0.50781,-1.640625 0.15625,-0.429688 0.3125,-0.683594 0.15625,-0.253906 0.35156,-0.390625 0.21485,-0.15625 0.50782,-0.195312 0.3125,-0.05859 0.76171,-0.05859 0.50782,0 0.78125,0.05859 0.29297,0.03906 0.42969,0.234375 0.13672,0.175781 0.15625,0.527343 0.0391,0.351563 0.0391,0.957032 0,0.722656 0,1.757812 0,1.015625 0.0391,2.011719 h 0.21484 q 0.39063,-0.78125 0.87891,-1.738281 0.48828,-0.976563 1.13281,-1.816407 0.64453,-0.839843 1.46484,-1.40625 0.82032,-0.585937 1.89453,-0.585937 0.3711,0 0.72266,0.136719 0.35156,0.117187 0.60547,0.351562 0.27344,0.234375 0.42969,0.585938 0.15625,0.332031 0.15625,0.761718 0,0.332032 -0.0977,0.9375 -0.0977,0.585938 -0.21484,1.25 -0.11719,0.644532 -0.21485,1.269532 -0.0977,0.605468 -0.0977,1.015625 0,0.703125 0.13672,1.171875 0.13671,0.46875 0.35156,0.761718 0.23437,0.273438 0.50781,0.390625 0.29297,0.117188 0.60547,0.117188 0.87891,0 1.81641,-0.390625 0.9375,-0.390625 1.71875,-0.878906 0.91796,-0.566407 1.79687,-1.289063 l -0.29297,4.570313 q -0.50781,0.332031 -1.15234,0.742187 -0.64453,0.410156 -1.38672,0.78125 -0.72266,0.351563 -1.52344,0.605469 -0.78125,0.234375 -1.60156,0.234375 -1.46484,0 -2.36328,-0.585938 -0.89844,-0.605468 -1.42578,-1.5625 -0.52735,-0.976562 -0.78125,-2.167968 -0.25391,-1.210938 -0.41016,-2.441407 h -0.3125 l -3.49609,9.746094 q -0.27344,0.761719 -0.52735,1.269531 -0.23437,0.488282 -0.48828,0.800782 -0.2539,0.3125 -0.54687,0.449218 -0.29297,0.117188 -0.64453,0.117188 -0.80079,0 -1.28907,-0.332031 -0.48828,-0.351563 -0.76172,-0.917969 -0.2539,-0.585938 -0.35156,-1.308594 -0.0781,-0.742187 -0.0781,-1.523437 z"
       inkscape:connector-curvature="0" /><path
       id="path874"
       d="m 358.86279,36.54274 q -1.79687,0 -3.16406,-0.664063 -1.34766,-0.664062 -2.26562,-1.777343 -0.91797,-1.113282 -1.38672,-2.578125 -0.46875,-1.464844 -0.46875,-3.046875 0,-1.132813 0.23437,-2.363282 0.23438,-1.230468 0.6836,-2.402343 0.46875,-1.191407 1.13281,-2.265625 0.68359,-1.074219 1.5625,-1.875 0.89844,-0.820313 1.99219,-1.289063 1.09375,-0.488281 2.40234,-0.488281 1.11328,0 2.05078,0.351562 0.95703,0.332032 1.62109,0.9375 0.6836,0.605469 1.05469,1.445313 0.39063,0.820312 0.39063,1.777344 0,0.664062 -0.17578,1.308593 -0.17579,0.644532 -0.52735,1.171875 -0.33203,0.507813 -0.82031,0.820313 -0.48828,0.3125 -1.09375,0.3125 -0.91797,0 -1.21094,-0.488281 -0.27344,-0.488282 -0.27344,-1.347657 0,-0.351562 0.0195,-0.742187 0.0391,-0.390625 0.0391,-0.703125 0,-0.46875 -0.0977,-0.78125 -0.0976,-0.3125 -0.42969,-0.3125 -0.80078,0 -1.36718,0.390625 -0.56641,0.371094 -0.97657,0.996094 -0.39062,0.605468 -0.625,1.386718 -0.23437,0.761719 -0.37109,1.523438 -0.13672,0.761719 -0.17578,1.464844 -0.0391,0.683593 -0.0391,1.152343 0,0.703125 0.11718,1.464844 0.13672,0.761719 0.48829,1.40625 0.35156,0.625 0.95703,1.054688 0.60547,0.410156 1.5625,0.410156 0.9375,0 2.07031,-0.566406 1.13281,-0.585938 2.26562,-1.464844 1.15235,-0.878906 2.1875,-1.933594 1.03516,-1.054687 1.77735,-1.992187 l 1.34765,2.265625 q -1.46484,2.089843 -3.16406,3.730468 -0.72265,0.703125 -1.58203,1.367188 -0.83984,0.664062 -1.77734,1.191406 -0.91797,0.507813 -1.9336,0.839844 -0.99609,0.3125 -2.03125,0.3125 z"
       inkscape:connector-curvature="0" /><path
       id="path876"
       d="m 379.07764,32.382584 q -0.70313,0.644531 -1.75782,1.386718 -1.03515,0.722657 -2.24609,1.347657 -1.21094,0.605468 -2.48047,1.015625 -1.25,0.410156 -2.38281,0.410156 -1.01563,0 -1.71875,-0.273438 -0.68359,-0.292968 -1.11328,-0.800781 -0.42969,-0.507812 -0.625,-1.230469 -0.17578,-0.742187 -0.17578,-1.621093 0,-1.230469 0.27343,-2.851563 0.29297,-1.640625 0.70313,-3.378906 0.41016,-1.757813 0.85937,-3.496094 0.46875,-1.738281 0.82032,-3.203125 0.13672,-0.507812 0.54687,-0.859375 0.41016,-0.371094 0.91797,-0.585937 0.52734,-0.234375 1.07422,-0.332032 0.56641,-0.117187 1.01562,-0.117187 0.82032,0 1.11329,0.3125 0.29296,0.292969 0.29296,0.800781 0,0.429688 -0.19531,1.25 -0.19531,0.800781 -0.48828,1.835938 -0.29297,1.015625 -0.625,2.207031 -0.33203,1.171875 -0.625,2.363281 -0.29297,1.171875 -0.48828,2.304688 -0.19531,1.113281 -0.19531,2.011718 0,0.878907 0.19531,1.40625 0.19531,0.507813 0.80078,0.507813 0.70313,0 1.5625,-0.488281 0.85938,-0.488282 1.73828,-1.171875 0.87891,-0.703125 1.71875,-1.445313 0.83985,-0.742187 1.48438,-1.269531 z m -8.73047,-20.078125 q 0,-0.449219 0.19531,-1.015625 0.19531,-0.566407 0.625,-1.054688 0.44922,-0.5078124 1.17188,-0.8398436 0.74218,-0.3515625 1.83593,-0.3515625 0.6836,0 1.28907,0.15625 0.60546,0.15625 1.05468,0.4882812 0.44922,0.3125 0.70313,0.8398439 0.27344,0.527344 0.27344,1.25 0,0.664062 -0.21485,1.289062 -0.21484,0.625 -0.68359,1.113282 -0.46875,0.488281 -1.19141,0.800781 -0.70312,0.292969 -1.69922,0.292969 -1.71875,0 -2.53906,-0.800782 -0.82031,-0.820312 -0.82031,-2.167968 z"
       inkscape:connector-curvature="0" /><path
       id="path878"
       d="m 377.67139,32.460709 q 0,-1.289063 0.15625,-2.96875 0.15625,-1.699219 0.39062,-3.4375 0.23438,-1.757813 0.52735,-3.378907 0.29296,-1.621093 0.5664,-2.773437 0.21485,-0.898438 0.82031,-1.503906 0.625,-0.605469 1.67969,-0.605469 1.05469,0 1.46485,0.644531 0.41015,0.644531 0.41015,1.71875 0,0.292969 -0.0586,0.800781 -0.0586,0.488282 -0.15625,1.09375 -0.0781,0.585938 -0.17578,1.230469 -0.0977,0.625 -0.19532,1.171875 -0.0781,0.527344 -0.13671,0.9375 -0.0586,0.390625 -0.0586,0.527344 h 0.39063 q 0.11718,-0.214844 0.37109,-0.683594 0.25391,-0.488281 0.58594,-1.113281 0.33203,-0.625 0.70312,-1.308594 0.39063,-0.703125 0.72266,-1.328125 0.33203,-0.644531 0.60547,-1.132812 0.27344,-0.488282 0.41015,-0.722657 0.625,-1.054687 1.42579,-1.445312 0.80078,-0.390625 1.77734,-0.390625 0.97656,0 1.54297,0.820312 0.58594,0.820313 0.58594,2.265625 0,0.214844 -0.0977,0.722657 -0.0781,0.507812 -0.21484,1.210937 -0.13672,0.703125 -0.3125,1.542969 -0.15625,0.839844 -0.29297,1.71875 -0.13672,0.878906 -0.23438,1.738281 -0.0781,0.859375 -0.0781,1.582031 0,1.210938 0.29297,1.992188 0.3125,0.78125 0.95703,0.78125 0.29297,0 0.66406,-0.175781 0.39062,-0.175782 0.82031,-0.449219 0.44922,-0.292969 0.89844,-0.664063 0.46875,-0.371093 0.91797,-0.761718 1.03515,-0.917969 2.16797,-2.070313 l 0.33203,4.375 -0.97656,0.742188 q -0.80079,0.605468 -1.64063,1.210937 -0.82031,0.605469 -1.71875,1.09375 -0.89844,0.46875 -1.875,0.78125 -0.97656,0.292969 -2.05078,0.292969 -1.07422,0 -1.81641,-1.542969 -0.72265,-1.5625 -0.72265,-4.550781 0,-1.171875 0.15625,-2.519531 0.15625,-1.367188 0.39062,-2.929688 h -0.3125 l -5.11719,10.15625 q -0.39062,0.800781 -0.8789,1.09375 -0.48828,0.292969 -1.13281,0.292969 -0.80079,0 -1.28907,-0.332031 -0.48828,-0.351563 -0.76172,-0.917969 -0.2539,-0.585938 -0.35156,-1.308594 -0.0781,-0.742187 -0.0781,-1.523437 z"
       inkscape:connector-curvature="0" /><path
       id="path880"
       d="m 416.22607,31.757584 q -0.44921,0.625 -1.21093,1.464843 -0.74219,0.839844 -1.67969,1.601563 -0.9375,0.761719 -2.01172,1.289062 -1.07422,0.527344 -2.14844,0.527344 -1.28906,0 -2.14843,-0.820312 -0.85938,-0.839844 -1.48438,-2.421875 -0.46875,0.546875 -1.15234,1.113281 -0.6836,0.566406 -1.50391,1.035156 -0.80078,0.449219 -1.67969,0.742188 -0.8789,0.292968 -1.75781,0.292968 -0.9375,0 -1.83594,-0.371093 -0.8789,-0.390625 -1.5625,-1.09375 -0.68359,-0.722657 -1.09375,-1.738282 -0.41015,-1.035156 -0.41015,-2.324218 0,-1.464844 0.41015,-3.007813 0.41016,-1.542969 1.13282,-3.007812 0.72265,-1.484375 1.69921,-2.792969 0.9961,-1.308594 2.16797,-2.285156 1.17188,-0.976563 2.46094,-1.542969 1.30859,-0.585938 2.65625,-0.585938 0.44922,0 0.70313,0.175782 0.2539,0.175781 0.41015,0.410156 0.17578,0.214844 0.33203,0.429687 0.15625,0.214844 0.39063,0.3125 0.23437,0.09766 0.46875,0.136719 0.2539,0.01953 0.50781,0.01953 0.21484,0 0.42969,0 0.23437,-0.01953 0.44922,-0.01953 0.29297,0 0.54687,0.05859 0.25391,0.05859 0.44922,0.253906 0.19531,0.195313 0.29297,0.546875 0.11719,0.351563 0.11719,0.957031 0,0.9375 -0.19532,2.089844 -0.19531,1.132813 -0.42968,2.34375 -0.23438,1.191406 -0.42969,2.402344 -0.19531,1.191406 -0.19531,2.265625 0,0.917969 0.15625,1.445312 0.17578,0.507813 0.72265,0.507813 0.41016,0 0.85938,-0.195313 0.44922,-0.214843 0.89844,-0.546875 0.46875,-0.332031 0.91796,-0.742187 0.46875,-0.429688 0.87891,-0.878906 0.95703,-1.054688 1.93359,-2.382813 z m -16.67968,-1.542969 q 0,0.488281 0.0586,0.957031 0.0781,0.449219 0.25391,0.820313 0.17578,0.351562 0.46875,0.585937 0.29297,0.214844 0.74218,0.214844 0.72266,0 1.3086,-0.625 0.58594,-0.625 1.01562,-1.503906 0.42969,-0.878907 0.6836,-1.816407 0.27343,-0.9375 0.35156,-1.5625 l 1.19141,-5.742187 q -0.80079,0 -1.5625,0.410156 -0.76172,0.390625 -1.44532,1.074219 -0.66406,0.683594 -1.23047,1.5625 -0.5664,0.878906 -0.97656,1.855469 -0.41015,0.957031 -0.64453,1.933593 -0.21484,0.976563 -0.21484,1.835938 z"
       inkscape:connector-curvature="0" /></g></g></svg>