<?xml version="1.0" encoding="UTF-8" standalone="no"?>
<!-- Created with Inkscape (http://www.inkscape.org/) -->

<svg
   xmlns:dc="http://purl.org/dc/elements/1.1/"
   xmlns:cc="http://creativecommons.org/ns#"
   xmlns:rdf="http://www.w3.org/1999/02/22-rdf-syntax-ns#"
   xmlns:svg="http://www.w3.org/2000/svg"
   xmlns="http://www.w3.org/2000/svg"
   xmlns:sodipodi="http://sodipodi.sourceforge.net/DTD/sodipodi-0.dtd"
   xmlns:inkscape="http://www.inkscape.org/namespaces/inkscape"
   width="105.45095mm"
   height="44.41449mm"
   viewBox="0 0 105.45095 44.41449"
   version="1.1"
   id="svg8"
   inkscape:version="0.92.4 (5da689c313, 2019-01-14)"
   sodipodi:docname="galleryIcon.svg">
  <defs
     id="defs2" />
  <sodipodi:namedview
     id="base"
     pagecolor="#ffffff"
     bordercolor="#666666"
     borderopacity="1.0"
     inkscape:pageopacity="0.0"
     inkscape:pageshadow="2"
     inkscape:zoom="0.35"
     inkscape:cx="-327.58896"
     inkscape:cy="3.5089764"
     inkscape:document-units="mm"
     inkscape:current-layer="layer1"
     showgrid="false"
     showborder="false"
     fit-margin-top="0"
     fit-margin-left="0"
     fit-margin-right="0"
     fit-margin-bottom="0"
     inkscape:window-width="1920"
     inkscape:window-height="1001"
     inkscape:window-x="-9"
     inkscape:window-y="-9"
     inkscape:window-maximized="1" />
  <metadata
     id="metadata5">
    <rdf:RDF>
      <cc:Work
         rdf:about="">
        <dc:format>image/svg+xml</dc:format>
        <dc:type
           rdf:resource="http://purl.org/dc/dcmitype/StillImage" />
        <dc:title></dc:title>
      </cc:Work>
    </rdf:RDF>
  </metadata>
  <g
     inkscape:label="Layer 1"
     inkscape:groupmode="layer"
     id="layer1"
     transform="translate(-66.263866,-105.34726)">
    <g
       aria-label="Galeria"
       style="font-style:normal;font-variant:normal;font-weight:normal;font-stretch:normal;font-size:34.24731445px;line-height:1.25;font-family:Pacifico;-inkscape-font-specification:'Pacifico, Normal';font-variant-ligatures:normal;font-variant-caps:normal;font-variant-numeric:normal;font-feature-settings:normal;text-align:start;letter-spacing:0px;word-spacing:0px;writing-mode:lr-tb;text-anchor:start;fill:#ffffff;fill-opacity:1;stroke:none;stroke-width:0.85620868"
       id="text817">
      <path
         d="m 90.344009,131.75181 q 0,1.93978 -0.234112,4.03007 -0.21739,2.09029 -0.71906,4.09697 -0.50167,2.00668 -1.337786,3.79597 -0.819393,1.78929 -2.023401,3.1438 -1.204007,1.3545 -2.826072,2.14045 -1.605343,0.80268 -3.678911,0.80268 -0.384613,0 -0.919727,-0.0502 -0.535115,-0.0502 -1.120396,-0.16722 -0.585281,-0.11706 -1.170562,-0.31773 -0.568559,-0.18394 -1.020062,-0.46822 -0.451503,-0.28428 -0.735782,-0.6689 -0.28428,-0.36789 -0.28428,-0.85284 0,-0.25083 0.100334,-0.66889 0.117057,-0.40133 0.334447,-0.78595 0.234112,-0.38461 0.568559,-0.66889 0.351168,-0.28428 0.836116,-0.28428 0.551836,0 1.070228,0.18395 0.518392,0.18394 1.070229,0.40133 0.551837,0.23411 1.15384,0.41806 0.602004,0.18395 1.304341,0.18395 0.785949,0 1.538454,-0.80268 0.769227,-0.80267 1.438119,-2.09029 0.685616,-1.28761 1.237452,-2.89296 0.568559,-1.58862 0.953173,-3.19396 -0.802672,0.73578 -1.705677,1.38795 -0.886283,0.66889 -2.040123,1.15384 -1.137118,0.50167 -2.608683,0.78595 -1.471564,0.301 -3.411353,0.301 -2.257514,0 -4.080247,-0.91973 -1.80601,-0.903 -3.093629,-2.44145 -1.287619,-1.55518 -1.989956,-3.5953 -0.685616,-2.05685 -0.685616,-4.31436 0,-2.95985 0.702338,-5.65215 0.71906,-2.70901 1.973234,-5.01669 1.254174,-2.32441 2.959851,-4.19731 1.705677,-1.88962 3.678911,-3.21068 1.973233,-1.33779 4.130413,-2.05685 2.173902,-0.73578 4.347804,-0.73578 1.337785,0 2.474903,0.40134 1.15384,0.40133 1.989956,1.25417 0.852839,0.85284 1.321064,2.15718 0.484947,1.30434 0.484947,3.11035 0,0.70234 -0.167223,1.40468 -0.167223,0.68561 -0.551837,1.38795 -0.535114,0.78595 -1.036784,1.12039 -0.501669,0.31773 -0.953172,0.31773 -0.351169,0 -0.652171,-0.18395 -0.301001,-0.18394 -0.518392,-0.48494 -0.21739,-0.30101 -0.351168,-0.6689 -0.117057,-0.38461 -0.117057,-0.78595 0,-0.31772 0.100334,-0.61872 0.100334,-0.301 0.200668,-0.60201 0.117057,-0.301 0.21739,-0.61872 0.100334,-0.33445 0.100334,-0.68562 0,-1.67223 -0.735782,-2.50834 -0.735782,-0.83612 -1.839455,-0.83612 -1.354508,0 -2.859517,0.56856 -1.488287,0.55183 -2.926406,1.62206 -1.43812,1.05351 -2.742461,2.60869 -1.287619,1.53845 -2.274236,3.52841 -0.986617,1.98995 -1.571898,4.39797 -0.568559,2.39129 -0.568559,5.15047 0,1.7224 0.418058,3.01002 0.43478,1.2709 1.22073,2.12373 0.785949,0.85284 1.923067,1.2709 1.137117,0.41806 2.558515,0.41806 2.642126,0 4.866195,-0.70234 2.224069,-0.71906 4.180581,-2.00668 0.133778,-0.50167 0.234112,-0.95317 0.100334,-0.46823 0.100334,-0.85284 0,-0.50167 -0.133779,-0.78595 -0.133778,-0.301 -0.367891,-0.43478 -0.21739,-0.1505 -0.535114,-0.18394 -0.301002,-0.0335 -0.65217,-0.0335 -0.635449,0 -1.120396,-0.16722 -0.468225,-0.16722 -0.802671,-0.43478 -0.334447,-0.26756 -0.50167,-0.61873 -0.167223,-0.35117 -0.167223,-0.70234 0,-0.35116 0.150501,-0.66889 0.167223,-0.33444 0.501669,-0.58528 0.334447,-0.25083 0.836116,-0.40134 0.518392,-0.16722 1.204008,-0.16722 1.622065,0 2.658849,0.33445 1.053506,0.33444 1.638787,0.98662 0.602004,0.65217 0.819394,1.60534 0.234112,0.93645 0.234112,2.14046 z"
         id="path827"
         inkscape:connector-curvature="0"
         style="fill:#ffffff" />
      <path
         d="m 109.97601,133.35715 q -0.38461,0.53511 -1.03678,1.25417 -0.63545,0.71906 -1.43812,1.37123 -0.80267,0.65217 -1.7224,1.10368 -0.91973,0.4515 -1.83945,0.4515 -1.10368,0 -1.83946,-0.70234 -0.73578,-0.71906 -1.2709,-2.07357 -0.40133,0.46823 -0.986612,0.95318 -0.585281,0.48494 -1.287619,0.88628 -0.685615,0.38461 -1.438119,0.63545 -0.752505,0.25083 -1.505009,0.25083 -0.802672,0 -1.571899,-0.31772 -0.752504,-0.33445 -1.337785,-0.93645 -0.585282,-0.61873 -0.93645,-1.48829 -0.351169,-0.88628 -0.351169,-1.98996 0,-1.25417 0.351169,-2.57523 0.351168,-1.32107 0.969894,-2.57524 0.618726,-1.2709 1.454842,-2.39129 0.852839,-1.1204 1.856178,-1.95651 1.003339,-0.83612 2.107013,-1.32107 1.120395,-0.50167 2.274236,-0.50167 0.38461,0 0.602,0.1505 0.21739,0.1505 0.35117,0.35117 0.1505,0.18395 0.28428,0.36789 0.13378,0.18395 0.33445,0.26756 0.20067,0.0836 0.40133,0.11706 0.21739,0.0167 0.43478,0.0167 0.18395,0 0.36789,0 0.20067,-0.0167 0.38462,-0.0167 0.25083,0 0.46822,0.0502 0.21739,0.0502 0.38462,0.21739 0.16722,0.16723 0.25083,0.46823 0.10034,0.301 0.10034,0.81939 0,0.80267 -0.16723,1.78929 -0.16722,0.9699 -0.36789,2.00668 -0.20067,1.02006 -0.36789,2.05685 -0.16722,1.02006 -0.16722,1.93978 0,0.78595 0.13378,1.23746 0.1505,0.43478 0.61872,0.43478 0.35117,0 0.73578,-0.16723 0.38462,-0.18394 0.76923,-0.46822 0.40134,-0.28428 0.78595,-0.63545 0.40133,-0.36789 0.7525,-0.7525 0.8194,-0.90301 1.65551,-2.04013 z m -14.280858,-1.32107 q 0,0.41806 0.05017,0.8194 0.06689,0.38461 0.21739,0.70234 0.150501,0.301 0.401336,0.50167 0.250835,0.18394 0.635448,0.18394 0.618726,0 1.120396,-0.53511 0.50167,-0.53512 0.869561,-1.28762 0.367891,-0.75251 0.585281,-1.55518 0.234112,-0.80267 0.301002,-1.33778 l 1.020054,-4.91637 q -0.68561,0 -1.337778,0.35117 -0.652171,0.33445 -1.237452,0.91973 -0.568559,0.58528 -1.053506,1.33779 -0.484948,0.7525 -0.836117,1.58862 -0.351168,0.81939 -0.551836,1.65551 -0.183946,0.83611 -0.183946,1.57189 z"
         id="path829"
         inkscape:connector-curvature="0"
         style="fill:#ffffff" />
      <path
         d="m 111.73186,137.45412 q -0.90301,0 -1.68896,-0.78595 -0.76922,-0.80267 -1.3545,-2.14046 -0.56856,-1.33779 -0.90301,-3.09363 -0.31772,-1.77257 -0.31772,-3.71235 0,-1.48829 0.21739,-3.22741 0.21739,-1.75585 0.63545,-3.61202 0.41805,-1.85618 0.98661,-3.72908 0.58528,-1.8729 1.30434,-3.5953 0.73579,-1.7224 1.58862,-3.21069 0.85284,-1.50501 1.78929,-2.60868 0.93645,-1.12039 1.95651,-1.75584 1.02007,-0.63545 2.07357,-0.63545 0.71906,0 1.18729,0.33445 0.46822,0.31772 0.73578,0.85283 0.26756,0.53512 0.36789,1.22073 0.11706,0.6689 0.11706,1.37123 0,1.5719 -0.3679,3.21069 -0.35116,1.62207 -0.96989,3.27757 -0.602,1.63879 -1.40467,3.2943 -0.80268,1.65551 -1.67224,3.2943 -0.86956,1.62206 -1.75584,3.21069 -0.86956,1.57189 -1.63879,3.0769 -0.0836,0.16723 -0.18394,0.43478 -0.0836,0.26756 -0.16723,0.58528 -0.0836,0.30101 -0.16722,0.65217 -0.0836,0.35117 -0.13378,0.68562 v 0.23411 q 0,0.43478 0.0836,0.85284 0.10034,0.40134 0.23412,0.73578 0.13377,0.31773 0.28427,0.51839 0.15051,0.18395 0.28428,0.18395 0.31773,0 0.71906,-0.13378 0.41806,-0.13378 0.86956,-0.35117 0.46823,-0.23411 0.95318,-0.51839 0.48494,-0.301 0.93645,-0.602 1.0535,-0.70234 2.20734,-1.62207 l 1.37123,3.51169 q -1.48828,1.07023 -2.94312,1.90634 -0.63545,0.35117 -1.32107,0.70234 -0.66889,0.33445 -1.35451,0.60201 -0.68561,0.26755 -1.33778,0.43478 -0.65217,0.1505 -1.22073,0.1505 z m 0.0167,-13.37786 q 0.75251,-1.33779 1.58862,-3.01002 0.85284,-1.67223 1.60534,-3.4448 0.75251,-1.77256 1.30435,-3.52841 0.55183,-1.77256 0.70233,-3.29429 0,-0.48495 -0.0334,-0.8194 -0.0167,-0.35117 -0.1505,-0.35117 -0.48495,0 -1.05351,0.63545 -0.55184,0.61873 -1.12039,1.68896 -0.55184,1.07023 -1.07023,2.49162 -0.50167,1.4214 -0.90301,3.02674 -0.40133,1.60535 -0.63545,3.31102 -0.23411,1.68896 -0.23411,3.2943 z"
         id="path831"
         inkscape:connector-curvature="0"
         style="fill:#ffffff" />
      <path
         d="m 123.28698,137.45412 q -1.5719,0 -2.75918,-0.56856 -1.17056,-0.56856 -1.95651,-1.52173 -0.78595,-0.9699 -1.18729,-2.22407 -0.38461,-1.2709 -0.38461,-2.65885 0,-0.93645 0.18395,-1.97324 0.18394,-1.0535 0.55183,-2.05684 0.38462,-1.00334 0.95317,-1.90635 0.56856,-0.91972 1.32107,-1.60534 0.76922,-0.70234 1.70567,-1.10367 0.95318,-0.41806 2.10702,-0.41806 0.93645,0 1.73912,0.301 0.80267,0.301 1.38795,0.85284 0.602,0.53511 0.93645,1.30434 0.33445,0.76923 0.33445,1.7224 0,1.03678 -0.51839,2.07357 -0.50167,1.03678 -1.40468,1.95651 -0.903,0.91973 -2.15718,1.63879 -1.23745,0.71906 -2.69229,1.12039 0.25083,0.45151 0.48494,0.75251 0.25084,0.301 0.50167,0.46822 0.25084,0.16723 0.5184,0.23412 0.28428,0.0669 0.602,0.0669 1.00334,0 2.10701,-0.40133 1.1204,-0.40134 2.1739,-1.00334 1.05351,-0.602 1.98996,-1.30434 0.93645,-0.71906 1.58862,-1.35451 l 2.15718,2.24079 q -1.47156,1.52173 -3.12707,2.6923 -0.71906,0.50167 -1.55518,0.98661 -0.81939,0.48495 -1.73912,0.86956 -0.90301,0.36789 -1.88962,0.60201 -0.9699,0.21739 -1.97324,0.21739 z m -2.22407,-7.85949 q 0.60201,0 1.30435,-0.30101 0.71905,-0.31772 1.32106,-0.80267 0.61872,-0.48494 1.03678,-1.0535 0.41806,-0.56856 0.41806,-1.10368 0,-0.7525 -0.28428,-1.23745 -0.26756,-0.48495 -0.66889,-0.48495 -0.71906,0 -1.23745,0.26756 -0.50167,0.26756 -0.85284,0.70234 -0.33445,0.41806 -0.55184,0.96989 -0.20067,0.53512 -0.31772,1.08695 -0.10034,0.55184 -0.13378,1.07023 -0.0335,0.51839 -0.0335,0.88629 z"
         id="path833"
         inkscape:connector-curvature="0"
         style="fill:#ffffff" />
      <path
         d="m 130.81203,133.95915 q 0,-0.73578 0.0836,-1.70568 0.0836,-0.98661 0.21739,-2.07356 0.1505,-1.08695 0.33445,-2.20735 0.20066,-1.13712 0.41805,-2.15718 0.21739,-1.02006 0.43478,-1.8729 0.21739,-0.85284 0.43478,-1.40467 0.13378,-0.3679 0.26756,-0.58529 0.13378,-0.21739 0.301,-0.33444 0.18395,-0.13378 0.43478,-0.16722 0.26756,-0.0502 0.65217,-0.0502 0.43478,0 0.6689,0.0502 0.25083,0.0334 0.36789,0.20066 0.11705,0.1505 0.13378,0.45151 0.0334,0.301 0.0334,0.81939 0,0.61873 0,1.50501 0,0.86956 0.0335,1.7224 h 0.18394 q 0.33445,-0.6689 0.75251,-1.48829 0.41805,-0.83612 0.96989,-1.55518 0.55184,-0.71905 1.25417,-1.204 0.70234,-0.50167 1.62207,-0.50167 0.31772,0 0.61873,0.11705 0.301,0.10034 0.51839,0.30101 0.23411,0.20066 0.36789,0.50167 0.13378,0.28428 0.13378,0.65217 0,0.28428 -0.0836,0.80267 -0.0836,0.50167 -0.18395,1.07023 -0.10033,0.55183 -0.18395,1.08695 -0.0836,0.51839 -0.0836,0.86956 0,0.602 0.11706,1.00334 0.11706,0.40133 0.301,0.65217 0.20067,0.23411 0.43478,0.33444 0.25084,0.10034 0.51839,0.10034 0.75251,0 1.55518,-0.33445 0.80267,-0.33444 1.47156,-0.7525 0.78595,-0.48495 1.53846,-1.10368 l -0.25084,3.91303 q -0.43478,0.28428 -0.98661,0.63545 -0.55184,0.35116 -1.18729,0.66889 -0.61873,0.301 -1.30434,0.51839 -0.66889,0.20067 -1.37123,0.20067 -1.25418,0 -2.0234,-0.50167 -0.76923,-0.51839 -1.22073,-1.33779 -0.4515,-0.83611 -0.66889,-1.85617 -0.21739,-1.03679 -0.35117,-2.0903 h -0.26756 l -2.9933,8.34444 q -0.23411,0.65217 -0.4515,1.08695 -0.20067,0.41806 -0.41806,0.68562 -0.21739,0.26756 -0.46822,0.38461 -0.25084,0.10034 -0.55184,0.10034 -0.68561,0 -1.10367,-0.28428 -0.41806,-0.301 -0.65217,-0.78595 -0.21739,-0.50167 -0.301,-1.1204 -0.0669,-0.63545 -0.0669,-1.30434 z"
         id="path835"
         inkscape:connector-curvature="0"
         style="fill:#ffffff" />
      <path
         d="m 155.42729,133.89226 q -0.60201,0.55184 -1.50501,1.18729 -0.88628,0.61872 -1.92307,1.15384 -1.03678,0.51839 -2.12373,0.86956 -1.07023,0.35117 -2.04013,0.35117 -0.86956,0 -1.47156,-0.23412 -0.58528,-0.25083 -0.95317,-0.68561 -0.36789,-0.43478 -0.53512,-1.05351 -0.1505,-0.63545 -0.1505,-1.38795 0,-1.05351 0.23411,-2.44146 0.25084,-1.40467 0.60201,-2.89296 0.35117,-1.50501 0.73578,-2.9933 0.40134,-1.48828 0.70234,-2.74246 0.11705,-0.43478 0.46822,-0.73578 0.35117,-0.31772 0.78595,-0.50167 0.4515,-0.20067 0.91973,-0.28428 0.48495,-0.10033 0.86956,-0.10033 0.70234,0 0.95317,0.26756 0.25084,0.25083 0.25084,0.68561 0,0.36789 -0.16723,1.07023 -0.16722,0.68561 -0.41805,1.5719 -0.25084,0.86956 -0.53512,1.88962 -0.28428,1.00334 -0.53511,2.0234 -0.25084,1.00334 -0.41806,1.97323 -0.16722,0.95318 -0.16722,1.7224 0,0.75251 0.16722,1.20401 0.16722,0.43478 0.68561,0.43478 0.60201,0 1.33779,-0.41806 0.73578,-0.41805 1.48829,-1.00334 0.7525,-0.602 1.47156,-1.23745 0.71906,-0.63545 1.2709,-1.08695 z m -7.47488,-17.19054 q 0,-0.38462 0.16722,-0.86956 0.16723,-0.48495 0.53512,-0.90301 0.38461,-0.43478 1.00334,-0.71906 0.63545,-0.301 1.5719,-0.301 0.58528,0 1.10367,0.13378 0.51839,0.13378 0.903,0.41805 0.38462,0.26756 0.60201,0.71906 0.23411,0.45151 0.23411,1.07023 0,0.56856 -0.18395,1.10368 -0.18394,0.53511 -0.58528,0.95317 -0.40133,0.41806 -1.02006,0.68561 -0.602,0.25084 -1.45484,0.25084 -1.47156,0 -2.1739,-0.68562 -0.70234,-0.70233 -0.70234,-1.85617 z"
         id="path837"
         inkscape:connector-curvature="0"
         style="fill:#ffffff" />
      <path
         d="m 171.71482,133.35715 q -0.38461,0.53511 -1.03678,1.25417 -0.63545,0.71906 -1.43812,1.37123 -0.80267,0.65217 -1.7224,1.10368 -0.91973,0.4515 -1.83946,0.4515 -1.10367,0 -1.83945,-0.70234 -0.73578,-0.71906 -1.2709,-2.07357 -0.40133,0.46823 -0.98661,0.95318 -0.58529,0.48494 -1.28762,0.88628 -0.68562,0.38461 -1.43812,0.63545 -0.75251,0.25083 -1.50501,0.25083 -0.80267,0 -1.5719,-0.31772 -0.7525,-0.33445 -1.33779,-0.93645 -0.58528,-0.61873 -0.93645,-1.48829 -0.35116,-0.88628 -0.35116,-1.98996 0,-1.25417 0.35116,-2.57523 0.35117,-1.32107 0.9699,-2.57524 0.61872,-1.2709 1.45484,-2.39129 0.85284,-1.1204 1.85618,-1.95651 1.00334,-0.83612 2.10701,-1.32107 1.1204,-0.50167 2.27424,-0.50167 0.38461,0 0.602,0.1505 0.21739,0.1505 0.35117,0.35117 0.1505,0.18395 0.28428,0.36789 0.13378,0.18395 0.33445,0.26756 0.20066,0.0836 0.40133,0.11706 0.21739,0.0167 0.43478,0.0167 0.18395,0 0.36789,0 0.20067,-0.0167 0.38462,-0.0167 0.25083,0 0.46822,0.0502 0.21739,0.0502 0.38461,0.21739 0.16723,0.16723 0.25084,0.46823 0.10033,0.301 0.10033,0.81939 0,0.80267 -0.16722,1.78929 -0.16722,0.9699 -0.36789,2.00668 -0.20067,1.02006 -0.36789,2.05685 -0.16723,1.02006 -0.16723,1.93978 0,0.78595 0.13378,1.23746 0.1505,0.43478 0.61873,0.43478 0.35117,0 0.73578,-0.16723 0.38461,-0.18394 0.76923,-0.46822 0.40133,-0.28428 0.78595,-0.63545 0.40133,-0.36789 0.7525,-0.7525 0.8194,-0.90301 1.65551,-2.04013 z m -14.28086,-1.32107 q 0,0.41806 0.0502,0.8194 0.0669,0.38461 0.21739,0.70234 0.1505,0.301 0.40133,0.50167 0.25084,0.18394 0.63545,0.18394 0.61873,0 1.1204,-0.53511 0.50167,-0.53512 0.86956,-1.28762 0.36789,-0.75251 0.58528,-1.55518 0.23411,-0.80267 0.301,-1.33778 l 1.02006,-4.91637 q -0.68561,0 -1.33778,0.35117 -0.65217,0.33445 -1.23746,0.91973 -0.56855,0.58528 -1.0535,1.33779 -0.48495,0.7525 -0.83612,1.58862 -0.35117,0.81939 -0.55183,1.65551 -0.18395,0.83611 -0.18395,1.57189 z"
         id="path839"
         inkscape:connector-curvature="0"
         style="fill:#ffffff" />
    </g>
  </g>
</svg>
