<?xml version="1.0" encoding="UTF-8" standalone="no"?>
<!-- Created with Inkscape (http://www.inkscape.org/) -->

<svg
   xmlns:dc="http://purl.org/dc/elements/1.1/"
   xmlns:cc="http://creativecommons.org/ns#"
   xmlns:rdf="http://www.w3.org/1999/02/22-rdf-syntax-ns#"
   xmlns:svg="http://www.w3.org/2000/svg"
   xmlns="http://www.w3.org/2000/svg"
   xmlns:sodipodi="http://sodipodi.sourceforge.net/DTD/sodipodi-0.dtd"
   xmlns:inkscape="http://www.inkscape.org/namespaces/inkscape"
   version="1.1"
   id="svg2"
   xml:space="preserve"
   width="3111.2505"
   height="1359.9491"
   viewBox="0 0 3111.2505 1359.9492"
   sodipodi:docname="infoGraph.svg"
   inkscape:version="0.92.4 (5da689c313, 2019-01-14)"><metadata
     id="metadata8"><rdf:RDF><cc:Work
         rdf:about=""><dc:format>image/svg+xml</dc:format><dc:type
           rdf:resource="http://purl.org/dc/dcmitype/StillImage" /><dc:title></dc:title></cc:Work></rdf:RDF></metadata><defs
     id="defs6"><radialGradient
       fx="0"
       fy="0"
       cx="0"
       cy="0"
       r="1"
       gradientUnits="userSpaceOnUse"
       gradientTransform="matrix(722.88403,0,0,-722.8949,499.99268,500.00049)"
       spreadMethod="pad"
       id="radialGradient30"><stop
         style="stop-opacity:1;stop-color:#f1f2f2"
         offset="0"
         id="stop24" /><stop
         style="stop-opacity:1;stop-color:#f1f2f2"
         offset="0.54296579"
         id="stop26" /><stop
         style="stop-opacity:1;stop-color:#414042"
         offset="1"
         id="stop28" /></radialGradient><clipPath
       clipPathUnits="userSpaceOnUse"
       id="clipPath40"><path
         d="M 0,1000 H 1000 V 0 H 0 Z"
         id="path38"
         inkscape:connector-curvature="0" /></clipPath><clipPath
       clipPathUnits="userSpaceOnUse"
       id="clipPath48"><path
         d="M 29.6924,130.638 H 972.145 V 114.212 H 29.6924 Z"
         id="path46"
         inkscape:connector-curvature="0" /></clipPath><clipPath
       clipPathUnits="userSpaceOnUse"
       id="clipPath52"><path
         d="m 29.692,114.212 204.772,16.426 h 551.781 l 185.9,-16.426 z"
         id="path50"
         inkscape:connector-curvature="0" /></clipPath><linearGradient
       x1="0"
       y1="0"
       x2="1"
       y2="0"
       gradientUnits="userSpaceOnUse"
       gradientTransform="matrix(0.8487543,19.42963,16.945356,0.0689248,500.83496,112.29688)"
       spreadMethod="pad"
       id="linearGradient66"><stop
         style="stop-opacity:0.50000763;stop-color:#ffffff"
         offset="0"
         id="stop58" /><stop
         style="stop-opacity:0.50000763;stop-color:#ffffff"
         offset="0.00492611"
         id="stop60" /><stop
         style="stop-opacity:0;stop-color:#ffffff"
         offset="0.41791923"
         id="stop62" /><stop
         style="stop-opacity:0;stop-color:#ffffff"
         offset="1"
         id="stop64" /></linearGradient><mask
       maskUnits="userSpaceOnUse"
       x="0"
       y="0"
       width="1"
       height="1"
       id="mask68"><g
         id="g78"><g
           id="g76"><g
             id="g74"><g
               id="g72"><path
                 d="M -32768,32767 H 32767 V -32768 H -32768 Z"
                 style="fill:url(#linearGradient66);stroke:none"
                 id="path70"
                 inkscape:connector-curvature="0" /></g></g></g></g></mask><linearGradient
       x1="0"
       y1="0"
       x2="1"
       y2="0"
       gradientUnits="userSpaceOnUse"
       gradientTransform="matrix(0.8487543,19.42963,16.945356,0.0689248,500.83496,112.29688)"
       spreadMethod="pad"
       id="linearGradient88"><stop
         style="stop-opacity:1;stop-color:#000000"
         offset="0"
         id="stop80" /><stop
         style="stop-opacity:1;stop-color:#000000"
         offset="0.00492611"
         id="stop82" /><stop
         style="stop-opacity:1;stop-color:#000000"
         offset="0.41791923"
         id="stop84" /><stop
         style="stop-opacity:1;stop-color:#000000"
         offset="1"
         id="stop86" /></linearGradient><clipPath
       clipPathUnits="userSpaceOnUse"
       id="clipPath162"><path
         d="M 0,1000 H 1000 V 0 H 0 Z"
         id="path160"
         inkscape:connector-curvature="0" /></clipPath></defs><sodipodi:namedview
     pagecolor="#ffffff"
     bordercolor="#666666"
     borderopacity="1"
     objecttolerance="10"
     gridtolerance="10"
     guidetolerance="10"
     inkscape:pageopacity="0"
     inkscape:pageshadow="2"
     inkscape:window-width="1920"
     inkscape:window-height="1001"
     id="namedview4"
     showgrid="false"
     fit-margin-top="-0.4"
     fit-margin-left="0"
     fit-margin-right="0"
     fit-margin-bottom="0"
     showborder="false"
     inkscape:zoom="0.25031582"
     inkscape:cx="1347.5865"
     inkscape:cy="915.3089"
     inkscape:window-x="-9"
     inkscape:window-y="-9"
     inkscape:window-maximized="1"
     inkscape:current-layer="g10" /><g
     id="g10"
     inkscape:groupmode="layer"
     inkscape:label="Infographics24"
     transform="matrix(1.3333333,0,0,-1.3333333,961.61376,1188.6401)"><g
       id="g1551"><g
         transform="matrix(2.2685326,0,0,1.322309,-691.47735,-279.50484)"
         id="g34"><g
           clip-path="url(#clipPath40)"
           id="g36"><g
             id="g42"><g
               id="g44" /><g
               id="g106"><g
                 style="opacity:0.80000299"
                 id="g104"
                 clip-path="url(#clipPath48)"><g
                   id="g102"><g
                     id="g100"
                     clip-path="url(#clipPath52)"><g
                       id="g98"><g
                         id="g90" /><g
                         id="g96"
                         mask="url(#mask68)"><g
                           id="g94"><path
                             inkscape:connector-curvature="0"
                             id="path92"
                             style="fill:url(#linearGradient88);stroke:none"
                             d="m 29.692,114.212 204.772,16.426 h 551.781 l 185.9,-16.426 z" /></g></g></g></g></g></g></g></g></g></g><g
         style="fill:#00af00;fill-opacity:1"
         transform="matrix(2.6397815,0,0,1.322309,-11.221308,-128.48142)"
         id="g108"><path
           inkscape:connector-curvature="0"
           id="path110"
           style="fill:#00af00;fill-opacity:1;fill-rule:evenodd;stroke:none"
           d="M 0,0 H -115.454 L -268.957,78.723 H -91.955 Z" /></g><g
         transform="matrix(2.6397815,0,0,1.322309,-253.96135,-24.385681)"
         id="g112"><path
           inkscape:connector-curvature="0"
           id="path114"
           style="fill:#cbc1c0;fill-opacity:1;fill-rule:evenodd;stroke:none"
           d="m 0,0 h 175.921 l 34.111,-78.723 H 91.955 Z" /></g><g
         transform="matrix(2.6397815,0,0,1.322309,210.43138,-24.385681)"
         id="g116"><path
           inkscape:connector-curvature="0"
           id="path118"
           style="fill:#97b1bd;fill-opacity:1;fill-rule:evenodd;stroke:none"
           d="M 0,0 H 177.118 L 157.44,-78.723 H 34.111 Z" /></g><g
         transform="matrix(2.6397815,0,0,1.322309,677.9845,-24.385681)"
         id="g120"><path
           inkscape:connector-curvature="0"
           id="path122"
           style="fill:#273946;fill-opacity:1;fill-rule:evenodd;stroke:none"
           d="M 0,0 H 176.292 L 99.709,-78.723 H -19.678 Z" /></g><g
         transform="matrix(2.6397815,0,0,1.322309,1143.3569,-24.385681)"
         id="g124"><path
           inkscape:connector-curvature="0"
           id="path126"
           style="fill:#141c21;fill-opacity:1;fill-rule:evenodd;stroke:none"
           d="M 0,0 H 175.314 L 33.77,-78.723 H -76.583 Z" /></g><g
         style="fill:#00ff00;fill-opacity:1"
         transform="matrix(2.6397815,0,0,1.322309,-252.32179,821.99786)"
         id="g128"><path
           inkscape:connector-curvature="0"
           id="path130"
           style="fill:#00ff00;fill-opacity:1;fill-rule:evenodd;stroke:none"
           d="M 0,0 -88.998,52.773 -177.624,0 V -640.08 H -0.621 Z" /></g><g
         transform="matrix(2.6397815,0,0,1.322309,210.43138,821.99786)"
         id="g132"><path
           inkscape:connector-curvature="0"
           id="path134"
           style="fill:#efefef;fill-opacity:1;fill-rule:evenodd;stroke:none"
           d="M 0,0 -87.296,52.773 -175.921,0 V -640.08 H 0 Z" /></g><g
         transform="matrix(2.6397815,0,0,1.322309,679.3147,821.99786)"
         id="g136"><path
           inkscape:connector-curvature="0"
           id="path138"
           style="fill:#bdd4de;fill-opacity:1;fill-rule:evenodd;stroke:none"
           d="M 0,0 -88.997,52.773 -177.622,0 V -640.08 H -0.621 Z" /></g><g
         transform="matrix(2.6397815,0,0,1.322309,1142.3669,821.99786)"
         id="g140"><path
           inkscape:connector-curvature="0"
           id="path142"
           style="fill:#3f5765;fill-opacity:1;fill-rule:evenodd;stroke:none"
           d="M 0,0 -87.297,52.773 -175.917,0 V -640.08 H 0.375 Z" /></g><g
         transform="matrix(2.6397815,0,0,1.322309,1612.2275,821.99786)"
         id="g144"><path
           inkscape:connector-curvature="0"
           id="path146"
           style="fill:#2b3942;fill-opacity:1;fill-rule:evenodd;stroke:none"
           d="M 0,0 -89,52.773 -177.617,0 V -640.08 H -0.619 Z" /></g><g
         id="g1499"><g
           id="Brush-2"
           data-name="Brush"
           transform="matrix(4.4642635,0,0,-4.4642635,-542.49543,781.22412)"
           style="fill:#ffffff"><path
             id="path1364"
             transform="translate(-99.55,-87)"
             d="m 119.7,113.09 h -15.4 a 1,1 0 0 1 -1,-1 v -4.54 a 1,1 0 0 1 1,-1 h 15.4 a 1,1 0 0 1 1,1 v 4.54 a 1,1 0 0 1 -1,1 z"
             inkscape:connector-curvature="0"
             style="fill:#ffffff" /><path
             id="path1366"
             transform="translate(-99.55,-87)"
             d="m 122.26,87 h -2.68 l -3.33,7.47 -1,-0.44 3.13,-7 H 112 v 7 h -1 V 87 h -5.44 l 2.87,7.11 -1,0.41 -3,-7.52 h -2.65 a 2.07,2.07 0 0 0 -2.11,2.7 l 3.47,13.67 a 1,1 0 0 0 1.05,0.63 h 15.69 a 1,1 0 0 0 1.05,-0.63 L 124.4,89.6 A 2,2 0 0 0 122.26,87 Z"
             inkscape:connector-curvature="0"
             style="fill:#ffffff" /><path
             id="path1368"
             transform="translate(-99.55,-87)"
             d="m 112,115.26 c -1.8,0 -3.26,4.87 -3.26,10.87 0,6 1.46,10.87 3.26,10.87 1.8,0 3.26,-4.87 3.26,-10.87 0,-6 -1.46,-10.87 -3.26,-10.87 z m 0,18.16 c -0.86,0 -1.56,-1.66 -1.56,-3.7 0,-2.04 0.7,-3.7 1.56,-3.7 0.86,0 1.56,1.66 1.56,3.7 0,2.04 -0.7,3.7 -1.56,3.7 z"
             inkscape:connector-curvature="0"
             style="fill:#ffffff" /></g><g
           id="g1397"
           transform="matrix(5.2727457,0,0,-5.2727457,1346.156,806.75199)"
           style="fill:#ffffff"><path
             id="path1384"
             transform="translate(-26,-166)"
             d="M 37,182 H 27 a 1,1 0 0 0 -1,1 v 26 a 9,9 0 0 0 10.23,8.92 2.08,2.08 0 0 0 1.77,-2 V 183 a 1,1 0 0 0 -1,-1 z m -5.6,4 h 1.2 a 1.4,1.4 0 0 1 1.4,1.4 V 202 h -4 v -14.6 a 1.4,1.4 0 0 1 1.4,-1.4 z m 1.2,24 H 31.4 A 1.4,1.4 0 0 1 30,208.6 V 206 h 4 v 2.6 a 1.4,1.4 0 0 1 -1.4,1.4 z"
             inkscape:connector-curvature="0"
             style="fill:#ffffff" /><polygon
             id="polygon1386"
             points="10,14 2,14 2,0 10,6 "
             style="fill:#ffffff" /></g><g
           id="g1414"
           transform="matrix(4.552654,0,0,-4.552654,-83.802872,788.01059)"
           style="fill:#ffffff"><path
             id="path1401"
             transform="translate(-18.37,-6)"
             d="m 32.37,58 h -4 a 1,1 0 0 1 -1,-1 V 19 a 1,1 0 0 1 1,-1 h 4 a 1,1 0 0 1 1,1 v 38 a 1,1 0 0 1 -1,1 z"
             inkscape:connector-curvature="0"
             style="fill:#ffffff" /><path
             id="path1403"
             transform="translate(-18.37,-6)"
             d="m 44.45,16 h -25 A 1,1 0 0 1 18.37,15 V 7 a 1,1 0 0 1 1.08,-1 h 19.38 a 1.24,1.24 0 0 1 0.9,0.46 l 5.61,8 C 45.95,15.3 45.54,16 44.45,16 Z"
             inkscape:connector-curvature="0"
             style="fill:#ffffff" /></g><g
           id="Tape_measure-2"
           data-name="Tape measure"
           transform="matrix(6.2479092,0,0,-6.2479092,283.9894,769.61543)"
           style="fill:#ffffff"><path
             id="path1418"
             transform="translate(-246.5,-96)"
             d="m 294,120 h -18 v 4 h 18 v 2 a 2,2 0 0 0 2,2 h 2 v -8 z"
             inkscape:connector-curvature="0"
             style="fill:#ffffff" /><path
             id="path1420"
             transform="translate(-246.5,-96)"
             d="M 267.83,96 H 247.5 a 1,1 0 0 0 -1,1 v 26 a 1,1 0 0 0 1,1 h 24 a 1,1 0 0 0 1,-1 V 100.67 A 4.68,4.68 0 0 0 267.83,96 Z M 260,119.33 a 9.33,9.33 0 1 1 9.33,-9.33 9.33,9.33 0 0 1 -9.33,9.33 z"
             inkscape:connector-curvature="0"
             style="fill:#ffffff" /></g><g
           id="Toolbox-2"
           data-name="Toolbox"
           transform="matrix(5.0714641,0,0,-5.0714641,778.81257,771.07816)"
           style="fill:#ffffff"><path
             id="path1435"
             transform="translate(-166,-92)"
             d="m 214,112 v 18.91 c 0,0.65 -0.07,1.09 -0.73,1.09 h -42.54 c -0.65,0 -0.73,-0.44 -0.73,-1.09 V 112 c 0,-0.65 0.07,-1 0.73,-1 h 13 a 1.12,1.12 0 0 1 1.27,1 v 7.09 a 0.9,0.9 0 0 0 1.09,0.91 h 11.82 A 0.9,0.9 0 0 0 199,119.09 V 112 a 1.12,1.12 0 0 1 1.27,-1 h 13 c 0.66,0 0.73,0.35 0.73,1 z m -22,5.91 a 2.36,2.36 0 1 0 -2.36,-2.36 2.36,2.36 0 0 0 2.36,2.36 z"
             inkscape:connector-curvature="0"
             style="fill:#ffffff" /><path
             id="path1437"
             transform="translate(-166,-92)"
             d="M 218,101 H 206 V 92 H 179.12 A 0.12,0.12 0 0 0 179,92.12 V 101 h -13 v 7 h 52 z m -38,-8 h 25 v 8 h -25 z"
             inkscape:connector-curvature="0"
             style="fill:#ffffff" /></g></g></g></g></svg>