<?xml version="1.0" encoding="UTF-8" standalone="no"?>
<!-- Created with Inkscape (http://www.inkscape.org/) -->

<svg
   xmlns:dc="http://purl.org/dc/elements/1.1/"
   xmlns:cc="http://creativecommons.org/ns#"
   xmlns:rdf="http://www.w3.org/1999/02/22-rdf-syntax-ns#"
   xmlns:svg="http://www.w3.org/2000/svg"
   xmlns="http://www.w3.org/2000/svg"
   xmlns:sodipodi="http://sodipodi.sourceforge.net/DTD/sodipodi-0.dtd"
   xmlns:inkscape="http://www.inkscape.org/namespaces/inkscape"
   version="1.1"
   id="svg2"
   xml:space="preserve"
   width="3111.2505"
   height="1359.9491"
   viewBox="0 0 3111.2505 1359.9492"
   sodipodi:docname="infoGraph.svg"
   inkscape:version="0.92.4 (5da689c313, 2019-01-14)"><metadata
     id="metadata8"><rdf:RDF><cc:Work
         rdf:about=""><dc:format>image/svg+xml</dc:format><dc:type
           rdf:resource="http://purl.org/dc/dcmitype/StillImage" /><dc:title /></cc:Work></rdf:RDF></metadata><defs
     id="defs6"><radialGradient
       fx="0"
       fy="0"
       cx="0"
       cy="0"
       r="1"
       gradientUnits="userSpaceOnUse"
       gradientTransform="matrix(722.88403,0,0,-722.8949,499.99268,500.00049)"
       spreadMethod="pad"
       id="radialGradient30"><stop
         style="stop-opacity:1;stop-color:#f1f2f2"
         offset="0"
         id="stop24" /><stop
         style="stop-opacity:1;stop-color:#f1f2f2"
         offset="0.54296579"
         id="stop26" /><stop
         style="stop-opacity:1;stop-color:#414042"
         offset="1"
         id="stop28" /></radialGradient><clipPath
       clipPathUnits="userSpaceOnUse"
       id="clipPath40"><path
         d="M 0,1000 H 1000 V 0 H 0 Z"
         id="path38"
         inkscape:connector-curvature="0" /></clipPath><clipPath
       clipPathUnits="userSpaceOnUse"
       id="clipPath48"><path
         d="M 29.6924,130.638 H 972.145 V 114.212 H 29.6924 Z"
         id="path46"
         inkscape:connector-curvature="0" /></clipPath><clipPath
       clipPathUnits="userSpaceOnUse"
       id="clipPath52"><path
         d="m 29.692,114.212 204.772,16.426 h 551.781 l 185.9,-16.426 z"
         id="path50"
         inkscape:connector-curvature="0" /></clipPath><linearGradient
       x1="0"
       y1="0"
       x2="1"
       y2="0"
       gradientUnits="userSpaceOnUse"
       gradientTransform="matrix(0.8487543,19.42963,16.945356,0.0689248,500.83496,112.29688)"
       spreadMethod="pad"
       id="linearGradient66"><stop
         style="stop-opacity:0.50000763;stop-color:#ffffff"
         offset="0"
         id="stop58" /><stop
         style="stop-opacity:0.50000763;stop-color:#ffffff"
         offset="0.00492611"
         id="stop60" /><stop
         style="stop-opacity:0;stop-color:#ffffff"
         offset="0.41791923"
         id="stop62" /><stop
         style="stop-opacity:0;stop-color:#ffffff"
         offset="1"
         id="stop64" /></linearGradient><mask
       maskUnits="userSpaceOnUse"
       x="0"
       y="0"
       width="1"
       height="1"
       id="mask68"><g
         id="g78"><g
           id="g76"><g
             id="g74"><g
               id="g72"><path
                 d="M -32768,32767 H 32767 V -32768 H -32768 Z"
                 style="fill:url(#linearGradient66);stroke:none"
                 id="path70"
                 inkscape:connector-curvature="0" /></g></g></g></g></mask><linearGradient
       x1="0"
       y1="0"
       x2="1"
       y2="0"
       gradientUnits="userSpaceOnUse"
       gradientTransform="matrix(0.8487543,19.42963,16.945356,0.0689248,500.83496,112.29688)"
       spreadMethod="pad"
       id="linearGradient88"><stop
         style="stop-opacity:1;stop-color:#000000"
         offset="0"
         id="stop80" /><stop
         style="stop-opacity:1;stop-color:#000000"
         offset="0.00492611"
         id="stop82" /><stop
         style="stop-opacity:1;stop-color:#000000"
         offset="0.41791923"
         id="stop84" /><stop
         style="stop-opacity:1;stop-color:#000000"
         offset="1"
         id="stop86" /></linearGradient><clipPath
       clipPathUnits="userSpaceOnUse"
       id="clipPath162"><path
         d="M 0,1000 H 1000 V 0 H 0 Z"
         id="path160"
         inkscape:connector-curvature="0" /></clipPath><pattern
       y="0"
       x="0"
       height="6"
       width="6"
       patternUnits="userSpaceOnUse"
       id="EMFhbasepattern" /></defs><sodipodi:namedview
     pagecolor="#ffffff"
     bordercolor="#666666"
     borderopacity="1"
     objecttolerance="10"
     gridtolerance="10"
     guidetolerance="10"
     inkscape:pageopacity="0"
     inkscape:pageshadow="2"
     inkscape:window-width="1920"
     inkscape:window-height="1001"
     id="namedview4"
     showgrid="false"
     fit-margin-top="-0.4"
     fit-margin-left="0"
     fit-margin-right="0"
     fit-margin-bottom="0"
     showborder="false"
     inkscape:zoom="0.35400003"
     inkscape:cx="1769.5508"
     inkscape:cy="669.71348"
     inkscape:window-x="-9"
     inkscape:window-y="-9"
     inkscape:window-maximized="1"
     inkscape:current-layer="g10" /><g
     id="g10"
     inkscape:groupmode="layer"
     inkscape:label="Infographics24"
     transform="matrix(1.3333333,0,0,-1.3333333,961.61376,1188.6401)"><g
   id="g108"
   transform="matrix(2.6397815,0,0,1.322309,-11.221308,-128.48142)"
   style="fill:#00af00;fill-opacity:1"><path
     d="M 0,0 H -115.454 L -268.957,78.723 H -91.955 Z"
     style="fill:#00af00;fill-opacity:1;fill-rule:evenodd;stroke:none"
     id="path110"
     inkscape:connector-curvature="0" /></g><g
   id="g112"
   transform="matrix(2.6397815,0,0,1.322309,-253.96135,-24.385681)"
   style="fill:#666666"><path
     d="m 0,0 h 175.921 l 34.111,-78.723 H 91.955 Z"
     style="fill:#666666;fill-opacity:1;fill-rule:evenodd;stroke:none"
     id="path114"
     inkscape:connector-curvature="0" /></g><g
   id="g116"
   transform="matrix(2.6397815,0,0,1.322309,210.43138,-24.385681)"><path
     d="M 0,0 H 177.118 L 157.44,-78.723 H 34.111 Z"
     style="fill:#97b1bd;fill-opacity:1;fill-rule:evenodd;stroke:none"
     id="path118"
     inkscape:connector-curvature="0" /></g><g
   id="g120"
   transform="matrix(2.6397815,0,0,1.322309,677.9845,-24.385681)"><path
     d="M 0,0 H 176.292 L 99.709,-78.723 H -19.678 Z"
     style="fill:#273946;fill-opacity:1;fill-rule:evenodd;stroke:none"
     id="path122"
     inkscape:connector-curvature="0" /></g><g
   id="g124"
   transform="matrix(2.6397815,0,0,1.322309,1143.3569,-24.385681)"><path
     d="M 0,0 H 175.314 L 33.77,-78.723 H -76.583 Z"
     style="fill:#141c21;fill-opacity:1;fill-rule:evenodd;stroke:none"
     id="path126"
     inkscape:connector-curvature="0" /></g><g
   id="g128"
   transform="matrix(2.6397815,0,0,1.322309,-252.32179,821.99786)"
   style="fill:#00ff00;fill-opacity:1"><path
     d="M 0,0 -88.998,52.773 -177.624,0 V -640.08 H -0.621 Z"
     style="fill:#00ff00;fill-opacity:1;fill-rule:evenodd;stroke:none"
     id="path130"
     inkscape:connector-curvature="0" /></g><g
   id="g132"
   transform="matrix(2.6397815,0,0,1.322309,210.43143,821.99786)"
   style="fill:#999999"><path
     d="M 0,0 -87.296,52.773 -175.921,0 V -640.08 H 0 Z"
     style="fill:#999999;fill-opacity:1;fill-rule:evenodd;stroke:none"
     id="path134"
     inkscape:connector-curvature="0" /></g><g
   id="g136"
   transform="matrix(2.6397815,0,0,1.322309,679.3147,821.99786)"><path
     d="M 0,0 -88.997,52.773 -177.622,0 V -640.08 H -0.621 Z"
     style="fill:#bdd4de;fill-opacity:1;fill-rule:evenodd;stroke:none"
     id="path138"
     inkscape:connector-curvature="0" /></g><g
   id="g140"
   transform="matrix(2.6397815,0,0,1.322309,1142.3669,821.99786)"><path
     d="M 0,0 -87.297,52.773 -175.917,0 V -640.08 H 0.375 Z"
     style="fill:#3f5765;fill-opacity:1;fill-rule:evenodd;stroke:none"
     id="path142"
     inkscape:connector-curvature="0" /></g><g
   id="g144"
   transform="matrix(2.6397815,0,0,1.322309,1612.2275,821.99786)"><path
     d="M 0,0 -89,52.773 -177.617,0 V -640.08 H -0.619 Z"
     style="fill:#2b3942;fill-opacity:1;fill-rule:evenodd;stroke:none"
     id="path146"
     inkscape:connector-curvature="0" /></g><g
   id="Brush-2"
   data-name="Brush"
   transform="matrix(5.662413,0,0,-5.662413,-557.45246,789.79229)"
   style="fill:#ffffff"><path
     id="path1364"
     transform="translate(-99.55,-87)"
     d="m 119.7,113.09 h -15.4 a 1,1 0 0 1 -1,-1 v -4.54 a 1,1 0 0 1 1,-1 h 15.4 a 1,1 0 0 1 1,1 v 4.54 a 1,1 0 0 1 -1,1 z"
     inkscape:connector-curvature="0"
     style="fill:#ffffff" /><path
     id="path1366"
     transform="translate(-99.55,-87)"
     d="m 122.26,87 h -2.68 l -3.33,7.47 -1,-0.44 3.13,-7 H 112 v 7 h -1 V 87 h -5.44 l 2.87,7.11 -1,0.41 -3,-7.52 h -2.65 a 2.07,2.07 0 0 0 -2.11,2.7 l 3.47,13.67 a 1,1 0 0 0 1.05,0.63 h 15.69 a 1,1 0 0 0 1.05,-0.63 L 124.4,89.6 A 2,2 0 0 0 122.26,87 Z"
     inkscape:connector-curvature="0"
     style="fill:#ffffff" /><path
     id="path1368"
     transform="translate(-99.55,-87)"
     d="m 112,115.26 c -1.8,0 -3.26,4.87 -3.26,10.87 0,6 1.46,10.87 3.26,10.87 1.8,0 3.26,-4.87 3.26,-10.87 0,-6 -1.46,-10.87 -3.26,-10.87 z m 0,18.16 c -0.86,0 -1.56,-1.66 -1.56,-3.7 0,-2.04 0.7,-3.7 1.56,-3.7 0.86,0 1.56,1.66 1.56,3.7 0,2.04 -0.7,3.7 -1.56,3.7 z"
     inkscape:connector-curvature="0"
     style="fill:#ffffff" /></g><g
   id="g1140"
   transform="matrix(0.34184591,-0.30943069,-0.30943069,-0.34184591,424.6371,804.14888)"
   style="fill:#ffffff"><g
     id="g912"
     style="fill:#ffffff">
	<g
   id="g910"
   style="fill:#ffffff">
		<path
   id="path908"
   d="M 147.064,0 H 38.128 C 32.115,0 27.234,4.88 27.234,10.894 V 392.17 c 0,6.013 4.88,10.894 10.894,10.894 h 108.936 c 6.013,0 10.894,-4.88 10.894,-10.894 V 10.894 C 157.957,4.88 153.077,0 147.064,0 Z M 136.17,381.277 H 49.021 V 21.787 h 87.149 z"
   inkscape:connector-curvature="0"
   style="fill:#ffffff" />
	</g>
</g><g
     id="g918"
     style="fill:#ffffff">
	<g
   id="g916"
   style="fill:#ffffff">
		<path
   id="path914"
   d="M 256,54.468 H 147.064 c -6.013,0 -10.894,4.88 -10.894,10.894 v 435.745 c 0,6.013 4.88,10.894 10.894,10.894 H 256 c 6.013,0 10.894,-4.88 10.894,-10.894 V 65.362 c 0,-6.014 -4.881,-10.894 -10.894,-10.894 z M 245.106,490.213 H 157.957 V 76.255 h 87.149 z"
   inkscape:connector-curvature="0"
   style="fill:#ffffff" />
	</g>
</g><g
     id="g924"
     style="fill:#ffffff">
	<g
   id="g922"
   style="fill:#ffffff">
		<path
   id="path920"
   d="M 364.936,0 H 256 c -6.013,0 -10.894,4.88 -10.894,10.894 V 392.17 c 0,6.013 4.88,10.894 10.894,10.894 h 108.936 c 6.013,0 10.894,-4.88 10.894,-10.894 V 10.894 C 375.83,4.88 370.949,0 364.936,0 Z M 354.043,381.277 H 266.894 V 21.787 h 87.149 z"
   inkscape:connector-curvature="0"
   style="fill:#ffffff" />
	</g>
</g><g
     id="g930"
     style="fill:#ffffff">
	<g
   id="g928"
   style="fill:#ffffff">
		<path
   id="path926"
   d="M 473.872,54.468 H 364.936 c -6.013,0 -10.894,4.88 -10.894,10.894 v 435.745 c 0,6.013 4.88,10.894 10.894,10.894 h 108.936 c 6.013,0 10.894,-4.88 10.894,-10.894 V 65.362 c 0,-6.014 -4.88,-10.894 -10.894,-10.894 z M 462.979,490.213 H 375.83 V 76.255 h 87.149 z"
   inkscape:connector-curvature="0"
   style="fill:#ffffff" />
	</g>
</g><g
     id="g936"
     style="fill:#ffffff">
	<g
   id="g934"
   style="fill:#ffffff">
		<path
   id="path932"
   d="m 65.362,32.681 c -3.007,0 -5.447,2.44 -5.447,5.447 v 108.936 c 0,3.007 2.44,5.447 5.447,5.447 3.007,0 5.447,-2.44 5.447,-5.447 V 38.128 c 0,-3.007 -2.441,-5.447 -5.447,-5.447 z"
   inkscape:connector-curvature="0"
   style="fill:#ffffff" />
	</g>
</g><g
     id="g942"
     style="fill:#ffffff">
	<g
   id="g940"
   style="fill:#ffffff">
		<path
   id="path938"
   d="m 92.596,196.085 c -3.007,0 -5.447,2.44 -5.447,5.447 V 256 c 0,3.007 2.44,5.447 5.447,5.447 3.007,0 5.447,-2.44 5.447,-5.447 v -54.468 c 0,-3.007 -2.441,-5.447 -5.447,-5.447 z"
   inkscape:connector-curvature="0"
   style="fill:#ffffff" />
	</g>
</g><g
     id="g948"
     style="fill:#ffffff">
	<g
   id="g946"
   style="fill:#ffffff">
		<path
   id="path944"
   d="m 92.596,305.021 c -3.007,0 -5.447,2.435 -5.447,5.447 v 27.234 c 0,3.012 2.44,5.447 5.447,5.447 3.007,0 5.447,-2.435 5.447,-5.447 v -27.234 c 0,-3.012 -2.441,-5.447 -5.447,-5.447 z"
   inkscape:connector-curvature="0"
   style="fill:#ffffff" />
	</g>
</g><g
     id="g954"
     style="fill:#ffffff">
	<g
   id="g952"
   style="fill:#ffffff">
		<path
   id="path950"
   d="m 92.596,59.915 c -3.007,0 -5.447,2.44 -5.447,5.447 v 54.468 c 0,3.007 2.44,5.447 5.447,5.447 3.007,0 5.447,-2.44 5.447,-5.447 V 65.362 c 0,-3.007 -2.441,-5.447 -5.447,-5.447 z"
   inkscape:connector-curvature="0"
   style="fill:#ffffff" />
	</g>
</g><g
     id="g960"
     style="fill:#ffffff">
	<g
   id="g958"
   style="fill:#ffffff">
		<path
   id="path956"
   d="m 228.766,87.149 c -3.007,0 -5.447,2.44 -5.447,5.447 v 136.17 c 0,3.007 2.44,5.447 5.447,5.447 3.007,0 5.447,-2.44 5.447,-5.447 V 92.596 c 0,-3.007 -2.44,-5.447 -5.447,-5.447 z"
   inkscape:connector-curvature="0"
   style="fill:#ffffff" />
	</g>
</g><g
     id="g966"
     style="fill:#ffffff">
	<g
   id="g964"
   style="fill:#ffffff">
		<path
   id="path962"
   d="m 201.532,141.617 c -3.007,0 -5.447,2.44 -5.447,5.447 v 54.468 c 0,3.007 2.44,5.447 5.447,5.447 3.007,0 5.447,-2.44 5.447,-5.447 v -54.468 c 0,-3.007 -2.44,-5.447 -5.447,-5.447 z"
   inkscape:connector-curvature="0"
   style="fill:#ffffff" />
	</g>
</g><g
     id="g972"
     style="fill:#ffffff">
	<g
   id="g970"
   style="fill:#ffffff">
		<path
   id="path968"
   d="m 174.298,277.787 c -3.007,0 -5.447,2.435 -5.447,5.447 v 81.702 c 0,3.012 2.44,5.447 5.447,5.447 3.007,0 5.447,-2.435 5.447,-5.447 v -81.702 c 0,-3.012 -2.44,-5.447 -5.447,-5.447 z"
   inkscape:connector-curvature="0"
   style="fill:#ffffff" />
	</g>
</g><g
     id="g978"
     style="fill:#ffffff">
	<g
   id="g976"
   style="fill:#ffffff">
		<path
   id="path974"
   d="m 201.532,305.021 c -3.007,0 -5.447,2.435 -5.447,5.447 v 136.17 c 0,3.012 2.44,5.447 5.447,5.447 3.007,0 5.447,-2.435 5.447,-5.447 v -136.17 c 0,-3.012 -2.44,-5.447 -5.447,-5.447 z"
   inkscape:connector-curvature="0"
   style="fill:#ffffff" />
	</g>
</g><g
     id="g984"
     style="fill:#ffffff">
	<g
   id="g982"
   style="fill:#ffffff">
		<path
   id="path980"
   d="m 310.468,32.681 c -3.012,0 -5.447,2.44 -5.447,5.447 v 54.468 c 0,3.007 2.435,5.447 5.447,5.447 3.012,0 5.447,-2.44 5.447,-5.447 V 38.128 c 0,-3.007 -2.435,-5.447 -5.447,-5.447 z"
   inkscape:connector-curvature="0"
   style="fill:#ffffff" />
	</g>
</g><g
     id="g990"
     style="fill:#ffffff">
	<g
   id="g988"
   style="fill:#ffffff">
		<path
   id="path986"
   d="m 337.702,114.383 c -3.012,0 -5.447,2.44 -5.447,5.447 v 163.404 c 0,3.012 2.435,5.447 5.447,5.447 3.012,0 5.447,-2.435 5.447,-5.447 V 119.83 c 0,-3.007 -2.435,-5.447 -5.447,-5.447 z"
   inkscape:connector-curvature="0"
   style="fill:#ffffff" />
	</g>
</g><g
     id="g996"
     style="fill:#ffffff">
	<g
   id="g994"
   style="fill:#ffffff">
		<path
   id="path992"
   d="m 310.468,141.617 c -3.012,0 -5.447,2.44 -5.447,5.447 v 27.234 c 0,3.007 2.435,5.447 5.447,5.447 3.012,0 5.447,-2.44 5.447,-5.447 v -27.234 c 0,-3.007 -2.435,-5.447 -5.447,-5.447 z"
   inkscape:connector-curvature="0"
   style="fill:#ffffff" />
	</g>
</g><g
     id="g1002"
     style="fill:#ffffff">
	<g
   id="g1000"
   style="fill:#ffffff">
		<path
   id="path998"
   d="m 283.234,196.085 c -3.012,0 -5.447,2.44 -5.447,5.447 v 136.17 c 0,3.012 2.435,5.447 5.447,5.447 3.012,0 5.447,-2.435 5.447,-5.447 v -136.17 c 0,-3.007 -2.435,-5.447 -5.447,-5.447 z"
   inkscape:connector-curvature="0"
   style="fill:#ffffff" />
	</g>
</g><g
     id="g1008"
     style="fill:#ffffff">
	<g
   id="g1006"
   style="fill:#ffffff">
		<path
   id="path1004"
   d="m 392.17,359.489 c -3.012,0 -5.447,2.435 -5.447,5.447 v 108.936 c 0,3.012 2.435,5.447 5.447,5.447 3.012,0 5.447,-2.435 5.447,-5.447 V 364.936 c 0,-3.012 -2.435,-5.447 -5.447,-5.447 z"
   inkscape:connector-curvature="0"
   style="fill:#ffffff" />
	</g>
</g><g
     id="g1014"
     style="fill:#ffffff">
	<g
   id="g1012"
   style="fill:#ffffff">
		<path
   id="path1010"
   d="m 419.404,305.021 c -3.012,0 -5.447,2.435 -5.447,5.447 v 108.936 c 0,3.012 2.435,5.447 5.447,5.447 3.012,0 5.447,-2.435 5.447,-5.447 V 310.468 c 0,-3.012 -2.435,-5.447 -5.447,-5.447 z"
   inkscape:connector-curvature="0"
   style="fill:#ffffff" />
	</g>
</g><g
     id="g1020"
     style="fill:#ffffff">
	<g
   id="g1018"
   style="fill:#ffffff">
		<path
   id="path1016"
   d="m 392.17,141.617 c -3.012,0 -5.447,2.44 -5.447,5.447 v 27.234 c 0,3.007 2.435,5.447 5.447,5.447 3.012,0 5.447,-2.44 5.447,-5.447 v -27.234 c 0,-3.007 -2.435,-5.447 -5.447,-5.447 z"
   inkscape:connector-curvature="0"
   style="fill:#ffffff" />
	</g>
</g><g
     id="g1026"
     style="fill:#ffffff">
	<g
   id="g1024"
   style="fill:#ffffff">
		<path
   id="path1022"
   d="m 446.638,196.085 c -3.012,0 -5.447,2.44 -5.447,5.447 v 81.702 c 0,3.012 2.435,5.447 5.447,5.447 3.012,0 5.447,-2.435 5.447,-5.447 v -81.702 c 0,-3.007 -2.435,-5.447 -5.447,-5.447 z"
   inkscape:connector-curvature="0"
   style="fill:#ffffff" />
	</g>
</g><g
     id="g1028"
     style="fill:#ffffff">
</g><g
     id="g1030"
     style="fill:#ffffff">
</g><g
     id="g1032"
     style="fill:#ffffff">
</g><g
     id="g1034"
     style="fill:#ffffff">
</g><g
     id="g1036"
     style="fill:#ffffff">
</g><g
     id="g1038"
     style="fill:#ffffff">
</g><g
     id="g1040"
     style="fill:#ffffff">
</g><g
     id="g1042"
     style="fill:#ffffff">
</g><g
     id="g1044"
     style="fill:#ffffff">
</g><g
     id="g1046"
     style="fill:#ffffff">
</g><g
     id="g1048"
     style="fill:#ffffff">
</g><g
     id="g1050"
     style="fill:#ffffff">
</g><g
     id="g1052"
     style="fill:#ffffff">
</g><g
     id="g1054"
     style="fill:#ffffff">
</g><g
     id="g1056"
     style="fill:#ffffff">
</g></g><g
   id="g1231"
   transform="matrix(0.61222741,0,0,-0.61222741,760.47832,807.99462)"
   style="fill:#ffffff"><path
     id="path1208"
     d="m 506.63281,316.32031 c -3.2539,-1.29297 -6.96875,-0.48437 -9.38672,2.04688 l -36.44531,38.30859 V 129.13281 h 0.043 l 34.77344,-37.546872 c 3.19922,-3.457032 2.98828,-8.859376 -0.47266,-12.058594 0,0 -0.004,-0.0039 -0.008,-0.0078 l -12.51547,-11.64845 17.39063,-18.773438 c 3.19531,-3.460937 2.98047,-8.859375 -0.48047,-12.054687 L 461.98437,2.269531 c -3.45703,-3.199219 -8.85546,-2.992187 -12.05468,0.46875 L 389.25781,68.25 H 93.867188 C 93.839844,44.695312 74.753906,25.609375 51.199219,25.582031 h -8.53125 C 19.113281,25.609375 0.0273438,44.695312 0,68.25 v 366.93359 c 0,4.71094 3.820312,8.53125 8.535156,8.53125 H 137.71094 l -17.92188,21.51954 c -3.01172,3.625 -2.51953,9.0039 1.10157,12.01562 l 39.34765,32.76172 c 3.62109,3.01562 9.00391,2.52344 12.01953,-1.09766 0,0 0.004,-0.004 0.004,-0.004 L 215.9375,456.4375 c 3.01562,-3.63281 4.95703,-8.04297 5.59766,-12.72266 h 156.36328 l -51.28516,53.85547 c -3.24609,3.41407 -3.10937,8.81641 0.30469,12.0625 1.58594,1.50782 3.6914,2.35157 5.88281,2.34766 h 170.66406 c 4.71485,0 8.53516,-3.82031 8.53516,-8.53125 V 324.25 c 0,-3.49219 -2.125,-6.63281 -5.36719,-7.92969 z M 477.29687,86.167969 460.80078,104.01172 V 91.460938 l 10.23828,-11.09375 z m -33.5625,-1.519531 v 0.121093 l -72.16796,77.996089 -25.0625,-23.1875 86.9375,-93.95312 25.0625,23.1875 -14.66797,15.835938 z m -88.55859,86.187502 -19.62891,5.72656 4.19141,-20.01953 z M 456.62891,20.574219 481.67969,43.75 470.08594,56.300781 445.03125,33.101562 Z M 42.667969,42.648438 h 8.53125 c 14.140625,0 25.601562,11.460937 25.601562,25.601562 v 324.48828 c -7.34375,-5.64844 -16.339843,-8.72656 -25.601562,-8.75781 h -8.53125 c -9.265625,0.0312 -18.257813,3.10937 -25.601563,8.75781 V 68.25 c 0,-14.140625 11.460938,-25.601562 25.601563,-25.601562 z m 0,358.398432 h 8.53125 c 14.140625,0 25.601562,11.46485 25.601562,25.60157 H 17.066406 c 0,-14.13672 11.460938,-25.60157 25.601563,-25.60157 z m 160.160161,44.47657 -5.46094,6.55468 -26.23047,-21.83593 5.45312,-6.5625 c 3.01563,-3.6211 8.39454,-4.11328 12.01563,-1.09766 0.004,0 0.004,0.004 0.008,0.004 l 13.11328,10.89062 c 3.625,3.01172 4.1211,8.39063 1.10938,12.01563 -0.004,0.004 -0.004,0.004 -0.008,0.008 z m -38.21875,45.91015 -26.23438,-21.83593 21.83984,-26.24219 26.23047,21.83984 z m 53.33984,-64.78515 c -1.41797,-2.36328 -3.21094,-4.47657 -5.30859,-6.26172 l -13.11329,-10.91406 c -10.86718,-9.04688 -27.00781,-7.57422 -36.05468,3.29296 l -11.57813,13.88282 H 93.867188 V 85.316406 H 373.46875 l -45.28516,48.937504 c -0.64843,0.73046 -1.16406,1.57421 -1.51953,2.48437 -0.10156,0.24609 -0.17969,0.47656 -0.26562,0.73438 -0.082,0.2539 -0.21094,0.51171 -0.27344,0.78515 l -10.1875,48.70703 c -0.96094,4.61328 2,9.13282 6.61328,10.09375 1.37109,0.28516 2.78906,0.23047 4.12891,-0.16015 l 47.78906,-13.92578 c 0.22266,-0.0703 0.41016,-0.19922 0.62109,-0.27344 0.21485,-0.0781 0.4375,-0.1875 0.66797,-0.30078 0.95703,-0.4336 1.82422,-1.04688 2.5586,-1.80078 l 65.41796,-70.69922 v 264.69531 l -49.57812,52.05469 z m 276.98437,68.26562 H 352.70703 L 494.93359,345.58203 Z m 0,0"
     inkscape:connector-curvature="0"
     style="fill:#ffffff" /><path
     id="path1210"
     d="m 401.71484,472.58203 c 1.32032,3.1875 4.4336,5.26563 7.88672,5.26563 h 59.73047 c 4.71485,0 8.53516,-3.82032 8.53516,-8.53125 v -59.73438 c 0,-4.71484 -3.82422,-8.53125 -8.53516,-8.53125 -2.26172,0 -4.43359,0.89844 -6.03125,2.5 l -59.73437,59.73047 c -2.44141,2.44141 -3.17188,6.11328 -1.85157,9.30078 z m 59.08594,-42.40234 v 30.60156 h -30.60156 z m 0,0"
     inkscape:connector-curvature="0"
     style="fill:#ffffff" /><path
     id="path1212"
     d="m 375.46484,324.25 h -59.73047 v -93.86719 c -0.0117,-2.26562 -0.91406,-4.4375 -2.51171,-6.04297 l -51.19922,-51.19922 c -3.33203,-3.33203 -8.73438,-3.33203 -12.06641,0 l -51.19922,51.19922 c -1.58984,1.60938 -2.48437,3.78125 -2.49219,6.04297 V 324.25 h -59.73046 c -4.71485,0 -8.53516,3.82031 -8.53516,8.53125 0,4.71484 3.82031,8.53516 8.53516,8.53516 h 238.93359 c 4.71094,0 8.53125,-3.82032 8.53125,-8.53516 0,-4.71094 -3.82031,-8.53125 -8.53516,-8.53125 z M 256,191.24609 l 30.60156,30.60157 h -61.20312 z m -42.66797,47.66797 h 85.33594 V 324.25 h -85.33594 z m 0,0"
     inkscape:connector-curvature="0"
     style="fill:#ffffff" /><path
     id="path1214"
     d="m 247.46484,136.51562 h 17.07032 v 17.06641 h -17.07032 z m 0,0"
     inkscape:connector-curvature="0"
     style="fill:#ffffff" /><path
     id="path1216"
     d="m 247.46484,358.38281 h 17.07032 v 17.06641 h -17.07032 z m 0,0"
     inkscape:connector-curvature="0"
     style="fill:#ffffff" /></g><g
   id="g1247"
   transform="matrix(0.57377698,0,0,-0.57377698,-168.65155,802.9327)"
   style="fill:#ffffff"><path
     id="path1233"
     d="M 8.535156,512.48828 H 418.13281 c 4.71485,0 8.53516,-3.82031 8.53516,-8.53125 v -76.80078 h 59.73047 c 4.71484,0 8.53515,-3.82031 8.53515,-8.53125 v -85.33594 c 0,-4.71094 -3.82031,-8.53125 -8.53515,-8.53125 h -59.73047 v -76.80078 c 0,-4.71484 -3.82031,-8.53516 -8.53516,-8.53516 h -15.66015 c 1.20312,-5.57812 -0.0703,-11.40625 -3.48829,-15.97656 l -38.55859,-51.39844 17.80469,-13.35546 C 386.14062,152.76953 390.55859,143.27734 390,133.41016 l -0.85547,-15.36719 c -0.23437,-4.16797 1.63281,-8.17578 4.97266,-10.67969 l 17.80078,-13.351561 7.49219,9.984371 c 1.35546,1.8086 3.375,3.00782 5.61718,3.32813 0.39844,0.0547 0.80078,0.0859 1.20703,0.082 1.84766,0.004 3.64454,-0.59766 5.1211,-1.70703 l 70.40625,-52.816408 c 11.30469,-8.480468 13.59765,-24.523437 5.11719,-35.832031 l -4.74219,-6.328125 C 493.64453,-0.570312 477.60937,-2.855469 466.29687,5.613281 l -70.39843,52.8125 c -3.76953,2.828125 -4.53516,8.179688 -1.70703,11.949219 l 7.48828,9.984375 -17.80078,13.355469 c -7.91016,5.921875 -12.33204,15.410156 -11.76954,25.277346 l 0.85157,15.36718 c 0.23828,4.16797 -1.62891,8.17969 -4.96875,10.67969 l -17.80078,13.35547 -38.5625,-51.39844 c -4.03516,-5.46484 -10.58985,-8.476559 -17.36719,-7.980465 -6.46485,0.46875 -12.24219,4.218755 -15.3086,9.933595 L 208.83594,239.42187 H 8.535156 C 3.820312,239.42187 0,243.24219 0,247.95703 v 85.33203 c 0,4.71485 3.820312,8.53516 8.535156,8.53516 h 59.730469 v 68.26562 H 8.535156 C 3.820312,410.08984 0,413.91016 0,418.625 v 85.33203 c 0,4.71094 3.820312,8.53125 8.535156,8.53125 z M 476.53906,19.261719 c 3.76563,-2.828125 9.11328,-2.066407 11.94531,1.703125 l 4.74219,6.328125 c 2.82422,3.769531 2.0586,9.113281 -1.70703,11.941406 L 427.9375,86.933594 412.95703,66.957031 Z M 153.60156,427.15625 h 119.46485 v 68.26562 H 153.60156 Z m 68.26563,-85.33203 h 119.46484 v 68.26562 H 221.86719 Z M 409.60156,495.42187 H 290.13281 v -68.26562 h 119.46875 z m 68.26563,-85.33203 H 358.39844 V 341.82422 H 477.86719 Z M 409.60156,324.75781 H 290.13281 v -49.6914 l 87.34375,-18.57813 h 32.125 z M 293.99219,117.03516 c 0.28906,-0.59766 0.89062,-0.98047 1.55468,-1 l 0.16797,-0.008 c 0.90625,0.0156 1.7461,0.46485 2.26172,1.20703 l 38.55469,51.39844 -35.20313,26.41016 c -3.76953,2.82812 -4.53515,8.17578 -1.70703,11.94922 2.82813,3.76953 8.17578,4.53125 11.94922,1.70703 l 35.20313,-26.41016 38.55859,51.39844 c 0.61328,0.75 0.79297,1.76172 0.46875,2.67187 -0.20312,0.63282 -0.73828,1.09766 -1.39453,1.21485 l -169.29297,36 c -1.05078,0.16406 -2.10547,-0.28516 -2.71094,-1.16016 -0.67968,-0.82031 -0.8164,-1.96094 -0.35156,-2.92187 z m -95.23828,165.62109 c 4.54687,6.25391 12.35156,9.23437 19.91015,7.60937 l 54.40235,-11.57031 v 46.0625 H 153.60156 v -68.26953 h 46.0586 l -2.64454,4.92188 c -3.65625,6.80859 -2.97265,15.125 1.73829,21.24609 z M 17.066406,290.625 h 17.066406 c 4.714844,0 8.535157,-3.82031 8.535157,-8.53516 0,-4.71093 -3.820313,-8.53125 -8.535157,-8.53125 H 17.066406 V 256.48828 H 136.53516 v 68.26953 H 17.066406 Z m 68.265625,51.19922 H 204.80078 v 68.26562 H 85.332031 Z M 17.066406,427.15625 H 136.53516 v 68.26562 H 17.066406 Z m 0,0"
     inkscape:connector-curvature="0"
     style="fill:#ffffff" /><path
     id="path1235"
     d="m 110.93359,282.08984 c 0,-4.71093 -3.82031,-8.53125 -8.53515,-8.53125 H 68.265625 c -4.710937,0 -8.53125,3.82032 -8.53125,8.53125 0,4.71485 3.820313,8.53516 8.53125,8.53516 h 34.132815 c 4.71484,0 8.53515,-3.82031 8.53515,-8.53516 z m 0,0"
     inkscape:connector-curvature="0"
     style="fill:#ffffff" /></g><g
   id="g1311"
   transform="matrix(0.6222585,0,0,-0.6222585,1246.1046,780.35487)"
   style="fill:#ffffff"><path
     id="path1249"
     d="M 6.828125,198.10156 C 3.054688,198.10156 0,195.04687 0,191.27344 V 82.046875 C 0,78.277344 3.054688,75.222656 6.828125,75.222656 H 116.05469 c 3.76953,0 6.82422,3.054688 6.82422,6.824219 0,3.773437 -3.05469,6.828125 -6.82422,6.828125 H 13.652344 v 102.39844 c 0,3.77343 -3.054688,6.82812 -6.824219,6.82812 z m 0,0"
     inkscape:connector-curvature="0"
     style="fill:#ffffff" /><path
     id="path1251"
     d="M 6.828125,266.36719 C 3.054688,266.36719 0,263.3125 0,259.54297 v -75.38672 c 0,-2.65234 1.539062,-5.07422 3.945312,-6.19141 l 54.613282,-25.39453 c 1.828125,-0.83984 3.933594,-0.83984 5.761718,0 L 111.625,174.5625 c 3.42188,1.59375 4.90234,5.65234 3.31641,9.07422 -1.59375,3.41797 -5.64063,4.91015 -9.07422,3.3125 L 61.441406,166.28906 13.652344,188.51172 v 71.03515 c 0,3.76563 -3.054688,6.82032 -6.824219,6.82032 z m 0,0"
     inkscape:connector-curvature="0"
     style="fill:#ffffff" /><path
     id="path1253"
     d="M 6.828125,349.12891 C 3.054688,349.12891 0,346.07422 0,342.30078 v -86.15234 c 0,-2.28125 1.132812,-4.40625 3.035156,-5.67188 l 51.199219,-34.26172 c 2.292969,-1.53125 5.292969,-1.53125 7.589844,0 l 51.199221,34.26172 c 1.89844,1.26563 3.03125,3.39063 3.03125,5.67188 v 78.78125 c 0,3.76953 -3.05469,6.82422 -6.82813,6.82422 -3.77343,0 -6.82812,-3.05469 -6.82812,-6.82422 v -75.13672 l -44.371096,-29.69141 -44.375,29.69141 v 82.50781 c 0,3.77344 -3.054688,6.82813 -6.824219,6.82813 z m 0,0"
     inkscape:connector-curvature="0"
     style="fill:#ffffff" /><path
     id="path1255"
     d="m 109.22656,198.10156 c -3.77343,0 -6.82812,-3.05469 -6.82812,-6.82812 V 82.046875 c 0,-3.769531 3.05469,-6.824219 6.82812,-6.824219 h 109.22656 c 3.77344,0 6.82813,3.054688 6.82813,6.824219 0,3.773437 -3.05469,6.828125 -6.82813,6.828125 H 116.05469 v 102.39844 c 0,3.77343 -3.05469,6.82812 -6.82813,6.82812 z m 0,0"
     inkscape:connector-curvature="0"
     style="fill:#ffffff" /><path
     id="path1257"
     d="m 109.22656,266.36719 c -3.77343,0 -6.82812,-3.05469 -6.82812,-6.82422 v -75.38672 c 0,-2.65234 1.53906,-5.07422 3.94922,-6.19141 l 54.61328,-25.39453 c 1.82422,-0.83984 3.92968,-0.83984 5.76172,0 l 47.30468,21.99219 c 3.41797,1.59375 4.90235,5.65234 3.3125,9.07422 -1.59375,3.41797 -5.63281,4.91015 -9.07031,3.3125 l -44.42969,-20.66016 -47.78515,22.22266 v 71.03515 c 0,3.76563 -3.05469,6.82032 -6.82813,6.82032 z m 0,0"
     inkscape:connector-curvature="0"
     style="fill:#ffffff" /><path
     id="path1259"
     d="m 109.22656,342.30078 c -3.77343,0 -6.82812,-3.05469 -6.82812,-6.82422 v -79.32812 c 0,-2.28125 1.13672,-4.40625 3.03515,-5.67188 l 51.19922,-34.26172 c 2.29688,-1.53125 5.29688,-1.53125 7.58985,0 l 51.19921,34.26172 c 1.89844,1.26563 3.03125,3.39063 3.03125,5.67188 v 78.78125 c 0,3.76953 -3.05468,6.82422 -6.82812,6.82422 -3.76953,0 -6.82422,-3.05469 -6.82422,-6.82422 v -75.13672 l -44.375,-29.69141 -44.37109,29.69141 v 75.68359 c 0,3.76953 -3.05469,6.82422 -6.82813,6.82422 z m 0,0"
     inkscape:connector-curvature="0"
     style="fill:#ffffff" /><path
     id="path1261"
     d="m 211.625,198.10156 c -3.76953,0 -6.82422,-3.05469 -6.82422,-6.82812 V 82.046875 c 0,-3.769531 3.05469,-6.824219 6.82422,-6.824219 h 54.61328 c 3.77344,0 6.82813,3.054688 6.82813,6.824219 0,3.773437 -3.05469,6.828125 -6.82813,6.828125 h -47.78515 v 102.39844 c 0,3.77343 -3.05469,6.82812 -6.82813,6.82812 z m 0,0"
     inkscape:connector-curvature="0"
     style="fill:#ffffff" /><path
     id="path1263"
     d="m 211.625,266.36719 c -3.76953,0 -6.82422,-3.05469 -6.82422,-6.82422 v -75.38672 c 0,-2.65234 1.53906,-5.07422 3.94531,-6.19141 l 51.19922,-23.80859 c 3.4336,-1.56641 7.48047,-0.10156 9.07422,3.3125 1.58594,3.42187 0.10547,7.48047 -3.3164,9.07422 l -47.25,21.96484 v 71.03516 c 0,3.76953 -3.05469,6.82422 -6.82813,6.82422 z m 0,0"
     inkscape:connector-curvature="0"
     style="fill:#ffffff" /><path
     id="path1265"
     d="m 211.625,342.30078 c -3.76953,0 -6.82422,-3.05469 -6.82422,-6.82422 v -79.32812 c 0,-2.28125 1.13281,-4.40625 3.03516,-5.67188 l 51.19922,-34.26172 c 2.29297,-1.53125 5.29297,-1.53125 7.58593,0 l 51.20313,34.26172 c 1.89844,1.26563 3.03125,3.39063 3.03125,5.67188 v 78.78125 c 0,3.76953 -3.05469,6.82422 -6.82422,6.82422 -3.77344,0 -6.82813,-3.05469 -6.82813,-6.82422 v -75.13672 l -44.37109,-29.69141 -44.3789,29.69141 v 75.68359 c 0,3.76953 -3.05469,6.82422 -6.82813,6.82422 z m 0,0"
     inkscape:connector-curvature="0"
     style="fill:#ffffff" /><path
     id="path1267"
     d="m 416.42578,266.36719 c -3.76953,0 -6.82422,-3.05469 -6.82422,-6.82422 V 88.875 h -44.62109 c -3.76953,0 -6.82813,-3.054688 -6.82813,-6.828125 0,-3.769531 3.0586,-6.824219 6.82813,-6.824219 h 51.44531 c 3.77344,0 6.82813,3.054688 6.82813,6.824219 V 259.54297 c 0,3.76953 -3.05469,6.82422 -6.82813,6.82422 z m 0,0"
     inkscape:connector-curvature="0"
     style="fill:#ffffff" /><path
     id="path1269"
     d="m 415.9375,187.58203 c -0.95703,0 -1.9375,-0.20703 -2.87109,-0.63672 l -44.42579,-20.65625 -0.78515,0.36719 c -3.40625,1.60547 -7.46875,0.10547 -9.06641,-3.32422 -1.58594,-3.41797 -0.0976,-7.46875 3.32031,-9.0625 l 3.66016,-1.70312 c 1.8125,-0.83985 3.92578,-0.83985 5.75391,0 l 47.30468,21.99218 c 3.42188,1.59375 4.90235,5.65235 3.31641,9.07422 -1.16406,2.48828 -3.63281,3.94922 -6.20703,3.94922 z m 0,0"
     inkscape:connector-curvature="0"
     style="fill:#ffffff" /><path
     id="path1271"
     d="m 314.02734,266.36719 c -3.77343,0 -6.82812,-3.05469 -6.82812,-6.82422 v -75.38672 c 0,-3.77344 3.05469,-6.82813 6.82812,-6.82813 3.76953,0 6.82422,3.05469 6.82422,6.82813 v 75.38672 c 0,3.76953 -3.05469,6.82422 -6.82422,6.82422 z m 0,0"
     inkscape:connector-curvature="0"
     style="fill:#ffffff" /><path
     id="path1273"
     d="m 416.42578,348.58203 c -3.76953,0 -6.82422,-3.05469 -6.82422,-6.82812 v -81.96094 l -44.375,-29.69141 -44.375,29.69141 v 75.68359 c 0,3.76953 -3.05469,6.82422 -6.82422,6.82422 -3.77343,0 -6.82812,-3.05469 -6.82812,-6.82422 v -79.32812 c 0,-2.28125 1.13281,-4.40625 3.03515,-5.67188 l 51.19922,-34.26172 c 2.29297,-1.53125 5.29688,-1.53125 7.58985,0 l 51.19922,34.26172 c 1.90234,1.26563 3.03515,3.39063 3.03515,5.67188 v 85.60547 c -0.004,3.77343 -3.05859,6.82812 -6.83203,6.82812 z m 0,0"
     inkscape:connector-curvature="0"
     style="fill:#ffffff" /><path
     id="path1275"
     d="m 416.42578,384.08594 c -1.30078,0 -2.60156,-0.3711 -3.72656,-1.10547 l -48.87891,-31.85156 -48.04687,30.79687 c -2.30078,1.46094 -5.23828,1.42969 -7.48438,-0.0703 l -45.72265,-30.64063 -46,30.64844 c -2.28907,1.52344 -5.26172,1.52344 -7.5625,0.0117 l -46.53907,-30.84766 -53.64062,31.0625 c -2.35938,1.36719 -5.31641,1.19532 -7.50781,-0.4414 L 60.707031,351.28516 10.472656,383.03906 C 8.359375,384.35937 5.699219,384.44531 3.53125,383.24609 1.351562,382.04687 0,379.75781 0,377.26562 v -34.95703 c 0,-2.34375 1.203125,-4.51953 3.179688,-5.77343 L 57.4375,302.27734 c 2.355469,-1.49609 5.378906,-1.40625 7.652344,0.2461 l 42.191406,30.5664 52.84375,-30.93359 c 2.24609,-1.3125 5.05859,-1.23828 7.22656,0.21094 l 46.11328,30.66406 46.17969,-30.66406 c 2.29297,-1.51953 5.26953,-1.51563 7.54688,-0.008 l 46.33984,30.69141 46.60547,-30.69922 c 2.27344,-1.5039 5.20703,-1.5 7.48047,-0.0195 l 52.53515,34.25781 c 1.92969,1.26172 3.09766,3.41407 3.09766,5.72266 v 34.95703 c 0,2.50781 -1.37109,4.8086 -3.57422,6.00391 -1.01562,0.53906 -2.12891,0.8125 -3.25,0.8125 z M 262.58203,336.17578 c 1.32813,0 2.65234,0.38281 3.79688,1.15235 l 45.79296,30.6914 47.9961,-30.76562 c 2.27344,-1.44922 5.16797,-1.44922 7.41406,0.0273 l 42.01953,27.38281 V 346 l -45.6875,-29.79687 -46.63281,30.71875 c -2.28906,1.51171 -5.24609,1.49609 -7.51953,-0.004 L 263.43359,316.23828 217.25,346.91016 c -2.30078,1.52343 -5.27344,1.51172 -7.5625,0 l -46.34766,-30.82032 -53.0039,31.02735 c -2.33594,1.36719 -5.25391,1.23437 -7.45313,-0.36328 L 60.820312,316.28516 13.652344,346.0625 v 18.80859 l 43.734375,-27.64062 c 2.378906,-1.5 5.460937,-1.40235 7.734375,0.30469 l 40.765626,30.48046 53.39844,-30.91796 c 2.23437,-1.30078 5.03125,-1.21875 7.1914,0.21093 l 46.28906,30.67969 46.02735,-30.66797 c 1.14453,-0.76562 2.46875,-1.14453 3.78906,-1.14453 z m 0,0"
     inkscape:connector-curvature="0"
     style="fill:#ffffff" /><path
     id="path1277"
     d="m 361.8125,47.914062 h -95.57422 c -3.76953,0 -6.82422,-3.054687 -6.82422,-6.824218 V 6.953125 c 0,-3.769531 3.05469,-6.824219 6.82422,-6.824219 h 95.57422 c 3.77344,0 6.82812,3.054688 6.82812,6.824219 v 34.136719 c 0,3.769531 -3.05468,6.824218 -6.82812,6.824218 z M 273.06641,34.261719 h 81.92187 V 13.78125 h -81.92187 z m 0,0"
     inkscape:connector-curvature="0"
     style="fill:#ffffff" /><path
     id="path1279"
     d="m 313.75391,187.58203 c -0.76954,0 -1.53907,-0.125 -2.27344,-0.38672 l -47.51563,-16.78515 c -2.72656,-0.96875 -4.55078,-3.54688 -4.55078,-6.44141 V 41.089844 c 0,-3.773438 3.05469,-6.828125 6.82422,-6.828125 h 95.57422 c 3.77344,0 6.82812,3.054687 6.82812,6.828125 V 163.96875 c 0,2.90234 -1.83203,5.48437 -4.57421,6.44922 l -48.0586,16.78515 c -0.73437,0.25391 -1.49219,0.37891 -2.2539,0.37891 z m -40.6875,-28.44141 40.69921,14.38282 41.22266,-14.40235 V 47.914062 h -81.92187 z m 0,0"
     inkscape:connector-curvature="0"
     style="fill:#ffffff" /><path
     id="path1281"
     d="m 361.8125,82.046875 h -40.96094 c -3.76953,0 -6.82422,-3.054687 -6.82422,-6.824219 0,-3.773437 3.05469,-6.828125 6.82422,-6.828125 h 40.96094 c 3.77344,0 6.82812,3.054688 6.82812,6.828125 0,3.769532 -3.05468,6.824219 -6.82812,6.824219 z m 0,0"
     inkscape:connector-curvature="0"
     style="fill:#ffffff" /><path
     id="path1283"
     d="m 307.19922,116.18359 h -40.96094 c -3.76953,0 -6.82422,-3.05859 -6.82422,-6.82812 0,-3.77344 3.05469,-6.82813 6.82422,-6.82813 h 40.96094 c 3.77344,0 6.82812,3.05469 6.82812,6.82813 0,3.76953 -3.05468,6.82812 -6.82812,6.82812 z m 0,0"
     inkscape:connector-curvature="0"
     style="fill:#ffffff" /></g><text
   xml:space="preserve"
   style="font-style:normal;font-variant:normal;font-weight:normal;font-stretch:normal;font-size:69.25964355px;line-height:1.25;font-family:Lato;-inkscape-font-specification:'Lato, Normal';font-variant-ligatures:normal;font-variant-caps:normal;font-variant-numeric:normal;font-feature-settings:normal;text-align:end;letter-spacing:0px;word-spacing:0px;writing-mode:lr-tb;text-anchor:end;fill:#ffffff;fill-opacity:1;stroke:none;stroke-width:1.73149109"
   x="-271.41092"
   y="-406.95041"
   id="text1425"
   transform="scale(1.0069981,-0.99305054)"><tspan
     sodipodi:role="line"
     x="-271.41092"
     y="-406.95041"
     style="font-style:normal;font-variant:normal;font-weight:normal;font-stretch:normal;font-size:69.25964355px;font-family:Lato;-inkscape-font-specification:'Lato, Normal';font-variant-ligatures:normal;font-variant-caps:normal;font-variant-numeric:normal;font-feature-settings:normal;text-align:end;writing-mode:lr-tb;text-anchor:end;fill:#ffffff;stroke-width:1.73149109"
     id="tspan1427">MALOWANIE</tspan><tspan
     sodipodi:role="line"
     x="-271.41092"
     y="-320.37585"
     style="font-style:normal;font-variant:normal;font-weight:normal;font-stretch:normal;font-size:69.25964355px;font-family:Lato;-inkscape-font-specification:'Lato, Normal';font-variant-ligatures:normal;font-variant-caps:normal;font-variant-numeric:normal;font-feature-settings:normal;text-align:end;writing-mode:lr-tb;text-anchor:end;fill:#ffffff;stroke-width:1.73149109"
     id="tspan1431" /></text>

<text
   xml:space="preserve"
   style="font-style:normal;font-weight:normal;font-size:65.55648804px;line-height:1.25;font-family:sans-serif;letter-spacing:0px;word-spacing:0px;fill:#ffffff;fill-opacity:1;stroke:none;stroke-width:1.6389122"
   x="-660.74042"
   y="-315.97253"
   id="text1435"
   transform="scale(1,-1)"><tspan
     sodipodi:role="line"
     id="tspan1433"
     x="-660.74042"
     y="-315.97253"
     style="fill:#ffffff;stroke-width:1.6389122">I GŁADZIE</tspan></text>

<text
   id="text5150"
   y="-402.49771"
   x="-135.0479"
   transform="scale(1,-1)"
   style="font-style:normal;font-variant:normal;font-weight:400;font-size:73.15251923px;line-height:125%;font-family:Calibri;text-align:start;letter-spacing:0px;word-spacing:0px;text-anchor:start;fill:#ffffff;fill-opacity:1;stroke:none;stroke-width:4.95949221"
   xml:space="preserve"><tspan
     id="tspan5148"
     y="-402.49771"
     x="-135.0479"
     sodipodi:role="line"
     style="fill:#ffffff;stroke-width:4.95949221"><tspan
       id="tspan5144"
       style="font-style:normal;font-variant:normal;font-weight:400;font-size:73.15251923px;font-family:Calibri;fill:#ffffff;stroke-width:4.95949221"
       dy="0 0 0 0 0 0 0"
       dx="0 0 0 0 0 0 0">SUCHA  </tspan></tspan></text>

<text
   xml:space="preserve"
   style="font-style:normal;font-weight:normal;font-size:62.7678299px;line-height:1.25;font-family:sans-serif;letter-spacing:0px;word-spacing:0px;fill:#f9f9f9;fill-opacity:1;stroke:none;stroke-width:1.56919575"
   x="-211.4171"
   y="-303.74808"
   id="text5165"
   transform="scale(1,-1)"><tspan
     sodipodi:role="line"
     id="tspan5163"
     x="-211.4171"
     y="-303.74808"
     style="fill:#f9f9f9;stroke-width:1.56919575">ZABUDOWA</tspan><tspan
     sodipodi:role="line"
     x="-211.4171"
     y="-225.28828"
     style="fill:#f9f9f9;stroke-width:1.56919575"
     id="tspan5169" /></text>

<text
   xml:space="preserve"
   style="font-style:normal;font-weight:normal;font-size:64.7104187px;line-height:1.25;font-family:sans-serif;letter-spacing:0px;word-spacing:0px;fill:#ffffff;fill-opacity:1;stroke:none;stroke-width:1.61776042"
   x="278.48056"
   y="-398.95853"
   id="text5173"
   transform="scale(1,-1)"><tspan
     sodipodi:role="line"
     id="tspan5171"
     x="278.48056"
     y="-398.95853"
     style="fill:#ffffff;stroke-width:1.61776042">PARKIETY</tspan></text>

<text
   xml:space="preserve"
   style="font-style:normal;font-weight:normal;font-size:64.2971344px;line-height:1.25;font-family:sans-serif;letter-spacing:0px;word-spacing:0px;fill:#ffffff;fill-opacity:1;stroke:none;stroke-width:1.60742819"
   x="292.89514"
   y="-290.94421"
   id="text5177"
   transform="scale(1,-1)"><tspan
     sodipodi:role="line"
     id="tspan5175"
     x="292.89514"
     y="-290.94421"
     style="fill:#ffffff;stroke-width:1.60742819">I PANELE</tspan></text>

<text
   xml:space="preserve"
   style="font-style:normal;font-weight:normal;font-size:61.34245682px;line-height:1.25;font-family:sans-serif;letter-spacing:0px;word-spacing:0px;fill:#ffffff;fill-opacity:1;stroke:none;stroke-width:1.53356147"
   x="824.34119"
   y="-390.59045"
   id="text5181"
   transform="scale(1,-1)"><tspan
     sodipodi:role="line"
     id="tspan5179"
     x="824.34119"
     y="-390.59045"
     style="fill:#ffffff;stroke-width:1.53356147">TYNKI</tspan></text>

<text
   xml:space="preserve"
   style="font-style:normal;font-weight:normal;font-size:54.90969467px;line-height:1.25;font-family:sans-serif;letter-spacing:0px;word-spacing:0px;fill:#ffffff;fill-opacity:1;stroke:none;stroke-width:1.3727423"
   x="712.78522"
   y="-298.56018"
   id="text5185"
   transform="scale(1,-1)"><tspan
     sodipodi:role="line"
     id="tspan5183"
     x="712.78522"
     y="-298.56018"
     style="fill:#ffffff;stroke-width:1.3727423">DEKORACYJNE</tspan></text>

<text
   xml:space="preserve"
   style="font-style:normal;font-weight:normal;font-size:52.14871216px;line-height:1.25;font-family:sans-serif;letter-spacing:0px;word-spacing:0px;fill:#ffffff;fill-opacity:1;stroke:none;stroke-width:1.30371785"
   x="1155.5748"
   y="-378.21387"
   id="text5189"
   transform="scale(1,-1)"><tspan
     sodipodi:role="line"
     id="tspan5187"
     x="1155.5748"
     y="-378.21387"
     style="fill:#ffffff;stroke-width:1.30371785">TERMOIZOLACJA</tspan></text>

<text
   xml:space="preserve"
   style="font-style:normal;font-weight:normal;font-size:52.85939789px;line-height:1.25;font-family:sans-serif;letter-spacing:0px;word-spacing:0px;fill:#ffffff;fill-opacity:1;stroke:none;stroke-width:1.32148492"
   x="1227.3445"
   y="-296.76865"
   id="text5193"
   transform="scale(1,-1)"><tspan
     sodipodi:role="line"
     id="tspan5191"
     x="1227.3445"
     y="-296.76865"
     style="fill:#ffffff;stroke-width:1.32148492">PODDASZY</tspan></text>

</g></svg>