<?xml version="1.0" encoding="UTF-8" standalone="no"?>
<!-- Created with Inkscape (http://www.inkscape.org/) -->

<svg
   xmlns:dc="http://purl.org/dc/elements/1.1/"
   xmlns:cc="http://creativecommons.org/ns#"
   xmlns:rdf="http://www.w3.org/1999/02/22-rdf-syntax-ns#"
   xmlns:svg="http://www.w3.org/2000/svg"
   xmlns="http://www.w3.org/2000/svg"
   xmlns:sodipodi="http://sodipodi.sourceforge.net/DTD/sodipodi-0.dtd"
   xmlns:inkscape="http://www.inkscape.org/namespaces/inkscape"
   width="544.18921mm"
   height="67.537529mm"
   viewBox="0 0 544.18921 67.537529"
   version="1.1"
   id="svg8"
   inkscape:version="0.92.4 (5da689c313, 2019-01-14)"
   sodipodi:docname="mailTo.svg">
  <defs
     id="defs2" />
  <sodipodi:namedview
     id="base"
     pagecolor="#ffffff"
     bordercolor="#666666"
     borderopacity="1.0"
     inkscape:pageopacity="0.0"
     inkscape:pageshadow="2"
     inkscape:zoom="0.35"
     inkscape:cx="398.55748"
     inkscape:cy="53.207685"
     inkscape:document-units="mm"
     inkscape:current-layer="layer1"
     showgrid="false"
     inkscape:window-width="1920"
     inkscape:window-height="1001"
     inkscape:window-x="-9"
     inkscape:window-y="-9"
     inkscape:window-maximized="1"
     fit-margin-top="0"
     fit-margin-left="0"
     fit-margin-right="0"
     fit-margin-bottom="0"
     showborder="false" />
  <metadata
     id="metadata5">
    <rdf:RDF>
      <cc:Work
         rdf:about="">
        <dc:format>image/svg+xml</dc:format>
        <dc:type
           rdf:resource="http://purl.org/dc/dcmitype/StillImage" />
        <dc:title></dc:title>
      </cc:Work>
    </rdf:RDF>
  </metadata>
  <g
     inkscape:label="Layer 1"
     inkscape:groupmode="layer"
     id="layer1"
     transform="translate(125.86238,-95.37367)">
    <g
       aria-label="remontymarcina@gmail.com"
       style="font-style:normal;font-variant:normal;font-weight:normal;font-stretch:normal;font-size:48.56631088px;line-height:1.25;font-family:Pacifico;-inkscape-font-specification:'Pacifico, Normal';font-variant-ligatures:normal;font-variant-caps:normal;font-variant-numeric:normal;font-feature-settings:normal;text-align:start;letter-spacing:0px;word-spacing:0px;writing-mode:lr-tb;text-anchor:start;fill:#000000;fill-opacity:1;stroke:none;stroke-width:1.21416342"
       id="text817">
      <path
         d="m -125.86237,135.94836 q 0,-1.04342 0.11857,-2.41883 0.11857,-1.39913 0.30828,-2.94054 0.21343,-1.54141 0.47428,-3.13025 0.28457,-1.61256 0.59285,-3.05911 0.30828,-1.44656 0.61657,-2.65597 0.30828,-1.20942 0.61656,-1.99198 0.18971,-0.52171 0.37942,-0.82999 0.18972,-0.30828 0.42686,-0.47428 0.26085,-0.18971 0.61656,-0.23714 0.37943,-0.0711 0.92485,-0.0711 0.61656,0 0.94856,0.0711 0.35571,0.0474 0.52171,0.28457 0.166,0.21343 0.18971,0.64028 0.0474,0.42685 0.0474,1.16198 0,0.87742 0,2.13427 0,1.23312 0.0474,2.44254 h 0.26085 q 0.47428,-0.94856 1.06713,-2.11055 0.59285,-1.1857 1.37541,-2.2054 0.78257,-1.0197 1.77856,-1.70741 0.99598,-0.71142 2.30026,-0.71142 0.45056,0 0.87741,0.166 0.42686,0.14228 0.73514,0.42685 0.33199,0.28457 0.52171,0.71142 0.18971,0.40314 0.18971,0.92485 0,0.40313 -0.11857,1.13827 -0.11857,0.71142 -0.26086,1.5177 -0.14228,0.78256 -0.26085,1.54141 -0.11857,0.73513 -0.11857,1.23313 0,0.8537 0.166,1.42284 0.166,0.56913 0.42685,0.92484 0.28457,0.332 0.61657,0.47428 0.35571,0.14229 0.73513,0.14229 1.06713,0 2.2054,-0.47428 1.13828,-0.47428 2.08684,-1.06713 1.11456,-0.68771 2.18169,-1.56513 l -0.35571,5.54908 q -0.61657,0.40314 -1.39913,0.90114 -0.78256,0.49799 -1.6837,0.94856 -0.87741,0.42685 -1.84969,0.73513 -0.94856,0.28457 -1.94455,0.28457 -1.77855,0 -2.86939,-0.71142 -1.09085,-0.73514 -1.73113,-1.89712 -0.64028,-1.1857 -0.94856,-2.63226 -0.30828,-1.47027 -0.49799,-2.96425 h -0.37943 l -4.24481,11.83329 q -0.33199,0.92485 -0.64028,1.54142 -0.28456,0.59285 -0.59285,0.97227 -0.30828,0.37942 -0.66399,0.54542 -0.35571,0.14229 -0.78256,0.14229 -0.97228,0 -1.56513,-0.40314 -0.59285,-0.42685 -0.92484,-1.11456 -0.30829,-0.71142 -0.42686,-1.58884 -0.0948,-0.90113 -0.0948,-1.84969 z"
         style="font-style:normal;font-variant:normal;font-weight:normal;font-stretch:normal;font-size:48.56631088px;font-family:Pacifico;-inkscape-font-specification:'Pacifico, Normal';font-variant-ligatures:normal;font-variant-caps:normal;font-variant-numeric:normal;font-feature-settings:normal;text-align:start;writing-mode:lr-tb;text-anchor:start;stroke-width:1.21416342"
         id="path819"
         inkscape:connector-curvature="0" />
      <path
         d="m -97.358121,140.90459 q -2.229117,0 -3.912809,-0.80628 -1.65999,-0.80628 -2.77454,-2.15798 -1.11456,-1.37541 -1.6837,-3.15396 -0.54542,-1.80227 -0.54542,-3.77053 0,-1.32798 0.26085,-2.79825 0.26086,-1.49399 0.78257,-2.91683 0.54542,-1.42284 1.35169,-2.7034 0.80628,-1.30427 1.87341,-2.27654 1.09085,-0.99599 2.418832,-1.56513 1.351699,-0.59285 2.987966,-0.59285 1.327985,0 2.466258,0.42685 1.138273,0.42686 1.968263,1.20942 0.853705,0.75885 1.327986,1.84969 0.47428,1.09085 0.47428,2.44255 0,1.47027 -0.735135,2.94054 -0.71142,1.47026 -1.991977,2.77454 -1.280557,1.30427 -3.059109,2.32397 -1.754837,1.0197 -3.817957,1.58884 0.355711,0.64028 0.687707,1.06713 0.35571,0.42685 0.71142,0.66399 0.355711,0.23714 0.735135,0.332 0.403138,0.0948 0.853705,0.0948 1.422841,0 2.987966,-0.56913 1.588839,-0.56914 3.082822,-1.42284 1.493984,-0.85371 2.821969,-1.8497 1.327985,-1.0197 2.252832,-1.92083 l 3.059108,3.17768 q -2.086834,2.15797 -4.434522,3.81795 -1.019702,0.71142 -2.205403,1.39913 -1.161987,0.68771 -2.466258,1.23313 -1.280557,0.52171 -2.679684,0.8537 -1.375414,0.30829 -2.798255,0.30829 z M -100.51209,129.759 q 0.853709,0 1.849698,-0.42685 1.019703,-0.45057 1.873408,-1.13828 0.877418,-0.6877 1.470269,-1.49398 0.59285,-0.80628 0.59285,-1.56513 0,-1.06713 -0.403138,-1.75483 -0.379424,-0.68771 -0.948561,-0.68771 -1.019702,0 -1.754837,0.37942 -0.711421,0.37943 -1.209415,0.99599 -0.47428,0.59285 -0.782563,1.37542 -0.284571,0.75885 -0.450571,1.54141 -0.14228,0.78256 -0.18971,1.51769 -0.0474,0.73514 -0.0474,1.25685 z"
         style="font-style:normal;font-variant:normal;font-weight:normal;font-stretch:normal;font-size:48.56631088px;font-family:Pacifico;-inkscape-font-specification:'Pacifico, Normal';font-variant-ligatures:normal;font-variant-caps:normal;font-variant-numeric:normal;font-feature-settings:normal;text-align:start;writing-mode:lr-tb;text-anchor:start;stroke-width:1.21416342"
         id="path821"
         inkscape:connector-curvature="0" />
      <path
         d="m -76.82178,136.47007 q 0,-0.30829 0.04743,-0.87742 0.04743,-0.56914 0.142284,-1.30427 0.09486,-0.73514 0.213427,-1.54142 0.11857,-0.82999 0.23714,-1.63626 0.260854,-1.89712 0.640278,-4.07881 h -0.35571 q -0.284568,0.35571 -0.663993,1.06713 -0.35571,0.71142 -1.019702,2.08683 -0.663993,1.37541 -1.70741,3.58082 -1.019703,2.18169 -2.65597,5.47794 -0.47428,0.97227 -1.114559,1.32798 -0.616564,0.332 -1.375413,0.332 -0.972275,0 -1.565125,-0.40314 -0.592851,-0.42685 -0.924847,-1.11456 -0.308282,-0.71142 -0.426852,-1.58884 -0.09486,-0.90113 -0.09486,-1.84969 0,-0.97228 0.11857,-2.30026 0.11857,-1.32799 0.308282,-2.79826 0.189712,-1.47027 0.426852,-2.98796 0.260855,-1.54141 0.521709,-2.94054 0.284568,-1.39913 0.569136,-2.56112 0.284568,-1.16198 0.521709,-1.89712 0.23714,-0.75885 0.450566,-1.20941 0.213426,-0.45057 0.47428,-0.68771 0.284569,-0.26085 0.663993,-0.332 0.379424,-0.0949 0.972275,-0.0949 0.901132,0 1.399127,0.0711 0.521708,0.0474 0.758848,0.28457 0.260855,0.21343 0.308283,0.64028 0.04743,0.42685 0.04743,1.16198 0,0.40314 -0.04743,0.92485 -0.02371,0.52171 -0.09486,1.11456 -0.07114,0.59285 -0.165999,1.23313 -0.07114,0.61656 -0.165998,1.20941 -0.213426,1.39913 -0.450566,2.89311 l 0.260854,0.28457 q 0.04743,-0.0711 0.497995,-0.90113 0.47428,-0.82999 1.138273,-1.99198 0.687706,-1.16198 1.470269,-2.41883 0.782562,-1.28055 1.493983,-2.25283 0.687706,-0.97227 1.446555,-1.61255 0.782563,-0.64028 1.849694,-0.64028 0.995988,0 1.707409,0.59285 0.71142,0.56914 0.71142,1.63627 0,0.92484 -0.11857,1.75483 -0.11857,0.82999 -0.308282,1.61256 -0.165998,0.78256 -0.35571,1.54141 -0.189712,0.73513 -0.35571,1.5177 -0.118571,0.54542 -0.142285,0.6877 -0.02371,0.14229 -0.02371,0.18971 l 0.260855,0.28457 q 0.04743,-0.0711 0.545422,-0.87742 0.497994,-0.82999 1.209415,-1.99197 0.735135,-1.16199 1.541411,-2.44255 0.829991,-1.28055 1.541412,-2.25283 0.687706,-0.94856 1.375413,-1.58884 0.687706,-0.66399 1.683695,-0.66399 1.114559,0 1.873407,0.59285 0.782563,0.56914 0.782563,1.63627 0,1.63626 -0.165998,3.10653 -0.165998,1.47027 -0.379424,2.89311 -0.213427,1.42284 -0.379425,2.89311 -0.165998,1.44656 -0.165998,3.08283 0,1.28055 0.331996,2.08683 0.331997,0.80628 0.806277,0.80628 0.497995,0 1.043417,-0.21343 0.545422,-0.21343 1.114559,-0.54542 0.569136,-0.332 1.114559,-0.75885 0.545422,-0.45057 1.043417,-0.92485 1.161987,-1.09084 2.300259,-2.46626 l 0.403139,5.59651 q -1.043417,0.82999 -2.086834,1.73113 -1.019703,0.87741 -2.18169,1.61255 -1.138273,0.71142 -2.513686,1.1857 -1.375413,0.45057 -3.106536,0.45057 -0.853705,0 -1.446555,-0.54543 -0.569137,-0.56913 -0.924847,-1.56512 -0.35571,-0.99599 -0.521708,-2.34769 -0.142285,-1.3517 -0.142285,-2.94054 0,-1.49398 0.09486,-3.15396 0.118571,-1.6837 0.308283,-3.39111 h -0.355711 l -4.813945,12.26015 q -0.616565,0.99599 -1.375414,1.3517 -0.758848,0.332 -1.754837,0.332 -0.758849,0 -1.209415,-0.40314 -0.450566,-0.42685 -0.71142,-1.06713 -0.237141,-0.66399 -0.331997,-1.44656 -0.07114,-0.78256 -0.07114,-1.51769 z"
         style="font-style:normal;font-variant:normal;font-weight:normal;font-stretch:normal;font-size:48.56631088px;font-family:Pacifico;-inkscape-font-specification:'Pacifico, Normal';font-variant-ligatures:normal;font-variant-caps:normal;font-variant-numeric:normal;font-feature-settings:normal;text-align:start;writing-mode:lr-tb;text-anchor:start;stroke-width:1.21416342"
         id="path823"
         inkscape:connector-curvature="0" />
      <path
         d="m -41.013611,123.14279 q 0.687706,1.37541 1.019703,2.91682 0.35571,1.5177 0.35571,2.91683 0,1.39912 -0.308282,2.82196 -0.308282,1.42284 -0.901133,2.75083 -0.569136,1.32798 -1.422841,2.48997 -0.829991,1.16199 -1.920836,2.01569 -1.06713,0.85371 -2.347687,1.3517 -1.280558,0.498 -2.727113,0.498 -2.086833,0 -3.580817,-0.90114 -1.470269,-0.92484 -2.418829,-2.39511 -0.948561,-1.47027 -1.399128,-3.31996 -0.426852,-1.8497 -0.426852,-3.74682 0,-2.60854 0.782563,-4.86137 0.782562,-2.27655 2.229117,-3.93653 1.47027,-1.6837 3.580817,-2.63226 2.110548,-0.97227 4.742804,-0.97227 2.252832,0 4.221096,0.71142 1.968263,0.68771 3.675672,1.87341 1.731124,1.16198 3.201393,2.67968 1.493983,1.5177 2.77454,3.13025 l -0.450566,3.34368 q -0.640279,-0.85371 -1.731123,-1.8497 -1.090845,-0.99598 -2.323974,-1.94455 -1.209415,-0.94856 -2.395116,-1.77855 -1.185701,-0.8537 -2.039406,-1.42284 z m -7.327632,13.20871 q 0.806277,0 1.565125,-0.80628 0.758849,-0.82999 1.327985,-2.06312 0.569137,-1.25684 0.901133,-2.75083 0.35571,-1.51769 0.35571,-2.89311 0,-1.09084 -0.165998,-2.01569 -0.165998,-0.94856 -0.497994,-1.63627 -0.331996,-0.6877 -0.853705,-1.09084 -0.521708,-0.40314 -1.256843,-0.40314 -0.972275,0 -1.849693,0.82999 -0.877419,0.82999 -1.541412,2.13426 -0.663992,1.28056 -1.043416,2.84568 -0.379425,1.56513 -0.379425,3.01169 0,0.99598 0.189712,1.8734 0.189713,0.87742 0.592851,1.54141 0.403138,0.64028 1.067131,1.04342 0.663992,0.37943 1.588839,0.37943 z"
         style="font-style:normal;font-variant:normal;font-weight:normal;font-stretch:normal;font-size:48.56631088px;font-family:Pacifico;-inkscape-font-specification:'Pacifico, Normal';font-variant-ligatures:normal;font-variant-caps:normal;font-variant-numeric:normal;font-feature-settings:normal;text-align:start;writing-mode:lr-tb;text-anchor:start;stroke-width:1.21416342"
         id="path825"
         inkscape:connector-curvature="0" />
      <path
         d="m -34.895392,135.94836 q 0,-1.56513 0.189712,-3.60453 0.189713,-2.06312 0.474281,-4.17367 0.284568,-2.13426 0.640278,-4.10253 0.355711,-1.96826 0.687707,-3.36739 0.260854,-1.09084 0.995989,-1.82598 0.758848,-0.73513 2.039405,-0.73513 1.280557,0 1.778552,0.78256 0.497994,0.78256 0.497994,2.08683 0,0.35572 -0.07114,0.97228 -0.07114,0.59285 -0.189712,1.32798 -0.09486,0.71143 -0.213426,1.49399 -0.11857,0.75885 -0.23714,1.42284 -0.09486,0.64028 -0.165999,1.13827 -0.07114,0.47428 -0.07114,0.64028 h 0.474281 q 0.142284,-0.26085 0.450566,-0.82999 0.308282,-0.59285 0.711421,-1.3517 0.403138,-0.75885 0.853704,-1.58884 0.474281,-0.8537 0.877419,-1.61255 0.403138,-0.78256 0.735135,-1.37541 0.331996,-0.59286 0.497994,-0.87742 0.758849,-1.28056 1.731123,-1.75484 0.972275,-0.47428 2.157976,-0.47428 1.185701,0 1.873408,0.99599 0.71142,0.99599 0.71142,2.75082 0,0.26086 -0.11857,0.87742 -0.09486,0.61657 -0.260854,1.47027 -0.165998,0.85371 -0.379424,1.87341 -0.189713,1.0197 -0.355711,2.08683 -0.165998,1.06713 -0.284568,2.11055 -0.09486,1.04342 -0.09486,1.92084 0,1.47027 0.35571,2.41883 0.379425,0.94856 1.161987,0.94856 0.355711,0 0.806277,-0.21343 0.47428,-0.21343 0.995989,-0.54542 0.545422,-0.35571 1.090845,-0.80628 0.569136,-0.45057 1.114558,-0.92485 1.256843,-1.11455 2.632257,-2.51368 l 0.403138,5.31194 -1.185701,0.90113 q -0.972275,0.73514 -1.991978,1.47027 -0.995988,0.73514 -2.086833,1.32799 -1.090845,0.56913 -2.276546,0.94856 -1.185701,0.35571 -2.489972,0.35571 -1.304271,0 -2.205404,-1.87341 -0.877419,-1.89712 -0.877419,-5.52537 0,-1.42284 0.189713,-3.05911 0.189712,-1.65998 0.47428,-3.5571 h -0.379424 l -6.213073,12.33129 q -0.474281,0.97228 -1.067131,1.32799 -0.592851,0.35571 -1.375413,0.35571 -0.972275,0 -1.565126,-0.40314 -0.59285,-0.42685 -0.924846,-1.11456 -0.308283,-0.71142 -0.426853,-1.58884 -0.09486,-0.90113 -0.09486,-1.84969 z"
         style="font-style:normal;font-variant:normal;font-weight:normal;font-stretch:normal;font-size:48.56631088px;font-family:Pacifico;-inkscape-font-specification:'Pacifico, Normal';font-variant-ligatures:normal;font-variant-caps:normal;font-variant-numeric:normal;font-feature-settings:normal;text-align:start;writing-mode:lr-tb;text-anchor:start;stroke-width:1.21416342"
         id="path827"
         inkscape:connector-curvature="0" />
      <path
         d="m 6.8412791,135.59265 q -2.2765458,1.32798 -4.0550972,2.32397 -1.7785514,0.99599 -3.17767854,1.65998 -1.37541306,0.66399 -2.46625796,0.99599 -1.0671309,0.332 -1.9445496,0.332 -1.8022654,0 -3.1776785,-1.09085 -1.3754131,-1.09084 -2.3002603,-3.13025 -0.924846,-2.06312 -1.399127,-4.97994 -0.450566,-2.91683 -0.450566,-6.56879 0,-1.42284 0.11857,-3.03539 0.11857,-1.61255 0.331996,-3.20139 -0.71142,-0.0949 -1.114559,-0.166 -0.379424,-0.0949 -0.82999,-0.166 -0.426853,-0.0949 -1.114559,-0.18971 -0.663993,-0.0949 -1.94455,-0.23714 -0.569136,-0.0711 -0.877418,-0.26086 -0.308283,-0.21342 -0.450567,-0.47428 -0.142284,-0.28456 -0.165998,-0.56913 -0.02371,-0.30828 -0.02371,-0.52171 0,-0.47428 0.47428,-0.71142 0.450567,-0.26086 1.185701,-0.37943 0.711421,-0.11857 1.565126,-0.11857 0.877418,-0.0237 1.659981,0 0.806277,0.0237 1.422841,0.0474 0.640279,0 0.877419,-0.0474 0.640278,-3.20139 1.6125531,-6.18935 0.9959888,-3.01169 2.2054038,-5.33566 1.233129,-2.34769 2.6796842,-3.746814 1.4465551,-1.422841 3.0353944,-1.422841 1.0197028,0 1.84969347,0.569136 0.85370463,0.569137 1.44655513,1.517699 0.5928505,0.94856 0.9011327,2.22912 0.3319963,1.25684 0.3319963,2.63225 0,1.16199 -0.3319963,2.46626 -0.3319962,1.28056 -0.9011327,2.63226 -0.5691364,1.32798 -1.35169906,2.70339 -0.75884861,1.37542 -1.61255324,2.72712 0.21342612,0.0237 0.71142052,0.0474 0.4979944,0 1.13827291,0.0237 0.66399257,0.0237 1.42284117,0.0711 0.7588486,0.0237 1.4702691,0.0474 0.7114206,0.0237 1.3279851,0.0474 0.6165645,0.0237 1.0197028,0.0474 0.4742804,0.0237 0.6877066,0.47429 0.2134261,0.45056 0.2134261,1.13827 0,0.82999 -0.4742803,1.3517 -0.4742804,0.52171 -1.0434169,0.52171 h -9.1061833 q -0.6877065,0.94856 -1.3991271,1.8734 -0.6877065,0.90114 -1.280557,1.63627 -0.094856,1.47027 -0.1659981,2.89311 -0.023714,0.61657 -0.047428,1.28056 -0.023714,0.64028 -0.047428,1.28055 -0.023714,0.64028 -0.047428,1.23313 0,0.59285 0,1.09085 0,1.28056 0.2371401,2.15797 0.2371402,0.87742 0.6877066,1.44656 0.4505664,0.54542 1.0908449,0.80628 0.6639925,0.23714 1.4702691,0.23714 0.4979944,0 1.233129,-0.23714 0.7588486,-0.23714 1.63626734,-0.64028 0.90113272,-0.42685 1.87340746,-0.99599 0.9959888,-0.56914 1.9445496,-1.23313 0.9722748,-0.68771 1.8496935,-1.42284 0.8774187,-0.75885 1.5888392,-1.54141 z M -0.74720693,105.5707 q 0,-0.26086 -0.047428,-0.56914 -0.023714,-0.33199 -0.14228412,-0.61656 -0.11857015,-0.28457 -0.37942435,-0.47428 -0.2371402,-0.18971 -0.6877065,-0.18971 -0.6165645,0 -1.256843,1.09084 -0.6165645,1.09084 -1.209415,2.79825 -0.5691365,1.6837 -1.0908449,3.72311 -0.4979944,2.0394 -0.9248467,3.96024 0.3557103,0.0474 0.7114205,0.0948 0.3557103,0.0237 0.7351346,0.0711 0.7114206,-1.20941 1.4702692,-2.60854 0.7825626,-1.42284 1.3991271,-2.77454 0.6165645,-1.37541 1.0197029,-2.56111 0.4031383,-1.1857 0.4031383,-1.94455 z"
         style="font-style:normal;font-variant:normal;font-weight:normal;font-stretch:normal;font-size:48.56631088px;font-family:Pacifico;-inkscape-font-specification:'Pacifico, Normal';font-variant-ligatures:normal;font-variant-caps:normal;font-variant-numeric:normal;font-feature-settings:normal;text-align:start;writing-mode:lr-tb;text-anchor:start;stroke-width:1.21416342"
         id="path829"
         inkscape:connector-curvature="0" />
      <path
         d="m 18.224,122.69222 q 0.189712,-0.80628 0.663992,-1.42284 0.497995,-0.64028 1.114559,-1.06713 0.640279,-0.42685 1.327985,-0.64028 0.687707,-0.21343 1.304271,-0.21343 0.735135,0 1.233129,0.332 0.497995,0.30828 0.497995,0.99599 0,0.21342 -0.07114,0.49799 -0.142285,0.61657 -0.355711,1.6837 -0.213426,1.06713 -0.47428,2.41883 -0.23714,1.3517 -0.497994,2.86939 -0.260855,1.49399 -0.497995,2.98797 -0.59285,3.50968 -1.209415,7.54106 0.711421,-0.40314 1.541411,-0.99599 0.829991,-0.59285 1.849694,-1.58884 1.019703,-0.99599 2.276546,-2.48997 1.256843,-1.5177 2.821968,-3.77053 l 1.138273,5.26451 q -0.426852,0.73514 -1.114559,1.5177 -0.663993,0.75885 -1.493983,1.54141 -0.806277,0.75885 -1.70741,1.49398 -0.877418,0.71142 -1.731123,1.3517 -2.015692,1.5177 -4.339665,2.94054 -0.450567,2.5374 -1.067131,4.93252 -0.616565,2.41883 -1.470269,4.50566 -0.829991,2.11055 -1.920836,3.86539 -1.067131,1.75483 -2.442544,3.01168 -1.351699,1.25684 -3.035394,1.94455 -1.6836957,0.71142 -3.7231014,0.71142 -0.8062766,0 -1.7548374,-0.166 -0.9248467,-0.166 -1.7311234,-0.66399 -0.7825626,-0.498 -1.304271,-1.42285 -0.5217084,-0.92484 -0.5217084,-2.46625 0,-1.06713 0.5454224,-2.41883 0.5454224,-1.32799 1.4939832,-2.82197 0.9485608,-1.47027 2.2528318,-3.08282 1.3042711,-1.58884 2.8219683,-3.17768 1.5414109,-1.58884 3.2013929,-3.13025 1.683695,-1.54141 3.391104,-2.94054 l 0.640279,-2.20541 q -1.280557,1.13828 -2.679684,1.8497 -1.375413,0.6877 -2.679684,0.6877 -1.1382733,0 -2.2291182,-0.45056 -1.0671309,-0.47428 -1.8971215,-1.32799 -0.8299907,-0.87742 -1.3279851,-2.11054 -0.4979944,-1.25685 -0.4979944,-2.82197 0,-2.06312 0.1897122,-3.79425 0.2134261,-1.73112 0.5928504,-3.29624 0.3794243,-1.56513 0.9485608,-3.01168 0.5691364,-1.47027 1.304271,-2.96426 0.5454225,-1.06713 1.5651253,-1.61255 1.0197025,-0.56914 1.9919775,-0.56914 0.829991,0 1.422841,0.42686 0.592851,0.40313 0.592851,1.28055 0,0.26086 -0.07114,0.56914 -0.04743,0.30828 -0.189713,0.66399 -0.426852,1.09085 -0.853704,2.58483 -0.403139,1.47027 -0.735135,3.03539 -0.308282,1.54142 -0.497994,3.0354 -0.189712,1.49398 -0.189712,2.63225 0,0.59286 0.07114,1.16199 0.09486,0.54542 0.308282,0.99599 0.213426,0.42685 0.569136,0.71142 0.355711,0.26086 0.901133,0.26086 0.877419,0 1.588839,-0.75885 0.711421,-0.75885 1.233129,-1.82598 0.521709,-1.06713 0.829991,-2.20541 0.331996,-1.13827 0.426852,-1.89712 z M 7.1258389,158.3581 q 0.9959888,0 1.8734075,-0.59285 0.9011327,-0.56913 1.6362676,-1.51769 0.758848,-0.94856 1.375413,-2.15798 0.616564,-1.20941 1.090845,-2.48997 0.47428,-1.25684 0.806276,-2.46626 0.331997,-1.20941 0.521709,-2.15797 -0.924847,0.61656 -1.897122,1.47026 -0.948561,0.85371 -1.873407,1.82598 -0.901133,0.99599 -1.7311237,2.03941 -0.8062766,1.04342 -1.4228411,1.99198 -0.6165645,0.97227 -0.9722748,1.80226 -0.3557103,0.82999 -0.3557103,1.37542 0,0.87741 0.9485608,0.87741 z"
         style="font-style:normal;font-variant:normal;font-weight:normal;font-stretch:normal;font-size:48.56631088px;font-family:Pacifico;-inkscape-font-specification:'Pacifico, Normal';font-variant-ligatures:normal;font-variant-caps:normal;font-variant-numeric:normal;font-feature-settings:normal;text-align:start;writing-mode:lr-tb;text-anchor:start;stroke-width:1.21416342"
         id="path831"
         inkscape:connector-curvature="0" />
      <path
         d="m 37.954076,136.47007 q 0,-0.30829 0.04743,-0.87742 0.04743,-0.56914 0.142284,-1.30427 0.09486,-0.73514 0.213427,-1.54142 0.11857,-0.82999 0.23714,-1.63626 0.260854,-1.89712 0.640278,-4.07881 h -0.35571 q -0.284568,0.35571 -0.663993,1.06713 -0.35571,0.71142 -1.019702,2.08683 -0.663993,1.37541 -1.70741,3.58082 -1.019703,2.18169 -2.65597,5.47794 -0.47428,0.97227 -1.114559,1.32798 -0.616564,0.332 -1.375413,0.332 -0.972275,0 -1.565125,-0.40314 -0.592851,-0.42685 -0.924847,-1.11456 -0.308282,-0.71142 -0.426852,-1.58884 -0.09486,-0.90113 -0.09486,-1.84969 0,-0.97228 0.11857,-2.30026 0.11857,-1.32799 0.308282,-2.79826 0.189712,-1.47027 0.426852,-2.98796 0.260855,-1.54141 0.521709,-2.94054 0.284568,-1.39913 0.569136,-2.56112 0.284569,-1.16198 0.521709,-1.89712 0.23714,-0.75885 0.450566,-1.20941 0.213426,-0.45057 0.47428,-0.68771 0.284569,-0.26085 0.663993,-0.332 0.379424,-0.0949 0.972275,-0.0949 0.901132,0 1.399127,0.0711 0.521708,0.0474 0.758848,0.28457 0.260855,0.21343 0.308283,0.64028 0.04743,0.42685 0.04743,1.16198 0,0.40314 -0.04743,0.92485 -0.02371,0.52171 -0.09486,1.11456 -0.07114,0.59285 -0.165998,1.23313 -0.07114,0.61656 -0.165999,1.20941 -0.213426,1.39913 -0.450566,2.89311 l 0.260854,0.28457 q 0.04743,-0.0711 0.497995,-0.90113 0.47428,-0.82999 1.138273,-1.99198 0.687706,-1.16198 1.470269,-2.41883 0.782562,-1.28055 1.493983,-2.25283 0.687706,-0.97227 1.446555,-1.61255 0.782563,-0.64028 1.849694,-0.64028 0.995988,0 1.707409,0.59285 0.71142,0.56914 0.71142,1.63627 0,0.92484 -0.11857,1.75483 -0.11857,0.82999 -0.308282,1.61256 -0.165998,0.78256 -0.35571,1.54141 -0.189712,0.73513 -0.35571,1.5177 -0.118571,0.54542 -0.142285,0.6877 -0.02371,0.14229 -0.02371,0.18971 l 0.260855,0.28457 q 0.04743,-0.0711 0.545422,-0.87742 0.497994,-0.82999 1.209415,-1.99197 0.735135,-1.16199 1.541411,-2.44255 0.829991,-1.28055 1.541412,-2.25283 0.687706,-0.94856 1.375413,-1.58884 0.687706,-0.66399 1.683695,-0.66399 1.114559,0 1.873407,0.59285 0.782563,0.56914 0.782563,1.63627 0,1.63626 -0.165998,3.10653 -0.165998,1.47027 -0.379424,2.89311 -0.213427,1.42284 -0.379425,2.89311 -0.165998,1.44656 -0.165998,3.08283 0,1.28055 0.331996,2.08683 0.331997,0.80628 0.806277,0.80628 0.497995,0 1.043417,-0.21343 0.545422,-0.21343 1.114559,-0.54542 0.569136,-0.332 1.114559,-0.75885 0.545422,-0.45057 1.043417,-0.92485 1.161987,-1.09084 2.300259,-2.46626 l 0.403139,5.59651 q -1.043417,0.82999 -2.086834,1.73113 -1.019703,0.87741 -2.18169,1.61255 -1.138273,0.71142 -2.513686,1.1857 -1.375413,0.45057 -3.106536,0.45057 -0.853705,0 -1.446555,-0.54543 -0.569137,-0.56913 -0.924847,-1.56512 -0.35571,-0.99599 -0.521708,-2.34769 -0.142285,-1.3517 -0.142285,-2.94054 0,-1.49398 0.09486,-3.15396 0.118571,-1.6837 0.308283,-3.39111 h -0.355711 l -4.813945,12.26015 q -0.616565,0.99599 -1.375414,1.3517 -0.758848,0.332 -1.754837,0.332 -0.758849,0 -1.209415,-0.40314 -0.450566,-0.42685 -0.71142,-1.06713 -0.237141,-0.66399 -0.331997,-1.44656 -0.07114,-0.78256 -0.07114,-1.51769 z"
         style="font-style:normal;font-variant:normal;font-weight:normal;font-stretch:normal;font-size:48.56631088px;font-family:Pacifico;-inkscape-font-specification:'Pacifico, Normal';font-variant-ligatures:normal;font-variant-caps:normal;font-variant-numeric:normal;font-feature-settings:normal;text-align:start;writing-mode:lr-tb;text-anchor:start;stroke-width:1.21416342"
         id="path833"
         inkscape:connector-curvature="0" />
      <path
         d="m 84.006701,135.09465 q -0.545422,0.75885 -1.470269,1.77855 -0.901133,1.01971 -2.039406,1.94455 -1.138273,0.92485 -2.442544,1.56513 -1.304271,0.64028 -2.608542,0.64028 -1.565125,0 -2.608542,-0.99599 -1.043417,-1.0197 -1.802265,-2.94054 -0.569137,0.66399 -1.399127,1.3517 -0.829991,0.68771 -1.82598,1.25684 -0.972275,0.54542 -2.039405,0.90113 -1.067131,0.35571 -2.134262,0.35571 -1.138273,0 -2.229118,-0.45056 -1.067131,-0.47428 -1.897121,-1.32799 -0.829991,-0.87742 -1.327986,-2.11054 -0.497994,-1.25685 -0.497994,-2.82197 0,-1.77855 0.497994,-3.65196 0.497995,-1.87341 1.375414,-3.65196 0.877418,-1.80227 2.063119,-3.39111 1.209415,-1.58883 2.632256,-2.77454 1.422841,-1.1857 2.987967,-1.8734 1.588839,-0.71142 3.225106,-0.71142 0.545423,0 0.853705,0.21342 0.308282,0.21343 0.497994,0.498 0.213427,0.26085 0.403139,0.52171 0.189712,0.26085 0.47428,0.37942 0.284568,0.11857 0.569137,0.166 0.308282,0.0237 0.616564,0.0237 0.260854,0 0.521708,0 0.284569,-0.0237 0.545423,-0.0237 0.35571,0 0.663992,0.0711 0.308283,0.0711 0.545423,0.30828 0.23714,0.23714 0.35571,0.66399 0.142284,0.42686 0.142284,1.16199 0,1.13827 -0.23714,2.5374 -0.23714,1.37541 -0.521708,2.84568 -0.284569,1.44656 -0.521709,2.91683 -0.23714,1.44655 -0.23714,2.75082 0,1.11456 0.189712,1.75484 0.213426,0.61657 0.877419,0.61657 0.497994,0 1.043417,-0.23714 0.545422,-0.26086 1.090845,-0.664 0.569136,-0.40313 1.114559,-0.90113 0.569136,-0.52171 1.06713,-1.06713 1.161987,-1.28056 2.347688,-2.89311 z m -20.251772,-1.87341 q 0,0.59286 0.07114,1.16199 0.09486,0.54542 0.308282,0.99599 0.213426,0.42685 0.569137,0.71142 0.35571,0.26086 0.901132,0.26086 0.877419,0 1.58884,-0.75885 0.71142,-0.75885 1.233129,-1.82598 0.521708,-1.06713 0.82999,-2.20541 0.331997,-1.13827 0.426853,-1.89712 l 1.446555,-6.97192 q -0.972275,0 -1.897122,0.49799 -0.924846,0.47428 -1.754837,1.30428 -0.806277,0.82999 -1.493983,1.89712 -0.687707,1.06713 -1.185701,2.25283 -0.497995,1.16199 -0.782563,2.34769 -0.260854,1.1857 -0.260854,2.22911 z"
         style="font-style:normal;font-variant:normal;font-weight:normal;font-stretch:normal;font-size:48.56631088px;font-family:Pacifico;-inkscape-font-specification:'Pacifico, Normal';font-variant-ligatures:normal;font-variant-caps:normal;font-variant-numeric:normal;font-feature-settings:normal;text-align:start;writing-mode:lr-tb;text-anchor:start;stroke-width:1.21416342"
         id="path835"
         inkscape:connector-curvature="0" />
      <path
         d="m 81.208444,135.94836 q 0,-1.04342 0.11857,-2.41883 0.118571,-1.39913 0.308283,-2.94054 0.213426,-1.54141 0.47428,-3.13025 0.284568,-1.61256 0.592851,-3.05911 0.308282,-1.44656 0.616564,-2.65597 0.308282,-1.20942 0.616565,-1.99198 0.189712,-0.52171 0.379424,-0.82999 0.189712,-0.30828 0.426852,-0.47428 0.260854,-0.18971 0.616565,-0.23714 0.379424,-0.0711 0.924846,-0.0711 0.616565,0 0.948561,0.0711 0.35571,0.0474 0.521709,0.28457 0.165998,0.21343 0.189712,0.64028 0.04743,0.42685 0.04743,1.16198 0,0.87742 0,2.13427 0,1.23312 0.04743,2.44254 h 0.260854 q 0.47428,-0.94856 1.067131,-2.11055 0.59285,-1.1857 1.375413,-2.2054 0.782563,-1.0197 1.778551,-1.70741 0.995989,-0.71142 2.30026,-0.71142 0.450567,0 0.877419,0.166 0.426852,0.14228 0.735135,0.42685 0.331996,0.28457 0.521708,0.71142 0.189712,0.40314 0.189712,0.92485 0,0.40313 -0.11857,1.13827 -0.11857,0.71142 -0.260854,1.5177 -0.142284,0.78256 -0.260854,1.54141 -0.11857,0.73513 -0.11857,1.23313 0,0.8537 0.165998,1.42284 0.165998,0.56913 0.426852,0.92484 0.284568,0.332 0.616564,0.47428 0.355711,0.14229 0.735135,0.14229 1.067131,0 2.2054,-0.47428 1.13827,-0.47428 2.08683,-1.06713 1.11456,-0.68771 2.18169,-1.56513 l -0.35571,5.54908 q -0.61656,0.40314 -1.39912,0.90114 -0.78257,0.49799 -1.6837,0.94856 -0.87742,0.42685 -1.849689,0.73513 -0.948561,0.28457 -1.94455,0.28457 -1.778551,0 -2.869396,-0.71142 -1.090845,-0.73514 -1.731123,-1.89712 -0.640279,-1.1857 -0.948561,-2.63226 -0.308282,-1.47027 -0.497994,-2.96425 h -0.379425 l -4.244809,11.83329 q -0.331996,0.92485 -0.640279,1.54142 -0.284568,0.59285 -0.59285,0.97227 -0.308282,0.37942 -0.663993,0.54542 -0.35571,0.14229 -0.782562,0.14229 -0.972275,0 -1.565125,-0.40314 -0.592851,-0.42685 -0.924847,-1.11456 -0.308282,-0.71142 -0.426853,-1.58884 -0.09486,-0.90113 -0.09486,-1.84969 z"
         style="font-style:normal;font-variant:normal;font-weight:normal;font-stretch:normal;font-size:48.56631088px;font-family:Pacifico;-inkscape-font-specification:'Pacifico, Normal';font-variant-ligatures:normal;font-variant-caps:normal;font-variant-numeric:normal;font-feature-settings:normal;text-align:start;writing-mode:lr-tb;text-anchor:start;stroke-width:1.21416342"
         id="path837"
         inkscape:connector-curvature="0" />
      <path
         d="m 109.02498,140.90459 q -2.18169,0 -3.84167,-0.80628 -1.63627,-0.80628 -2.75082,-2.15798 -1.11456,-1.35169 -1.6837,-3.13025 -0.56914,-1.77855 -0.56914,-3.69938 0,-1.37542 0.28457,-2.8694 0.28457,-1.49398 0.82999,-2.91682 0.56914,-1.44656 1.37542,-2.75083 0.82999,-1.30427 1.89712,-2.27655 1.09084,-0.99598 2.41883,-1.56512 1.32798,-0.59285 2.91682,-0.59285 1.3517,0 2.48997,0.42685 1.16199,0.40314 1.96827,1.13827 0.82999,0.73514 1.28055,1.75484 0.47428,0.99599 0.47428,2.15798 0,0.80627 -0.21342,1.58884 -0.21343,0.78256 -0.64028,1.42284 -0.40314,0.61656 -0.99599,0.99599 -0.59285,0.37942 -1.32798,0.37942 -1.11456,0 -1.47027,-0.59285 -0.332,-0.59285 -0.332,-1.63627 0,-0.42685 0.0237,-0.90113 0.0474,-0.47428 0.0474,-0.8537 0,-0.56914 -0.11857,-0.94857 -0.11857,-0.37942 -0.52171,-0.37942 -0.97227,0 -1.65998,0.47428 -0.6877,0.45057 -1.1857,1.20942 -0.47428,0.73513 -0.75885,1.68369 -0.28456,0.92485 -0.45056,1.84969 -0.166,0.92485 -0.21343,1.77856 -0.0474,0.82999 -0.0474,1.39912 0,0.85371 0.14229,1.77855 0.166,0.92485 0.59285,1.70741 0.42685,0.75885 1.16198,1.28056 0.73514,0.498 1.89713,0.498 1.13827,0 2.51368,-0.68771 1.37542,-0.71142 2.75083,-1.77855 1.39913,-1.06713 2.65597,-2.34769 1.25684,-1.28056 2.15797,-2.41883 l 1.63627,2.75083 q -1.77855,2.5374 -3.84167,4.52937 -0.87742,0.85371 -1.92084,1.65998 -1.0197,0.80628 -2.15797,1.44656 -1.11456,0.61656 -2.34769,1.0197 -1.20941,0.37943 -2.46626,0.37943 z"
         style="font-style:normal;font-variant:normal;font-weight:normal;font-stretch:normal;font-size:48.56631088px;font-family:Pacifico;-inkscape-font-specification:'Pacifico, Normal';font-variant-ligatures:normal;font-variant-caps:normal;font-variant-numeric:normal;font-feature-settings:normal;text-align:start;writing-mode:lr-tb;text-anchor:start;stroke-width:1.21416342"
         id="path839"
         inkscape:connector-curvature="0" />
      <path
         d="m 133.569,135.8535 q -0.85371,0.78256 -2.13427,1.6837 -1.25684,0.87741 -2.72711,1.63626 -1.47027,0.73514 -3.01168,1.23313 -1.5177,0.498 -2.89311,0.498 -1.23313,0 -2.08683,-0.332 -0.82999,-0.35571 -1.3517,-0.97227 -0.52171,-0.61657 -0.75885,-1.49399 -0.21343,-0.90113 -0.21343,-1.96826 0,-1.49398 0.332,-3.46225 0.35571,-1.99198 0.85371,-4.10252 0.49799,-2.13426 1.04341,-4.24481 0.56914,-2.11055 0.99599,-3.8891 0.166,-0.61657 0.66399,-1.04342 0.498,-0.45056 1.11456,-0.71142 0.64028,-0.28457 1.30427,-0.40314 0.68771,-0.14228 1.23313,-0.14228 0.99599,0 1.3517,0.37942 0.35571,0.35571 0.35571,0.97228 0,0.52171 -0.23714,1.51769 -0.23714,0.97228 -0.59285,2.22912 -0.35571,1.23313 -0.75885,2.67969 -0.40314,1.42284 -0.75885,2.86939 -0.35571,1.42284 -0.59285,2.79826 -0.23714,1.3517 -0.23714,2.44254 0,1.06713 0.23714,1.70741 0.23714,0.61657 0.97228,0.61657 0.8537,0 1.89712,-0.59286 1.04342,-0.59285 2.11055,-1.42284 1.06713,-0.8537 2.08683,-1.75483 1.0197,-0.90114 1.80227,-1.54142 z m -10.60017,-24.37801 q 0,-0.54542 0.23714,-1.23313 0.23714,-0.68771 0.75885,-1.28056 0.54542,-0.61656 1.42284,-1.0197 0.90113,-0.42685 2.22912,-0.42685 0.82999,0 1.56512,0.18971 0.73514,0.18971 1.28056,0.59285 0.54542,0.37942 0.8537,1.0197 0.332,0.64028 0.332,1.5177 0,0.80628 -0.26085,1.56513 -0.26086,0.75884 -0.82999,1.3517 -0.56914,0.59285 -1.44656,0.97227 -0.8537,0.35571 -2.06312,0.35571 -2.08683,0 -3.08282,-0.97227 -0.99599,-0.99599 -0.99599,-2.63226 z"
         style="font-style:normal;font-variant:normal;font-weight:normal;font-stretch:normal;font-size:48.56631088px;font-family:Pacifico;-inkscape-font-specification:'Pacifico, Normal';font-variant-ligatures:normal;font-variant-caps:normal;font-variant-numeric:normal;font-feature-settings:normal;text-align:start;writing-mode:lr-tb;text-anchor:start;stroke-width:1.21416342"
         id="path841"
         inkscape:connector-curvature="0" />
      <path
         d="m 131.8616,135.94836 q 0,-1.56513 0.18971,-3.60453 0.18971,-2.06312 0.47428,-4.17367 0.28457,-2.13426 0.64028,-4.10253 0.35571,-1.96826 0.6877,-3.36739 0.26086,-1.09084 0.99599,-1.82598 0.75885,-0.73513 2.03941,-0.73513 1.28056,0 1.77855,0.78256 0.49799,0.78256 0.49799,2.08683 0,0.35572 -0.0711,0.97228 -0.0711,0.59285 -0.18971,1.32798 -0.0949,0.71143 -0.21343,1.49399 -0.11857,0.75885 -0.23714,1.42284 -0.0949,0.64028 -0.16599,1.13827 -0.0711,0.47428 -0.0711,0.64028 h 0.47428 q 0.14229,-0.26085 0.45057,-0.82999 0.30828,-0.59285 0.71142,-1.3517 0.40314,-0.75885 0.85371,-1.58884 0.47428,-0.8537 0.87741,-1.61255 0.40314,-0.78256 0.73514,-1.37541 0.332,-0.59286 0.49799,-0.87742 0.75885,-1.28056 1.73113,-1.75484 0.97227,-0.47428 2.15797,-0.47428 1.1857,0 1.87341,0.99599 0.71142,0.99599 0.71142,2.75082 0,0.26086 -0.11857,0.87742 -0.0949,0.61657 -0.26085,1.47027 -0.166,0.85371 -0.37943,1.87341 -0.18971,1.0197 -0.35571,2.08683 -0.166,1.06713 -0.28457,2.11055 -0.0949,1.04342 -0.0949,1.92084 0,1.47027 0.35571,2.41883 0.37942,0.94856 1.16198,0.94856 0.35572,0 0.80628,-0.21343 0.47428,-0.21343 0.99599,-0.54542 0.54542,-0.35571 1.09085,-0.80628 0.56913,-0.45057 1.11455,-0.92485 1.25685,-1.11455 2.63226,-2.51368 l 0.40314,5.31194 -1.1857,0.90113 q -0.97228,0.73514 -1.99198,1.47027 -0.99599,0.73514 -2.08683,1.32799 -1.09085,0.56913 -2.27655,0.94856 -1.1857,0.35571 -2.48997,0.35571 -1.30427,0 -2.20541,-1.87341 -0.87741,-1.89712 -0.87741,-5.52537 0,-1.42284 0.18971,-3.05911 0.18971,-1.65998 0.47428,-3.5571 h -0.37943 l -6.21307,12.33129 q -0.47428,0.97228 -1.06713,1.32799 -0.59285,0.35571 -1.37541,0.35571 -0.97228,0 -1.56513,-0.40314 -0.59285,-0.42685 -0.92484,-1.11456 -0.30829,-0.71142 -0.42686,-1.58884 -0.0948,-0.90113 -0.0948,-1.84969 z"
         style="font-style:normal;font-variant:normal;font-weight:normal;font-stretch:normal;font-size:48.56631088px;font-family:Pacifico;-inkscape-font-specification:'Pacifico, Normal';font-variant-ligatures:normal;font-variant-caps:normal;font-variant-numeric:normal;font-feature-settings:normal;text-align:start;writing-mode:lr-tb;text-anchor:start;stroke-width:1.21416342"
         id="path843"
         inkscape:connector-curvature="0" />
      <path
         d="m 178.67305,135.09465 q -0.54542,0.75885 -1.47027,1.77855 -0.90113,1.01971 -2.0394,1.94455 -1.13828,0.92485 -2.44255,1.56513 -1.30427,0.64028 -2.60854,0.64028 -1.56512,0 -2.60854,-0.99599 -1.04342,-1.0197 -1.80227,-2.94054 -0.56913,0.66399 -1.39912,1.3517 -0.82999,0.68771 -1.82598,1.25684 -0.97228,0.54542 -2.03941,0.90113 -1.06713,0.35571 -2.13426,0.35571 -1.13827,0 -2.22912,-0.45056 -1.06713,-0.47428 -1.89712,-1.32799 -0.82999,-0.87742 -1.32798,-2.11054 -0.498,-1.25685 -0.498,-2.82197 0,-1.77855 0.498,-3.65196 0.49799,-1.87341 1.37541,-3.65196 0.87742,-1.80227 2.06312,-3.39111 1.20941,-1.58883 2.63225,-2.77454 1.42285,-1.1857 2.98797,-1.8734 1.58884,-0.71142 3.22511,-0.71142 0.54542,0 0.8537,0.21342 0.30828,0.21343 0.498,0.498 0.21342,0.26085 0.40314,0.52171 0.18971,0.26085 0.47428,0.37942 0.28456,0.11857 0.56913,0.166 0.30828,0.0237 0.61657,0.0237 0.26085,0 0.5217,0 0.28457,-0.0237 0.54543,-0.0237 0.35571,0 0.66399,0.0711 0.30828,0.0711 0.54542,0.30828 0.23714,0.23714 0.35571,0.66399 0.14229,0.42686 0.14229,1.16199 0,1.13827 -0.23714,2.5374 -0.23714,1.37541 -0.52171,2.84568 -0.28457,1.44656 -0.52171,2.91683 -0.23714,1.44655 -0.23714,2.75082 0,1.11456 0.18971,1.75484 0.21343,0.61657 0.87742,0.61657 0.49799,0 1.04342,-0.23714 0.54542,-0.26086 1.09084,-0.664 0.56914,-0.40313 1.11456,-0.90113 0.56914,-0.52171 1.06713,-1.06713 1.16199,-1.28056 2.34769,-2.89311 z m -20.25177,-1.87341 q 0,0.59286 0.0711,1.16199 0.0949,0.54542 0.30828,0.99599 0.21343,0.42685 0.56914,0.71142 0.35571,0.26086 0.90113,0.26086 0.87742,0 1.58884,-0.75885 0.71142,-0.75885 1.23313,-1.82598 0.52171,-1.06713 0.82999,-2.20541 0.332,-1.13827 0.42686,-1.89712 l 1.44655,-6.97192 q -0.97227,0 -1.89712,0.49799 -0.92485,0.47428 -1.75484,1.30428 -0.80628,0.82999 -1.49398,1.89712 -0.68771,1.06713 -1.1857,2.25283 -0.498,1.16199 -0.78257,2.34769 -0.26085,1.1857 -0.26085,2.22911 z"
         style="font-style:normal;font-variant:normal;font-weight:normal;font-stretch:normal;font-size:48.56631088px;font-family:Pacifico;-inkscape-font-specification:'Pacifico, Normal';font-variant-ligatures:normal;font-variant-caps:normal;font-variant-numeric:normal;font-feature-settings:normal;text-align:start;writing-mode:lr-tb;text-anchor:start;stroke-width:1.21416342"
         id="path845"
         inkscape:connector-curvature="0" />
      <path
         d="m 208.07845,116.50286 q -0.54542,-0.14228 -1.16199,-0.21342 -0.59285,-0.0949 -1.13827,-0.0949 -1.5177,0 -2.96425,0.78256 -1.44656,0.78256 -2.75083,2.06312 -1.30427,1.25684 -2.39512,2.91683 -1.09084,1.63626 -1.89712,3.3911 -0.78256,1.73112 -1.23313,3.41482 -0.42685,1.68369 -0.42685,3.05911 0,1.77855 0.73514,2.75082 0.75884,0.94856 2.34768,0.94856 1.06713,0 2.0157,-0.42685 0.97227,-0.45056 1.77855,-1.16198 0.82999,-0.73514 1.49398,-1.63627 0.68771,-0.90113 1.1857,-1.82598 0.52171,-0.92485 0.85371,-1.77855 0.33199,-0.87742 0.45056,-1.49399 z m -32.58306,19.30321 q 0,-2.7034 0.56913,-5.52536 0.56914,-2.82197 1.63627,-5.5728 1.09085,-2.77454 2.63226,-5.40679 1.56512,-2.63226 3.50967,-4.95623 1.96826,-2.32398 4.29224,-4.26853 2.34769,-1.96826 4.97994,-3.36739 2.65597,-1.42284 5.54908,-2.2054 2.91683,-0.78256 6.04708,-0.78256 2.30026,0 4.5768,0.40313 2.30026,0.40314 4.3871,1.25685 2.11054,0.82999 3.8891,2.15797 1.80226,1.30427 3.13025,3.15397 1.32798,1.82598 2.08683,4.22109 0.75885,2.3714 0.75885,5.35937 0,0.61656 -0.0237,1.25684 -0.0237,0.64028 -0.11858,1.30427 -0.21342,1.61256 -0.87741,3.50968 -0.64028,1.87341 -1.6837,3.74681 -1.0197,1.8497 -2.39511,3.58082 -1.37542,1.73112 -3.0354,3.05911 -1.65998,1.30427 -3.58082,2.11055 -1.92083,0.78256 -4.00767,0.78256 -0.5217,0 -1.06713,-0.166 -0.5217,-0.18971 -0.94856,-0.66399 -0.42685,-0.47428 -0.6877,-1.30427 -0.26086,-0.82999 -0.26086,-2.15798 0,-0.56913 0.0711,-1.20941 0.0949,-0.64028 0.23714,-1.39913 -0.90113,1.82598 -2.0394,3.20139 -1.11456,1.37542 -2.39512,2.32398 -1.28055,0.94856 -2.65597,1.42284 -1.3517,0.47428 -2.7034,0.47428 -1.56512,0 -2.98796,-0.52171 -1.39913,-0.52171 -2.48997,-1.54141 -1.06713,-1.04342 -1.70741,-2.56112 -0.64028,-1.54141 -0.64028,-3.58081 0,-2.06312 0.64028,-4.3871 0.66399,-2.32397 1.84969,-4.60052 1.20942,-2.27654 2.89311,-4.33966 1.70741,-2.08683 3.81796,-3.67567 2.11055,-1.58884 4.5768,-2.51369 2.48998,-0.94856 5.21709,-0.94856 0.54542,0 0.87742,0.0949 0.33199,0.0711 0.49799,0.21342 0.166,0.11857 0.21343,0.26086 0.0474,0.14228 0.0474,0.23714 0,0.0949 -0.0237,0.16599 0,0.0474 0,0.0949 v 0.0949 q 0.54542,0.23714 1.13827,0.28456 0.61657,0.0474 1.1857,0.0949 0.56914,0.0474 1.06714,0.166 0.5217,0.11857 0.90113,0.49799 0.40314,0.37943 0.61656,1.11456 0.23714,0.73514 0.23714,1.96827 0,0.94856 -0.21342,2.15797 -0.18972,1.1857 -0.52171,2.48997 -0.30828,1.30427 -0.71142,2.65597 -0.40314,1.32799 -0.78256,2.60855 -0.37943,1.25684 -0.71143,2.3714 -0.30828,1.11456 -0.47428,1.96826 -0.33199,1.06713 -0.33199,1.82598 0,0.54542 0.166,0.87742 0.18971,0.332 0.59285,0.332 0.87742,0 1.75483,-0.52171 0.87742,-0.54543 1.6837,-1.47027 0.82999,-0.92485 1.5177,-2.15798 0.71142,-1.25684 1.23313,-2.67968 0.5217,-1.44656 0.80627,-2.98797 0.30828,-1.54141 0.30828,-3.05911 0,-3.5571 -1.0197,-6.02336 -0.99599,-2.46626 -2.75082,-3.98395 -1.75484,-1.54141 -4.10253,-2.20541 -2.34769,-0.6877 -5.02737,-0.6877 -3.34368,0 -6.30793,1.23313 -2.96425,1.23312 -5.45423,3.31996 -2.48997,2.06312 -4.45823,4.76652 -1.96826,2.67968 -3.34368,5.62022 -1.37541,2.94054 -2.11055,5.9285 -0.71142,2.96426 -0.71142,5.5728 0,2.11055 0.73514,3.81795 0.73513,1.6837 2.39511,2.89312 1.65999,1.20941 4.33967,1.84969 2.67968,0.66399 6.56878,0.66399 5.66765,0 10.00732,-0.87742 4.36338,-0.8537 7.56477,-2.32397 0.54542,-0.23714 0.99599,-0.23714 0.40314,0 0.68771,0.18971 0.28456,0.18971 0.47428,0.498 0.18971,0.30828 0.26085,0.6877 0.0949,0.40314 0.0949,0.80628 0,0.61656 -0.18971,1.16199 -0.18972,0.56913 -0.52171,0.75884 -2.27655,1.3517 -5.02738,2.37141 -2.72711,1.0197 -5.5965,1.68369 -2.8694,0.68771 -5.71508,1.0197 -2.84568,0.332 -5.31194,0.332 -4.62424,0 -8.1102,-1.06713 -3.48596,-1.06713 -5.80993,-2.96425 -2.32398,-1.87341 -3.50968,-4.48195 -1.16198,-2.60854 -1.16198,-5.69137 z"
         style="font-style:normal;font-variant:normal;font-weight:normal;font-stretch:normal;font-size:48.56631088px;font-family:Pacifico;-inkscape-font-specification:'Pacifico, Normal';font-variant-ligatures:normal;font-variant-caps:normal;font-variant-numeric:normal;font-feature-settings:normal;text-align:start;writing-mode:lr-tb;text-anchor:start;stroke-width:1.21416342"
         id="path847"
         inkscape:connector-curvature="0" />
      <path
         d="m 238.78809,138.41461 q -1.28056,1.13828 -2.67969,1.8497 -1.37541,0.6877 -2.67968,0.6877 -1.13828,0 -2.22912,-0.45056 -1.06713,-0.47428 -1.89712,-1.32799 -0.82999,-0.87742 -1.32799,-2.11054 -0.49799,-1.25685 -0.49799,-2.82197 0,-1.77855 0.49799,-3.65196 0.498,-1.87341 1.37542,-3.65196 0.87741,-1.80227 2.06312,-3.39111 1.20941,-1.58883 2.63225,-2.77454 1.42284,-1.1857 2.98797,-1.8734 1.58884,-0.71142 3.2251,-0.71142 0.54543,0 0.85371,0.21342 0.30828,0.21343 0.49799,0.498 0.21343,0.26085 0.40314,0.52171 0.18971,0.26085 0.47428,0.37942 0.28457,0.11857 0.56914,0.166 0.30828,0.0237 0.61656,0.0237 0.26086,0 0.52171,0 0.28457,-0.0237 0.54542,-0.0237 0.35571,0 0.664,0.0711 0.30828,0.0711 0.54542,0.30828 0.23714,0.23714 0.35571,0.66399 0.14228,0.42686 0.14228,1.16199 0,0.61657 -0.0949,1.65998 -0.0949,1.04342 -0.26086,2.32398 -0.16599,1.28055 -0.37942,2.72711 -0.18971,1.42284 -0.40314,2.79825 -0.49799,3.27254 -1.13827,6.99564 0.71142,-0.40314 1.54141,-0.99599 0.82999,-0.59285 1.84969,-1.58884 1.01971,-0.99599 2.27655,-2.48997 1.25684,-1.5177 2.82197,-3.77053 l 1.13827,5.26451 q -0.42685,0.73514 -1.11456,1.5177 -0.66399,0.75885 -1.49398,1.54141 -0.80628,0.75885 -1.70741,1.49398 -0.87742,0.71142 -1.73113,1.3517 -2.01569,1.5177 -4.33966,2.94054 -0.45057,2.5374 -1.06713,4.93252 -0.61657,2.41883 -1.47027,4.50566 -0.82999,2.11055 -1.92084,3.86539 -1.06713,1.75483 -2.44254,3.01168 -1.3517,1.25684 -3.03539,1.94455 -1.6837,0.71142 -3.72311,0.71142 -0.80627,0 -1.75483,-0.166 -0.92485,-0.166 -1.73113,-0.66399 -0.78256,-0.498 -1.30427,-1.42285 -0.52171,-0.92484 -0.52171,-2.46625 0,-1.06713 0.54543,-2.41883 0.54542,-1.32799 1.49398,-2.82197 0.94856,-1.47027 2.25283,-3.08282 1.30427,-1.58884 2.82197,-3.17768 1.54141,-1.58884 3.20139,-3.13025 1.6837,-1.54141 3.39111,-2.94054 z m -5.2408,-5.19337 q 0,0.59286 0.0711,1.16199 0.0949,0.54542 0.30828,0.99599 0.21343,0.42685 0.56914,0.71142 0.35571,0.26086 0.90113,0.26086 0.87742,0 1.58884,-0.75885 0.71142,-0.75885 1.23313,-1.82598 0.52171,-1.06713 0.82999,-2.20541 0.332,-1.13827 0.42685,-1.89712 l 1.44656,-6.97192 q -0.97228,0 -1.89712,0.49799 -0.92485,0.47428 -1.75484,1.30428 -0.80628,0.82999 -1.49398,1.89712 -0.68771,1.06713 -1.18571,2.25283 -0.49799,1.16199 -0.78256,2.34769 -0.26085,1.1857 -0.26085,2.22911 z m -3.50968,25.13686 q 0.99599,0 1.87341,-0.59285 0.90113,-0.56913 1.63627,-1.51769 0.75885,-0.94856 1.37541,-2.15798 0.61656,-1.20941 1.09085,-2.48997 0.47428,-1.25684 0.80627,-2.46626 0.332,-1.20941 0.52171,-2.15797 -0.92485,0.61656 -1.89712,1.47026 -0.94856,0.85371 -1.87341,1.82598 -0.90113,0.99599 -1.73112,2.03941 -0.80628,1.04342 -1.42284,1.99198 -0.61657,0.97227 -0.97228,1.80226 -0.35571,0.82999 -0.35571,1.37542 0,0.87741 0.94856,0.87741 z"
         style="font-style:normal;font-variant:normal;font-weight:normal;font-stretch:normal;font-size:48.56631088px;font-family:Pacifico;-inkscape-font-specification:'Pacifico, Normal';font-variant-ligatures:normal;font-variant-caps:normal;font-variant-numeric:normal;font-feature-settings:normal;text-align:start;writing-mode:lr-tb;text-anchor:start;stroke-width:1.21416342"
         id="path849"
         inkscape:connector-curvature="0" />
      <path
         d="m 260.86585,136.47007 q 0,-0.30829 0.0474,-0.87742 0.0474,-0.56914 0.14228,-1.30427 0.0949,-0.73514 0.21343,-1.54142 0.11857,-0.82999 0.23714,-1.63626 0.26085,-1.89712 0.64028,-4.07881 h -0.35571 q -0.28457,0.35571 -0.664,1.06713 -0.35571,0.71142 -1.0197,2.08683 -0.66399,1.37541 -1.70741,3.58082 -1.0197,2.18169 -2.65597,5.47794 -0.47428,0.97227 -1.11456,1.32798 -0.61656,0.332 -1.37541,0.332 -0.97227,0 -1.56513,-0.40314 -0.59285,-0.42685 -0.92484,-1.11456 -0.30828,-0.71142 -0.42685,-1.58884 -0.0949,-0.90113 -0.0949,-1.84969 0,-0.97228 0.11857,-2.30026 0.11857,-1.32799 0.30828,-2.79826 0.18971,-1.47027 0.42685,-2.98796 0.26086,-1.54141 0.52171,-2.94054 0.28457,-1.39913 0.56914,-2.56112 0.28457,-1.16198 0.52171,-1.89712 0.23714,-0.75885 0.45056,-1.20941 0.21343,-0.45057 0.47428,-0.68771 0.28457,-0.26085 0.664,-0.332 0.37942,-0.0949 0.97227,-0.0949 0.90113,0 1.39913,0.0711 0.52171,0.0474 0.75885,0.28457 0.26085,0.21343 0.30828,0.64028 0.0474,0.42685 0.0474,1.16198 0,0.40314 -0.0474,0.92485 -0.0237,0.52171 -0.0949,1.11456 -0.0711,0.59285 -0.16599,1.23313 -0.0711,0.61656 -0.166,1.20941 -0.21343,1.39913 -0.45057,2.89311 l 0.26085,0.28457 q 0.0474,-0.0711 0.498,-0.90113 0.47428,-0.82999 1.13827,-1.99198 0.68771,-1.16198 1.47027,-2.41883 0.78256,-1.28055 1.49398,-2.25283 0.68771,-0.97227 1.44656,-1.61255 0.78256,-0.64028 1.84969,-0.64028 0.99599,0 1.70741,0.59285 0.71142,0.56914 0.71142,1.63627 0,0.92484 -0.11857,1.75483 -0.11857,0.82999 -0.30828,1.61256 -0.166,0.78256 -0.35571,1.54141 -0.18971,0.73513 -0.35571,1.5177 -0.11857,0.54542 -0.14228,0.6877 -0.0237,0.14229 -0.0237,0.18971 l 0.26086,0.28457 q 0.0474,-0.0711 0.54542,-0.87742 0.49799,-0.82999 1.20941,-1.99197 0.73514,-1.16199 1.54141,-2.44255 0.83,-1.28055 1.54142,-2.25283 0.6877,-0.94856 1.37541,-1.58884 0.68771,-0.66399 1.68369,-0.66399 1.11456,0 1.87341,0.59285 0.78256,0.56914 0.78256,1.63627 0,1.63626 -0.16599,3.10653 -0.166,1.47027 -0.37943,2.89311 -0.21342,1.42284 -0.37942,2.89311 -0.166,1.44656 -0.166,3.08283 0,1.28055 0.332,2.08683 0.33199,0.80628 0.80627,0.80628 0.498,0 1.04342,-0.21343 0.54542,-0.21343 1.11456,-0.54542 0.56914,-0.332 1.11456,-0.75885 0.54542,-0.45057 1.04341,-0.92485 1.16199,-1.09084 2.30026,-2.46626 l 0.40314,5.59651 q -1.04341,0.82999 -2.08683,1.73113 -1.0197,0.87741 -2.18169,1.61255 -1.13827,0.71142 -2.51369,1.1857 -1.37541,0.45057 -3.10653,0.45057 -0.85371,0 -1.44656,-0.54543 -0.56914,-0.56913 -0.92485,-1.56512 -0.35571,-0.99599 -0.5217,-2.34769 -0.14229,-1.3517 -0.14229,-2.94054 0,-1.49398 0.0949,-3.15396 0.11857,-1.6837 0.30828,-3.39111 h -0.35571 l -4.81395,12.26015 q -0.61656,0.99599 -1.37541,1.3517 -0.75885,0.332 -1.75484,0.332 -0.75884,0 -1.20941,-0.40314 -0.45057,-0.42685 -0.71142,-1.06713 -0.23714,-0.66399 -0.332,-1.44656 -0.0711,-0.78256 -0.0711,-1.51769 z"
         style="font-style:normal;font-variant:normal;font-weight:normal;font-stretch:normal;font-size:48.56631088px;font-family:Pacifico;-inkscape-font-specification:'Pacifico, Normal';font-variant-ligatures:normal;font-variant-caps:normal;font-variant-numeric:normal;font-feature-settings:normal;text-align:start;writing-mode:lr-tb;text-anchor:start;stroke-width:1.21416342"
         id="path851"
         inkscape:connector-curvature="0" />
      <path
         d="m 306.91847,135.09465 q -0.54542,0.75885 -1.47026,1.77855 -0.90114,1.01971 -2.03941,1.94455 -1.13827,0.92485 -2.44254,1.56513 -1.30427,0.64028 -2.60855,0.64028 -1.56512,0 -2.60854,-0.99599 -1.04341,-1.0197 -1.80226,-2.94054 -0.56914,0.66399 -1.39913,1.3517 -0.82999,0.68771 -1.82598,1.25684 -0.97227,0.54542 -2.03941,0.90113 -1.06713,0.35571 -2.13426,0.35571 -1.13827,0 -2.22912,-0.45056 -1.06713,-0.47428 -1.89712,-1.32799 -0.82999,-0.87742 -1.32798,-2.11054 -0.498,-1.25685 -0.498,-2.82197 0,-1.77855 0.498,-3.65196 0.49799,-1.87341 1.37541,-3.65196 0.87742,-1.80227 2.06312,-3.39111 1.20942,-1.58883 2.63226,-2.77454 1.42284,-1.1857 2.98796,-1.8734 1.58884,-0.71142 3.22511,-0.71142 0.54542,0 0.8537,0.21342 0.30829,0.21343 0.498,0.498 0.21343,0.26085 0.40314,0.52171 0.18971,0.26085 0.47428,0.37942 0.28457,0.11857 0.56913,0.166 0.30829,0.0237 0.61657,0.0237 0.26085,0 0.52171,0 0.28457,-0.0237 0.54542,-0.0237 0.35571,0 0.66399,0.0711 0.30828,0.0711 0.54542,0.30828 0.23714,0.23714 0.35571,0.66399 0.14229,0.42686 0.14229,1.16199 0,1.13827 -0.23714,2.5374 -0.23714,1.37541 -0.52171,2.84568 -0.28457,1.44656 -0.52171,2.91683 -0.23714,1.44655 -0.23714,2.75082 0,1.11456 0.18971,1.75484 0.21343,0.61657 0.87742,0.61657 0.498,0 1.04342,-0.23714 0.54542,-0.26086 1.09084,-0.664 0.56914,-0.40313 1.11456,-0.90113 0.56914,-0.52171 1.06713,-1.06713 1.16199,-1.28056 2.34769,-2.89311 z m -20.25177,-1.87341 q 0,0.59286 0.0711,1.16199 0.0949,0.54542 0.30829,0.99599 0.21342,0.42685 0.56913,0.71142 0.35571,0.26086 0.90114,0.26086 0.87741,0 1.58884,-0.75885 0.71142,-0.75885 1.23312,-1.82598 0.52171,-1.06713 0.83,-2.20541 0.33199,-1.13827 0.42685,-1.89712 l 1.44655,-6.97192 q -0.97227,0 -1.89712,0.49799 -0.92485,0.47428 -1.75484,1.30428 -0.80627,0.82999 -1.49398,1.89712 -0.68771,1.06713 -1.1857,2.25283 -0.49799,1.16199 -0.78256,2.34769 -0.26086,1.1857 -0.26086,2.22911 z"
         style="font-style:normal;font-variant:normal;font-weight:normal;font-stretch:normal;font-size:48.56631088px;font-family:Pacifico;-inkscape-font-specification:'Pacifico, Normal';font-variant-ligatures:normal;font-variant-caps:normal;font-variant-numeric:normal;font-feature-settings:normal;text-align:start;writing-mode:lr-tb;text-anchor:start;stroke-width:1.21416342"
         id="path853"
         inkscape:connector-curvature="0" />
      <path
         d="m 318.53836,135.8535 q -0.85371,0.78256 -2.13426,1.6837 -1.25685,0.87741 -2.72712,1.63626 -1.47027,0.73514 -3.01168,1.23313 -1.51769,0.498 -2.89311,0.498 -1.23313,0 -2.08683,-0.332 -0.82999,-0.35571 -1.3517,-0.97227 -0.52171,-0.61657 -0.75885,-1.49399 -0.21343,-0.90113 -0.21343,-1.96826 0,-1.49398 0.332,-3.46225 0.35571,-1.99198 0.85371,-4.10252 0.49799,-2.13426 1.04341,-4.24481 0.56914,-2.11055 0.99599,-3.8891 0.166,-0.61657 0.66399,-1.04342 0.498,-0.45056 1.11456,-0.71142 0.64028,-0.28457 1.30427,-0.40314 0.68771,-0.14228 1.23313,-0.14228 0.99599,0 1.3517,0.37942 0.35571,0.35571 0.35571,0.97228 0,0.52171 -0.23714,1.51769 -0.23714,0.97228 -0.59285,2.22912 -0.35571,1.23313 -0.75885,2.67969 -0.40314,1.42284 -0.75885,2.86939 -0.35571,1.42284 -0.59285,2.79826 -0.23714,1.3517 -0.23714,2.44254 0,1.06713 0.23714,1.70741 0.23714,0.61657 0.97228,0.61657 0.8537,0 1.89712,-0.59286 1.04342,-0.59285 2.11055,-1.42284 1.06713,-0.8537 2.08683,-1.75483 1.0197,-0.90114 1.80227,-1.54142 z m -10.60017,-24.37801 q 0,-0.54542 0.23714,-1.23313 0.23714,-0.68771 0.75885,-1.28056 0.54542,-0.61656 1.42284,-1.0197 0.90113,-0.42685 2.22912,-0.42685 0.82999,0 1.56512,0.18971 0.73514,0.18971 1.28056,0.59285 0.54542,0.37942 0.85371,1.0197 0.33199,0.64028 0.33199,1.5177 0,0.80628 -0.26085,1.56513 -0.26086,0.75884 -0.82999,1.3517 -0.56914,0.59285 -1.44656,0.97227 -0.8537,0.35571 -2.06312,0.35571 -2.08683,0 -3.08282,-0.97227 -0.99599,-0.99599 -0.99599,-2.63226 z"
         style="font-style:normal;font-variant:normal;font-weight:normal;font-stretch:normal;font-size:48.56631088px;font-family:Pacifico;-inkscape-font-specification:'Pacifico, Normal';font-variant-ligatures:normal;font-variant-caps:normal;font-variant-numeric:normal;font-feature-settings:normal;text-align:start;writing-mode:lr-tb;text-anchor:start;stroke-width:1.21416342"
         id="path855"
         inkscape:connector-curvature="0" />
      <path
         d="m 322.11915,140.90459 q -1.28055,0 -2.39511,-1.11456 -1.09085,-1.13828 -1.92084,-3.0354 -0.80628,-1.89712 -1.28056,-4.38709 -0.45056,-2.51369 -0.45056,-5.26451 0,-2.11055 0.30828,-4.57681 0.30828,-2.48997 0.90113,-5.12223 0.59285,-2.63225 1.39913,-5.28822 0.82999,-2.65597 1.84969,-5.09852 1.04342,-2.44254 2.25284,-4.55309 1.20941,-2.13426 2.5374,-3.699385 1.32798,-1.588839 2.77454,-2.489972 1.44655,-0.901133 2.94053,-0.901133 1.01971,0 1.6837,0.474281 0.66399,0.450566 1.04342,1.209415 0.37942,0.758848 0.5217,1.731123 0.166,0.948561 0.166,1.944551 0,2.22912 -0.52171,4.55309 -0.49799,2.30026 -1.37541,4.64795 -0.8537,2.32397 -1.99198,4.67166 -1.13827,2.34769 -2.3714,4.67166 -1.23313,2.30026 -2.48997,4.55309 -1.23313,2.22912 -2.32397,4.36338 -0.11857,0.23714 -0.26086,0.61657 -0.11857,0.37942 -0.23714,0.82999 -0.11857,0.42685 -0.23714,0.92484 -0.11857,0.498 -0.18971,0.97228 v 0.332 q 0,0.61656 0.11857,1.20941 0.14228,0.56914 0.332,1.04342 0.18971,0.45056 0.40313,0.73513 0.21343,0.26086 0.40314,0.26086 0.45057,0 1.0197,-0.18972 0.59286,-0.18971 1.23313,-0.49799 0.664,-0.332 1.3517,-0.73513 0.68771,-0.42686 1.32799,-0.85371 1.49398,-0.99599 3.13025,-2.30026 l 1.94455,4.97994 q -2.11055,1.5177 -4.17367,2.7034 -0.90113,0.498 -1.87341,0.99599 -0.94856,0.47428 -1.92083,0.85371 -0.97228,0.37942 -1.89712,0.61656 -0.92485,0.21343 -1.73113,0.21343 z m 0.0237,-18.97122 q 1.06713,-1.89712 2.25283,-4.26852 1.20941,-2.3714 2.27654,-4.88509 1.06714,-2.51369 1.8497,-5.00366 0.78256,-2.51368 0.99599,-4.67166 0,-0.68771 -0.0474,-1.16199 -0.0237,-0.49799 -0.21343,-0.49799 -0.6877,0 -1.49398,0.90113 -0.78256,0.87742 -1.58884,2.39512 -0.78256,1.5177 -1.5177,3.53339 -0.71142,2.01569 -1.28055,4.29223 -0.56914,2.27655 -0.90114,4.69538 -0.33199,2.39512 -0.33199,4.67166 z"
         style="font-style:normal;font-variant:normal;font-weight:normal;font-stretch:normal;font-size:48.56631088px;font-family:Pacifico;-inkscape-font-specification:'Pacifico, Normal';font-variant-ligatures:normal;font-variant-caps:normal;font-variant-numeric:normal;font-feature-settings:normal;text-align:start;writing-mode:lr-tb;text-anchor:start;stroke-width:1.21416342"
         id="path857"
         inkscape:connector-curvature="0" />
      <path
         d="m 343.39062,136.37521 q 0,0.0949 -0.0237,0.47428 -0.0237,0.37942 -0.166,0.87742 -0.11857,0.49799 -0.40314,1.06713 -0.26085,0.54542 -0.75884,1.0197 -0.498,0.47428 -1.25685,0.78256 -0.75885,0.30829 -1.84969,0.30829 -0.87742,0 -1.58884,-0.21343 -0.71142,-0.23714 -1.23313,-0.68771 -0.49799,-0.47428 -0.78256,-1.1857 -0.28457,-0.73513 -0.28457,-1.75483 0,-0.85371 0.23714,-1.65999 0.26085,-0.82999 0.78256,-1.47026 0.52171,-0.64028 1.3517,-1.01971 0.82999,-0.37942 1.96827,-0.37942 1.96826,0 2.98796,0.99599 1.0197,0.99599 1.0197,2.84568 z"
         style="font-style:normal;font-variant:normal;font-weight:normal;font-stretch:normal;font-size:48.56631088px;font-family:Pacifico;-inkscape-font-specification:'Pacifico, Normal';font-variant-ligatures:normal;font-variant-caps:normal;font-variant-numeric:normal;font-feature-settings:normal;text-align:start;writing-mode:lr-tb;text-anchor:start;stroke-width:1.21416342"
         id="path859"
         inkscape:connector-curvature="0" />
      <path
         d="m 354.5125,140.90459 q -2.18169,0 -3.84167,-0.80628 -1.63627,-0.80628 -2.75083,-2.15798 -1.11455,-1.35169 -1.68369,-3.13025 -0.56914,-1.77855 -0.56914,-3.69938 0,-1.37542 0.28457,-2.8694 0.28457,-1.49398 0.82999,-2.91682 0.56914,-1.44656 1.37541,-2.75083 0.82999,-1.30427 1.89713,-2.27655 1.09084,-0.99598 2.41883,-1.56512 1.32798,-0.59285 2.91682,-0.59285 1.3517,0 2.48997,0.42685 1.16199,0.40314 1.96827,1.13827 0.82999,0.73514 1.28055,1.75484 0.47428,0.99599 0.47428,2.15798 0,0.80627 -0.21342,1.58884 -0.21343,0.78256 -0.64028,1.42284 -0.40314,0.61656 -0.99599,0.99599 -0.59285,0.37942 -1.32799,0.37942 -1.11455,0 -1.47026,-0.59285 -0.332,-0.59285 -0.332,-1.63627 0,-0.42685 0.0237,-0.90113 0.0474,-0.47428 0.0474,-0.8537 0,-0.56914 -0.11857,-0.94857 -0.11857,-0.37942 -0.52171,-0.37942 -0.97227,0 -1.65998,0.47428 -0.68771,0.45057 -1.1857,1.20942 -0.47428,0.73513 -0.75885,1.68369 -0.28457,0.92485 -0.45056,1.84969 -0.166,0.92485 -0.21343,1.77856 -0.0474,0.82999 -0.0474,1.39912 0,0.85371 0.14229,1.77855 0.16599,0.92485 0.59285,1.70741 0.42685,0.75885 1.16198,1.28056 0.73514,0.498 1.89712,0.498 1.13828,0 2.51369,-0.68771 1.37541,-0.71142 2.75083,-1.77855 1.39912,-1.06713 2.65597,-2.34769 1.25684,-1.28056 2.15797,-2.41883 l 1.63627,2.75083 q -1.77855,2.5374 -3.84167,4.52937 -0.87742,0.85371 -1.92084,1.65998 -1.0197,0.80628 -2.15797,1.44656 -1.11456,0.61656 -2.34769,1.0197 -1.20942,0.37943 -2.46626,0.37943 z"
         style="font-style:normal;font-variant:normal;font-weight:normal;font-stretch:normal;font-size:48.56631088px;font-family:Pacifico;-inkscape-font-specification:'Pacifico, Normal';font-variant-ligatures:normal;font-variant-caps:normal;font-variant-numeric:normal;font-feature-settings:normal;text-align:start;writing-mode:lr-tb;text-anchor:start;stroke-width:1.21416342"
         id="path861"
         inkscape:connector-curvature="0" />
      <path
         d="m 379.1988,123.14279 q 0.68771,1.37541 1.0197,2.91682 0.35571,1.5177 0.35571,2.91683 0,1.39912 -0.30828,2.82196 -0.30828,1.42284 -0.90113,2.75083 -0.56914,1.32798 -1.42284,2.48997 -0.82999,1.16199 -1.92084,2.01569 -1.06713,0.85371 -2.34769,1.3517 -1.28055,0.498 -2.72711,0.498 -2.08683,0 -3.58082,-0.90114 -1.47027,-0.92484 -2.41883,-2.39511 -0.94856,-1.47027 -1.39912,-3.31996 -0.42686,-1.8497 -0.42686,-3.74682 0,-2.60854 0.78257,-4.86137 0.78256,-2.27655 2.22911,-3.93653 1.47027,-1.6837 3.58082,-2.63226 2.11055,-0.97227 4.74281,-0.97227 2.25283,0 4.22109,0.71142 1.96826,0.68771 3.67567,1.87341 1.73113,1.16198 3.2014,2.67968 1.49398,1.5177 2.77454,3.13025 l -0.45057,3.34368 q -0.64028,-0.85371 -1.73112,-1.8497 -1.09085,-0.99598 -2.32398,-1.94455 -1.20941,-0.94856 -2.39511,-1.77855 -1.1857,-0.8537 -2.03941,-1.42284 z m -7.32763,13.20871 q 0.80627,0 1.56512,-0.80628 0.75885,-0.82999 1.32799,-2.06312 0.56913,-1.25684 0.90113,-2.75083 0.35571,-1.51769 0.35571,-2.89311 0,-1.09084 -0.166,-2.01569 -0.166,-0.94856 -0.49799,-1.63627 -0.332,-0.6877 -0.85371,-1.09084 -0.52171,-0.40314 -1.25684,-0.40314 -0.97227,0 -1.84969,0.82999 -0.87742,0.82999 -1.54141,2.13426 -0.664,1.28056 -1.04342,2.84568 -0.37943,1.56513 -0.37943,3.01169 0,0.99598 0.18972,1.8734 0.18971,0.87742 0.59285,1.54141 0.40314,0.64028 1.06713,1.04342 0.66399,0.37943 1.58884,0.37943 z"
         style="font-style:normal;font-variant:normal;font-weight:normal;font-stretch:normal;font-size:48.56631088px;font-family:Pacifico;-inkscape-font-specification:'Pacifico, Normal';font-variant-ligatures:normal;font-variant-caps:normal;font-variant-numeric:normal;font-feature-settings:normal;text-align:start;writing-mode:lr-tb;text-anchor:start;stroke-width:1.21416342"
         id="path863"
         inkscape:connector-curvature="0" />
      <path
         d="m 395.18204,136.47007 q 0,-0.30829 0.0474,-0.87742 0.0474,-0.56914 0.14228,-1.30427 0.0949,-0.73514 0.21343,-1.54142 0.11857,-0.82999 0.23714,-1.63626 0.26086,-1.89712 0.64028,-4.07881 h -0.35571 q -0.28457,0.35571 -0.66399,1.06713 -0.35571,0.71142 -1.01971,2.08683 -0.66399,1.37541 -1.70741,3.58082 -1.0197,2.18169 -2.65597,5.47794 -0.47428,0.97227 -1.11455,1.32798 -0.61657,0.332 -1.37542,0.332 -0.97227,0 -1.56512,-0.40314 -0.59285,-0.42685 -0.92485,-1.11456 -0.30828,-0.71142 -0.42685,-1.58884 -0.0949,-0.90113 -0.0949,-1.84969 0,-0.97228 0.11857,-2.30026 0.11857,-1.32799 0.30828,-2.79826 0.18972,-1.47027 0.42686,-2.98796 0.26085,-1.54141 0.52171,-2.94054 0.28456,-1.39913 0.56913,-2.56112 0.28457,-1.16198 0.52171,-1.89712 0.23714,-0.75885 0.45057,-1.20941 0.21342,-0.45057 0.47428,-0.68771 0.28456,-0.26085 0.66399,-0.332 0.37942,-0.0949 0.97227,-0.0949 0.90114,0 1.39913,0.0711 0.52171,0.0474 0.75885,0.28457 0.26085,0.21343 0.30828,0.64028 0.0474,0.42685 0.0474,1.16198 0,0.40314 -0.0474,0.92485 -0.0237,0.52171 -0.0949,1.11456 -0.0711,0.59285 -0.166,1.23313 -0.0711,0.61656 -0.166,1.20941 -0.21343,1.39913 -0.45057,2.89311 l 0.26086,0.28457 q 0.0474,-0.0711 0.49799,-0.90113 0.47428,-0.82999 1.13827,-1.99198 0.68771,-1.16198 1.47027,-2.41883 0.78257,-1.28055 1.49399,-2.25283 0.6877,-0.97227 1.44655,-1.61255 0.78257,-0.64028 1.8497,-0.64028 0.99598,0 1.70741,0.59285 0.71142,0.56914 0.71142,1.63627 0,0.92484 -0.11857,1.75483 -0.11857,0.82999 -0.30829,1.61256 -0.16599,0.78256 -0.35571,1.54141 -0.18971,0.73513 -0.35571,1.5177 -0.11857,0.54542 -0.14228,0.6877 -0.0237,0.14229 -0.0237,0.18971 l 0.26086,0.28457 q 0.0474,-0.0711 0.54542,-0.87742 0.498,-0.82999 1.20942,-1.99197 0.73513,-1.16199 1.54141,-2.44255 0.82999,-1.28055 1.54141,-2.25283 0.68771,-0.94856 1.37541,-1.58884 0.68771,-0.66399 1.6837,-0.66399 1.11456,0 1.8734,0.59285 0.78257,0.56914 0.78257,1.63627 0,1.63626 -0.166,3.10653 -0.166,1.47027 -0.37943,2.89311 -0.21342,1.42284 -0.37942,2.89311 -0.166,1.44656 -0.166,3.08283 0,1.28055 0.332,2.08683 0.332,0.80628 0.80628,0.80628 0.49799,0 1.04341,-0.21343 0.54542,-0.21343 1.11456,-0.54542 0.56914,-0.332 1.11456,-0.75885 0.54542,-0.45057 1.04342,-0.92485 1.16198,-1.09084 2.30026,-2.46626 l 0.40314,5.59651 q -1.04342,0.82999 -2.08684,1.73113 -1.0197,0.87741 -2.18169,1.61255 -1.13827,0.71142 -2.51368,1.1857 -1.37542,0.45057 -3.10654,0.45057 -0.85371,0 -1.44656,-0.54543 -0.56913,-0.56913 -0.92484,-1.56512 -0.35571,-0.99599 -0.52171,-2.34769 -0.14229,-1.3517 -0.14229,-2.94054 0,-1.49398 0.0949,-3.15396 0.11857,-1.6837 0.30828,-3.39111 h -0.35571 l -4.81394,12.26015 q -0.61657,0.99599 -1.37542,1.3517 -0.75884,0.332 -1.75483,0.332 -0.75885,0 -1.20942,-0.40314 -0.45056,-0.42685 -0.71142,-1.06713 -0.23714,-0.66399 -0.332,-1.44656 -0.0711,-0.78256 -0.0711,-1.51769 z"
         style="font-style:normal;font-variant:normal;font-weight:normal;font-stretch:normal;font-size:48.56631088px;font-family:Pacifico;-inkscape-font-specification:'Pacifico, Normal';font-variant-ligatures:normal;font-variant-caps:normal;font-variant-numeric:normal;font-feature-settings:normal;text-align:start;writing-mode:lr-tb;text-anchor:start;stroke-width:1.21416342"
         id="path865"
         inkscape:connector-curvature="0" />
    </g>
  </g>
</svg>
