<?xml version="1.0" encoding="UTF-8" standalone="no"?>
<!-- Generator: Adobe Illustrator 16.0.0, SVG Export Plug-In . SVG Version: 6.00 Build 0)  -->

<svg
   xmlns:dc="http://purl.org/dc/elements/1.1/"
   xmlns:cc="http://creativecommons.org/ns#"
   xmlns:rdf="http://www.w3.org/1999/02/22-rdf-syntax-ns#"
   xmlns:svg="http://www.w3.org/2000/svg"
   xmlns="http://www.w3.org/2000/svg"
   xmlns:sodipodi="http://sodipodi.sourceforge.net/DTD/sodipodi-0.dtd"
   xmlns:inkscape="http://www.inkscape.org/namespaces/inkscape"
   version="1.1"
   id="Capa_1"
   x="0px"
   y="0px"
   width="3005.7903"
   height="485.21201"
   viewBox="0 0 3005.7902 485.212"
   xml:space="preserve"
   sodipodi:docname="phoneNumber.svg"
   inkscape:version="0.92.4 (5da689c313, 2019-01-14)"><metadata
   id="metadata41"><rdf:RDF><cc:Work
       rdf:about=""><dc:format>image/svg+xml</dc:format><dc:type
         rdf:resource="http://purl.org/dc/dcmitype/StillImage" /><dc:title></dc:title></cc:Work></rdf:RDF></metadata><defs
   id="defs39" /><sodipodi:namedview
   pagecolor="#ffffff"
   bordercolor="#666666"
   borderopacity="1"
   objecttolerance="10"
   gridtolerance="10"
   guidetolerance="10"
   inkscape:pageopacity="0"
   inkscape:pageshadow="2"
   inkscape:window-width="1920"
   inkscape:window-height="1001"
   id="namedview37"
   showgrid="false"
   fit-margin-top="0"
   fit-margin-left="0"
   fit-margin-right="0"
   fit-margin-bottom="0"
   inkscape:zoom="0.12159633"
   inkscape:cx="3091.3337"
   inkscape:cy="-443.73879"
   inkscape:window-x="-9"
   inkscape:window-y="-9"
   inkscape:window-maximized="1"
   inkscape:current-layer="Capa_1"
   showborder="false" />

<g
   id="g6"
   transform="translate(-2.9085992,-455.99033)">
</g>
<g
   id="g8"
   transform="translate(-2.9085992,-455.99033)">
</g>
<g
   id="g10"
   transform="translate(-2.9085992,-455.99033)">
</g>
<g
   id="g12"
   transform="translate(-2.9085992,-455.99033)">
</g>
<g
   id="g14"
   transform="translate(-2.9085992,-455.99033)">
</g>
<g
   id="g16"
   transform="translate(-2.9085992,-455.99033)">
</g>
<g
   id="g18"
   transform="translate(-2.9085992,-455.99033)">
</g>
<g
   id="g20"
   transform="translate(-2.9085992,-455.99033)">
</g>
<g
   id="g22"
   transform="translate(-2.9085992,-455.99033)">
</g>
<g
   id="g24"
   transform="translate(-2.9085992,-455.99033)">
</g>
<g
   id="g26"
   transform="translate(-2.9085992,-455.99033)">
</g>
<g
   id="g28"
   transform="translate(-2.9085992,-455.99033)">
</g>
<g
   id="g30"
   transform="translate(-2.9085992,-455.99033)">
</g>
<g
   id="g32"
   transform="translate(-2.9085992,-455.99033)">
</g>
<g
   id="g34"
   transform="translate(-2.9085992,-455.99033)">
</g>
<g
   id="g866"
   transform="translate(-2.9075992,-455.99033)"><g
     transform="translate(2.9065992,444.86267)"
     id="g4">
	<path
   inkscape:connector-curvature="0"
   id="path2"
   d="m 242.607,11.12766 c -133.978,0 -242.606,108.628 -242.606,242.606 0,133.976 108.628,242.606 242.606,242.606 133.978,0 242.604,-108.631 242.604,-242.606 10e-4,-133.978 -108.626,-242.606 -242.604,-242.606 z m 128.112,353.989 -19.425,19.429 c -3.468,3.463 -13.623,5.624 -13.949,5.624 -61.452,0.536 -120.621,-23.602 -164.095,-67.08 -43.593,-43.618 -67.759,-102.998 -67.11,-164.657 0,-0.028 2.224,-9.892 5.689,-13.324 l 19.424,-19.427 c 7.108,-7.141 20.762,-10.368 30.327,-7.168 l 4.086,1.363 c 9.537,3.197 19.55,13.742 22.185,23.457 l 9.771,35.862 c 2.635,9.743 -0.919,23.604 -8.025,30.712 l -12.97,12.972 c 12.734,47.142 49.723,84.138 96.873,96.903 l 12.965,-12.975 c 7.141,-7.141 20.997,-10.692 30.719,-8.061 l 35.857,9.806 c 9.717,2.67 20.26,12.62 23.456,22.154 l 1.363,4.145 c 3.168,9.538 -0.034,23.189 -7.141,30.265 z" />
</g><g
     id="text833"
     style="font-style:normal;font-variant:normal;font-weight:normal;font-stretch:normal;font-size:611.81652832px;line-height:1.25;font-family:Pacifico;-inkscape-font-specification:'Pacifico, Normal';font-variant-ligatures:normal;font-variant-caps:normal;font-variant-numeric:normal;font-feature-settings:normal;text-align:start;letter-spacing:0px;word-spacing:0px;writing-mode:lr-tb;text-anchor:start;fill:#000000;fill-opacity:1;stroke:none;stroke-width:15.29541302"
     aria-label="512 818 102"><path
       id="path835"
       style="stroke-width:15.29541302"
       d="m 691.38296,614.50143 q -12.54702,-1.19495 -21.21044,-2.68864 -8.36468,-1.79244 -14.63819,-2.98739 -6.2735,-1.49369 -11.05332,-2.38991 -4.77982,-0.89621 -10.15711,-0.89621 -1.79243,0 -3.8836,0.29873 -2.09117,0 -4.48108,0.29874 1.19495,7.16973 2.38991,15.23567 1.19495,6.87098 2.38991,15.83314 1.49369,8.96216 3.58486,18.52179 17.92431,-1.79243 33.45871,-1.79243 28.6789,0 48.69439,5.37729 20.01548,5.07856 33.15997,13.74198 13.44324,8.36467 20.9117,19.418 7.46847,11.05333 11.05333,22.70413 3.8836,11.35206 4.77981,22.70413 0.89622,11.05332 0.89622,20.01548 0,17.0281 -8.96216,33.75746 -8.96215,16.72935 -25.09403,30.17259 -15.83315,13.14449 -37.9398,21.50917 -22.10665,8.06594 -48.39564,8.06594 -27.78269,0 -47.79817,-5.97477 -19.71674,-5.97477 -32.5625,-17.02809 -12.54702,-11.05333 -18.52179,-26.289 -5.67603,-15.5344 -5.67603,-34.05619 0,-11.35206 3.28612,-18.82053 3.58487,-7.7672 9.2609,-12.24828 5.67603,-4.77981 13.14449,-6.57224 7.46847,-2.09117 15.53441,-2.09117 6.87099,0 15.5344,1.79243 8.66342,1.49369 16.13188,4.18234 7.46847,2.68864 12.54702,5.97477 5.07856,3.28612 5.07856,6.27351 0,2.3899 -5.07856,3.8836 -5.07855,1.49369 -11.35206,4.18234 -6.27351,2.38991 -11.35207,6.57224 -5.07855,3.88361 -5.07855,11.05333 0,10.15711 2.09117,17.32684 2.09117,7.16972 5.67603,11.6508 3.8836,4.48108 8.66342,6.57225 5.07855,2.09117 10.45585,2.09117 9.85837,0 20.01548,-4.18234 10.15711,-4.18234 18.22305,-11.35207 8.36468,-7.46846 13.44323,-17.62557 5.3773,-10.15711 5.3773,-22.10665 0,-14.63819 -4.18234,-24.49656 -4.18234,-10.15711 -12.84576,-16.43062 -8.36468,-6.27351 -21.50917,-9.55964 -12.84576,-3.28612 -30.1726,-4.77981 -8.66341,-1.4937 -14.63818,-2.09117 -5.97478,-0.89622 -10.15711,-2.68865 -3.88361,-1.79243 -6.57225,-5.67603 -2.38991,-3.8836 -3.8836,-11.35207 -1.19496,-7.7672 -1.79243,-20.01548 -0.59748,-12.24828 -0.89622,-30.77007 -0.59748,-8.96215 -1.19495,-16.43062 -0.29874,-7.7672 -0.29874,-14.63819 0,-23.00286 3.28612,-34.35493 3.28612,-11.6508 7.46846,-16.13188 4.48108,-4.48108 8.96216,-4.48108 h 7.46846 q 8.66342,0 17.32684,1.79243 8.96216,1.4937 17.92431,3.58487 8.96216,1.79243 18.22305,3.58486 9.55964,1.49369 19.11927,1.49369 2.98738,0 5.67603,0 2.98739,-0.29874 5.97477,-0.89621 13.44324,-2.98739 19.11927,-5.07856 5.67603,-2.09117 7.7672,-3.28612 2.09117,-1.4937 2.38991,-2.09117 0.59748,-0.89622 3.8836,-0.89622 11.05333,0 15.83314,10.75459 5.07856,10.45585 5.07856,27.78268 v 1.4937 q 0,1.49369 -1.79243,4.48107 -1.4937,2.68865 -5.67604,6.57225 -3.8836,3.58486 -11.6508,8.06594 -7.7672,4.18234 -20.01548,8.36468 -12.24828,4.18234 -30.77007,8.06594 z"
       inkscape:connector-curvature="0" /><path
       id="path837"
       style="stroke-width:15.29541302"
       d="m 892.73273,592.69352 q -4.48108,4.77982 -9.85837,9.85837 -5.07856,4.77982 -10.15711,8.96216 -4.77982,3.8836 -8.96216,6.57224 -4.18234,2.38991 -6.27351,2.38991 -28.08142,0 -43.01835,-4.77981 -14.93692,-5.07856 -14.93692,-10.15711 0,-3.28613 6.27351,-5.3773 6.27351,-2.09117 19.418,-2.09117 3.28612,0 9.85837,-4.77981 6.57225,-5.07856 15.53441,-12.54702 9.26089,-7.46847 20.31422,-16.13188 11.05332,-8.66342 22.70413,-16.13189 11.6508,-7.46846 23.60034,-12.24828 11.94954,-5.07855 23.30161,-5.07855 16.13188,0 21.50917,2.38991 5.3773,2.09117 5.3773,6.27351 0,4.48108 -1.19496,11.05332 -1.19495,6.57225 -1.19495,15.53441 0,0 -1.79243,10.75458 -1.4937,10.75459 -4.18234,28.08143 -2.68865,17.32683 -6.27351,39.43348 -3.28613,21.80792 -6.57225,44.51205 -3.28612,22.40539 -6.27351,43.91456 -2.98739,21.21044 -5.07856,37.04358 -0.89621,3.58486 -2.3899,10.75459 -1.19496,7.16972 -3.58487,15.83314 -2.3899,8.36468 -5.97477,17.32684 -3.28612,8.66341 -8.06594,16.13188 -4.77981,7.16972 -11.35206,11.94954 -6.27351,4.48108 -14.33945,4.48108 -9.85837,0 -18.52179,-1.19496 -8.66342,-1.19495 -14.93693,-3.58486 -6.27351,-2.68865 -9.85837,-6.57225 -3.58486,-4.18234 -3.58486,-9.85837 0,-2.38991 0.29874,-4.77982 0.29873,-2.3899 2.3899,-5.97477 4.77982,-17.32683 9.2609,-35.84862 4.77982,-18.82053 8.96216,-37.64106 4.48107,-18.82053 8.36467,-37.04358 3.88361,-18.52179 7.16973,-34.95241 7.7672,-38.53727 14.04071,-76.47706 z"
       inkscape:connector-curvature="0" /><path
       id="path839"
       style="stroke-width:15.29541302"
       d="m 1222.8388,846.32254 q -8.6634,0 -17.6256,-2.38991 -8.6634,-2.68865 -17.6255,-6.87099 -8.6634,-4.48107 -17.6256,-9.85837 -8.6634,-5.67603 -17.3268,-11.94954 -17.3269,13.1445 -36.7449,21.50918 -19.418,8.06594 -41.2259,9.55963 -15.5344,0 -28.9776,-5.3773 -13.4433,-5.67603 -23.6004,-14.63818 -9.8583,-9.2609 -15.5344,-21.21044 -5.676,-11.94954 -5.676,-24.49656 0,-9.85837 3.2861,-20.01548 3.2861,-10.45585 10.1571,-18.82053 7.1697,-8.66342 17.9243,-14.04071 11.0534,-5.3773 26.5878,-5.3773 23.6003,0 41.5246,6.87099 18.2231,6.87099 33.4587,16.43062 8.9622,-10.75459 16.7294,-23.00287 8.0659,-12.54702 14.0407,-25.69151 5.9748,-13.1445 9.2609,-26.28899 3.5849,-13.44324 3.5849,-26.28899 0,-21.80792 -4.1824,-35.54989 -4.1823,-14.04071 -11.0533,-21.80791 -6.5722,-7.76721 -14.6382,-10.45585 -8.0659,-2.98739 -15.8331,-2.98739 -9.5597,0 -18.2231,3.28613 -8.3647,3.28612 -15.2356,9.26089 -6.5723,5.67603 -10.4559,13.74197 -3.8836,8.06594 -3.8836,17.92432 0,5.37729 8.3647,11.05332 8.6634,5.67603 27.4839,11.6508 0.5975,1.79244 0.5975,2.98739 0,3.58486 -6.871,7.7672 -6.871,3.8836 -17.3268,7.46847 -10.1571,3.28612 -22.4054,5.67603 -12.2483,2.09117 -23.0029,2.09117 -2.3899,-2.38991 -4.7798,-2.68865 -2.0912,-0.29874 -3.8836,-0.29874 -12.547,-10.15711 -18.223,-21.80791 -5.6761,-11.94954 -5.6761,-24.49656 0,-16.72936 9.2609,-33.15998 9.5597,-16.72936 25.6915,-29.87385 16.4307,-13.1445 38.2386,-21.21044 22.1066,-8.06594 46.9019,-8.06594 6.5723,0 17.3269,1.49369 11.0533,1.19496 23.6003,5.3773 12.8458,4.18234 25.6915,11.6508 13.1445,7.16972 23.6004,19.11927 10.7545,11.94954 17.3268,29.27637 6.871,17.32684 6.871,40.92718 0,13.1445 -4.4811,31.06881 -4.1823,17.62557 -12.547,37.64106 -8.066,19.71674 -20.3142,40.3297 -11.9496,20.61296 -27.1852,38.83601 10.1571,5.07855 20.9116,8.36468 11.0534,2.98738 24.1979,2.98738 3.2861,0 7.1697,-4.48107 4.1823,-4.77982 7.7672,-10.45585 3.5849,-5.67604 6.5722,-10.15711 3.2862,-4.77982 4.7799,-4.77982 4.1823,0 6.5722,3.28612 2.6887,3.28613 2.6887,11.65081 0,11.05332 -4.7799,31.96502 -1.4937,5.97477 -4.1823,12.54702 -2.6886,6.57225 -7.4685,12.24828 -4.7798,5.37729 -12.2482,8.96216 -7.1698,3.58486 -17.3269,3.58486 z m -152.0579,-56.76032 q 12.547,0 30.1726,-12.54702 -7.1697,-4.48108 -13.742,-7.16973 -6.2735,-2.68864 -11.352,-2.68864 -13.4433,0 -19.1193,2.3899 -5.3773,2.38991 -5.3773,5.97477 0,2.68865 1.4937,5.07856 1.7924,2.38991 4.4811,4.48108 2.6886,2.09117 6.2735,3.28612 3.5848,1.19496 7.1697,1.19496 z"
       inkscape:connector-curvature="0" /><path
       id="path841"
       style="stroke-width:15.29541302"
       d="m 1481.8451,599.5645 q 0,-21.80791 10.4559,-38.23853 10.7546,-16.43062 27.4839,-27.18521 16.7294,-11.05332 37.6411,-16.43061 21.2104,-5.3773 41.8234,-5.3773 17.3268,0 33.16,3.58486 15.8331,3.58487 27.7826,10.75459 11.9496,7.16973 19.1193,17.92431 7.1697,10.75459 7.1697,25.09404 0,25.99025 -7.4684,45.10952 -7.4685,19.11927 -19.7168,33.45872 -12.2482,14.33945 -28.6789,25.09403 -16.1318,10.45585 -33.4587,19.11927 13.1445,9.85837 25.3928,20.61296 12.2483,10.45585 21.8079,22.40539 9.5596,11.94954 15.2357,25.69151 5.676,13.74198 5.676,29.87386 0,20.9117 -8.6634,38.23853 -8.3647,17.0281 -23.6004,29.27638 -14.9369,12.54702 -35.5498,19.418 -20.613,6.87099 -45.1096,6.87099 -17.3268,0 -35.8486,-3.58486 -18.5218,-3.58487 -34.0562,-13.1445 -15.2356,-9.55963 -25.3928,-26.28899 -9.8583,-17.0281 -9.8583,-43.61583 0,-22.70413 6.871,-40.03096 7.1697,-17.62557 18.5217,-31.36755 11.3521,-14.04071 25.9903,-24.7953 14.6382,-10.75458 29.8739,-20.31422 -24.1979,-15.5344 -35.5499,-37.34231 -11.0534,-22.10666 -11.0534,-44.81079 z m 104.8573,-50.48681 q -8.6635,0 -16.7294,2.98739 -7.7672,2.68864 -13.742,8.06594 -5.676,5.37729 -9.2609,13.14449 -3.2861,7.46847 -3.2861,17.0281 0,7.7672 1.4937,16.43062 1.7924,8.66342 5.0786,17.32684 3.2861,8.66341 7.7672,17.02809 4.7798,8.06594 11.0533,14.63819 10.1571,-6.27351 19.418,-15.83314 9.5596,-9.85837 17.0281,-20.61296 7.4685,-10.75459 11.9495,-21.50918 4.4811,-10.75458 4.4811,-19.418 0,-7.46846 -2.9874,-12.84576 -2.9874,-5.67603 -8.0659,-9.26089 -4.7798,-3.58487 -11.3521,-5.3773 -6.2735,-1.79243 -12.8457,-1.79243 z m 2.0911,226.74255 q 0,-15.23566 -7.4684,-26.58773 -7.1698,-11.35206 -17.6256,-21.80791 -11.6508,5.37729 -21.8079,11.6508 -9.8584,6.27351 -17.3268,14.04071 -7.1698,7.76721 -11.3521,17.62558 -3.8836,9.55963 -3.8836,21.80791 0,9.55963 2.6886,16.72936 2.9874,7.16972 7.4685,12.24828 4.4811,4.77982 9.8584,7.46846 5.3773,2.38991 10.4558,2.38991 8.9622,0 17.6256,-3.28612 8.9621,-3.58487 15.8331,-10.45585 7.1698,-7.16973 11.3521,-17.32684 4.1823,-10.45585 4.1823,-24.49656 z"
       inkscape:connector-curvature="0" /><path
       id="path843"
       style="stroke-width:15.29541302"
       d="m 1772.219,592.69352 q -4.4811,4.77982 -9.8584,9.85837 -5.0785,4.77982 -10.1571,8.96216 -4.7798,3.8836 -8.9621,6.57224 -4.1824,2.38991 -6.2735,2.38991 -28.0815,0 -43.0184,-4.77981 -14.9369,-5.07856 -14.9369,-10.15711 0,-3.28613 6.2735,-5.3773 6.2735,-2.09117 19.418,-2.09117 3.2861,0 9.8584,-4.77981 6.5722,-5.07856 15.5344,-12.54702 9.2609,-7.46847 20.3142,-16.13188 11.0533,-8.66342 22.7041,-16.13189 11.6508,-7.46846 23.6004,-12.24828 11.9495,-5.07855 23.3016,-5.07855 16.1319,0 21.5092,2.38991 5.3772,2.09117 5.3772,6.27351 0,4.48108 -1.1949,11.05332 -1.195,6.57225 -1.195,15.53441 0,0 -1.7924,10.75458 -1.4937,10.75459 -4.1823,28.08143 -2.6887,17.32683 -6.2735,39.43348 -3.2862,21.80792 -6.5723,44.51205 -3.2861,22.40539 -6.2735,43.91456 -2.9874,21.21044 -5.0786,37.04358 -0.8962,3.58486 -2.3899,10.75459 -1.1949,7.16972 -3.5848,15.83314 -2.3899,8.36468 -5.9748,17.32684 -3.2861,8.66341 -8.0659,16.13188 -4.7799,7.16972 -11.3521,11.94954 -6.2735,4.48108 -14.3394,4.48108 -9.8584,0 -18.5218,-1.19496 -8.6635,-1.19495 -14.937,-3.58486 -6.2735,-2.68865 -9.8583,-6.57225 -3.5849,-4.18234 -3.5849,-9.85837 0,-2.38991 0.2987,-4.77982 0.2988,-2.3899 2.3899,-5.97477 4.7799,-17.32683 9.2609,-35.84862 4.7799,-18.82053 8.9622,-37.64106 4.4811,-18.82053 8.3647,-37.04358 3.8836,-18.52179 7.1697,-34.95241 7.7672,-38.53727 14.0407,-76.47706 z"
       inkscape:connector-curvature="0" /><path
       id="path845"
       style="stroke-width:15.29541302"
       d="m 1921.5883,599.5645 q 0,-21.80791 10.4559,-38.23853 10.7545,-16.43062 27.4839,-27.18521 16.7294,-11.05332 37.6411,-16.43061 21.2104,-5.3773 41.8233,-5.3773 17.3269,0 33.16,3.58486 15.8332,3.58487 27.7827,10.75459 11.9496,7.16973 19.1193,17.92431 7.1697,10.75459 7.1697,25.09404 0,25.99025 -7.4685,45.10952 -7.4684,19.11927 -19.7167,33.45872 -12.2483,14.33945 -28.6789,25.09403 -16.1319,10.45585 -33.4587,19.11927 13.1445,9.85837 25.3928,20.61296 12.2482,10.45585 21.8079,22.40539 9.5596,11.94954 15.2356,25.69151 5.6761,13.74198 5.6761,29.87386 0,20.9117 -8.6635,38.23853 -8.3646,17.0281 -23.6003,29.27638 -14.9369,12.54702 -35.5499,19.418 -20.6129,6.87099 -45.1095,6.87099 -17.3268,0 -35.8486,-3.58486 -18.5218,-3.58487 -34.0562,-13.1445 -15.2357,-9.55963 -25.3928,-26.28899 -9.8584,-17.0281 -9.8584,-43.61583 0,-22.70413 6.871,-40.03096 7.1697,-17.62557 18.5218,-31.36755 11.3521,-14.04071 25.9903,-24.7953 14.6382,-10.75458 29.8738,-20.31422 -24.1978,-15.5344 -35.5499,-37.34231 -11.0533,-22.10666 -11.0533,-44.81079 z m 104.8572,-50.48681 q -8.6634,0 -16.7293,2.98739 -7.7672,2.68864 -13.742,8.06594 -5.676,5.37729 -9.2609,13.14449 -3.2861,7.46847 -3.2861,17.0281 0,7.7672 1.4937,16.43062 1.7924,8.66342 5.0785,17.32684 3.2862,8.66341 7.7672,17.02809 4.7798,8.06594 11.0534,14.63819 10.1571,-6.27351 19.418,-15.83314 9.5596,-9.85837 17.0281,-20.61296 7.4684,-10.75459 11.9495,-21.50918 4.4811,-10.75458 4.4811,-19.418 0,-7.46846 -2.9874,-12.84576 -2.9874,-5.67603 -8.0659,-9.26089 -4.7799,-3.58487 -11.3521,-5.3773 -6.2735,-1.79243 -12.8458,-1.79243 z m 2.0912,226.74255 q 0,-15.23566 -7.4685,-26.58773 -7.1697,-11.35206 -17.6255,-21.80791 -11.6508,5.37729 -21.8079,11.6508 -9.8584,6.27351 -17.3269,14.04071 -7.1697,7.76721 -11.352,17.62558 -3.8837,9.55963 -3.8837,21.80791 0,9.55963 2.6887,16.72936 2.9874,7.16972 7.4685,12.24828 4.481,4.77982 9.8583,7.46846 5.3773,2.38991 10.4559,2.38991 8.9621,0 17.6256,-3.28612 8.9621,-3.58487 15.8331,-10.45585 7.1697,-7.16973 11.3521,-17.32684 4.1823,-10.45585 4.1823,-24.49656 z"
       inkscape:connector-curvature="0" /><path
       id="path847"
       style="stroke-width:15.29541302"
       d="m 2374.4758,592.69352 q -4.481,4.77982 -9.8583,9.85837 -5.0786,4.77982 -10.1571,8.96216 -4.7798,3.8836 -8.9622,6.57224 -4.1823,2.38991 -6.2735,2.38991 -28.0814,0 -43.0183,-4.77981 -14.937,-5.07856 -14.937,-10.15711 0,-3.28613 6.2735,-5.3773 6.2735,-2.09117 19.418,-2.09117 3.2862,0 9.8584,-4.77981 6.5723,-5.07856 15.5344,-12.54702 9.2609,-7.46847 20.3142,-16.13188 11.0534,-8.66342 22.7042,-16.13189 11.6508,-7.46846 23.6003,-12.24828 11.9496,-5.07855 23.3016,-5.07855 16.1319,0 21.5092,2.38991 5.3773,2.09117 5.3773,6.27351 0,4.48108 -1.195,11.05332 -1.1949,6.57225 -1.1949,15.53441 0,0 -1.7925,10.75458 -1.4936,10.75459 -4.1823,28.08143 -2.6886,17.32683 -6.2735,39.43348 -3.2861,21.80792 -6.5723,44.51205 -3.2861,22.40539 -6.2735,43.91456 -2.9873,21.21044 -5.0785,37.04358 -0.8962,3.58486 -2.3899,10.75459 -1.195,7.16972 -3.5849,15.83314 -2.3899,8.36468 -5.9748,17.32684 -3.2861,8.66341 -8.0659,16.13188 -4.7798,7.16972 -11.3521,11.94954 -6.2735,4.48108 -14.3394,4.48108 -9.8584,0 -18.5218,-1.19496 -8.6634,-1.19495 -14.9369,-3.58486 -6.2735,-2.68865 -9.8584,-6.57225 -3.5849,-4.18234 -3.5849,-9.85837 0,-2.38991 0.2988,-4.77982 0.2987,-2.3899 2.3899,-5.97477 4.7798,-17.32683 9.2609,-35.84862 4.7798,-18.82053 8.9621,-37.64106 4.4811,-18.82053 8.3647,-37.04358 3.8836,-18.52179 7.1697,-34.95241 7.7672,-38.53727 14.0407,-76.47706 z"
       inkscape:connector-curvature="0" /><path
       id="path849"
       style="stroke-width:15.29541302"
       d="m 2582.6966,846.62128 q -23.0028,0 -40.3297,-9.85837 -17.0281,-10.15712 -28.3801,-26.88647 -11.3521,-17.0281 -17.0281,-39.13475 -5.6761,-22.40539 -5.6761,-47.20069 0,-21.80791 3.8836,-44.51204 4.1824,-23.00287 11.9496,-44.21331 7.7672,-21.50917 19.1192,-40.3297 11.6509,-19.11927 26.5878,-33.15998 14.9369,-14.33945 33.16,-22.40539 18.5217,-8.36468 40.0309,-8.36468 24.7953,0 42.7196,9.55964 18.2231,9.26089 29.8739,25.39277 11.6508,16.13188 17.0281,37.64106 5.676,21.21043 5.676,45.10952 0,22.10665 -4.4811,45.40825 -4.1823,23.30161 -12.547,45.40826 -8.3647,22.10665 -20.6129,41.8234 -11.9496,19.418 -27.484,34.05619 -15.2357,14.63819 -33.7574,23.30161 -18.5218,8.36468 -39.7323,8.36468 z m 4.7798,-54.37042 q 8.066,0 15.8332,-7.16972 7.7672,-7.46847 14.6382,-19.71675 6.871,-12.24828 12.547,-28.08142 5.9748,-15.83314 10.1571,-32.5625 4.1823,-17.0281 6.5723,-33.75745 2.3899,-16.72936 2.3899,-30.77007 0,-11.65081 -1.4937,-21.80792 -1.4937,-10.15711 -4.4811,-17.62557 -2.9874,-7.46846 -7.7672,-11.6508 -4.4811,-4.48108 -11.0533,-4.48108 -8.9622,0 -17.0281,7.46846 -7.7672,7.16973 -14.6382,19.11927 -6.5723,11.94954 -11.9496,27.48394 -5.0785,15.53441 -8.9621,32.26377 -3.5849,16.43062 -5.676,32.86124 -1.7925,16.13188 -1.7925,29.87385 0,12.54702 1.195,23.30161 1.4937,10.45584 4.1823,18.52178 2.9874,7.76721 7.1697,12.24828 4.4811,4.48108 10.1571,4.48108 z"
       inkscape:connector-curvature="0" /><path
       id="path851"
       style="stroke-width:15.29541302"
       d="m 2962.6921,846.32254 q -8.6635,0 -17.6256,-2.38991 -8.6634,-2.68865 -17.6256,-6.87099 -8.6634,-4.48107 -17.6256,-9.85837 -8.6634,-5.67603 -17.3268,-11.94954 -17.3268,13.1445 -36.7448,21.50918 -19.418,8.06594 -41.226,9.55963 -15.5344,0 -28.9776,-5.3773 -13.4432,-5.67603 -23.6003,-14.63818 -9.8584,-9.2609 -15.5344,-21.21044 -5.6761,-11.94954 -5.6761,-24.49656 0,-9.85837 3.2862,-20.01548 3.2861,-10.45585 10.1571,-18.82053 7.1697,-8.66342 17.9243,-14.04071 11.0533,-5.3773 26.5877,-5.3773 23.6003,0 41.5247,6.87099 18.223,6.87099 33.4587,16.43062 8.9621,-10.75459 16.7293,-23.00287 8.066,-12.54702 14.0407,-25.69151 5.9748,-13.1445 9.2609,-26.28899 3.5849,-13.44324 3.5849,-26.28899 0,-21.80792 -4.1823,-35.54989 -4.1824,-14.04071 -11.0534,-21.80791 -6.5722,-7.76721 -14.6381,-10.45585 -8.066,-2.98739 -15.8332,-2.98739 -9.5596,0 -18.223,3.28613 -8.3647,3.28612 -15.2357,9.26089 -6.5723,5.67603 -10.4559,13.74197 -3.8836,8.06594 -3.8836,17.92432 0,5.37729 8.3647,11.05332 8.6634,5.67603 27.484,11.6508 0.5974,1.79244 0.5974,2.98739 0,3.58486 -6.8709,7.7672 -6.871,3.8836 -17.3269,7.46847 -10.1571,3.28612 -22.4054,5.67603 -12.2482,2.09117 -23.0028,2.09117 -2.3899,-2.38991 -4.7799,-2.68865 -2.0911,-0.29874 -3.8836,-0.29874 -12.547,-10.15711 -18.223,-21.80791 -5.676,-11.94954 -5.676,-24.49656 0,-16.72936 9.2609,-33.15998 9.5596,-16.72936 25.6915,-29.87385 16.4306,-13.1445 38.2385,-21.21044 22.1067,-8.06594 46.902,-8.06594 6.5722,0 17.3268,1.49369 11.0533,1.19496 23.6003,5.3773 12.8458,4.18234 25.6916,11.6508 13.1444,7.16972 23.6003,19.11927 10.7546,11.94954 17.3268,29.27637 6.871,17.32684 6.871,40.92718 0,13.1445 -4.4811,31.06881 -4.1823,17.62557 -12.547,37.64106 -8.0659,19.71674 -20.3142,40.3297 -11.9495,20.61296 -27.1852,38.83601 10.1571,5.07855 20.9117,8.36468 11.0533,2.98738 24.1978,2.98738 3.2861,0 7.1697,-4.48107 4.1824,-4.77982 7.7672,-10.45585 3.5849,-5.67604 6.5723,-10.15711 3.2861,-4.77982 4.7798,-4.77982 4.1823,0 6.5723,3.28612 2.6886,3.28613 2.6886,11.65081 0,11.05332 -4.7798,31.96502 -1.4937,5.97477 -4.1824,12.54702 -2.6886,6.57225 -7.4684,12.24828 -4.7798,5.37729 -12.2483,8.96216 -7.1697,3.58486 -17.3268,3.58486 z m -152.058,-56.76032 q 12.5471,0 30.1726,-12.54702 -7.1697,-4.48108 -13.7419,-7.16973 -6.2735,-2.68864 -11.3521,-2.68864 -13.4432,0 -19.1193,2.3899 -5.3773,2.38991 -5.3773,5.97477 0,2.68865 1.4937,5.07856 1.7925,2.38991 4.4811,4.48108 2.6887,2.09117 6.2735,3.28612 3.5849,1.19496 7.1697,1.19496 z"
       inkscape:connector-curvature="0" /></g></g></svg>