<?xml version="1.0" encoding="UTF-8" standalone="no"?>
<!-- Created with Inkscape (http://www.inkscape.org/) -->

<svg
   xmlns:dc="http://purl.org/dc/elements/1.1/"
   xmlns:cc="http://creativecommons.org/ns#"
   xmlns:rdf="http://www.w3.org/1999/02/22-rdf-syntax-ns#"
   xmlns:svg="http://www.w3.org/2000/svg"
   xmlns="http://www.w3.org/2000/svg"
   xmlns:sodipodi="http://sodipodi.sourceforge.net/DTD/sodipodi-0.dtd"
   xmlns:inkscape="http://www.inkscape.org/namespaces/inkscape"
   width="296.10223mm"
   height="86.419373mm"
   viewBox="0 0 296.10223 86.419373"
   version="1.1"
   id="svg8"
   inkscape:version="0.92.4 (5da689c313, 2019-01-14)"
   sodipodi:docname="projectName03SM.svg">
  <defs
     id="defs2" />
  <sodipodi:namedview
     id="base"
     pagecolor="#ffffff"
     bordercolor="#666666"
     borderopacity="1.0"
     inkscape:pageopacity="0.0"
     inkscape:pageshadow="2"
     inkscape:zoom="0.49497475"
     inkscape:cx="331.00438"
     inkscape:cy="239.3966"
     inkscape:document-units="mm"
     inkscape:current-layer="layer1"
     showgrid="false"
     inkscape:window-width="1920"
     inkscape:window-height="1001"
     inkscape:window-x="-9"
     inkscape:window-y="-9"
     inkscape:window-maximized="1"
     showborder="false"
     fit-margin-top="0"
     fit-margin-left="0"
     fit-margin-right="0"
     fit-margin-bottom="0" />
  <metadata
     id="metadata5">
    <rdf:RDF>
      <cc:Work
         rdf:about="">
        <dc:format>image/svg+xml</dc:format>
        <dc:type
           rdf:resource="http://purl.org/dc/dcmitype/StillImage" />
        <dc:title></dc:title>
      </cc:Work>
    </rdf:RDF>
  </metadata>
  <g
     inkscape:label="Layer 1"
     inkscape:groupmode="layer"
     id="layer1"
     transform="translate(94.232236,-188.95476)">
    <g
       id="g997"
       style="fill:#ffffff">
      <g
         id="g921"
         style="fill:#ffffff">
        <path
           id="path871"
           style="font-style:normal;font-variant:normal;font-weight:normal;font-stretch:normal;font-size:34.93618011px;line-height:1.25;font-family:'Painter PERSONAL USE ONLY';-inkscape-font-specification:'Painter PERSONAL USE ONLY, Normal';font-variant-ligatures:normal;font-variant-caps:normal;font-variant-numeric:normal;font-feature-settings:normal;text-align:start;letter-spacing:0px;word-spacing:0px;writing-mode:lr-tb;text-anchor:start;fill:#ffffff;fill-opacity:1;stroke:none;stroke-width:0.8734045"
           d="m -0.38496895,209.1339 q 0.90834068,-0.20962 1.11795777,0.55898 -1.32757485,2.55034 -3.21412862,4.96093 -0.9083406,1.11796 -2.0612346,2.16605 -1.1179577,1.04808 -2.4804688,1.642 -1.1528939,0.4891 -2.3756602,0.31442 -1.2227666,-0.13974 -2.1311066,-1.04808 -0.593915,-0.55898 -0.943277,-1.2577 -0.349362,-0.73366 -0.524043,-1.50226 -0.174681,-0.7686 -0.209617,-1.57213 0,-0.80353 0.06987,-1.60706 0,-0.17468 0.06987,-0.62885 0.06987,-0.48911 0.139744,-0.97822 0.06987,-0.4891 0.139745,-0.8734 0.06987,-0.41923 0.104809,-0.45417 1.117957,-0.27949 2.235915,-0.7686 1.1179579,-0.4891 1.8865539,-1.01315 0.4541703,-0.31442 1.0830216,-0.8734 0.6288512,-0.59392 1.1528939,-1.29264 0.5589789,-0.73366 0.8734045,-1.53719 0.3144257,-0.80353 0.1397448,-1.57213 -0.4541704,0.0699 -1.0480854,0.3843 -0.5939151,0.31442 -1.2227664,0.73366 -0.593915,0.3843 -1.1528939,0.8734 -0.5589789,0.45417 -0.978213,0.83847 -0.978213,0.94328 -1.851618,1.95643 -0.873404,1.01315 -1.676936,2.09617 -1.816682,2.34072 -3.318937,4.96094 -0.104809,0.17468 -0.419235,0.76859 -0.279489,0.59392 -0.663787,1.32758 -0.349362,0.69872 -0.73366,1.39744 -0.349362,0.69873 -0.558979,1.08303 -0.803532,-0.0349 -1.502255,-0.66379 -0.698724,-0.62885 -0.768596,-1.46732 -0.03494,-0.17468 0.03494,-0.55898 0.06987,-0.3843 0.209617,-0.83847 0.104809,-0.48911 0.279489,-0.97821 0.174681,-0.52404 0.384298,-0.97822 0.803533,-1.88655 1.711873,-3.66829 0.908341,-1.81669 1.92149,-3.59843 l 2.480469,-4.33209 2.096171,-3.56349 q 0.244553,-0.3843 0.628851,-1.15289 0.419234,-0.7686 0.838468,-1.57213 0.454171,-0.90834 1.0131495,-1.92149 0.4891065,0.0699 0.9432769,0.24455 0.3842979,0.17468 0.8035321,0.45417 0.4192342,0.27949 0.6987236,0.73366 0.1746809,0.34937 0.1746809,1.01315 0.034936,0.62885 -0.4192342,1.5372 -0.4192341,0.8734 -0.9432768,1.71187 -0.5240427,0.80353 -1.0131492,1.642 -0.6987238,1.15289 -1.6420008,2.55034 -0.90834,1.39745 -1.607064,2.55034 0.978213,-1.01315 2.235916,-2.13111 1.2926382,-1.11795 2.5154045,-1.81668 0.1048085,-0.0699 0.384298,-0.20961 0.3144256,-0.13975 0.6987236,-0.24456 0.384298,-0.13974 0.768596,-0.20961 0.4192341,-0.10481 0.6987236,-0.0699 0.593915,-0.3843 1.2926386,-0.31442 0.7336598,0.0699 1.2577025,0.55898 0.6987236,0.59391 0.8734045,1.53719 0.2096171,0.90834 0.034936,1.81668 -0.2096171,0.94328 -0.768596,1.81668 -0.5240427,0.87341 -1.2577025,1.642 -0.7336597,0.73366 -1.6070642,1.32758 -0.8734045,0.55897 -1.7468091,0.94327 -0.4891065,0.17468 -0.978213,0.34936 -0.4891065,0.13975 -1.0131492,0.24456 -0.069872,0.31442 -0.034936,1.11796 0.034936,0.80353 0.1746809,1.67693 0.1397447,0.87341 0.384298,1.60707 0.2794894,0.73366 0.6987236,0.94327 0.4891065,0.24456 1.0480854,0.13975 0.5939151,-0.13975 1.1528939,-0.45417 0.5589789,-0.31443 1.0480854,-0.69873 0.4891066,-0.41923 0.8384684,-0.80353 1.0830215,-1.15289 1.9214899,-2.37566 0.8734045,-1.2577 1.60706425,-2.62021 z"
           inkscape:connector-curvature="0" />
        <path
           id="path873"
           style="font-style:normal;font-variant:normal;font-weight:normal;font-stretch:normal;font-size:34.93618011px;line-height:1.25;font-family:'Painter PERSONAL USE ONLY';-inkscape-font-specification:'Painter PERSONAL USE ONLY, Normal';font-variant-ligatures:normal;font-variant-caps:normal;font-variant-numeric:normal;font-feature-settings:normal;text-align:start;letter-spacing:0px;word-spacing:0px;writing-mode:lr-tb;text-anchor:start;fill:#ffffff;fill-opacity:1;stroke:none;stroke-width:0.8734045"
           d="m 16.857127,202.70564 q -0.384298,0.52404 -0.943277,1.36251 -0.524043,0.83847 -1.117958,1.81668 -0.593915,0.97822 -1.18783,2.0263 -0.558979,1.04809 -1.013149,1.99136 -0.943277,1.95643 -1.46732,3.28401 -0.524042,1.32757 -0.279489,1.71187 0.104808,0.17468 0.349362,0.17468 0.279489,-0.0349 0.593915,-0.13975 0.314425,-0.1048 0.558979,-0.24455 0.279489,-0.17468 0.384298,-0.24455 0.768595,-0.48911 1.362511,-1.11796 0.593915,-0.66379 1.117957,-1.36251 0.489107,-0.66379 0.943277,-1.39745 0.454171,-0.73366 0.838468,-1.43238 0.419235,-0.10481 0.698724,0 0.314426,0.10481 0.419234,0.55898 -0.489106,0.90834 -0.943277,1.78174 -0.45417,0.87341 -1.048085,1.71188 -0.558979,0.83846 -1.18783,1.60706 -0.593915,0.7686 -1.292639,1.46732 -0.663787,0.66379 -1.467319,1.18783 -0.768596,0.48911 -1.746809,0.45417 -0.9782134,0 -1.7468094,-0.55898 -0.7685959,-0.55898 -1.1179577,-1.46732 -0.1746809,-0.41923 -0.2445533,-0.94328 -0.5589789,0.80354 -1.1878301,1.46732 -0.6288513,0.66379 -1.4323834,1.11796 -1.1179578,0.62885 -2.3407241,0.52404 -1.2227663,-0.1048 -2.13110696,-0.94327 -0.87340451,-0.80353 -1.18783013,-1.88656 -0.31442561,-1.11795 -0.31442561,-2.23591 0.034936,-1.39745 0.45417033,-2.75996 0.41923416,-1.36251 1.08302159,-2.62021 0.6987236,-1.25771 1.57212808,-2.34073 0.9083407,-1.11796 1.9214899,-2.0263 0.9782131,-0.90834 2.2009794,-1.46732 1.2577025,-0.55897 2.5852773,-0.4891 1.2926387,0.0699 2.2708521,0.80353 0.978213,0.69872 1.432383,1.88655 0.419234,-0.4891 0.943277,-0.8734 0.558979,-0.41924 1.152894,-0.62885 0.628851,-0.24456 1.327575,-0.20962 0.733659,0.0349 1.18783,0.45417 z m -11.0398331,9.57251 q 1.5721281,-1.11795 2.8298305,-2.86476 1.2577025,-1.74681 1.6420006,-3.70324 0.174681,-0.73366 -0.03494,-1.43238 -0.209617,-0.73366 -1.0830219,-0.87341 -0.6987236,-0.1048 -1.2926386,0.27949 -0.5939151,0.3843 -1.0830216,0.83847 -1.5022557,1.46732 -2.4455326,3.35388 -0.9083407,1.88655 -1.3974472,3.91285 -0.4541704,2.0263 0.1746809,2.69008 0.6637874,0.62886 1.7817452,0.0349 0.7336598,-0.3843 1.362511,-0.94328 0.6637874,-0.55898 1.2577025,-1.15289 -0.4891065,0.10481 -1.0131492,0.13974 -0.4891066,0 -0.6987236,-0.27949 z"
           inkscape:connector-curvature="0" />
        <path
           id="path875"
           style="font-style:normal;font-variant:normal;font-weight:normal;font-stretch:normal;font-size:34.93618011px;line-height:1.25;font-family:'Painter PERSONAL USE ONLY';-inkscape-font-specification:'Painter PERSONAL USE ONLY, Normal';font-variant-ligatures:normal;font-variant-caps:normal;font-variant-numeric:normal;font-feature-settings:normal;text-align:start;letter-spacing:0px;word-spacing:0px;writing-mode:lr-tb;text-anchor:start;fill:#ffffff;fill-opacity:1;stroke:none;stroke-width:0.8734045"
           d="m 31.916259,209.1339 q 0.489107,-0.17468 0.768596,-0.0699 0.27949,0.1048 0.349362,0.62885 -1.048085,2.06123 -2.305788,3.70323 -1.222766,1.642 -2.65515,2.7949 -1.397447,1.11795 -2.969575,1.67693 -1.537192,0.52405 -3.249065,0.41924 -1.572128,-0.10481 -2.725022,-0.90834 -1.152894,-0.80354 -1.537192,-2.23592 l -1.152894,2.27085 -1.921489,3.73817 q -0.104809,0.20962 -0.384298,0.83847 -0.314426,0.66379 -0.663788,1.46732 -0.349362,0.80353 -0.628851,1.60707 -0.314426,0.83846 -0.384298,1.36251 -0.524043,-0.20962 -1.013149,-0.52405 -0.489107,-0.31442 -0.873405,-0.73366 -0.384298,-0.38429 -0.5939148,-0.83846 -0.2096171,-0.41924 -0.1397448,-0.87341 0.1746806,-0.90834 0.6288516,-1.81668 0.419234,-0.8734 0.803532,-1.67694 1.048085,-2.20098 2.235915,-4.33208 1.152894,-2.13111 2.270852,-4.29715 1.327575,-2.48047 2.550341,-4.96094 1.257703,-2.5154 2.340724,-5.13562 0.06987,-0.10481 0.558979,-0.13974 0.524043,-0.0349 1.013149,0.13974 0.524043,0.17468 0.803533,0.62885 0.314425,0.45417 -0.03494,1.39745 l -0.628851,1.57213 q 0.698724,-0.7686 1.46732,-1.39745 0.803532,-0.62885 1.746809,-1.08302 0.698723,-0.31443 1.642,-0.27949 0.943277,0 1.537192,0.48911 0.628851,0.4891 0.838468,1.2577 0.209617,0.73366 0.244554,1.53719 0.104808,1.642 -0.558979,3.35387 -0.663788,1.71188 -1.46732,3.28401 -0.524043,1.04808 -1.152894,2.02629 -0.593915,0.94328 -1.397447,1.81668 1.048085,-0.24455 1.991362,-0.90834 0.978213,-0.69872 1.816682,-1.60706 0.838468,-0.94328 1.537192,-2.0263 0.698723,-1.08302 1.292638,-2.16604 z m -13.310684,3.98272 q 0.104808,0.66379 0.349361,1.18783 0.244554,0.52405 0.628852,0.7686 0.384298,0.24455 0.90834,0.10481 0.524043,-0.13975 1.152894,-0.83847 1.502256,-1.57213 2.480469,-3.56349 1.013149,-1.99136 1.572128,-4.08753 0.06987,-0.20962 0.139745,-0.62886 0.104808,-0.45417 0.104808,-0.8734 0,-0.45417 -0.139744,-0.7686 -0.104809,-0.31442 -0.454171,-0.27949 -0.419234,0.0349 -0.90834,0.31443 -0.454171,0.24455 -0.943277,0.62885 -0.45417,0.34936 -0.873405,0.80353 -0.419234,0.41924 -0.733659,0.7686 -0.139745,0.13974 -0.244554,0.27949 -0.104808,0.10481 -0.209617,0.24455 l -1.362511,2.93464 z"
           inkscape:connector-curvature="0" />
        <path
           id="path877"
           style="font-style:normal;font-variant:normal;font-weight:normal;font-stretch:normal;font-size:34.93618011px;line-height:1.25;font-family:'Painter PERSONAL USE ONLY';-inkscape-font-specification:'Painter PERSONAL USE ONLY, Normal';font-variant-ligatures:normal;font-variant-caps:normal;font-variant-numeric:normal;font-feature-settings:normal;text-align:start;letter-spacing:0px;word-spacing:0px;writing-mode:lr-tb;text-anchor:start;fill:#ffffff;fill-opacity:1;stroke:none;stroke-width:0.8734045"
           d="m 40.361535,201.97198 q -0.419234,0.48911 -0.978213,1.36251 -0.558979,0.87341 -1.083022,1.81668 -0.524042,0.94328 -1.013149,1.81669 -0.45417,0.8734 -0.698724,1.43238 -0.489106,1.08302 -0.943276,2.16604 -0.454171,1.08302 -0.803533,2.20098 -0.279489,1.04809 -0.279489,1.74681 0.03494,0.66379 0.419234,0.8734 0.384298,0.20962 1.117958,-0.1048 0.73366,-0.34937 1.886554,-1.36252 1.117957,-1.01314 2.09617,-2.23591 0.978214,-1.22277 1.676937,-2.55034 0.943277,-0.45417 1.117958,0.55898 -0.803532,1.46732 -1.816681,2.93464 -1.01315,1.43238 -2.235916,2.65515 -1.886554,1.99136 -3.423746,2.65515 -1.502255,0.62885 -2.620213,0.13974 -1.18783,-0.48911 -1.572128,-1.57213 -0.419234,-1.11796 -0.384298,-2.27085 0.06987,-2.16604 0.768596,-4.26221 0.698723,-2.13111 1.746809,-3.98273 0.628851,-1.11796 1.362511,-2.27085 0.768596,-1.15289 1.746809,-1.95643 0.349362,-0.27949 0.873404,-0.41923 0.524043,-0.17468 1.083022,-0.13974 0.593915,0 1.117958,0.17468 0.524042,0.17468 0.838468,0.59391 z m -0.03494,-3.284 q -0.768596,-0.24455 -1.327575,-0.90834 -0.558979,-0.69872 -0.384298,-1.67694 0.139745,-0.83847 0.45417,-1.60706 0.349362,-0.7686 1.222767,-0.94328 0.489106,-0.0699 0.943276,0 0.489107,0.0699 0.943277,0.24456 1.048086,0.34936 1.327575,0.94327 0.314426,0.59392 0.349362,0.87341 0.06987,0.69872 -0.139745,1.36251 -0.174681,0.66379 -0.663787,1.15289 -0.558979,0.52404 -1.292639,0.66379 -0.73366,0.10481 -1.432383,-0.10481 z"
           inkscape:connector-curvature="0" />
        <path
           id="path879"
           style="font-style:normal;font-variant:normal;font-weight:normal;font-stretch:normal;font-size:34.93618011px;line-height:1.25;font-family:'Painter PERSONAL USE ONLY';-inkscape-font-specification:'Painter PERSONAL USE ONLY, Normal';font-variant-ligatures:normal;font-variant-caps:normal;font-variant-numeric:normal;font-feature-settings:normal;text-align:start;letter-spacing:0px;word-spacing:0px;writing-mode:lr-tb;text-anchor:start;fill:#ffffff;fill-opacity:1;stroke:none;stroke-width:0.8734045"
           d="m 52.31844,195.68347 q 0.139745,0.48911 0,0.83847 -0.139745,0.31442 -0.349362,0.73366 l -0.419234,0.83847 q 0.73366,0.0699 1.257702,0.20961 0.698724,0.20962 1.187831,0.73366 0.524042,0.48911 0.663787,1.18783 0.104809,0.52405 0,0.66379 -0.06987,0.13974 -0.524043,0.20962 -0.419234,0.0699 -1.048085,0.17468 -0.628851,0.10481 -1.257703,0.17468 -0.628851,0.0699 -1.152894,0.13974 -0.524042,0.0699 -0.733659,0.10481 h -0.06987 l -0.803532,1.67694 -2.969575,5.97409 q -0.139745,0.27948 -0.524043,1.04808 -0.384298,0.73366 -0.803532,1.642 -0.838468,1.85162 -0.838468,2.75996 0.03494,0.8734 0.628851,0.97821 0.593915,0.10481 1.607064,-0.52404 1.013149,-0.66379 2.166043,-1.92149 0.803533,-0.90834 1.46732,-1.88655 0.663787,-1.01315 1.327575,-2.30579 1.048085,-0.55898 1.152894,0.55898 -0.558979,1.04808 -1.18783,2.09617 -0.628852,1.04808 -1.397448,2.0263 -0.733659,0.97821 -1.572128,1.88655 -0.838468,0.8734 -1.816681,1.53719 -0.803532,0.59392 -1.92149,0.83847 -1.083022,0.24455 -2.131107,-0.0349 -0.768596,-0.17468 -1.292639,-0.76859 -0.524042,-0.59392 -0.698723,-1.36251 -0.209617,-0.80353 -0.139745,-1.642 0.03494,-0.83847 0.27949,-1.67694 0.209617,-0.83847 0.524042,-1.60706 0.314426,-0.80354 0.628851,-1.5372 0.803533,-1.88655 1.781746,-3.63336 1.013149,-1.78174 2.026298,-3.56349 -1.083021,0.13975 -1.92149,0.24455 -0.838468,0.0699 -1.117958,0.0699 -0.17468,-0.34937 -0.17468,-0.80354 0.03494,-0.4891 0.17468,-0.94327 0.174681,-0.45417 0.419235,-0.83847 0.279489,-0.3843 0.558978,-0.59392 0.768596,-0.59391 1.746809,-0.83846 1.01315,-0.24456 1.92149,-0.34937 0.174681,0 0.349362,0 0.174681,-0.0349 0.349362,-0.0699 l 1.013149,-1.92149 q 0.244553,-0.41923 0.419234,-0.83847 0.209617,-0.45417 0.593915,-0.76859 0.27949,-0.20962 0.698724,-0.13975 0.45417,0.0699 0.838468,0.27949 0.419235,0.17468 0.698724,0.45417 0.314426,0.27949 0.384298,0.48911 z"
           inkscape:connector-curvature="0" />
        <path
           id="path881"
           style="font-style:normal;font-variant:normal;font-weight:normal;font-stretch:normal;font-size:34.93618011px;line-height:1.25;font-family:'Painter PERSONAL USE ONLY';-inkscape-font-specification:'Painter PERSONAL USE ONLY, Normal';font-variant-ligatures:normal;font-variant-caps:normal;font-variant-numeric:normal;font-feature-settings:normal;text-align:start;letter-spacing:0px;word-spacing:0px;writing-mode:lr-tb;text-anchor:start;fill:#ffffff;fill-opacity:1;stroke:none;stroke-width:0.8734045"
           d="m 68.374346,202.70564 q -0.384298,0.52404 -0.943277,1.36251 -0.524042,0.83847 -1.117957,1.81668 -0.593915,0.97822 -1.18783,2.0263 -0.558979,1.04809 -1.01315,1.99136 -0.943277,1.95643 -1.467319,3.28401 -0.524043,1.32757 -0.27949,1.71187 0.104809,0.17468 0.349362,0.17468 0.27949,-0.0349 0.593915,-0.13975 0.314426,-0.1048 0.558979,-0.24455 0.27949,-0.17468 0.384298,-0.24455 0.768596,-0.48911 1.362511,-1.11796 0.593915,-0.66379 1.117958,-1.36251 0.489106,-0.66379 0.943277,-1.39745 0.45417,-0.73366 0.838468,-1.43238 0.419234,-0.10481 0.698724,0 0.314425,0.10481 0.419234,0.55898 -0.489107,0.90834 -0.943277,1.78174 -0.45417,0.87341 -1.048085,1.71188 -0.558979,0.83846 -1.187831,1.60706 -0.593915,0.7686 -1.292638,1.46732 -0.663788,0.66379 -1.46732,1.18783 -0.768596,0.48911 -1.746809,0.45417 -0.978213,0 -1.746809,-0.55898 -0.768596,-0.55898 -1.117958,-1.46732 -0.17468,-0.41923 -0.244553,-0.94328 -0.558979,0.80354 -1.18783,1.46732 -0.628851,0.66379 -1.432383,1.11796 -1.117958,0.62885 -2.340724,0.52404 -1.222767,-0.1048 -2.131107,-0.94327 -0.873405,-0.80353 -1.187831,-1.88656 -0.314425,-1.11795 -0.314425,-2.23591 0.03494,-1.39745 0.45417,-2.75996 0.419234,-1.36251 1.083022,-2.62021 0.698723,-1.25771 1.572128,-2.34073 0.908341,-1.11796 1.92149,-2.0263 0.978213,-0.90834 2.200979,-1.46732 1.257703,-0.55897 2.585277,-0.4891 1.292639,0.0699 2.270852,0.80353 0.978213,0.69872 1.432384,1.88655 0.419234,-0.4891 0.943276,-0.8734 0.558979,-0.41924 1.152894,-0.62885 0.628852,-0.24456 1.327575,-0.20962 0.73366,0.0349 1.18783,0.45417 z m -11.039833,9.57251 q 1.572129,-1.11795 2.829831,-2.86476 1.257702,-1.74681 1.642,-3.70324 0.174681,-0.73366 -0.03494,-1.43238 -0.209617,-0.73366 -1.083021,-0.87341 -0.698724,-0.1048 -1.292639,0.27949 -0.593915,0.3843 -1.083022,0.83847 -1.502255,1.46732 -2.445532,3.35388 -0.908341,1.88655 -1.397447,3.91285 -0.454171,2.0263 0.174681,2.69008 0.663787,0.62886 1.781745,0.0349 0.733659,-0.3843 1.362511,-0.94328 0.663787,-0.55898 1.257702,-1.15289 -0.489106,0.10481 -1.013149,0.13974 -0.489107,0 -0.698724,-0.27949 z"
           inkscape:connector-curvature="0" />
        <path
           id="path883"
           style="font-style:normal;font-variant:normal;font-weight:normal;font-stretch:normal;font-size:34.93618011px;line-height:1.25;font-family:'Painter PERSONAL USE ONLY';-inkscape-font-specification:'Painter PERSONAL USE ONLY, Normal';font-variant-ligatures:normal;font-variant-caps:normal;font-variant-numeric:normal;font-feature-settings:normal;text-align:start;letter-spacing:0px;word-spacing:0px;writing-mode:lr-tb;text-anchor:start;fill:#ffffff;fill-opacity:1;stroke:none;stroke-width:0.8734045"
           d="m 82.001095,193.30781 q 0.27949,0 0.593915,0.10481 0.27949,-0.24456 0.663788,-0.10481 0.384298,0.10481 0.558979,0.31442 0.244553,0.27949 0.279489,0.69873 0.06987,0.41923 0.03494,0.76859 -0.06987,1.22277 -0.663787,2.4106 -0.558979,1.18783 -1.18783,2.20098 -0.698724,1.22277 -1.572128,2.34072 -0.838469,1.11796 -1.781745,2.20098 -1.083022,1.22277 -2.270852,2.4106 -1.152894,1.15289 -2.410597,2.20098 -0.384298,0.27949 -0.733659,0.55898 -0.349362,0.27949 -0.698724,0.55898 -0.104808,0.0699 -0.209617,0.20961 -0.104809,0.10481 -0.244553,0.17468 -0.174681,0.48911 -0.349362,0.94328 -0.139745,0.45417 -0.314426,0.94328 -0.209617,0.73366 -0.314425,1.60706 -0.06987,0.87341 0.174681,1.50226 0.244553,0.62885 0.90834,0.80353 0.698724,0.17468 1.956426,-0.52404 0.698724,-0.3843 1.502256,-1.04809 0.838468,-0.69872 1.642001,-1.53719 0.838468,-0.8734 1.572128,-1.88655 0.768596,-1.01315 1.292638,-2.0263 0.454171,-0.17468 0.73366,-0.0699 0.27949,0.1048 0.384298,0.62885 -0.524043,1.01315 -1.222766,2.09617 -0.698724,1.08302 -1.572128,2.1311 -0.838469,1.04809 -1.851618,1.99137 -0.978213,0.94327 -2.131107,1.67693 -1.327575,0.83847 -2.65515,1.01315 -1.327574,0.17468 -2.37566,-0.34936 -1.048085,-0.48911 -1.676936,-1.642 -0.663788,-1.18783 -0.593915,-3.03945 0.03494,-1.15289 0.314425,-2.30578 0.27949,-1.1529 0.73366,-2.23592 0.419234,-1.11796 0.978213,-2.16604 0.558979,-1.04809 1.117958,-1.99137 1.257702,-2.1311 2.620213,-4.22727 1.397447,-2.13111 3.10932,-3.91286 0.698724,-0.73366 1.432384,-1.36251 0.768596,-0.66378 1.642,-1.15289 0.593915,-0.3843 1.222766,-0.62885 0.663788,-0.27949 1.362511,-0.27949 z m -8.14013,13.86966 q 0.803533,-0.73366 1.572129,-1.53719 0.768596,-0.80353 1.502255,-1.642 0.943277,-1.11796 1.816682,-2.30579 0.873404,-1.18783 1.676936,-2.41059 0.593915,-0.87341 1.048086,-1.74681 0.489106,-0.90834 0.803532,-1.92149 -0.628851,0.59391 -1.292639,1.18783 -0.628851,0.59391 -1.222766,1.2577 -1.327575,1.67694 -2.515405,3.45868 -1.152894,1.74681 -2.235916,3.59843 z"
           inkscape:connector-curvature="0" />
        <path
           id="path885"
           style="font-style:normal;font-variant:normal;font-weight:normal;font-stretch:normal;font-size:34.93618011px;line-height:1.25;font-family:'Painter PERSONAL USE ONLY';-inkscape-font-specification:'Painter PERSONAL USE ONLY, Normal';font-variant-ligatures:normal;font-variant-caps:normal;font-variant-numeric:normal;font-feature-settings:normal;text-align:start;letter-spacing:0px;word-spacing:0px;writing-mode:lr-tb;text-anchor:start;fill:#ffffff;fill-opacity:1;stroke:none;stroke-width:0.8734045"
           d="m 98.134515,209.1339 q 1.083022,-0.45417 1.117958,0.55898 -1.048085,1.99136 -2.270852,3.7731 -1.222766,1.74681 -2.759958,3.21413 -0.663787,0.62885 -1.537192,1.18783 -0.873404,0.52405 -1.781745,0.73366 -0.908341,0.24456 -1.816681,0.0349 -0.908341,-0.17468 -1.642001,-1.04809 -0.628851,-0.69872 -0.768596,-1.60706 -0.139745,-0.90834 0,-1.88655 0.174681,-0.97822 0.489107,-1.92149 0.349361,-0.94328 0.663787,-1.74681 0.698724,-1.57213 1.607064,-3.00451 0.943277,-1.46732 1.711873,-3.03945 -1.013149,0.80353 -2.200979,1.88655 -1.152894,1.08302 -1.956426,2.06124 -1.048086,1.2577 -1.991362,2.58527 -0.943277,1.29264 -1.851618,2.65515 -0.45417,0.69873 -0.873405,1.39745 -0.419234,0.66379 -0.803532,1.36251 -0.209617,0.31443 -0.524042,0.80353 -0.314426,0.45417 -0.873405,0.41924 -0.419234,0 -0.838468,-0.24456 -0.419234,-0.24455 -0.73366,-0.59391 -0.349362,-0.34936 -0.524043,-0.73366 -0.209617,-0.41923 -0.139744,-0.73366 0.558978,-2.55034 1.921489,-4.89107 1.327575,-2.37566 2.725023,-4.57663 0.593915,-0.90835 1.117957,-1.88656 0.558979,-0.97821 1.222767,-1.88655 0.314425,-0.45417 0.803532,-0.62885 0.524042,-0.17468 1.432383,0.34936 0.419234,0.24455 0.628851,0.4891 0.244554,0.20962 0.244554,0.55898 0,0.31443 -0.27949,0.80354 -0.244553,0.4891 -0.768596,1.22276 -0.489106,0.66379 -1.048085,1.60707 -0.524043,0.94327 -0.908341,1.71187 0.558979,-0.62885 1.327575,-1.50226 0.803532,-0.8734 1.676937,-1.74681 0.873404,-0.8734 1.746809,-1.60706 0.90834,-0.73366 1.676936,-1.11796 0.943277,-0.4891 2.20098,-0.34936 1.292638,0.13975 2.305788,1.11796 0.279489,0.27949 0.244553,0.4891 -0.03494,0.17469 -0.209617,0.52405 -0.314426,0.73366 -0.73366,1.46732 -0.419234,0.76859 -0.873405,1.53719 -0.45417,0.73366 -0.873404,1.53719 -0.593915,1.08302 -1.292639,2.30579 -0.663787,1.18783 -1.152894,2.37566 -0.524042,1.43238 -0.314425,2.09617 0.244553,0.66379 0.90834,0.66379 0.698724,-0.0349 1.711873,-0.69873 1.013149,-0.66378 2.061235,-1.92149 0.73366,-0.90834 1.432383,-1.92149 0.698724,-1.01315 1.362511,-2.23591 z"
           inkscape:connector-curvature="0" />
        <path
           id="path887"
           style="font-style:normal;font-variant:normal;font-weight:normal;font-stretch:normal;font-size:34.93618011px;line-height:1.25;font-family:'Painter PERSONAL USE ONLY';-inkscape-font-specification:'Painter PERSONAL USE ONLY, Normal';font-variant-ligatures:normal;font-variant-caps:normal;font-variant-numeric:normal;font-feature-settings:normal;text-align:start;letter-spacing:0px;word-spacing:0px;writing-mode:lr-tb;text-anchor:start;fill:#ffffff;fill-opacity:1;stroke:none;stroke-width:0.8734045"
           d="m 115.3182,202.1816 q -0.66379,1.2577 -1.2577,2.30579 -0.48911,0.90834 -0.97822,1.78174 -0.45417,0.83847 -0.62885,1.1529 -1.67693,3.17919 -3.00451,6.53306 -1.32757,3.31894 -2.69008,6.84749 l 1.57212,0.48911 q 0.62885,0.20962 1.36251,0.34936 0.7686,0.17468 1.46732,0.24455 0.73366,0.0699 1.29264,-0.13974 0.55898,-0.20962 1.04809,-0.59392 -0.31443,1.11796 -1.04809,2.0263 -0.69872,0.90834 -1.71187,1.46732 -1.04809,0.55898 -2.16604,0.62885 -1.11796,0.0699 -2.27086,-0.10481 l -1.18783,-0.24455 q -0.59391,1.46732 -1.36251,2.7949 -0.76859,1.36251 -1.88655,2.48046 -1.11796,1.04809 -2.480469,1.71188 -1.362511,0.69872 -2.934639,0.69872 -1.642,0 -3.074384,-0.83847 -1.432383,-0.83847 -2.235915,-2.27085 -0.768596,-1.32757 -0.803533,-2.86477 -0.03494,-1.53719 0.524043,-2.96957 0.558979,-1.39745 1.607064,-2.51541 1.048086,-1.11795 2.480469,-1.642 1.816682,-0.66378 3.877916,-0.4891 2.061238,0.17468 3.912848,0.62885 h 0.0349 q 0.45417,-1.36251 0.94328,-2.69009 0.4891,-1.36251 1.01315,-2.69008 l -0.41924,0.59391 q -0.45417,0.66379 -1.01315,1.39745 -0.52404,0.73366 -1.18783,1.2577 -0.62885,0.52404 -1.39744,0.69873 -0.7686,0.17468 -1.711877,-0.27949 -1.607064,-0.73366 -1.991362,-2.16605 -0.419234,-1.43238 -0.104809,-3.21413 0.384298,-1.99136 1.327575,-3.7731 0.943277,-1.81668 2.096173,-3.49362 0.4891,-0.73366 1.22276,-1.60707 0.7686,-0.8734 1.57213,-1.29263 0.55898,-0.27949 1.46732,-0.20962 0.94328,0.0349 2.0263,0.73366 -0.62885,0.83847 -1.57213,2.30579 -0.94327,1.46732 -1.88655,3.10932 -0.90834,1.60706 -1.60707,3.21412 -0.69872,1.60707 -0.80353,2.72503 -0.0349,0.41923 0.10481,0.73366 0.17468,0.31442 0.48911,0.38429 0.31442,0.0699 0.80353,-0.17468 0.48911,-0.27949 1.18783,-1.01315 1.08302,-1.15289 1.92149,-2.44553 0.8734,-1.29264 1.67694,-2.62021 0.4891,-1.08302 1.11795,-2.23592 0.62886,-1.18783 1.36251,-2.20098 0.73366,-1.01315 1.57213,-1.74681 0.83847,-0.76859 1.74681,-1.04808 0.59392,-0.17468 1.04809,-0.10481 0.45417,0.0349 0.80353,0.10481 0.3843,0.13974 0.73366,0.27949 z m -17.188601,27.35503 q 1.327574,-1.01315 2.026301,-2.55034 0.69872,-1.5372 1.18783,-3.07439 v -0.0699 q -1.01315,-0.31443 -2.026301,-0.55898 -0.978213,-0.24455 -1.991363,-0.31442 -1.117957,-0.0699 -2.235915,0.27949 -1.117958,0.38429 -1.886554,1.29263 -0.698723,0.83847 -0.873404,1.95643 -0.174681,1.15289 0.384298,2.09617 0.419234,0.69872 1.083021,1.08302 0.628852,0.41924 1.397447,0.52404 0.768596,0.13975 1.537192,-0.0349 0.768596,-0.17468 1.397448,-0.62885 z"
           inkscape:connector-curvature="0" />
      </g>
      <g
         transform="translate(6.6817381,-1.6036172)"
         id="g953"
         style="fill:#ffffff">
        <g
           id="g929"
           transform="translate(-159.29264,44.366741)"
           style="fill:#ffffff">
          <path
             inkscape:connector-curvature="0"
             d="m 123.07022,215.03811 q 2.1311,-2.44553 3.84298,-5.24042 1.71187,-2.82983 2.8997,-6.04396 -0.41923,-0.80354 -0.34936,-1.60707 0.0699,-0.80353 0.3843,-1.39744 0.34936,-0.59392 0.8734,-0.83847 0.52404,-0.24456 1.04809,0.10481 0.59391,0.38429 0.4891,1.11795 -0.10481,0.69873 -0.3843,1.39745 0.24456,0.13974 0.55898,0.13974 0.34937,0 0.59392,0 0.90834,-0.0699 1.67694,-0.31442 0.4891,-0.69872 0.90834,-0.94328 0.41923,-0.27949 1.01315,0.20962 1.39744,1.08302 1.57212,2.06123 0.20962,0.94328 -0.59391,1.78175 -1.32758,1.71187 -2.58528,3.6683 -1.2577,1.95642 -1.88655,3.63336 -0.45417,1.22277 -0.3843,1.99136 0.0699,0.73366 0.52404,0.97822 0.45417,0.20961 1.18783,-0.0699 0.7686,-0.27949 1.67694,-1.08302 1.01315,-0.90834 2.13111,-2.37566 1.11795,-1.46732 1.95642,-3.07438 0.48911,-0.27949 0.7686,-0.0349 0.31442,0.20962 0.34936,0.59392 -0.94328,1.78174 -1.95643,3.284 -0.97821,1.50225 -2.34072,2.86476 -1.11796,1.11796 -2.27085,1.67694 -1.1529,0.52404 -2.20098,0.59392 -1.04809,0.0699 -1.88656,-0.34937 -0.83846,-0.41923 -1.32757,-1.22276 -0.48911,-0.83847 -0.52404,-2.0263 -0.0349,-1.22277 0.55898,-2.75996 0.69872,-1.85162 1.7468,-3.6683 1.04809,-1.81668 2.0263,-3.07438 -0.27949,0 -0.38429,-0.0349 -0.31443,-0.0349 -0.80354,-0.13974 -0.4891,-0.13975 -0.97821,-0.34936 -0.3843,1.01315 -0.97821,2.41059 -0.59392,1.36251 -1.39745,2.82983 -0.66379,1.25771 -1.32757,2.30579 -0.69873,1.04809 -1.39745,1.74681 -0.69873,0.69872 -1.39745,1.04809 -0.73366,0.34936 -1.43238,0.20961 z"
             style="font-style:normal;font-variant:normal;font-weight:normal;font-stretch:normal;font-size:34.93618011px;line-height:1.25;font-family:'Painter PERSONAL USE ONLY';-inkscape-font-specification:'Painter PERSONAL USE ONLY, Normal';font-variant-ligatures:normal;font-variant-caps:normal;font-variant-numeric:normal;font-feature-settings:normal;text-align:start;letter-spacing:0px;word-spacing:0px;writing-mode:lr-tb;text-anchor:start;fill:#ffffff;fill-opacity:1;stroke:none;stroke-width:0.8734045"
             id="path889" />
          <path
             inkscape:connector-curvature="0"
             d="m 145.33111,210.91564 q -0.3843,0.0349 -0.80353,0.0349 -0.3843,-0.0349 -0.7686,-0.10481 -0.62885,1.95643 -0.3843,3.21413 0.27949,1.2577 1.18784,1.74681 0.94327,0.48911 2.41059,0.17468 1.46732,-0.31443 3.284,-1.46732 1.46732,-1.01315 2.62022,-2.44553 1.18783,-1.46732 1.99136,-2.93464 0.3843,-0.13975 0.69872,-0.10481 0.34936,0 0.41924,0.66379 -0.80354,1.53719 -2.13111,3.14425 -1.29264,1.60707 -2.86477,2.96958 -2.5154,2.09617 -4.96094,2.79489 -2.44553,0.69873 -4.19234,-0.41923 -1.32757,-0.90834 -2.0263,-2.34073 -0.73366,-1.46731 -0.66378,-3.03944 0.0349,-1.46732 0.55898,-2.93464 0.4891,-1.50226 1.32757,-2.86477 0.83847,-1.36251 1.95643,-2.48047 1.11795,-1.15289 2.41059,-1.85162 1.29264,-0.69872 2.96958,-1.08302 1.71187,-0.38429 3.17919,0 0.73366,0.17468 1.22277,0.62885 0.4891,0.41924 0.69872,1.01315 0.24455,0.55898 0.20962,1.22277 -0.0349,0.66379 -0.27949,1.32758 -0.59392,1.57212 -1.92149,2.65514 -1.29264,1.08303 -2.7949,1.67694 -1.67693,0.69872 -3.35387,0.80353 z m 3.00451,-6.70774 q -1.29264,1.11795 -2.37566,2.55034 -1.04808,1.43238 -1.78174,3.00451 0.52404,-0.13975 1.18783,-0.3843 1.04808,-0.3843 2.0263,-0.90834 0.97821,-0.55898 1.78174,-1.32757 0.69872,-0.62886 1.29264,-1.46732 0.59391,-0.83847 0.52404,-1.85162 0,-0.55898 -0.34936,-0.62885 -0.34936,-0.0699 -0.80353,0.10481 -0.45417,0.17468 -0.87341,0.45417 -0.41923,0.27949 -0.62885,0.45417 z"
             style="font-style:normal;font-variant:normal;font-weight:normal;font-stretch:normal;font-size:34.93618011px;line-height:1.25;font-family:'Painter PERSONAL USE ONLY';-inkscape-font-specification:'Painter PERSONAL USE ONLY, Normal';font-variant-ligatures:normal;font-variant-caps:normal;font-variant-numeric:normal;font-feature-settings:normal;text-align:start;letter-spacing:0px;word-spacing:0px;writing-mode:lr-tb;text-anchor:start;fill:#ffffff;fill-opacity:1;stroke:none;stroke-width:0.8734045"
             id="path891" />
          <path
             inkscape:connector-curvature="0"
             d="m 181.62706,209.1339 q 0.41924,-0.10481 0.73366,-0.0349 0.31443,0.0699 0.3843,0.59392 -0.97821,1.85161 -2.20098,3.49362 -1.22277,1.642 -2.72502,2.96957 -0.66379,0.59392 -1.53719,1.11796 -0.83847,0.4891 -1.74681,0.69872 -0.87341,0.20962 -1.74681,0 -0.87341,-0.24455 -1.53719,-1.15289 -0.59392,-0.73366 -0.69873,-1.642 -0.10481,-0.94328 0.0349,-1.92149 0.17468,-0.97822 0.48911,-1.88656 0.34936,-0.94327 0.69872,-1.74681 0.59391,-1.43238 1.36251,-2.72502 0.80353,-1.32757 1.50226,-2.72502 -1.01315,0.80353 -2.16605,1.88655 -1.11795,1.08303 -1.95642,2.06124 -1.04809,1.22277 -1.99137,2.48047 -0.94327,1.22276 -1.85161,2.55034 -0.80353,1.15289 -1.36251,2.06123 -0.55898,0.90834 -0.97822,1.5372 -0.41923,0.62885 -0.73366,0.94327 -0.27949,0.31443 -0.55898,0.31443 -0.34936,-0.0349 -0.80353,-0.17468 -0.45417,-0.17468 -0.8734,-0.3843 -0.3843,-0.24455 -0.66379,-0.59392 -0.24455,-0.34936 -0.17468,-0.83846 0.0349,-0.13975 0.13974,-0.45417 0.13975,-0.34937 0.27949,-0.73366 0.17468,-0.3843 0.31443,-0.73366 0.17468,-0.3843 0.24455,-0.59392 0.94328,-2.09617 1.99136,-4.26221 1.08303,-2.16605 2.34073,-4.61158 -1.43238,1.32758 -2.7949,2.82983 -1.32757,1.46732 -2.55034,3.00451 -0.80353,0.97822 -1.57212,1.95643 -0.73366,0.97821 -1.46732,1.99136 -0.13975,0.17468 -0.45417,0.62885 -0.31443,0.45417 -0.69873,0.94328 -0.34936,0.48911 -0.69872,0.94328 -0.34936,0.45417 -0.55898,0.62885 -0.31443,0.24455 -0.80353,0.13974 -0.52405,-0.13974 -1.01315,-0.4891 -0.48911,-0.34937 -0.80353,-0.80354 -0.34937,-0.45417 -0.27949,-0.8734 0.13974,-0.83847 0.66378,-2.09617 0.52405,-1.29264 1.22277,-2.69009 0.69872,-1.43238 1.50226,-2.86476 0.83846,-1.43239 1.60706,-2.65515 l 2.13111,-3.49362 q 0.31442,-0.55898 0.97821,-0.7686 0.66379,-0.24455 1.46732,0.34936 0.80353,0.62886 1.01315,1.01315 0.20962,0.3843 -0.13975,1.01315 -0.38429,0.69873 -0.94327,1.57213 -0.52405,0.83847 -1.08302,1.71187 -0.52405,0.83847 -1.01315,1.642 -0.48911,0.80354 -0.80354,1.36251 0.48911,-0.59391 1.29264,-1.50225 0.80354,-0.94328 1.67694,-1.88655 0.8734,-0.97822 1.71187,-1.85162 0.83847,-0.87341 1.43239,-1.36251 0.20961,-0.20962 0.52404,-0.45417 0.34936,-0.27949 0.73366,-0.52405 0.3843,-0.24455 0.80353,-0.41923 0.45417,-0.17468 0.94328,-0.13975 0.45417,0.0349 0.94327,0.27949 0.52405,0.20962 0.94328,0.55898 0.41924,0.31443 0.66379,0.66379 0.27949,0.34936 0.24455,0.59392 -0.0699,0.38429 -0.34936,0.8734 -0.27949,0.45417 -0.45417,0.83847 l -0.83847,1.71187 q 2.13111,-2.62021 4.78626,-4.43689 1.36251,-0.94328 2.23591,-1.08303 0.87341,-0.13974 1.74681,0.27949 0.90834,0.41924 1.43239,0.94328 0.52404,0.52404 0.45417,0.7686 -0.0699,0.34936 -0.24456,0.69872 -0.17468,0.34936 -0.34936,0.66379 l -1.50225,2.82983 q -0.73366,1.43238 -1.50226,2.86477 -0.73366,1.39744 -1.2577,2.93463 -0.3843,1.08303 0.20961,1.46732 0.62886,0.34937 2.09618,-0.45417 1.43238,-0.80353 2.48046,-2.16604 1.08303,-1.39745 2.0263,-3.17919 z"
             style="font-style:normal;font-variant:normal;font-weight:normal;font-stretch:normal;font-size:34.93618011px;line-height:1.25;font-family:'Painter PERSONAL USE ONLY';-inkscape-font-specification:'Painter PERSONAL USE ONLY, Normal';font-variant-ligatures:normal;font-variant-caps:normal;font-variant-numeric:normal;font-feature-settings:normal;text-align:start;letter-spacing:0px;word-spacing:0px;writing-mode:lr-tb;text-anchor:start;fill:#ffffff;fill-opacity:1;stroke:none;stroke-width:0.8734045"
             id="path893" />
          <path
             inkscape:connector-curvature="0"
             d="m 191.43103,202.5659 q 0.45417,-0.17468 1.11796,-0.0699 1.01315,0.20962 1.642,1.04809 0.62885,0.83847 0.8734,1.78174 0.34937,1.5372 0.0349,3.1792 -0.31443,1.60706 -0.97821,3.07438 1.11796,0.45417 2.16604,-0.24455 1.08302,-0.69873 1.88655,-2.20098 1.01315,-0.45417 1.11796,0.55898 -1.11796,2.1311 -2.79489,3.31893 -1.642,1.1529 -4.0526,1.32758 -0.55898,0.73366 -1.22277,1.46732 -0.62885,0.69872 -1.36251,1.2577 -0.73366,0.55898 -1.60706,0.94328 -0.83847,0.34936 -1.78175,0.41923 -1.15289,0.0699 -2.09617,-0.34936 -0.94327,-0.3843 -1.642,-1.11796 -0.69872,-0.76859 -1.11796,-1.74681 -0.41923,-0.97821 -0.52404,-2.06123 -0.10481,-1.22277 0.10481,-2.44553 0.20962,-1.25771 0.66379,-2.44554 0.4891,-1.18783 1.18783,-2.23591 0.69872,-1.04809 1.57213,-1.88656 0.8734,-0.80353 1.92149,-1.36251 1.08302,-0.55898 2.27085,-0.66378 0.59391,-0.0699 1.2577,0.0349 0.69872,0.0699 1.2577,0.34936 z m -1.67694,7.75583 q 0.59392,-0.52404 1.25771,-0.83847 0.69872,-0.31443 1.2577,-0.0349 0.24455,0.13975 0.41923,0.3843 0.27949,-0.94327 0.31443,-1.95642 0.0699,-1.01315 -0.17468,-2.0263 -0.17468,-0.59392 -0.52404,-0.94328 -0.31443,-0.3843 -0.80354,-0.73366 -0.62885,-0.0349 -1.18783,0.10481 -0.55898,0.13974 -1.08302,0.41923 -0.8734,0.45417 -1.642,1.36251 -0.76859,0.87341 -1.36251,1.99137 -0.55898,1.08302 -0.94328,2.27085 -0.34936,1.18783 -0.41923,2.27085 -0.0349,1.04809 0.24455,1.88655 0.27949,0.80354 1.01315,1.1529 0.87341,0.45417 2.0263,0.0699 1.15289,-0.41923 2.20098,-1.642 -0.48911,-0.17468 -0.90834,-0.45417 -0.3843,-0.31443 -0.59392,-0.7686 -0.27949,-0.59391 0,-1.2577 0.31443,-0.69872 0.90834,-1.2577 z"
             style="font-style:normal;font-variant:normal;font-weight:normal;font-stretch:normal;font-size:34.93618011px;line-height:1.25;font-family:'Painter PERSONAL USE ONLY';-inkscape-font-specification:'Painter PERSONAL USE ONLY, Normal';font-variant-ligatures:normal;font-variant-caps:normal;font-variant-numeric:normal;font-feature-settings:normal;text-align:start;letter-spacing:0px;word-spacing:0px;writing-mode:lr-tb;text-anchor:start;fill:#ffffff;fill-opacity:1;stroke:none;stroke-width:0.8734045"
             id="path895" />
          <path
             inkscape:connector-curvature="0"
             d="m 215.83941,209.1339 q 1.08302,-0.45417 1.11796,0.55898 -1.04809,1.99136 -2.27085,3.7731 -1.22277,1.74681 -2.75996,3.21413 -0.66379,0.62885 -1.53719,1.18783 -0.87341,0.52405 -1.78175,0.73366 -0.90834,0.24456 -1.81668,0.0349 -0.90834,-0.17468 -1.642,-1.04809 -0.62885,-0.69872 -0.7686,-1.60706 -0.13974,-0.90834 0,-1.88655 0.17468,-0.97822 0.48911,-1.92149 0.34936,-0.94328 0.66379,-1.74681 0.69872,-1.57213 1.60706,-3.00451 0.94328,-1.46732 1.71187,-3.03945 -1.01314,0.80353 -2.20098,1.88655 -1.15289,1.08302 -1.95642,2.06124 -1.04809,1.2577 -1.99136,2.58527 -0.94328,1.29264 -1.85162,2.65515 -0.45417,0.69873 -0.87341,1.39745 -0.41923,0.66379 -0.80353,1.36251 -0.20961,0.31443 -0.52404,0.80353 -0.31443,0.45417 -0.8734,0.41924 -0.41924,0 -0.83847,-0.24456 -0.41924,-0.24455 -0.73366,-0.59391 -0.34936,-0.34936 -0.52405,-0.73366 -0.20961,-0.41923 -0.13974,-0.73366 0.55898,-2.55034 1.92149,-4.89107 1.32757,-2.37566 2.72502,-4.57663 0.59392,-0.90835 1.11796,-1.88656 0.55898,-0.97821 1.22277,-1.88655 0.31442,-0.45417 0.80353,-0.62885 0.52404,-0.17468 1.43238,0.34936 0.41924,0.24455 0.62885,0.4891 0.24456,0.20962 0.24456,0.55898 0,0.31443 -0.27949,0.80354 -0.24456,0.4891 -0.7686,1.22276 -0.48911,0.66379 -1.04809,1.60707 -0.52404,0.94327 -0.90834,1.71187 0.55898,-0.62885 1.32758,-1.50226 0.80353,-0.8734 1.67694,-1.74681 0.8734,-0.8734 1.7468,-1.60706 0.90835,-0.73366 1.67694,-1.11796 0.94328,-0.4891 2.20098,-0.34936 1.29264,0.13975 2.30579,1.11796 0.27949,0.27949 0.24455,0.4891 -0.0349,0.17469 -0.20962,0.52405 -0.31442,0.73366 -0.73366,1.46732 -0.41923,0.76859 -0.8734,1.53719 -0.45417,0.73366 -0.8734,1.53719 -0.59392,1.08302 -1.29264,2.30579 -0.66379,1.18783 -1.1529,2.37566 -0.52404,1.43238 -0.31442,2.09617 0.24455,0.66379 0.90834,0.66379 0.69872,-0.0349 1.71187,-0.69873 1.01315,-0.66378 2.06124,-1.92149 0.73366,-0.90834 1.43238,-1.92149 0.69872,-1.01315 1.36251,-2.23591 z"
             style="font-style:normal;font-variant:normal;font-weight:normal;font-stretch:normal;font-size:34.93618011px;line-height:1.25;font-family:'Painter PERSONAL USE ONLY';-inkscape-font-specification:'Painter PERSONAL USE ONLY, Normal';font-variant-ligatures:normal;font-variant-caps:normal;font-variant-numeric:normal;font-feature-settings:normal;text-align:start;letter-spacing:0px;word-spacing:0px;writing-mode:lr-tb;text-anchor:start;fill:#ffffff;fill-opacity:1;stroke:none;stroke-width:0.8734045"
             id="path897" />
          <path
             inkscape:connector-curvature="0"
             d="m 226.38524,195.68347 q 0.13974,0.48911 0,0.83847 -0.13975,0.31442 -0.34937,0.73366 l -0.41923,0.83847 q 0.73366,0.0699 1.2577,0.20961 0.69873,0.20962 1.18783,0.73366 0.52404,0.48911 0.66379,1.18783 0.10481,0.52405 0,0.66379 -0.0699,0.13974 -0.52404,0.20962 -0.41924,0.0699 -1.04809,0.17468 -0.62885,0.10481 -1.2577,0.17468 -0.62885,0.0699 -1.1529,0.13974 -0.52404,0.0699 -0.73365,0.10481 h -0.0699 l -0.80353,1.67694 -2.96957,5.97409 q -0.13975,0.27948 -0.52405,1.04808 -0.3843,0.73366 -0.80353,1.642 -0.83847,1.85162 -0.83847,2.75996 0.0349,0.8734 0.62885,0.97821 0.59392,0.10481 1.60707,-0.52404 1.01315,-0.66379 2.16604,-1.92149 0.80353,-0.90834 1.46732,-1.88655 0.66379,-1.01315 1.32758,-2.30579 1.04808,-0.55898 1.15289,0.55898 -0.55898,1.04808 -1.18783,2.09617 -0.62885,1.04808 -1.39745,2.0263 -0.73366,0.97821 -1.57213,1.88655 -0.83846,0.8734 -1.81668,1.53719 -0.80353,0.59392 -1.92149,0.83847 -1.08302,0.24455 -2.1311,-0.0349 -0.7686,-0.17468 -1.29264,-0.76859 -0.52405,-0.59392 -0.69873,-1.36251 -0.20961,-0.80353 -0.13974,-1.642 0.0349,-0.83847 0.27949,-1.67694 0.20961,-0.83847 0.52404,-1.60706 0.31443,-0.80354 0.62885,-1.5372 0.80353,-1.88655 1.78175,-3.63336 1.01315,-1.78174 2.0263,-3.56349 -1.08303,0.13975 -1.92149,0.24455 -0.83847,0.0699 -1.11796,0.0699 -0.17468,-0.34937 -0.17468,-0.80354 0.0349,-0.4891 0.17468,-0.94327 0.17468,-0.45417 0.41923,-0.83847 0.27949,-0.3843 0.55898,-0.59392 0.7686,-0.59391 1.74681,-0.83846 1.01315,-0.24456 1.92149,-0.34937 0.17468,0 0.34936,0 0.17468,-0.0349 0.34936,-0.0699 l 1.01315,-1.92149 q 0.24456,-0.41923 0.41924,-0.83847 0.20961,-0.45417 0.59391,-0.76859 0.27949,-0.20962 0.69873,-0.13975 0.45417,0.0699 0.83846,0.27949 0.41924,0.17468 0.69873,0.45417 0.31442,0.27949 0.3843,0.48911 z"
             style="font-style:normal;font-variant:normal;font-weight:normal;font-stretch:normal;font-size:34.93618011px;line-height:1.25;font-family:'Painter PERSONAL USE ONLY';-inkscape-font-specification:'Painter PERSONAL USE ONLY, Normal';font-variant-ligatures:normal;font-variant-caps:normal;font-variant-numeric:normal;font-feature-settings:normal;text-align:start;letter-spacing:0px;word-spacing:0px;writing-mode:lr-tb;text-anchor:start;fill:#ffffff;fill-opacity:1;stroke:none;stroke-width:0.8734045"
             id="path899" />
        </g>
        <g
           id="g937"
           transform="translate(-159.29264,44.366741)"
           style="fill:#ffffff">
          <path
             inkscape:connector-curvature="0"
             d="m 254.38712,215.91152 q 1.29264,0.17468 2.58527,0.27949 1.32758,0.0699 2.58528,-0.0699 1.2577,-0.13974 2.44553,-0.59391 1.18783,-0.48911 2.23592,-1.43238 0,0.20961 -0.20962,0.90834 -0.20961,0.69872 -0.4891,1.22276 -0.3843,0.69873 -0.83847,1.36251 -0.41924,0.62886 -1.01315,1.18783 -1.18783,1.11796 -2.62021,1.5372 -1.43239,0.45417 -2.96958,0.45417 -1.50226,0 -3.07438,-0.34937 -1.5372,-0.31442 -2.96958,-0.69872 -1.85162,-0.48911 -3.70323,-1.04808 -1.81669,-0.55898 -3.70324,-0.69873 -1.81668,-0.17468 -3.49362,0.41924 -0.90834,0.31442 -1.43238,0.24455 -0.48911,-0.0349 -0.62885,-0.31443 -0.13975,-0.24455 0.13974,-0.66378 0.31443,-0.41924 1.04809,-0.87341 1.01315,-0.66379 2.23591,-1.08302 0.80354,-0.48911 1.642,-1.11796 1.642,-1.11796 3.10932,-2.44553 1.50226,-1.32758 2.86477,-2.79489 1.36251,-1.46732 2.62021,-3.00452 1.29264,-1.53719 2.51541,-3.07438 1.22277,-1.53719 2.44553,-2.96958 1.2577,-1.46731 2.75996,-2.69008 -0.83847,0.0699 -1.642,0.0699 -0.80353,-0.0349 -1.50226,-0.10481 -0.97821,-0.10481 -1.95642,-0.17468 -0.94328,-0.0699 -1.92149,0 -2.62022,0.10481 -4.26222,2.20098 -0.38429,-0.66379 -0.45417,-1.39745 -0.0349,-0.76859 0.13975,-1.46732 0.17468,-0.69872 0.59391,-1.32757 0.41924,-0.62885 1.01315,-1.08302 1.25771,-0.97822 2.86477,-1.1529 1.60706,-0.20961 3.14426,0.17468 1.18783,0.27949 2.23591,0.80354 1.08302,0.4891 2.27085,0.80353 1.5372,0.3843 3.1792,0.24455 1.67693,-0.13974 2.96957,-1.11796 0.3843,0.24456 0.62885,0.62886 0.27949,0.34936 0.27949,0.80353 -2.48047,2.13111 -4.78626,4.64651 -2.30578,2.5154 -4.57663,4.926 -2.51541,2.65515 -5.10069,5.20549 -2.58527,2.51541 -5.65966,4.64651 0.94328,0.0699 2.0263,0.17469 1.08302,0.1048 2.20098,0.24455 1.11796,0.13974 2.20098,0.27949 1.08302,0.13974 2.0263,0.27949 z"
             style="font-style:normal;font-variant:normal;font-weight:normal;font-stretch:normal;font-size:34.93618011px;line-height:1.25;font-family:'Painter PERSONAL USE ONLY';-inkscape-font-specification:'Painter PERSONAL USE ONLY, Normal';font-variant-ligatures:normal;font-variant-caps:normal;font-variant-numeric:normal;font-feature-settings:normal;text-align:start;letter-spacing:0px;word-spacing:0px;writing-mode:lr-tb;text-anchor:start;fill:#ffffff;fill-opacity:1;stroke:none;stroke-width:0.8734045"
             id="path901" />
          <path
             inkscape:connector-curvature="0"
             d="m 279.62905,202.70564 q -0.38429,0.52404 -0.94327,1.36251 -0.52405,0.83847 -1.11796,1.81668 -0.59392,0.97822 -1.18783,2.0263 -0.55898,1.04809 -1.01315,1.99136 -0.94328,1.95643 -1.46732,3.28401 -0.52404,1.32757 -0.27949,1.71187 0.10481,0.17468 0.34936,0.17468 0.27949,-0.0349 0.59392,-0.13975 0.31442,-0.1048 0.55898,-0.24455 0.27949,-0.17468 0.38429,-0.24455 0.7686,-0.48911 1.36252,-1.11796 0.59391,-0.66379 1.11795,-1.36251 0.48911,-0.66379 0.94328,-1.39745 0.45417,-0.73366 0.83847,-1.43238 0.41923,-0.10481 0.69872,0 0.31443,0.10481 0.41924,0.55898 -0.48911,0.90834 -0.94328,1.78174 -0.45417,0.87341 -1.04809,1.71188 -0.55898,0.83846 -1.18783,1.60706 -0.59391,0.7686 -1.29263,1.46732 -0.66379,0.66379 -1.46732,1.18783 -0.7686,0.48911 -1.74681,0.45417 -0.97822,0 -1.74681,-0.55898 -0.7686,-0.55898 -1.11796,-1.46732 -0.17468,-0.41923 -0.24455,-0.94328 -0.55898,0.80354 -1.18783,1.46732 -0.62885,0.66379 -1.43239,1.11796 -1.11795,0.62885 -2.34072,0.52404 -1.22277,-0.1048 -2.13111,-0.94327 -0.8734,-0.80353 -1.18783,-1.88656 -0.31442,-1.11795 -0.31442,-2.23591 0.0349,-1.39745 0.45417,-2.75996 0.41923,-1.36251 1.08302,-2.62021 0.69872,-1.25771 1.57213,-2.34073 0.90834,-1.11796 1.92149,-2.0263 0.97821,-0.90834 2.20098,-1.46732 1.2577,-0.55897 2.58527,-0.4891 1.29264,0.0699 2.27085,0.80353 0.97822,0.69872 1.43239,1.88655 0.41923,-0.4891 0.94327,-0.8734 0.55898,-0.41924 1.1529,-0.62885 0.62885,-0.24456 1.32757,-0.20962 0.73366,0.0349 1.18783,0.45417 z m -11.03983,9.57251 q 1.57213,-1.11795 2.82983,-2.86476 1.2577,-1.74681 1.642,-3.70324 0.17468,-0.73366 -0.0349,-1.43238 -0.20962,-0.73366 -1.08303,-0.87341 -0.69872,-0.1048 -1.29263,0.27949 -0.59392,0.3843 -1.08303,0.83847 -1.50225,1.46732 -2.44553,3.35388 -0.90834,1.88655 -1.39745,3.91285 -0.45417,2.0263 0.17468,2.69008 0.66379,0.62886 1.78175,0.0349 0.73366,-0.3843 1.36251,-0.94328 0.66379,-0.55898 1.2577,-1.15289 -0.4891,0.10481 -1.01315,0.13974 -0.4891,0 -0.69872,-0.27949 z"
             style="font-style:normal;font-variant:normal;font-weight:normal;font-stretch:normal;font-size:34.93618011px;line-height:1.25;font-family:'Painter PERSONAL USE ONLY';-inkscape-font-specification:'Painter PERSONAL USE ONLY, Normal';font-variant-ligatures:normal;font-variant-caps:normal;font-variant-numeric:normal;font-feature-settings:normal;text-align:start;letter-spacing:0px;word-spacing:0px;writing-mode:lr-tb;text-anchor:start;fill:#ffffff;fill-opacity:1;stroke:none;stroke-width:0.8734045"
             id="path903" />
          <path
             inkscape:connector-curvature="0"
             d="m 299.26484,198.75785 q 0.34936,-0.0699 0.69872,0.31443 0.3843,0.34936 0.55898,0.73366 0.41924,0.4891 0.20962,0.94328 -0.17468,0.41923 -0.41923,0.97821 -0.3843,0.90834 -0.7686,1.78174 -0.3843,0.87341 -0.80353,1.74681 0.34936,0.52405 1.01315,0.73366 0.69872,0.17468 1.53719,0.0349 0.8734,-0.17468 1.74681,-0.66379 0.90834,-0.48911 1.67694,-1.32757 -0.20962,1.32757 -1.1529,2.30578 -0.94328,0.97822 -2.23591,1.32758 -1.11796,0.27949 -1.99137,0.17468 -0.8734,-0.13975 -1.53719,-0.59392 -0.80353,1.57213 -1.71187,3.07439 -0.87341,1.46732 -1.81668,2.93464 -0.17468,0.27949 -0.69873,0.97821 -0.4891,0.69872 -1.08302,1.50226 -0.55898,0.80353 -1.11796,1.53719 -0.52404,0.69872 -0.73366,0.94328 -0.73366,0.83846 -1.50225,0.20961 -1.08302,-0.8734 -1.39745,-1.57213 -0.27949,-0.69872 -0.24455,-1.18783 0.0349,-2.09617 0.66379,-4.12247 0.66378,-2.06123 1.2577,-4.08753 -0.7686,1.1529 -1.50226,2.30579 -0.69872,1.15289 -1.39744,2.34072 -0.59392,1.01315 -1.11796,2.0263 -0.52405,0.97822 -1.01315,1.99136 -0.17468,0.34937 -0.3843,0.69873 -0.17468,0.34936 -0.27949,0.73366 -0.10481,0.34936 -0.20962,0.4891 -0.1048,0.13975 -0.52404,0.17469 -0.20962,0 -0.66379,-0.13975 -0.41923,-0.17468 -0.90834,-0.45417 -0.4891,-0.27949 -0.90834,-0.66379 -0.41923,-0.3843 -0.55898,-0.80353 -0.13974,-0.3843 -0.10481,-0.8734 0.0349,-0.52405 0.10481,-0.90834 0.0699,-1.11796 0.20962,-2.27086 0.13975,-1.15289 0.34936,-2.30578 -0.59391,0.0349 -0.73366,-0.66379 0.59392,-1.01315 1.08302,-2.09617 0.48911,-1.08302 0.97822,-2.09617 0.73366,-1.50226 1.08302,-2.55034 0.3843,-1.04809 0.90834,-1.32758 0.31443,-0.17468 0.94328,-0.0699 0.62885,0.0699 1.01315,0.24455 0.38429,0.20962 0.69872,0.52404 0.34936,0.27949 0.45417,0.62886 0.0699,0.20961 -0.0349,0.4891 -0.10481,0.27949 -0.17468,0.48911 -0.0699,0.20962 -0.45417,1.11796 -0.3843,0.8734 -0.90834,2.27085 -0.48911,1.36251 -1.01315,3.21413 -0.4891,1.85161 -0.83847,3.98272 l 0.94328,-1.78174 q 2.30579,-4.33209 5.3103,-8.34975 0.17468,-0.20962 0.48911,-0.59392 0.31442,-0.38429 0.62885,-0.76859 0.31442,-0.3843 0.55898,-0.66379 0.24455,-0.27949 0.27949,-0.31443 0.17468,-0.1048 0.55897,-0.0699 0.3843,0.0349 0.7686,0.20962 0.41924,0.13974 0.73366,0.3843 0.34936,0.20961 0.3843,0.41923 0.0699,0.17468 0,0.45417 -0.0699,0.27949 -0.13975,0.45417 -0.1048,0.31443 -0.31442,0.97822 -0.17468,0.62885 -0.41924,1.46732 -0.20961,0.80353 -0.45417,1.71187 -0.20961,0.90834 -0.38429,1.74681 -0.10481,0.52404 -0.27949,1.36251 -0.17468,0.83847 -0.34937,1.642 -0.13974,0.80353 -0.27948,1.39745 -0.10481,0.55897 -0.10481,0.55897 0.73366,-0.83846 1.43238,-1.85161 0.69872,-1.04809 1.32757,-2.16605 0.62886,-1.15289 1.18784,-2.30578 0.55897,-1.18783 1.04808,-2.30579 -0.13974,-0.31443 -0.17468,-0.55898 -0.31443,-1.29264 0.0349,-2.55034 0.38429,-1.29264 1.18783,-2.30579 0.27949,-0.3843 0.76859,-0.83847 0.52404,-0.4891 1.01315,-0.55898 z"
             style="font-style:normal;font-variant:normal;font-weight:normal;font-stretch:normal;font-size:34.93618011px;line-height:1.25;font-family:'Painter PERSONAL USE ONLY';-inkscape-font-specification:'Painter PERSONAL USE ONLY, Normal';font-variant-ligatures:normal;font-variant-caps:normal;font-variant-numeric:normal;font-feature-settings:normal;text-align:start;letter-spacing:0px;word-spacing:0px;writing-mode:lr-tb;text-anchor:start;fill:#ffffff;fill-opacity:1;stroke:none;stroke-width:0.8734045"
             id="path905" />
          <path
             inkscape:connector-curvature="0"
             d="m 318.31814,202.70564 q -0.3843,0.52404 -0.94328,1.36251 -0.52404,0.83847 -1.11795,1.81668 -0.59392,0.97822 -1.18783,2.0263 -0.55898,1.04809 -1.01315,1.99136 -0.94328,1.95643 -1.46732,3.28401 -0.52405,1.32757 -0.27949,1.71187 0.10481,0.17468 0.34936,0.17468 0.27949,-0.0349 0.59391,-0.13975 0.31443,-0.1048 0.55898,-0.24455 0.27949,-0.17468 0.3843,-0.24455 0.7686,-0.48911 1.36251,-1.11796 0.59392,-0.66379 1.11796,-1.36251 0.48911,-0.66379 0.94328,-1.39745 0.45417,-0.73366 0.83847,-1.43238 0.41923,-0.10481 0.69872,0 0.31442,0.10481 0.41923,0.55898 -0.4891,0.90834 -0.94327,1.78174 -0.45417,0.87341 -1.04809,1.71188 -0.55898,0.83846 -1.18783,1.60706 -0.59391,0.7686 -1.29264,1.46732 -0.66379,0.66379 -1.46732,1.18783 -0.76859,0.48911 -1.74681,0.45417 -0.97821,0 -1.74681,-0.55898 -0.76859,-0.55898 -1.11795,-1.46732 -0.17468,-0.41923 -0.24456,-0.94328 -0.55898,0.80354 -1.18783,1.46732 -0.62885,0.66379 -1.43238,1.11796 -1.11796,0.62885 -2.34072,0.52404 -1.22277,-0.1048 -2.13111,-0.94327 -0.87341,-0.80353 -1.18783,-1.88656 -0.31443,-1.11795 -0.31443,-2.23591 0.0349,-1.39745 0.45417,-2.75996 0.41924,-1.36251 1.08303,-2.62021 0.69872,-1.25771 1.57212,-2.34073 0.90834,-1.11796 1.92149,-2.0263 0.97822,-0.90834 2.20098,-1.46732 1.2577,-0.55897 2.58528,-0.4891 1.29264,0.0699 2.27085,0.80353 0.97821,0.69872 1.43238,1.88655 0.41924,-0.4891 0.94328,-0.8734 0.55898,-0.41924 1.1529,-0.62885 0.62885,-0.24456 1.32757,-0.20962 0.73366,0.0349 1.18783,0.45417 z m -11.03983,9.57251 q 1.57213,-1.11795 2.82983,-2.86476 1.2577,-1.74681 1.642,-3.70324 0.17468,-0.73366 -0.0349,-1.43238 -0.20961,-0.73366 -1.08302,-0.87341 -0.69872,-0.1048 -1.29264,0.27949 -0.59391,0.3843 -1.08302,0.83847 -1.50226,1.46732 -2.44553,3.35388 -0.90834,1.88655 -1.39745,3.91285 -0.45417,2.0263 0.17468,2.69008 0.66379,0.62886 1.78175,0.0349 0.73366,-0.3843 1.36251,-0.94328 0.66379,-0.55898 1.2577,-1.15289 -0.48911,0.10481 -1.01315,0.13974 -0.48911,0 -0.69872,-0.27949 z"
             style="font-style:normal;font-variant:normal;font-weight:normal;font-stretch:normal;font-size:34.93618011px;line-height:1.25;font-family:'Painter PERSONAL USE ONLY';-inkscape-font-specification:'Painter PERSONAL USE ONLY, Normal';font-variant-ligatures:normal;font-variant-caps:normal;font-variant-numeric:normal;font-feature-settings:normal;text-align:start;letter-spacing:0px;word-spacing:0px;writing-mode:lr-tb;text-anchor:start;fill:#ffffff;fill-opacity:1;stroke:none;stroke-width:0.8734045"
             id="path907" />
          <path
             inkscape:connector-curvature="0"
             d="m 340.88857,193.9716 q -0.48911,0.90834 -1.29264,2.34072 -0.80353,1.39745 -1.78175,3.14426 -0.97821,1.71187 -2.0263,3.6683 -1.04808,1.95642 -2.06123,3.94778 -0.97821,1.99137 -1.85162,3.94779 -0.83847,1.92149 -1.39744,3.63336 -0.17469,0.59392 -0.0699,0.90835 0.13975,0.27948 0.45417,0.31442 0.34937,0 0.87341,-0.20962 0.52404,-0.24455 1.15289,-0.73366 0.52404,-0.41923 1.08302,-1.04808 0.59392,-0.62885 1.18783,-1.39745 0.59392,-0.76859 1.11796,-1.60706 0.55898,-0.87341 1.04809,-1.74681 0.45417,-0.24455 0.76859,-0.0349 0.34936,0.17468 0.34936,0.59392 -1.01314,1.88655 -2.48046,3.7731 -1.43239,1.88656 -3.14426,3.35388 -0.80353,0.69872 -1.60706,1.11796 -0.7686,0.38429 -1.50226,0.45417 -0.69872,0.0699 -1.32758,-0.24456 -0.62885,-0.27949 -1.08302,-0.97821 -0.38429,-0.55898 -0.52404,-1.15289 -0.10481,-0.62886 -0.0699,-1.32758 -0.59392,0.7686 -1.32758,1.53719 -0.73366,0.73366 -1.60706,1.25771 -0.83847,0.52404 -1.78175,0.69872 -0.94327,0.17468 -1.92149,-0.20962 -1.01315,-0.3843 -1.57212,-1.15289 -0.55898,-0.7686 -0.7686,-1.71187 -0.24455,-0.94328 -0.20962,-1.92149 0.0349,-1.01315 0.24456,-1.92149 0.45417,-1.99137 1.46732,-3.77311 1.04808,-1.78175 2.41059,-3.24907 0.69873,-0.73366 1.57213,-1.39744 0.8734,-0.66379 1.85162,-1.08303 1.01315,-0.41923 2.06123,-0.52404 1.04809,-0.13974 2.09617,0.17468 0.90834,0.27949 1.36251,0.80353 0.48911,0.52405 0.69873,1.18783 0.4891,-0.90834 0.97821,-1.7468 0.52404,-0.87341 1.04809,-1.74681 0.76859,-1.29264 1.71187,-2.82983 0.97821,-1.5372 1.99136,-2.62022 0.41924,-0.45417 0.94328,-0.66378 0.55898,-0.24456 1.11796,-0.27949 0.55897,-0.0699 1.04808,0.0699 0.48911,0.10481 0.7686,0.3843 z m -14.39371,18.30655 q 0.97821,-1.11795 1.57213,-2.48046 0.62885,-1.36252 1.39745,-2.93464 0.31442,-0.69873 0.34936,-1.43239 0.0699,-0.76859 -0.20962,-1.29264 -0.24455,-0.52404 -0.83847,-0.66378 -0.55898,-0.13975 -1.53719,0.34936 -0.90834,0.48911 -1.67694,1.2577 -0.73366,0.73366 -1.36251,1.642 -0.59391,0.90834 -1.08302,1.88656 -0.45417,0.97821 -0.80353,1.92149 -0.13975,0.31442 -0.31443,0.90834 -0.17468,0.55898 -0.34936,1.22276 -0.13974,0.62885 -0.17468,1.2577 -0.0349,0.59392 0.13975,0.97822 0.20961,0.34936 0.66378,0.3843 0.45417,0.0349 1.32758,-0.45417 0.83847,-0.48911 1.57213,-1.11796 0.73366,-0.66379 1.32757,-1.43239 z"
             style="font-style:normal;font-variant:normal;font-weight:normal;font-stretch:normal;font-size:34.93618011px;line-height:1.25;font-family:'Painter PERSONAL USE ONLY';-inkscape-font-specification:'Painter PERSONAL USE ONLY, Normal';font-variant-ligatures:normal;font-variant-caps:normal;font-variant-numeric:normal;font-feature-settings:normal;text-align:start;letter-spacing:0px;word-spacing:0px;writing-mode:lr-tb;text-anchor:start;fill:#ffffff;fill-opacity:1;stroke:none;stroke-width:0.8734045"
             id="path909" />
          <path
             inkscape:connector-curvature="0"
             d="m 354.4809,202.1816 q -0.66378,1.2577 -1.2577,2.30579 -0.48911,0.90834 -0.97821,1.78174 -0.45417,0.83847 -0.62885,1.1529 -1.67694,3.17919 -3.00451,6.53306 -1.32758,3.31894 -2.69009,6.84749 l 1.57213,0.48911 q 0.62885,0.20962 1.36251,0.34936 0.76859,0.17468 1.46732,0.24455 0.73366,0.0699 1.29264,-0.13974 0.55898,-0.20962 1.04808,-0.59392 -0.31442,1.11796 -1.04808,2.0263 -0.69873,0.90834 -1.71188,1.46732 -1.04808,0.55898 -2.16604,0.62885 -1.11796,0.0699 -2.27085,-0.10481 l -1.18783,-0.24455 q -0.59392,1.46732 -1.36251,2.7949 -0.7686,1.36251 -1.88656,2.48046 -1.11795,1.04809 -2.48046,1.71188 -1.36252,0.69872 -2.93464,0.69872 -1.642,0 -3.07439,-0.83847 -1.43238,-0.83847 -2.23591,-2.27085 -0.7686,-1.32757 -0.80354,-2.86477 -0.0349,-1.53719 0.52405,-2.96957 0.55898,-1.39745 1.60706,-2.51541 1.04809,-1.11795 2.48047,-1.642 1.81668,-0.66378 3.87792,-0.4891 2.06123,0.17468 3.91285,0.62885 h 0.0349 q 0.45417,-1.36251 0.94327,-2.69009 0.48911,-1.36251 1.01315,-2.69008 l -0.41923,0.59391 q -0.45417,0.66379 -1.01315,1.39745 -0.52404,0.73366 -1.18783,1.2577 -0.62885,0.52404 -1.39745,0.69873 -0.7686,0.17468 -1.71187,-0.27949 -1.60707,-0.73366 -1.99136,-2.16605 -0.41924,-1.43238 -0.10481,-3.21413 0.38429,-1.99136 1.32757,-3.7731 0.94328,-1.81668 2.09617,-3.49362 0.48911,-0.73366 1.22277,-1.60707 0.76859,-0.8734 1.57213,-1.29263 0.55898,-0.27949 1.46732,-0.20962 0.94327,0.0349 2.02629,0.73366 -0.62885,0.83847 -1.57212,2.30579 -0.94328,1.46732 -1.88656,3.10932 -0.90834,1.60706 -1.60706,3.21412 -0.69872,1.60707 -0.80353,2.72503 -0.0349,0.41923 0.10481,0.73366 0.17468,0.31442 0.4891,0.38429 0.31443,0.0699 0.80353,-0.17468 0.48911,-0.27949 1.18783,-1.01315 1.08303,-1.15289 1.92149,-2.44553 0.87341,-1.29264 1.67694,-2.62021 0.48911,-1.08302 1.11796,-2.23592 0.62885,-1.18783 1.36251,-2.20098 0.73366,-1.01315 1.57213,-1.74681 0.83847,-0.76859 1.74681,-1.04808 0.59391,-0.17468 1.04808,-0.10481 0.45417,0.0349 0.80353,0.10481 0.3843,0.13974 0.73366,0.27949 z m -17.1886,27.35503 q 1.32758,-1.01315 2.0263,-2.55034 0.69873,-1.5372 1.18783,-3.07439 v -0.0699 q -1.01315,-0.31443 -2.0263,-0.55898 -0.97821,-0.24455 -1.99136,-0.31442 -1.11796,-0.0699 -2.23591,0.27949 -1.11796,0.38429 -1.88656,1.29263 -0.69872,0.83847 -0.8734,1.95643 -0.17468,1.15289 0.3843,2.09617 0.41923,0.69872 1.08302,1.08302 0.62885,0.41924 1.39744,0.52404 0.7686,0.13975 1.5372,-0.0349 0.76859,-0.17468 1.39744,-0.62885 z"
             style="font-style:normal;font-variant:normal;font-weight:normal;font-stretch:normal;font-size:34.93618011px;line-height:1.25;font-family:'Painter PERSONAL USE ONLY';-inkscape-font-specification:'Painter PERSONAL USE ONLY, Normal';font-variant-ligatures:normal;font-variant-caps:normal;font-variant-numeric:normal;font-feature-settings:normal;text-align:start;letter-spacing:0px;word-spacing:0px;writing-mode:lr-tb;text-anchor:start;fill:#ffffff;fill-opacity:1;stroke:none;stroke-width:0.8734045"
             id="path911" />
        </g>
      </g>
      <g
         style="fill:#ffffff"
         transform="matrix(0.16149399,0,0,0.16149399,-94.232093,179.25774)"
         id="g869">
        <path
           inkscape:connector-curvature="0"
           id="path2"
           d="m 411.505,156.667 c -53.244,-22.644 -97.92,-58.752 -146.88,-88.74 -1.224,-0.612 -2.448,-1.224 -3.06,-1.224 -1.225,-7.344 -12.24,-9.792 -14.076,-1.224 -3.672,16.524 -3.672,33.66 0,50.184 C 216.888,103.423 183.228,97.915 150.792,90.571 128.76,85.675 106.728,81.391 85.308,75.883 77.964,74.047 71.232,72.211 63.888,69.763 60.216,68.539 52.26,64.255 52.26,67.927 c 0,0 0,0 -0.612,0 -2.448,-3.06 -7.956,-3.672 -9.18,1.224 -0.612,1.836 0,3.672 1.224,5.508 -7.956,7.956 -15.912,15.912 -22.032,25.704 -4.284,6.732 -11.016,15.912 -12.852,24.48 -0.612,0.612 -0.612,0.612 -0.612,1.224 -11.016,39.78 -7.956,88.128 -7.344,129.132 0.612,21.42 -2.448,75.888 22.644,86.292 3.06,1.224 5.508,-1.224 6.732,-3.672 20.196,11.628 58.752,-2.448 76.5,-7.344 33.048,-9.181 66.708,-20.196 98.532,-33.66 0,7.956 0,16.523 0.612,24.479 0.612,8.568 0.612,20.809 8.569,26.316 -2.448,3.672 1.224,9.18 6.12,6.731 61.199,-31.212 128.52,-61.199 178.704,-108.936 3.06,-3.06 2.447,-6.732 0,-9.18 2.447,-9.792 4.283,-19.584 6.731,-28.764 2.448,-9.792 6.732,-21.42 4.896,-31.824 0,-0.612 -0.612,-1.836 -1.225,-2.448 1.225,-1.224 2.448,-2.448 3.672,-3.672 2.45,-3.67 2.45,-11.014 -1.834,-12.85 z M 58.993,84.451 c 44.676,20.196 170.136,35.496 190.945,38.556 3.06,3.672 11.016,2.448 10.403,-3.06 -1.224,-12.852 -1.224,-25.704 0,-39.168 43.452,29.988 85.681,62.424 134.028,84.456 -41.616,40.392 -84.456,75.888 -130.968,110.16 -0.612,-0.612 -1.225,-1.225 -2.448,-1.225 -1.836,-4.284 -0.612,-14.688 0,-19.584 0.612,-7.344 3.672,-19.584 -1.224,-25.704 -2.448,-2.447 -6.732,-2.447 -9.792,0 -1.225,1.225 -1.836,2.448 -2.448,3.673 -0.612,0 -1.224,0 -1.224,0 -31.824,9.791 -63.649,18.359 -95.473,25.703 -26.316,6.12 -55.692,12.24 -78.948,27.54 5.508,-27.54 -4.896,-63.036 -8.568,-89.964 C 57.769,157.891 53.485,122.395 58.993,84.451 Z M 391.31,202.567 c -2.448,11.628 -5.509,23.868 -6.12,35.496 -50.185,41.004 -108.937,66.096 -162.181,101.592 0,-6.732 -3.672,-14.076 -4.283,-20.809 -1.225,-9.18 -1.837,-18.972 -1.837,-28.764 3.061,-4.284 -1.224,-12.852 -7.956,-11.016 -28.765,9.792 -57.528,21.42 -86.292,30.6 -22.644,7.344 -69.156,26.928 -91.8,14.076 -1.224,-0.612 -3.06,-0.612 -4.284,-0.612 -3.06,-7.956 -6.12,-15.3 -7.344,-23.868 -4.284,-22.031 -3.672,-45.287 -3.672,-67.932 0,-30.6 6.12,-66.096 0.612,-97.308 0.612,0 1.836,-0.612 2.448,-1.224 7.344,-6.732 11.016,-17.748 15.912,-26.316 3.06,-5.508 5.508,-11.016 7.956,-16.524 -5.508,26.316 -1.224,55.692 1.836,80.784 2.448,22.644 6.12,45.288 9.18,67.932 2.448,17.137 1.224,34.885 4.896,52.021 0.612,3.672 4.284,4.896 7.344,4.284 v 0.611 c 0,0.612 0.612,1.225 1.224,1.836 7.344,3.061 11.628,-0.611 18.36,-4.283 18.972,-9.181 41.004,-14.076 61.2,-18.973 32.436,-7.956 68.544,-12.239 99.145,-26.315 0,3.672 -0.612,6.731 -0.612,10.403 -0.612,7.956 -1.836,19.584 4.896,25.704 2.447,2.448 6.12,2.448 8.567,1.225 0.612,3.06 3.672,5.508 7.956,4.284 48.349,-17.137 90.576,-61.812 127.296,-100.369 -1.224,4.285 -1.836,9.181 -2.447,13.465 z"
           style="fill:#ffffff;stroke:none" />
        <g
           style="fill:#ffffff"
           id="g6" />
        <g
           style="fill:#ffffff"
           id="g8" />
        <g
           style="fill:#ffffff"
           id="g10" />
        <g
           style="fill:#ffffff"
           id="g12" />
        <g
           style="fill:#ffffff"
           id="g14" />
        <g
           style="fill:#ffffff"
           id="g16" />
        <g
           style="fill:#ffffff"
           id="g18" />
        <g
           style="fill:#ffffff"
           id="g20" />
        <g
           style="fill:#ffffff"
           id="g22" />
        <g
           style="fill:#ffffff"
           id="g24" />
        <g
           style="fill:#ffffff"
           id="g26" />
        <g
           style="fill:#ffffff"
           id="g28" />
        <g
           style="fill:#ffffff"
           id="g30" />
        <g
           style="fill:#ffffff"
           id="g32" />
        <g
           style="fill:#ffffff"
           id="g34" />
      </g>
    </g>
  </g>
</svg>
