<?xml version="1.0" encoding="UTF-8" standalone="no"?>
<!-- Created with Inkscape (http://www.inkscape.org/) -->

<svg
   xmlns:dc="http://purl.org/dc/elements/1.1/"
   xmlns:cc="http://creativecommons.org/ns#"
   xmlns:rdf="http://www.w3.org/1999/02/22-rdf-syntax-ns#"
   xmlns:svg="http://www.w3.org/2000/svg"
   xmlns="http://www.w3.org/2000/svg"
   xmlns:sodipodi="http://sodipodi.sourceforge.net/DTD/sodipodi-0.dtd"
   xmlns:inkscape="http://www.inkscape.org/namespaces/inkscape"
   width="612.3457mm"
   height="47.625mm"
   viewBox="0 0 612.34571 47.625"
   version="1.1"
   id="svg904"
   inkscape:version="0.92.4 (5da689c313, 2019-01-14)"
   sodipodi:docname="projectName02.svg">
  <defs
     id="defs898" />
  <sodipodi:namedview
     id="base"
     pagecolor="#ffffff"
     bordercolor="#666666"
     borderopacity="1.0"
     inkscape:pageopacity="0.0"
     inkscape:pageshadow="2"
     inkscape:zoom="0.35"
     inkscape:cx="1268.5791"
     inkscape:cy="-196.75104"
     inkscape:document-units="mm"
     inkscape:current-layer="layer1"
     showgrid="false"
     showborder="false"
     fit-margin-top="0"
     fit-margin-left="0"
     fit-margin-right="0"
     fit-margin-bottom="0"
     inkscape:window-width="1920"
     inkscape:window-height="1001"
     inkscape:window-x="-9"
     inkscape:window-y="-9"
     inkscape:window-maximized="1" />
  <metadata
     id="metadata901">
    <rdf:RDF>
      <cc:Work
         rdf:about="">
        <dc:format>image/svg+xml</dc:format>
        <dc:type
           rdf:resource="http://purl.org/dc/dcmitype/StillImage" />
        <dc:title></dc:title>
      </cc:Work>
    </rdf:RDF>
  </metadata>
  <g
     inkscape:label="Layer 1"
     inkscape:groupmode="layer"
     id="layer1"
     transform="translate(327.12688,-137.07922)">
    <g
       id="g1092"
       style="fill:#ffffff">
      <g
         style="fill:#ffffff"
         transform="matrix(0.16149399,0,0,0.16149399,-327.12674,127.3822)"
         id="g879">
        <path
           inkscape:connector-curvature="0"
           id="path2"
           d="m 411.505,156.667 c -53.244,-22.644 -97.92,-58.752 -146.88,-88.74 -1.224,-0.612 -2.448,-1.224 -3.06,-1.224 -1.225,-7.344 -12.24,-9.792 -14.076,-1.224 -3.672,16.524 -3.672,33.66 0,50.184 C 216.888,103.423 183.228,97.915 150.792,90.571 128.76,85.675 106.728,81.391 85.308,75.883 77.964,74.047 71.232,72.211 63.888,69.763 60.216,68.539 52.26,64.255 52.26,67.927 c 0,0 0,0 -0.612,0 -2.448,-3.06 -7.956,-3.672 -9.18,1.224 -0.612,1.836 0,3.672 1.224,5.508 -7.956,7.956 -15.912,15.912 -22.032,25.704 -4.284,6.732 -11.016,15.912 -12.852,24.48 -0.612,0.612 -0.612,0.612 -0.612,1.224 -11.016,39.78 -7.956,88.128 -7.344,129.132 0.612,21.42 -2.448,75.888 22.644,86.292 3.06,1.224 5.508,-1.224 6.732,-3.672 20.196,11.628 58.752,-2.448 76.5,-7.344 33.048,-9.181 66.708,-20.196 98.532,-33.66 0,7.956 0,16.523 0.612,24.479 0.612,8.568 0.612,20.809 8.569,26.316 -2.448,3.672 1.224,9.18 6.12,6.731 61.199,-31.212 128.52,-61.199 178.704,-108.936 3.06,-3.06 2.447,-6.732 0,-9.18 2.447,-9.792 4.283,-19.584 6.731,-28.764 2.448,-9.792 6.732,-21.42 4.896,-31.824 0,-0.612 -0.612,-1.836 -1.225,-2.448 1.225,-1.224 2.448,-2.448 3.672,-3.672 2.45,-3.67 2.45,-11.014 -1.834,-12.85 z M 58.993,84.451 c 44.676,20.196 170.136,35.496 190.945,38.556 3.06,3.672 11.016,2.448 10.403,-3.06 -1.224,-12.852 -1.224,-25.704 0,-39.168 43.452,29.988 85.681,62.424 134.028,84.456 -41.616,40.392 -84.456,75.888 -130.968,110.16 -0.612,-0.612 -1.225,-1.225 -2.448,-1.225 -1.836,-4.284 -0.612,-14.688 0,-19.584 0.612,-7.344 3.672,-19.584 -1.224,-25.704 -2.448,-2.447 -6.732,-2.447 -9.792,0 -1.225,1.225 -1.836,2.448 -2.448,3.673 -0.612,0 -1.224,0 -1.224,0 -31.824,9.791 -63.649,18.359 -95.473,25.703 -26.316,6.12 -55.692,12.24 -78.948,27.54 5.508,-27.54 -4.896,-63.036 -8.568,-89.964 C 57.769,157.891 53.485,122.395 58.993,84.451 Z M 391.31,202.567 c -2.448,11.628 -5.509,23.868 -6.12,35.496 -50.185,41.004 -108.937,66.096 -162.181,101.592 0,-6.732 -3.672,-14.076 -4.283,-20.809 -1.225,-9.18 -1.837,-18.972 -1.837,-28.764 3.061,-4.284 -1.224,-12.852 -7.956,-11.016 -28.765,9.792 -57.528,21.42 -86.292,30.6 -22.644,7.344 -69.156,26.928 -91.8,14.076 -1.224,-0.612 -3.06,-0.612 -4.284,-0.612 -3.06,-7.956 -6.12,-15.3 -7.344,-23.868 -4.284,-22.031 -3.672,-45.287 -3.672,-67.932 0,-30.6 6.12,-66.096 0.612,-97.308 0.612,0 1.836,-0.612 2.448,-1.224 7.344,-6.732 11.016,-17.748 15.912,-26.316 3.06,-5.508 5.508,-11.016 7.956,-16.524 -5.508,26.316 -1.224,55.692 1.836,80.784 2.448,22.644 6.12,45.288 9.18,67.932 2.448,17.137 1.224,34.885 4.896,52.021 0.612,3.672 4.284,4.896 7.344,4.284 v 0.611 c 0,0.612 0.612,1.225 1.224,1.836 7.344,3.061 11.628,-0.611 18.36,-4.283 18.972,-9.181 41.004,-14.076 61.2,-18.973 32.436,-7.956 68.544,-12.239 99.145,-26.315 0,3.672 -0.612,6.731 -0.612,10.403 -0.612,7.956 -1.836,19.584 4.896,25.704 2.447,2.448 6.12,2.448 8.567,1.225 0.612,3.06 3.672,5.508 7.956,4.284 48.349,-17.137 90.576,-61.812 127.296,-100.369 -1.224,4.285 -1.836,9.181 -2.447,13.465 z"
           style="fill:#ffffff;stroke:none" />
        <g
           style="fill:#ffffff"
           id="g6">
</g>
        <g
           style="fill:#ffffff"
           id="g8">
</g>
        <g
           style="fill:#ffffff"
           id="g10">
</g>
        <g
           style="fill:#ffffff"
           id="g12">
</g>
        <g
           style="fill:#ffffff"
           id="g14">
</g>
        <g
           style="fill:#ffffff"
           id="g16">
</g>
        <g
           style="fill:#ffffff"
           id="g18">
</g>
        <g
           style="fill:#ffffff"
           id="g20">
</g>
        <g
           style="fill:#ffffff"
           id="g22">
</g>
        <g
           style="fill:#ffffff"
           id="g24">
</g>
        <g
           style="fill:#ffffff"
           id="g26">
</g>
        <g
           style="fill:#ffffff"
           id="g28">
</g>
        <g
           style="fill:#ffffff"
           id="g30">
</g>
        <g
           style="fill:#ffffff"
           id="g32">
</g>
        <g
           style="fill:#ffffff"
           id="g34">
</g>
      </g>
      <g
         transform="translate(-5.3181694)"
         id="text883"
         style="font-style:normal;font-variant:normal;font-weight:normal;font-stretch:normal;font-size:34.93618011px;line-height:1.25;font-family:'Painter PERSONAL USE ONLY';-inkscape-font-specification:'Painter PERSONAL USE ONLY, Normal';font-variant-ligatures:normal;font-variant-caps:normal;font-variant-numeric:normal;font-feature-settings:normal;text-align:start;letter-spacing:0px;word-spacing:0px;writing-mode:lr-tb;text-anchor:start;fill:#ffffff;fill-opacity:1;stroke:none;stroke-width:0.87340444"
         aria-label="mieszkanie od dewelopera Grunwald">
        <path
           id="path885"
           style="font-style:normal;font-variant:normal;font-weight:normal;font-stretch:normal;font-size:34.93618011px;font-family:'Painter PERSONAL USE ONLY';-inkscape-font-specification:'Painter PERSONAL USE ONLY, Normal';font-variant-ligatures:normal;font-variant-caps:normal;font-variant-numeric:normal;font-feature-settings:normal;text-align:start;writing-mode:lr-tb;text-anchor:start;stroke-width:0.87340444;fill:#ffffff"
           d="m -213.71927,160.35022 q 0.41923,-0.10481 0.73366,-0.0349 0.31442,0.0699 0.3843,0.59391 -0.97822,1.85162 -2.20098,3.49362 -1.22277,1.642 -2.72503,2.96957 -0.66378,0.59392 -1.53719,1.11796 -0.83847,0.48911 -1.74681,0.69873 -0.8734,0.20961 -1.74681,0 -0.8734,-0.24456 -1.53719,-1.1529 -0.59391,-0.73366 -0.69872,-1.642 -0.10481,-0.94328 0.0349,-1.92149 0.17468,-0.97821 0.4891,-1.88655 0.34936,-0.94328 0.69873,-1.74681 0.59391,-1.43238 1.36251,-2.72502 0.80353,-1.32758 1.50225,-2.72503 -1.01315,0.80354 -2.16604,1.88656 -1.11796,1.08302 -1.95643,2.06123 -1.04808,1.22277 -1.99136,2.48047 -0.94328,1.22277 -1.85162,2.55034 -0.80353,1.1529 -1.36251,2.06124 -0.55898,0.90834 -0.97821,1.53719 -0.41924,0.62885 -0.73366,0.94328 -0.27949,0.31442 -0.55898,0.31442 -0.34936,-0.0349 -0.80353,-0.17468 -0.45417,-0.17468 -0.87341,-0.3843 -0.38429,-0.24455 -0.66378,-0.59391 -0.24456,-0.34936 -0.17468,-0.83847 0.0349,-0.13975 0.13974,-0.45417 0.13974,-0.34936 0.27949,-0.73366 0.17468,-0.3843 0.31442,-0.73366 0.17469,-0.3843 0.24456,-0.59392 0.94328,-2.09617 1.99136,-4.26221 1.08302,-2.16604 2.34072,-4.61158 -1.43238,1.32758 -2.79489,2.82984 -1.32757,1.46732 -2.55034,3.00451 -0.80353,0.97821 -1.57213,1.95642 -0.73366,0.97822 -1.46732,1.99137 -0.13974,0.17468 -0.45417,0.62885 -0.31442,0.45417 -0.69872,0.94327 -0.34936,0.48911 -0.69873,0.94328 -0.34936,0.45417 -0.55898,0.62885 -0.31442,0.24455 -0.80353,0.13975 -0.52404,-0.13975 -1.01315,-0.48911 -0.4891,-0.34936 -0.80353,-0.80353 -0.34936,-0.45417 -0.27949,-0.87341 0.13975,-0.83847 0.66379,-2.09617 0.52404,-1.29264 1.22277,-2.69008 0.69872,-1.43239 1.50225,-2.86477 0.83847,-1.43238 1.60707,-2.65515 l 2.1311,-3.49362 q 0.31443,-0.55898 0.97822,-0.76859 0.66378,-0.24456 1.46732,0.34936 0.80353,0.62885 1.01314,1.01315 0.20962,0.3843 -0.13974,1.01315 -0.3843,0.69872 -0.94328,1.57212 -0.52404,0.83847 -1.08302,1.71188 -0.52404,0.83847 -1.01315,1.642 -0.4891,0.80353 -0.80353,1.36251 0.48911,-0.59392 1.29264,-1.50226 0.80353,-0.94327 1.67694,-1.88655 0.8734,-0.97821 1.71187,-1.85162 0.83847,-0.8734 1.43238,-1.36251 0.20962,-0.20962 0.52404,-0.45417 0.34937,-0.27949 0.73366,-0.52404 0.3843,-0.24456 0.80354,-0.41924 0.45417,-0.17468 0.94327,-0.13974 0.45417,0.0349 0.94328,0.27949 0.52404,0.20962 0.94328,0.55898 0.41923,0.31442 0.66378,0.66378 0.27949,0.34937 0.24456,0.59392 -0.0699,0.3843 -0.34936,0.8734 -0.27949,0.45417 -0.45417,0.83847 l -0.83847,1.71188 q 2.1311,-2.62022 4.78625,-4.4369 1.36251,-0.94328 2.23592,-1.08302 0.8734,-0.13975 1.74681,0.27949 0.90834,0.41923 1.43238,0.94328 0.52404,0.52404 0.45417,0.76859 -0.0699,0.34936 -0.24455,0.69872 -0.17468,0.34937 -0.34936,0.66379 l -1.50226,2.82983 q -0.73366,1.43239 -1.50225,2.86477 -0.73366,1.39745 -1.25771,2.93464 -0.3843,1.08302 0.20962,1.46732 0.62885,0.34936 2.09617,-0.45417 1.43238,-0.80353 2.48047,-2.16605 1.08302,-1.39744 2.0263,-3.17919 z"
           inkscape:connector-curvature="0" />
        <path
           id="path887"
           style="font-style:normal;font-variant:normal;font-weight:normal;font-stretch:normal;font-size:34.93618011px;font-family:'Painter PERSONAL USE ONLY';-inkscape-font-specification:'Painter PERSONAL USE ONLY, Normal';font-variant-ligatures:normal;font-variant-caps:normal;font-variant-numeric:normal;font-feature-settings:normal;text-align:start;writing-mode:lr-tb;text-anchor:start;stroke-width:0.87340444;fill:#ffffff"
           d="m -205.27782,153.18831 q -0.41923,0.4891 -0.97821,1.36251 -0.55898,0.8734 -1.08302,1.81668 -0.52405,0.94327 -1.01315,1.81668 -0.45417,0.8734 -0.69873,1.43238 -0.4891,1.08302 -0.94327,2.16605 -0.45417,1.08302 -0.80353,2.20097 -0.27949,1.04809 -0.27949,1.74681 0.0349,0.66379 0.41923,0.87341 0.3843,0.20962 1.11796,-0.10481 0.73366,-0.34936 1.88655,-1.36251 1.11796,-1.01315 2.09617,-2.23592 0.97822,-1.22276 1.67694,-2.55034 0.94328,-0.45417 1.11796,0.55898 -0.80354,1.46732 -1.81668,2.93464 -1.01315,1.43238 -2.23592,2.65515 -1.88655,1.99136 -3.42375,2.65515 -1.50225,0.62885 -2.62021,0.13974 -1.18783,-0.4891 -1.57213,-1.57212 -0.41923,-1.11796 -0.3843,-2.27086 0.0699,-2.16604 0.7686,-4.26221 0.69872,-2.13111 1.74681,-3.98272 0.62885,-1.11796 1.36251,-2.27086 0.7686,-1.15289 1.74681,-1.95642 0.34936,-0.27949 0.8734,-0.41924 0.52405,-0.17468 1.08303,-0.13974 0.59391,0 1.11795,0.17468 0.52405,0.17468 0.83847,0.59392 z m -0.0349,-3.28401 q -0.7686,-0.24455 -1.32758,-0.90834 -0.55898,-0.69872 -0.3843,-1.67693 0.13975,-0.83847 0.45417,-1.60707 0.34937,-0.76859 1.22277,-0.94327 0.48911,-0.0699 0.94328,0 0.4891,0.0699 0.94327,0.24455 1.04809,0.34936 1.32758,0.94328 0.31442,0.59391 0.34936,0.8734 0.0699,0.69872 -0.13974,1.36251 -0.17469,0.66379 -0.66379,1.1529 -0.55898,0.52404 -1.29264,0.66378 -0.73366,0.10481 -1.43238,-0.10481 z"
           inkscape:connector-curvature="0" />
        <path
           id="path889"
           style="font-style:normal;font-variant:normal;font-weight:normal;font-stretch:normal;font-size:34.93618011px;font-family:'Painter PERSONAL USE ONLY';-inkscape-font-specification:'Painter PERSONAL USE ONLY, Normal';font-variant-ligatures:normal;font-variant-caps:normal;font-variant-numeric:normal;font-feature-settings:normal;text-align:start;writing-mode:lr-tb;text-anchor:start;stroke-width:0.87340444;fill:#ffffff"
           d="m -198.77095,162.13197 q -0.3843,0.0349 -0.80354,0.0349 -0.38429,-0.0349 -0.76859,-0.10481 -0.62885,1.95643 -0.3843,3.21413 0.27949,1.25771 1.18783,1.74681 0.94328,0.48911 2.4106,0.17468 1.46732,-0.31442 3.284,-1.46732 1.46732,-1.01315 2.62021,-2.44553 1.18783,-1.46732 1.99136,-2.93464 0.3843,-0.13974 0.69873,-0.10481 0.34936,0 0.41923,0.66379 -0.80353,1.53719 -2.13111,3.14426 -1.29263,1.60706 -2.86476,2.96957 -2.51541,2.09617 -4.96094,2.7949 -2.44553,0.69872 -4.19234,-0.41924 -1.32758,-0.90834 -2.0263,-2.34072 -0.73366,-1.46732 -0.66379,-3.03945 0.0349,-1.46732 0.55898,-2.93464 0.48911,-1.50225 1.32758,-2.86476 0.83847,-1.36252 1.95642,-2.48047 1.11796,-1.1529 2.4106,-1.85162 1.29264,-0.69872 2.96957,-1.08302 1.71188,-0.3843 3.1792,0 0.73366,0.17468 1.22276,0.62885 0.48911,0.41923 0.69873,1.01315 0.24455,0.55898 0.20961,1.22276 -0.0349,0.66379 -0.27949,1.32758 -0.59391,1.57213 -1.92149,2.65515 -1.29263,1.08302 -2.79489,1.67694 -1.67694,0.69872 -3.35387,0.80353 z m 3.00451,-6.70775 q -1.29264,1.11796 -2.37566,2.55034 -1.04809,1.43239 -1.78175,3.00451 0.52405,-0.13974 1.18783,-0.38429 1.04809,-0.3843 2.0263,-0.90835 0.97821,-0.55897 1.78175,-1.32757 0.69872,-0.62885 1.29264,-1.46732 0.59391,-0.83847 0.52404,-1.85162 0,-0.55898 -0.34936,-0.62885 -0.34937,-0.0699 -0.80354,0.10481 -0.45417,0.17468 -0.8734,0.45417 -0.41923,0.27949 -0.62885,0.45417 z"
           inkscape:connector-curvature="0" />
        <path
           id="path891"
           style="font-style:normal;font-variant:normal;font-weight:normal;font-stretch:normal;font-size:34.93618011px;font-family:'Painter PERSONAL USE ONLY';-inkscape-font-specification:'Painter PERSONAL USE ONLY, Normal';font-variant-ligatures:normal;font-variant-caps:normal;font-variant-numeric:normal;font-feature-settings:normal;text-align:start;writing-mode:lr-tb;text-anchor:start;stroke-width:0.87340444;fill:#ffffff"
           d="m -177.35781,150.04405 q -0.45417,0.62885 -0.83847,1.74681 -0.38429,1.15289 -0.59391,2.58528 -0.17468,1.39744 -0.34936,2.8997 -0.17468,1.50225 -0.41924,3.03945 -0.24455,1.50225 -0.69872,2.8997 -0.45417,1.32757 -1.2577,2.44553 -0.7686,1.08302 -1.74681,1.88656 -1.08302,0.90834 -2.72502,1.46731 -1.642,0.55898 -3.24907,0.48911 -1.60706,-0.0349 -2.82983,-0.83847 -1.2577,-0.83847 -1.57213,-2.72502 -0.17468,-1.15289 0.24456,-2.30579 0.38429,-1.18783 1.18783,-2.09617 0.76859,-0.90834 1.88655,-1.46732 1.08302,-0.55898 2.27085,-0.52404 0.66379,-0.90834 1.39745,-1.88655 0.7686,-0.97822 1.50226,-1.95643 0.76859,-0.97821 1.46731,-1.92149 0.69873,-0.94328 1.29264,-1.78174 0.31443,-0.69873 0.83847,-1.18784 0.55898,-0.4891 1.22277,-0.73365 0.69872,-0.24456 1.46732,-0.24456 0.76859,-0.0349 1.50225,0.20962 z m -6.04396,5.72953 q -0.73366,0.97822 -1.57212,2.06124 -0.80354,1.04808 -1.60707,2.06123 0.55898,0.31443 0.7686,0.83847 0.24455,0.48911 0.17468,1.04809 -0.0349,0.52404 -0.34936,1.08302 -0.31443,0.55898 -0.83847,0.97821 -0.87341,-0.80353 -2.06124,-0.83847 -1.15289,-0.0699 -2.06123,0.83847 -0.3843,0.3843 -0.52404,0.90834 -0.17468,0.48911 -0.10481,0.97821 0.0699,0.48911 0.3843,0.90834 0.27949,0.3843 0.80353,0.59392 0.94327,0.34936 1.85162,0.0699 0.94327,-0.27949 1.71187,-0.94327 0.80353,-0.69873 1.39745,-1.60707 0.59391,-0.94328 0.90834,-1.92149 0.52404,-1.67694 0.66378,-3.45868 0.17468,-1.81668 0.45417,-3.59843 z"
           inkscape:connector-curvature="0" />
        <path
           id="path893"
           style="font-style:normal;font-variant:normal;font-weight:normal;font-stretch:normal;font-size:34.93618011px;font-family:'Painter PERSONAL USE ONLY';-inkscape-font-specification:'Painter PERSONAL USE ONLY, Normal';font-variant-ligatures:normal;font-variant-caps:normal;font-variant-numeric:normal;font-feature-settings:normal;text-align:start;writing-mode:lr-tb;text-anchor:start;stroke-width:0.87340444;fill:#ffffff"
           d="m -163.9505,156.68192 q -1.11796,0.62885 -2.1311,1.39745 -1.01315,0.73366 -1.95643,1.53719 -0.80353,0.66379 -1.71187,1.50226 -0.87341,0.80353 -1.81668,1.642 -0.94328,0.83847 -1.88656,1.60706 -0.94328,0.7686 -1.81668,1.29264 1.08302,-0.17468 2.30579,-0.41923 1.2577,-0.24456 2.48047,-0.34936 1.2577,-0.13975 2.37566,-0.0349 1.11795,0.0699 1.95642,0.52404 1.29264,0.69873 1.57213,1.74681 0.31443,1.01315 0.10481,2.16604 -1.04809,-0.17468 -2.58528,-0.24455 -1.50225,-0.0699 -3.24906,-0.0349 -1.74681,0 -3.59843,0.10481 -1.81668,0.10481 -3.49362,0.27949 -0.45417,0.0699 -0.90834,0.13975 -0.4891,0.0699 -0.94327,0.0349 -0.55898,-0.0349 -0.83847,-0.31442 -0.27949,-0.31443 -0.45417,-1.08302 -0.17468,-0.7686 0,-1.11796 0.13974,-0.3843 0.41923,-0.48911 1.11796,-0.4891 2.16604,-1.18783 1.01315,-0.73366 1.99137,-1.50225 0.83846,-0.66379 1.74681,-1.43239 0.94327,-0.80353 1.88655,-1.642 0.97821,-0.83847 1.88655,-1.642 0.90834,-0.83847 1.71188,-1.53719 0.4891,-0.41923 0.8734,-0.73366 0.3843,-0.31443 0.90834,-0.66379 -0.62885,0 -1.36251,0.10481 -0.69872,0.0699 -1.39745,0.13975 -0.69872,0.0349 -1.36251,0 -0.62885,-0.0349 -1.11796,-0.31443 -1.08302,-0.59391 -1.22276,-1.43238 -0.13975,-0.83847 0.20961,-1.95643 0.24456,0.10481 0.97822,0.13975 0.76859,0 1.78174,0 1.01315,0 2.16605,-0.0349 1.15289,-0.0349 2.20098,-0.0349 1.08302,-0.0349 1.92149,-0.0699 0.83846,-0.0349 1.22276,-0.0349 0.66379,0.0349 0.97821,0.62886 0.31443,0.59391 0.17469,2.34072 -0.55898,0.24455 -1.11796,0.48911 -0.52404,0.20961 -1.04809,0.4891 z"
           inkscape:connector-curvature="0" />
        <path
           id="path895"
           style="font-style:normal;font-variant:normal;font-weight:normal;font-stretch:normal;font-size:34.93618011px;font-family:'Painter PERSONAL USE ONLY';-inkscape-font-specification:'Painter PERSONAL USE ONLY, Normal';font-variant-ligatures:normal;font-variant-caps:normal;font-variant-numeric:normal;font-feature-settings:normal;text-align:start;writing-mode:lr-tb;text-anchor:start;stroke-width:0.87340444;fill:#ffffff"
           d="m -143.26282,160.35022 q 0.90834,-0.20961 1.11796,0.55898 -1.32758,2.55034 -3.21413,4.96094 -0.90834,1.11796 -2.06124,2.16604 -1.11795,1.04809 -2.48046,1.642 -1.1529,0.48911 -2.37566,0.31443 -1.22277,-0.13975 -2.13111,-1.04809 -0.59392,-0.55898 -0.94328,-1.2577 -0.34936,-0.73366 -0.52404,-1.50226 -0.17468,-0.76859 -0.20962,-1.57212 0,-0.80354 0.0699,-1.60707 0,-0.17468 0.0699,-0.62885 0.0699,-0.48911 0.13974,-0.97821 0.0699,-0.48911 0.13975,-0.87341 0.0699,-0.41923 0.1048,-0.45417 1.11796,-0.27949 2.23592,-0.76859 1.11796,-0.48911 1.88655,-1.01315 0.45417,-0.31443 1.08303,-0.87341 0.62885,-0.59391 1.15289,-1.29264 0.55898,-0.73366 0.8734,-1.53719 0.31443,-0.80353 0.13975,-1.57213 -0.45417,0.0699 -1.04809,0.3843 -0.59391,0.31443 -1.22276,0.73366 -0.59392,0.3843 -1.1529,0.87341 -0.55898,0.45417 -0.97821,0.83846 -0.97821,0.94328 -1.85162,1.95643 -0.8734,1.01315 -1.67693,2.09617 -1.81669,2.34073 -3.31894,4.96094 -0.10481,0.17468 -0.41924,0.7686 -0.27949,0.59391 -0.66378,1.32757 -0.34937,0.69872 -0.73366,1.39745 -0.34936,0.69872 -0.55898,1.08302 -0.80353,-0.0349 -1.50226,-0.66379 -0.69872,-0.62885 -0.76859,-1.46732 -0.0349,-0.17468 0.0349,-0.55898 0.0699,-0.38429 0.20962,-0.83847 0.10481,-0.4891 0.27949,-0.97821 0.17468,-0.52404 0.3843,-0.97821 0.80353,-1.88656 1.71187,-3.6683 0.90834,-1.81668 1.92149,-3.59843 l 2.48047,-4.33208 2.09617,-3.56349 q 0.24455,-0.3843 0.62885,-1.1529 0.41923,-0.76859 0.83847,-1.57213 0.45417,-0.90834 1.01315,-1.92149 0.4891,0.0699 0.94327,0.24456 0.3843,0.17468 0.80354,0.45417 0.41923,0.27949 0.69872,0.73366 0.17468,0.34936 0.17468,1.01315 0.0349,0.62885 -0.41923,1.53719 -0.41924,0.8734 -0.94328,1.71187 -0.52404,0.80353 -1.01315,1.642 -0.69872,1.1529 -1.642,2.55034 -0.90834,1.39745 -1.60706,2.55034 0.97821,-1.01314 2.23591,-2.1311 1.29264,-1.11796 2.51541,-1.81668 0.10481,-0.0699 0.3843,-0.20962 0.31442,-0.13975 0.69872,-0.24455 0.3843,-0.13975 0.76859,-0.20962 0.41924,-0.10481 0.69873,-0.0699 0.59391,-0.3843 1.29264,-0.31443 0.73366,0.0699 1.2577,0.55898 0.69872,0.59391 0.8734,1.53719 0.20962,0.90834 0.0349,1.81668 -0.20962,0.94328 -0.7686,1.81668 -0.52404,0.87341 -1.2577,1.642 -0.73366,0.73366 -1.60706,1.32758 -0.87341,0.55898 -1.74681,0.94328 -0.48911,0.17468 -0.97821,0.34936 -0.48911,0.13974 -1.01315,0.24455 -0.0699,0.31443 -0.0349,1.11796 0.0349,0.80353 0.17468,1.67694 0.13975,0.8734 0.3843,1.60706 0.27949,0.73366 0.69872,0.94328 0.48911,0.24455 1.04809,0.13974 0.59391,-0.13974 1.15289,-0.45417 0.55898,-0.31442 1.04809,-0.69872 0.4891,-0.41924 0.83847,-0.80353 1.08302,-1.1529 1.92149,-2.37566 0.8734,-1.25771 1.60706,-2.62022 z"
           inkscape:connector-curvature="0" />
        <path
           id="path897"
           style="font-style:normal;font-variant:normal;font-weight:normal;font-stretch:normal;font-size:34.93618011px;font-family:'Painter PERSONAL USE ONLY';-inkscape-font-specification:'Painter PERSONAL USE ONLY, Normal';font-variant-ligatures:normal;font-variant-caps:normal;font-variant-numeric:normal;font-feature-settings:normal;text-align:start;writing-mode:lr-tb;text-anchor:start;stroke-width:0.87340444;fill:#ffffff"
           d="m -126.02072,153.92197 q -0.3843,0.52404 -0.94328,1.36251 -0.52404,0.83846 -1.11796,1.81668 -0.59391,0.97821 -1.18783,2.0263 -0.55898,1.04808 -1.01315,1.99136 -0.94328,1.95642 -1.46732,3.284 -0.52404,1.32757 -0.27949,1.71187 0.10481,0.17468 0.34936,0.17468 0.27949,-0.0349 0.59392,-0.13974 0.31442,-0.10481 0.55898,-0.24456 0.27949,-0.17468 0.3843,-0.24455 0.76859,-0.4891 1.36251,-1.11796 0.59391,-0.66378 1.11795,-1.36251 0.48911,-0.66378 0.94328,-1.39744 0.45417,-0.73366 0.83847,-1.43239 0.41923,-0.10481 0.69872,0 0.31443,0.10481 0.41924,0.55898 -0.48911,0.90834 -0.94328,1.78175 -0.45417,0.8734 -1.04808,1.71187 -0.55898,0.83847 -1.18783,1.60706 -0.59392,0.7686 -1.29264,1.46732 -0.66379,0.66379 -1.46732,1.18783 -0.7686,0.48911 -1.74681,0.45417 -0.97821,0 -1.74681,-0.55898 -0.7686,-0.55897 -1.11796,-1.46732 -0.17468,-0.41923 -0.24455,-0.94327 -0.55898,0.80353 -1.18783,1.46732 -0.62885,0.66379 -1.43239,1.11796 -1.11795,0.62885 -2.34072,0.52404 -1.22277,-0.10481 -2.13111,-0.94328 -0.8734,-0.80353 -1.18783,-1.88655 -0.31442,-1.11796 -0.31442,-2.23592 0.0349,-1.39745 0.45417,-2.75996 0.41923,-1.36251 1.08302,-2.62021 0.69872,-1.2577 1.57213,-2.34072 0.90834,-1.11796 1.92149,-2.0263 0.97821,-0.90834 2.20098,-1.46732 1.2577,-0.55898 2.58527,-0.48911 1.29264,0.0699 2.27086,0.80353 0.97821,0.69873 1.43238,1.88656 0.41923,-0.48911 0.94328,-0.87341 0.55898,-0.41923 1.15289,-0.62885 0.62885,-0.24455 1.32758,-0.20962 0.73365,0.0349 1.18783,0.45418 z m -11.03984,9.57251 q 1.57213,-1.11796 2.82983,-2.86477 1.25771,-1.74681 1.642,-3.70323 0.17468,-0.73366 -0.0349,-1.43239 -0.20962,-0.73366 -1.08302,-0.8734 -0.69873,-0.10481 -1.29264,0.27949 -0.59392,0.3843 -1.08302,0.83847 -1.50226,1.46732 -2.44554,3.35387 -0.90834,1.88655 -1.39744,3.91285 -0.45417,2.0263 0.17468,2.69009 0.66378,0.62885 1.78174,0.0349 0.73366,-0.38429 1.36251,-0.94327 0.66379,-0.55898 1.25771,-1.1529 -0.48911,0.10481 -1.01315,0.13975 -0.48911,0 -0.69873,-0.27949 z"
           inkscape:connector-curvature="0" />
        <path
           id="path899"
           style="font-style:normal;font-variant:normal;font-weight:normal;font-stretch:normal;font-size:34.93618011px;font-family:'Painter PERSONAL USE ONLY';-inkscape-font-specification:'Painter PERSONAL USE ONLY, Normal';font-variant-ligatures:normal;font-variant-caps:normal;font-variant-numeric:normal;font-feature-settings:normal;text-align:start;writing-mode:lr-tb;text-anchor:start;stroke-width:0.87340444;fill:#ffffff"
           d="m -108.20164,160.35022 q 1.08302,-0.45417 1.11796,0.55898 -1.04809,1.99136 -2.27086,3.77311 -1.22276,1.74681 -2.75995,3.21413 -0.66379,0.62885 -1.5372,1.18783 -0.8734,0.52404 -1.78174,0.73366 -0.90834,0.24455 -1.81668,0.0349 -0.90834,-0.17468 -1.642,-1.04808 -0.62885,-0.69873 -0.7686,-1.60707 -0.13974,-0.90834 0,-1.88655 0.17468,-0.97821 0.48911,-1.92149 0.34936,-0.94328 0.66379,-1.74681 0.69872,-1.57213 1.60706,-3.00451 0.94328,-1.46732 1.71187,-3.03945 -1.01315,0.80353 -2.20098,1.88656 -1.15289,1.08302 -1.95642,2.06123 -1.04809,1.2577 -1.99137,2.58528 -0.94327,1.29264 -1.85161,2.65515 -0.45417,0.69872 -0.87341,1.39744 -0.41923,0.66379 -0.80353,1.36252 -0.20962,0.31442 -0.52404,0.80353 -0.31443,0.45417 -0.87341,0.41923 -0.41923,0 -0.83847,-0.24455 -0.41923,-0.24455 -0.73365,-0.59392 -0.34937,-0.34936 -0.52405,-0.73366 -0.20961,-0.41923 -0.13974,-0.73366 0.55898,-2.55034 1.92149,-4.89106 1.32757,-2.37566 2.72502,-4.57664 0.59391,-0.90834 1.11796,-1.88655 0.55898,-0.97822 1.22276,-1.88656 0.31443,-0.45417 0.80354,-0.62885 0.52404,-0.17468 1.43238,0.34936 0.41923,0.24456 0.62885,0.48911 0.24455,0.20962 0.24455,0.55898 0,0.31442 -0.27949,0.80353 -0.24455,0.48911 -0.76859,1.22277 -0.48911,0.66378 -1.04809,1.60706 -0.52404,0.94328 -0.90834,1.71187 0.55898,-0.62885 1.32758,-1.50225 0.80353,-0.87341 1.67693,-1.74681 0.87341,-0.87341 1.74681,-1.60707 0.90834,-0.73366 1.67694,-1.11795 0.94328,-0.48911 2.20098,-0.34937 1.29264,0.13975 2.30579,1.11796 0.27949,0.27949 0.24455,0.48911 -0.0349,0.17468 -0.20962,0.52404 -0.31442,0.73366 -0.73366,1.46732 -0.41923,0.7686 -0.8734,1.53719 -0.45417,0.73366 -0.87341,1.53719 -0.59391,1.08303 -1.29263,2.30579 -0.66379,1.18783 -1.1529,2.37566 -0.52404,1.43239 -0.31442,2.09617 0.24455,0.66379 0.90834,0.66379 0.69872,-0.0349 1.71187,-0.69872 1.01315,-0.66379 2.06123,-1.92149 0.73366,-0.90834 1.43239,-1.92149 0.69872,-1.01315 1.36251,-2.23592 z"
           inkscape:connector-curvature="0" />
        <path
           id="path901"
           style="font-style:normal;font-variant:normal;font-weight:normal;font-stretch:normal;font-size:34.93618011px;font-family:'Painter PERSONAL USE ONLY';-inkscape-font-specification:'Painter PERSONAL USE ONLY, Normal';font-variant-ligatures:normal;font-variant-caps:normal;font-variant-numeric:normal;font-feature-settings:normal;text-align:start;writing-mode:lr-tb;text-anchor:start;stroke-width:0.87340444;fill:#ffffff"
           d="m -99.786939,153.18831 q -0.419231,0.4891 -0.978211,1.36251 -0.55898,0.8734 -1.08302,1.81668 -0.52405,0.94327 -1.01315,1.81668 -0.45417,0.8734 -0.69873,1.43238 -0.4891,1.08302 -0.94327,2.16605 -0.45417,1.08302 -0.80354,2.20097 -0.27948,1.04809 -0.27948,1.74681 0.0349,0.66379 0.41923,0.87341 0.3843,0.20962 1.11796,-0.10481 0.73366,-0.34936 1.88655,-1.36251 1.11796,-1.01315 2.09617,-2.23592 0.978215,-1.22276 1.676938,-2.55034 0.943277,-0.45417 1.117958,0.55898 -0.803532,1.46732 -1.816681,2.93464 -1.013145,1.43238 -2.235915,2.65515 -1.88655,1.99136 -3.42375,2.65515 -1.50225,0.62885 -2.62021,0.13974 -1.18783,-0.4891 -1.57213,-1.57212 -0.41923,-1.11796 -0.3843,-2.27086 0.0699,-2.16604 0.7686,-4.26221 0.69872,-2.13111 1.74681,-3.98272 0.62885,-1.11796 1.36251,-2.27086 0.7686,-1.15289 1.74681,-1.95642 0.34936,-0.27949 0.8734,-0.41924 0.52405,-0.17468 1.08303,-0.13974 0.59391,0 1.11795,0.17468 0.52405,0.17468 0.838471,0.59392 z m -0.03494,-3.28401 q -0.768591,-0.24455 -1.327571,-0.90834 -0.55898,-0.69872 -0.3843,-1.67693 0.13975,-0.83847 0.45417,-1.60707 0.34936,-0.76859 1.222765,-0.94327 0.489106,-0.0699 0.943277,0 0.489106,0.0699 0.943277,0.24455 1.048085,0.34936 1.327574,0.94328 0.314426,0.59391 0.349362,0.8734 0.06987,0.69872 -0.139745,1.36251 -0.17468,0.66379 -0.663787,1.1529 -0.558979,0.52404 -1.292639,0.66378 -0.733659,0.10481 -1.432383,-0.10481 z"
           inkscape:connector-curvature="0" />
        <path
           id="path903"
           style="font-style:normal;font-variant:normal;font-weight:normal;font-stretch:normal;font-size:34.93618011px;font-family:'Painter PERSONAL USE ONLY';-inkscape-font-specification:'Painter PERSONAL USE ONLY, Normal';font-variant-ligatures:normal;font-variant-caps:normal;font-variant-numeric:normal;font-feature-settings:normal;text-align:start;writing-mode:lr-tb;text-anchor:start;stroke-width:0.87340444;fill:#ffffff"
           d="m -93.28007,162.13197 q -0.384298,0.0349 -0.803532,0.0349 -0.384298,-0.0349 -0.768596,-0.10481 -0.628852,1.95643 -0.384298,3.21413 0.279489,1.25771 1.18783,1.74681 0.943277,0.48911 2.410596,0.17468 1.46732,-0.31442 3.284001,-1.46732 1.46732,-1.01315 2.620214,-2.44553 1.18783,-1.46732 1.991362,-2.93464 0.384298,-0.13974 0.698724,-0.10481 0.349361,0 0.419234,0.66379 -0.803532,1.53719 -2.131107,3.14426 -1.292639,1.60706 -2.864767,2.96957 -2.515405,2.09617 -4.960938,2.7949 -2.445532,0.69872 -4.192341,-0.41924 -1.327575,-0.90834 -2.026299,-2.34072 -0.73366,-1.46732 -0.663787,-3.03945 0.03494,-1.46732 0.558979,-2.93464 0.489106,-1.50225 1.327575,-2.86476 0.838468,-1.36252 1.956426,-2.48047 1.117957,-1.1529 2.410596,-1.85162 1.292639,-0.69872 2.969575,-1.08302 1.711873,-0.3843 3.179193,0 0.73366,0.17468 1.222766,0.62885 0.489107,0.41923 0.698724,1.01315 0.244553,0.55898 0.209617,1.22276 -0.03494,0.66379 -0.27949,1.32758 -0.593915,1.57213 -1.92149,2.65515 -1.292638,1.08302 -2.794894,1.67694 -1.676937,0.69872 -3.353873,0.80353 z m 3.004511,-6.70775 q -1.292638,1.11796 -2.37566,2.55034 -1.048085,1.43239 -1.781745,3.00451 0.524042,-0.13974 1.18783,-0.38429 1.048085,-0.3843 2.026298,-0.90835 0.978213,-0.55897 1.781746,-1.32757 0.698723,-0.62885 1.292638,-1.46732 0.593915,-0.83847 0.524043,-1.85162 0,-0.55898 -0.349362,-0.62885 -0.349362,-0.0699 -0.803532,0.10481 -0.45417,0.17468 -0.873405,0.45417 -0.419234,0.27949 -0.628851,0.45417 z"
           inkscape:connector-curvature="0" />
        <path
           id="path905"
           style="font-style:normal;font-variant:normal;font-weight:normal;font-stretch:normal;font-size:34.93618011px;font-family:'Painter PERSONAL USE ONLY';-inkscape-font-specification:'Painter PERSONAL USE ONLY, Normal';font-variant-ligatures:normal;font-variant-caps:normal;font-variant-numeric:normal;font-feature-settings:normal;text-align:start;writing-mode:lr-tb;text-anchor:start;stroke-width:0.87340444;fill:#ffffff"
           d="m -62.191777,153.78222 q 0.45417,-0.17468 1.117958,-0.0699 1.013149,0.20962 1.642,1.04808 0.628851,0.83847 0.873405,1.78175 0.349361,1.53719 0.03494,3.17919 -0.314426,1.60707 -0.978213,3.07438 1.117958,0.45418 2.166043,-0.24455 1.083022,-0.69872 1.886554,-2.20098 1.013149,-0.45417 1.117957,0.55898 -1.117957,2.13111 -2.794894,3.31894 -1.642,1.15289 -4.052597,1.32757 -0.558979,0.73366 -1.222766,1.46732 -0.628851,0.69873 -1.362511,1.25771 -0.73366,0.55897 -1.607064,0.94327 -0.838469,0.34936 -1.781746,0.41924 -1.152894,0.0699 -2.09617,-0.34937 -0.943277,-0.38429 -1.642001,-1.11795 -0.698723,-0.7686 -1.117958,-1.74681 -0.419234,-0.97822 -0.524042,-2.06124 -0.104809,-1.22276 0.104808,-2.44553 0.209617,-1.2577 0.663788,-2.44553 0.489106,-1.18783 1.18783,-2.23592 0.698723,-1.04808 1.572128,-1.88655 0.873404,-0.80353 1.92149,-1.36251 1.083021,-0.55898 2.270851,-0.66379 0.593916,-0.0699 1.257703,0.0349 0.698724,0.0699 1.257702,0.34936 z m -1.676937,7.75583 q 0.593915,-0.52404 1.257703,-0.83847 0.698723,-0.31442 1.257702,-0.0349 0.244554,0.13974 0.419234,0.3843 0.27949,-0.94328 0.314426,-1.95643 0.06987,-1.01315 -0.174681,-2.0263 -0.174681,-0.59391 -0.524043,-0.94328 -0.314425,-0.38429 -0.803532,-0.73366 -0.628851,-0.0349 -1.18783,0.10481 -0.558979,0.13975 -1.083021,0.41924 -0.873405,0.45417 -1.642001,1.36251 -0.768596,0.8734 -1.362511,1.99136 -0.558979,1.08302 -0.943277,2.27085 -0.349362,1.18783 -0.419234,2.27085 -0.03494,1.04809 0.244553,1.88656 0.27949,0.80353 1.01315,1.15289 0.873404,0.45417 2.026298,0.0699 1.152894,-0.41923 2.200979,-1.642 -0.489106,-0.17468 -0.90834,-0.45417 -0.384298,-0.31442 -0.593915,-0.76859 -0.27949,-0.59392 0,-1.25771 0.314425,-0.69872 0.90834,-1.2577 z"
           inkscape:connector-curvature="0" />
        <path
           id="path907"
           style="font-style:normal;font-variant:normal;font-weight:normal;font-stretch:normal;font-size:34.93618011px;font-family:'Painter PERSONAL USE ONLY';-inkscape-font-specification:'Painter PERSONAL USE ONLY, Normal';font-variant-ligatures:normal;font-variant-caps:normal;font-variant-numeric:normal;font-feature-settings:normal;text-align:start;writing-mode:lr-tb;text-anchor:start;stroke-width:0.87340444;fill:#ffffff"
           d="m -33.032078,145.18792 q -0.489106,0.90834 -1.292638,2.34072 -0.803533,1.39745 -1.781746,3.14426 -0.978213,1.71187 -2.026298,3.6683 -1.048085,1.95643 -2.061235,3.94779 -0.978213,1.99136 -1.851617,3.94779 -0.838469,1.92149 -1.397447,3.63336 -0.174681,0.59391 -0.06987,0.90834 0.139745,0.27949 0.454171,0.31442 0.349361,0 0.873404,-0.20961 0.524043,-0.24456 1.152894,-0.73366 0.524043,-0.41924 1.083022,-1.04809 0.593915,-0.62885 1.18783,-1.39744 0.593915,-0.7686 1.117958,-1.60707 0.558978,-0.8734 1.048085,-1.74681 0.45417,-0.24455 0.768596,-0.0349 0.349362,0.17468 0.349362,0.59391 -1.01315,1.88655 -2.480469,3.77311 -1.432383,1.88655 -3.144256,3.35387 -0.803532,0.69873 -1.607065,1.11796 -0.768596,0.3843 -1.502255,0.45417 -0.698724,0.0699 -1.327575,-0.24455 -0.628851,-0.27949 -1.083022,-0.97822 -0.384298,-0.55898 -0.524042,-1.15289 -0.104809,-0.62885 -0.06987,-1.32758 -0.593915,0.7686 -1.327575,1.5372 -0.733659,0.73366 -1.607064,1.2577 -0.838468,0.52404 -1.781745,0.69872 -0.943277,0.17468 -1.92149,-0.20961 -1.013149,-0.3843 -1.572128,-1.1529 -0.558979,-0.76859 -0.768596,-1.71187 -0.244553,-0.94328 -0.209617,-1.92149 0.03494,-1.01315 0.244553,-1.92149 0.45417,-1.99136 1.46732,-3.77311 1.048085,-1.78174 2.410596,-3.24906 0.698724,-0.73366 1.572128,-1.39745 0.873405,-0.66379 1.851618,-1.08302 1.013149,-0.41924 2.061234,-0.52404 1.048086,-0.13975 2.096171,0.17468 0.908341,0.27949 1.362511,0.80353 0.489107,0.52404 0.698724,1.18783 0.489106,-0.90834 0.978213,-1.74681 0.524043,-0.8734 1.048085,-1.74681 0.768596,-1.29264 1.711873,-2.82983 0.978213,-1.53719 1.991362,-2.62021 0.419234,-0.45417 0.943277,-0.66379 0.558979,-0.24455 1.117958,-0.27949 0.558979,-0.0699 1.048085,0.0699 0.489107,0.10481 0.768596,0.3843 z m -14.393706,18.30656 q 0.978213,-1.11796 1.572128,-2.48047 0.628851,-1.36251 1.397447,-2.93464 0.314426,-0.69872 0.349362,-1.43238 0.06987,-0.7686 -0.209617,-1.29264 -0.244553,-0.52404 -0.838468,-0.66379 -0.558979,-0.13974 -1.537192,0.34936 -0.908341,0.48911 -1.676937,1.25771 -0.73366,0.73366 -1.362511,1.642 -0.593915,0.90834 -1.083021,1.88655 -0.454171,0.97821 -0.803533,1.92149 -0.139744,0.31442 -0.314425,0.90834 -0.174681,0.55898 -0.349362,1.22277 -0.139745,0.62885 -0.174681,1.2577 -0.03494,0.59391 0.139745,0.97821 0.209617,0.34936 0.663787,0.3843 0.454171,0.0349 1.327575,-0.45417 0.838468,-0.48911 1.572128,-1.11796 0.73366,-0.66379 1.327575,-1.43238 z"
           inkscape:connector-curvature="0" />
        <path
           id="path909"
           style="font-style:normal;font-variant:normal;font-weight:normal;font-stretch:normal;font-size:34.93618011px;font-family:'Painter PERSONAL USE ONLY';-inkscape-font-specification:'Painter PERSONAL USE ONLY, Normal';font-variant-ligatures:normal;font-variant-caps:normal;font-variant-numeric:normal;font-feature-settings:normal;text-align:start;writing-mode:lr-tb;text-anchor:start;stroke-width:0.87340444;fill:#ffffff"
           d="m -2.4629249,145.18792 q -0.4891065,0.90834 -1.2926386,2.34072 -0.8035322,1.39745 -1.7817452,3.14426 -0.9782131,1.71187 -2.0262985,3.6683 -1.0480854,1.95643 -2.0612346,3.94779 -0.9782132,1.99136 -1.8516172,3.94779 -0.838469,1.92149 -1.397448,3.63336 -0.17468,0.59391 -0.06987,0.90834 0.139745,0.27949 0.45417,0.31442 0.349362,0 0.873405,-0.20961 0.524043,-0.24456 1.152894,-0.73366 0.5240426,-0.41924 1.0830215,-1.04809 0.593915,-0.62885 1.1878301,-1.39744 0.593915,-0.7686 1.1179577,-1.60707 0.5589789,-0.8734 1.0480854,-1.74681 0.4541704,-0.24455 0.768596,-0.0349 0.3493618,0.17468 0.3493618,0.59391 -1.0131492,1.88655 -2.4804688,3.77311 -1.4323834,1.88655 -3.1442557,3.35387 -0.803533,0.69873 -1.607065,1.11796 -0.768596,0.3843 -1.502256,0.45417 -0.698723,0.0699 -1.327574,-0.24455 -0.628852,-0.27949 -1.083022,-0.97822 -0.384298,-0.55898 -0.524043,-1.15289 -0.104808,-0.62885 -0.06987,-1.32758 -0.593915,0.7686 -1.327575,1.5372 -0.73366,0.73366 -1.607064,1.2577 -0.838468,0.52404 -1.781745,0.69872 -0.943277,0.17468 -1.92149,-0.20961 -1.013149,-0.3843 -1.572128,-1.1529 -0.558979,-0.76859 -0.768596,-1.71187 -0.244554,-0.94328 -0.209617,-1.92149 0.03494,-1.01315 0.244553,-1.92149 0.45417,-1.99136 1.467319,-3.77311 1.048086,-1.78174 2.410597,-3.24906 0.698723,-0.73366 1.572128,-1.39745 0.873404,-0.66379 1.851618,-1.08302 1.013149,-0.41924 2.061234,-0.52404 1.048086,-0.13975 2.096171,0.17468 0.908341,0.27949 1.362511,0.80353 0.489107,0.52404 0.698724,1.18783 0.489106,-0.90834 0.978213,-1.74681 0.524042,-0.8734 1.048085,-1.74681 0.768596,-1.29264 1.7118729,-2.82983 0.978213,-1.53719 1.9913622,-2.62021 0.4192342,-0.45417 0.9432769,-0.66379 0.5589789,-0.24455 1.1179578,-0.27949 0.5589788,-0.0699 1.0480854,0.0699 0.4891065,0.10481 0.7685959,0.3843 z m -14.3937061,18.30656 q 0.978213,-1.11796 1.572128,-2.48047 0.628851,-1.36251 1.397447,-2.93464 0.314426,-0.69872 0.349362,-1.43238 0.06987,-0.7686 -0.209617,-1.29264 -0.244553,-0.52404 -0.838468,-0.66379 -0.558979,-0.13974 -1.537192,0.34936 -0.908341,0.48911 -1.676937,1.25771 -0.73366,0.73366 -1.362511,1.642 -0.593915,0.90834 -1.083022,1.88655 -0.45417,0.97821 -0.803532,1.92149 -0.139744,0.31442 -0.314425,0.90834 -0.174681,0.55898 -0.349362,1.22277 -0.139745,0.62885 -0.174681,1.2577 -0.03494,0.59391 0.139745,0.97821 0.209617,0.34936 0.663787,0.3843 0.45417,0.0349 1.327575,-0.45417 0.838468,-0.48911 1.572128,-1.11796 0.73366,-0.66379 1.327575,-1.43238 z"
           inkscape:connector-curvature="0" />
        <path
           id="path911"
           style="font-style:normal;font-variant:normal;font-weight:normal;font-stretch:normal;font-size:34.93618011px;font-family:'Painter PERSONAL USE ONLY';-inkscape-font-specification:'Painter PERSONAL USE ONLY, Normal';font-variant-ligatures:normal;font-variant-caps:normal;font-variant-numeric:normal;font-feature-settings:normal;text-align:start;writing-mode:lr-tb;text-anchor:start;stroke-width:0.87340444;fill:#ffffff"
           d="m -0.95847603,162.13197 q -0.38429797,0.0349 -0.80353217,0.0349 -0.384298,-0.0349 -0.7685959,-0.10481 -0.6288513,1.95643 -0.384298,3.21413 0.2794894,1.25771 1.1878301,1.74681 0.94327687,0.48911 2.41059644,0.17468 1.46731956,-0.31442 3.28400096,-1.46732 1.4673195,-1.01315 2.6202135,-2.44553 1.1878301,-1.46732 1.9913622,-2.93464 0.384298,-0.13974 0.6987236,-0.10481 0.3493618,0 0.4192342,0.66379 -0.8035321,1.53719 -2.131107,3.14426 -1.2926386,1.60706 -2.8647667,2.96957 -2.515405,2.09617 -4.96093763,2.7949 -2.44553257,0.69872 -4.19234157,-0.41924 -1.3275749,-0.90834 -2.0262985,-2.34072 -0.7336598,-1.46732 -0.6637874,-3.03945 0.034936,-1.46732 0.5589789,-2.93464 0.4891065,-1.50225 1.3275748,-2.86476 0.8384683,-1.36252 1.9564261,-2.48047 1.1179578,-1.1529 2.41059643,-1.85162 1.29263867,-0.69872 2.96957527,-1.08302 1.7118729,-0.3843 3.1791924,0 0.7336598,0.17468 1.2227663,0.62885 0.4891066,0.41923 0.6987236,1.01315 0.2445533,0.55898 0.2096171,1.22276 -0.034936,0.66379 -0.2794894,1.32758 -0.5939151,1.57213 -1.9214899,2.65515 -1.2926387,1.08302 -2.7948944,1.67694 -1.67693668,0.69872 -3.35387333,0.80353 z m 3.00451153,-6.70775 q -1.2926387,1.11796 -2.37566029,2.55034 -1.04808541,1.43239 -1.78174521,3.00451 0.5240427,-0.13974 1.18783015,-0.38429 1.04808541,-0.3843 2.02629845,-0.90835 0.978213,-0.55897 1.7817452,-1.32757 0.6987236,-0.62885 1.2926386,-1.46732 0.5939151,-0.83847 0.5240428,-1.85162 0,-0.55898 -0.3493619,-0.62885 -0.3493618,-0.0699 -0.8035321,0.10481 -0.4541703,0.17468 -0.8734045,0.45417 -0.4192342,0.27949 -0.6288512,0.45417 z"
           inkscape:connector-curvature="0" />
        <path
           id="path913"
           style="font-style:normal;font-variant:normal;font-weight:normal;font-stretch:normal;font-size:34.93618011px;font-family:'Painter PERSONAL USE ONLY';-inkscape-font-specification:'Painter PERSONAL USE ONLY, Normal';font-variant-ligatures:normal;font-variant-caps:normal;font-variant-numeric:normal;font-feature-settings:normal;text-align:start;writing-mode:lr-tb;text-anchor:start;stroke-width:0.87340444;fill:#ffffff"
           d="m 28.105686,149.97418 q 0.349362,-0.0699 0.698724,0.31442 0.384298,0.34936 0.558979,0.73366 0.419234,0.48911 0.209617,0.94328 -0.174681,0.41923 -0.419234,0.97821 -0.384298,0.90834 -0.768596,1.78175 -0.384298,0.8734 -0.803533,1.74681 0.349362,0.52404 1.01315,0.73366 0.698723,0.17468 1.537192,0.0349 0.873404,-0.17468 1.746809,-0.66379 0.90834,-0.4891 1.676936,-1.32757 -0.209617,1.32757 -1.152894,2.30579 -0.943277,0.97821 -2.235915,1.32757 -1.117958,0.27949 -1.991363,0.17468 -0.873404,-0.13974 -1.537191,-0.59391 -0.803533,1.57213 -1.711873,3.07438 -0.873405,1.46732 -1.816682,2.93464 -0.174681,0.27949 -0.698723,0.97821 -0.489107,0.69873 -1.083022,1.50226 -0.558979,0.80353 -1.117958,1.53719 -0.524042,0.69873 -0.733659,0.94328 -0.73366,0.83847 -1.502256,0.20962 -1.083022,-0.87341 -1.397447,-1.57213 -0.27949,-0.69873 -0.244554,-1.18783 0.03494,-2.09617 0.663788,-4.12247 0.663787,-2.06124 1.257702,-4.08753 -0.768596,1.15289 -1.502255,2.30578 -0.698724,1.1529 -1.397448,2.34073 -0.593915,1.01315 -1.117957,2.0263 -0.524043,0.97821 -1.01315,1.99136 -0.174681,0.34936 -0.384298,0.69872 -0.17468,0.34936 -0.279489,0.73366 -0.104809,0.34936 -0.209617,0.48911 -0.104809,0.13974 -0.524043,0.17468 -0.209617,0 -0.663787,-0.13975 -0.419234,-0.17468 -0.908341,-0.45417 -0.4891064,-0.27949 -0.9083406,-0.66378 -0.4192342,-0.3843 -0.5589789,-0.80354 -0.1397447,-0.38429 -0.1048085,-0.8734 0.034936,-0.52404 0.1048085,-0.90834 0.069872,-1.11796 0.2096171,-2.27085 0.1397447,-1.1529 0.3493618,-2.30579 -0.5939151,0.0349 -0.7336598,-0.66379 0.5939151,-1.01315 1.0830216,-2.09617 0.4891068,-1.08302 0.9782128,-2.09617 0.73366,-1.50226 1.083022,-2.55034 0.384298,-1.04809 0.908341,-1.32758 0.314425,-0.17468 0.943276,-0.0699 0.628852,0.0699 1.01315,0.24456 0.384298,0.20961 0.698723,0.52404 0.349362,0.27949 0.454171,0.62885 0.06987,0.20962 -0.03494,0.48911 -0.104808,0.27949 -0.174681,0.4891 -0.06987,0.20962 -0.45417,1.11796 -0.384298,0.8734 -0.908341,2.27085 -0.489106,1.36251 -1.013149,3.21413 -0.489106,1.85162 -0.838468,3.98273 l 0.943277,-1.78175 q 2.305788,-4.33209 5.310299,-8.34975 0.174681,-0.20961 0.489107,-0.59391 0.314425,-0.3843 0.628851,-0.7686 0.314426,-0.3843 0.558979,-0.66379 0.244553,-0.27949 0.279489,-0.31442 0.174681,-0.10481 0.558979,-0.0699 0.384298,0.0349 0.768596,0.20961 0.419234,0.13975 0.73366,0.3843 0.349362,0.20962 0.384298,0.41924 0.06987,0.17468 0,0.45417 -0.06987,0.27949 -0.139745,0.45417 -0.104808,0.31442 -0.314426,0.97821 -0.17468,0.62885 -0.419234,1.46732 -0.209617,0.80353 -0.45417,1.71187 -0.209617,0.90834 -0.384298,1.74681 -0.104809,0.52404 -0.279489,1.36251 -0.174681,0.83847 -0.349362,1.642 -0.139745,0.80353 -0.27949,1.39745 -0.104808,0.55898 -0.104808,0.55898 0.73366,-0.83847 1.432383,-1.85162 0.698724,-1.04808 1.327575,-2.16604 0.628851,-1.1529 1.18783,-2.30579 0.558979,-1.18783 1.048086,-2.30579 -0.139745,-0.31442 -0.174681,-0.55898 -0.314426,-1.29264 0.03494,-2.55034 0.384298,-1.29264 1.18783,-2.30579 0.279489,-0.38429 0.768596,-0.83846 0.524043,-0.48911 1.013149,-0.55898 z"
           inkscape:connector-curvature="0" />
        <path
           id="path915"
           style="font-style:normal;font-variant:normal;font-weight:normal;font-stretch:normal;font-size:34.93618011px;font-family:'Painter PERSONAL USE ONLY';-inkscape-font-specification:'Painter PERSONAL USE ONLY, Normal';font-variant-ligatures:normal;font-variant-caps:normal;font-variant-numeric:normal;font-feature-settings:normal;text-align:start;writing-mode:lr-tb;text-anchor:start;stroke-width:0.87340444;fill:#ffffff"
           d="m 35.00121,162.13197 q -0.384298,0.0349 -0.803532,0.0349 -0.384298,-0.0349 -0.768596,-0.10481 -0.628851,1.95643 -0.384298,3.21413 0.27949,1.25771 1.18783,1.74681 0.943277,0.48911 2.410597,0.17468 1.467319,-0.31442 3.284001,-1.46732 1.467319,-1.01315 2.620213,-2.44553 1.18783,-1.46732 1.991362,-2.93464 0.384298,-0.13974 0.698724,-0.10481 0.349362,0 0.419234,0.66379 -0.803532,1.53719 -2.131107,3.14426 -1.292638,1.60706 -2.864767,2.96957 -2.515405,2.09617 -4.960937,2.7949 -2.445533,0.69872 -4.192342,-0.41924 -1.327575,-0.90834 -2.026298,-2.34072 -0.73366,-1.46732 -0.663788,-3.03945 0.03494,-1.46732 0.558979,-2.93464 0.489107,-1.50225 1.327575,-2.86476 0.838468,-1.36252 1.956426,-2.48047 1.117958,-1.1529 2.410597,-1.85162 1.292638,-0.69872 2.969575,-1.08302 1.711873,-0.3843 3.179192,0 0.73366,0.17468 1.222767,0.62885 0.489106,0.41923 0.698723,1.01315 0.244553,0.55898 0.209617,1.22276 -0.03494,0.66379 -0.279489,1.32758 -0.593915,1.57213 -1.92149,2.65515 -1.292639,1.08302 -2.794894,1.67694 -1.676937,0.69872 -3.353874,0.80353 z m 3.004512,-6.70775 q -1.292639,1.11796 -2.375661,2.55034 -1.048085,1.43239 -1.781745,3.00451 0.524043,-0.13974 1.18783,-0.38429 1.048086,-0.3843 2.026299,-0.90835 0.978213,-0.55897 1.781745,-1.32757 0.698724,-0.62885 1.292639,-1.46732 0.593915,-0.83847 0.524042,-1.85162 0,-0.55898 -0.349361,-0.62885 -0.349362,-0.0699 -0.803533,0.10481 -0.45417,0.17468 -0.873404,0.45417 -0.419234,0.27949 -0.628851,0.45417 z"
           inkscape:connector-curvature="0" />
        <path
           id="path917"
           style="font-style:normal;font-variant:normal;font-weight:normal;font-stretch:normal;font-size:34.93618011px;font-family:'Painter PERSONAL USE ONLY';-inkscape-font-specification:'Painter PERSONAL USE ONLY, Normal';font-variant-ligatures:normal;font-variant-caps:normal;font-variant-numeric:normal;font-feature-settings:normal;text-align:start;writing-mode:lr-tb;text-anchor:start;stroke-width:0.87340444;fill:#ffffff"
           d="m 58.056365,144.52413 q 0.279489,0 0.593915,0.10481 0.279489,-0.24455 0.663787,-0.10481 0.384298,0.10481 0.558979,0.31443 0.244553,0.27949 0.279489,0.69872 0.06987,0.41924 0.03494,0.7686 -0.06987,1.22276 -0.663788,2.41059 -0.558979,1.18783 -1.18783,2.20098 -0.698723,1.22277 -1.572128,2.34073 -0.838468,1.11796 -1.781745,2.20098 -1.083022,1.22276 -2.270852,2.41059 -1.152894,1.1529 -2.410596,2.20098 -0.384298,0.27949 -0.73366,0.55898 -0.349362,0.27949 -0.698724,0.55898 -0.104808,0.0699 -0.209617,0.20962 -0.104808,0.10481 -0.244553,0.17468 -0.174681,0.4891 -0.349362,0.94328 -0.139745,0.45417 -0.314425,0.94327 -0.209618,0.73366 -0.314426,1.60707 -0.06987,0.8734 0.174681,1.50225 0.244553,0.62885 0.90834,0.80353 0.698724,0.17469 1.956427,-0.52404 0.698723,-0.3843 1.502255,-1.04808 0.838469,-0.69873 1.642001,-1.5372 0.838468,-0.8734 1.572128,-1.88655 0.768596,-1.01315 1.292639,-2.0263 0.45417,-0.17468 0.733659,-0.0699 0.27949,0.10481 0.384298,0.62885 -0.524042,1.01315 -1.222766,2.09617 -0.698724,1.08302 -1.572128,2.13111 -0.838468,1.04808 -1.851618,1.99136 -0.978213,0.94328 -2.131107,1.67694 -1.327574,0.83847 -2.655149,1.01315 -1.327575,0.17468 -2.375661,-0.34936 -1.048085,-0.48911 -1.676936,-1.64201 -0.663788,-1.18783 -0.593915,-3.03944 0.03494,-1.1529 0.314425,-2.30579 0.27949,-1.15289 0.73366,-2.23592 0.419234,-1.11795 0.978213,-2.16604 0.558979,-1.04808 1.117958,-1.99136 1.257702,-2.13111 2.620213,-4.22728 1.397448,-2.13111 3.10932,-3.91285 0.698724,-0.73366 1.432384,-1.36251 0.768596,-0.66379 1.642,-1.1529 0.593915,-0.38429 1.222767,-0.62885 0.663787,-0.27949 1.362511,-0.27949 z m -8.14013,13.86967 q 0.803532,-0.73366 1.572128,-1.5372 0.768596,-0.80353 1.502256,-1.642 0.943276,-1.11795 1.816681,-2.30578 0.873404,-1.18783 1.676937,-2.4106 0.593915,-0.87341 1.048085,-1.74681 0.489106,-0.90834 0.803532,-1.92149 -0.628851,0.59392 -1.292639,1.18783 -0.628851,0.59392 -1.222766,1.2577 -1.327575,1.67694 -2.515405,3.45868 -1.152894,1.74681 -2.235915,3.59843 z"
           inkscape:connector-curvature="0" />
        <path
           id="path919"
           style="font-style:normal;font-variant:normal;font-weight:normal;font-stretch:normal;font-size:34.93618011px;font-family:'Painter PERSONAL USE ONLY';-inkscape-font-specification:'Painter PERSONAL USE ONLY, Normal';font-variant-ligatures:normal;font-variant-caps:normal;font-variant-numeric:normal;font-feature-settings:normal;text-align:start;writing-mode:lr-tb;text-anchor:start;stroke-width:0.87340444;fill:#ffffff"
           d="m 66.2942,153.78222 q 0.45417,-0.17468 1.117958,-0.0699 1.013149,0.20962 1.642,1.04808 0.628852,0.83847 0.873405,1.78175 0.349362,1.53719 0.03494,3.17919 -0.314426,1.60707 -0.978213,3.07438 1.117958,0.45418 2.166043,-0.24455 1.083022,-0.69872 1.886554,-2.20098 1.013149,-0.45417 1.117958,0.55898 -1.117958,2.13111 -2.794895,3.31894 -1.642,1.15289 -4.052597,1.32757 -0.558979,0.73366 -1.222766,1.46732 -0.628851,0.69873 -1.362511,1.25771 -0.73366,0.55897 -1.607064,0.94327 -0.838469,0.34936 -1.781745,0.41924 -1.152894,0.0699 -2.096171,-0.34937 -0.943277,-0.38429 -1.642001,-1.11795 -0.698723,-0.7686 -1.117957,-1.74681 -0.419235,-0.97822 -0.524043,-2.06124 -0.104809,-1.22276 0.104808,-2.44553 0.209617,-1.2577 0.663788,-2.44553 0.489106,-1.18783 1.18783,-2.23592 0.698724,-1.04808 1.572128,-1.88655 0.873405,-0.80353 1.92149,-1.36251 1.083022,-0.55898 2.270852,-0.66379 0.593915,-0.0699 1.257702,0.0349 0.698724,0.0699 1.257703,0.34936 z m -1.676937,7.75583 q 0.593916,-0.52404 1.257703,-0.83847 0.698724,-0.31442 1.257702,-0.0349 0.244554,0.13974 0.419235,0.3843 0.279489,-0.94328 0.314425,-1.95643 0.06987,-1.01315 -0.174681,-2.0263 -0.174681,-0.59391 -0.524042,-0.94328 -0.314426,-0.38429 -0.803533,-0.73366 -0.628851,-0.0349 -1.18783,0.10481 -0.558979,0.13975 -1.083021,0.41924 -0.873405,0.45417 -1.642001,1.36251 -0.768596,0.8734 -1.362511,1.99136 -0.558979,1.08302 -0.943277,2.27085 -0.349361,1.18783 -0.419234,2.27085 -0.03494,1.04809 0.244554,1.88656 0.279489,0.80353 1.013149,1.15289 0.873404,0.45417 2.026298,0.0699 1.152894,-0.41923 2.20098,-1.642 -0.489107,-0.17468 -0.908341,-0.45417 -0.384298,-0.31442 -0.593915,-0.76859 -0.27949,-0.59392 0,-1.25771 0.314425,-0.69872 0.90834,-1.2577 z"
           inkscape:connector-curvature="0" />
        <path
           id="path921"
           style="font-style:normal;font-variant:normal;font-weight:normal;font-stretch:normal;font-size:34.93618011px;font-family:'Painter PERSONAL USE ONLY';-inkscape-font-specification:'Painter PERSONAL USE ONLY, Normal';font-variant-ligatures:normal;font-variant-caps:normal;font-variant-numeric:normal;font-feature-settings:normal;text-align:start;writing-mode:lr-tb;text-anchor:start;stroke-width:0.87340444;fill:#ffffff"
           d="m 87.942636,160.35022 q 0.489107,-0.17468 0.768596,-0.0699 0.279489,0.10481 0.349362,0.62885 -1.048086,2.06124 -2.305788,3.70324 -1.222766,1.642 -2.65515,2.79489 -1.397447,1.11796 -2.969575,1.67694 -1.537192,0.52404 -3.249065,0.41923 -1.572128,-0.10481 -2.725022,-0.90834 -1.152894,-0.80353 -1.537192,-2.23591 l -1.152894,2.27085 -1.92149,3.73817 q -0.104808,0.20962 -0.384298,0.83847 -0.314425,0.66378 -0.663787,1.46732 -0.349362,0.80353 -0.628851,1.60706 -0.314426,0.83847 -0.384298,1.36251 -0.524043,-0.20962 -1.01315,-0.52404 -0.489106,-0.31443 -0.873404,-0.73366 -0.384298,-0.3843 -0.593915,-0.83847 -0.209617,-0.41923 -0.139745,-0.8734 0.174681,-0.90834 0.628851,-1.81669 0.419235,-0.8734 0.803533,-1.67693 1.048085,-2.20098 2.235915,-4.33209 1.152894,-2.13111 2.270852,-4.29715 1.327575,-2.48047 2.550341,-4.96094 1.257702,-2.5154 2.340724,-5.13561 0.06987,-0.10481 0.558979,-0.13975 0.524043,-0.0349 1.013149,0.13975 0.524043,0.17468 0.803532,0.62885 0.314426,0.45417 -0.03494,1.39744 l -0.628851,1.57213 q 0.698723,-0.76859 1.467319,-1.39745 0.803533,-0.62885 1.746809,-1.08302 0.698724,-0.31442 1.642001,-0.27949 0.943277,0 1.537192,0.48911 0.628851,0.48911 0.838468,1.2577 0.209617,0.73366 0.244553,1.53719 0.104809,1.64201 -0.558979,3.35388 -0.663787,1.71187 -1.467319,3.284 -0.524043,1.04808 -1.152894,2.0263 -0.593915,0.94327 -1.397447,1.81668 1.048085,-0.24455 1.991362,-0.90834 0.978213,-0.69873 1.816681,-1.60707 0.838469,-0.94327 1.537192,-2.02629 0.698724,-1.08303 1.292639,-2.16605 z m -13.310685,3.98273 q 0.104809,0.66378 0.349362,1.18783 0.244553,0.52404 0.628851,0.76859 0.384298,0.24456 0.908341,0.10481 0.524043,-0.13974 1.152894,-0.83847 1.502256,-1.57213 2.480469,-3.56349 1.013149,-1.99136 1.572128,-4.08753 0.06987,-0.20962 0.139745,-0.62885 0.104808,-0.45417 0.104808,-0.87341 0,-0.45417 -0.139745,-0.76859 -0.104808,-0.31443 -0.45417,-0.27949 -0.419234,0.0349 -0.908341,0.31442 -0.45417,0.24456 -0.943276,0.62886 -0.454171,0.34936 -0.873405,0.80353 -0.419234,0.41923 -0.73366,0.76859 -0.139744,0.13975 -0.244553,0.27949 -0.104809,0.10481 -0.209617,0.24456 l -1.362511,2.93464 z"
           inkscape:connector-curvature="0" />
        <path
           id="path923"
           style="font-style:normal;font-variant:normal;font-weight:normal;font-stretch:normal;font-size:34.93618011px;font-family:'Painter PERSONAL USE ONLY';-inkscape-font-specification:'Painter PERSONAL USE ONLY, Normal';font-variant-ligatures:normal;font-variant-caps:normal;font-variant-numeric:normal;font-feature-settings:normal;text-align:start;writing-mode:lr-tb;text-anchor:start;stroke-width:0.87340444;fill:#ffffff"
           d="m 93.068959,162.13197 q -0.384298,0.0349 -0.803532,0.0349 -0.384298,-0.0349 -0.768596,-0.10481 -0.628851,1.95643 -0.384298,3.21413 0.27949,1.25771 1.18783,1.74681 0.943277,0.48911 2.410597,0.17468 1.467319,-0.31442 3.284001,-1.46732 1.467319,-1.01315 2.620209,-2.44553 1.18783,-1.46732 1.99137,-2.93464 0.38429,-0.13974 0.69872,-0.10481 0.34936,0 0.41923,0.66379 -0.80353,1.53719 -2.1311,3.14426 -1.29264,1.60706 -2.86477,2.96957 -2.515405,2.09617 -4.960937,2.7949 -2.445533,0.69872 -4.192342,-0.41924 -1.327575,-0.90834 -2.026298,-2.34072 -0.73366,-1.46732 -0.663788,-3.03945 0.03494,-1.46732 0.558979,-2.93464 0.489107,-1.50225 1.327575,-2.86476 0.838468,-1.36252 1.956426,-2.48047 1.117958,-1.1529 2.410597,-1.85162 1.292638,-0.69872 2.969575,-1.08302 1.711873,-0.3843 3.179192,0 0.733661,0.17468 1.222771,0.62885 0.4891,0.41923 0.69872,1.01315 0.24455,0.55898 0.20962,1.22276 -0.0349,0.66379 -0.27949,1.32758 -0.59392,1.57213 -1.921493,2.65515 -1.292639,1.08302 -2.794894,1.67694 -1.676937,0.69872 -3.353874,0.80353 z m 3.004512,-6.70775 q -1.292639,1.11796 -2.37566,2.55034 -1.048086,1.43239 -1.781746,3.00451 0.524043,-0.13974 1.18783,-0.38429 1.048086,-0.3843 2.026299,-0.90835 0.978213,-0.55897 1.781745,-1.32757 0.698724,-0.62885 1.292639,-1.46732 0.593915,-0.83847 0.524042,-1.85162 0,-0.55898 -0.349361,-0.62885 -0.349362,-0.0699 -0.803532,0.10481 -0.454171,0.17468 -0.873405,0.45417 -0.419234,0.27949 -0.628851,0.45417 z"
           inkscape:connector-curvature="0" />
        <path
           id="path925"
           style="font-style:normal;font-variant:normal;font-weight:normal;font-stretch:normal;font-size:34.93618011px;font-family:'Painter PERSONAL USE ONLY';-inkscape-font-specification:'Painter PERSONAL USE ONLY, Normal';font-variant-ligatures:normal;font-variant-caps:normal;font-variant-numeric:normal;font-feature-settings:normal;text-align:start;writing-mode:lr-tb;text-anchor:start;stroke-width:0.87340444;fill:#ffffff"
           d="m 98.306662,166.25444 q 2.131108,-2.44554 3.842978,-5.24043 1.71187,-2.82983 2.8997,-6.04396 -0.41923,-0.80353 -0.34936,-1.60706 0.0699,-0.80354 0.3843,-1.39745 0.34936,-0.59392 0.87341,-0.83847 0.52404,-0.24455 1.04808,0.10481 0.59392,0.3843 0.48911,1.11796 -0.10481,0.69872 -0.3843,1.39744 0.24455,0.13975 0.55898,0.13975 0.34936,0 0.59391,0 0.90834,-0.0699 1.67694,-0.31443 0.48911,-0.69872 0.90834,-0.94327 0.41923,-0.27949 1.01315,0.20961 1.39745,1.08303 1.57213,2.06124 0.20961,0.94327 -0.59392,1.78174 -1.32757,1.71188 -2.58527,3.6683 -1.25771,1.95643 -1.88656,3.63336 -0.45417,1.22277 -0.3843,1.99137 0.0699,0.73366 0.52405,0.97821 0.45417,0.20962 1.18783,-0.0699 0.76859,-0.27949 1.67693,-1.08302 1.01315,-0.90834 2.13111,-2.37566 1.11796,-1.46732 1.95643,-3.07439 0.4891,-0.27949 0.76859,-0.0349 0.31443,0.20961 0.34936,0.59391 -0.94327,1.78175 -1.95642,3.284 -0.97822,1.50226 -2.34073,2.86477 -1.11795,1.11796 -2.27085,1.67694 -1.15289,0.52404 -2.20098,0.59391 -1.04808,0.0699 -1.88655,-0.34936 -0.83847,-0.41924 -1.32758,-1.22277 -0.4891,-0.83847 -0.52404,-2.0263 -0.0349,-1.22276 0.55898,-2.75995 0.69872,-1.85162 1.74681,-3.6683 1.04808,-1.81668 2.0263,-3.07439 -0.27949,0 -0.3843,-0.0349 -0.31443,-0.0349 -0.80353,-0.13975 -0.48911,-0.13974 -0.97822,-0.34936 -0.38429,1.01315 -0.97821,2.4106 -0.59391,1.36251 -1.39745,2.82983 -0.66378,1.2577 -1.32757,2.30579 -0.69872,1.04808 -1.39745,1.7468 -0.69872,0.69873 -1.397445,1.04809 -0.73366,0.34936 -1.432383,0.20962 z"
           inkscape:connector-curvature="0" />
        <path
           id="path927"
           style="font-style:normal;font-variant:normal;font-weight:normal;font-stretch:normal;font-size:34.93618011px;font-family:'Painter PERSONAL USE ONLY';-inkscape-font-specification:'Painter PERSONAL USE ONLY, Normal';font-variant-ligatures:normal;font-variant-caps:normal;font-variant-numeric:normal;font-feature-settings:normal;text-align:start;writing-mode:lr-tb;text-anchor:start;stroke-width:0.87340444;fill:#ffffff"
           d="m 132.72535,153.92197 q -0.3843,0.52404 -0.94328,1.36251 -0.52404,0.83846 -1.11796,1.81668 -0.59391,0.97821 -1.18783,2.0263 -0.55898,1.04808 -1.01315,1.99136 -0.94327,1.95642 -1.46732,3.284 -0.52404,1.32757 -0.27949,1.71187 0.10481,0.17468 0.34936,0.17468 0.27949,-0.0349 0.59392,-0.13974 0.31443,-0.10481 0.55898,-0.24456 0.27949,-0.17468 0.3843,-0.24455 0.76859,-0.4891 1.36251,-1.11796 0.59391,-0.66378 1.11796,-1.36251 0.4891,-0.66378 0.94327,-1.39744 0.45417,-0.73366 0.83847,-1.43239 0.41924,-0.10481 0.69872,0 0.31443,0.10481 0.41924,0.55898 -0.48911,0.90834 -0.94328,1.78175 -0.45417,0.8734 -1.04808,1.71187 -0.55898,0.83847 -1.18783,1.60706 -0.59392,0.7686 -1.29264,1.46732 -0.66379,0.66379 -1.46732,1.18783 -0.7686,0.48911 -1.74681,0.45417 -0.97821,0 -1.74681,-0.55898 -0.7686,-0.55897 -1.11796,-1.46732 -0.17468,-0.41923 -0.24455,-0.94327 -0.55898,0.80353 -1.18783,1.46732 -0.62885,0.66379 -1.43238,1.11796 -1.11796,0.62885 -2.34073,0.52404 -1.22276,-0.10481 -2.13111,-0.94328 -0.8734,-0.80353 -1.18783,-1.88655 -0.31442,-1.11796 -0.31442,-2.23592 0.0349,-1.39745 0.45417,-2.75996 0.41923,-1.36251 1.08302,-2.62021 0.69872,-1.2577 1.57213,-2.34072 0.90834,-1.11796 1.92149,-2.0263 0.97821,-0.90834 2.20098,-1.46732 1.2577,-0.55898 2.58528,-0.48911 1.29263,0.0699 2.27085,0.80353 0.97821,0.69873 1.43238,1.88656 0.41923,-0.48911 0.94328,-0.87341 0.55898,-0.41923 1.15289,-0.62885 0.62885,-0.24455 1.32758,-0.20962 0.73366,0.0349 1.18783,0.45418 z m -11.03984,9.57251 q 1.57213,-1.11796 2.82983,-2.86477 1.25771,-1.74681 1.642,-3.70323 0.17469,-0.73366 -0.0349,-1.43239 -0.20962,-0.73366 -1.08302,-0.8734 -0.69873,-0.10481 -1.29264,0.27949 -0.59392,0.3843 -1.08302,0.83847 -1.50226,1.46732 -2.44554,3.35387 -0.90834,1.88655 -1.39744,3.91285 -0.45417,2.0263 0.17468,2.69009 0.66378,0.62885 1.78174,0.0349 0.73366,-0.38429 1.36251,-0.94327 0.66379,-0.55898 1.25771,-1.1529 -0.48911,0.10481 -1.01315,0.13975 -0.48911,0 -0.69873,-0.27949 z"
           inkscape:connector-curvature="0" />
        <path
           id="path929"
           style="font-style:normal;font-variant:normal;font-weight:normal;font-stretch:normal;font-size:34.93618011px;font-family:'Painter PERSONAL USE ONLY';-inkscape-font-specification:'Painter PERSONAL USE ONLY, Normal';font-variant-ligatures:normal;font-variant-caps:normal;font-variant-numeric:normal;font-feature-settings:normal;text-align:start;writing-mode:lr-tb;text-anchor:start;stroke-width:0.87340444;fill:#ffffff"
           d="m 171.64371,146.89979 q 0.66378,0.90834 0.66378,1.88656 0,0.94327 -0.41923,1.85161 -0.41923,0.90834 -1.11796,1.71188 -0.69872,0.76859 -1.43238,1.29264 -1.46732,1.04808 -3.21413,1.71187 -1.71187,0.66379 -3.49362,0.8734 -1.39744,0.13975 -2.75996,-0.0699 -1.36251,-0.24455 -2.58527,-0.8734 -0.17468,0.24455 -0.34936,0.4891 -0.13975,0.24456 -0.31443,0.52405 -0.34936,0.59391 -0.80353,1.46731 -0.45417,0.83847 -0.83847,1.74681 -0.34936,0.90834 -0.55898,1.85162 -0.17468,0.90834 0.0349,1.67694 0.24455,0.90834 1.04808,1.29264 0.83847,0.38429 1.71187,0.20961 0.94328,-0.17468 1.71188,-0.83846 0.76859,-0.66379 1.29264,-1.43239 0.52404,-1.04808 1.43238,-2.16604 0.90834,-1.11796 1.95643,-1.74681 0.31442,-0.20962 0.80353,-0.3843 0.52404,-0.20962 1.11796,-0.27949 0.62885,-0.0699 1.22276,0.0349 0.62885,0.0699 1.1529,0.41923 -1.08303,1.25771 -1.88656,2.86477 -0.80353,1.57213 -1.642,3.14426 -1.22276,2.1311 -2.41059,4.26221 -1.18783,2.09617 -2.65515,4.0526 -0.62886,0.83846 -1.36252,1.67693 -0.73366,0.83847 -1.57212,1.50226 -0.83847,0.69872 -1.81669,1.18783 -0.94327,0.52404 -2.02629,0.66379 -0.94328,0.13974 -1.95643,0.0349 -0.97821,-0.10481 -1.88655,-0.45417 -0.90834,-0.31442 -1.67694,-0.90834 -0.7686,-0.55898 -1.32757,-1.36251 -0.62886,-0.90834 -0.83847,-1.99136 -0.20962,-1.08302 -0.0349,-2.16604 0.17468,-1.08303 0.69872,-2.0263 0.55898,-0.97822 1.46732,-1.642 0.80354,-0.59392 1.81669,-0.80354 1.04808,-0.24455 1.99136,0.13975 0.31442,0.13974 0.34936,0.27949 0.0349,0.10481 -0.0699,0.24455 -0.10481,0.10481 -0.31443,0.24455 -0.17468,0.10481 -0.31442,0.24456 -0.94328,0.94328 -1.39745,2.16604 -0.41924,1.2577 -0.41924,2.44553 0.0349,1.22277 0.48911,2.16605 0.45417,0.97821 1.2577,1.29264 0.97822,0.41923 1.85162,0.17468 0.90834,-0.24456 1.642,-0.83847 0.7686,-0.59392 1.36251,-1.43239 0.59392,-0.83846 0.97822,-1.60706 0.69872,-1.39745 1.22276,-2.82983 0.52404,-1.43238 1.11796,-2.8997 -0.3843,0.27949 -0.80353,0.55898 -0.41924,0.27949 -0.87341,0.45417 -1.01315,0.45417 -2.0263,0.45417 -1.01314,-0.0349 -1.92149,-0.41924 -0.8734,-0.3843 -1.57212,-1.11796 -0.69873,-0.76859 -1.11796,-1.78174 -0.62885,-1.57213 -0.52404,-3.14426 0.1048,-1.60706 0.73366,-3.10932 0.62885,-1.53719 1.642,-2.93464 1.01315,-1.39744 2.16604,-2.58527 -0.69872,-1.22277 -0.83847,-2.62022 -0.10481,-1.43238 0.59392,-2.75995 0.13974,-0.24456 0.34936,-0.55898 0.24455,-0.34937 0.52404,-0.62885 0.27949,-0.31443 0.55898,-0.48911 0.31443,-0.20962 0.62885,-0.20962 0.24455,1.11796 0.52404,2.27085 0.27949,1.11796 0.90834,2.09617 1.50226,-1.11795 3.14426,-1.99136 1.642,-0.90834 3.45868,-1.43238 0.87341,-0.24455 1.92149,-0.45417 1.04809,-0.24456 2.09617,-0.20962 1.04809,0 1.95643,0.34936 0.94328,0.31443 1.57213,1.18783 z m -6.60294,4.99588 q 0.62885,-0.10481 1.46732,-0.31443 0.83847,-0.24455 1.60706,-0.62885 0.7686,-0.41923 1.32758,-1.01315 0.59391,-0.59391 0.69872,-1.46732 0.0699,-0.83847 -0.3843,-1.18783 -0.41923,-0.3843 -1.08302,-0.45417 -0.66379,-0.10481 -1.43238,0.0699 -0.73366,0.13975 -1.2577,0.34936 -1.01315,0.3843 -1.88656,0.97822 -0.8734,0.59391 -1.67693,1.2577 -0.59392,0.48911 -1.18783,1.04809 -0.55898,0.52404 -1.08303,1.08302 1.1529,0.41923 2.44554,0.45417 1.29264,0 2.44553,-0.17468 z"
           inkscape:connector-curvature="0" />
        <path
           id="path931"
           style="font-style:normal;font-variant:normal;font-weight:normal;font-stretch:normal;font-size:34.93618011px;font-family:'Painter PERSONAL USE ONLY';-inkscape-font-specification:'Painter PERSONAL USE ONLY, Normal';font-variant-ligatures:normal;font-variant-caps:normal;font-variant-numeric:normal;font-feature-settings:normal;text-align:start;writing-mode:lr-tb;text-anchor:start;stroke-width:0.87340444;fill:#ffffff"
           d="m 164.56258,166.25444 q 2.13111,-2.44554 3.84298,-5.24043 1.71187,-2.82983 2.89971,-6.04396 -0.41924,-0.80353 -0.34937,-1.60706 0.0699,-0.80354 0.3843,-1.39745 0.34936,-0.59392 0.87341,-0.83847 0.52404,-0.24455 1.04808,0.10481 0.59392,0.3843 0.48911,1.11796 -0.10481,0.69872 -0.3843,1.39744 0.24455,0.13975 0.55898,0.13975 0.34936,0 0.59391,0 0.90834,-0.0699 1.67694,-0.31443 0.48911,-0.69872 0.90834,-0.94327 0.41924,-0.27949 1.01315,0.20961 1.39745,1.08303 1.57213,2.06124 0.20962,0.94327 -0.59392,1.78174 -1.32757,1.71188 -2.58527,3.6683 -1.25771,1.95643 -1.88656,3.63336 -0.45417,1.22277 -0.3843,1.99137 0.0699,0.73366 0.52405,0.97821 0.45417,0.20962 1.18783,-0.0699 0.76859,-0.27949 1.67693,-1.08302 1.01315,-0.90834 2.13111,-2.37566 1.11796,-1.46732 1.95643,-3.07439 0.4891,-0.27949 0.76859,-0.0349 0.31443,0.20961 0.34936,0.59391 -0.94327,1.78175 -1.95642,3.284 -0.97821,1.50226 -2.34073,2.86477 -1.11795,1.11796 -2.27085,1.67694 -1.15289,0.52404 -2.20098,0.59391 -1.04808,0.0699 -1.88655,-0.34936 -0.83847,-0.41924 -1.32758,-1.22277 -0.4891,-0.83847 -0.52404,-2.0263 -0.0349,-1.22276 0.55898,-2.75995 0.69872,-1.85162 1.74681,-3.6683 1.04809,-1.81668 2.0263,-3.07439 -0.27949,0 -0.3843,-0.0349 -0.31443,-0.0349 -0.80353,-0.13975 -0.48911,-0.13974 -0.97821,-0.34936 -0.3843,1.01315 -0.97822,2.4106 -0.59391,1.36251 -1.39745,2.82983 -0.66378,1.2577 -1.32757,2.30579 -0.69872,1.04808 -1.39745,1.7468 -0.69872,0.69873 -1.39744,1.04809 -0.73366,0.34936 -1.43239,0.20962 z"
           inkscape:connector-curvature="0" />
        <path
           id="path933"
           style="font-style:normal;font-variant:normal;font-weight:normal;font-stretch:normal;font-size:34.93618011px;font-family:'Painter PERSONAL USE ONLY';-inkscape-font-specification:'Painter PERSONAL USE ONLY, Normal';font-variant-ligatures:normal;font-variant-caps:normal;font-variant-numeric:normal;font-feature-settings:normal;text-align:start;writing-mode:lr-tb;text-anchor:start;stroke-width:0.87340444;fill:#ffffff"
           d="m 197.65369,155.17967 q -0.4891,1.04808 -1.11796,2.20098 -0.59391,1.11795 -1.22276,2.30578 -0.62885,1.1529 -1.2577,2.37566 -0.59392,1.18784 -1.01315,2.37567 -0.62886,1.85161 -0.17468,2.55034 0.45417,0.69872 1.32757,0.24455 0.73366,-0.3843 1.50226,-1.15289 0.80353,-0.80354 1.53719,-1.78175 0.76859,-0.97821 1.43238,-1.99136 0.66379,-1.04809 1.15289,-1.95643 0.48911,-0.20961 0.7686,-0.10481 0.27949,0.0699 0.34936,0.66379 -1.11796,2.06124 -2.23591,3.77311 -1.11796,1.71187 -2.58528,3.21413 -0.62885,0.66378 -1.53719,1.22276 -0.87341,0.55898 -1.81668,0.7686 -0.94328,0.24455 -1.85162,-0.0349 -0.87341,-0.24455 -1.50226,-1.2577 -0.69872,-1.08302 -0.73366,-2.23591 -0.0349,-1.18783 0.31443,-2.34073 -0.80353,1.11796 -1.71187,2.23592 -0.90834,1.11795 -1.88656,1.92149 -0.97821,0.76859 -1.95642,1.08302 -0.94328,0.27949 -1.81668,-0.20962 -0.7686,-0.45417 -1.11796,-1.15289 -0.34936,-0.69873 -0.41924,-1.50226 -0.10481,-0.80353 0.0349,-1.642 0.13974,-0.83847 0.34936,-1.53719 0.52404,-1.78175 1.36251,-3.45868 0.83847,-1.71188 1.92149,-3.24907 0.24456,-0.34936 0.59392,-0.83847 0.3843,-0.52404 0.80353,-0.97821 0.45417,-0.48911 0.90834,-0.8734 0.45417,-0.41924 0.8734,-0.55898 0.62886,-0.20962 1.1529,-0.17468 0.55898,0.0349 0.97821,0.24455 0.41924,0.17468 0.73366,0.41923 0.31443,0.24456 0.48911,0.45417 -0.52404,0.62886 -1.11796,1.46732 -0.59392,0.83847 -1.22277,1.78175 -0.62885,0.90834 -1.22276,1.88655 -0.59392,0.94328 -1.11796,1.81668 -1.32758,2.23592 -1.60706,3.38881 -0.27949,1.11796 0.0699,1.39745 0.34936,0.27949 1.15289,-0.17468 0.80353,-0.45417 1.67694,-1.39745 0.66379,-0.69872 1.22276,-1.43238 0.59392,-0.73366 1.18783,-1.50226 1.32758,-1.78174 2.37566,-3.70323 1.08303,-1.95643 2.30579,-3.94779 0.31443,-0.48911 0.62885,-0.73366 0.34937,-0.27949 0.94328,-0.10481 1.60707,0.48911 1.99136,1.01315 0.41924,0.52404 0.10481,1.22277 z"
           inkscape:connector-curvature="0" />
        <path
           id="path935"
           style="font-style:normal;font-variant:normal;font-weight:normal;font-stretch:normal;font-size:34.93618011px;font-family:'Painter PERSONAL USE ONLY';-inkscape-font-specification:'Painter PERSONAL USE ONLY, Normal';font-variant-ligatures:normal;font-variant-caps:normal;font-variant-numeric:normal;font-feature-settings:normal;text-align:start;writing-mode:lr-tb;text-anchor:start;stroke-width:0.87340444;fill:#ffffff"
           d="m 217.48272,160.35022 q 1.08302,-0.45417 1.11795,0.55898 -1.04808,1.99136 -2.27085,3.77311 -1.22277,1.74681 -2.75996,3.21413 -0.66378,0.62885 -1.53719,1.18783 -0.8734,0.52404 -1.78174,0.73366 -0.90834,0.24455 -1.81669,0.0349 -0.90834,-0.17468 -1.642,-1.04808 -0.62885,-0.69873 -0.76859,-1.60707 -0.13975,-0.90834 0,-1.88655 0.17468,-0.97821 0.4891,-1.92149 0.34937,-0.94328 0.66379,-1.74681 0.69873,-1.57213 1.60707,-3.00451 0.94327,-1.46732 1.71187,-3.03945 -1.01315,0.80353 -2.20098,1.88656 -1.15289,1.08302 -1.95643,2.06123 -1.04808,1.2577 -1.99136,2.58528 -0.94328,1.29264 -1.85162,2.65515 -0.45417,0.69872 -0.8734,1.39744 -0.41923,0.66379 -0.80353,1.36252 -0.20962,0.31442 -0.52405,0.80353 -0.31442,0.45417 -0.8734,0.41923 -0.41923,0 -0.83847,-0.24455 -0.41923,-0.24455 -0.73366,-0.59392 -0.34936,-0.34936 -0.52404,-0.73366 -0.20962,-0.41923 -0.13975,-0.73366 0.55898,-2.55034 1.92149,-4.89106 1.32758,-2.37566 2.72503,-4.57664 0.59391,-0.90834 1.11795,-1.88655 0.55898,-0.97822 1.22277,-1.88656 0.31443,-0.45417 0.80353,-0.62885 0.52405,-0.17468 1.43239,0.34936 0.41923,0.24456 0.62885,0.48911 0.24455,0.20962 0.24455,0.55898 0,0.31442 -0.27949,0.80353 -0.24455,0.48911 -0.76859,1.22277 -0.48911,0.66378 -1.04809,1.60706 -0.52404,0.94328 -0.90834,1.71187 0.55898,-0.62885 1.32757,-1.50225 0.80354,-0.87341 1.67694,-1.74681 0.8734,-0.87341 1.74681,-1.60707 0.90834,-0.73366 1.67694,-1.11795 0.94327,-0.48911 2.20098,-0.34937 1.29263,0.13975 2.30578,1.11796 0.27949,0.27949 0.24456,0.48911 -0.0349,0.17468 -0.20962,0.52404 -0.31443,0.73366 -0.73366,1.46732 -0.41923,0.7686 -0.8734,1.53719 -0.45418,0.73366 -0.87341,1.53719 -0.59391,1.08303 -1.29264,2.30579 -0.66379,1.18783 -1.15289,2.37566 -0.52404,1.43239 -0.31443,2.09617 0.24456,0.66379 0.90834,0.66379 0.69873,-0.0349 1.71188,-0.69872 1.01315,-0.66379 2.06123,-1.92149 0.73366,-0.90834 1.43238,-1.92149 0.69873,-1.01315 1.36252,-2.23592 z"
           inkscape:connector-curvature="0" />
        <path
           id="path937"
           style="font-style:normal;font-variant:normal;font-weight:normal;font-stretch:normal;font-size:34.93618011px;font-family:'Painter PERSONAL USE ONLY';-inkscape-font-specification:'Painter PERSONAL USE ONLY, Normal';font-variant-ligatures:normal;font-variant-caps:normal;font-variant-numeric:normal;font-feature-settings:normal;text-align:start;writing-mode:lr-tb;text-anchor:start;stroke-width:0.87340444;fill:#ffffff"
           d="m 236.97219,149.97418 q 0.34936,-0.0699 0.69872,0.31442 0.3843,0.34936 0.55898,0.73366 0.41923,0.48911 0.20962,0.94328 -0.17468,0.41923 -0.41924,0.97821 -0.3843,0.90834 -0.76859,1.78175 -0.3843,0.8734 -0.80354,1.74681 0.34937,0.52404 1.01315,0.73366 0.69873,0.17468 1.5372,0.0349 0.8734,-0.17468 1.7468,-0.66379 0.90835,-0.4891 1.67694,-1.32757 -0.20962,1.32757 -1.15289,2.30579 -0.94328,0.97821 -2.23592,1.32757 -1.11796,0.27949 -1.99136,0.17468 -0.87341,-0.13974 -1.53719,-0.59391 -0.80353,1.57213 -1.71188,3.07438 -0.8734,1.46732 -1.81668,2.93464 -0.17468,0.27949 -0.69872,0.97821 -0.48911,0.69873 -1.08302,1.50226 -0.55898,0.80353 -1.11796,1.53719 -0.52404,0.69873 -0.73366,0.94328 -0.73366,0.83847 -1.50226,0.20962 -1.08302,-0.87341 -1.39744,-1.57213 -0.27949,-0.69873 -0.24456,-1.18783 0.0349,-2.09617 0.66379,-4.12247 0.66379,-2.06124 1.2577,-4.08753 -0.76859,1.15289 -1.50225,2.30578 -0.69873,1.1529 -1.39745,2.34073 -0.59391,1.01315 -1.11796,2.0263 -0.52404,0.97821 -1.01315,1.99136 -0.17468,0.34936 -0.38429,0.69872 -0.17468,0.34936 -0.27949,0.73366 -0.10481,0.34936 -0.20962,0.48911 -0.10481,0.13974 -0.52404,0.17468 -0.20962,0 -0.66379,-0.13975 -0.41923,-0.17468 -0.90834,-0.45417 -0.48911,-0.27949 -0.90834,-0.66378 -0.41924,-0.3843 -0.55898,-0.80354 -0.13975,-0.38429 -0.10481,-0.8734 0.0349,-0.52404 0.10481,-0.90834 0.0699,-1.11796 0.20962,-2.27085 0.13974,-1.1529 0.34936,-2.30579 -0.59392,0.0349 -0.73366,-0.66379 0.59391,-1.01315 1.08302,-2.09617 0.48911,-1.08302 0.97821,-2.09617 0.73366,-1.50226 1.08302,-2.55034 0.3843,-1.04809 0.90835,-1.32758 0.31442,-0.17468 0.94327,-0.0699 0.62885,0.0699 1.01315,0.24456 0.3843,0.20961 0.69873,0.52404 0.34936,0.27949 0.45417,0.62885 0.0699,0.20962 -0.0349,0.48911 -0.10481,0.27949 -0.17468,0.4891 -0.0699,0.20962 -0.45417,1.11796 -0.3843,0.8734 -0.90834,2.27085 -0.48911,1.36251 -1.01315,3.21413 -0.48911,1.85162 -0.83847,3.98273 l 0.94328,-1.78175 q 2.30578,-4.33209 5.3103,-8.34975 0.17468,-0.20961 0.4891,-0.59391 0.31443,-0.3843 0.62885,-0.7686 0.31443,-0.3843 0.55898,-0.66379 0.24456,-0.27949 0.27949,-0.31442 0.17468,-0.10481 0.55898,-0.0699 0.3843,0.0349 0.7686,0.20961 0.41923,0.13975 0.73366,0.3843 0.34936,0.20962 0.38429,0.41924 0.0699,0.17468 0,0.45417 -0.0699,0.27949 -0.13974,0.45417 -0.10481,0.31442 -0.31443,0.97821 -0.17468,0.62885 -0.41923,1.46732 -0.20962,0.80353 -0.45417,1.71187 -0.20962,0.90834 -0.3843,1.74681 -0.10481,0.52404 -0.27949,1.36251 -0.17468,0.83847 -0.34936,1.642 -0.13974,0.80353 -0.27949,1.39745 -0.10481,0.55898 -0.10481,0.55898 0.73366,-0.83847 1.43239,-1.85162 0.69872,-1.04808 1.32757,-2.16604 0.62885,-1.1529 1.18783,-2.30579 0.55898,-1.18783 1.04809,-2.30579 -0.13975,-0.31442 -0.17468,-0.55898 -0.31443,-1.29264 0.0349,-2.55034 0.3843,-1.29264 1.18783,-2.30579 0.27949,-0.38429 0.7686,-0.83846 0.52404,-0.48911 1.01315,-0.55898 z"
           inkscape:connector-curvature="0" />
        <path
           id="path939"
           style="font-style:normal;font-variant:normal;font-weight:normal;font-stretch:normal;font-size:34.93618011px;font-family:'Painter PERSONAL USE ONLY';-inkscape-font-specification:'Painter PERSONAL USE ONLY, Normal';font-variant-ligatures:normal;font-variant-caps:normal;font-variant-numeric:normal;font-feature-settings:normal;text-align:start;writing-mode:lr-tb;text-anchor:start;stroke-width:0.87340444;fill:#ffffff"
           d="m 256.02552,153.92197 q -0.3843,0.52404 -0.94328,1.36251 -0.52404,0.83846 -1.11796,1.81668 -0.59391,0.97821 -1.18783,2.0263 -0.55898,1.04808 -1.01315,1.99136 -0.94327,1.95642 -1.46732,3.284 -0.52404,1.32757 -0.27949,1.71187 0.10481,0.17468 0.34937,0.17468 0.27949,-0.0349 0.59391,-0.13974 0.31443,-0.10481 0.55898,-0.24456 0.27949,-0.17468 0.3843,-0.24455 0.76859,-0.4891 1.36251,-1.11796 0.59391,-0.66378 1.11796,-1.36251 0.4891,-0.66378 0.94327,-1.39744 0.45417,-0.73366 0.83847,-1.43239 0.41924,-0.10481 0.69873,0 0.31442,0.10481 0.41923,0.55898 -0.48911,0.90834 -0.94328,1.78175 -0.45417,0.8734 -1.04808,1.71187 -0.55898,0.83847 -1.18783,1.60706 -0.59392,0.7686 -1.29264,1.46732 -0.66379,0.66379 -1.46732,1.18783 -0.7686,0.48911 -1.74681,0.45417 -0.97821,0 -1.74681,-0.55898 -0.7686,-0.55897 -1.11796,-1.46732 -0.17468,-0.41923 -0.24455,-0.94327 -0.55898,0.80353 -1.18783,1.46732 -0.62885,0.66379 -1.43238,1.11796 -1.11796,0.62885 -2.34073,0.52404 -1.22276,-0.10481 -2.1311,-0.94328 -0.87341,-0.80353 -1.18783,-1.88655 -0.31443,-1.11796 -0.31443,-2.23592 0.0349,-1.39745 0.45417,-2.75996 0.41923,-1.36251 1.08302,-2.62021 0.69873,-1.2577 1.57213,-2.34072 0.90834,-1.11796 1.92149,-2.0263 0.97821,-0.90834 2.20098,-1.46732 1.2577,-0.55898 2.58528,-0.48911 1.29263,0.0699 2.27085,0.80353 0.97821,0.69873 1.43238,1.88656 0.41924,-0.48911 0.94328,-0.87341 0.55898,-0.41923 1.15289,-0.62885 0.62885,-0.24455 1.32758,-0.20962 0.73366,0.0349 1.18783,0.45418 z m -11.03984,9.57251 q 1.57213,-1.11796 2.82983,-2.86477 1.25771,-1.74681 1.64201,-3.70323 0.17468,-0.73366 -0.0349,-1.43239 -0.20962,-0.73366 -1.08302,-0.8734 -0.69873,-0.10481 -1.29264,0.27949 -0.59392,0.3843 -1.08302,0.83847 -1.50226,1.46732 -2.44554,3.35387 -0.90834,1.88655 -1.39744,3.91285 -0.45417,2.0263 0.17468,2.69009 0.66379,0.62885 1.78174,0.0349 0.73366,-0.38429 1.36251,-0.94327 0.66379,-0.55898 1.25771,-1.1529 -0.48911,0.10481 -1.01315,0.13975 -0.48911,0 -0.69873,-0.27949 z"
           inkscape:connector-curvature="0" />
        <path
           id="path941"
           style="font-style:normal;font-variant:normal;font-weight:normal;font-stretch:normal;font-size:34.93618011px;font-family:'Painter PERSONAL USE ONLY';-inkscape-font-specification:'Painter PERSONAL USE ONLY, Normal';font-variant-ligatures:normal;font-variant-caps:normal;font-variant-numeric:normal;font-feature-settings:normal;text-align:start;writing-mode:lr-tb;text-anchor:start;stroke-width:0.87340444;fill:#ffffff"
           d="m 269.65225,144.52413 q 0.27949,0 0.59392,0.10481 0.27949,-0.24455 0.66378,-0.10481 0.3843,0.10481 0.55898,0.31443 0.24456,0.27949 0.27949,0.69872 0.0699,0.41924 0.0349,0.7686 -0.0699,1.22276 -0.66379,2.41059 -0.55898,1.18783 -1.18783,2.20098 -0.69872,1.22277 -1.57213,2.34073 -0.83847,1.11796 -1.78174,2.20098 -1.08302,1.22276 -2.27085,2.41059 -1.1529,1.1529 -2.4106,2.20098 -0.3843,0.27949 -0.73366,0.55898 -0.34936,0.27949 -0.69872,0.55898 -0.10481,0.0699 -0.20962,0.20962 -0.10481,0.10481 -0.24455,0.17468 -0.17469,0.4891 -0.34937,0.94328 -0.13974,0.45417 -0.31442,0.94327 -0.20962,0.73366 -0.31443,1.60707 -0.0699,0.8734 0.17468,1.50225 0.24456,0.62885 0.90834,0.80353 0.69873,0.17469 1.95643,-0.52404 0.69872,-0.3843 1.50226,-1.04808 0.83846,-0.69873 1.642,-1.5372 0.83846,-0.8734 1.57212,-1.88655 0.7686,-1.01315 1.29264,-2.0263 0.45417,-0.17468 0.73366,-0.0699 0.27949,0.10481 0.3843,0.62885 -0.52404,1.01315 -1.22277,2.09617 -0.69872,1.08302 -1.57212,2.13111 -0.83847,1.04808 -1.85162,1.99136 -0.97821,0.94328 -2.13111,1.67694 -1.32757,0.83847 -2.65515,1.01315 -1.32757,0.17468 -2.37566,-0.34936 -1.04808,-0.48911 -1.67693,-1.64201 -0.66379,-1.18783 -0.59392,-3.03944 0.0349,-1.1529 0.31443,-2.30579 0.27949,-1.15289 0.73366,-2.23592 0.41923,-1.11795 0.97821,-2.16604 0.55898,-1.04808 1.11796,-1.99136 1.2577,-2.13111 2.62021,-4.22728 1.39745,-2.13111 3.10932,-3.91285 0.69872,-0.73366 1.43238,-1.36251 0.7686,-0.66379 1.642,-1.1529 0.59392,-0.38429 1.22277,-0.62885 0.66379,-0.27949 1.36251,-0.27949 z m -8.14013,13.86967 q 0.80353,-0.73366 1.57213,-1.5372 0.7686,-0.80353 1.50225,-1.642 0.94328,-1.11795 1.81669,-2.30578 0.8734,-1.18783 1.67693,-2.4106 0.59392,-0.87341 1.04809,-1.74681 0.4891,-0.90834 0.80353,-1.92149 -0.62885,0.59392 -1.29264,1.18783 -0.62885,0.59392 -1.22276,1.2577 -1.32758,1.67694 -2.51541,3.45868 -1.15289,1.74681 -2.23592,3.59843 z"
           inkscape:connector-curvature="0" />
        <path
           id="path943"
           style="font-style:normal;font-variant:normal;font-weight:normal;font-stretch:normal;font-size:34.93618011px;font-family:'Painter PERSONAL USE ONLY';-inkscape-font-specification:'Painter PERSONAL USE ONLY, Normal';font-variant-ligatures:normal;font-variant-caps:normal;font-variant-numeric:normal;font-feature-settings:normal;text-align:start;writing-mode:lr-tb;text-anchor:start;stroke-width:0.87340444;fill:#ffffff"
           d="m 290.53698,145.18792 q -0.4891,0.90834 -1.29264,2.34072 -0.80353,1.39745 -1.78174,3.14426 -0.97821,1.71187 -2.0263,3.6683 -1.04808,1.95643 -2.06123,3.94779 -0.97822,1.99136 -1.85162,3.94779 -0.83847,1.92149 -1.39745,3.63336 -0.17468,0.59391 -0.0699,0.90834 0.13974,0.27949 0.45417,0.31442 0.34936,0 0.8734,-0.20961 0.52405,-0.24456 1.1529,-0.73366 0.52404,-0.41924 1.08302,-1.04809 0.59391,-0.62885 1.18783,-1.39744 0.59392,-0.7686 1.11796,-1.60707 0.55898,-0.8734 1.04808,-1.74681 0.45417,-0.24455 0.7686,-0.0349 0.34936,0.17468 0.34936,0.59391 -1.01315,1.88655 -2.48047,3.77311 -1.43238,1.88655 -3.14425,3.35387 -0.80354,0.69873 -1.60707,1.11796 -0.76859,0.3843 -1.50225,0.45417 -0.69873,0.0699 -1.32758,-0.24455 -0.62885,-0.27949 -1.08302,-0.97822 -0.3843,-0.55898 -0.52404,-1.15289 -0.10481,-0.62885 -0.0699,-1.32758 -0.59391,0.7686 -1.32757,1.5372 -0.73366,0.73366 -1.60706,1.2577 -0.83847,0.52404 -1.78175,0.69872 -0.94328,0.17468 -1.92149,-0.20961 -1.01315,-0.3843 -1.57213,-1.1529 -0.55898,-0.76859 -0.76859,-1.71187 -0.24456,-0.94328 -0.20962,-1.92149 0.0349,-1.01315 0.24455,-1.92149 0.45417,-1.99136 1.46732,-3.77311 1.04809,-1.78174 2.4106,-3.24906 0.69872,-0.73366 1.57213,-1.39745 0.8734,-0.66379 1.85161,-1.08302 1.01315,-0.41924 2.06124,-0.52404 1.04808,-0.13975 2.09617,0.17468 0.90834,0.27949 1.36251,0.80353 0.48911,0.52404 0.69872,1.18783 0.48911,-0.90834 0.97822,-1.74681 0.52404,-0.8734 1.04808,-1.74681 0.7686,-1.29264 1.71188,-2.82983 0.97821,-1.53719 1.99136,-2.62021 0.41923,-0.45417 0.94327,-0.66379 0.55898,-0.24455 1.11796,-0.27949 0.55898,-0.0699 1.04809,0.0699 0.4891,0.10481 0.76859,0.3843 z m -14.3937,18.30656 q 0.97821,-1.11796 1.57213,-2.48047 0.62885,-1.36251 1.39744,-2.93464 0.31443,-0.69872 0.34936,-1.43238 0.0699,-0.7686 -0.20961,-1.29264 -0.24456,-0.52404 -0.83847,-0.66379 -0.55898,-0.13974 -1.53719,0.34936 -0.90834,0.48911 -1.67694,1.25771 -0.73366,0.73366 -1.36251,1.642 -0.59392,0.90834 -1.08302,1.88655 -0.45417,0.97821 -0.80353,1.92149 -0.13975,0.31442 -0.31443,0.90834 -0.17468,0.55898 -0.34936,1.22277 -0.13975,0.62885 -0.17468,1.2577 -0.0349,0.59391 0.13974,0.97821 0.20962,0.34936 0.66379,0.3843 0.45417,0.0349 1.32757,-0.45417 0.83847,-0.48911 1.57213,-1.11796 0.73366,-0.66379 1.32758,-1.43238 z"
           inkscape:connector-curvature="0" />
      </g>
    </g>
  </g>
</svg>
