<?xml version="1.0" encoding="UTF-8" standalone="no"?>
<!-- Created with Inkscape (http://www.inkscape.org/) -->

<svg
   xmlns:dc="http://purl.org/dc/elements/1.1/"
   xmlns:cc="http://creativecommons.org/ns#"
   xmlns:rdf="http://www.w3.org/1999/02/22-rdf-syntax-ns#"
   xmlns:svg="http://www.w3.org/2000/svg"
   xmlns="http://www.w3.org/2000/svg"
   xmlns:sodipodi="http://sodipodi.sourceforge.net/DTD/sodipodi-0.dtd"
   xmlns:inkscape="http://www.inkscape.org/namespaces/inkscape"
   width="543.62866mm"
   height="47.625mm"
   viewBox="0 0 543.62866 47.625"
   version="1.1"
   id="svg961"
   inkscape:version="0.92.4 (5da689c313, 2019-01-14)"
   sodipodi:docname="projectName04.svg">
  <defs
     id="defs955" />
  <sodipodi:namedview
     id="base"
     pagecolor="#ffffff"
     bordercolor="#666666"
     borderopacity="1.0"
     inkscape:pageopacity="0.0"
     inkscape:pageshadow="2"
     inkscape:zoom="0.35"
     inkscape:cx="470.7906"
     inkscape:cy="-19.488187"
     inkscape:document-units="mm"
     inkscape:current-layer="layer1"
     showgrid="false"
     showborder="false"
     inkscape:window-width="1920"
     inkscape:window-height="1001"
     inkscape:window-x="-9"
     inkscape:window-y="-9"
     inkscape:window-maximized="1"
     fit-margin-top="0"
     fit-margin-left="0"
     fit-margin-right="0"
     fit-margin-bottom="0" />
  <metadata
     id="metadata958">
    <rdf:RDF>
      <cc:Work
         rdf:about="">
        <dc:format>image/svg+xml</dc:format>
        <dc:type
           rdf:resource="http://purl.org/dc/dcmitype/StillImage" />
        <dc:title></dc:title>
      </cc:Work>
    </rdf:RDF>
  </metadata>
  <g
     inkscape:label="Layer 1"
     inkscape:groupmode="layer"
     id="layer1"
     transform="translate(303.60878,-116.53106)">
    <g
       id="g1658"
       style="fill:#ffffff">
      <g
         id="text1508"
         style="font-style:normal;font-variant:normal;font-weight:normal;font-stretch:normal;font-size:33.2771759px;line-height:1.25;font-family:'Painter PERSONAL USE ONLY';-inkscape-font-specification:'Painter PERSONAL USE ONLY, Normal';font-variant-ligatures:normal;font-variant-caps:normal;font-variant-numeric:normal;font-feature-settings:normal;text-align:start;letter-spacing:0px;word-spacing:0px;writing-mode:lr-tb;text-anchor:start;fill:#ffffff;fill-opacity:1;stroke:none;stroke-width:0.83190423"
         aria-label="odświeżenie mieszkania Junikowo">
        <path
           id="path1514"
           d="m -218.59421,134.09804 q 0.4326,-0.16638 1.06487,-0.0666 0.96504,0.19966 1.56403,0.99831 0.59899,0.79865 0.83193,1.69714 0.33277,1.46419 0.0333,3.02822 -0.29949,1.53075 -0.93176,2.92839 1.06487,0.43261 2.06319,-0.23294 1.03159,-0.66554 1.79696,-2.09646 0.96504,-0.4326 1.06487,0.53244 -1.06487,2.0299 -2.66217,3.16133 -1.56403,1.09814 -3.86015,1.26453 -0.53244,0.69882 -1.1647,1.39764 -0.59899,0.66554 -1.29781,1.19798 -0.69882,0.53243 -1.53075,0.89848 -0.79866,0.33278 -1.69714,0.39933 -1.09815,0.0666 -1.99663,-0.33277 -0.89848,-0.36605 -1.56403,-1.06487 -0.66554,-0.7321 -1.06487,-1.66386 -0.39932,-0.93176 -0.49915,-1.96335 -0.0998,-1.16471 0.0998,-2.32941 0.19966,-1.19797 0.63226,-2.3294 0.46588,-1.13142 1.13143,-2.12974 0.66554,-0.99831 1.49747,-1.79697 0.83193,-0.76537 1.83025,-1.29781 1.03159,-0.53243 2.16301,-0.63226 0.56571,-0.0666 1.19798,0.0333 0.66554,0.0665 1.19798,0.33277 z m -1.5973,7.38753 q 0.56571,-0.49915 1.19797,-0.79865 0.66555,-0.29949 1.19798,-0.0333 0.23294,0.1331 0.39933,0.36604 0.26622,-0.89848 0.29949,-1.86352 0.0666,-0.96504 -0.16638,-1.93007 -0.16639,-0.56572 -0.49916,-0.89849 -0.2995,-0.36605 -0.76538,-0.69882 -0.59899,-0.0333 -1.13142,0.0998 -0.53243,0.13311 -1.03159,0.39933 -0.83193,0.4326 -1.56403,1.29781 -0.7321,0.83193 -1.29781,1.8968 -0.53243,1.03159 -0.89848,2.16301 -0.33277,1.13143 -0.39933,2.16302 -0.0333,0.99832 0.23294,1.79697 0.26622,0.76537 0.96504,1.09815 0.83193,0.4326 1.93008,0.0666 1.09814,-0.39933 2.09646,-1.56403 -0.46588,-0.16638 -0.86521,-0.4326 -0.36605,-0.2995 -0.56571,-0.7321 -0.26622,-0.56571 0,-1.19798 0.29949,-0.66554 0.86521,-1.19798 z"
           inkscape:connector-curvature="0"
           style="fill:#ffffff" />
        <path
           id="path1516"
           d="m -190.81921,125.91186 q -0.46588,0.8652 -1.23125,2.22957 -0.76538,1.33108 -1.69714,2.99494 -0.93176,1.63058 -1.93007,3.49411 -0.99832,1.86352 -1.96336,3.76032 -0.93176,1.8968 -1.76369,3.76032 -0.79865,1.83024 -1.33109,3.46082 -0.16638,0.56572 -0.0666,0.86521 0.13311,0.26622 0.4326,0.2995 0.33278,0 0.83193,-0.19967 0.49916,-0.23294 1.09815,-0.69882 0.49916,-0.39932 1.03159,-0.99831 0.56571,-0.59899 1.13143,-1.33109 0.56571,-0.7321 1.06487,-1.53075 0.53243,-0.83193 0.99831,-1.66386 0.4326,-0.23294 0.7321,-0.0333 0.33277,0.16639 0.33277,0.56572 -0.96504,1.79696 -2.36268,3.59393 -1.36436,1.79697 -2.99494,3.19461 -0.76538,0.66554 -1.53075,1.06487 -0.7321,0.36605 -1.43092,0.4326 -0.66555,0.0666 -1.26454,-0.23294 -0.59899,-0.26622 -1.03159,-0.93176 -0.36605,-0.53243 -0.49916,-1.09815 -0.0998,-0.59898 -0.0665,-1.26453 -0.56571,0.7321 -1.26453,1.4642 -0.69882,0.69882 -1.53075,1.19798 -0.79866,0.49915 -1.69714,0.66554 -0.89848,0.16639 -1.83024,-0.19966 -0.96504,-0.36605 -1.49748,-1.09815 -0.53243,-0.7321 -0.73209,-1.63058 -0.23295,-0.89849 -0.19967,-1.83025 0.0333,-0.96503 0.23294,-1.83024 0.43261,-1.8968 1.39764,-3.59394 0.99832,-1.69713 2.29613,-3.09477 0.66554,-0.69882 1.49747,-1.33109 0.83193,-0.63227 1.76369,-1.03159 0.96504,-0.39933 1.96336,-0.49916 0.99831,-0.13311 1.99663,0.16639 0.8652,0.26621 1.29781,0.76537 0.46588,0.49916 0.66554,1.13142 0.46588,-0.8652 0.93176,-1.66385 0.49916,-0.83193 0.99832,-1.66386 0.73209,-1.23126 1.63058,-2.69545 0.93176,-1.4642 1.8968,-2.49579 0.39932,-0.43261 0.89848,-0.63227 0.53243,-0.23294 1.06487,-0.26622 0.53243,-0.0665 0.99831,0.0666 0.46589,0.0998 0.7321,0.36605 z m -13.71019,17.43724 q 0.93176,-1.06487 1.49747,-2.36268 0.59899,-1.29781 1.33109,-2.79529 0.29949,-0.66554 0.33277,-1.36436 0.0665,-0.7321 -0.19966,-1.23126 -0.23295,-0.49915 -0.79866,-0.63226 -0.53243,-0.13311 -1.46419,0.33277 -0.86521,0.46588 -1.59731,1.19798 -0.69882,0.69882 -1.29781,1.56403 -0.56571,0.8652 -1.03159,1.79696 -0.4326,0.93176 -0.76537,1.83025 -0.13311,0.29949 -0.2995,0.8652 -0.16639,0.53244 -0.33277,1.16471 -0.13311,0.59898 -0.16639,1.19797 -0.0333,0.56572 0.13311,0.93176 0.19966,0.33278 0.63227,0.36605 0.4326,0.0333 1.26453,-0.4326 0.79865,-0.46588 1.49747,-1.06487 0.69882,-0.63227 1.26454,-1.36436 z"
           inkscape:connector-curvature="0"
           style="fill:#ffffff" />
        <path
           id="path1518"
           d="m -182.96371,130.53738 q -0.43261,0.59899 -0.79865,1.66386 -0.36605,1.06487 -0.56572,2.36268 -0.16638,1.26453 -0.33277,2.66218 -0.16638,1.36436 -0.36605,2.79528 -0.19966,1.39764 -0.59899,2.69545 0.69882,0.16639 1.33109,0 0.66554,-0.16639 1.19798,-0.49916 0.53243,-0.36605 0.93176,-0.83193 0.4326,-0.49915 0.69882,-1.03159 0.89848,-0.39933 1.06487,0.53244 -0.56571,0.99831 -1.29781,1.99663 -0.69882,0.96503 -1.86352,1.49747 -0.7321,0.36605 -1.49747,0.49916 -0.76538,0.13311 -1.56403,0.0998 -0.86521,1.33109 -1.96335,2.22957 -1.0316,0.86521 -2.59562,1.39764 -1.56403,0.53244 -3.09478,0.46588 -1.53075,-0.0333 -2.69545,-0.79865 -1.19798,-0.79865 -1.49748,-2.59562 -0.1331,-0.76538 0,-1.49747 0.13311,-0.76538 0.49916,-1.43092 0.33277,-0.69882 0.86521,-1.26454 0.49916,-0.56571 1.1647,-0.96503 1.23125,-0.69882 2.6289,-0.69882 0.66554,-0.89849 1.39764,-1.86353 0.7321,-0.96503 1.46419,-1.93007 0.7321,-0.96504 1.39764,-1.8968 0.69883,-0.93176 1.29781,-1.73041 0.19967,-0.39933 0.49916,-0.79866 0.26622,-0.36605 0.7321,-0.66554 0.46588,-0.29949 1.03159,-0.46588 0.56571,-0.19966 1.19798,-0.19966 0.66554,0 1.33109,0.26621 z m -8.08636,14.84162 q 0.39933,-0.49915 0.69882,-1.19797 -0.79865,-0.26622 -1.63058,-0.69882 -0.4326,-0.19967 -0.96503,-0.39933 -0.53244,-0.19966 -1.09815,-0.23294 -0.53244,-0.0666 -1.03159,0.0998 -0.49916,0.13311 -0.89849,0.56571 -0.26622,0.33277 -0.39932,0.79865 -0.16639,0.43261 -0.0998,0.89849 0.13311,0.96504 0.76538,1.46419 0.59899,0.46588 1.43092,0.49916 0.79865,0 1.66386,-0.4326 0.89848,-0.46588 1.56402,-1.36437 z m 2.42924,-9.55055 q -0.7321,0.96504 -1.56403,2.06319 -0.79865,1.06487 -1.5973,2.09646 0.63226,0.16639 1.29781,0.39933 l 1.26453,0.56571 q 0.26622,-1.26453 0.33277,-2.56234 0.0998,-1.29781 0.26622,-2.56235 z m 2.49579,-7.2877 q 0.69882,-0.73209 1.46419,-1.76369 0.76538,-1.03159 1.56403,-1.93007 0.83193,-0.89849 1.66386,-1.43092 0.8652,-0.53244 1.69713,-0.33277 0.89849,0.23294 1.23126,1.13142 0.33277,0.89848 -0.0998,1.76369 -0.2995,0.63227 -1.06487,1.13142 -0.7321,0.46589 -1.36437,0.7321 -1.76369,0.76538 -3.02822,0.83193 -1.23125,0.0333 -2.06318,-0.13311 z"
           inkscape:connector-curvature="0"
           style="fill:#ffffff" />
        <path
           id="path1520"
           d="m -162.8721,130.47083 q 0.33277,-0.0666 0.66555,0.29949 0.36605,0.33278 0.53243,0.69882 0.39933,0.46589 0.19966,0.89849 -0.16638,0.39932 -0.39932,0.93176 -0.36605,0.86521 -0.7321,1.69714 -0.36605,0.83192 -0.76538,1.66385 0.33278,0.49916 0.96504,0.69883 0.66555,0.16638 1.4642,0.0333 0.83193,-0.16638 1.66386,-0.63226 0.8652,-0.46588 1.5973,-1.26454 -0.19966,1.26454 -1.09814,2.1963 -0.89849,0.93176 -2.12974,1.26453 -1.06487,0.26622 -1.8968,0.16639 -0.83193,-0.13311 -1.4642,-0.56572 -0.76537,1.49748 -1.63058,2.92839 -0.83193,1.39765 -1.73041,2.79529 -0.16639,0.26622 -0.66555,0.93176 -0.46588,0.66554 -1.03159,1.43092 -0.53243,0.76537 -1.06487,1.46419 -0.49916,0.66555 -0.69882,0.89849 -0.69882,0.79865 -1.43092,0.19966 -1.03159,-0.83193 -1.33109,-1.49747 -0.26621,-0.66555 -0.23294,-1.13143 0.0333,-1.99663 0.63227,-3.9267 0.63227,-1.96336 1.19798,-3.89343 -0.7321,1.09814 -1.43092,2.19629 -0.66554,1.09815 -1.33109,2.22957 -0.56571,0.96504 -1.06487,1.93008 -0.49915,0.93176 -0.96503,1.8968 -0.16639,0.33277 -0.36605,0.66554 -0.16639,0.33277 -0.26622,0.69882 -0.0998,0.33277 -0.19966,0.46588 -0.0998,0.13311 -0.49916,0.16639 -0.19966,0 -0.63227,-0.13311 -0.39932,-0.16639 -0.8652,-0.43261 -0.46588,-0.26621 -0.86521,-0.63226 -0.39933,-0.36605 -0.53244,-0.76538 -0.1331,-0.36605 -0.0998,-0.83193 0.0333,-0.49915 0.0998,-0.8652 0.0666,-1.06487 0.19967,-2.16302 0.13311,-1.09815 0.33277,-2.19629 -0.56571,0.0333 -0.69882,-0.63227 0.56571,-0.96504 1.03159,-1.99663 0.46588,-1.03159 0.93176,-1.99663 0.69882,-1.43092 1.03159,-2.42923 0.36605,-0.99832 0.86521,-1.26454 0.2995,-0.16638 0.89848,-0.0666 0.59899,0.0666 0.96504,0.23294 0.36605,0.19966 0.66555,0.49916 0.33277,0.26621 0.4326,0.59899 0.0666,0.19966 -0.0333,0.46588 -0.0998,0.26621 -0.16638,0.46588 -0.0666,0.19966 -0.43261,1.06487 -0.36605,0.83193 -0.8652,2.16301 -0.46588,1.29781 -0.96504,3.0615 -0.46588,1.76369 -0.79865,3.7936 l 0.89848,-1.69713 q 2.19629,-4.12637 5.05813,-7.95325 0.16639,-0.19966 0.46588,-0.56571 0.2995,-0.36605 0.59899,-0.7321 0.29949,-0.36605 0.53244,-0.63227 0.23294,-0.26621 0.26621,-0.29949 0.16639,-0.0998 0.53244,-0.0666 0.36605,0.0333 0.7321,0.19966 0.39932,0.13311 0.69882,0.36605 0.33277,0.19966 0.36604,0.39932 0.0666,0.16639 0,0.43261 -0.0666,0.26621 -0.1331,0.4326 -0.0998,0.29949 -0.2995,0.93176 -0.16638,0.59899 -0.39932,1.39764 -0.19967,0.76538 -0.43261,1.63058 -0.19966,0.86521 -0.36605,1.66386 -0.0998,0.49916 -0.26621,1.29781 -0.16639,0.79865 -0.33278,1.56403 -0.1331,0.76537 -0.26621,1.33109 -0.0998,0.53243 -0.0998,0.53243 0.69882,-0.79865 1.36436,-1.76369 0.66554,-0.99831 1.26453,-2.06318 0.59899,-1.09815 1.13143,-2.1963 0.53243,-1.13142 0.99831,-2.19629 -0.13311,-0.2995 -0.16638,-0.53244 -0.2995,-1.23125 0.0333,-2.42923 0.36605,-1.23126 1.13143,-2.19629 0.26621,-0.36605 0.73209,-0.79866 0.49916,-0.46588 0.96504,-0.53243 z"
           inkscape:connector-curvature="0"
           style="fill:#ffffff" />
        <path
           id="path1522"
           d="m -153.14268,133.53233 q -0.39933,0.46588 -0.93176,1.29781 -0.53244,0.83193 -1.0316,1.73041 -0.49915,0.89849 -0.96504,1.73042 -0.4326,0.83193 -0.66554,1.36436 -0.46588,1.03159 -0.89848,2.06319 -0.43261,1.03159 -0.76538,2.09646 -0.26622,0.99831 -0.26622,1.66386 0.0333,0.63226 0.39933,0.83193 0.36605,0.19966 1.06487,-0.0998 0.69882,-0.33277 1.79697,-1.29781 1.06487,-0.96503 1.99663,-2.12974 0.93176,-1.1647 1.5973,-2.42923 0.89849,-0.4326 1.06487,0.53244 -0.76537,1.39764 -1.73041,2.79528 -0.96504,1.36436 -2.12974,2.52906 -1.79697,1.8968 -3.26116,2.52907 -1.43092,0.59899 -2.49579,0.13311 -1.13142,-0.46588 -1.49747,-1.49748 -0.39933,-1.06486 -0.36605,-2.16301 0.0666,-2.06319 0.7321,-4.05982 0.66554,-2.0299 1.66385,-3.79359 0.59899,-1.06487 1.29781,-2.16302 0.7321,-1.09815 1.66386,-1.86352 0.33277,-0.26622 0.83193,-0.39933 0.49916,-0.16639 1.03159,-0.13311 0.56572,0 1.06487,0.16639 0.49916,0.16638 0.79866,0.56571 z m -0.0333,-3.12805 q -0.7321,-0.23294 -1.26453,-0.86521 -0.53244,-0.66554 -0.36605,-1.59731 0.13311,-0.79865 0.4326,-1.53075 0.33277,-0.73209 1.1647,-0.89848 0.46588,-0.0665 0.89849,0 0.46588,0.0666 0.89848,0.23294 0.99831,0.33277 1.26453,0.89848 0.2995,0.56572 0.33277,0.83193 0.0666,0.66555 -0.1331,1.29781 -0.16639,0.63227 -0.63227,1.09815 -0.53244,0.49916 -1.23126,0.63227 -0.69882,0.0998 -1.36436,-0.0998 z"
           inkscape:connector-curvature="0"
           style="fill:#ffffff" />
        <path
           id="path1524"
           d="m -146.94481,142.05129 q -0.36605,0.0333 -0.76537,0.0333 -0.36605,-0.0333 -0.7321,-0.0998 -0.59899,1.86352 -0.36605,3.0615 0.26622,1.19798 1.13142,1.66386 0.89849,0.46588 2.29613,0.16639 1.39764,-0.2995 3.12805,-1.39764 1.39764,-0.96504 2.49579,-2.32941 1.13143,-1.39764 1.8968,-2.79528 0.36605,-0.13311 0.66554,-0.0998 0.33278,0 0.39933,0.63227 -0.76537,1.46419 -2.02991,2.99494 -1.23125,1.53075 -2.72873,2.82856 -2.39595,1.99663 -4.72535,2.66218 -2.32941,0.66554 -3.99327,-0.39933 -1.26453,-0.86521 -1.93007,-2.22957 -0.69882,-1.39764 -0.63227,-2.89512 0.0333,-1.39764 0.53244,-2.79528 0.46588,-1.43092 1.26453,-2.72873 0.79865,-1.29781 1.86352,-2.36268 1.06487,-1.09814 2.29613,-1.76369 1.23125,-0.66554 2.82856,-1.03159 1.63058,-0.36605 3.02822,0 0.69882,0.16639 1.1647,0.59899 0.46588,0.39933 0.66554,0.96504 0.23294,0.53243 0.19967,1.1647 -0.0333,0.63227 -0.26622,1.26453 -0.56571,1.49747 -1.83025,2.52907 -1.23125,1.03159 -2.66217,1.5973 -1.5973,0.66555 -3.19461,0.76538 z m 2.86184,-6.38922 q -1.23126,1.06487 -2.26285,2.42923 -0.99831,1.36437 -1.69714,2.86184 0.49916,-0.13311 1.13143,-0.36605 0.99831,-0.36605 1.93007,-0.86521 0.93177,-0.53243 1.69714,-1.26453 0.66554,-0.59899 1.23126,-1.39764 0.56571,-0.79865 0.49915,-1.76369 0,-0.53243 -0.33277,-0.59899 -0.33277,-0.0666 -0.76537,0.0998 -0.43261,0.16639 -0.83193,0.43261 -0.39933,0.26621 -0.59899,0.4326 z"
           inkscape:connector-curvature="0"
           style="fill:#ffffff" />
        <path
           id="path1526"
           d="m -126.58178,136.86005 q -1.06487,0.59899 -2.02991,1.33108 -0.96504,0.69883 -1.86352,1.4642 -0.76538,0.63227 -1.63058,1.43092 -0.83193,0.76537 -1.73042,1.56403 -0.89848,0.79865 -1.79696,1.53075 -0.89849,0.73209 -1.73042,1.23125 1.0316,-0.16638 2.1963,-0.39932 1.19797,-0.23294 2.36268,-0.33278 1.19797,-0.1331 2.26284,-0.0333 1.06487,0.0666 1.86353,0.49915 1.23125,0.66555 1.49747,1.66386 0.29949,0.96504 0.0998,2.06319 -0.99832,-0.16639 -2.46251,-0.23294 -1.43092,-0.0666 -3.09478,-0.0333 -1.66386,0 -3.42755,0.0998 -1.73041,0.0998 -3.32772,0.26622 -0.4326,0.0666 -0.8652,0.13311 -0.46588,0.0665 -0.89849,0.0333 -0.53243,-0.0333 -0.79865,-0.2995 -0.26621,-0.29949 -0.4326,-1.03159 -0.16639,-0.7321 0,-1.06487 0.13311,-0.36605 0.39933,-0.46588 1.06486,-0.46588 2.06318,-1.13143 0.96504,-0.69882 1.8968,-1.43091 0.79865,-0.63227 1.66386,-1.36437 0.89848,-0.76537 1.79697,-1.56403 0.93176,-0.79865 1.79696,-1.56402 0.86521,-0.79866 1.63058,-1.4642 0.46589,-0.39932 0.83193,-0.69882 0.36605,-0.29949 0.86521,-0.63227 -0.59899,0 -1.29781,0.0998 -0.66554,0.0666 -1.33109,0.1331 -0.66554,0.0333 -1.29781,0 -0.59899,-0.0333 -1.06487,-0.29949 -1.03159,-0.56571 -1.1647,-1.36436 -0.13311,-0.79866 0.19967,-1.86353 0.23294,0.0998 0.93176,0.13311 0.73209,0 1.69713,0 0.96504,0 2.06319,-0.0333 1.09814,-0.0333 2.09646,-0.0333 1.03159,-0.0333 1.83024,-0.0666 0.79866,-0.0333 1.16471,-0.0333 0.63226,0.0333 0.93176,0.59899 0.29949,0.56571 0.16638,2.22957 -0.53243,0.23294 -1.06487,0.46588 -0.49915,0.19966 -0.99831,0.46588 z m 1.03159,-6.72199 q -0.23294,0.46588 -0.63227,0.79865 -0.36605,0.33277 -0.83193,0.53243 -0.46588,0.16639 -0.99831,0.16639 -0.49916,-0.0333 -0.96504,-0.26622 -0.96504,-0.49915 -1.26453,-1.53075 -0.26622,-1.06487 0.19966,-1.99663 0.46588,-0.89848 1.4642,-1.29781 1.03159,-0.39932 1.99663,0.0998 0.46588,0.23294 0.76537,0.63227 0.33277,0.39933 0.43261,0.89848 0.1331,0.46588 0.0998,0.99832 -0.0333,0.49916 -0.26622,0.96504 z"
           inkscape:connector-curvature="0"
           style="fill:#ffffff" />
        <path
           id="path1528"
           d="m -119.32216,142.05129 q -0.36605,0.0333 -0.76537,0.0333 -0.36605,-0.0333 -0.7321,-0.0998 -0.59899,1.86352 -0.36605,3.0615 0.26622,1.19798 1.13142,1.66386 0.89849,0.46588 2.29613,0.16639 1.39764,-0.2995 3.12805,-1.39764 1.39764,-0.96504 2.49579,-2.32941 1.13143,-1.39764 1.8968,-2.79528 0.36605,-0.13311 0.66554,-0.0998 0.33278,0 0.39933,0.63227 -0.76537,1.46419 -2.02991,2.99494 -1.23125,1.53075 -2.72873,2.82856 -2.39595,1.99663 -4.72535,2.66218 -2.32941,0.66554 -3.99327,-0.39933 -1.26453,-0.86521 -1.93007,-2.22957 -0.69882,-1.39764 -0.63227,-2.89512 0.0333,-1.39764 0.53244,-2.79528 0.46588,-1.43092 1.26453,-2.72873 0.79865,-1.29781 1.86352,-2.36268 1.06487,-1.09814 2.29613,-1.76369 1.23125,-0.66554 2.82856,-1.03159 1.63058,-0.36605 3.02822,0 0.69882,0.16639 1.1647,0.59899 0.46588,0.39933 0.66554,0.96504 0.23294,0.53243 0.19967,1.1647 -0.0333,0.63227 -0.26622,1.26453 -0.56571,1.49747 -1.83025,2.52907 -1.23125,1.03159 -2.66217,1.5973 -1.5973,0.66555 -3.19461,0.76538 z m 2.86184,-6.38922 q -1.23126,1.06487 -2.26285,2.42923 -0.99831,1.36437 -1.69714,2.86184 0.49916,-0.13311 1.13143,-0.36605 0.99831,-0.36605 1.93008,-0.86521 0.93176,-0.53243 1.69713,-1.26453 0.66554,-0.59899 1.23126,-1.39764 0.56571,-0.79865 0.49915,-1.76369 0,-0.53243 -0.33277,-0.59899 -0.33277,-0.0666 -0.76537,0.0998 -0.43261,0.16639 -0.83193,0.43261 -0.39933,0.26621 -0.59899,0.4326 z"
           inkscape:connector-curvature="0"
           style="fill:#ffffff" />
        <path
           id="path1530"
           d="m -93.368559,140.35415 q 1.031592,-0.4326 1.06487,0.53244 -0.998316,1.89679 -2.163017,3.59393 -1.164701,1.66386 -2.628897,3.0615 -0.632266,0.59899 -1.464195,1.13142 -0.83193,0.49916 -1.697132,0.69883 -0.86521,0.23294 -1.73042,0.0333 -0.8652,-0.16638 -1.56402,-0.99831 -0.59899,-0.66555 -0.7321,-1.53075 -0.13311,-0.86521 0,-1.79697 0.16638,-0.93176 0.46588,-1.83024 0.33277,-0.89849 0.63226,-1.66386 0.66555,-1.49748 1.53075,-2.86184 0.89849,-1.39764 1.63059,-2.89512 -0.96504,0.76538 -2.09647,1.79697 -1.09814,1.03159 -1.86352,1.96336 -0.99831,1.19797 -1.8968,2.46251 -0.89848,1.23125 -1.76369,2.52906 -0.4326,0.66555 -0.83193,1.33109 -0.39932,0.63227 -0.76537,1.29781 -0.19966,0.29949 -0.49916,0.76537 -0.29949,0.43261 -0.83193,0.39933 -0.39933,0 -0.79865,-0.23294 -0.39933,-0.23294 -0.69882,-0.56571 -0.33277,-0.33277 -0.49916,-0.69882 -0.19966,-0.39933 -0.13311,-0.69882 0.53244,-2.42924 1.83025,-4.65881 1.26453,-2.26285 2.59562,-4.35931 0.56571,-0.8652 1.06487,-1.79697 0.53243,-0.93176 1.1647,-1.79696 0.29949,-0.43261 0.76537,-0.59899 0.49916,-0.16639 1.36437,0.33277 0.39932,0.23294 0.59899,0.46588 0.23294,0.19966 0.23294,0.53243 0,0.2995 -0.26622,0.76538 -0.23294,0.46588 -0.7321,1.1647 -0.46588,0.63227 -0.99831,1.53075 -0.49916,0.89848 -0.86521,1.63058 0.53243,-0.59899 1.26453,-1.43092 0.76538,-0.83193 1.59731,-1.66385 0.83193,-0.83193 1.66385,-1.53075 0.86521,-0.69883 1.597309,-1.06487 0.898484,-0.46588 2.096462,-0.33278 1.231255,0.13311 2.196294,1.06487 0.266217,0.26622 0.23294,0.46588 -0.03328,0.16639 -0.199663,0.49916 -0.299495,0.69882 -0.698821,1.39764 -0.399326,0.7321 -0.831929,1.4642 -0.432604,0.69882 -0.83193,1.46419 -0.565712,1.0316 -1.231255,2.1963 -0.632267,1.13142 -1.098147,2.26285 -0.49916,1.36436 -0.29949,1.99663 0.23294,0.63226 0.865202,0.63226 0.665543,-0.0333 1.630582,-0.66554 0.965038,-0.63227 1.963353,-1.83025 0.698821,-0.8652 1.364364,-1.83024 0.665544,-0.96504 1.29781,-2.12974 z"
           inkscape:connector-curvature="0"
           style="fill:#ffffff" />
        <path
           id="path1532"
           d="m -85.353446,133.53233 q -0.399326,0.46588 -0.931761,1.29781 -0.532435,0.83193 -1.031592,1.73041 -0.499158,0.89849 -0.965038,1.73042 -0.432604,0.83193 -0.665544,1.36436 -0.46588,1.03159 -0.898484,2.06319 -0.432603,1.03159 -0.765375,2.09646 -0.266217,0.99831 -0.266217,1.66386 0.03328,0.63226 0.399326,0.83193 0.366049,0.19966 1.06487,-0.0998 0.69882,-0.33277 1.796967,-1.29781 1.06487,-0.96503 1.996631,-2.12974 0.931761,-1.1647 1.597304,-2.42923 0.898484,-0.4326 1.06487,0.53244 -0.765375,1.39764 -1.730413,2.79528 -0.965038,1.36436 -2.12974,2.52906 -1.796967,1.8968 -3.261163,2.52907 -1.430918,0.59899 -2.495788,0.13311 -1.131424,-0.46588 -1.497473,-1.49748 -0.399326,-1.06486 -0.366049,-2.16301 0.06655,-2.06319 0.732098,-4.05982 0.665544,-2.0299 1.663859,-3.79359 0.598989,-1.06487 1.29781,-2.16302 0.732098,-1.09815 1.663858,-1.86352 0.332772,-0.26622 0.83193,-0.39933 0.499157,-0.16639 1.031592,-0.13311 0.565712,0 1.06487,0.16639 0.499158,0.16638 0.798652,0.56571 z m -0.03328,-3.12805 q -0.732098,-0.23294 -1.264533,-0.86521 -0.532435,-0.66554 -0.366049,-1.59731 0.133109,-0.79865 0.432604,-1.53075 0.332771,-0.73209 1.164701,-0.89848 0.46588,-0.0665 0.898484,0 0.46588,0.0666 0.898483,0.23294 0.998316,0.33277 1.264533,0.89848 0.299495,0.56572 0.332772,0.83193 0.06655,0.66555 -0.133109,1.29781 -0.166386,0.63227 -0.632266,1.09815 -0.532435,0.49916 -1.231256,0.63227 -0.698821,0.0998 -1.364364,-0.0998 z"
           inkscape:connector-curvature="0"
           style="fill:#ffffff" />
        <path
           id="path1534"
           d="m -79.15557,142.05129 q -0.366049,0.0333 -0.765375,0.0333 -0.366049,-0.0333 -0.732098,-0.0998 -0.598989,1.86352 -0.366049,3.0615 0.266217,1.19798 1.131424,1.66386 0.898483,0.46588 2.296125,0.16639 1.397641,-0.2995 3.128054,-1.39764 1.397642,-0.96504 2.495789,-2.32941 1.131424,-1.39764 1.896799,-2.79528 0.366049,-0.13311 0.665543,-0.0998 0.332772,0 0.399326,0.63227 -0.765375,1.46419 -2.029907,2.99494 -1.231256,1.53075 -2.728729,2.82856 -2.395957,1.99663 -4.725359,2.66218 -2.329402,0.66554 -3.993261,-0.39933 -1.264533,-0.86521 -1.930076,-2.22957 -0.698821,-1.39764 -0.632267,-2.89512 0.03328,-1.39764 0.532435,-2.79528 0.465881,-1.43092 1.264533,-2.72873 0.798652,-1.29781 1.863522,-2.36268 1.064869,-1.09814 2.296125,-1.76369 1.231255,-0.66554 2.82856,-1.03159 1.630582,-0.36605 3.028223,0 0.698821,0.16639 1.164701,0.59899 0.465881,0.39933 0.665544,0.96504 0.23294,0.53243 0.199663,1.1647 -0.03328,0.63227 -0.266218,1.26453 -0.565712,1.49747 -1.830244,2.52907 -1.231256,1.03159 -2.662175,1.5973 -1.597304,0.66555 -3.194608,0.76538 z m 2.861837,-6.38922 q -1.231256,1.06487 -2.262848,2.42923 -0.998316,1.36437 -1.697136,2.86184 0.499157,-0.13311 1.131424,-0.36605 0.998315,-0.36605 1.930076,-0.86521 0.931761,-0.53243 1.697136,-1.26453 0.665543,-0.59899 1.231255,-1.39764 0.565712,-0.79865 0.499158,-1.76369 0,-0.53243 -0.332772,-0.59899 -0.332771,-0.0666 -0.765375,0.0998 -0.432603,0.16639 -0.831929,0.43261 -0.399326,0.26621 -0.598989,0.4326 z"
           inkscape:connector-curvature="0"
           style="fill:#ffffff" />
        <path
           id="path1536"
           d="m -33.404121,140.35415 q 0.399326,-0.0998 0.698821,-0.0333 0.299495,0.0666 0.366049,0.56572 -0.931761,1.76369 -2.096462,3.32771 -1.164701,1.56403 -2.59562,2.82856 -0.632266,0.56572 -1.464196,1.06487 -0.798652,0.46588 -1.663858,0.66555 -0.83193,0.19966 -1.663859,0 -0.83193,-0.23294 -1.464196,-1.09815 -0.565712,-0.69882 -0.665543,-1.56403 -0.09983,-0.89848 0.03328,-1.83024 0.166386,-0.93176 0.46588,-1.79697 0.332772,-0.89848 0.665544,-1.66386 0.565712,-1.36436 1.29781,-2.59562 0.765375,-1.26453 1.430918,-2.59562 -0.965038,0.76538 -2.063185,1.79697 -1.064869,1.03159 -1.863522,1.96335 -0.998315,1.1647 -1.896799,2.36268 -0.898483,1.1647 -1.76369,2.42924 -0.765375,1.09814 -1.29781,1.96335 -0.532435,0.86521 -0.931761,1.4642 -0.399326,0.59898 -0.69882,0.89848 -0.266218,0.29949 -0.532435,0.29949 -0.332772,-0.0333 -0.765375,-0.16638 -0.432604,-0.16639 -0.83193,-0.36605 -0.366049,-0.23294 -0.632266,-0.56571 -0.23294,-0.33278 -0.166386,-0.79866 0.03328,-0.1331 0.133109,-0.4326 0.133108,-0.33277 0.266217,-0.69882 0.166386,-0.36605 0.299495,-0.69882 0.166386,-0.36605 0.23294,-0.56571 0.898484,-1.99663 1.896799,-4.05982 1.031592,-2.06318 2.229571,-4.39258 -1.364364,1.26453 -2.662174,2.69545 -1.264533,1.39764 -2.429234,2.86183 -0.765375,0.93176 -1.497473,1.86353 -0.698821,0.93176 -1.397641,1.89679 -0.133109,0.16639 -0.432604,0.59899 -0.299494,0.43261 -0.665543,0.89849 -0.332772,0.46588 -0.665544,0.89848 -0.332772,0.4326 -0.532435,0.59899 -0.299494,0.23294 -0.765375,0.13311 -0.499157,-0.13311 -0.965038,-0.46588 -0.46588,-0.33277 -0.765375,-0.76538 -0.332772,-0.4326 -0.266217,-0.83193 0.133109,-0.79865 0.632266,-1.99663 0.499158,-1.23125 1.164701,-2.56234 0.665544,-1.36436 1.430919,-2.72873 0.798652,-1.36436 1.53075,-2.52906 l 2.029908,-3.32772 q 0.299494,-0.53244 0.931761,-0.7321 0.632266,-0.23294 1.397641,0.33277 0.765375,0.59899 0.965038,0.96504 0.199663,0.36605 -0.133109,0.96504 -0.366049,0.66554 -0.898483,1.49747 -0.499158,0.79865 -1.031593,1.63058 -0.499157,0.79866 -0.965038,1.56403 -0.46588,0.76538 -0.765375,1.29781 0.465881,-0.56571 1.231256,-1.43092 0.765375,-0.89848 1.597304,-1.79696 0.831929,-0.93177 1.630582,-1.7637 0.798652,-0.83192 1.364364,-1.2978 0.199663,-0.19967 0.499157,-0.43261 0.332772,-0.26622 0.698821,-0.49916 0.366049,-0.23294 0.765375,-0.39932 0.432604,-0.16639 0.898484,-0.13311 0.432603,0.0333 0.898484,0.26622 0.499157,0.19966 0.898483,0.53243 0.399327,0.2995 0.632267,0.63227 0.266217,0.33277 0.23294,0.56571 -0.06655,0.36605 -0.332772,0.83193 -0.266217,0.4326 -0.432603,0.79865 l -0.798652,1.63058 q 2.029908,-2.49579 4.558973,-4.2262 1.29781,-0.89848 2.129739,-1.03159 0.83193,-0.13311 1.663859,0.26622 0.865207,0.39932 1.364364,0.89848 0.499158,0.49916 0.432603,0.7321 -0.06655,0.33277 -0.23294,0.66554 -0.166386,0.33277 -0.332772,0.63227 l -1.430918,2.69545 q -0.698821,1.36436 -1.430919,2.72873 -0.69882,1.33108 -1.197978,2.79528 -0.366049,1.03159 0.199663,1.39764 0.598989,0.33277 1.996631,-0.4326 1.364364,-0.76538 2.362679,-2.06319 1.031593,-1.33108 1.930076,-3.02822 z"
           inkscape:connector-curvature="0"
           style="fill:#ffffff" />
        <path
           id="path1538"
           d="m -25.363532,133.53233 q -0.399326,0.46588 -0.931761,1.29781 -0.532435,0.83193 -1.031592,1.73041 -0.499158,0.89849 -0.965038,1.73042 -0.432604,0.83193 -0.665544,1.36436 -0.46588,1.03159 -0.898484,2.06319 -0.432603,1.03159 -0.765375,2.09646 -0.266217,0.99831 -0.266217,1.66386 0.03328,0.63226 0.399326,0.83193 0.366049,0.19966 1.06487,-0.0998 0.69882,-0.33277 1.796967,-1.29781 1.06487,-0.96503 1.996631,-2.12974 0.931761,-1.1647 1.597304,-2.42923 0.898484,-0.4326 1.06487,0.53244 -0.765375,1.39764 -1.730413,2.79528 -0.965038,1.36436 -2.12974,2.52906 -1.796967,1.8968 -3.261163,2.52907 -1.430918,0.59899 -2.495788,0.13311 -1.131424,-0.46588 -1.497473,-1.49748 -0.399326,-1.06486 -0.366049,-2.16301 0.06655,-2.06319 0.732098,-4.05982 0.665543,-2.0299 1.663859,-3.79359 0.598989,-1.06487 1.29781,-2.16302 0.732097,-1.09815 1.663858,-1.86352 0.332772,-0.26622 0.83193,-0.39933 0.499157,-0.16639 1.031592,-0.13311 0.565712,0 1.06487,0.16639 0.499158,0.16638 0.798652,0.56571 z m -0.03328,-3.12805 q -0.732098,-0.23294 -1.264533,-0.86521 -0.532435,-0.66554 -0.366049,-1.59731 0.133109,-0.79865 0.432604,-1.53075 0.332771,-0.73209 1.164701,-0.89848 0.46588,-0.0665 0.898483,0 0.465881,0.0666 0.898484,0.23294 0.998316,0.33277 1.264533,0.89848 0.299495,0.56572 0.332772,0.83193 0.06655,0.66555 -0.133109,1.29781 -0.166386,0.63227 -0.632266,1.09815 -0.532435,0.49916 -1.231256,0.63227 -0.698821,0.0998 -1.364364,-0.0998 z"
           inkscape:connector-curvature="0"
           style="fill:#ffffff" />
        <path
           id="path1540"
           d="m -19.165656,142.05129 q -0.366049,0.0333 -0.765376,0.0333 -0.366048,-0.0333 -0.732097,-0.0998 -0.59899,1.86352 -0.366049,3.0615 0.266217,1.19798 1.131424,1.66386 0.898483,0.46588 2.296125,0.16639 1.397641,-0.2995 3.128054,-1.39764 1.397642,-0.96504 2.495789,-2.32941 1.131424,-1.39764 1.896799,-2.79528 0.3660485,-0.13311 0.6655431,-0.0998 0.3327717,0 0.3993261,0.63227 -0.7653751,1.46419 -2.0299082,2.99494 -1.231255,1.53075 -2.728728,2.82856 -2.395957,1.99663 -4.725359,2.66218 -2.329402,0.66554 -3.993261,-0.39933 -1.264533,-0.86521 -1.930076,-2.22957 -0.698821,-1.39764 -0.632267,-2.89512 0.03328,-1.39764 0.532435,-2.79528 0.465881,-1.43092 1.264533,-2.72873 0.798652,-1.29781 1.863522,-2.36268 1.064869,-1.09814 2.296125,-1.76369 1.231255,-0.66554 2.82856,-1.03159 1.630581,-0.36605 3.028223,0 0.698821,0.16639 1.164701,0.59899 0.46588,0.39933 0.665544,0.96504 0.23294,0.53243 0.199663,1.1647 -0.03328,0.63227 -0.266218,1.26453 -0.565712,1.49747 -1.830245,2.52907 -1.231255,1.03159 -2.662174,1.5973 -1.597304,0.66555 -3.194608,0.76538 z m 2.861837,-6.38922 q -1.231256,1.06487 -2.262848,2.42923 -0.998316,1.36437 -1.697136,2.86184 0.499157,-0.13311 1.131424,-0.36605 0.998315,-0.36605 1.930076,-0.86521 0.931761,-0.53243 1.697136,-1.26453 0.665543,-0.59899 1.231255,-1.39764 0.565712,-0.79865 0.499158,-1.76369 0,-0.53243 -0.332772,-0.59899 -0.332771,-0.0666 -0.765375,0.0998 -0.432603,0.16639 -0.831929,0.43261 -0.399326,0.26621 -0.598989,0.4326 z"
           inkscape:connector-curvature="0"
           style="fill:#ffffff" />
        <path
           id="path1542"
           d="m 1.2306544,130.53738 q -0.43260328,0.59899 -0.79865222,1.66386 -0.36604893,1.09815 -0.56571199,2.46251 -0.16638588,1.33109 -0.33277176,2.76201 -0.16638588,1.43092 -0.39932611,2.89511 -0.23294022,1.43092 -0.66554352,2.76201 -0.4326033,1.26453 -1.1979783,2.3294 -0.7320979,1.03159 -1.6638588,1.79697 -1.0315925,0.86521 -2.5956197,1.39764 -1.5640273,0.53244 -3.094777,0.46588 -1.53075,-0.0333 -2.695452,-0.79865 -1.197978,-0.79865 -1.497473,-2.59562 -0.166385,-1.09815 0.232941,-2.19629 0.366049,-1.13143 1.131424,-1.99664 0.732098,-0.8652 1.796967,-1.39764 1.031593,-0.53243 2.1630166,-0.49915 0.6322663,-0.86521 1.331087,-1.79697 0.7320979,-0.93176 1.4309186,-1.86352 0.7320978,-0.93176 1.3976414,-1.83025 0.6655435,-0.89848 1.2312555,-1.69713 0.2994946,-0.66555 0.7986522,-1.13143 0.5324348,-0.46588 1.1647012,-0.69882 0.66554347,-0.23294 1.39764134,-0.23294 0.73209787,-0.0333 1.43091856,0.19966 z m -5.7569514,5.45746 q -0.6988207,0.93176 -1.4974729,1.96335 -0.7653751,0.99832 -1.5307501,1.96336 0.5324348,0.29949 0.7320978,0.79865 0.2329403,0.46588 0.1663859,0.99832 -0.033277,0.49915 -0.3327717,1.03159 -0.2994946,0.53243 -0.7986523,0.93176 -0.8319294,-0.76538 -1.9633533,-0.79865 -1.0981464,-0.0666 -1.9633534,0.79865 -0.366049,0.36605 -0.499158,0.86521 -0.166386,0.46588 -0.09983,0.93176 0.06655,0.46588 0.366049,0.8652 0.266217,0.36605 0.765375,0.56571 0.898484,0.33278 1.7636901,0.0666 0.8984838,-0.26622 1.6305816,-0.89848 0.7653751,-0.66555 1.3310871,-1.53075 0.565712,-0.89849 0.8652065,-1.83025 0.4991577,-1.5973 0.6322664,-3.29444 0.1663859,-1.73041 0.4326033,-3.42755 z"
           inkscape:connector-curvature="0"
           style="fill:#ffffff" />
        <path
           id="path1544"
           d="m 14.001287,136.86005 q -1.06487,0.59899 -2.029908,1.33108 -0.965038,0.69883 -1.863522,1.4642 -0.7653751,0.63227 -1.6305817,1.43092 -0.8319294,0.76537 -1.7304131,1.56403 -0.8984838,0.79865 -1.7969675,1.53075 -0.8984838,0.73209 -1.7304132,1.23125 1.0315925,-0.16638 2.1962936,-0.39932 1.1979784,-0.23294 2.3626795,-0.33278 1.1979784,-0.1331 2.2628484,-0.0333 1.064869,0.0666 1.863521,0.49915 1.231256,0.66555 1.497473,1.66386 0.299495,0.96504 0.09983,2.06319 -0.998315,-0.16639 -2.462511,-0.23294 -1.4309187,-0.0666 -3.0947775,-0.0333 -1.6638588,0 -3.4275491,0.0998 -1.7304131,0.0998 -3.3277176,0.26622 -0.43260328,0.0666 -0.86520657,0.13311 -0.46588046,0.0665 -0.89848375,0.0333 -0.53243478,-0.0333 -0.79865218,-0.2995 -0.2662174,-0.29949 -0.4326033,-1.03159 -0.1663859,-0.7321 0,-1.06487 0.1331087,-0.36605 0.3993261,-0.46588 1.06486962,-0.46588 2.06318489,-1.13143 0.96503811,-0.69882 1.89679901,-1.43091 0.7986522,-0.63227 1.6638588,-1.36437 0.8984838,-0.76537 1.7969675,-1.56403 0.9317609,-0.79865 1.7969675,-1.56402 0.8652066,-0.79866 1.6305816,-1.4642 0.4658805,-0.39932 0.8319296,-0.69882 0.366049,-0.29949 0.865206,-0.63227 -0.598989,0 -1.2978095,0.0998 -0.6655435,0.0666 -1.331087,0.1331 -0.6655435,0.0333 -1.2978099,0 -0.5989891,-0.0333 -1.0648696,-0.29949 -1.0315924,-0.56571 -1.1647011,-1.36436 -0.1331087,-0.79866 0.199663,-1.86353 0.2329402,0.0998 0.9317609,0.13311 0.7320979,0 1.697136,0 0.9650381,0 2.0631849,-0.0333 1.0981473,-0.0333 2.0964623,-0.0333 1.031592,-0.0333 1.830244,-0.0666 0.798653,-0.0333 1.164702,-0.0333 0.632266,0.0333 0.931761,0.59899 0.299494,0.56571 0.166385,2.22957 -0.532434,0.23294 -1.064869,0.46588 -0.499158,0.19966 -0.998315,0.46588 z"
           inkscape:connector-curvature="0"
           style="fill:#ffffff" />
        <path
           id="path1546"
           d="m 33.706582,140.35415 q 0.865207,-0.19966 1.06487,0.53244 -1.264533,2.42923 -3.061501,4.72535 -0.865206,1.06487 -1.963353,2.06319 -1.06487,0.99831 -2.362679,1.56403 -1.098147,0.46588 -2.262848,0.29949 -1.164702,-0.13311 -2.029908,-0.99831 -0.565712,-0.53244 -0.898484,-1.19798 -0.332772,-0.69882 -0.499157,-1.43092 -0.166386,-0.7321 -0.199664,-1.49747 0,-0.76538 0.06656,-1.53075 0,-0.16639 0.06655,-0.59899 0.06656,-0.46588 0.133109,-0.93176 0.06655,-0.46588 0.133109,-0.83193 0.06655,-0.39933 0.09983,-0.43261 1.06487,-0.26621 2.129739,-0.73209 1.06487,-0.46588 1.796968,-0.96504 0.432603,-0.2995 1.031592,-0.83193 0.598989,-0.56571 1.098147,-1.23126 0.532435,-0.69882 0.83193,-1.46419 0.299494,-0.76538 0.133108,-1.49748 -0.432603,0.0666 -0.998315,0.36605 -0.565712,0.2995 -1.164701,0.69882 -0.565712,0.36605 -1.098147,0.83193 -0.532435,0.43261 -0.931761,0.79866 -0.931761,0.89848 -1.76369,1.86352 -0.83193,0.96504 -1.597305,1.99663 -1.730413,2.22957 -3.161331,4.72536 -0.09983,0.16638 -0.399327,0.73209 -0.266217,0.56572 -0.632266,1.26454 -0.332772,0.66554 -0.698821,1.33108 -0.332771,0.66555 -0.532434,1.0316 -0.765375,-0.0333 -1.430919,-0.63227 -0.665543,-0.59899 -0.732098,-1.39764 -0.03328,-0.16639 0.03328,-0.53244 0.06655,-0.36604 0.199663,-0.79865 0.09983,-0.46588 0.266218,-0.93176 0.166386,-0.49916 0.366049,-0.93176 0.765375,-1.79697 1.630581,-3.4941 0.865207,-1.73042 1.830245,-3.42755 l 2.36268,-4.12637 1.99663,-3.39427 q 0.23294,-0.36605 0.598989,-1.09815 0.399326,-0.7321 0.798652,-1.49747 0.432604,-0.86521 0.965039,-1.83025 0.46588,0.0666 0.898483,0.23294 0.366049,0.16639 0.765375,0.4326 0.399326,0.26622 0.665544,0.69883 0.166386,0.33277 0.166386,0.96503 0.03328,0.59899 -0.399326,1.4642 -0.399326,0.83193 -0.898484,1.63058 -0.499158,0.76538 -0.965038,1.56403 -0.665544,1.09815 -1.564027,2.42923 -0.865207,1.33109 -1.530751,2.42924 0.931761,-0.96504 2.12974,-2.02991 1.231255,-1.06487 2.395956,-1.73041 0.09983,-0.0666 0.366049,-0.19967 0.299495,-0.13311 0.665544,-0.23294 0.366049,-0.13311 0.732098,-0.19966 0.399326,-0.0998 0.665543,-0.0666 0.565712,-0.36604 1.231256,-0.29949 0.69882,0.0666 1.197978,0.53243 0.665544,0.56572 0.831929,1.4642 0.199664,0.86521 0.03328,1.73041 -0.199663,0.89849 -0.732098,1.73042 -0.499158,0.83193 -1.197979,1.56402 -0.69882,0.69882 -1.53075,1.26454 -0.831929,0.53243 -1.663858,0.89848 -0.465881,0.16639 -0.931761,0.33277 -0.465881,0.13311 -0.965038,0.23294 -0.06656,0.2995 -0.03328,1.06487 0.03328,0.76538 0.166386,1.59731 0.133109,0.83193 0.366049,1.53075 0.266218,0.69882 0.665544,0.89848 0.46588,0.23294 0.998315,0.13311 0.565712,-0.13311 1.098147,-0.4326 0.532435,-0.2995 0.998315,-0.66555 0.465881,-0.39932 0.798652,-0.76537 1.031593,-1.09815 1.830245,-2.26285 0.831929,-1.19798 1.53075,-2.49579 z"
           inkscape:connector-curvature="0"
           style="fill:#ffffff" />
        <path
           id="path1548"
           d="m 50.129889,134.23115 q -0.366049,0.49916 -0.898484,1.29781 -0.499158,0.79865 -1.06487,1.73041 -0.565712,0.93176 -1.131424,1.93008 -0.532435,0.99831 -0.965038,1.8968 -0.898484,1.86352 -1.397641,3.12805 -0.499158,1.26454 -0.266218,1.63058 0.09983,0.16639 0.332772,0.16639 0.266218,-0.0333 0.565712,-0.13311 0.299495,-0.0998 0.532435,-0.23294 0.266217,-0.16638 0.366049,-0.23294 0.732098,-0.46588 1.29781,-1.06487 0.565712,-0.63226 1.064869,-1.29781 0.465881,-0.63226 0.898484,-1.33108 0.432603,-0.69883 0.798652,-1.36437 0.399326,-0.0998 0.665544,0 0.299494,0.0998 0.399326,0.53244 -0.46588,0.8652 -0.898484,1.69713 -0.432603,0.83193 -0.998315,1.63058 -0.532435,0.79866 -1.131424,1.53075 -0.565712,0.7321 -1.231256,1.39764 -0.632266,0.63227 -1.397641,1.13143 -0.732098,0.46588 -1.663859,0.4326 -0.931761,0 -1.663859,-0.53243 -0.732097,-0.53244 -1.064869,-1.39764 -0.166386,-0.39933 -0.23294,-0.89849 -0.532435,0.76538 -1.131424,1.39764 -0.59899,0.63227 -1.364365,1.06487 -1.064869,0.59899 -2.22957,0.49916 -1.164702,-0.0998 -2.029908,-0.89848 -0.831929,-0.76538 -1.131424,-1.79697 -0.299495,-1.06487 -0.299495,-2.12974 0.03328,-1.33109 0.432604,-2.6289 0.399326,-1.29781 1.031592,-2.49578 0.665544,-1.19798 1.497473,-2.22958 0.865207,-1.06487 1.830245,-1.93007 0.931761,-0.86521 2.096462,-1.39764 1.197978,-0.53244 2.462511,-0.46588 1.231255,0.0665 2.163016,0.76537 0.931761,0.66554 1.364364,1.79697 0.399327,-0.46588 0.898484,-0.83193 0.532435,-0.39933 1.098147,-0.59899 0.598989,-0.23294 1.264533,-0.19966 0.69882,0.0333 1.131424,0.4326 z m -10.515588,9.11795 q 1.497473,-1.06487 2.695451,-2.72873 1.197979,-1.66386 1.564028,-3.52738 0.166385,-0.69882 -0.03328,-1.36437 -0.199663,-0.69882 -1.031592,-0.83193 -0.665544,-0.0998 -1.231256,0.26622 -0.565712,0.36605 -1.031592,0.79865 -1.430919,1.39765 -2.329402,3.19461 -0.865207,1.79697 -1.331087,3.72705 -0.432604,1.93007 0.166386,2.56234 0.632266,0.59899 1.697135,0.0333 0.698821,-0.36605 1.29781,-0.89849 0.632267,-0.53243 1.197979,-1.09814 -0.465881,0.0998 -0.965038,0.1331 -0.465881,0 -0.665544,-0.26621 z"
           inkscape:connector-curvature="0"
           style="fill:#ffffff" />
        <path
           id="path1550"
           d="m 67.102823,140.35415 q 1.031593,-0.4326 1.06487,0.53244 -0.998315,1.89679 -2.163017,3.59393 -1.164701,1.66386 -2.628897,3.0615 -0.632266,0.59899 -1.464195,1.13142 -0.83193,0.49916 -1.697136,0.69883 -0.865207,0.23294 -1.730413,0.0333 -0.865207,-0.16638 -1.564028,-0.99831 -0.598989,-0.66555 -0.732098,-1.53075 -0.133108,-0.86521 0,-1.79697 0.166386,-0.93176 0.465881,-1.83024 0.332772,-0.89849 0.632266,-1.66386 0.665544,-1.49748 1.53075,-2.86184 0.898484,-1.39764 1.630582,-2.89512 -0.965038,0.76538 -2.096462,1.79697 -1.098147,1.03159 -1.863522,1.96336 -0.998315,1.19797 -1.896799,2.46251 -0.898484,1.23125 -1.76369,2.52906 -0.432604,0.66555 -0.83193,1.33109 -0.399326,0.63227 -0.765375,1.29781 -0.199663,0.29949 -0.499157,0.76537 -0.299495,0.43261 -0.83193,0.39933 -0.399326,0 -0.798652,-0.23294 -0.399326,-0.23294 -0.698821,-0.56571 -0.332771,-0.33277 -0.499157,-0.69882 -0.199663,-0.39933 -0.133109,-0.69882 0.532435,-2.42924 1.830245,-4.65881 1.264532,-2.26285 2.595619,-4.35931 0.565712,-0.8652 1.06487,-1.79697 0.532435,-0.93176 1.164701,-1.79696 0.299495,-0.43261 0.765375,-0.59899 0.499158,-0.16639 1.364364,0.33277 0.399327,0.23294 0.59899,0.46588 0.23294,0.19966 0.23294,0.53243 0,0.2995 -0.266218,0.76538 -0.23294,0.46588 -0.732097,1.1647 -0.465881,0.63227 -0.998316,1.53075 -0.499157,0.89848 -0.865206,1.63058 0.532434,-0.59899 1.264532,-1.43092 0.765375,-0.83193 1.597305,-1.66385 0.831929,-0.83193 1.663859,-1.53075 0.865206,-0.69883 1.597304,-1.06487 0.898484,-0.46588 2.096462,-0.33278 1.231256,0.13311 2.196294,1.06487 0.266217,0.26622 0.23294,0.46588 -0.03328,0.16639 -0.199663,0.49916 -0.299495,0.69882 -0.698821,1.39764 -0.399326,0.7321 -0.831929,1.4642 -0.432603,0.69882 -0.83193,1.46419 -0.565712,1.0316 -1.231255,2.1963 -0.632266,1.13142 -1.098147,2.26285 -0.499158,1.36436 -0.299494,1.99663 0.23294,0.63226 0.865206,0.63226 0.665544,-0.0333 1.630582,-0.66554 0.965038,-0.63227 1.963353,-1.83025 0.698821,-0.8652 1.364364,-1.83024 0.665544,-0.96504 1.29781,-2.12974 z"
           inkscape:connector-curvature="0"
           style="fill:#ffffff" />
        <path
           id="path1552"
           d="m 75.117929,133.53233 q -0.399326,0.46588 -0.931761,1.29781 -0.532435,0.83193 -1.031593,1.73041 -0.499157,0.89849 -0.965038,1.73042 -0.432603,0.83193 -0.665543,1.36436 -0.465881,1.03159 -0.898484,2.06319 -0.432603,1.03159 -0.765375,2.09646 -0.266218,0.99831 -0.266218,1.66386 0.03328,0.63226 0.399327,0.83193 0.366049,0.19966 1.064869,-0.0998 0.698821,-0.33277 1.796968,-1.29781 1.064869,-0.96503 1.99663,-2.12974 0.931761,-1.1647 1.597305,-2.42923 0.898483,-0.4326 1.064869,0.53244 -0.765375,1.39764 -1.730413,2.79528 -0.965038,1.36436 -2.129739,2.52906 -1.796968,1.8968 -3.261163,2.52907 -1.430919,0.59899 -2.495789,0.13311 -1.131423,-0.46588 -1.497472,-1.49748 -0.399327,-1.06486 -0.366049,-2.16301 0.06655,-2.06319 0.732098,-4.05982 0.665543,-2.0299 1.663858,-3.79359 0.598989,-1.06487 1.29781,-2.16302 0.732098,-1.09815 1.663859,-1.86352 0.332772,-0.26622 0.831929,-0.39933 0.499158,-0.16639 1.031593,-0.13311 0.565712,0 1.064869,0.16639 0.499158,0.16638 0.798653,0.56571 z m -0.03328,-3.12805 q -0.732097,-0.23294 -1.264532,-0.86521 -0.532435,-0.66554 -0.366049,-1.59731 0.133109,-0.79865 0.432603,-1.53075 0.332772,-0.73209 1.164701,-0.89848 0.465881,-0.0665 0.898484,0 0.465881,0.0666 0.898484,0.23294 0.998315,0.33277 1.264532,0.89848 0.299495,0.56572 0.332772,0.83193 0.06656,0.66555 -0.133108,1.29781 -0.166386,0.63227 -0.632267,1.09815 -0.532435,0.49916 -1.231255,0.63227 -0.698821,0.0998 -1.364365,-0.0998 z"
           inkscape:connector-curvature="0"
           style="fill:#ffffff" />
        <path
           id="path1554"
           d="m 92.896277,134.23115 q -0.366049,0.49916 -0.898484,1.29781 -0.499158,0.79865 -1.06487,1.73041 -0.565712,0.93176 -1.131424,1.93008 -0.532435,0.99831 -0.965038,1.8968 -0.898484,1.86352 -1.397641,3.12805 -0.499158,1.26454 -0.266218,1.63058 0.09983,0.16639 0.332772,0.16639 0.266217,-0.0333 0.565712,-0.13311 0.299495,-0.0998 0.532435,-0.23294 0.266217,-0.16638 0.366049,-0.23294 0.732098,-0.46588 1.29781,-1.06487 0.565712,-0.63226 1.064869,-1.29781 0.465881,-0.63226 0.898484,-1.33108 0.432603,-0.69883 0.798652,-1.36437 0.399326,-0.0998 0.665544,0 0.299494,0.0998 0.399326,0.53244 -0.465881,0.8652 -0.898484,1.69713 -0.432603,0.83193 -0.998315,1.63058 -0.532435,0.79866 -1.131424,1.53075 -0.565712,0.7321 -1.231256,1.39764 -0.632266,0.63227 -1.397641,1.13143 -0.732098,0.46588 -1.663859,0.4326 -0.931761,0 -1.663859,-0.53243 -0.732097,-0.53244 -1.064869,-1.39764 -0.166386,-0.39933 -0.23294,-0.89849 -0.532435,0.76538 -1.131424,1.39764 -0.59899,0.63227 -1.364365,1.06487 -1.064869,0.59899 -2.22957,0.49916 -1.164702,-0.0998 -2.029908,-0.89848 -0.83193,-0.76538 -1.131424,-1.79697 -0.299495,-1.06487 -0.299495,-2.12974 0.03328,-1.33109 0.432604,-2.6289 0.399326,-1.29781 1.031592,-2.49578 0.665544,-1.19798 1.497473,-2.22958 0.865207,-1.06487 1.830245,-1.93007 0.931761,-0.86521 2.096462,-1.39764 1.197978,-0.53244 2.462511,-0.46588 1.231255,0.0665 2.163016,0.76537 0.931761,0.66554 1.364364,1.79697 0.399326,-0.46588 0.898484,-0.83193 0.532435,-0.39933 1.098147,-0.59899 0.598989,-0.23294 1.264533,-0.19966 0.69882,0.0333 1.131424,0.4326 z m -10.515588,9.11795 q 1.497473,-1.06487 2.695451,-2.72873 1.197979,-1.66386 1.564028,-3.52738 0.166385,-0.69882 -0.03328,-1.36437 -0.199663,-0.69882 -1.031592,-0.83193 -0.665544,-0.0998 -1.231256,0.26622 -0.565712,0.36605 -1.031592,0.79865 -1.430919,1.39765 -2.329402,3.19461 -0.865207,1.79697 -1.331087,3.72705 -0.432604,1.93007 0.166385,2.56234 0.632267,0.59899 1.697136,0.0333 0.698821,-0.36605 1.29781,-0.89849 0.632267,-0.53243 1.197979,-1.09814 -0.465881,0.0998 -0.965038,0.1331 -0.465881,0 -0.665544,-0.26621 z"
           inkscape:connector-curvature="0"
           style="fill:#ffffff" />
        <path
           id="path1556"
           d="m 128.20282,152.00116 q -0.16639,0.49916 -0.46588,0.99832 -0.26622,0.53243 -0.66554,0.99831 -0.39933,0.49916 -0.89849,0.86521 -0.49916,0.39933 -1.09814,0.59899 -1.16471,0.39932 -2.42924,0.33277 -1.23125,-0.0666 -2.56234,-0.4326 -1.29781,-0.36605 -2.6289,-0.96504 -1.29781,-0.59899 -2.56234,-1.26453 -0.96504,1.19797 -2.09646,2.16301 -1.13143,0.99832 -2.52907,1.63058 -0.93176,0.39933 -1.96335,0.59899 -0.99832,0.19967 -1.99663,0.0998 -0.99832,-0.0998 -1.93008,-0.53244 -0.89848,-0.39933 -1.63058,-1.19798 -0.66554,-0.7321 -0.96504,-1.5973 -0.29949,-0.86521 -0.26622,-1.76369 0,-0.89849 0.33278,-1.76369 0.33277,-0.86521 0.93176,-1.63058 0.66554,-0.83193 1.53075,-1.36437 0.8652,-0.53243 1.83024,-0.76537 0.99832,-0.26622 2.02991,-0.26622 1.06487,0 2.06319,0.19966 0.8652,0.16639 1.69713,0.46588 0.86521,0.26622 1.69714,0.63227 1.66386,-3.22789 3.19461,-6.4225 1.56402,-3.19461 3.36099,-6.32266 1.06487,-1.83024 2.19629,-3.62721 1.13143,-1.79697 2.52907,-3.39427 -1.19798,0.16638 -2.42923,0.1331 -1.23126,-0.0333 -2.42924,-0.19966 -0.96504,-0.13311 -2.06318,-0.13311 -1.06487,-0.0333 -2.06319,0.26622 -0.96504,0.26622 -1.76369,0.89848 -0.79865,0.59899 -1.19798,1.69714 -0.0998,0.29949 -0.19966,0.7321 -0.0665,0.4326 -0.0998,0.93176 -0.0333,0.49916 0,0.99831 0.0666,0.46588 0.23294,0.86521 -0.79865,-0.19966 -1.33109,-0.69882 -0.53243,-0.49916 -0.83193,-1.1647 -0.29949,-0.66554 -0.39932,-1.43092 -0.0666,-0.76537 0.0333,-1.4642 0.19967,-1.33108 0.93176,-2.3294 0.7321,-0.99831 1.79697,-1.63058 1.06487,-0.66554 2.3294,-0.93176 1.26454,-0.29949 2.49579,-0.26622 1.49748,0.0666 2.86184,0.46588 1.36436,0.39933 2.76201,0.7321 0.73209,0.16639 1.46419,0.2995 0.7321,0.1331 1.49747,0.19966 0.16639,0.0333 0.2995,0.0333 0.16638,0 0.33277,0 l 0.4326,-0.26622 q 0.39933,-0.19966 0.89849,-0.39933 0.53243,-0.23294 1.09814,-0.33277 0.56572,-0.13311 1.13143,-0.0998 0.59899,0.0333 1.09815,0.26622 -1.19798,1.06487 -2.09647,2.22957 -0.8652,1.13142 -1.83024,2.62889 -1.1647,1.76369 -2.12974,3.56066 -0.96504,1.79697 -1.93008,3.66049 -1.5973,3.12806 -3.22788,6.22283 -1.59731,3.0615 -3.42755,6.05645 1.76369,0.96504 3.66049,1.83024 1.8968,0.89849 3.9267,1.06487 0.93176,0.0666 1.76369,-0.13311 0.83193,-0.19966 1.69714,-0.56571 z m -18.83488,1.93008 q 1.23125,-1.09815 2.26285,-2.52907 -1.06487,-0.53243 -2.16302,-0.99831 -1.06487,-0.43261 -2.22957,-0.69882 -0.96504,-0.23294 -1.96335,-0.16639 -0.99832,0.0998 -1.76369,0.86521 -0.56572,0.63226 -0.76538,1.46419 -0.19966,0.83193 0.0998,1.66386 0.36605,0.96504 1.23126,1.49748 0.8652,0.53243 1.86352,0.49915 0.96504,-0.0666 1.83024,-0.53243 0.86521,-0.43261 1.59731,-1.06487 z"
           inkscape:connector-curvature="0"
           style="fill:#ffffff" />
        <path
           id="path1558"
           d="m 141.67749,135.42913 q -0.46588,0.99831 -1.06487,2.09646 -0.56571,1.06487 -1.1647,2.19629 -0.59899,1.09815 -1.19798,2.26285 -0.56571,1.13143 -0.96504,2.26285 -0.59899,1.76369 -0.16638,2.42923 0.4326,0.66555 1.26453,0.23294 0.69882,-0.36604 1.43092,-1.09814 0.76537,-0.76538 1.46419,-1.69714 0.7321,-0.93176 1.36437,-1.8968 0.63226,-0.99831 1.09814,-1.86352 0.46589,-0.19966 0.7321,-0.0998 0.26622,0.0666 0.33277,0.63227 -1.06487,1.96335 -2.12973,3.59393 -1.06487,1.63058 -2.46252,3.0615 -0.59899,0.63227 -1.46419,1.1647 -0.83193,0.53244 -1.73041,0.7321 -0.89849,0.23294 -1.7637,-0.0333 -0.83192,-0.23294 -1.43091,-1.19798 -0.66555,-1.03159 -0.69882,-2.12973 -0.0333,-1.13143 0.29949,-2.22958 -0.76537,1.06487 -1.63058,2.12974 -0.86521,1.06487 -1.79697,1.83025 -0.93176,0.7321 -1.86352,1.03159 -0.89848,0.26622 -1.73041,-0.19966 -0.7321,-0.43261 -1.06487,-1.09815 -0.33278,-0.66554 -0.39933,-1.43092 -0.0998,-0.76537 0.0333,-1.56402 0.13311,-0.79866 0.33277,-1.4642 0.49916,-1.69714 1.29781,-3.29444 0.79865,-1.63058 1.83024,-3.09478 0.23294,-0.33277 0.56572,-0.79865 0.36604,-0.49916 0.76537,-0.93176 0.4326,-0.46588 0.86521,-0.83193 0.4326,-0.39933 0.83193,-0.53244 0.59899,-0.19966 1.09814,-0.16638 0.53244,0.0333 0.93176,0.23294 0.39933,0.16638 0.69883,0.39932 0.29949,0.23294 0.46588,0.43261 -0.49916,0.59899 -1.06487,1.39764 -0.56572,0.79865 -1.16471,1.69714 -0.59898,0.8652 -1.1647,1.79696 -0.56571,0.89849 -1.06487,1.73042 -1.26453,2.12974 -1.53075,3.22788 -0.26621,1.06487 0.0666,1.33109 0.33277,0.26622 1.09815,-0.16639 0.76537,-0.4326 1.5973,-1.33108 0.63227,-0.66555 1.1647,-1.36437 0.56571,-0.69882 1.13142,-1.43092 1.26454,-1.69713 2.26285,-3.52738 1.0316,-1.86352 2.1963,-3.76032 0.29949,-0.46588 0.59899,-0.69882 0.33277,-0.26622 0.89848,-0.0998 1.53075,0.46588 1.8968,0.96504 0.39932,0.49916 0.0998,1.1647 z"
           inkscape:connector-curvature="0"
           style="fill:#ffffff" />
        <path
           id="path1560"
           d="m 160.56489,140.35415 q 1.03159,-0.4326 1.06487,0.53244 -0.99832,1.89679 -2.16302,3.59393 -1.1647,1.66386 -2.62889,3.0615 -0.63227,0.59899 -1.4642,1.13142 -0.83193,0.49916 -1.69714,0.69883 -0.8652,0.23294 -1.73041,0.0333 -0.86521,-0.16638 -1.56403,-0.99831 -0.59899,-0.66555 -0.73209,-1.53075 -0.13311,-0.86521 0,-1.79697 0.16638,-0.93176 0.46588,-1.83024 0.33277,-0.89849 0.63226,-1.66386 0.66555,-1.49748 1.53075,-2.86184 0.89849,-1.39764 1.63058,-2.89512 -0.96503,0.76538 -2.09646,1.79697 -1.09814,1.03159 -1.86352,1.96336 -0.99831,1.19797 -1.8968,2.46251 -0.89848,1.23125 -1.76369,2.52906 -0.4326,0.66555 -0.83193,1.33109 -0.39932,0.63227 -0.76537,1.29781 -0.19967,0.29949 -0.49916,0.76537 -0.2995,0.43261 -0.83193,0.39933 -0.39933,0 -0.79865,-0.23294 -0.39933,-0.23294 -0.69882,-0.56571 -0.33277,-0.33277 -0.49916,-0.69882 -0.19966,-0.39933 -0.13311,-0.69882 0.53244,-2.42924 1.83025,-4.65881 1.26453,-2.26285 2.59561,-4.35931 0.56572,-0.8652 1.06487,-1.79697 0.53244,-0.93176 1.16471,-1.79696 0.29949,-0.43261 0.76537,-0.59899 0.49916,-0.16639 1.36437,0.33277 0.39932,0.23294 0.59898,0.46588 0.23294,0.19966 0.23294,0.53243 0,0.2995 -0.26621,0.76538 -0.23294,0.46588 -0.7321,1.1647 -0.46588,0.63227 -0.99832,1.53075 -0.49915,0.89848 -0.8652,1.63058 0.53243,-0.59899 1.26453,-1.43092 0.76538,-0.83193 1.5973,-1.66385 0.83193,-0.83193 1.66386,-1.53075 0.86521,-0.69883 1.59731,-1.06487 0.89848,-0.46588 2.09646,-0.33278 1.23126,0.13311 2.19629,1.06487 0.26622,0.26622 0.23294,0.46588 -0.0333,0.16639 -0.19966,0.49916 -0.29949,0.69882 -0.69882,1.39764 -0.39933,0.7321 -0.83193,1.4642 -0.4326,0.69882 -0.83193,1.46419 -0.56571,1.0316 -1.23125,2.1963 -0.63227,1.13142 -1.09815,2.26285 -0.49916,1.36436 -0.2995,1.99663 0.23294,0.63226 0.86521,0.63226 0.66554,-0.0333 1.63058,-0.66554 0.96504,-0.63227 1.96336,-1.83025 0.69882,-0.8652 1.36436,-1.83024 0.66554,-0.96504 1.29781,-2.12974 z"
           inkscape:connector-curvature="0"
           style="fill:#ffffff" />
        <path
           id="path1562"
           d="m 168.58,133.53233 q -0.39933,0.46588 -0.93177,1.29781 -0.53243,0.83193 -1.03159,1.73041 -0.49916,0.89849 -0.96504,1.73042 -0.4326,0.83193 -0.66554,1.36436 -0.46588,1.03159 -0.89848,2.06319 -0.43261,1.03159 -0.76538,2.09646 -0.26622,0.99831 -0.26622,1.66386 0.0333,0.63226 0.39933,0.83193 0.36605,0.19966 1.06487,-0.0998 0.69882,-0.33277 1.79697,-1.29781 1.06487,-0.96503 1.99663,-2.12974 0.93176,-1.1647 1.5973,-2.42923 0.89849,-0.4326 1.06487,0.53244 -0.76537,1.39764 -1.73041,2.79528 -0.96504,1.36436 -2.12974,2.52906 -1.79697,1.8968 -3.26116,2.52907 -1.43092,0.59899 -2.49579,0.13311 -1.13143,-0.46588 -1.49747,-1.49748 -0.39933,-1.06486 -0.36605,-2.16301 0.0666,-2.06319 0.73209,-4.05982 0.66555,-2.0299 1.66386,-3.79359 0.59899,-1.06487 1.29781,-2.16302 0.7321,-1.09815 1.66386,-1.86352 0.33277,-0.26622 0.83193,-0.39933 0.49916,-0.16639 1.03159,-0.13311 0.56572,0 1.06487,0.16639 0.49916,0.16638 0.79866,0.56571 z m -0.0333,-3.12805 q -0.7321,-0.23294 -1.26453,-0.86521 -0.53244,-0.66554 -0.36605,-1.59731 0.13311,-0.79865 0.4326,-1.53075 0.33277,-0.73209 1.1647,-0.89848 0.46588,-0.0665 0.89848,0 0.46589,0.0666 0.89849,0.23294 0.99831,0.33277 1.26453,0.89848 0.2995,0.56572 0.33277,0.83193 0.0666,0.66555 -0.13311,1.29781 -0.16638,0.63227 -0.63226,1.09815 -0.53244,0.49916 -1.23126,0.63227 -0.69882,0.0998 -1.36436,-0.0998 z"
           inkscape:connector-curvature="0"
           style="fill:#ffffff" />
        <path
           id="path1564"
           d="m 187.22355,140.35415 q 0.86521,-0.19966 1.06487,0.53244 -1.26453,2.42923 -3.0615,4.72535 -0.86521,1.06487 -1.96335,2.06319 -1.06487,0.99831 -2.36268,1.56403 -1.09815,0.46588 -2.26285,0.29949 -1.1647,-0.13311 -2.02991,-0.99831 -0.56571,-0.53244 -0.89848,-1.19798 -0.33277,-0.69882 -0.49916,-1.43092 -0.16639,-0.7321 -0.19966,-1.49747 0,-0.76538 0.0666,-1.53075 0,-0.16639 0.0666,-0.59899 0.0666,-0.46588 0.13311,-0.93176 0.0666,-0.46588 0.13311,-0.83193 0.0666,-0.39933 0.0998,-0.43261 1.06487,-0.26621 2.12974,-0.73209 1.06487,-0.46588 1.79697,-0.96504 0.4326,-0.2995 1.03159,-0.83193 0.59899,-0.56571 1.09815,-1.23126 0.53243,-0.69882 0.83193,-1.46419 0.29949,-0.76538 0.13311,-1.49748 -0.43261,0.0666 -0.99832,0.36605 -0.56571,0.2995 -1.1647,0.69882 -0.56571,0.36605 -1.09815,0.83193 -0.53243,0.43261 -0.93176,0.79866 -0.93176,0.89848 -1.76369,1.86352 -0.83193,0.96504 -1.5973,1.99663 -1.73041,2.22957 -3.16133,4.72536 -0.0998,0.16638 -0.39933,0.73209 -0.26622,0.56572 -0.63227,1.26454 -0.33277,0.66554 -0.69882,1.33108 -0.33277,0.66555 -0.53243,1.0316 -0.76538,-0.0333 -1.43092,-0.63227 -0.66554,-0.59899 -0.7321,-1.39764 -0.0333,-0.16639 0.0333,-0.53244 0.0666,-0.36604 0.19966,-0.79865 0.0998,-0.46588 0.26622,-0.93176 0.16639,-0.49916 0.36605,-0.93176 0.76537,-1.79697 1.63058,-3.4941 0.86521,-1.73042 1.83025,-3.42755 l 2.36268,-4.12637 1.99663,-3.39427 q 0.23294,-0.36605 0.59899,-1.09815 0.39932,-0.7321 0.79865,-1.49747 0.4326,-0.86521 0.96504,-1.83025 0.46588,0.0666 0.89848,0.23294 0.36605,0.16639 0.76537,0.4326 0.39933,0.26622 0.66555,0.69883 0.16638,0.33277 0.16638,0.96503 0.0333,0.59899 -0.39932,1.4642 -0.39933,0.83193 -0.89849,1.63058 -0.49915,0.76538 -0.96503,1.56403 -0.66555,1.09815 -1.56403,2.42923 -0.86521,1.33109 -1.53075,2.42924 0.93176,-0.96504 2.12974,-2.02991 1.23125,-1.06487 2.39595,-1.73041 0.0998,-0.0666 0.36605,-0.19967 0.2995,-0.13311 0.66555,-0.23294 0.36605,-0.13311 0.73209,-0.19966 0.39933,-0.0998 0.66555,-0.0666 0.56571,-0.36604 1.23125,-0.29949 0.69882,0.0666 1.19798,0.53243 0.66555,0.56572 0.83193,1.4642 0.19966,0.86521 0.0333,1.73041 -0.19966,0.89849 -0.7321,1.73042 -0.49916,0.83193 -1.19798,1.56402 -0.69882,0.69882 -1.53075,1.26454 -0.83193,0.53243 -1.66386,0.89848 -0.46588,0.16639 -0.93176,0.33277 -0.46588,0.13311 -0.96504,0.23294 -0.0666,0.2995 -0.0333,1.06487 0.0333,0.76538 0.16638,1.59731 0.13311,0.83193 0.36605,1.53075 0.26622,0.69882 0.66555,0.89848 0.46588,0.23294 0.99831,0.13311 0.56571,-0.13311 1.09815,-0.4326 0.53243,-0.2995 0.99831,-0.66555 0.46588,-0.39932 0.79866,-0.76537 1.03159,-1.09815 1.83024,-2.26285 0.83193,-1.19798 1.53075,-2.49579 z"
           inkscape:connector-curvature="0"
           style="fill:#ffffff" />
        <path
           id="path1566"
           d="m 196.52554,134.09804 q 0.4326,-0.16638 1.06487,-0.0666 0.96504,0.19966 1.56403,0.99831 0.59899,0.79865 0.83193,1.69714 0.33277,1.46419 0.0333,3.02822 -0.29949,1.53075 -0.93176,2.92839 1.06487,0.43261 2.06319,-0.23294 1.03159,-0.66554 1.79697,-2.09646 0.96503,-0.4326 1.06487,0.53244 -1.06487,2.0299 -2.66218,3.16133 -1.56403,1.09814 -3.86015,1.26453 -0.53244,0.69882 -1.1647,1.39764 -0.59899,0.66554 -1.29781,1.19798 -0.69882,0.53243 -1.53075,0.89848 -0.79865,0.33278 -1.69714,0.39933 -1.09815,0.0666 -1.99663,-0.33277 -0.89848,-0.36605 -1.56403,-1.06487 -0.66554,-0.7321 -1.06487,-1.66386 -0.39932,-0.93176 -0.49915,-1.96335 -0.0998,-1.16471 0.0998,-2.32941 0.19966,-1.19797 0.63226,-2.3294 0.46589,-1.13142 1.13143,-2.12974 0.66554,-0.99831 1.49747,-1.79697 0.83193,-0.76537 1.83025,-1.29781 1.03159,-0.53243 2.16301,-0.63226 0.56571,-0.0666 1.19798,0.0333 0.66554,0.0665 1.19798,0.33277 z m -1.5973,7.38753 q 0.56571,-0.49915 1.19797,-0.79865 0.66555,-0.29949 1.19798,-0.0333 0.23294,0.1331 0.39933,0.36604 0.26622,-0.89848 0.29949,-1.86352 0.0666,-0.96504 -0.16638,-1.93007 -0.16639,-0.56572 -0.49916,-0.89849 -0.29949,-0.36605 -0.76537,-0.69882 -0.59899,-0.0333 -1.13143,0.0998 -0.53243,0.13311 -1.03159,0.39933 -0.83193,0.4326 -1.56403,1.29781 -0.7321,0.83193 -1.29781,1.8968 -0.53243,1.03159 -0.89848,2.16301 -0.33277,1.13143 -0.39933,2.16302 -0.0333,0.99832 0.23294,1.79697 0.26622,0.76537 0.96504,1.09815 0.83193,0.4326 1.93008,0.0666 1.09814,-0.39933 2.09646,-1.56403 -0.46588,-0.16638 -0.86521,-0.4326 -0.36605,-0.2995 -0.56571,-0.7321 -0.26622,-0.56571 0,-1.19798 0.29949,-0.66554 0.86521,-1.19798 z"
           inkscape:connector-curvature="0"
           style="fill:#ffffff" />
        <path
           id="path1568"
           d="m 221.50526,130.47083 q 0.33278,-0.0666 0.66555,0.29949 0.36605,0.33278 0.53243,0.69882 0.39933,0.46589 0.19967,0.89849 -0.16639,0.39932 -0.39933,0.93176 -0.36605,0.86521 -0.7321,1.69714 -0.36605,0.83192 -0.76537,1.66385 0.33277,0.49916 0.96503,0.69883 0.66555,0.16638 1.4642,0.0333 0.83193,-0.16638 1.66386,-0.63226 0.86521,-0.46588 1.5973,-1.26454 -0.19966,1.26454 -1.09814,2.1963 -0.89849,0.93176 -2.12974,1.26453 -1.06487,0.26622 -1.8968,0.16639 -0.83193,-0.13311 -1.4642,-0.56572 -0.76537,1.49748 -1.63058,2.92839 -0.83193,1.39765 -1.73041,2.79529 -0.16639,0.26622 -0.66555,0.93176 -0.46588,0.66554 -1.03159,1.43092 -0.53243,0.76537 -1.06487,1.46419 -0.49916,0.66555 -0.69882,0.89849 -0.69882,0.79865 -1.43092,0.19966 -1.03159,-0.83193 -1.33108,-1.49747 -0.26622,-0.66555 -0.23294,-1.13143 0.0333,-1.99663 0.63226,-3.9267 0.63227,-1.96336 1.19798,-3.89343 -0.7321,1.09814 -1.43092,2.19629 -0.66554,1.09815 -1.33109,2.22957 -0.56571,0.96504 -1.06486,1.93008 -0.49916,0.93176 -0.96504,1.8968 -0.16639,0.33277 -0.36605,0.66554 -0.16639,0.33277 -0.26622,0.69882 -0.0998,0.33277 -0.19966,0.46588 -0.0998,0.13311 -0.49916,0.16639 -0.19966,0 -0.63227,-0.13311 -0.39932,-0.16639 -0.8652,-0.43261 -0.46588,-0.26621 -0.86521,-0.63226 -0.39933,-0.36605 -0.53243,-0.76538 -0.13311,-0.36605 -0.0998,-0.83193 0.0333,-0.49915 0.0998,-0.8652 0.0666,-1.06487 0.19966,-2.16302 0.13311,-1.09815 0.33277,-2.19629 -0.56571,0.0333 -0.69882,-0.63227 0.56571,-0.96504 1.03159,-1.99663 0.46588,-1.03159 0.93176,-1.99663 0.69882,-1.43092 1.0316,-2.42923 0.36604,-0.99832 0.8652,-1.26454 0.2995,-0.16638 0.89849,-0.0666 0.59899,0.0666 0.96503,0.23294 0.36605,0.19966 0.66555,0.49916 0.33277,0.26621 0.4326,0.59899 0.0666,0.19966 -0.0333,0.46588 -0.0998,0.26621 -0.16638,0.46588 -0.0666,0.19966 -0.43261,1.06487 -0.36604,0.83193 -0.8652,2.16301 -0.46588,1.29781 -0.96504,3.0615 -0.46588,1.76369 -0.79865,3.7936 l 0.89848,-1.69713 q 2.19629,-4.12637 5.05813,-7.95325 0.16639,-0.19966 0.46588,-0.56571 0.2995,-0.36605 0.59899,-0.7321 0.2995,-0.36605 0.53244,-0.63227 0.23294,-0.26621 0.26621,-0.29949 0.16639,-0.0998 0.53244,-0.0666 0.36605,0.0333 0.7321,0.19966 0.39932,0.13311 0.69882,0.36605 0.33277,0.19966 0.36605,0.39932 0.0665,0.16639 0,0.43261 -0.0666,0.26621 -0.13311,0.4326 -0.0998,0.29949 -0.2995,0.93176 -0.16638,0.59899 -0.39932,1.39764 -0.19967,0.76538 -0.43261,1.63058 -0.19966,0.86521 -0.36605,1.66386 -0.0998,0.49916 -0.26621,1.29781 -0.16639,0.79865 -0.33277,1.56403 -0.13311,0.76537 -0.26622,1.33109 -0.0998,0.53243 -0.0998,0.53243 0.69882,-0.79865 1.36436,-1.76369 0.66554,-0.99831 1.26453,-2.06318 0.59899,-1.09815 1.13143,-2.1963 0.53243,-1.13142 0.99831,-2.19629 -0.13311,-0.2995 -0.16638,-0.53244 -0.2995,-1.23125 0.0333,-2.42923 0.36605,-1.23126 1.13143,-2.19629 0.26622,-0.36605 0.7321,-0.79866 0.49915,-0.46588 0.96503,-0.53243 z"
           inkscape:connector-curvature="0"
           style="fill:#ffffff" />
        <path
           id="path1570"
           d="m 232.5325,134.09804 q 0.4326,-0.16638 1.06487,-0.0666 0.96504,0.19966 1.56403,0.99831 0.59898,0.79865 0.83193,1.69714 0.33277,1.46419 0.0333,3.02822 -0.29949,1.53075 -0.93176,2.92839 1.06487,0.43261 2.06319,-0.23294 1.03159,-0.66554 1.79696,-2.09646 0.96504,-0.4326 1.06487,0.53244 -1.06487,2.0299 -2.66217,3.16133 -1.56403,1.09814 -3.86015,1.26453 -0.53244,0.69882 -1.1647,1.39764 -0.59899,0.66554 -1.29781,1.19798 -0.69882,0.53243 -1.53075,0.89848 -0.79866,0.33278 -1.69714,0.39933 -1.09815,0.0666 -1.99663,-0.33277 -0.89848,-0.36605 -1.56403,-1.06487 -0.66554,-0.7321 -1.06487,-1.66386 -0.39932,-0.93176 -0.49916,-1.96335 -0.0998,-1.16471 0.0998,-2.32941 0.19966,-1.19797 0.63226,-2.3294 0.46588,-1.13142 1.13143,-2.12974 0.66554,-0.99831 1.49747,-1.79697 0.83193,-0.76537 1.83024,-1.29781 1.0316,-0.53243 2.16302,-0.63226 0.56571,-0.0666 1.19798,0.0333 0.66554,0.0665 1.19798,0.33277 z m -1.59731,7.38753 q 0.56572,-0.49915 1.19798,-0.79865 0.66555,-0.29949 1.19798,-0.0333 0.23294,0.1331 0.39933,0.36604 0.26621,-0.89848 0.29949,-1.86352 0.0666,-0.96504 -0.16638,-1.93007 -0.16639,-0.56572 -0.49916,-0.89849 -0.2995,-0.36605 -0.76538,-0.69882 -0.59899,-0.0333 -1.13142,0.0998 -0.53244,0.13311 -1.03159,0.39933 -0.83193,0.4326 -1.56403,1.29781 -0.7321,0.83193 -1.29781,1.8968 -0.53244,1.03159 -0.89848,2.16301 -0.33278,1.13143 -0.39933,2.16302 -0.0333,0.99832 0.23294,1.79697 0.26622,0.76537 0.96504,1.09815 0.83193,0.4326 1.93007,0.0666 1.09815,-0.39933 2.09647,-1.56403 -0.46588,-0.16638 -0.86521,-0.4326 -0.36605,-0.2995 -0.56571,-0.7321 -0.26622,-0.56571 0,-1.19798 0.29949,-0.66554 0.8652,-1.19798 z"
           inkscape:connector-curvature="0"
           style="fill:#ffffff" />
      </g>
      <g
         style="fill:#ffffff"
         transform="matrix(0.16149399,0,0,0.16149399,-303.60864,106.83404)"
         id="g1609">
        <path
           inkscape:connector-curvature="0"
           id="path2"
           d="m 411.505,156.667 c -53.244,-22.644 -97.92,-58.752 -146.88,-88.74 -1.224,-0.612 -2.448,-1.224 -3.06,-1.224 -1.225,-7.344 -12.24,-9.792 -14.076,-1.224 -3.672,16.524 -3.672,33.66 0,50.184 C 216.888,103.423 183.228,97.915 150.792,90.571 128.76,85.675 106.728,81.391 85.308,75.883 77.964,74.047 71.232,72.211 63.888,69.763 60.216,68.539 52.26,64.255 52.26,67.927 c 0,0 0,0 -0.612,0 -2.448,-3.06 -7.956,-3.672 -9.18,1.224 -0.612,1.836 0,3.672 1.224,5.508 -7.956,7.956 -15.912,15.912 -22.032,25.704 -4.284,6.732 -11.016,15.912 -12.852,24.48 -0.612,0.612 -0.612,0.612 -0.612,1.224 -11.016,39.78 -7.956,88.128 -7.344,129.132 0.612,21.42 -2.448,75.888 22.644,86.292 3.06,1.224 5.508,-1.224 6.732,-3.672 20.196,11.628 58.752,-2.448 76.5,-7.344 33.048,-9.181 66.708,-20.196 98.532,-33.66 0,7.956 0,16.523 0.612,24.479 0.612,8.568 0.612,20.809 8.569,26.316 -2.448,3.672 1.224,9.18 6.12,6.731 61.199,-31.212 128.52,-61.199 178.704,-108.936 3.06,-3.06 2.447,-6.732 0,-9.18 2.447,-9.792 4.283,-19.584 6.731,-28.764 2.448,-9.792 6.732,-21.42 4.896,-31.824 0,-0.612 -0.612,-1.836 -1.225,-2.448 1.225,-1.224 2.448,-2.448 3.672,-3.672 2.45,-3.67 2.45,-11.014 -1.834,-12.85 z M 58.993,84.451 c 44.676,20.196 170.136,35.496 190.945,38.556 3.06,3.672 11.016,2.448 10.403,-3.06 -1.224,-12.852 -1.224,-25.704 0,-39.168 43.452,29.988 85.681,62.424 134.028,84.456 -41.616,40.392 -84.456,75.888 -130.968,110.16 -0.612,-0.612 -1.225,-1.225 -2.448,-1.225 -1.836,-4.284 -0.612,-14.688 0,-19.584 0.612,-7.344 3.672,-19.584 -1.224,-25.704 -2.448,-2.447 -6.732,-2.447 -9.792,0 -1.225,1.225 -1.836,2.448 -2.448,3.673 -0.612,0 -1.224,0 -1.224,0 -31.824,9.791 -63.649,18.359 -95.473,25.703 -26.316,6.12 -55.692,12.24 -78.948,27.54 5.508,-27.54 -4.896,-63.036 -8.568,-89.964 C 57.769,157.891 53.485,122.395 58.993,84.451 Z M 391.31,202.567 c -2.448,11.628 -5.509,23.868 -6.12,35.496 -50.185,41.004 -108.937,66.096 -162.181,101.592 0,-6.732 -3.672,-14.076 -4.283,-20.809 -1.225,-9.18 -1.837,-18.972 -1.837,-28.764 3.061,-4.284 -1.224,-12.852 -7.956,-11.016 -28.765,9.792 -57.528,21.42 -86.292,30.6 -22.644,7.344 -69.156,26.928 -91.8,14.076 -1.224,-0.612 -3.06,-0.612 -4.284,-0.612 -3.06,-7.956 -6.12,-15.3 -7.344,-23.868 -4.284,-22.031 -3.672,-45.287 -3.672,-67.932 0,-30.6 6.12,-66.096 0.612,-97.308 0.612,0 1.836,-0.612 2.448,-1.224 7.344,-6.732 11.016,-17.748 15.912,-26.316 3.06,-5.508 5.508,-11.016 7.956,-16.524 -5.508,26.316 -1.224,55.692 1.836,80.784 2.448,22.644 6.12,45.288 9.18,67.932 2.448,17.137 1.224,34.885 4.896,52.021 0.612,3.672 4.284,4.896 7.344,4.284 v 0.611 c 0,0.612 0.612,1.225 1.224,1.836 7.344,3.061 11.628,-0.611 18.36,-4.283 18.972,-9.181 41.004,-14.076 61.2,-18.973 32.436,-7.956 68.544,-12.239 99.145,-26.315 0,3.672 -0.612,6.731 -0.612,10.403 -0.612,7.956 -1.836,19.584 4.896,25.704 2.447,2.448 6.12,2.448 8.567,1.225 0.612,3.06 3.672,5.508 7.956,4.284 48.349,-17.137 90.576,-61.812 127.296,-100.369 -1.224,4.285 -1.836,9.181 -2.447,13.465 z"
           style="fill:#ffffff;stroke:none" />
        <g
           style="fill:#ffffff"
           id="g6">
</g>
        <g
           style="fill:#ffffff"
           id="g8">
</g>
        <g
           style="fill:#ffffff"
           id="g10">
</g>
        <g
           style="fill:#ffffff"
           id="g12">
</g>
        <g
           style="fill:#ffffff"
           id="g14">
</g>
        <g
           style="fill:#ffffff"
           id="g16">
</g>
        <g
           style="fill:#ffffff"
           id="g18">
</g>
        <g
           style="fill:#ffffff"
           id="g20">
</g>
        <g
           style="fill:#ffffff"
           id="g22">
</g>
        <g
           style="fill:#ffffff"
           id="g24">
</g>
        <g
           style="fill:#ffffff"
           id="g26">
</g>
        <g
           style="fill:#ffffff"
           id="g28">
</g>
        <g
           style="fill:#ffffff"
           id="g30">
</g>
        <g
           style="fill:#ffffff"
           id="g32">
</g>
        <g
           style="fill:#ffffff"
           id="g34">
</g>
      </g>
    </g>
  </g>
</svg>
