<?xml version="1.0" encoding="UTF-8" standalone="no"?>
<!-- Created with Inkscape (http://www.inkscape.org/) -->

<svg
   xmlns:dc="http://purl.org/dc/elements/1.1/"
   xmlns:cc="http://creativecommons.org/ns#"
   xmlns:rdf="http://www.w3.org/1999/02/22-rdf-syntax-ns#"
   xmlns:svg="http://www.w3.org/2000/svg"
   xmlns="http://www.w3.org/2000/svg"
   xmlns:sodipodi="http://sodipodi.sourceforge.net/DTD/sodipodi-0.dtd"
   xmlns:inkscape="http://www.inkscape.org/namespaces/inkscape"
   width="256.64578mm"
   height="79.291405mm"
   viewBox="0 0 256.64578 79.291405"
   version="1.1"
   id="svg8"
   inkscape:version="0.92.4 (5da689c313, 2019-01-14)"
   sodipodi:docname="projectName01SM.svg">
  <defs
     id="defs2" />
  <sodipodi:namedview
     id="base"
     pagecolor="#ffffff"
     bordercolor="#666666"
     borderopacity="1.0"
     inkscape:pageopacity="0.0"
     inkscape:pageshadow="2"
     inkscape:zoom="0.49497475"
     inkscape:cx="194.15137"
     inkscape:cy="109.88349"
     inkscape:document-units="mm"
     inkscape:current-layer="layer1"
     showgrid="false"
     showborder="false"
     fit-margin-top="0"
     fit-margin-left="0"
     fit-margin-right="0"
     fit-margin-bottom="0"
     inkscape:window-width="1920"
     inkscape:window-height="1001"
     inkscape:window-x="-9"
     inkscape:window-y="-9"
     inkscape:window-maximized="1" />
  <metadata
     id="metadata5">
    <rdf:RDF>
      <cc:Work
         rdf:about="">
        <dc:format>image/svg+xml</dc:format>
        <dc:type
           rdf:resource="http://purl.org/dc/dcmitype/StillImage" />
        <dc:title></dc:title>
      </cc:Work>
    </rdf:RDF>
  </metadata>
  <g
     inkscape:label="Layer 1"
     inkscape:groupmode="layer"
     id="layer1"
     transform="translate(-35.844324,-109.94647)">
    <g
       id="g934"
       style="fill:#ffffff">
      <g
         transform="matrix(1.0105235,0,0,1.0105235,-3.0780305,-1.9914519)"
         id="g933"
         style="fill:#ffffff">
        <path
           inkscape:connector-curvature="0"
           id="path837"
           style="font-style:normal;font-variant:normal;font-weight:normal;font-stretch:normal;font-size:28.18558502px;line-height:1.25;font-family:'Painter PERSONAL USE ONLY';-inkscape-font-specification:'Painter PERSONAL USE ONLY, Normal';font-variant-ligatures:normal;font-variant-caps:normal;font-variant-numeric:normal;font-feature-settings:normal;text-align:start;letter-spacing:0px;word-spacing:0px;writing-mode:lr-tb;text-anchor:start;fill:#ffffff;fill-opacity:1;stroke:none;stroke-width:0.87340558"
           d="m 132.80723,134.22625 q 0.90833,-0.20962 1.11795,0.55898 -1.32758,2.55035 -3.21413,4.96094 -0.90834,1.11796 -2.06124,2.16605 -1.11796,1.04809 -2.48048,1.642 -1.15289,0.48911 -2.37565,0.31442 -1.22277,-0.13974 -2.13112,-1.04809 -0.59391,-0.55898 -0.94328,-1.2577 -0.34935,-0.73365 -0.52404,-1.50226 -0.17468,-0.76859 -0.20961,-1.57212 0,-0.80354 0.0699,-1.60707 0,-0.17468 0.0699,-0.62886 0.0699,-0.48909 0.13974,-0.9782 0.0699,-0.48911 0.13974,-0.87341 0.0699,-0.41924 0.10486,-0.45417 1.11796,-0.27949 2.23593,-0.7686 1.11796,-0.48911 1.88655,-1.01315 0.45417,-0.31443 1.08302,-0.87341 0.62885,-0.59391 1.1529,-1.29264 0.55898,-0.73365 0.87341,-1.53719 0.31442,-0.80353 0.13974,-1.57213 -0.45417,0.0699 -1.04809,0.3843 -0.59391,0.31443 -1.22276,0.73366 -0.59392,0.3843 -1.1529,0.87341 -0.55898,0.45417 -0.97822,0.83846 -0.97821,0.94328 -1.85162,1.95643 -0.8734,1.01315 -1.67694,2.09618 -1.81668,2.34072 -3.31894,4.96094 -0.10486,0.17468 -0.41924,0.76859 -0.27948,0.59393 -0.66378,1.32759 -0.34936,0.69872 -0.73366,1.39744 -0.34937,0.69873 -0.55898,1.08302 -0.80354,-0.035 -1.50226,-0.66378 -0.69872,-0.62885 -0.76859,-1.46733 -0.035,-0.17468 0.0349,-0.55898 0.0699,-0.38429 0.20963,-0.83846 0.10486,-0.48911 0.27948,-0.97822 0.17469,-0.52404 0.3843,-0.97821 0.80353,-1.88656 1.71188,-3.6683 0.90834,-1.81669 1.92148,-3.59844 l 2.48048,-4.33209 2.09618,-3.5635 q 0.24454,-0.38429 0.62885,-1.15289 0.41923,-0.7686 0.83847,-1.57212 0.45416,-0.90835 1.01314,-1.9215 0.48911,0.0699 0.94328,0.24455 0.3843,0.17469 0.80354,0.45417 0.41924,0.2795 0.69872,0.73367 0.17468,0.34935 0.17468,1.01314 0.035,0.62886 -0.41924,1.5372 -0.41922,0.87341 -0.94327,1.71187 -0.52404,0.80354 -1.01315,1.642 -0.69872,1.15291 -1.642,2.55035 -0.90835,1.39745 -1.60707,2.55035 0.97822,-1.01315 2.23592,-2.13111 1.29265,-1.11796 2.51541,-1.81668 0.10486,-0.0699 0.38429,-0.20963 0.31443,-0.13974 0.69873,-0.24455 0.38431,-0.13975 0.7686,-0.20962 0.41923,-0.10486 0.69872,-0.0699 0.59391,-0.3843 1.29265,-0.31443 0.73365,0.0699 1.2577,0.55898 0.69872,0.59391 0.87341,1.53719 0.20961,0.90834 0.035,1.81668 -0.20961,0.94328 -0.76859,1.81668 -0.52405,0.87341 -1.2577,1.64202 -0.73367,0.73365 -1.60707,1.32757 -0.87341,0.55898 -1.74682,0.94328 -0.48911,0.17468 -0.9782,0.34936 -0.48911,0.13975 -1.01316,0.24455 -0.0699,0.31443 -0.035,1.11796 0.035,0.80353 0.17469,1.67694 0.13974,0.8734 0.38429,1.60707 0.27949,0.73366 0.69873,0.94328 0.4891,0.24455 1.04808,0.13974 0.59391,-0.13974 1.1529,-0.45417 0.55898,-0.31443 1.04808,-0.69872 0.48911,-0.41924 0.83847,-0.80354 1.08303,-1.1529 1.9215,-2.37566 0.8734,-1.2577 1.60707,-2.62022 z" />
        <path
           inkscape:connector-curvature="0"
           id="path839"
           style="font-style:normal;font-variant:normal;font-weight:normal;font-stretch:normal;font-size:28.18558502px;line-height:1.25;font-family:'Painter PERSONAL USE ONLY';-inkscape-font-specification:'Painter PERSONAL USE ONLY, Normal';font-variant-ligatures:normal;font-variant-caps:normal;font-variant-numeric:normal;font-feature-settings:normal;text-align:start;letter-spacing:0px;word-spacing:0px;writing-mode:lr-tb;text-anchor:start;fill:#ffffff;fill-opacity:1;stroke:none;stroke-width:0.87340558"
           d="m 150.04934,127.79798 q -0.3843,0.52405 -0.94328,1.36251 -0.52404,0.83847 -1.11796,1.81669 -0.59391,0.97822 -1.18783,2.02629 -0.55898,1.04809 -1.01315,1.99137 -0.94328,1.95644 -1.46732,3.28401 -0.52405,1.32758 -0.27949,1.71187 0.10486,0.17469 0.34937,0.17469 0.27948,-0.035 0.5939,-0.13975 0.31443,-0.10486 0.55899,-0.24455 0.27949,-0.17468 0.38429,-0.24455 0.76861,-0.48911 1.36252,-1.11797 0.59392,-0.66379 1.11796,-1.36251 0.48911,-0.66378 0.94328,-1.39745 0.45416,-0.73366 0.83847,-1.43238 0.41923,-0.10486 0.69872,0 0.31443,0.10486 0.41923,0.55898 -0.4891,0.90833 -0.94328,1.78174 -0.45416,0.87341 -1.04807,1.71188 -0.55898,0.83847 -1.18784,1.60707 -0.59392,0.7686 -1.29264,1.46732 -0.66379,0.66379 -1.46733,1.18783 -0.76859,0.48911 -1.7468,0.45417 -0.97822,0 -1.74681,-0.55898 -0.76861,-0.55898 -1.11796,-1.46732 -0.17469,-0.41924 -0.24456,-0.94328 -0.55898,0.80354 -1.18783,1.46732 -0.62885,0.66379 -1.43238,1.11796 -1.11797,0.62885 -2.34073,0.52404 -1.22277,-0.10474 -2.13112,-0.94328 -0.87339,-0.80352 -1.18783,-1.88655 -0.31443,-1.11796 -0.31443,-2.23592 0.035,-1.39745 0.45418,-2.75996 0.41923,-1.36251 1.08302,-2.62022 0.69873,-1.2577 1.57213,-2.34072 0.90835,-1.11796 1.9215,-2.0263 0.97822,-0.90835 2.20098,-1.46733 1.2577,-0.55898 2.58528,-0.48911 1.29264,0.0699 2.27086,0.80354 0.9782,0.69872 1.43238,1.88655 0.41923,-0.4891 0.94328,-0.8734 0.55898,-0.41923 1.15289,-0.62886 0.62885,-0.24455 1.32758,-0.20961 0.73366,0.0349 1.18783,0.45417 z m -11.03984,9.57252 q 1.57212,-1.11796 2.82983,-2.86477 1.2577,-1.7468 1.642,-3.70324 0.17468,-0.73365 -0.035,-1.43238 -0.20962,-0.73365 -1.08303,-0.87341 -0.69872,-0.10486 -1.29263,0.2795 -0.59392,0.38429 -1.08303,0.83846 -1.50226,1.46733 -2.44554,3.35388 -0.90833,1.88656 -1.39744,3.91286 -0.45417,2.0263 0.17468,2.69008 0.66378,0.62887 1.78174,0.035 0.73367,-0.3843 1.36252,-0.94328 0.66379,-0.55898 1.2577,-1.15289 -0.48911,0.10486 -1.01315,0.13974 -0.48911,0 -0.69872,-0.27949 z" />
        <path
           inkscape:connector-curvature="0"
           id="path841"
           style="font-style:normal;font-variant:normal;font-weight:normal;font-stretch:normal;font-size:28.18558502px;line-height:1.25;font-family:'Painter PERSONAL USE ONLY';-inkscape-font-specification:'Painter PERSONAL USE ONLY, Normal';font-variant-ligatures:normal;font-variant-caps:normal;font-variant-numeric:normal;font-feature-settings:normal;text-align:start;letter-spacing:0px;word-spacing:0px;writing-mode:lr-tb;text-anchor:start;fill:#ffffff;fill-opacity:1;stroke:none;stroke-width:0.87340558"
           d="m 176.91694,134.22625 q 0.41924,-0.10486 0.73366,-0.035 0.31443,0.0699 0.3843,0.59393 -0.97822,1.85162 -2.20098,3.49362 -1.22277,1.642 -2.72503,2.96957 -0.66379,0.59393 -1.5372,1.11796 -0.83846,0.48911 -1.74681,0.69873 -0.8734,0.20962 -1.7468,0 -0.87341,-0.24456 -1.5372,-1.15289 -0.59392,-0.73367 -0.69872,-1.642 -0.10487,-0.94328 0.0349,-1.9215 0.17468,-0.97822 0.48911,-1.88655 0.34937,-0.94328 0.69872,-1.74682 0.59392,-1.43238 1.36252,-2.72503 0.80353,-1.32757 1.50225,-2.72502 -1.01314,0.80354 -2.16603,1.88656 -1.11796,1.08302 -1.95644,2.06124 -1.04809,1.22276 -1.99137,2.48046 -0.94328,1.22277 -1.85161,2.55035 -0.80354,1.1529 -1.36252,2.06124 -0.55898,0.90834 -0.97822,1.5372 -0.41922,0.62885 -0.73365,0.94327 -0.27949,0.31443 -0.55898,0.31443 -0.34936,-0.035 -0.80353,-0.17469 -0.45417,-0.17468 -0.87341,-0.38429 -0.3843,-0.24456 -0.66379,-0.59392 -0.24456,-0.34936 -0.17467,-0.83847 0.0349,-0.13974 0.13974,-0.45417 0.13974,-0.34936 0.27948,-0.73366 0.17469,-0.3843 0.31443,-0.73366 0.17468,-0.3843 0.24455,-0.59391 0.94328,-2.09618 1.99137,-4.26222 1.08302,-2.16605 2.34072,-4.61159 -1.43237,1.32758 -2.79489,2.82983 -1.32757,1.46733 -2.55034,3.00452 -0.80354,0.97822 -1.57213,1.95644 -0.73367,0.9782 -1.46733,1.99135 -0.13974,0.17468 -0.45417,0.62885 -0.31443,0.45418 -0.69872,0.94328 -0.34937,0.48911 -0.69872,0.94329 -0.34937,0.45417 -0.55898,0.62885 -0.31443,0.24456 -0.80354,0.13974 -0.52404,-0.13974 -1.01315,-0.48911 -0.48911,-0.34936 -0.80353,-0.80353 -0.34937,-0.45417 -0.2795,-0.87341 0.13975,-0.83846 0.66379,-2.09617 0.52404,-1.29264 1.22278,-2.69008 0.69872,-1.43239 1.50225,-2.86478 0.83847,-1.43238 1.60706,-2.65516 l 2.13111,-3.49361 q 0.31443,-0.55898 0.97822,-0.76861 0.66379,-0.24455 1.46733,0.34937 0.80352,0.62885 1.01315,1.01315 0.20961,0.3843 -0.13976,1.01315 -0.38429,0.69872 -0.94327,1.57213 -0.52404,0.83847 -1.08302,1.71188 -0.52404,0.83846 -1.01315,1.642 -0.48911,0.80353 -0.80354,1.36251 0.48911,-0.59392 1.29265,-1.50225 0.80353,-0.94328 1.67694,-1.88656 0.87339,-0.97822 1.71187,-1.85162 0.83846,-0.87341 1.43239,-1.36252 0.20961,-0.20961 0.52403,-0.45417 0.34937,-0.27948 0.73367,-0.52403 0.3843,-0.24456 0.80353,-0.41924 0.45417,-0.17469 0.94328,-0.13974 0.45417,0.0349 0.94328,0.27948 0.52404,0.20962 0.94328,0.55898 0.41923,0.31443 0.66379,0.66379 0.27948,0.34936 0.24454,0.59391 -0.0699,0.3843 -0.34935,0.87341 -0.2795,0.45417 -0.45417,0.83848 l -0.83848,1.71187 q 2.13111,-2.62022 4.78627,-4.43691 1.36252,-0.94327 2.23591,-1.08301 0.87341,-0.13976 1.74681,0.27948 0.90835,0.41924 1.43239,0.94328 0.52405,0.52405 0.45418,0.7686 -0.0699,0.34936 -0.24456,0.69872 -0.17468,0.34936 -0.34936,0.66379 l -1.50226,2.82984 q -0.73367,1.43237 -1.50226,2.86476 -0.73366,1.39746 -1.2577,2.93464 -0.3843,1.08304 0.20961,1.46733 0.62885,0.34936 2.09618,-0.45418 1.43239,-0.80352 2.48047,-2.16604 1.08303,-1.39744 2.0263,-3.1792 z" />
        <path
           inkscape:connector-curvature="0"
           id="path843"
           style="font-style:normal;font-variant:normal;font-weight:normal;font-stretch:normal;font-size:28.18558502px;line-height:1.25;font-family:'Painter PERSONAL USE ONLY';-inkscape-font-specification:'Painter PERSONAL USE ONLY, Normal';font-variant-ligatures:normal;font-variant-caps:normal;font-variant-numeric:normal;font-feature-settings:normal;text-align:start;letter-spacing:0px;word-spacing:0px;writing-mode:lr-tb;text-anchor:start;fill:#ffffff;fill-opacity:1;stroke:none;stroke-width:0.87340558"
           d="m 185.3584,127.06433 q -0.41924,0.48909 -0.9782,1.3625 -0.55898,0.87341 -1.08304,1.81668 -0.52403,0.94328 -1.01314,1.81669 -0.45417,0.8734 -0.69873,1.43238 -0.48911,1.08303 -0.94327,2.16605 -0.45417,1.08302 -0.80354,2.20098 -0.27949,1.04809 -0.27949,1.74682 0.035,0.66379 0.41923,0.8734 0.3843,0.20962 1.11796,-0.10486 0.73367,-0.34935 1.88656,-1.3625 1.11796,-1.01316 2.09618,-2.23592 0.97821,-1.22278 1.67694,-2.55035 0.94328,-0.45417 1.11795,0.55898 -0.80352,1.46731 -1.81668,2.93464 -1.01315,1.43239 -2.23591,2.65515 -1.88657,1.99137 -3.42376,2.65516 -1.50226,0.62885 -2.62022,0.13974 -1.18783,-0.48911 -1.57212,-1.57213 -0.41924,-1.11796 -0.3843,-2.27085 0.0699,-2.16605 0.76859,-4.26223 0.69872,-2.13111 1.74681,-3.98272 0.62886,-1.11796 1.36252,-2.27086 0.76859,-1.15289 1.74681,-1.95643 0.34936,-0.27948 0.87341,-0.41924 0.52404,-0.17467 1.08302,-0.13974 0.59391,0 1.11796,0.17469 0.52404,0.17468 0.83846,0.59392 z m -0.0349,-3.28401 q -0.76861,-0.24456 -1.32759,-0.90834 -0.55898,-0.69873 -0.38429,-1.67694 0.13974,-0.83848 0.45418,-1.60707 0.34935,-0.7686 1.22276,-0.94328 0.48911,-0.0699 0.94327,0 0.48911,0.0699 0.94328,0.24456 1.04809,0.34935 1.32757,0.94327 0.31443,0.59391 0.34937,0.87341 0.0699,0.69872 -0.13974,1.36251 -0.17468,0.66379 -0.66379,1.15289 -0.55898,0.52404 -1.29263,0.6638 -0.73367,0.10474 -1.43239,-0.10486 z" />
        <path
           inkscape:connector-curvature="0"
           id="path845"
           style="font-style:normal;font-variant:normal;font-weight:normal;font-stretch:normal;font-size:28.18558502px;line-height:1.25;font-family:'Painter PERSONAL USE ONLY';-inkscape-font-specification:'Painter PERSONAL USE ONLY, Normal';font-variant-ligatures:normal;font-variant-caps:normal;font-variant-numeric:normal;font-feature-settings:normal;text-align:start;letter-spacing:0px;word-spacing:0px;writing-mode:lr-tb;text-anchor:start;fill:#ffffff;fill-opacity:1;stroke:none;stroke-width:0.87340558"
           d="m 191.86528,136.008 q -0.3843,0.035 -0.80353,0.035 -0.3843,-0.035 -0.7686,-0.10487 -0.62885,1.95644 -0.38431,3.21414 0.2795,1.25771 1.18783,1.74682 0.94329,0.48911 2.41061,0.17467 1.46732,-0.31443 3.28401,-1.46732 1.46732,-1.01315 2.62021,-2.44553 1.18783,-1.46733 1.99136,-2.93465 0.3843,-0.13974 0.69873,-0.10486 0.34936,0 0.41924,0.66379 -0.80354,1.5372 -2.13111,3.14426 -1.29265,1.60707 -2.86478,2.96959 -2.5154,2.09616 -4.96094,2.79489 -2.44553,0.69873 -4.19234,-0.41923 -1.32758,-0.90835 -2.0263,-2.34073 -0.73366,-1.46732 -0.66379,-3.03945 0.035,-1.46733 0.55898,-2.93464 0.48911,-1.50226 1.32757,-2.86478 0.83847,-1.36251 1.95643,-2.48047 1.11796,-1.15289 2.4106,-1.85162 1.29265,-0.69872 2.96958,-1.08303 1.71188,-0.38429 3.17919,0 0.73367,0.17469 1.22278,0.62885 0.48911,0.41924 0.69872,1.01317 0.24455,0.55898 0.20961,1.22276 -0.035,0.66379 -0.27948,1.32757 -0.59392,1.57214 -1.9215,2.65516 -1.29264,1.08302 -2.7949,1.67694 -1.67693,0.69872 -3.35387,0.80354 z m 3.00452,-6.70776 q -1.29265,1.11796 -2.37567,2.55034 -1.04809,1.43239 -1.78175,3.00452 0.52405,-0.13974 1.18783,-0.3843 1.04809,-0.38429 2.02631,-0.90835 0.97821,-0.55898 1.78174,-1.32757 0.69872,-0.62885 1.29264,-1.46732 0.59391,-0.83847 0.52404,-1.85162 0,-0.55898 -0.34935,-0.62885 -0.34937,-0.0699 -0.80354,0.10486 -0.45416,0.17468 -0.8734,0.45417 -0.41924,0.27948 -0.62885,0.45417 z" />
        <path
           inkscape:connector-curvature="0"
           id="path847"
           style="font-style:normal;font-variant:normal;font-weight:normal;font-stretch:normal;font-size:28.18558502px;line-height:1.25;font-family:'Painter PERSONAL USE ONLY';-inkscape-font-specification:'Painter PERSONAL USE ONLY, Normal';font-variant-ligatures:normal;font-variant-caps:normal;font-variant-numeric:normal;font-feature-settings:normal;text-align:start;letter-spacing:0px;word-spacing:0px;writing-mode:lr-tb;text-anchor:start;fill:#ffffff;fill-opacity:1;stroke:none;stroke-width:0.87340558"
           d="m 219.1128,134.22625 q 1.08302,-0.45417 1.11796,0.55898 -1.04809,1.99136 -2.27086,3.77311 -1.22276,1.74681 -2.75996,3.21414 -0.66378,0.62885 -1.53719,1.18783 -0.8734,0.52404 -1.78175,0.73365 -0.90834,0.24456 -1.81668,0.035 -0.90834,-0.17468 -1.642,-1.04809 -0.62885,-0.69872 -0.7686,-1.60707 -0.13975,-0.90833 0,-1.88655 0.17467,-0.97821 0.4891,-1.92148 0.34937,-0.94328 0.66379,-1.74682 0.69873,-1.57212 1.60707,-3.00451 0.94328,-1.46733 1.71187,-3.03946 -1.01314,0.80354 -2.20098,1.88656 -1.1529,1.08303 -1.95642,2.06123 -1.04809,1.25771 -1.99137,2.58529 -0.94328,1.29264 -1.85162,2.65515 -0.45417,0.69872 -0.87341,1.39745 -0.41924,0.66379 -0.80353,1.36251 -0.20962,0.31443 -0.52404,0.80354 -0.31443,0.45416 -0.87341,0.41924 -0.41924,0 -0.83846,-0.24456 -0.41924,-0.24455 -0.73367,-0.59392 -0.34937,-0.34936 -0.52405,-0.73367 -0.20961,-0.41922 -0.13974,-0.73365 0.55898,-2.55034 1.92149,-4.89107 1.32758,-2.37566 2.72504,-4.57665 0.59391,-0.90834 1.11794,-1.88656 0.55898,-0.9782 1.22278,-1.88655 0.31442,-0.45417 0.80353,-0.62885 0.52404,-0.17469 1.43239,0.34936 0.41923,0.24456 0.62885,0.4891 0.24456,0.20963 0.24456,0.55898 0,0.31443 -0.2795,0.80354 -0.24456,0.48911 -0.76859,1.22277 -0.48911,0.66378 -1.04809,1.60706 -0.52404,0.94329 -0.90834,1.71188 0.55898,-0.62885 1.32757,-1.50226 0.80354,-0.8734 1.67695,-1.74681 0.8734,-0.8734 1.74681,-1.60707 0.90833,-0.73366 1.67693,-1.11796 0.94327,-0.4891 2.20099,-0.34935 1.29263,0.13974 2.30578,1.11796 0.2795,0.27948 0.24455,0.48909 -0.035,0.17469 -0.20961,0.52405 -0.31442,0.73367 -0.73366,1.46732 -0.41923,0.76861 -0.87341,1.5372 -0.45417,0.73366 -0.8734,1.53719 -0.59391,1.08303 -1.29264,2.30579 -0.66379,1.18783 -1.1529,2.37566 -0.52404,1.43239 -0.31443,2.09618 0.24456,0.66378 0.90835,0.66378 0.69872,-0.035 1.71187,-0.69872 1.01315,-0.66378 2.06124,-1.92149 0.73367,-0.90834 1.43239,-1.92149 0.69872,-1.01315 1.36251,-2.23592 z" />
        <path
           inkscape:connector-curvature="0"
           id="path849"
           style="font-style:normal;font-variant:normal;font-weight:normal;font-stretch:normal;font-size:28.18558502px;line-height:1.25;font-family:'Painter PERSONAL USE ONLY';-inkscape-font-specification:'Painter PERSONAL USE ONLY, Normal';font-variant-ligatures:normal;font-variant-caps:normal;font-variant-numeric:normal;font-feature-settings:normal;text-align:start;letter-spacing:0px;word-spacing:0px;writing-mode:lr-tb;text-anchor:start;fill:#ffffff;fill-opacity:1;stroke:none;stroke-width:0.87340558"
           d="m 227.52752,127.06433 q -0.41924,0.48909 -0.97822,1.3625 -0.55898,0.87341 -1.08302,1.81668 -0.52404,0.94328 -1.01315,1.81669 -0.45417,0.8734 -0.69872,1.43238 -0.48911,1.08303 -0.94328,2.16605 -0.45418,1.08302 -0.80353,2.20098 -0.2795,1.04809 -0.2795,1.74682 0.0349,0.66379 0.41924,0.8734 0.3843,0.20962 1.11796,-0.10486 0.73366,-0.34935 1.88655,-1.3625 1.11797,-1.01316 2.09617,-2.23592 0.97822,-1.22278 1.67694,-2.55035 0.94328,-0.45417 1.11796,0.55898 -0.80353,1.46731 -1.81668,2.93464 -1.01315,1.43239 -2.23592,2.65515 -1.88656,1.99137 -3.42374,2.65516 -1.50226,0.62885 -2.62022,0.13974 -1.18783,-0.48911 -1.57213,-1.57213 -0.41924,-1.11796 -0.38431,-2.27085 0.0699,-2.16605 0.76861,-4.26223 0.69872,-2.13111 1.74681,-3.98272 0.62885,-1.11796 1.3625,-2.27086 0.76861,-1.15289 1.74682,-1.95643 0.34936,-0.27948 0.8734,-0.41924 0.52405,-0.17467 1.08303,-0.13974 0.59391,0 1.11796,0.17469 0.52404,0.17468 0.83847,0.59392 z m -0.035,-3.28401 q -0.76859,-0.24456 -1.32757,-0.90834 -0.55898,-0.69873 -0.3843,-1.67694 0.13975,-0.83848 0.45417,-1.60707 0.34937,-0.7686 1.22277,-0.94328 0.48911,-0.0699 0.94328,0 0.48911,0.0699 0.94328,0.24456 1.04809,0.34935 1.32757,0.94327 0.31443,0.59391 0.34937,0.87341 0.0699,0.69872 -0.13974,1.36251 -0.17469,0.66379 -0.66379,1.15289 -0.55899,0.52404 -1.29265,0.6638 -0.73365,0.10474 -1.43239,-0.10486 z" />
        <path
           inkscape:connector-curvature="0"
           id="path851"
           style="font-style:normal;font-variant:normal;font-weight:normal;font-stretch:normal;font-size:28.18558502px;line-height:1.25;font-family:'Painter PERSONAL USE ONLY';-inkscape-font-specification:'Painter PERSONAL USE ONLY, Normal';font-variant-ligatures:normal;font-variant-caps:normal;font-variant-numeric:normal;font-feature-settings:normal;text-align:start;letter-spacing:0px;word-spacing:0px;writing-mode:lr-tb;text-anchor:start;fill:#ffffff;fill-opacity:1;stroke:none;stroke-width:0.87340558"
           d="m 236.13056,133.80701 q 0.52405,-0.55898 1.01316,-1.32757 0.4891,-0.80354 0.80353,-1.57213 0.34936,-0.80354 0.48911,-1.46732 0.17468,-0.69873 0.0349,-1.04809 l -0.0699,-0.13974 q -0.48911,0.31442 -0.94327,0.66378 -0.45419,0.31443 -0.83848,0.69872 -1.2577,1.1529 -2.16604,2.55035 -0.69873,0.97822 -1.29264,2.16605 -0.55899,1.18783 -0.83847,2.41059 -0.41924,1.5372 -0.0699,2.44554 0.34937,0.8734 1.15291,1.18783 0.80353,0.31443 1.92149,0.10486 1.11795,-0.24455 2.30578,-0.94328 1.50226,-0.8734 2.75997,-2.20098 1.29264,-1.32757 2.23591,-3.10932 0.41924,-0.17469 0.69873,-0.10487 0.31443,0.0699 0.41923,0.6638 -1.04809,1.99136 -2.44553,3.56349 -1.36252,1.57213 -3.14426,2.86478 -2.06124,1.46731 -4.08754,1.81668 -1.99136,0.34935 -3.45869,-0.34937 -1.46731,-0.73366 -2.09616,-2.5154 -0.6638,-1.81669 0,-4.64652 0.45416,-1.85162 1.43238,-3.52856 0.97821,-1.71187 2.34072,-3.03945 0.7686,-0.73366 1.67695,-1.2577 0.90833,-0.55898 1.92149,-0.80354 0.45417,-0.10486 0.8734,-0.13974 0.45418,-0.0349 0.94329,0.035 0.17467,-0.10487 0.34935,-0.13975 0.20963,-0.0699 0.41924,-0.13974 1.01315,-0.17468 1.81668,0.20961 0.80354,0.34937 1.18783,1.08302 0.31443,0.62885 0.27949,1.50226 -0.035,0.83848 -0.34936,1.71188 -0.27949,0.87341 -0.80353,1.60706 -0.52404,0.73367 -1.18783,1.08303 -0.6638,0.3843 -1.57213,0.41923 -0.90835,0 -1.71189,-0.31443 z" />
        <path
           inkscape:connector-curvature="0"
           id="path853"
           style="font-style:normal;font-variant:normal;font-weight:normal;font-stretch:normal;font-size:28.18558502px;line-height:1.25;font-family:'Painter PERSONAL USE ONLY';-inkscape-font-specification:'Painter PERSONAL USE ONLY, Normal';font-variant-ligatures:normal;font-variant-caps:normal;font-variant-numeric:normal;font-feature-settings:normal;text-align:start;letter-spacing:0px;word-spacing:0px;writing-mode:lr-tb;text-anchor:start;fill:#ffffff;fill-opacity:1;stroke:none;stroke-width:0.87340558"
           d="m 259.90739,127.79798 q -0.38429,0.52405 -0.94327,1.36251 -0.52404,0.83847 -1.11797,1.81669 -0.59391,0.97822 -1.18783,2.02629 -0.55898,1.04809 -1.01315,1.99137 -0.94327,1.95644 -1.46731,3.28401 -0.52405,1.32758 -0.2795,1.71187 0.10486,0.17469 0.34937,0.17469 0.27948,-0.035 0.59391,-0.13975 0.31442,-0.10486 0.55898,-0.24455 0.2795,-0.17468 0.3843,-0.24455 0.7686,-0.48911 1.36251,-1.11797 0.59392,-0.66379 1.11796,-1.36251 0.48911,-0.66378 0.94328,-1.39745 0.45417,-0.73366 0.83848,-1.43238 0.41922,-0.10486 0.69872,0 0.31442,0.10486 0.41923,0.55898 -0.4891,0.90833 -0.94328,1.78174 -0.45417,0.87341 -1.04808,1.71188 -0.55898,0.83847 -1.18783,1.60707 -0.59392,0.7686 -1.29265,1.46732 -0.66379,0.66379 -1.46731,1.18783 -0.76861,0.48911 -1.74681,0.45417 -0.97822,0 -1.74682,-0.55898 -0.7686,-0.55898 -1.11796,-1.46732 -0.17468,-0.41924 -0.24455,-0.94328 -0.55898,0.80354 -1.18783,1.46732 -0.62886,0.66379 -1.43239,1.11796 -1.11796,0.62885 -2.34072,0.52404 -1.22278,-0.10474 -2.13111,-0.94328 -0.87341,-0.80352 -1.18783,-1.88655 -0.31444,-1.11796 -0.31444,-2.23592 0.035,-1.39745 0.45418,-2.75996 0.41922,-1.36251 1.08302,-2.62022 0.69872,-1.2577 1.57213,-2.34072 0.90834,-1.11796 1.92149,-2.0263 0.97822,-0.90835 2.20098,-1.46733 1.25771,-0.55898 2.58528,-0.48911 1.29264,0.0699 2.27086,0.80354 0.97821,0.69872 1.43239,1.88655 0.41923,-0.4891 0.94328,-0.8734 0.55898,-0.41923 1.15289,-0.62886 0.62885,-0.24455 1.32757,-0.20961 0.73366,0.0349 1.18783,0.45417 z m -11.03984,9.57252 q 1.57213,-1.11796 2.82983,-2.86477 1.2577,-1.7468 1.642,-3.70324 0.17469,-0.73365 -0.035,-1.43238 -0.20963,-0.73365 -1.08303,-0.87341 -0.69873,-0.10486 -1.29264,0.2795 -0.59392,0.38429 -1.08302,0.83846 -1.50227,1.46733 -2.44554,3.35388 -0.90834,1.88656 -1.39745,3.91286 -0.45417,2.0263 0.17469,2.69008 0.66378,0.62887 1.78174,0.035 0.73366,-0.3843 1.36251,-0.94328 0.6638,-0.55898 1.25771,-1.15289 -0.48911,0.10486 -1.01315,0.13974 -0.48911,0 -0.69872,-0.27949 z" />
      </g>
      <g
         transform="matrix(1.0105235,0,0,1.0105235,-166.11303,30.638855)"
         id="g911"
         style="fill:#ffffff">
        <path
           inkscape:connector-curvature="0"
           id="path855"
           style="font-style:normal;font-variant:normal;font-weight:normal;font-stretch:normal;font-size:28.18558502px;line-height:1.25;font-family:'Painter PERSONAL USE ONLY';-inkscape-font-specification:'Painter PERSONAL USE ONLY, Normal';font-variant-ligatures:normal;font-variant-caps:normal;font-variant-numeric:normal;font-feature-settings:normal;text-align:start;letter-spacing:0px;word-spacing:0px;writing-mode:lr-tb;text-anchor:start;fill:#ffffff;fill-opacity:1;stroke:none;stroke-width:0.87340558"
           d="m 289.4629,134.22625 q 1.08302,-0.45417 1.11796,0.55898 -1.04809,1.99136 -2.27085,3.77311 -1.22277,1.74681 -2.75996,3.21414 -0.66379,0.62885 -1.5372,1.18783 -0.8734,0.52404 -1.78175,0.73365 -0.90834,0.24456 -1.81669,0.035 -0.90833,-0.17468 -1.642,-1.04809 -0.62885,-0.69872 -0.76859,-1.60707 -0.13974,-0.90833 0,-1.88655 0.17468,-0.97821 0.48911,-1.92148 0.34936,-0.94328 0.66378,-1.74682 0.69872,-1.57212 1.60707,-3.00451 0.94328,-1.46733 1.71187,-3.03946 -1.01315,0.80354 -2.20098,1.88656 -1.15289,1.08303 -1.95642,2.06123 -1.04809,1.25771 -1.99137,2.58529 -0.94328,1.29264 -1.85163,2.65515 -0.45416,0.69872 -0.8734,1.39745 -0.41923,0.66379 -0.80352,1.36251 -0.20963,0.31443 -0.52406,0.80354 -0.31442,0.45416 -0.8734,0.41924 -0.41923,0 -0.83847,-0.24456 -0.41923,-0.24455 -0.73366,-0.59392 -0.34935,-0.34936 -0.52404,-0.73367 -0.20962,-0.41922 -0.13974,-0.73365 0.55898,-2.55034 1.92148,-4.89107 1.32759,-2.37566 2.72503,-4.57665 0.59391,-0.90834 1.11797,-1.88656 0.55898,-0.9782 1.22276,-1.88655 0.31442,-0.45417 0.80353,-0.62885 0.52404,-0.17469 1.43239,0.34936 0.41924,0.24456 0.62885,0.4891 0.24455,0.20963 0.24455,0.55898 0,0.31443 -0.27948,0.80354 -0.24455,0.48911 -0.76861,1.22277 -0.48911,0.66378 -1.04809,1.60706 -0.52403,0.94329 -0.90833,1.71188 0.55898,-0.62885 1.32757,-1.50226 0.80354,-0.8734 1.67694,-1.74681 0.87341,-0.8734 1.74682,-1.60707 0.90833,-0.73366 1.67694,-1.11796 0.94327,-0.4891 2.20098,-0.34935 1.29264,0.13974 2.30579,1.11796 0.27948,0.27948 0.24456,0.48909 -0.035,0.17469 -0.20963,0.52405 -0.31443,0.73367 -0.73365,1.46732 -0.41924,0.76861 -0.87341,1.5372 -0.45418,0.73366 -0.8734,1.53719 -0.59393,1.08303 -1.29265,2.30579 -0.66379,1.18783 -1.15289,2.37566 -0.52405,1.43239 -0.31442,2.09618 0.24454,0.66378 0.90833,0.66378 0.69872,-0.035 1.71187,-0.69872 1.01316,-0.66378 2.06124,-1.92149 0.73366,-0.90834 1.43239,-1.92149 0.69872,-1.01315 1.36251,-2.23592 z" />
        <path
           inkscape:connector-curvature="0"
           id="path857"
           style="font-style:normal;font-variant:normal;font-weight:normal;font-stretch:normal;font-size:28.18558502px;line-height:1.25;font-family:'Painter PERSONAL USE ONLY';-inkscape-font-specification:'Painter PERSONAL USE ONLY, Normal';font-variant-ligatures:normal;font-variant-caps:normal;font-variant-numeric:normal;font-feature-settings:normal;text-align:start;letter-spacing:0px;word-spacing:0px;writing-mode:lr-tb;text-anchor:start;fill:#ffffff;fill-opacity:1;stroke:none;stroke-width:0.87340558"
           d="m 306.71649,127.79798 q -0.38431,0.52405 -0.94329,1.36251 -0.52404,0.83847 -1.11795,1.81669 -0.59392,0.97822 -1.18783,2.02629 -0.55898,1.04809 -1.01316,1.99137 -0.94328,1.95644 -1.46732,3.28401 -0.52403,1.32758 -0.27948,1.71187 0.10486,0.17469 0.34936,0.17469 0.27949,-0.035 0.59392,-0.13975 0.31442,-0.10486 0.55898,-0.24455 0.27948,-0.17468 0.38429,-0.24455 0.7686,-0.48911 1.36251,-1.11797 0.59392,-0.66379 1.11796,-1.36251 0.48911,-0.66378 0.94328,-1.39745 0.45418,-0.73366 0.83847,-1.43238 0.41924,-0.10486 0.69872,0 0.31443,0.10486 0.41924,0.55898 -0.48911,0.90833 -0.94327,1.78174 -0.45418,0.87341 -1.04809,1.71188 -0.55898,0.83847 -1.18784,1.60707 -0.59392,0.7686 -1.29264,1.46732 -0.66378,0.66379 -1.46732,1.18783 -0.7686,0.48911 -1.74681,0.45417 -0.97822,0 -1.74681,-0.55898 -0.76859,-0.55898 -1.11796,-1.46732 -0.17469,-0.41924 -0.24456,-0.94328 -0.55898,0.80354 -1.18783,1.46732 -0.62885,0.66379 -1.43238,1.11796 -1.11797,0.62885 -2.34073,0.52404 -1.22277,-0.10474 -2.13111,-0.94328 -0.8734,-0.80352 -1.18783,-1.88655 -0.31442,-1.11796 -0.31442,-2.23592 0.0349,-1.39745 0.45416,-2.75996 0.41924,-1.36251 1.08302,-2.62022 0.69873,-1.2577 1.57213,-2.34072 0.90835,-1.11796 1.9215,-2.0263 0.97822,-0.90835 2.20098,-1.46733 1.2577,-0.55898 2.58529,-0.48911 1.29263,0.0699 2.27085,0.80354 0.97822,0.69872 1.43238,1.88655 0.41924,-0.4891 0.94328,-0.8734 0.55898,-0.41923 1.15289,-0.62886 0.62885,-0.24455 1.32759,-0.20961 0.73365,0.0349 1.18783,0.45417 z m -11.03985,9.57252 q 1.57212,-1.11796 2.82983,-2.86477 1.2577,-1.7468 1.64201,-3.70324 0.17467,-0.73365 -0.0349,-1.43238 -0.20962,-0.73365 -1.08302,-0.87341 -0.69873,-0.10486 -1.29265,0.2795 -0.59391,0.38429 -1.08302,0.83846 -1.50225,1.46733 -2.44553,3.35388 -0.90835,1.88656 -1.39746,3.91286 -0.45417,2.0263 0.17468,2.69008 0.6638,0.62887 1.78176,0.035 0.73365,-0.3843 1.3625,-0.94328 0.66379,-0.55898 1.2577,-1.15289 -0.48909,0.10486 -1.01314,0.13974 -0.48911,0 -0.69873,-0.27949 z" />
      </g>
      <g
         transform="matrix(1.0105235,0,0,1.0105235,-173.42445,29.874947)"
         id="g922"
         style="fill:#ffffff">
        <path
           inkscape:connector-curvature="0"
           id="path859"
           style="font-style:normal;font-variant:normal;font-weight:normal;font-stretch:normal;font-size:28.18558502px;line-height:1.25;font-family:'Painter PERSONAL USE ONLY';-inkscape-font-specification:'Painter PERSONAL USE ONLY, Normal';font-variant-ligatures:normal;font-variant-caps:normal;font-variant-numeric:normal;font-feature-settings:normal;text-align:start;letter-spacing:0px;word-spacing:0px;writing-mode:lr-tb;text-anchor:start;fill:#ffffff;fill-opacity:1;stroke:none;stroke-width:0.87340558"
           d="m 345.63489,120.7758 q 0.66379,0.90835 0.66379,1.88655 0,0.94328 -0.41924,1.85163 -0.41924,0.90833 -1.11796,1.71187 -0.69872,0.76859 -1.43239,1.29264 -1.46731,1.04809 -3.21412,1.71188 -1.71187,0.66379 -3.49363,0.8734 -1.39744,0.13974 -2.75996,-0.0699 -1.36251,-0.24455 -2.58528,-0.8734 -0.17468,0.24455 -0.34936,0.48911 -0.13974,0.24455 -0.31443,0.52404 -0.34937,0.59392 -0.80353,1.46732 -0.45417,0.83847 -0.83847,1.74682 -0.34937,0.90833 -0.55898,1.85161 -0.17468,0.90835 0.035,1.67694 0.24455,0.90835 1.04809,1.29264 0.83847,0.3843 1.71188,0.20962 0.94328,-0.17469 1.71187,-0.83847 0.76859,-0.66379 1.29264,-1.43238 0.52404,-1.04809 1.43238,-2.16605 0.90835,-1.11797 1.95644,-1.74682 0.31442,-0.20961 0.80353,-0.38429 0.52404,-0.20962 1.11795,-0.27949 0.62886,-0.0699 1.22277,0.035 0.62885,0.0699 1.15289,0.41923 -1.08302,1.25771 -1.88655,2.86478 -0.80354,1.57213 -1.642,3.14426 -1.22277,2.1311 -2.41061,4.26221 -1.18782,2.09618 -2.65514,4.05261 -0.62886,0.83846 -1.36252,1.67694 -0.73365,0.83846 -1.57213,1.50226 -0.83846,0.69872 -1.81668,1.18783 -0.94328,0.52404 -2.0263,0.66378 -0.94327,0.13974 -1.95644,0.035 -0.9782,-0.10486 -1.88655,-0.45416 -0.90834,-0.31443 -1.67694,-0.90835 -0.76859,-0.55898 -1.32757,-1.36252 -0.62886,-0.90833 -0.83847,-1.99136 -0.20962,-1.08302 -0.0349,-2.16604 0.17468,-1.08303 0.69872,-2.02631 0.55898,-0.97821 1.46733,-1.642 0.80353,-0.59391 1.81668,-0.80354 1.04809,-0.24455 1.99137,0.13976 0.31442,0.13974 0.34935,0.27948 0.035,0.10486 -0.0699,0.24456 -0.10486,0.10486 -0.31442,0.24455 -0.17469,0.10474 -0.31443,0.24456 -0.94327,0.94327 -1.39744,2.16603 -0.41924,1.25771 -0.41924,2.44554 0.0349,1.22277 0.48911,2.16605 0.45417,0.97822 1.2577,1.29264 0.97822,0.41923 1.85163,0.17469 0.90833,-0.24456 1.642,-0.83848 0.76859,-0.59391 1.36251,-1.43238 0.59391,-0.83847 0.97821,-1.60706 0.69873,-1.39746 1.22277,-2.82985 0.52404,-1.43238 1.11796,-2.8997 -0.38429,0.27948 -0.80353,0.55898 -0.41924,0.27949 -0.87341,0.45417 -1.01315,0.45417 -2.02629,0.45417 -1.01317,-0.035 -1.9215,-0.41923 -0.87341,-0.3843 -1.57213,-1.11796 -0.69872,-0.76859 -1.11796,-1.78175 -0.62885,-1.57213 -0.52405,-3.14426 0.10486,-1.60707 0.73366,-3.10933 0.62885,-1.53719 1.642,-2.93464 1.01316,-1.39745 2.16605,-2.58528 -0.69872,-1.22276 -0.83846,-2.62022 -0.10486,-1.43238 0.59391,-2.75996 0.13974,-0.24455 0.34937,-0.55898 0.24455,-0.34935 0.52403,-0.62885 0.2795,-0.31443 0.55899,-0.48911 0.31442,-0.20961 0.62885,-0.20961 0.24455,1.11796 0.52404,2.27085 0.27949,1.11796 0.90834,2.09618 1.50226,-1.11796 3.14426,-1.99137 1.64201,-0.90835 3.4587,-1.43239 0.8734,-0.24455 1.92148,-0.45416 1.04809,-0.24456 2.09618,-0.20963 1.04809,0 1.95642,0.34937 0.94328,0.31442 1.57213,1.18783 z m -6.60294,4.99588 q 0.62885,-0.10486 1.46731,-0.31442 0.83848,-0.24456 1.60707,-0.62885 0.7686,-0.41924 1.32758,-1.01315 0.59392,-0.59393 0.69872,-1.46733 0.0699,-0.83847 -0.3843,-1.18783 -0.41924,-0.3843 -1.08302,-0.45417 -0.66379,-0.10486 -1.43238,0.0699 -0.73367,0.13974 -1.25771,0.34936 -1.01314,0.3843 -1.88655,0.97821 -0.87341,0.59392 -1.67694,1.2577 -0.59392,0.48911 -1.18783,1.04809 -0.55898,0.52404 -1.08303,1.08302 1.1529,0.41924 2.44554,0.45418 1.29263,0 2.44554,-0.17468 z" />
        <path
           inkscape:connector-curvature="0"
           id="path861"
           style="font-style:normal;font-variant:normal;font-weight:normal;font-stretch:normal;font-size:28.18558502px;line-height:1.25;font-family:'Painter PERSONAL USE ONLY';-inkscape-font-specification:'Painter PERSONAL USE ONLY, Normal';font-variant-ligatures:normal;font-variant-caps:normal;font-variant-numeric:normal;font-feature-settings:normal;text-align:start;letter-spacing:0px;word-spacing:0px;writing-mode:lr-tb;text-anchor:start;fill:#ffffff;fill-opacity:1;stroke:none;stroke-width:0.87340558"
           d="m 352.668,127.65824 q 0.45417,-0.17469 1.11796,-0.0699 1.01315,0.20961 1.642,1.04809 0.62885,0.83846 0.8734,1.78174 0.34936,1.5372 0.035,3.1792 -0.31443,1.60707 -0.97821,3.07438 1.11796,0.45417 2.16604,-0.24455 1.08303,-0.69872 1.88656,-2.20098 1.01316,-0.45417 1.11796,0.55898 -1.11796,2.13111 -2.79489,3.31894 -1.64202,1.15289 -4.05261,1.32758 -0.55898,0.73366 -1.22277,1.46732 -0.62885,0.69873 -1.36251,1.25771 -0.73366,0.55898 -1.60707,0.94327 -0.83847,0.34936 -1.78175,0.41924 -1.15289,0.0699 -2.09617,-0.34937 -0.94327,-0.38429 -1.642,-1.11796 -0.69873,-0.76859 -1.11796,-1.74681 -0.41924,-0.97821 -0.52405,-2.06124 -0.10474,-1.22276 0.10486,-2.44553 0.20962,-1.2577 0.6638,-2.44554 0.48909,-1.18783 1.18783,-2.23592 0.69872,-1.04808 1.57213,-1.88655 0.8734,-0.80354 1.92148,-1.36252 1.08303,-0.55898 2.27086,-0.66378 0.59391,-0.0699 1.25771,0.035 0.69872,0.0699 1.2577,0.34936 z m -1.67694,7.75584 q 0.59391,-0.52404 1.2577,-0.83847 0.69872,-0.31442 1.2577,-0.035 0.24456,0.13974 0.41924,0.3843 0.27949,-0.94328 0.31443,-1.95643 0.0699,-1.01315 -0.17469,-2.02629 -0.17468,-0.59393 -0.52404,-0.94329 -0.31442,-0.3843 -0.80353,-0.73366 -0.62885,-0.0349 -1.18783,0.10487 -0.55898,0.13975 -1.08303,0.41924 -0.8734,0.45416 -1.642,1.36251 -0.7686,0.87341 -1.36252,1.99137 -0.55897,1.08302 -0.94328,2.27085 -0.34935,1.18783 -0.41922,2.27085 -0.035,1.04809 0.24455,1.88655 0.27949,0.80354 1.01315,1.15291 0.87341,0.45416 2.0263,0.0699 1.1529,-0.41923 2.20098,-1.64199 -0.4891,-0.17469 -0.90834,-0.45417 -0.3843,-0.31444 -0.59392,-0.76861 -0.27948,-0.59391 0,-1.2577 0.31442,-0.69872 0.90835,-1.2577 z m -0.55898,-10.72542 q 0.73366,-0.7686 1.53718,-1.85162 0.80354,-1.08302 1.64202,-2.0263 0.8734,-0.94329 1.74681,-1.50226 0.90833,-0.55898 1.78174,-0.34936 0.94328,0.24455 1.29264,1.18783 0.34936,0.94328 -0.10486,1.85162 -0.31442,0.66378 -1.11796,1.18784 -0.76859,0.48909 -1.43239,0.76859 -1.85161,0.80353 -3.17918,0.87341 -1.29265,0.0349 -2.16605,-0.13975 z" />
        <path
           inkscape:connector-curvature="0"
           id="path863"
           style="font-style:normal;font-variant:normal;font-weight:normal;font-stretch:normal;font-size:28.18558502px;line-height:1.25;font-family:'Painter PERSONAL USE ONLY';-inkscape-font-specification:'Painter PERSONAL USE ONLY, Normal';font-variant-ligatures:normal;font-variant-caps:normal;font-variant-numeric:normal;font-feature-settings:normal;text-align:start;letter-spacing:0px;word-spacing:0px;writing-mode:lr-tb;text-anchor:start;fill:#ffffff;fill-opacity:1;stroke:none;stroke-width:0.87340558"
           d="m 355.06659,140.13046 q 2.13111,-2.44553 3.84298,-5.24042 1.71189,-2.82984 2.89972,-6.04397 -0.41924,-0.80354 -0.34937,-1.60707 0.0699,-0.80354 0.3843,-1.39745 0.34936,-0.59392 0.8734,-0.83846 0.52404,-0.24456 1.04809,0.10474 0.59391,0.38429 0.48911,1.11796 -0.10486,0.69872 -0.38429,1.39744 0.24454,0.13976 0.55896,0.13976 0.34937,0 0.59393,0 0.90833,-0.0699 1.67694,-0.31443 0.48911,-0.69872 0.90833,-0.94328 0.41924,-0.27949 1.01315,0.20962 1.39746,1.08302 1.57214,2.06124 0.20961,0.94327 -0.59392,1.78174 -1.32757,1.71188 -2.58528,3.66831 -1.2577,1.95642 -1.88655,3.63336 -0.45418,1.22278 -0.3843,1.99137 0.0699,0.73366 0.52404,0.97822 0.45417,0.20961 1.18783,-0.0699 0.7686,-0.27948 1.67694,-1.08302 1.01315,-0.90834 2.13111,-2.37566 1.11796,-1.46732 1.95643,-3.07439 0.48911,-0.27948 0.76859,-0.0349 0.31443,0.20962 0.34937,0.59392 -0.94328,1.78174 -1.95643,3.284 -0.97822,1.50226 -2.34073,2.86477 -1.11796,1.11796 -2.27085,1.67694 -1.1529,0.52404 -2.20098,0.59392 -1.04809,0.0699 -1.88656,-0.34936 -0.83847,-0.41924 -1.32758,-1.22278 -0.4891,-0.83846 -0.52404,-2.02629 -0.035,-1.22278 0.55898,-2.75996 0.69872,-1.85163 1.74681,-3.66831 1.04809,-1.81668 2.0263,-3.07439 -0.27949,0 -0.3843,-0.0349 -0.31442,-0.035 -0.80353,-0.13976 -0.48911,-0.13974 -0.97821,-0.34935 -0.38431,1.01315 -0.97822,2.41059 -0.59392,1.36252 -1.39744,2.82985 -0.6638,1.2577 -1.32759,2.30578 -0.69872,1.04809 -1.39745,1.74681 -0.69872,0.69872 -1.39744,1.04809 -0.73366,0.34937 -1.43239,0.20961 z" />
        <path
           inkscape:connector-curvature="0"
           id="path865"
           style="font-style:normal;font-variant:normal;font-weight:normal;font-stretch:normal;font-size:28.18558502px;line-height:1.25;font-family:'Painter PERSONAL USE ONLY';-inkscape-font-specification:'Painter PERSONAL USE ONLY, Normal';font-variant-ligatures:normal;font-variant-caps:normal;font-variant-numeric:normal;font-feature-settings:normal;text-align:start;letter-spacing:0px;word-spacing:0px;writing-mode:lr-tb;text-anchor:start;fill:#ffffff;fill-opacity:1;stroke:none;stroke-width:0.87340558"
           d="m 379.4237,133.80701 q 0.52404,-0.55898 1.01314,-1.32757 0.48911,-0.80354 0.80354,-1.57213 0.34936,-0.80354 0.48911,-1.46732 0.17467,-0.69873 0.0349,-1.04809 l -0.0699,-0.13974 q -0.48911,0.31442 -0.94328,0.66378 -0.45417,0.31443 -0.83848,0.69872 -1.2577,1.1529 -2.16604,2.55035 -0.69872,0.97822 -1.29264,2.16605 -0.55898,1.18783 -0.83847,2.41059 -0.41923,1.5372 -0.0699,2.44554 0.34935,0.8734 1.15289,1.18783 0.80353,0.31443 1.92149,0.10486 1.11796,-0.24455 2.30579,-0.94328 1.50226,-0.8734 2.75997,-2.20098 1.29263,-1.32757 2.23592,-3.10932 0.41922,-0.17469 0.69872,-0.10487 0.31443,0.0699 0.41923,0.6638 -1.04808,1.99136 -2.44554,3.56349 -1.3625,1.57213 -3.14426,2.86478 -2.06123,1.46731 -4.08753,1.81668 -1.99137,0.34935 -3.4587,-0.34937 -1.46731,-0.73366 -2.09616,-2.5154 -0.6638,-1.81669 0,-4.64652 0.45416,-1.85162 1.43238,-3.52856 0.97821,-1.71187 2.34073,-3.03945 0.7686,-0.73366 1.67694,-1.2577 0.90834,-0.55898 1.92149,-0.80354 0.45417,-0.10486 0.87341,-0.13974 0.45417,-0.0349 0.94328,0.035 0.17468,-0.10487 0.34935,-0.13975 0.20963,-0.0699 0.41924,-0.13974 1.01315,-0.17468 1.81668,0.20961 0.80354,0.34937 1.18783,1.08302 0.31443,0.62885 0.2795,1.50226 -0.0349,0.83848 -0.34937,1.71188 -0.27948,0.87341 -0.80353,1.60706 -0.52404,0.73367 -1.18783,1.08303 -0.66378,0.3843 -1.57213,0.41923 -0.90834,0 -1.71187,-0.31443 z" />
        <path
           inkscape:connector-curvature="0"
           id="path867"
           style="font-style:normal;font-variant:normal;font-weight:normal;font-stretch:normal;font-size:28.18558502px;line-height:1.25;font-family:'Painter PERSONAL USE ONLY';-inkscape-font-specification:'Painter PERSONAL USE ONLY, Normal';font-variant-ligatures:normal;font-variant-caps:normal;font-variant-numeric:normal;font-feature-settings:normal;text-align:start;letter-spacing:0px;word-spacing:0px;writing-mode:lr-tb;text-anchor:start;fill:#ffffff;fill-opacity:1;stroke:none;stroke-width:0.87340558"
           d="m 397.75046,130.55794 q -1.11796,0.62885 -2.13111,1.39746 -1.01316,0.73365 -1.95643,1.53718 -0.80353,0.6638 -1.71187,1.50226 -0.87341,0.80354 -1.81669,1.64201 -0.94327,0.83847 -1.88655,1.60706 -0.94328,0.76861 -1.81668,1.29265 1.08301,-0.17469 2.30579,-0.41924 1.2577,-0.24456 2.48046,-0.34936 1.2577,-0.13975 2.37567,-0.0349 1.11796,0.0699 1.95643,0.52404 1.29264,0.69873 1.57213,1.74681 0.31443,1.01316 0.10486,2.16605 -1.04807,-0.17468 -2.58527,-0.24456 -1.50226,-0.0699 -3.24907,-0.035 -1.74681,0 -3.59843,0.10486 -1.81669,0.10487 -3.49362,0.2795 -0.45418,0.0699 -0.90835,0.13974 -0.48911,0.0699 -0.94328,0.035 -0.55898,-0.035 -0.83846,-0.31443 -0.2795,-0.31443 -0.45418,-1.08302 -0.17467,-0.76859 0,-1.11796 0.13975,-0.3843 0.41924,-0.48911 1.11796,-0.4891 2.16605,-1.18783 1.01315,-0.73365 1.99136,-1.50226 0.83847,-0.66378 1.7468,-1.43237 0.94329,-0.80354 1.88657,-1.64202 0.97821,-0.83846 1.88656,-1.64199 0.90833,-0.83847 1.71187,-1.5372 0.48911,-0.41923 0.8734,-0.73366 0.3843,-0.31442 0.90835,-0.66379 -0.62885,0 -1.36252,0.10486 -0.69872,0.0699 -1.39744,0.13975 -0.69874,0.0349 -1.36252,0 -0.62885,-0.035 -1.11796,-0.31443 -1.08302,-0.59391 -1.22277,-1.43239 -0.13974,-0.83846 0.20963,-1.95642 0.24455,0.10486 0.9782,0.13974 0.76861,0 1.78176,0 1.01314,0 2.16603,-0.035 1.15291,-0.035 2.201,-0.035 1.08302,-0.0349 1.92148,-0.0699 0.83848,-0.035 1.22277,-0.035 0.6638,0.035 0.97822,0.62885 0.31443,0.59392 0.17467,2.34073 -0.55898,0.24456 -1.11796,0.48911 -0.52404,0.20962 -1.04807,0.4891 z" />
        <path
           inkscape:connector-curvature="0"
           id="path869"
           style="font-style:normal;font-variant:normal;font-weight:normal;font-stretch:normal;font-size:28.18558502px;line-height:1.25;font-family:'Painter PERSONAL USE ONLY';-inkscape-font-specification:'Painter PERSONAL USE ONLY, Normal';font-variant-ligatures:normal;font-variant-caps:normal;font-variant-numeric:normal;font-feature-settings:normal;text-align:start;letter-spacing:0px;word-spacing:0px;writing-mode:lr-tb;text-anchor:start;fill:#ffffff;fill-opacity:1;stroke:none;stroke-width:0.87340558"
           d="m 417.45996,127.27394 q -0.66379,1.2577 -1.2577,2.30579 -0.48911,0.90834 -0.97822,1.78174 -0.45417,0.83848 -0.62885,1.15291 -1.67694,3.17918 -3.00452,6.53307 -1.32757,3.31894 -2.69009,6.8475 l 1.57213,0.4891 q 0.62885,0.20963 1.36252,0.34937 0.76859,0.17468 1.46731,0.24455 0.73367,0.0699 1.29265,-0.13974 0.55898,-0.20963 1.04809,-0.59392 -0.31443,1.11796 -1.04809,2.02631 -0.69872,0.90833 -1.71187,1.46731 -1.04809,0.55898 -2.16605,0.62885 -1.11796,0.0699 -2.27085,-0.10486 l -1.18784,-0.24455 q -0.59392,1.46733 -1.36251,2.7949 -0.76859,1.36251 -1.88656,2.48048 -1.11796,1.04809 -2.48047,1.71187 -1.36252,0.69872 -2.93465,0.69872 -1.642,0 -3.07438,-0.83847 -1.43239,-0.83846 -2.23592,-2.27085 -0.7686,-1.32758 -0.80354,-2.86477 -0.0349,-1.5372 0.52405,-2.96959 0.55898,-1.39744 1.60707,-2.5154 1.04808,-1.11796 2.48047,-1.642 1.81668,-0.66379 3.87792,-0.48911 2.06124,0.17468 3.91286,0.62885 h 0.0349 q 0.45418,-1.36251 0.94328,-2.69009 0.48911,-1.36251 1.01316,-2.69009 l -0.41924,0.59392 q -0.45416,0.66378 -1.01314,1.39745 -0.52406,0.73366 -1.18784,1.2577 -0.62885,0.52404 -1.39745,0.69872 -0.7686,0.17469 -1.71187,-0.27948 -1.60707,-0.73366 -1.99137,-2.16605 -0.41924,-1.43239 -0.10486,-3.21413 0.38431,-1.99137 1.32758,-3.77312 0.94328,-1.81668 2.09617,-3.49361 0.48911,-0.73367 1.22277,-1.60707 0.7686,-0.87341 1.57213,-1.29265 0.55898,-0.27948 1.46732,-0.20961 0.94328,0.035 2.02631,0.73366 -0.62885,0.83847 -1.57213,2.30578 -0.94328,1.46733 -1.88657,3.10933 -0.90833,1.60707 -1.60706,3.21414 -0.69872,1.60706 -0.80353,2.72502 -0.035,0.41924 0.10486,0.73367 0.17467,0.31442 0.4891,0.38429 0.31442,0.0699 0.80353,-0.17468 0.48911,-0.27948 1.18784,-1.01315 1.08303,-1.15289 1.92149,-2.44553 0.87341,-1.29265 1.67694,-2.62022 0.48911,-1.08302 1.11796,-2.23592 0.62885,-1.18784 1.36251,-2.20098 0.73366,-1.01315 1.57214,-1.74682 0.83846,-0.76859 1.7468,-1.04809 0.59392,-0.17467 1.04809,-0.10473 0.45418,0.0349 0.80353,0.10473 0.3843,0.13976 0.73367,0.2795 z M 400.27134,154.629 q 1.32757,-1.01315 2.02629,-2.55035 0.69874,-1.53718 1.18783,-3.07438 v -0.0699 q -1.01314,-0.31443 -2.02629,-0.55898 -0.97822,-0.24455 -1.99137,-0.31443 -1.11796,-0.0699 -2.23592,0.2795 -1.11795,0.3843 -1.88656,1.29263 -0.69872,0.83848 -0.8734,1.95644 -0.17467,1.15289 0.38429,2.09617 0.41924,0.69872 1.08304,1.08302 0.62885,0.41924 1.39744,0.52405 0.76859,0.13974 1.5372,-0.035 0.76859,-0.17468 1.39745,-0.62885 z" />
        <path
           inkscape:connector-curvature="0"
           id="path871"
           style="font-style:normal;font-variant:normal;font-weight:normal;font-stretch:normal;font-size:28.18558502px;line-height:1.25;font-family:'Painter PERSONAL USE ONLY';-inkscape-font-specification:'Painter PERSONAL USE ONLY, Normal';font-variant-ligatures:normal;font-variant-caps:normal;font-variant-numeric:normal;font-feature-settings:normal;text-align:start;letter-spacing:0px;word-spacing:0px;writing-mode:lr-tb;text-anchor:start;fill:#ffffff;fill-opacity:1;stroke:none;stroke-width:0.87340558"
           d="m 435.48542,134.22625 q 1.08302,-0.45417 1.11796,0.55898 -1.04809,1.99136 -2.27087,3.77311 -1.22276,1.74681 -2.75996,3.21414 -0.66378,0.62885 -1.53718,1.18783 -0.87341,0.52404 -1.78176,0.73365 -0.90833,0.24456 -1.81668,0.035 -0.90834,-0.17468 -1.642,-1.04809 -0.62885,-0.69872 -0.76859,-1.60707 -0.13976,-0.90833 0,-1.88655 0.17467,-0.97821 0.48911,-1.92148 0.34935,-0.94328 0.66378,-1.74682 0.69872,-1.57212 1.60707,-3.00451 0.94327,-1.46733 1.71187,-3.03946 -1.01315,0.80354 -2.20098,1.88656 -1.15289,1.08303 -1.95643,2.06123 -1.04809,1.25771 -1.99137,2.58529 -0.94327,1.29264 -1.85162,2.65515 -0.45417,0.69872 -0.87341,1.39745 -0.41922,0.66379 -0.80353,1.36251 -0.20961,0.31443 -0.52404,0.80354 -0.31443,0.45416 -0.87341,0.41924 -0.41923,0 -0.83846,-0.24456 -0.41924,-0.24455 -0.73366,-0.59392 -0.34937,-0.34936 -0.52404,-0.73367 -0.20963,-0.41922 -0.13976,-0.73365 0.55898,-2.55034 1.9215,-4.89107 1.32757,-2.37566 2.72503,-4.57665 0.59391,-0.90834 1.11796,-1.88656 0.55897,-0.9782 1.22276,-1.88655 0.31443,-0.45417 0.80354,-0.62885 0.52404,-0.17469 1.43238,0.34936 0.41924,0.24456 0.62885,0.4891 0.24456,0.20963 0.24456,0.55898 0,0.31443 -0.2795,0.80354 -0.24455,0.48911 -0.76859,1.22277 -0.48911,0.66378 -1.04809,1.60706 -0.52404,0.94329 -0.90834,1.71188 0.55898,-0.62885 1.32758,-1.50226 0.80353,-0.8734 1.67694,-1.74681 0.87341,-0.8734 1.74681,-1.60707 0.90834,-0.73366 1.67694,-1.11796 0.94328,-0.4891 2.20098,-0.34935 1.29263,0.13974 2.3058,1.11796 0.27948,0.27948 0.24454,0.48909 -0.035,0.17469 -0.20962,0.52405 -0.31442,0.73367 -0.73366,1.46732 -0.41923,0.76861 -0.87341,1.5372 -0.45416,0.73366 -0.8734,1.53719 -0.59391,1.08303 -1.29263,2.30579 -0.6638,1.18783 -1.15291,2.37566 -0.52404,1.43239 -0.31442,2.09618 0.24455,0.66378 0.90835,0.66378 0.69872,-0.035 1.71187,-0.69872 1.01314,-0.66378 2.06123,-1.92149 0.73367,-0.90834 1.43239,-1.92149 0.69872,-1.01315 1.36252,-2.23592 z" />
        <path
           inkscape:connector-curvature="0"
           id="path873"
           style="font-style:normal;font-variant:normal;font-weight:normal;font-stretch:normal;font-size:28.18558502px;line-height:1.25;font-family:'Painter PERSONAL USE ONLY';-inkscape-font-specification:'Painter PERSONAL USE ONLY, Normal';font-variant-ligatures:normal;font-variant-caps:normal;font-variant-numeric:normal;font-feature-settings:normal;text-align:start;letter-spacing:0px;word-spacing:0px;writing-mode:lr-tb;text-anchor:start;fill:#ffffff;fill-opacity:1;stroke:none;stroke-width:0.87340558"
           d="m 443.90014,127.06433 q -0.41923,0.48909 -0.97822,1.3625 -0.55898,0.87341 -1.08301,1.81668 -0.52404,0.94328 -1.01315,1.81669 -0.45418,0.8734 -0.69872,1.43238 -0.48911,1.08303 -0.94329,2.16605 -0.45417,1.08302 -0.80353,2.20098 -0.27949,1.04809 -0.27949,1.74682 0.0349,0.66379 0.41923,0.8734 0.3843,0.20962 1.11797,-0.10486 0.73365,-0.34935 1.88655,-1.3625 1.11796,-1.01316 2.09617,-2.23592 0.97822,-1.22278 1.67694,-2.55035 0.94328,-0.45417 1.11796,0.55898 -0.80354,1.46731 -1.81668,2.93464 -1.01315,1.43239 -2.23593,2.65515 -1.88655,1.99137 -3.42374,2.65516 -1.50225,0.62885 -2.62022,0.13974 -1.18783,-0.48911 -1.57212,-1.57213 -0.41924,-1.11796 -0.38431,-2.27085 0.0699,-2.16605 0.7686,-4.26223 0.69873,-2.13111 1.74682,-3.98272 0.62885,-1.11796 1.3625,-2.27086 0.7686,-1.15289 1.74681,-1.95643 0.34937,-0.27948 0.87341,-0.41924 0.52405,-0.17467 1.08303,-0.13974 0.59391,0 1.11795,0.17469 0.52405,0.17468 0.83847,0.59392 z m -0.035,-3.28401 q -0.76859,-0.24456 -1.32757,-0.90834 -0.55898,-0.69873 -0.3843,-1.67694 0.13974,-0.83848 0.45417,-1.60707 0.34936,-0.7686 1.22277,-0.94328 0.48911,-0.0699 0.94328,0 0.48911,0.0699 0.94327,0.24456 1.04809,0.34935 1.32758,0.94327 0.31442,0.59391 0.34937,0.87341 0.0699,0.69872 -0.13976,1.36251 -0.17467,0.66379 -0.66378,1.15289 -0.55898,0.52404 -1.29264,0.6638 -0.73367,0.10474 -1.43239,-0.10486 z" />
        <path
           inkscape:connector-curvature="0"
           id="path875"
           style="font-style:normal;font-variant:normal;font-weight:normal;font-stretch:normal;font-size:28.18558502px;line-height:1.25;font-family:'Painter PERSONAL USE ONLY';-inkscape-font-specification:'Painter PERSONAL USE ONLY, Normal';font-variant-ligatures:normal;font-variant-caps:normal;font-variant-numeric:normal;font-feature-settings:normal;text-align:start;letter-spacing:0px;word-spacing:0px;writing-mode:lr-tb;text-anchor:start;fill:#ffffff;fill-opacity:1;stroke:none;stroke-width:0.87340558"
           d="m 450.407,136.008 q -0.3843,0.035 -0.80354,0.035 -0.38429,-0.035 -0.76859,-0.10487 -0.62885,1.95644 -0.3843,3.21414 0.27949,1.25771 1.18783,1.74682 0.94328,0.48911 2.41061,0.17467 1.46731,-0.31443 3.284,-1.46732 1.46733,-1.01315 2.62022,-2.44553 1.18783,-1.46733 1.99136,-2.93465 0.3843,-0.13974 0.69873,-0.10486 0.34936,0 0.41923,0.66379 -0.80353,1.5372 -2.1311,3.14426 -1.29265,1.60707 -2.86478,2.96959 -2.5154,2.09616 -4.96095,2.79489 -2.44554,0.69873 -4.19235,-0.41923 -1.32757,-0.90835 -2.02629,-2.34073 -0.73367,-1.46732 -0.6638,-3.03945 0.035,-1.46733 0.55898,-2.93464 0.48911,-1.50226 1.32759,-2.86478 0.83846,-1.36251 1.95643,-2.48047 1.11796,-1.15289 2.41059,-1.85162 1.29264,-0.69872 2.96958,-1.08303 1.71187,-0.38429 3.1792,0 0.73365,0.17469 1.22276,0.62885 0.48911,0.41924 0.69873,1.01317 0.24455,0.55898 0.20962,1.22276 -0.0349,0.66379 -0.27949,1.32757 -0.59391,1.57214 -1.92149,2.65516 -1.29264,1.08302 -2.7949,1.67694 -1.67694,0.69872 -3.35388,0.80354 z m 3.00451,-6.70776 q -1.29263,1.11796 -2.37566,2.55034 -1.04808,1.43239 -1.78174,3.00452 0.52404,-0.13974 1.18783,-0.3843 1.04809,-0.38429 2.0263,-0.90835 0.97821,-0.55898 1.78175,-1.32757 0.69872,-0.62885 1.29263,-1.46732 0.59392,-0.83847 0.52405,-1.85162 0,-0.55898 -0.34937,-0.62885 -0.34935,-0.0699 -0.80353,0.10486 -0.45417,0.17468 -0.87341,0.45417 -0.41922,0.27948 -0.62885,0.45417 z" />
      </g>
      <g
         style="fill:#ffffff"
         transform="matrix(0.16319348,0,0,0.16276559,35.844469,100.1731)"
         id="g4572">
        <path
           inkscape:connector-curvature="0"
           id="path2"
           d="m 411.505,156.667 c -53.244,-22.644 -97.92,-58.752 -146.88,-88.74 -1.224,-0.612 -2.448,-1.224 -3.06,-1.224 -1.225,-7.344 -12.24,-9.792 -14.076,-1.224 -3.672,16.524 -3.672,33.66 0,50.184 C 216.888,103.423 183.228,97.915 150.792,90.571 128.76,85.675 106.728,81.391 85.308,75.883 77.964,74.047 71.232,72.211 63.888,69.763 60.216,68.539 52.26,64.255 52.26,67.927 c 0,0 0,0 -0.612,0 -2.448,-3.06 -7.956,-3.672 -9.18,1.224 -0.612,1.836 0,3.672 1.224,5.508 -7.956,7.956 -15.912,15.912 -22.032,25.704 -4.284,6.732 -11.016,15.912 -12.852,24.48 -0.612,0.612 -0.612,0.612 -0.612,1.224 -11.016,39.78 -7.956,88.128 -7.344,129.132 0.612,21.42 -2.448,75.888 22.644,86.292 3.06,1.224 5.508,-1.224 6.732,-3.672 20.196,11.628 58.752,-2.448 76.5,-7.344 33.048,-9.181 66.708,-20.196 98.532,-33.66 0,7.956 0,16.523 0.612,24.479 0.612,8.568 0.612,20.809 8.569,26.316 -2.448,3.672 1.224,9.18 6.12,6.731 61.199,-31.212 128.52,-61.199 178.704,-108.936 3.06,-3.06 2.447,-6.732 0,-9.18 2.447,-9.792 4.283,-19.584 6.731,-28.764 2.448,-9.792 6.732,-21.42 4.896,-31.824 0,-0.612 -0.612,-1.836 -1.225,-2.448 1.225,-1.224 2.448,-2.448 3.672,-3.672 2.45,-3.67 2.45,-11.014 -1.834,-12.85 z M 58.993,84.451 c 44.676,20.196 170.136,35.496 190.945,38.556 3.06,3.672 11.016,2.448 10.403,-3.06 -1.224,-12.852 -1.224,-25.704 0,-39.168 43.452,29.988 85.681,62.424 134.028,84.456 -41.616,40.392 -84.456,75.888 -130.968,110.16 -0.612,-0.612 -1.225,-1.225 -2.448,-1.225 -1.836,-4.284 -0.612,-14.688 0,-19.584 0.612,-7.344 3.672,-19.584 -1.224,-25.704 -2.448,-2.447 -6.732,-2.447 -9.792,0 -1.225,1.225 -1.836,2.448 -2.448,3.673 -0.612,0 -1.224,0 -1.224,0 -31.824,9.791 -63.649,18.359 -95.473,25.703 -26.316,6.12 -55.692,12.24 -78.948,27.54 5.508,-27.54 -4.896,-63.036 -8.568,-89.964 C 57.769,157.891 53.485,122.395 58.993,84.451 Z M 391.31,202.567 c -2.448,11.628 -5.509,23.868 -6.12,35.496 -50.185,41.004 -108.937,66.096 -162.181,101.592 0,-6.732 -3.672,-14.076 -4.283,-20.809 -1.225,-9.18 -1.837,-18.972 -1.837,-28.764 3.061,-4.284 -1.224,-12.852 -7.956,-11.016 -28.765,9.792 -57.528,21.42 -86.292,30.6 -22.644,7.344 -69.156,26.928 -91.8,14.076 -1.224,-0.612 -3.06,-0.612 -4.284,-0.612 -3.06,-7.956 -6.12,-15.3 -7.344,-23.868 -4.284,-22.031 -3.672,-45.287 -3.672,-67.932 0,-30.6 6.12,-66.096 0.612,-97.308 0.612,0 1.836,-0.612 2.448,-1.224 7.344,-6.732 11.016,-17.748 15.912,-26.316 3.06,-5.508 5.508,-11.016 7.956,-16.524 -5.508,26.316 -1.224,55.692 1.836,80.784 2.448,22.644 6.12,45.288 9.18,67.932 2.448,17.137 1.224,34.885 4.896,52.021 0.612,3.672 4.284,4.896 7.344,4.284 v 0.611 c 0,0.612 0.612,1.225 1.224,1.836 7.344,3.061 11.628,-0.611 18.36,-4.283 18.972,-9.181 41.004,-14.076 61.2,-18.973 32.436,-7.956 68.544,-12.239 99.145,-26.315 0,3.672 -0.612,6.731 -0.612,10.403 -0.612,7.956 -1.836,19.584 4.896,25.704 2.447,2.448 6.12,2.448 8.567,1.225 0.612,3.06 3.672,5.508 7.956,4.284 48.349,-17.137 90.576,-61.812 127.296,-100.369 -1.224,4.285 -1.836,9.181 -2.447,13.465 z"
           style="fill:#ffffff;stroke:none" />
        <g
           style="fill:#ffffff"
           id="g6" />
        <g
           style="fill:#ffffff"
           id="g8" />
        <g
           style="fill:#ffffff"
           id="g10" />
        <g
           style="fill:#ffffff"
           id="g12" />
        <g
           style="fill:#ffffff"
           id="g14" />
        <g
           style="fill:#ffffff"
           id="g16" />
        <g
           style="fill:#ffffff"
           id="g18" />
        <g
           style="fill:#ffffff"
           id="g20" />
        <g
           style="fill:#ffffff"
           id="g22" />
        <g
           style="fill:#ffffff"
           id="g24" />
        <g
           style="fill:#ffffff"
           id="g26" />
        <g
           style="fill:#ffffff"
           id="g28" />
        <g
           style="fill:#ffffff"
           id="g30" />
        <g
           style="fill:#ffffff"
           id="g32" />
        <g
           style="fill:#ffffff"
           id="g34" />
      </g>
    </g>
  </g>
</svg>
