<?xml version="1.0" encoding="UTF-8" standalone="no"?>
<!-- Created with Inkscape (http://www.inkscape.org/) -->

<svg
   xmlns:dc="http://purl.org/dc/elements/1.1/"
   xmlns:cc="http://creativecommons.org/ns#"
   xmlns:rdf="http://www.w3.org/1999/02/22-rdf-syntax-ns#"
   xmlns:svg="http://www.w3.org/2000/svg"
   xmlns="http://www.w3.org/2000/svg"
   xmlns:sodipodi="http://sodipodi.sourceforge.net/DTD/sodipodi-0.dtd"
   xmlns:inkscape="http://www.inkscape.org/namespaces/inkscape"
   width="509.80038mm"
   height="32mm"
   viewBox="0 0 509.80039 32"
   version="1.1"
   id="svg904"
   inkscape:version="0.92.4 (5da689c313, 2019-01-14)"
   sodipodi:docname="projectName02.svg">
  <defs
     id="defs898" />
  <sodipodi:namedview
     id="base"
     pagecolor="#ffffff"
     bordercolor="#666666"
     borderopacity="1.0"
     inkscape:pageopacity="0.0"
     inkscape:pageshadow="2"
     inkscape:zoom="0.35"
     inkscape:cx="254.92855"
     inkscape:cy="360.77628"
     inkscape:document-units="mm"
     inkscape:current-layer="layer1"
     showgrid="false"
     showborder="false"
     fit-margin-top="0"
     fit-margin-left="0"
     fit-margin-right="0"
     fit-margin-bottom="0"
     inkscape:window-width="1920"
     inkscape:window-height="1001"
     inkscape:window-x="-9"
     inkscape:window-y="-9"
     inkscape:window-maximized="1" />
  <metadata
     id="metadata901">
    <rdf:RDF>
      <cc:Work
         rdf:about="">
        <dc:format>image/svg+xml</dc:format>
        <dc:type
           rdf:resource="http://purl.org/dc/dcmitype/StillImage" />
        <dc:title></dc:title>
      </cc:Work>
    </rdf:RDF>
  </metadata>
  <g
     inkscape:label="Layer 1"
     inkscape:groupmode="layer"
     id="layer1"
     transform="translate(248.79191,-145.82107)">
    <g
       aria-label="mieszkanie od dewelopera Grunwald"
       style="font-style:normal;font-variant:normal;font-weight:normal;font-stretch:normal;font-size:10.58333302px;line-height:1.25;font-family:'Painter PERSONAL USE ONLY';-inkscape-font-specification:'Painter PERSONAL USE ONLY, Normal';font-variant-ligatures:normal;font-variant-caps:normal;font-variant-numeric:normal;font-feature-settings:normal;text-align:start;letter-spacing:0px;word-spacing:0px;writing-mode:lr-tb;text-anchor:start;fill:#ffffff;fill-opacity:1;stroke:none;stroke-width:0.26458332"
       id="text1451"
       transform="matrix(3.1529144,0,0,3.1529144,535.62765,-382.83351)">
      <path
         d="m -239.85613,172.58234 q 0.127,-0.0317 0.22225,-0.0106 0.0952,0.0212 0.11642,0.17991 -0.29633,0.56092 -0.66675,1.05834 -0.37042,0.49741 -0.8255,0.89958 -0.20108,0.17992 -0.46567,0.33867 -0.254,0.14816 -0.52916,0.21166 -0.26459,0.0635 -0.52917,0 -0.26458,-0.0741 -0.46567,-0.34925 -0.17991,-0.22225 -0.21166,-0.49741 -0.0318,-0.28575 0.0106,-0.58209 0.0529,-0.29633 0.14817,-0.5715 0.10583,-0.28575 0.21166,-0.52916 0.17992,-0.43392 0.41275,-0.8255 0.24342,-0.40217 0.45509,-0.8255 -0.30692,0.24341 -0.65617,0.5715 -0.33867,0.32808 -0.59267,0.62441 -0.3175,0.37042 -0.60325,0.75142 -0.28575,0.37042 -0.56091,0.77258 -0.24342,0.34925 -0.41275,0.62442 -0.16934,0.27517 -0.29634,0.46567 -0.127,0.1905 -0.22225,0.28575 -0.0847,0.0952 -0.16933,0.0952 -0.10583,-0.0106 -0.24342,-0.0529 -0.13758,-0.0529 -0.26458,-0.11642 -0.11642,-0.0741 -0.20108,-0.17991 -0.0741,-0.10584 -0.0529,-0.254 0.0106,-0.0423 0.0423,-0.13759 0.0423,-0.10583 0.0847,-0.22225 0.0529,-0.11641 0.0953,-0.22225 0.0529,-0.11641 0.0741,-0.17991 0.28575,-0.635 0.60325,-1.29117 0.32809,-0.65617 0.70909,-1.397 -0.43392,0.40217 -0.84667,0.85725 -0.40217,0.4445 -0.77258,0.91017 -0.24342,0.29633 -0.47625,0.59266 -0.22225,0.29634 -0.4445,0.60325 -0.0423,0.0529 -0.13759,0.1905 -0.0952,0.13759 -0.21166,0.28575 -0.10584,0.14817 -0.21167,0.28575 -0.10583,0.13759 -0.16933,0.1905 -0.0952,0.0741 -0.24342,0.0423 -0.15875,-0.0423 -0.30692,-0.14817 -0.14816,-0.10583 -0.24341,-0.24342 -0.10584,-0.13758 -0.0847,-0.26458 0.0423,-0.254 0.20108,-0.635 0.15875,-0.39158 0.37042,-0.81492 0.21167,-0.43391 0.45508,-0.86783 0.254,-0.43392 0.48684,-0.80433 l 0.64558,-1.05834 q 0.0952,-0.16933 0.29633,-0.23283 0.20109,-0.0741 0.4445,0.10583 0.24342,0.1905 0.30692,0.30692 0.0635,0.11642 -0.0423,0.30692 -0.11642,0.21166 -0.28575,0.47625 -0.15875,0.254 -0.32809,0.51858 -0.15875,0.254 -0.30691,0.49742 -0.14817,0.24341 -0.24342,0.41275 0.14817,-0.17992 0.39158,-0.45509 0.24342,-0.28575 0.508,-0.5715 0.26459,-0.29633 0.51859,-0.56091 0.254,-0.26459 0.43391,-0.41275 0.0635,-0.0635 0.15875,-0.13759 0.10584,-0.0847 0.22225,-0.15875 0.11642,-0.0741 0.24342,-0.127 0.13758,-0.0529 0.28575,-0.0423 0.13758,0.0106 0.28575,0.0847 0.15875,0.0635 0.28575,0.16933 0.127,0.0953 0.20108,0.20108 0.0847,0.10584 0.0741,0.17992 -0.0212,0.11642 -0.10584,0.26458 -0.0847,0.13759 -0.13758,0.254 l -0.254,0.51859 q 0.64558,-0.79375 1.44992,-1.34409 0.41275,-0.28575 0.67733,-0.32808 0.26458,-0.0423 0.52917,0.0847 0.27516,0.127 0.43391,0.28575 0.15875,0.15875 0.13759,0.23283 -0.0212,0.10583 -0.0741,0.21167 -0.0529,0.10583 -0.10583,0.20108 l -0.45508,0.85725 q -0.22225,0.43392 -0.45509,0.86783 -0.22225,0.42334 -0.381,0.889 -0.11641,0.32809 0.0635,0.4445 0.1905,0.10584 0.635,-0.13758 0.43392,-0.24342 0.75142,-0.65617 0.32808,-0.42333 0.61383,-0.96308 z"
         style="font-style:normal;font-variant:normal;font-weight:normal;font-stretch:normal;font-size:10.58333302px;font-family:'Painter PERSONAL USE ONLY';-inkscape-font-specification:'Painter PERSONAL USE ONLY, Normal';font-variant-ligatures:normal;font-variant-caps:normal;font-variant-numeric:normal;font-feature-settings:normal;text-align:start;writing-mode:lr-tb;text-anchor:start;fill:#ffffff;stroke-width:0.26458332"
         id="path1453"
         inkscape:connector-curvature="0" />
      <path
         d="m -237.29893,170.41276 q -0.127,0.14816 -0.29633,0.41275 -0.16934,0.26458 -0.32809,0.55033 -0.15875,0.28575 -0.30691,0.55033 -0.13759,0.26459 -0.21167,0.43392 -0.14817,0.32808 -0.28575,0.65617 -0.13758,0.32808 -0.24342,0.66675 -0.0847,0.3175 -0.0847,0.52916 0.0106,0.20109 0.127,0.26459 0.11641,0.0635 0.33866,-0.0318 0.22225,-0.10584 0.5715,-0.41275 0.33867,-0.30692 0.635,-0.67734 0.29634,-0.37041 0.508,-0.77258 0.28575,-0.13758 0.33867,0.16933 -0.24342,0.4445 -0.55033,0.889 -0.30692,0.43392 -0.67734,0.80434 -0.5715,0.60325 -1.03716,0.80433 -0.45509,0.1905 -0.79375,0.0423 -0.35984,-0.14816 -0.47625,-0.47625 -0.127,-0.33866 -0.11642,-0.68791 0.0212,-0.65617 0.23283,-1.29117 0.21167,-0.64558 0.52917,-1.2065 0.1905,-0.33867 0.41275,-0.68792 0.23283,-0.34925 0.52917,-0.59266 0.10583,-0.0847 0.26458,-0.127 0.15875,-0.0529 0.32808,-0.0423 0.17992,0 0.33867,0.0529 0.15875,0.0529 0.254,0.17992 z m -0.0106,-0.99484 q -0.23284,-0.0741 -0.40217,-0.27516 -0.16933,-0.21167 -0.11642,-0.508 0.0423,-0.254 0.13759,-0.48684 0.10583,-0.23283 0.37041,-0.28575 0.14817,-0.0212 0.28575,0 0.14817,0.0212 0.28575,0.0741 0.3175,0.10583 0.40217,0.28575 0.0952,0.17991 0.10583,0.26458 0.0212,0.21167 -0.0423,0.41275 -0.0529,0.20108 -0.20108,0.34925 -0.16934,0.15875 -0.39159,0.20108 -0.22225,0.0318 -0.43391,-0.0317 z"
         style="font-style:normal;font-variant:normal;font-weight:normal;font-stretch:normal;font-size:10.58333302px;font-family:'Painter PERSONAL USE ONLY';-inkscape-font-specification:'Painter PERSONAL USE ONLY, Normal';font-variant-ligatures:normal;font-variant-caps:normal;font-variant-numeric:normal;font-feature-settings:normal;text-align:start;writing-mode:lr-tb;text-anchor:start;fill:#ffffff;stroke-width:0.26458332"
         id="path1455"
         inkscape:connector-curvature="0" />
      <path
         d="m -235.32778,173.12209 q -0.11642,0.0106 -0.24342,0.0106 -0.11642,-0.0106 -0.23283,-0.0317 -0.1905,0.59267 -0.11642,0.97367 0.0847,0.381 0.35983,0.52917 0.28575,0.14816 0.73025,0.0529 0.4445,-0.0952 0.99484,-0.4445 0.4445,-0.30691 0.79375,-0.74083 0.35983,-0.4445 0.60325,-0.889 0.11641,-0.0423 0.21166,-0.0317 0.10584,0 0.127,0.20108 -0.24341,0.46567 -0.64558,0.9525 -0.39158,0.48684 -0.86783,0.89959 -0.762,0.635 -1.50284,0.84666 -0.74083,0.21167 -1.27,-0.127 -0.40216,-0.27516 -0.61383,-0.70908 -0.22225,-0.4445 -0.20108,-0.92075 0.0106,-0.4445 0.16933,-0.889 0.14817,-0.45508 0.40217,-0.86783 0.254,-0.41275 0.59266,-0.75142 0.33867,-0.34925 0.73025,-0.56092 0.39159,-0.21166 0.89959,-0.32808 0.51858,-0.11642 0.96308,0 0.22225,0.0529 0.37042,0.1905 0.14816,0.127 0.21166,0.30692 0.0741,0.16933 0.0635,0.37041 -0.0106,0.20109 -0.0847,0.40217 -0.17992,0.47625 -0.58209,0.80433 -0.39158,0.32809 -0.84666,0.508 -0.508,0.21167 -1.016,0.24342 z m 0.91016,-2.032 q -0.39158,0.33867 -0.71966,0.77258 -0.3175,0.43392 -0.53975,0.91017 0.15875,-0.0423 0.35983,-0.11642 0.3175,-0.11641 0.61383,-0.27516 0.29634,-0.16934 0.53975,-0.40217 0.21167,-0.1905 0.39159,-0.4445 0.17991,-0.254 0.15875,-0.56092 0,-0.16933 -0.10584,-0.1905 -0.10583,-0.0212 -0.24341,0.0317 -0.13759,0.0529 -0.26459,0.13759 -0.127,0.0847 -0.1905,0.13758 z"
         style="font-style:normal;font-variant:normal;font-weight:normal;font-stretch:normal;font-size:10.58333302px;font-family:'Painter PERSONAL USE ONLY';-inkscape-font-specification:'Painter PERSONAL USE ONLY, Normal';font-variant-ligatures:normal;font-variant-caps:normal;font-variant-numeric:normal;font-feature-settings:normal;text-align:start;writing-mode:lr-tb;text-anchor:start;fill:#ffffff;stroke-width:0.26458332"
         id="path1457"
         inkscape:connector-curvature="0" />
      <path
         d="m -228.84103,169.46026 q -0.13758,0.1905 -0.254,0.52916 -0.11641,0.34925 -0.17991,0.78317 -0.0529,0.42333 -0.10584,0.87842 -0.0529,0.45508 -0.127,0.92075 -0.0741,0.45508 -0.21166,0.87841 -0.13759,0.40217 -0.381,0.74084 -0.23284,0.32808 -0.52917,0.5715 -0.32808,0.27516 -0.8255,0.4445 -0.49742,0.16933 -0.98425,0.14816 -0.48683,-0.0106 -0.85725,-0.254 -0.381,-0.254 -0.47625,-0.8255 -0.0529,-0.34925 0.0741,-0.6985 0.11642,-0.35983 0.35984,-0.635 0.23283,-0.27516 0.5715,-0.4445 0.32808,-0.16933 0.68791,-0.15875 0.20109,-0.27516 0.42334,-0.5715 0.23283,-0.29633 0.45508,-0.59266 0.23283,-0.29634 0.4445,-0.58209 0.21167,-0.28575 0.39158,-0.53975 0.0952,-0.21166 0.254,-0.35983 0.16934,-0.14817 0.37042,-0.22225 0.21167,-0.0741 0.4445,-0.0741 0.23283,-0.0106 0.45508,0.0635 z m -1.83091,1.73566 q -0.22225,0.29634 -0.47625,0.62442 -0.24342,0.3175 -0.48684,0.62442 0.16934,0.0952 0.23284,0.254 0.0741,0.14816 0.0529,0.3175 -0.0106,0.15875 -0.10583,0.32808 -0.0953,0.16933 -0.254,0.29633 -0.26458,-0.24341 -0.62442,-0.254 -0.34925,-0.0212 -0.62441,0.254 -0.11642,0.11642 -0.15875,0.27517 -0.0529,0.14817 -0.0317,0.29633 0.0212,0.14817 0.11641,0.27517 0.0847,0.11642 0.24342,0.17992 0.28575,0.10583 0.56092,0.0212 0.28575,-0.0847 0.51858,-0.28575 0.24342,-0.21166 0.42333,-0.48683 0.17992,-0.28575 0.27517,-0.58208 0.15875,-0.508 0.20108,-1.04775 0.0529,-0.55034 0.13759,-1.09009 z"
         style="font-style:normal;font-variant:normal;font-weight:normal;font-stretch:normal;font-size:10.58333302px;font-family:'Painter PERSONAL USE ONLY';-inkscape-font-specification:'Painter PERSONAL USE ONLY, Normal';font-variant-ligatures:normal;font-variant-caps:normal;font-variant-numeric:normal;font-feature-settings:normal;text-align:start;writing-mode:lr-tb;text-anchor:start;fill:#ffffff;stroke-width:0.26458332"
         id="path1459"
         inkscape:connector-curvature="0" />
      <path
         d="m -224.77951,171.47109 q -0.33866,0.1905 -0.64558,0.42333 -0.30692,0.22225 -0.59267,0.46567 -0.24341,0.20108 -0.51858,0.45508 -0.26458,0.24342 -0.55033,0.49742 -0.28575,0.254 -0.5715,0.48683 -0.28575,0.23284 -0.55034,0.39159 0.32809,-0.0529 0.6985,-0.127 0.381,-0.0741 0.75142,-0.10584 0.381,-0.0423 0.71967,-0.0106 0.33866,0.0212 0.59266,0.15875 0.39159,0.21167 0.47625,0.52917 0.0952,0.30691 0.0317,0.65616 -0.3175,-0.0529 -0.78316,-0.0741 -0.45509,-0.0212 -0.98425,-0.0106 -0.52917,0 -1.09009,0.0318 -0.55033,0.0317 -1.05833,0.0847 -0.13758,0.0212 -0.27517,0.0423 -0.14816,0.0212 -0.28575,0.0106 -0.16933,-0.0106 -0.254,-0.0952 -0.0847,-0.0952 -0.13758,-0.32808 -0.0529,-0.23284 0,-0.33867 0.0423,-0.11642 0.127,-0.14817 0.33867,-0.14816 0.65617,-0.35983 0.30691,-0.22225 0.60325,-0.45508 0.254,-0.20109 0.52916,-0.43392 0.28575,-0.24342 0.5715,-0.49742 0.29634,-0.254 0.5715,-0.49741 0.27517,-0.254 0.51859,-0.46567 0.14816,-0.127 0.26458,-0.22225 0.11642,-0.0953 0.27517,-0.20108 -0.1905,0 -0.41275,0.0318 -0.21167,0.0212 -0.42334,0.0423 -0.21166,0.0106 -0.41275,0 -0.1905,-0.0106 -0.33866,-0.0952 -0.32809,-0.17992 -0.37042,-0.43392 -0.0423,-0.254 0.0635,-0.59266 0.0741,0.0317 0.29633,0.0423 0.23284,0 0.53975,0 0.30692,0 0.65617,-0.0106 0.34925,-0.0106 0.66675,-0.0106 0.32808,-0.0106 0.58208,-0.0212 0.254,-0.0106 0.37042,-0.0106 0.20108,0.0106 0.29633,0.1905 0.0953,0.17992 0.0529,0.70909 -0.16933,0.0741 -0.33867,0.14816 -0.15875,0.0635 -0.3175,0.14817 z"
         style="font-style:normal;font-variant:normal;font-weight:normal;font-stretch:normal;font-size:10.58333302px;font-family:'Painter PERSONAL USE ONLY';-inkscape-font-specification:'Painter PERSONAL USE ONLY, Normal';font-variant-ligatures:normal;font-variant-caps:normal;font-variant-numeric:normal;font-feature-settings:normal;text-align:start;writing-mode:lr-tb;text-anchor:start;fill:#ffffff;stroke-width:0.26458332"
         id="path1461"
         inkscape:connector-curvature="0" />
      <path
         d="m -218.51252,172.58234 q 0.27517,-0.0635 0.33867,0.16933 -0.40217,0.77259 -0.97367,1.50284 -0.27517,0.33866 -0.62442,0.65616 -0.33866,0.3175 -0.75141,0.49742 -0.34925,0.14817 -0.71967,0.0953 -0.37042,-0.0423 -0.64558,-0.3175 -0.17992,-0.16933 -0.28575,-0.381 -0.10584,-0.22225 -0.15875,-0.45508 -0.0529,-0.23284 -0.0635,-0.47625 0,-0.24342 0.0212,-0.48684 0,-0.0529 0.0212,-0.1905 0.0212,-0.14816 0.0423,-0.29633 0.0212,-0.14817 0.0423,-0.26458 0.0212,-0.127 0.0317,-0.13759 0.33866,-0.0847 0.67733,-0.23283 0.33867,-0.14817 0.5715,-0.30692 0.13758,-0.0952 0.32808,-0.26458 0.1905,-0.17992 0.34925,-0.39158 0.16934,-0.22225 0.26459,-0.46567 0.0952,-0.24342 0.0423,-0.47625 -0.13758,0.0212 -0.3175,0.11642 -0.17992,0.0952 -0.37042,0.22225 -0.17991,0.11641 -0.34925,0.26458 -0.16933,0.13758 -0.29633,0.254 -0.29633,0.28575 -0.56092,0.59267 -0.26458,0.30691 -0.508,0.635 -0.55033,0.70908 -1.00541,1.50283 -0.0317,0.0529 -0.127,0.23283 -0.0847,0.17992 -0.20109,0.40217 -0.10583,0.21167 -0.22225,0.42333 -0.10583,0.21167 -0.16933,0.32809 -0.24342,-0.0106 -0.45508,-0.20109 -0.21167,-0.1905 -0.23284,-0.4445 -0.0106,-0.0529 0.0106,-0.16933 0.0212,-0.11642 0.0635,-0.254 0.0318,-0.14817 0.0847,-0.29633 0.0529,-0.15875 0.11642,-0.29634 0.24342,-0.5715 0.51858,-1.11125 0.27517,-0.55033 0.58209,-1.09008 l 0.75141,-1.31233 0.635,-1.0795 q 0.0741,-0.11642 0.1905,-0.34925 0.127,-0.23284 0.254,-0.47625 0.13759,-0.27517 0.30692,-0.58209 0.14817,0.0212 0.28575,0.0741 0.11642,0.0529 0.24342,0.13758 0.127,0.0847 0.21166,0.22225 0.0529,0.10583 0.0529,0.30692 0.0106,0.1905 -0.127,0.46566 -0.127,0.26459 -0.28575,0.51859 -0.15875,0.24341 -0.30692,0.49741 -0.21166,0.34925 -0.49741,0.77259 -0.27517,0.42333 -0.48684,0.77258 0.29634,-0.30692 0.67734,-0.64558 0.39158,-0.33867 0.762,-0.55034 0.0318,-0.0212 0.11641,-0.0635 0.0953,-0.0423 0.21167,-0.0741 0.11642,-0.0423 0.23283,-0.0635 0.127,-0.0317 0.21167,-0.0212 0.17992,-0.11641 0.39158,-0.0953 0.22225,0.0212 0.381,0.16934 0.21167,0.17991 0.26459,0.46566 0.0635,0.27517 0.0106,0.55034 -0.0635,0.28575 -0.23283,0.55033 -0.15875,0.26458 -0.381,0.49742 -0.22225,0.22225 -0.48684,0.40216 -0.26458,0.16934 -0.52916,0.28575 -0.14817,0.0529 -0.29634,0.10584 -0.14816,0.0423 -0.30691,0.0741 -0.0212,0.0952 -0.0106,0.33867 0.0106,0.24341 0.0529,0.508 0.0423,0.26458 0.11642,0.48683 0.0847,0.22225 0.21166,0.28575 0.14817,0.0741 0.3175,0.0423 0.17992,-0.0423 0.34925,-0.13758 0.16934,-0.0952 0.3175,-0.21167 0.14817,-0.127 0.254,-0.24341 0.32809,-0.34925 0.58209,-0.71967 0.26458,-0.381 0.48683,-0.79375 z"
         style="font-style:normal;font-variant:normal;font-weight:normal;font-stretch:normal;font-size:10.58333302px;font-family:'Painter PERSONAL USE ONLY';-inkscape-font-specification:'Painter PERSONAL USE ONLY, Normal';font-variant-ligatures:normal;font-variant-caps:normal;font-variant-numeric:normal;font-feature-settings:normal;text-align:start;writing-mode:lr-tb;text-anchor:start;fill:#ffffff;stroke-width:0.26458332"
         id="path1463"
         inkscape:connector-curvature="0" />
      <path
         d="m -213.28932,170.63501 q -0.11641,0.15875 -0.28575,0.41275 -0.15875,0.254 -0.33866,0.55033 -0.17992,0.29633 -0.35984,0.61383 -0.16933,0.3175 -0.30691,0.60325 -0.28575,0.59267 -0.4445,0.99484 -0.15875,0.40216 -0.0847,0.51858 0.0317,0.0529 0.10583,0.0529 0.0847,-0.0106 0.17992,-0.0423 0.0953,-0.0317 0.16933,-0.0741 0.0847,-0.0529 0.11642,-0.0741 0.23283,-0.14817 0.41275,-0.33867 0.17992,-0.20108 0.33867,-0.41275 0.14816,-0.20108 0.28575,-0.42333 0.13758,-0.22225 0.254,-0.43392 0.127,-0.0317 0.21166,0 0.0953,0.0318 0.127,0.16933 -0.14816,0.27517 -0.28575,0.53975 -0.13758,0.26459 -0.3175,0.51859 -0.16933,0.254 -0.35983,0.48683 -0.17992,0.23283 -0.39158,0.4445 -0.20109,0.20108 -0.4445,0.35983 -0.23284,0.14817 -0.52917,0.13759 -0.29633,0 -0.52917,-0.16934 -0.23283,-0.16933 -0.33866,-0.4445 -0.0529,-0.127 -0.0741,-0.28575 -0.16933,0.24342 -0.35983,0.4445 -0.1905,0.20109 -0.43392,0.33867 -0.33866,0.1905 -0.70908,0.15875 -0.37042,-0.0318 -0.64558,-0.28575 -0.26459,-0.24342 -0.35984,-0.5715 -0.0952,-0.33867 -0.0952,-0.67733 0.0106,-0.42334 0.13759,-0.83609 0.127,-0.41275 0.32808,-0.79375 0.21167,-0.381 0.47625,-0.70908 0.27517,-0.33867 0.58208,-0.61383 0.29634,-0.27517 0.66675,-0.4445 0.381,-0.16934 0.78317,-0.14817 0.39158,0.0212 0.68792,0.24342 0.29633,0.21166 0.43391,0.5715 0.127,-0.14817 0.28575,-0.26459 0.16934,-0.127 0.34925,-0.1905 0.1905,-0.0741 0.40217,-0.0635 0.22225,0.0106 0.35983,0.13759 z m -3.34433,2.89983 q 0.47625,-0.33867 0.85725,-0.86783 0.381,-0.52917 0.49742,-1.12184 0.0529,-0.22225 -0.0106,-0.43391 -0.0635,-0.22225 -0.32808,-0.26459 -0.21167,-0.0317 -0.39158,0.0847 -0.17992,0.11642 -0.32809,0.254 -0.45508,0.4445 -0.74083,1.016 -0.27517,0.5715 -0.42333,1.18533 -0.13759,0.61384 0.0529,0.81492 0.20109,0.1905 0.53975,0.0106 0.22225,-0.11641 0.41275,-0.28575 0.20109,-0.16933 0.381,-0.34925 -0.14816,0.0318 -0.30691,0.0423 -0.14817,0 -0.21167,-0.0847 z"
         style="font-style:normal;font-variant:normal;font-weight:normal;font-stretch:normal;font-size:10.58333302px;font-family:'Painter PERSONAL USE ONLY';-inkscape-font-specification:'Painter PERSONAL USE ONLY, Normal';font-variant-ligatures:normal;font-variant-caps:normal;font-variant-numeric:normal;font-feature-settings:normal;text-align:start;writing-mode:lr-tb;text-anchor:start;fill:#ffffff;stroke-width:0.26458332"
         id="path1465"
         inkscape:connector-curvature="0" />
      <path
         d="m -207.89132,172.58234 q 0.32808,-0.13758 0.33867,0.16933 -0.3175,0.60325 -0.68792,1.143 -0.37042,0.52917 -0.83608,0.97367 -0.20109,0.1905 -0.46567,0.35983 -0.26458,0.15875 -0.53975,0.22225 -0.27517,0.0741 -0.55033,0.0106 -0.27517,-0.0529 -0.49742,-0.3175 -0.1905,-0.21167 -0.23283,-0.48684 -0.0423,-0.27516 0,-0.5715 0.0529,-0.29633 0.14816,-0.58208 0.10584,-0.28575 0.20109,-0.52917 0.21166,-0.47625 0.48683,-0.91016 0.28575,-0.4445 0.51858,-0.92075 -0.30691,0.24341 -0.66675,0.5715 -0.34925,0.32808 -0.59266,0.62441 -0.3175,0.381 -0.60325,0.78317 -0.28575,0.39158 -0.56092,0.80433 -0.13758,0.21167 -0.26458,0.42334 -0.127,0.20108 -0.24342,0.41275 -0.0635,0.0953 -0.15875,0.24341 -0.0952,0.13759 -0.26458,0.127 -0.127,0 -0.254,-0.0741 -0.127,-0.0741 -0.22225,-0.17992 -0.10584,-0.10583 -0.15875,-0.22225 -0.0635,-0.127 -0.0423,-0.22225 0.16934,-0.77258 0.58209,-1.48166 0.40216,-0.71967 0.8255,-1.38642 0.17991,-0.27517 0.33866,-0.5715 0.16934,-0.29633 0.37042,-0.5715 0.0953,-0.13758 0.24342,-0.1905 0.15875,-0.0529 0.43391,0.10583 0.127,0.0741 0.1905,0.14817 0.0741,0.0635 0.0741,0.16933 0,0.0952 -0.0847,0.24342 -0.0741,0.14817 -0.23283,0.37042 -0.14817,0.20108 -0.3175,0.48683 -0.15875,0.28575 -0.27517,0.51858 0.16933,-0.1905 0.40217,-0.45508 0.24341,-0.26458 0.508,-0.52917 0.26458,-0.26458 0.52916,-0.48683 0.27517,-0.22225 0.508,-0.33867 0.28575,-0.14816 0.66675,-0.10583 0.39159,0.0423 0.6985,0.33867 0.0847,0.0847 0.0741,0.14816 -0.0106,0.0529 -0.0635,0.15875 -0.0953,0.22225 -0.22225,0.4445 -0.127,0.23284 -0.26459,0.46567 -0.13758,0.22225 -0.26458,0.46567 -0.17992,0.32808 -0.39158,0.6985 -0.20109,0.35983 -0.34925,0.71966 -0.15875,0.43392 -0.0952,0.635 0.0741,0.20109 0.27516,0.20109 0.21167,-0.0106 0.51859,-0.21167 0.30691,-0.20108 0.62441,-0.58208 0.22225,-0.27517 0.43392,-0.58209 0.21167,-0.30691 0.41275,-0.67733 z"
         style="font-style:normal;font-variant:normal;font-weight:normal;font-stretch:normal;font-size:10.58333302px;font-family:'Painter PERSONAL USE ONLY';-inkscape-font-specification:'Painter PERSONAL USE ONLY, Normal';font-variant-ligatures:normal;font-variant-caps:normal;font-variant-numeric:normal;font-feature-settings:normal;text-align:start;writing-mode:lr-tb;text-anchor:start;fill:#ffffff;stroke-width:0.26458332"
         id="path1467"
         inkscape:connector-curvature="0" />
      <path
         d="m -205.34222,170.41276 q -0.127,0.14816 -0.29634,0.41275 -0.16933,0.26458 -0.32808,0.55033 -0.15875,0.28575 -0.30692,0.55033 -0.13758,0.26459 -0.21166,0.43392 -0.14817,0.32808 -0.28575,0.65617 -0.13759,0.32808 -0.24342,0.66675 -0.0847,0.3175 -0.0847,0.52916 0.0106,0.20109 0.127,0.26459 0.11642,0.0635 0.33867,-0.0318 0.22225,-0.10584 0.5715,-0.41275 0.33867,-0.30692 0.635,-0.67734 0.29633,-0.37041 0.508,-0.77258 0.28575,-0.13758 0.33867,0.16933 -0.24342,0.4445 -0.55034,0.889 -0.30691,0.43392 -0.67733,0.80434 -0.5715,0.60325 -1.03717,0.80433 -0.45508,0.1905 -0.79375,0.0423 -0.35983,-0.14816 -0.47625,-0.47625 -0.127,-0.33866 -0.11641,-0.68791 0.0212,-0.65617 0.23283,-1.29117 0.21167,-0.64558 0.52917,-1.2065 0.1905,-0.33867 0.41275,-0.68792 0.23283,-0.34925 0.52916,-0.59266 0.10584,-0.0847 0.26459,-0.127 0.15875,-0.0529 0.32808,-0.0423 0.17992,0 0.33867,0.0529 0.15875,0.0529 0.254,0.17992 z m -0.0106,-0.99484 q -0.23283,-0.0741 -0.40216,-0.27516 -0.16934,-0.21167 -0.11642,-0.508 0.0423,-0.254 0.13758,-0.48684 0.10584,-0.23283 0.37042,-0.28575 0.14817,-0.0212 0.28575,0 0.14817,0.0212 0.28575,0.0741 0.3175,0.10583 0.40217,0.28575 0.0953,0.17991 0.10583,0.26458 0.0212,0.21167 -0.0423,0.41275 -0.0529,0.20108 -0.20109,0.34925 -0.16933,0.15875 -0.39158,0.20108 -0.22225,0.0318 -0.43392,-0.0317 z"
         style="font-style:normal;font-variant:normal;font-weight:normal;font-stretch:normal;font-size:10.58333302px;font-family:'Painter PERSONAL USE ONLY';-inkscape-font-specification:'Painter PERSONAL USE ONLY, Normal';font-variant-ligatures:normal;font-variant-caps:normal;font-variant-numeric:normal;font-feature-settings:normal;text-align:start;writing-mode:lr-tb;text-anchor:start;fill:#ffffff;stroke-width:0.26458332"
         id="path1469"
         inkscape:connector-curvature="0" />
      <path
         d="m -203.37108,173.12209 q -0.11641,0.0106 -0.24341,0.0106 -0.11642,-0.0106 -0.23284,-0.0317 -0.1905,0.59267 -0.11641,0.97367 0.0847,0.381 0.35983,0.52917 0.28575,0.14816 0.73025,0.0529 0.4445,-0.0952 0.99483,-0.4445 0.4445,-0.30691 0.79375,-0.74083 0.35984,-0.4445 0.60325,-0.889 0.11642,-0.0423 0.21167,-0.0317 0.10583,0 0.127,0.20108 -0.24342,0.46567 -0.64558,0.9525 -0.39159,0.48684 -0.86784,0.89959 -0.762,0.635 -1.50283,0.84666 -0.74083,0.21167 -1.27,-0.127 -0.40217,-0.27516 -0.61383,-0.70908 -0.22225,-0.4445 -0.20109,-0.92075 0.0106,-0.4445 0.16934,-0.889 0.14816,-0.45508 0.40216,-0.86783 0.254,-0.41275 0.59267,-0.75142 0.33867,-0.34925 0.73025,-0.56092 0.39158,-0.21166 0.89958,-0.32808 0.51859,-0.11642 0.96309,0 0.22225,0.0529 0.37041,0.1905 0.14817,0.127 0.21167,0.30692 0.0741,0.16933 0.0635,0.37041 -0.0106,0.20109 -0.0847,0.40217 -0.17991,0.47625 -0.58208,0.80433 -0.39158,0.32809 -0.84667,0.508 -0.508,0.21167 -1.016,0.24342 z m 0.91017,-2.032 q -0.39158,0.33867 -0.71967,0.77258 -0.3175,0.43392 -0.53975,0.91017 0.15875,-0.0423 0.35984,-0.11642 0.3175,-0.11641 0.61383,-0.27516 0.29633,-0.16934 0.53975,-0.40217 0.21167,-0.1905 0.39158,-0.4445 0.17992,-0.254 0.15875,-0.56092 0,-0.16933 -0.10583,-0.1905 -0.10583,-0.0212 -0.24342,0.0317 -0.13758,0.0529 -0.26458,0.13759 -0.127,0.0847 -0.1905,0.13758 z"
         style="font-style:normal;font-variant:normal;font-weight:normal;font-stretch:normal;font-size:10.58333302px;font-family:'Painter PERSONAL USE ONLY';-inkscape-font-specification:'Painter PERSONAL USE ONLY, Normal';font-variant-ligatures:normal;font-variant-caps:normal;font-variant-numeric:normal;font-feature-settings:normal;text-align:start;writing-mode:lr-tb;text-anchor:start;fill:#ffffff;stroke-width:0.26458332"
         id="path1471"
         inkscape:connector-curvature="0" />
      <path
         d="m -193.9534,170.59267 q 0.13758,-0.0529 0.33867,-0.0212 0.30691,0.0635 0.49741,0.3175 0.1905,0.254 0.26459,0.53975 0.10583,0.46566 0.0106,0.96308 -0.0952,0.48683 -0.29633,0.93133 0.33866,0.13759 0.65616,-0.0741 0.32809,-0.21167 0.5715,-0.66675 0.30692,-0.13758 0.33867,0.16933 -0.33867,0.64559 -0.84667,1.00542 -0.49741,0.34925 -1.22766,0.40217 -0.16934,0.22225 -0.37042,0.4445 -0.1905,0.21166 -0.41275,0.381 -0.22225,0.16933 -0.48683,0.28575 -0.254,0.10583 -0.53975,0.127 -0.34925,0.0212 -0.635,-0.10584 -0.28575,-0.11641 -0.49742,-0.33866 -0.21167,-0.23284 -0.33867,-0.52917 -0.127,-0.29633 -0.15875,-0.62442 -0.0317,-0.37041 0.0318,-0.74083 0.0635,-0.381 0.20109,-0.74083 0.14816,-0.35984 0.35983,-0.67734 0.21167,-0.3175 0.47625,-0.5715 0.26458,-0.24341 0.58208,-0.41275 0.32809,-0.16933 0.68792,-0.20108 0.17992,-0.0212 0.381,0.0106 0.21167,0.0212 0.381,0.10584 z m -0.508,2.3495 q 0.17992,-0.15875 0.381,-0.254 0.21167,-0.0953 0.381,-0.0106 0.0741,0.0423 0.127,0.11642 0.0847,-0.28575 0.0952,-0.59267 0.0212,-0.30692 -0.0529,-0.61383 -0.0529,-0.17992 -0.15875,-0.28575 -0.0953,-0.11642 -0.24341,-0.22225 -0.1905,-0.0106 -0.35984,0.0317 -0.16933,0.0423 -0.32808,0.127 -0.26458,0.13758 -0.49742,0.41275 -0.23283,0.26458 -0.41275,0.60325 -0.16933,0.32808 -0.28575,0.68791 -0.10583,0.35984 -0.127,0.68792 -0.0106,0.3175 0.0741,0.5715 0.0847,0.24342 0.30691,0.34925 0.26459,0.13758 0.61384,0.0212 0.34925,-0.127 0.66675,-0.49742 -0.14817,-0.0529 -0.27517,-0.13758 -0.11642,-0.0952 -0.17992,-0.23284 -0.0847,-0.17991 0,-0.381 0.0952,-0.21166 0.27517,-0.381 z"
         style="font-style:normal;font-variant:normal;font-weight:normal;font-stretch:normal;font-size:10.58333302px;font-family:'Painter PERSONAL USE ONLY';-inkscape-font-specification:'Painter PERSONAL USE ONLY, Normal';font-variant-ligatures:normal;font-variant-caps:normal;font-variant-numeric:normal;font-feature-settings:normal;text-align:start;writing-mode:lr-tb;text-anchor:start;fill:#ffffff;stroke-width:0.26458332"
         id="path1473"
         inkscape:connector-curvature="0" />
      <path
         d="m -185.11996,167.98917 q -0.14816,0.27517 -0.39158,0.70909 -0.24342,0.42333 -0.53975,0.9525 -0.29633,0.51858 -0.61383,1.11125 -0.3175,0.59266 -0.62442,1.19591 -0.29633,0.60325 -0.56092,1.19592 -0.254,0.58208 -0.42333,1.10067 -0.0529,0.17991 -0.0212,0.27516 0.0423,0.0847 0.13759,0.0952 0.10583,0 0.26458,-0.0635 0.15875,-0.0741 0.34925,-0.22225 0.15875,-0.127 0.32808,-0.3175 0.17992,-0.1905 0.35984,-0.42333 0.17991,-0.23283 0.33866,-0.48683 0.16934,-0.26459 0.3175,-0.52917 0.13759,-0.0741 0.23284,-0.0106 0.10583,0.0529 0.10583,0.17991 -0.30692,0.5715 -0.75142,1.143 -0.43391,0.5715 -0.9525,1.016 -0.24341,0.21167 -0.48683,0.33867 -0.23283,0.11642 -0.45508,0.13758 -0.21167,0.0212 -0.40217,-0.0741 -0.1905,-0.0847 -0.32808,-0.29633 -0.11642,-0.16934 -0.15875,-0.34925 -0.0317,-0.1905 -0.0212,-0.40217 -0.17992,0.23283 -0.40217,0.46567 -0.22225,0.22225 -0.48683,0.381 -0.254,0.15875 -0.53975,0.21166 -0.28575,0.0529 -0.58208,-0.0635 -0.30692,-0.11641 -0.47625,-0.34925 -0.16934,-0.23283 -0.23284,-0.51858 -0.0741,-0.28575 -0.0635,-0.58208 0.0106,-0.30692 0.0741,-0.58209 0.13758,-0.60325 0.4445,-1.143 0.3175,-0.53975 0.73025,-0.98425 0.21166,-0.22225 0.47625,-0.42333 0.26458,-0.20108 0.56091,-0.32808 0.30692,-0.127 0.62442,-0.15875 0.3175,-0.0423 0.635,0.0529 0.27517,0.0847 0.41275,0.24342 0.14817,0.15875 0.21167,0.35983 0.14816,-0.27516 0.29633,-0.52916 0.15875,-0.26459 0.3175,-0.52917 0.23283,-0.39158 0.51858,-0.85725 0.29634,-0.46567 0.60325,-0.79375 0.127,-0.13758 0.28575,-0.20108 0.16934,-0.0741 0.33867,-0.0847 0.16933,-0.0212 0.3175,0.0212 0.14817,0.0317 0.23283,0.11641 z m -4.36033,5.54567 q 0.29633,-0.33867 0.47625,-0.75142 0.1905,-0.41275 0.42333,-0.889 0.0953,-0.21166 0.10584,-0.43391 0.0212,-0.23284 -0.0635,-0.39159 -0.0741,-0.15875 -0.254,-0.20108 -0.16934,-0.0423 -0.46567,0.10583 -0.27517,0.14817 -0.508,0.381 -0.22225,0.22225 -0.41275,0.49742 -0.17992,0.27517 -0.32808,0.5715 -0.13759,0.29633 -0.24342,0.58208 -0.0423,0.0952 -0.0952,0.27517 -0.0529,0.16933 -0.10583,0.37042 -0.0423,0.1905 -0.0529,0.381 -0.0106,0.17991 0.0423,0.29633 0.0635,0.10583 0.20109,0.11642 0.13758,0.0106 0.40216,-0.13759 0.254,-0.14816 0.47625,-0.33866 0.22225,-0.20109 0.40217,-0.43392 z"
         style="font-style:normal;font-variant:normal;font-weight:normal;font-stretch:normal;font-size:10.58333302px;font-family:'Painter PERSONAL USE ONLY';-inkscape-font-specification:'Painter PERSONAL USE ONLY, Normal';font-variant-ligatures:normal;font-variant-caps:normal;font-variant-numeric:normal;font-feature-settings:normal;text-align:start;writing-mode:lr-tb;text-anchor:start;fill:#ffffff;stroke-width:0.26458332"
         id="path1475"
         inkscape:connector-curvature="0" />
      <path
         d="m -175.85954,167.98917 q -0.14816,0.27517 -0.39158,0.70909 -0.24342,0.42333 -0.53975,0.9525 -0.29633,0.51858 -0.61383,1.11125 -0.3175,0.59266 -0.62442,1.19591 -0.29633,0.60325 -0.56092,1.19592 -0.254,0.58208 -0.42333,1.10067 -0.0529,0.17991 -0.0212,0.27516 0.0423,0.0847 0.13759,0.0952 0.10583,0 0.26458,-0.0635 0.15875,-0.0741 0.34925,-0.22225 0.15875,-0.127 0.32808,-0.3175 0.17992,-0.1905 0.35984,-0.42333 0.17991,-0.23283 0.33866,-0.48683 0.16934,-0.26459 0.3175,-0.52917 0.13759,-0.0741 0.23284,-0.0106 0.10583,0.0529 0.10583,0.17991 -0.30692,0.5715 -0.75142,1.143 -0.43391,0.5715 -0.9525,1.016 -0.24341,0.21167 -0.48683,0.33867 -0.23283,0.11642 -0.45508,0.13758 -0.21167,0.0212 -0.40217,-0.0741 -0.1905,-0.0847 -0.32808,-0.29633 -0.11642,-0.16934 -0.15875,-0.34925 -0.0318,-0.1905 -0.0212,-0.40217 -0.17992,0.23283 -0.40217,0.46567 -0.22225,0.22225 -0.48683,0.381 -0.254,0.15875 -0.53975,0.21166 -0.28575,0.0529 -0.58208,-0.0635 -0.30692,-0.11641 -0.47625,-0.34925 -0.16934,-0.23283 -0.23284,-0.51858 -0.0741,-0.28575 -0.0635,-0.58208 0.0106,-0.30692 0.0741,-0.58209 0.13758,-0.60325 0.4445,-1.143 0.3175,-0.53975 0.73025,-0.98425 0.21166,-0.22225 0.47625,-0.42333 0.26458,-0.20108 0.56091,-0.32808 0.30692,-0.127 0.62442,-0.15875 0.3175,-0.0423 0.635,0.0529 0.27517,0.0847 0.41275,0.24342 0.14817,0.15875 0.21167,0.35983 0.14816,-0.27516 0.29633,-0.52916 0.15875,-0.26459 0.3175,-0.52917 0.23283,-0.39158 0.51858,-0.85725 0.29634,-0.46567 0.60325,-0.79375 0.127,-0.13758 0.28575,-0.20108 0.16934,-0.0741 0.33867,-0.0847 0.16933,-0.0212 0.3175,0.0212 0.14817,0.0317 0.23283,0.11641 z m -4.36033,5.54567 q 0.29633,-0.33867 0.47625,-0.75142 0.1905,-0.41275 0.42333,-0.889 0.0952,-0.21166 0.10584,-0.43391 0.0212,-0.23284 -0.0635,-0.39159 -0.0741,-0.15875 -0.254,-0.20108 -0.16934,-0.0423 -0.46567,0.10583 -0.27517,0.14817 -0.508,0.381 -0.22225,0.22225 -0.41275,0.49742 -0.17992,0.27517 -0.32808,0.5715 -0.13759,0.29633 -0.24342,0.58208 -0.0423,0.0952 -0.0952,0.27517 -0.0529,0.16933 -0.10583,0.37042 -0.0423,0.1905 -0.0529,0.381 -0.0106,0.17991 0.0423,0.29633 0.0635,0.10583 0.20109,0.11642 0.13758,0.0106 0.40216,-0.13759 0.254,-0.14816 0.47625,-0.33866 0.22225,-0.20109 0.40217,-0.43392 z"
         style="font-style:normal;font-variant:normal;font-weight:normal;font-stretch:normal;font-size:10.58333302px;font-family:'Painter PERSONAL USE ONLY';-inkscape-font-specification:'Painter PERSONAL USE ONLY, Normal';font-variant-ligatures:normal;font-variant-caps:normal;font-variant-numeric:normal;font-feature-settings:normal;text-align:start;writing-mode:lr-tb;text-anchor:start;fill:#ffffff;stroke-width:0.26458332"
         id="path1477"
         inkscape:connector-curvature="0" />
      <path
         d="m -175.40379,173.12209 q -0.11642,0.0106 -0.24342,0.0106 -0.11642,-0.0106 -0.23283,-0.0317 -0.1905,0.59267 -0.11642,0.97367 0.0847,0.381 0.35983,0.52917 0.28575,0.14816 0.73025,0.0529 0.4445,-0.0952 0.99484,-0.4445 0.4445,-0.30691 0.79375,-0.74083 0.35983,-0.4445 0.60325,-0.889 0.11641,-0.0423 0.21166,-0.0317 0.10584,0 0.127,0.20108 -0.24341,0.46567 -0.64558,0.9525 -0.39158,0.48684 -0.86783,0.89959 -0.762,0.635 -1.50284,0.84666 -0.74083,0.21167 -1.27,-0.127 -0.40216,-0.27516 -0.61383,-0.70908 -0.22225,-0.4445 -0.20108,-0.92075 0.0106,-0.4445 0.16933,-0.889 0.14817,-0.45508 0.40217,-0.86783 0.254,-0.41275 0.59266,-0.75142 0.33867,-0.34925 0.73025,-0.56092 0.39159,-0.21166 0.89959,-0.32808 0.51858,-0.11642 0.96308,0 0.22225,0.0529 0.37042,0.1905 0.14816,0.127 0.21166,0.30692 0.0741,0.16933 0.0635,0.37041 -0.0106,0.20109 -0.0847,0.40217 -0.17992,0.47625 -0.58209,0.80433 -0.39158,0.32809 -0.84666,0.508 -0.508,0.21167 -1.016,0.24342 z m 0.91016,-2.032 q -0.39158,0.33867 -0.71966,0.77258 -0.3175,0.43392 -0.53975,0.91017 0.15875,-0.0423 0.35983,-0.11642 0.3175,-0.11641 0.61383,-0.27516 0.29634,-0.16934 0.53975,-0.40217 0.21167,-0.1905 0.39159,-0.4445 0.17991,-0.254 0.15875,-0.56092 0,-0.16933 -0.10584,-0.1905 -0.10583,-0.0212 -0.24341,0.0317 -0.13759,0.0529 -0.26459,0.13759 -0.127,0.0847 -0.1905,0.13758 z"
         style="font-style:normal;font-variant:normal;font-weight:normal;font-stretch:normal;font-size:10.58333302px;font-family:'Painter PERSONAL USE ONLY';-inkscape-font-specification:'Painter PERSONAL USE ONLY, Normal';font-variant-ligatures:normal;font-variant-caps:normal;font-variant-numeric:normal;font-feature-settings:normal;text-align:start;writing-mode:lr-tb;text-anchor:start;fill:#ffffff;stroke-width:0.26458332"
         id="path1479"
         inkscape:connector-curvature="0" />
      <path
         d="m -166.59929,169.43909 q 0.10583,-0.0212 0.21167,0.0952 0.11641,0.10583 0.16933,0.22225 0.127,0.14817 0.0635,0.28575 -0.0529,0.127 -0.127,0.29633 -0.11642,0.27517 -0.23283,0.53975 -0.11642,0.26459 -0.24342,0.52917 0.10583,0.15875 0.30692,0.22225 0.21166,0.0529 0.46566,0.0106 0.26459,-0.0529 0.52917,-0.20108 0.27517,-0.14817 0.508,-0.40217 -0.0635,0.40217 -0.34925,0.6985 -0.28575,0.29634 -0.67733,0.40217 -0.33867,0.0847 -0.60325,0.0529 -0.26459,-0.0423 -0.46567,-0.17992 -0.24342,0.47625 -0.51858,0.93133 -0.26459,0.4445 -0.55034,0.889 -0.0529,0.0847 -0.21166,0.29634 -0.14817,0.21166 -0.32809,0.45508 -0.16933,0.24342 -0.33866,0.46567 -0.15875,0.21166 -0.22225,0.28575 -0.22225,0.254 -0.45509,0.0635 -0.32808,-0.26459 -0.42333,-0.47625 -0.0847,-0.21167 -0.0741,-0.35984 0.0106,-0.635 0.20108,-1.24883 0.20108,-0.62442 0.381,-1.23825 -0.23283,0.34925 -0.45508,0.6985 -0.21167,0.34925 -0.42334,0.70908 -0.17991,0.30692 -0.33866,0.61384 -0.15875,0.29633 -0.30692,0.60325 -0.0529,0.10583 -0.11642,0.21166 -0.0529,0.10584 -0.0847,0.22225 -0.0317,0.10584 -0.0635,0.14817 -0.0318,0.0423 -0.15875,0.0529 -0.0635,0 -0.20109,-0.0423 -0.127,-0.0529 -0.27516,-0.13758 -0.14817,-0.0847 -0.27517,-0.20108 -0.127,-0.11642 -0.16933,-0.24342 -0.0423,-0.11642 -0.0317,-0.26458 0.0106,-0.15875 0.0317,-0.27517 0.0212,-0.33867 0.0635,-0.68792 0.0423,-0.34925 0.10583,-0.6985 -0.17992,0.0106 -0.22225,-0.20108 0.17992,-0.30692 0.32808,-0.635 0.14817,-0.32808 0.29634,-0.635 0.22225,-0.45508 0.32808,-0.77258 0.11642,-0.3175 0.27517,-0.40217 0.0952,-0.0529 0.28575,-0.0212 0.1905,0.0212 0.30691,0.0741 0.11642,0.0635 0.21167,0.15875 0.10583,0.0847 0.13758,0.1905 0.0212,0.0635 -0.0106,0.14816 -0.0318,0.0847 -0.0529,0.14817 -0.0212,0.0635 -0.13758,0.33867 -0.11642,0.26458 -0.27517,0.68791 -0.14816,0.41275 -0.30691,0.97367 -0.14817,0.56092 -0.254,1.2065 l 0.28575,-0.53975 q 0.6985,-1.31233 1.60866,-2.52942 0.0529,-0.0635 0.14817,-0.17991 0.0952,-0.11642 0.1905,-0.23284 0.0952,-0.11641 0.16933,-0.20108 0.0741,-0.0847 0.0847,-0.0952 0.0529,-0.0317 0.16933,-0.0212 0.11642,0.0106 0.23284,0.0635 0.127,0.0423 0.22225,0.11642 0.10583,0.0635 0.11641,0.127 0.0212,0.0529 0,0.13758 -0.0212,0.0847 -0.0423,0.13759 -0.0317,0.0952 -0.0952,0.29633 -0.0529,0.1905 -0.127,0.4445 -0.0635,0.24342 -0.13758,0.51858 -0.0635,0.27517 -0.11642,0.52917 -0.0318,0.15875 -0.0847,0.41275 -0.0529,0.254 -0.10583,0.49742 -0.0423,0.24341 -0.0847,0.42333 -0.0317,0.16933 -0.0317,0.16933 0.22225,-0.254 0.43392,-0.56091 0.21167,-0.3175 0.40217,-0.65617 0.1905,-0.34925 0.35983,-0.6985 0.16933,-0.35983 0.3175,-0.6985 -0.0423,-0.0952 -0.0529,-0.16933 -0.0953,-0.39159 0.0106,-0.77259 0.11641,-0.39158 0.35983,-0.6985 0.0847,-0.11641 0.23283,-0.254 0.15875,-0.14816 0.30692,-0.16933 z"
         style="font-style:normal;font-variant:normal;font-weight:normal;font-stretch:normal;font-size:10.58333302px;font-family:'Painter PERSONAL USE ONLY';-inkscape-font-specification:'Painter PERSONAL USE ONLY, Normal';font-variant-ligatures:normal;font-variant-caps:normal;font-variant-numeric:normal;font-feature-settings:normal;text-align:start;writing-mode:lr-tb;text-anchor:start;fill:#ffffff;stroke-width:0.26458332"
         id="path1481"
         inkscape:connector-curvature="0" />
      <path
         d="m -164.51041,173.12209 q -0.11641,0.0106 -0.24341,0.0106 -0.11642,-0.0106 -0.23284,-0.0317 -0.1905,0.59267 -0.11641,0.97367 0.0847,0.381 0.35983,0.52917 0.28575,0.14816 0.73025,0.0529 0.4445,-0.0952 0.99483,-0.4445 0.4445,-0.30691 0.79375,-0.74083 0.35984,-0.4445 0.60325,-0.889 0.11642,-0.0423 0.21167,-0.0317 0.10583,0 0.127,0.20108 -0.24342,0.46567 -0.64558,0.9525 -0.39159,0.48684 -0.86784,0.89959 -0.762,0.635 -1.50283,0.84666 -0.74083,0.21167 -1.27,-0.127 -0.40217,-0.27516 -0.61383,-0.70908 -0.22225,-0.4445 -0.20109,-0.92075 0.0106,-0.4445 0.16934,-0.889 0.14816,-0.45508 0.40216,-0.86783 0.254,-0.41275 0.59267,-0.75142 0.33867,-0.34925 0.73025,-0.56092 0.39158,-0.21166 0.89958,-0.32808 0.51859,-0.11642 0.96309,0 0.22225,0.0529 0.37041,0.1905 0.14817,0.127 0.21167,0.30692 0.0741,0.16933 0.0635,0.37041 -0.0106,0.20109 -0.0847,0.40217 -0.17991,0.47625 -0.58208,0.80433 -0.39158,0.32809 -0.84667,0.508 -0.508,0.21167 -1.016,0.24342 z m 0.91017,-2.032 q -0.39158,0.33867 -0.71967,0.77258 -0.3175,0.43392 -0.53975,0.91017 0.15875,-0.0423 0.35984,-0.11642 0.3175,-0.11641 0.61383,-0.27516 0.29633,-0.16934 0.53975,-0.40217 0.21167,-0.1905 0.39158,-0.4445 0.17992,-0.254 0.15875,-0.56092 0,-0.16933 -0.10583,-0.1905 -0.10583,-0.0212 -0.24342,0.0317 -0.13758,0.0529 -0.26458,0.13759 -0.127,0.0847 -0.1905,0.13758 z"
         style="font-style:normal;font-variant:normal;font-weight:normal;font-stretch:normal;font-size:10.58333302px;font-family:'Painter PERSONAL USE ONLY';-inkscape-font-specification:'Painter PERSONAL USE ONLY, Normal';font-variant-ligatures:normal;font-variant-caps:normal;font-variant-numeric:normal;font-feature-settings:normal;text-align:start;writing-mode:lr-tb;text-anchor:start;fill:#ffffff;stroke-width:0.26458332"
         id="path1483"
         inkscape:connector-curvature="0" />
      <path
         d="m -157.52623,167.78809 q 0.0847,0 0.17992,0.0317 0.0847,-0.0741 0.20108,-0.0317 0.11642,0.0317 0.16933,0.0952 0.0741,0.0847 0.0847,0.21167 0.0212,0.127 0.0106,0.23283 -0.0212,0.37042 -0.20108,0.73025 -0.16933,0.35983 -0.35983,0.66675 -0.21167,0.37042 -0.47625,0.70908 -0.254,0.33867 -0.53975,0.66675 -0.32809,0.37042 -0.68792,0.73025 -0.34925,0.34925 -0.73025,0.66675 -0.11642,0.0847 -0.22225,0.16934 -0.10583,0.0847 -0.21167,0.16933 -0.0317,0.0212 -0.0635,0.0635 -0.0317,0.0317 -0.0741,0.0529 -0.0529,0.14816 -0.10583,0.28575 -0.0423,0.13758 -0.0953,0.28575 -0.0635,0.22225 -0.0952,0.48683 -0.0212,0.26458 0.0529,0.45508 0.0741,0.1905 0.27517,0.24342 0.21167,0.0529 0.59267,-0.15875 0.21166,-0.11642 0.45508,-0.3175 0.254,-0.21167 0.49742,-0.46567 0.254,-0.26458 0.47625,-0.5715 0.23283,-0.30691 0.39158,-0.61383 0.13758,-0.0529 0.22225,-0.0212 0.0847,0.0317 0.11642,0.1905 -0.15875,0.30692 -0.37042,0.635 -0.21167,0.32809 -0.47625,0.64559 -0.254,0.3175 -0.56092,0.60325 -0.29633,0.28575 -0.64558,0.508 -0.40217,0.254 -0.80433,0.30691 -0.40217,0.0529 -0.71967,-0.10583 -0.3175,-0.14817 -0.508,-0.49742 -0.20108,-0.35983 -0.17992,-0.92075 0.0106,-0.34925 0.0952,-0.6985 0.0847,-0.34925 0.22225,-0.67733 0.127,-0.33867 0.29634,-0.65617 0.16933,-0.3175 0.33866,-0.60325 0.381,-0.64558 0.79375,-1.28058 0.42334,-0.64558 0.94192,-1.18533 0.21167,-0.22225 0.43392,-0.41275 0.23283,-0.20109 0.49741,-0.34925 0.17992,-0.11642 0.37042,-0.1905 0.20108,-0.0847 0.41275,-0.0847 z m -2.46592,4.20158 q 0.24342,-0.22225 0.47625,-0.46566 0.23284,-0.24342 0.45509,-0.49742 0.28575,-0.33867 0.55033,-0.6985 0.26458,-0.35983 0.508,-0.73025 0.17992,-0.26458 0.3175,-0.52917 0.14817,-0.27516 0.24342,-0.58208 -0.1905,0.17992 -0.39159,0.35983 -0.1905,0.17992 -0.37041,0.381 -0.40217,0.508 -0.762,1.04775 -0.34925,0.52917 -0.67734,1.09009 z"
         style="font-style:normal;font-variant:normal;font-weight:normal;font-stretch:normal;font-size:10.58333302px;font-family:'Painter PERSONAL USE ONLY';-inkscape-font-specification:'Painter PERSONAL USE ONLY, Normal';font-variant-ligatures:normal;font-variant-caps:normal;font-variant-numeric:normal;font-feature-settings:normal;text-align:start;writing-mode:lr-tb;text-anchor:start;fill:#ffffff;stroke-width:0.26458332"
         id="path1485"
         inkscape:connector-curvature="0" />
      <path
         d="m -155.03072,170.59267 q 0.13759,-0.0529 0.33867,-0.0212 0.30692,0.0635 0.49742,0.3175 0.1905,0.254 0.26458,0.53975 0.10583,0.46566 0.0106,0.96308 -0.0953,0.48683 -0.29633,0.93133 0.33867,0.13759 0.65617,-0.0741 0.32808,-0.21167 0.5715,-0.66675 0.30691,-0.13758 0.33866,0.16933 -0.33866,0.64559 -0.84666,1.00542 -0.49742,0.34925 -1.22767,0.40217 -0.16933,0.22225 -0.37042,0.4445 -0.1905,0.21166 -0.41275,0.381 -0.22225,0.16933 -0.48683,0.28575 -0.254,0.10583 -0.53975,0.127 -0.34925,0.0212 -0.635,-0.10584 -0.28575,-0.11641 -0.49742,-0.33866 -0.21166,-0.23284 -0.33866,-0.52917 -0.127,-0.29633 -0.15875,-0.62442 -0.0318,-0.37041 0.0317,-0.74083 0.0635,-0.381 0.20108,-0.74083 0.14817,-0.35984 0.35983,-0.67734 0.21167,-0.3175 0.47625,-0.5715 0.26459,-0.24341 0.58209,-0.41275 0.32808,-0.16933 0.68791,-0.20108 0.17992,-0.0212 0.381,0.0106 0.21167,0.0212 0.381,0.10584 z m -0.508,2.3495 q 0.17992,-0.15875 0.381,-0.254 0.21167,-0.0953 0.381,-0.0106 0.0741,0.0423 0.127,0.11642 0.0847,-0.28575 0.0952,-0.59267 0.0212,-0.30692 -0.0529,-0.61383 -0.0529,-0.17992 -0.15875,-0.28575 -0.0952,-0.11642 -0.24342,-0.22225 -0.1905,-0.0106 -0.35983,0.0317 -0.16934,0.0423 -0.32809,0.127 -0.26458,0.13758 -0.49741,0.41275 -0.23284,0.26458 -0.41275,0.60325 -0.16934,0.32808 -0.28575,0.68791 -0.10584,0.35984 -0.127,0.68792 -0.0106,0.3175 0.0741,0.5715 0.0847,0.24342 0.30692,0.34925 0.26458,0.13758 0.61383,0.0212 0.34925,-0.127 0.66675,-0.49742 -0.14817,-0.0529 -0.27517,-0.13758 -0.11641,-0.0952 -0.17991,-0.23284 -0.0847,-0.17991 0,-0.381 0.0953,-0.21166 0.27516,-0.381 z"
         style="font-style:normal;font-variant:normal;font-weight:normal;font-stretch:normal;font-size:10.58333302px;font-family:'Painter PERSONAL USE ONLY';-inkscape-font-specification:'Painter PERSONAL USE ONLY, Normal';font-variant-ligatures:normal;font-variant-caps:normal;font-variant-numeric:normal;font-feature-settings:normal;text-align:start;writing-mode:lr-tb;text-anchor:start;fill:#ffffff;stroke-width:0.26458332"
         id="path1487"
         inkscape:connector-curvature="0" />
      <path
         d="m -148.47268,172.58234 q 0.14816,-0.0529 0.23283,-0.0212 0.0847,0.0317 0.10583,0.1905 -0.3175,0.62442 -0.6985,1.12184 -0.37041,0.49741 -0.80433,0.84666 -0.42333,0.33867 -0.89958,0.508 -0.46567,0.15875 -0.98425,0.127 -0.47625,-0.0317 -0.8255,-0.27516 -0.34925,-0.24342 -0.46567,-0.67734 l -0.34925,0.68792 -0.58208,1.13242 q -0.0318,0.0635 -0.11642,0.254 -0.0952,0.20108 -0.20108,0.4445 -0.10584,0.24341 -0.1905,0.48683 -0.0952,0.254 -0.11642,0.41275 -0.15875,-0.0635 -0.30692,-0.15875 -0.14816,-0.0952 -0.26458,-0.22225 -0.11642,-0.11642 -0.17992,-0.254 -0.0635,-0.127 -0.0423,-0.26458 0.0529,-0.27517 0.1905,-0.55034 0.127,-0.26458 0.24342,-0.508 0.3175,-0.66675 0.67733,-1.31233 0.34925,-0.64558 0.68792,-1.30175 0.40216,-0.75142 0.77258,-1.50283 0.381,-0.762 0.70908,-1.55575 0.0212,-0.0317 0.16934,-0.0423 0.15875,-0.0106 0.30691,0.0423 0.15875,0.0529 0.24342,0.1905 0.0953,0.13758 -0.0106,0.42333 l -0.1905,0.47625 q 0.21166,-0.23283 0.4445,-0.42333 0.24341,-0.1905 0.52916,-0.32809 0.21167,-0.0952 0.49742,-0.0847 0.28575,0 0.46567,0.14816 0.1905,0.14817 0.254,0.381 0.0635,0.22225 0.0741,0.46567 0.0318,0.49742 -0.16933,1.016 -0.20109,0.51858 -0.4445,0.99483 -0.15875,0.3175 -0.34925,0.61384 -0.17992,0.28575 -0.42334,0.55033 0.3175,-0.0741 0.60325,-0.27517 0.29634,-0.21166 0.55034,-0.48683 0.254,-0.28575 0.46566,-0.61383 0.21167,-0.32809 0.39159,-0.65617 z m -4.03225,1.2065 q 0.0317,0.20108 0.10583,0.35983 0.0741,0.15875 0.1905,0.23284 0.11642,0.0741 0.27517,0.0318 0.15875,-0.0423 0.34925,-0.254 0.45508,-0.47625 0.75141,-1.0795 0.30692,-0.60325 0.47625,-1.23825 0.0212,-0.0635 0.0423,-0.1905 0.0317,-0.13759 0.0317,-0.26459 0,-0.13758 -0.0423,-0.23283 -0.0317,-0.0953 -0.13758,-0.0847 -0.127,0.0106 -0.27517,0.0953 -0.13758,0.0741 -0.28575,0.1905 -0.13758,0.10584 -0.26458,0.24342 -0.127,0.127 -0.22225,0.23283 -0.0423,0.0423 -0.0741,0.0847 -0.0317,0.0317 -0.0635,0.0741 l -0.41275,0.889 z"
         style="font-style:normal;font-variant:normal;font-weight:normal;font-stretch:normal;font-size:10.58333302px;font-family:'Painter PERSONAL USE ONLY';-inkscape-font-specification:'Painter PERSONAL USE ONLY, Normal';font-variant-ligatures:normal;font-variant-caps:normal;font-variant-numeric:normal;font-feature-settings:normal;text-align:start;writing-mode:lr-tb;text-anchor:start;fill:#ffffff;stroke-width:0.26458332"
         id="path1489"
         inkscape:connector-curvature="0" />
      <path
         d="m -146.91975,173.12209 q -0.11641,0.0106 -0.24341,0.0106 -0.11642,-0.0106 -0.23284,-0.0317 -0.1905,0.59267 -0.11641,0.97367 0.0847,0.381 0.35983,0.52917 0.28575,0.14816 0.73025,0.0529 0.4445,-0.0952 0.99483,-0.4445 0.4445,-0.30691 0.79375,-0.74083 0.35984,-0.4445 0.60325,-0.889 0.11642,-0.0423 0.21167,-0.0317 0.10583,0 0.127,0.20108 -0.24342,0.46567 -0.64558,0.9525 -0.39159,0.48684 -0.86784,0.89959 -0.762,0.635 -1.50283,0.84666 -0.74083,0.21167 -1.27,-0.127 -0.40217,-0.27516 -0.61383,-0.70908 -0.22225,-0.4445 -0.20109,-0.92075 0.0106,-0.4445 0.16934,-0.889 0.14816,-0.45508 0.40216,-0.86783 0.254,-0.41275 0.59267,-0.75142 0.33867,-0.34925 0.73025,-0.56092 0.39158,-0.21166 0.89958,-0.32808 0.51859,-0.11642 0.96309,0 0.22225,0.0529 0.37041,0.1905 0.14817,0.127 0.21167,0.30692 0.0741,0.16933 0.0635,0.37041 -0.0106,0.20109 -0.0847,0.40217 -0.17991,0.47625 -0.58208,0.80433 -0.39158,0.32809 -0.84667,0.508 -0.508,0.21167 -1.016,0.24342 z m 0.91017,-2.032 q -0.39158,0.33867 -0.71967,0.77258 -0.3175,0.43392 -0.53975,0.91017 0.15875,-0.0423 0.35984,-0.11642 0.3175,-0.11641 0.61383,-0.27516 0.29633,-0.16934 0.53975,-0.40217 0.21167,-0.1905 0.39158,-0.4445 0.17992,-0.254 0.15875,-0.56092 0,-0.16933 -0.10583,-0.1905 -0.10583,-0.0212 -0.24342,0.0317 -0.13758,0.0529 -0.26458,0.13759 -0.127,0.0847 -0.1905,0.13758 z"
         style="font-style:normal;font-variant:normal;font-weight:normal;font-stretch:normal;font-size:10.58333302px;font-family:'Painter PERSONAL USE ONLY';-inkscape-font-specification:'Painter PERSONAL USE ONLY, Normal';font-variant-ligatures:normal;font-variant-caps:normal;font-variant-numeric:normal;font-feature-settings:normal;text-align:start;writing-mode:lr-tb;text-anchor:start;fill:#ffffff;stroke-width:0.26458332"
         id="path1491"
         inkscape:connector-curvature="0" />
      <path
         d="m -145.33307,174.37092 q 0.64558,-0.74083 1.16417,-1.5875 0.51858,-0.85725 0.87841,-1.83091 -0.127,-0.24342 -0.10583,-0.48684 0.0212,-0.24341 0.11642,-0.42333 0.10583,-0.17992 0.26458,-0.254 0.15875,-0.0741 0.3175,0.0317 0.17992,0.11642 0.14817,0.33867 -0.0317,0.21166 -0.11642,0.42333 0.0741,0.0423 0.16933,0.0423 0.10584,0 0.17992,0 0.27517,-0.0212 0.508,-0.0952 0.14817,-0.21166 0.27517,-0.28575 0.127,-0.0847 0.30691,0.0635 0.42334,0.32809 0.47625,0.62442 0.0635,0.28575 -0.17991,0.53975 -0.40217,0.51858 -0.78317,1.11125 -0.381,0.59267 -0.5715,1.10067 -0.13758,0.37041 -0.11642,0.60325 0.0212,0.22225 0.15875,0.29633 0.13759,0.0635 0.35984,-0.0212 0.23283,-0.0847 0.508,-0.32808 0.30691,-0.27517 0.64558,-0.71967 0.33867,-0.4445 0.59267,-0.93133 0.14816,-0.0847 0.23283,-0.0106 0.0952,0.0635 0.10583,0.17991 -0.28575,0.53975 -0.59266,0.99484 -0.29634,0.45508 -0.70909,0.86783 -0.33866,0.33867 -0.68791,0.508 -0.34925,0.15875 -0.66675,0.17992 -0.3175,0.0212 -0.5715,-0.10584 -0.254,-0.127 -0.40217,-0.37041 -0.14817,-0.254 -0.15875,-0.61384 -0.0106,-0.37041 0.16933,-0.83608 0.21167,-0.56092 0.52917,-1.11125 0.3175,-0.55033 0.61383,-0.93133 -0.0847,0 -0.11641,-0.0106 -0.0953,-0.0106 -0.24342,-0.0423 -0.14817,-0.0423 -0.29633,-0.10583 -0.11642,0.30691 -0.29634,0.73025 -0.17991,0.41275 -0.42333,0.85725 -0.20108,0.381 -0.40217,0.6985 -0.21166,0.3175 -0.42333,0.52916 -0.21167,0.21167 -0.42333,0.3175 -0.22225,0.10584 -0.43392,0.0635 z"
         style="font-style:normal;font-variant:normal;font-weight:normal;font-stretch:normal;font-size:10.58333302px;font-family:'Painter PERSONAL USE ONLY';-inkscape-font-specification:'Painter PERSONAL USE ONLY, Normal';font-variant-ligatures:normal;font-variant-caps:normal;font-variant-numeric:normal;font-feature-settings:normal;text-align:start;writing-mode:lr-tb;text-anchor:start;fill:#ffffff;stroke-width:0.26458332"
         id="path1493"
         inkscape:connector-curvature="0" />
      <path
         d="m -134.90651,170.63501 q -0.11641,0.15875 -0.28575,0.41275 -0.15875,0.254 -0.33866,0.55033 -0.17992,0.29633 -0.35984,0.61383 -0.16933,0.3175 -0.30691,0.60325 -0.28575,0.59267 -0.4445,0.99484 -0.15875,0.40216 -0.0847,0.51858 0.0318,0.0529 0.10583,0.0529 0.0847,-0.0106 0.17992,-0.0423 0.0952,-0.0317 0.16933,-0.0741 0.0847,-0.0529 0.11642,-0.0741 0.23283,-0.14817 0.41275,-0.33867 0.17992,-0.20108 0.33867,-0.41275 0.14816,-0.20108 0.28575,-0.42333 0.13758,-0.22225 0.254,-0.43392 0.127,-0.0317 0.21166,0 0.0952,0.0318 0.127,0.16933 -0.14816,0.27517 -0.28575,0.53975 -0.13758,0.26459 -0.3175,0.51859 -0.16933,0.254 -0.35983,0.48683 -0.17992,0.23283 -0.39158,0.4445 -0.20109,0.20108 -0.4445,0.35983 -0.23284,0.14817 -0.52917,0.13759 -0.29633,0 -0.52917,-0.16934 -0.23283,-0.16933 -0.33866,-0.4445 -0.0529,-0.127 -0.0741,-0.28575 -0.16933,0.24342 -0.35983,0.4445 -0.1905,0.20109 -0.43392,0.33867 -0.33866,0.1905 -0.70908,0.15875 -0.37042,-0.0318 -0.64558,-0.28575 -0.26459,-0.24342 -0.35984,-0.5715 -0.0952,-0.33867 -0.0952,-0.67733 0.0106,-0.42334 0.13759,-0.83609 0.127,-0.41275 0.32808,-0.79375 0.21167,-0.381 0.47625,-0.70908 0.27517,-0.33867 0.58208,-0.61383 0.29634,-0.27517 0.66675,-0.4445 0.381,-0.16934 0.78317,-0.14817 0.39158,0.0212 0.68792,0.24342 0.29633,0.21166 0.43391,0.5715 0.127,-0.14817 0.28575,-0.26459 0.16934,-0.127 0.34925,-0.1905 0.1905,-0.0741 0.40217,-0.0635 0.22225,0.0106 0.35983,0.13759 z m -3.34433,2.89983 q 0.47625,-0.33867 0.85725,-0.86783 0.381,-0.52917 0.49742,-1.12184 0.0529,-0.22225 -0.0106,-0.43391 -0.0635,-0.22225 -0.32808,-0.26459 -0.21167,-0.0317 -0.39158,0.0847 -0.17992,0.11642 -0.32809,0.254 -0.45508,0.4445 -0.74083,1.016 -0.27517,0.5715 -0.42333,1.18533 -0.13759,0.61384 0.0529,0.81492 0.20109,0.1905 0.53975,0.0106 0.22225,-0.11641 0.41275,-0.28575 0.20109,-0.16933 0.381,-0.34925 -0.14816,0.0318 -0.30691,0.0423 -0.14817,0 -0.21167,-0.0847 z"
         style="font-style:normal;font-variant:normal;font-weight:normal;font-stretch:normal;font-size:10.58333302px;font-family:'Painter PERSONAL USE ONLY';-inkscape-font-specification:'Painter PERSONAL USE ONLY, Normal';font-variant-ligatures:normal;font-variant-caps:normal;font-variant-numeric:normal;font-feature-settings:normal;text-align:start;writing-mode:lr-tb;text-anchor:start;fill:#ffffff;stroke-width:0.26458332"
         id="path1495"
         inkscape:connector-curvature="0" />
      <path
         d="m -123.11684,168.50776 q 0.20108,0.27516 0.20108,0.5715 0,0.28575 -0.127,0.56091 -0.127,0.27517 -0.33867,0.51859 -0.21166,0.23283 -0.43391,0.39158 -0.4445,0.3175 -0.97367,0.51858 -0.51858,0.20109 -1.05833,0.26459 -0.42334,0.0423 -0.83609,-0.0212 -0.41275,-0.0741 -0.78316,-0.26458 -0.0529,0.0741 -0.10584,0.14816 -0.0423,0.0741 -0.0953,0.15875 -0.10583,0.17992 -0.24341,0.4445 -0.13759,0.254 -0.254,0.52917 -0.10584,0.27517 -0.16934,0.56092 -0.0529,0.27516 0.0106,0.508 0.0741,0.27516 0.3175,0.39158 0.254,0.11642 0.51858,0.0635 0.28575,-0.0529 0.51858,-0.254 0.23284,-0.20108 0.39159,-0.43392 0.15875,-0.3175 0.43391,-0.65616 0.27517,-0.33867 0.59267,-0.52917 0.0953,-0.0635 0.24342,-0.11642 0.15875,-0.0635 0.33866,-0.0847 0.1905,-0.0212 0.37042,0.0106 0.1905,0.0212 0.34925,0.127 -0.32808,0.381 -0.5715,0.86783 -0.24342,0.47625 -0.49742,0.9525 -0.37041,0.64559 -0.73025,1.29117 -0.35983,0.635 -0.80433,1.22767 -0.1905,0.254 -0.41275,0.508 -0.22225,0.254 -0.47625,0.45508 -0.254,0.21167 -0.55033,0.35983 -0.28575,0.15875 -0.61384,0.20109 -0.28575,0.0423 -0.59266,0.0106 -0.29634,-0.0318 -0.5715,-0.13758 -0.27517,-0.0952 -0.508,-0.27517 -0.23284,-0.16933 -0.40217,-0.41275 -0.1905,-0.27517 -0.254,-0.60325 -0.0635,-0.32808 -0.0106,-0.65617 0.0529,-0.32808 0.21166,-0.61383 0.16934,-0.29633 0.4445,-0.49742 0.24342,-0.17991 0.55034,-0.24341 0.3175,-0.0741 0.60325,0.0423 0.0952,0.0423 0.10583,0.0847 0.0106,0.0317 -0.0212,0.0741 -0.0318,0.0318 -0.0953,0.0741 -0.0529,0.0317 -0.0952,0.0741 -0.28575,0.28575 -0.42333,0.65616 -0.127,0.381 -0.127,0.74084 0.0106,0.37041 0.14817,0.65616 0.13758,0.29634 0.381,0.39159 0.29633,0.127 0.56091,0.0529 0.27517,-0.0741 0.49742,-0.254 0.23283,-0.17991 0.41275,-0.43391 0.17992,-0.254 0.29633,-0.48684 0.21167,-0.42333 0.37042,-0.85725 0.15875,-0.43391 0.33867,-0.87841 -0.11642,0.0847 -0.24342,0.16933 -0.127,0.0847 -0.26458,0.13758 -0.30692,0.13759 -0.61384,0.13759 -0.30691,-0.0106 -0.58208,-0.127 -0.26458,-0.11642 -0.47625,-0.33867 -0.21167,-0.23283 -0.33867,-0.53975 -0.1905,-0.47625 -0.15875,-0.9525 0.0318,-0.48683 0.22225,-0.94192 0.1905,-0.46566 0.49742,-0.889 0.30692,-0.42333 0.65617,-0.78316 -0.21167,-0.37042 -0.254,-0.79375 -0.0317,-0.43392 0.17991,-0.83609 0.0423,-0.0741 0.10584,-0.16933 0.0741,-0.10583 0.15875,-0.1905 0.0847,-0.0953 0.16933,-0.14817 0.0953,-0.0635 0.1905,-0.0635 0.0741,0.33867 0.15875,0.68792 0.0847,0.33867 0.27517,0.635 0.45508,-0.33867 0.9525,-0.60325 0.49741,-0.27517 1.04775,-0.43392 0.26458,-0.0741 0.58208,-0.13758 0.3175,-0.0741 0.635,-0.0635 0.3175,0 0.59267,0.10583 0.28575,0.0952 0.47625,0.35984 z m -2.00025,1.51341 q 0.1905,-0.0318 0.4445,-0.0953 0.254,-0.0741 0.48683,-0.1905 0.23283,-0.127 0.40217,-0.30691 0.17991,-0.17992 0.21166,-0.4445 0.0212,-0.254 -0.11641,-0.35984 -0.127,-0.11641 -0.32809,-0.13758 -0.20108,-0.0318 -0.43391,0.0212 -0.22225,0.0423 -0.381,0.10583 -0.30692,0.11642 -0.5715,0.29633 -0.26459,0.17992 -0.508,0.381 -0.17992,0.14817 -0.35984,0.3175 -0.16933,0.15875 -0.32808,0.32809 0.34925,0.127 0.74083,0.13758 0.39159,0 0.74084,-0.0529 z"
         style="font-style:normal;font-variant:normal;font-weight:normal;font-stretch:normal;font-size:10.58333302px;font-family:'Painter PERSONAL USE ONLY';-inkscape-font-specification:'Painter PERSONAL USE ONLY, Normal';font-variant-ligatures:normal;font-variant-caps:normal;font-variant-numeric:normal;font-feature-settings:normal;text-align:start;writing-mode:lr-tb;text-anchor:start;fill:#ffffff;stroke-width:0.26458332"
         id="path1497"
         inkscape:connector-curvature="0" />
      <path
         d="m -125.26195,174.37092 q 0.64558,-0.74083 1.16417,-1.5875 0.51858,-0.85725 0.87841,-1.83091 -0.127,-0.24342 -0.10583,-0.48684 0.0212,-0.24341 0.11642,-0.42333 0.10583,-0.17992 0.26458,-0.254 0.15875,-0.0741 0.3175,0.0317 0.17992,0.11642 0.14817,0.33867 -0.0317,0.21166 -0.11642,0.42333 0.0741,0.0423 0.16933,0.0423 0.10584,0 0.17992,0 0.27517,-0.0212 0.508,-0.0952 0.14817,-0.21166 0.27517,-0.28575 0.127,-0.0847 0.30691,0.0635 0.42334,0.32809 0.47625,0.62442 0.0635,0.28575 -0.17991,0.53975 -0.40217,0.51858 -0.78317,1.11125 -0.381,0.59267 -0.5715,1.10067 -0.13758,0.37041 -0.11642,0.60325 0.0212,0.22225 0.15875,0.29633 0.13759,0.0635 0.35984,-0.0212 0.23283,-0.0847 0.508,-0.32808 0.30691,-0.27517 0.64558,-0.71967 0.33867,-0.4445 0.59267,-0.93133 0.14816,-0.0847 0.23283,-0.0106 0.0953,0.0635 0.10583,0.17991 -0.28575,0.53975 -0.59266,0.99484 -0.29634,0.45508 -0.70909,0.86783 -0.33866,0.33867 -0.68791,0.508 -0.34925,0.15875 -0.66675,0.17992 -0.3175,0.0212 -0.5715,-0.10584 -0.254,-0.127 -0.40217,-0.37041 -0.14817,-0.254 -0.15875,-0.61384 -0.0106,-0.37041 0.16933,-0.83608 0.21167,-0.56092 0.52917,-1.11125 0.3175,-0.55033 0.61383,-0.93133 -0.0847,0 -0.11641,-0.0106 -0.0953,-0.0106 -0.24342,-0.0423 -0.14817,-0.0423 -0.29633,-0.10583 -0.11642,0.30691 -0.29634,0.73025 -0.17991,0.41275 -0.42333,0.85725 -0.20108,0.381 -0.40217,0.6985 -0.21166,0.3175 -0.42333,0.52916 -0.21167,0.21167 -0.42333,0.3175 -0.22225,0.10584 -0.43392,0.0635 z"
         style="font-style:normal;font-variant:normal;font-weight:normal;font-stretch:normal;font-size:10.58333302px;font-family:'Painter PERSONAL USE ONLY';-inkscape-font-specification:'Painter PERSONAL USE ONLY, Normal';font-variant-ligatures:normal;font-variant-caps:normal;font-variant-numeric:normal;font-feature-settings:normal;text-align:start;writing-mode:lr-tb;text-anchor:start;fill:#ffffff;stroke-width:0.26458332"
         id="path1499"
         inkscape:connector-curvature="0" />
      <path
         d="m -115.23755,171.01601 q -0.14816,0.3175 -0.33866,0.66675 -0.17992,0.33866 -0.37042,0.6985 -0.1905,0.34925 -0.381,0.71966 -0.17992,0.35984 -0.30692,0.71967 -0.1905,0.56092 -0.0529,0.77258 0.13758,0.21167 0.40216,0.0741 0.22225,-0.11642 0.45509,-0.34925 0.24341,-0.24342 0.46566,-0.53975 0.23284,-0.29634 0.43392,-0.60325 0.20108,-0.3175 0.34925,-0.59267 0.14817,-0.0635 0.23283,-0.0317 0.0847,0.0212 0.10584,0.20108 -0.33867,0.62442 -0.67734,1.143 -0.33866,0.51859 -0.78316,0.97367 -0.1905,0.20108 -0.46567,0.37042 -0.26458,0.16933 -0.55033,0.23283 -0.28575,0.0741 -0.56092,-0.0106 -0.26458,-0.0741 -0.45508,-0.381 -0.21167,-0.32809 -0.22225,-0.67734 -0.0106,-0.35983 0.0952,-0.70908 -0.24342,0.33867 -0.51859,0.67733 -0.27516,0.33867 -0.5715,0.58209 -0.29633,0.23283 -0.59266,0.32808 -0.28575,0.0847 -0.55034,-0.0635 -0.23283,-0.13758 -0.33866,-0.34925 -0.10584,-0.21167 -0.127,-0.45508 -0.0318,-0.24342 0.0106,-0.49742 0.0423,-0.254 0.10583,-0.46567 0.15875,-0.53975 0.41275,-1.04775 0.254,-0.51858 0.58209,-0.98425 0.0741,-0.10583 0.17991,-0.254 0.11642,-0.15875 0.24342,-0.29633 0.13758,-0.14817 0.27517,-0.26458 0.13758,-0.127 0.26458,-0.16934 0.1905,-0.0635 0.34925,-0.0529 0.16933,0.0106 0.29633,0.0741 0.127,0.0529 0.22225,0.127 0.0952,0.0741 0.14817,0.13758 -0.15875,0.1905 -0.33867,0.4445 -0.17991,0.254 -0.37041,0.53975 -0.1905,0.27517 -0.37042,0.5715 -0.17992,0.28575 -0.33867,0.55034 -0.40216,0.67733 -0.48683,1.02658 -0.0847,0.33867 0.0212,0.42333 0.10583,0.0847 0.34925,-0.0529 0.24341,-0.13759 0.508,-0.42334 0.20108,-0.21166 0.37041,-0.43391 0.17992,-0.22225 0.35984,-0.45509 0.40216,-0.53975 0.71966,-1.12183 0.32809,-0.59267 0.6985,-1.19592 0.0952,-0.14816 0.1905,-0.22225 0.10584,-0.0847 0.28575,-0.0317 0.48684,0.14817 0.60325,0.30692 0.127,0.15875 0.0318,0.37042 z"
         style="font-style:normal;font-variant:normal;font-weight:normal;font-stretch:normal;font-size:10.58333302px;font-family:'Painter PERSONAL USE ONLY';-inkscape-font-specification:'Painter PERSONAL USE ONLY, Normal';font-variant-ligatures:normal;font-variant-caps:normal;font-variant-numeric:normal;font-feature-settings:normal;text-align:start;writing-mode:lr-tb;text-anchor:start;fill:#ffffff;stroke-width:0.26458332"
         id="path1501"
         inkscape:connector-curvature="0" />
      <path
         d="m -109.23068,172.58234 q 0.32808,-0.13758 0.33867,0.16933 -0.3175,0.60325 -0.68792,1.143 -0.37042,0.52917 -0.83608,0.97367 -0.20109,0.1905 -0.46567,0.35983 -0.26458,0.15875 -0.53975,0.22225 -0.27517,0.0741 -0.55033,0.0106 -0.27517,-0.0529 -0.49742,-0.3175 -0.1905,-0.21167 -0.23283,-0.48684 -0.0423,-0.27516 0,-0.5715 0.0529,-0.29633 0.14816,-0.58208 0.10584,-0.28575 0.20109,-0.52917 0.21166,-0.47625 0.48683,-0.91016 0.28575,-0.4445 0.51858,-0.92075 -0.30691,0.24341 -0.66675,0.5715 -0.34925,0.32808 -0.59266,0.62441 -0.3175,0.381 -0.60325,0.78317 -0.28575,0.39158 -0.56092,0.80433 -0.13758,0.21167 -0.26458,0.42334 -0.127,0.20108 -0.24342,0.41275 -0.0635,0.0953 -0.15875,0.24341 -0.0952,0.13759 -0.26458,0.127 -0.127,0 -0.254,-0.0741 -0.127,-0.0741 -0.22225,-0.17992 -0.10584,-0.10583 -0.15875,-0.22225 -0.0635,-0.127 -0.0423,-0.22225 0.16934,-0.77258 0.58209,-1.48166 0.40216,-0.71967 0.8255,-1.38642 0.17991,-0.27517 0.33866,-0.5715 0.16934,-0.29633 0.37042,-0.5715 0.0952,-0.13758 0.24342,-0.1905 0.15875,-0.0529 0.43391,0.10583 0.127,0.0741 0.1905,0.14817 0.0741,0.0635 0.0741,0.16933 0,0.0952 -0.0847,0.24342 -0.0741,0.14817 -0.23283,0.37042 -0.14817,0.20108 -0.3175,0.48683 -0.15875,0.28575 -0.27517,0.51858 0.16933,-0.1905 0.40217,-0.45508 0.24341,-0.26458 0.508,-0.52917 0.26458,-0.26458 0.52916,-0.48683 0.27517,-0.22225 0.508,-0.33867 0.28575,-0.14816 0.66675,-0.10583 0.39159,0.0423 0.6985,0.33867 0.0847,0.0847 0.0741,0.14816 -0.0106,0.0529 -0.0635,0.15875 -0.0952,0.22225 -0.22225,0.4445 -0.127,0.23284 -0.26459,0.46567 -0.13758,0.22225 -0.26458,0.46567 -0.17992,0.32808 -0.39158,0.6985 -0.20109,0.35983 -0.34925,0.71966 -0.15875,0.43392 -0.0952,0.635 0.0741,0.20109 0.27516,0.20109 0.21167,-0.0106 0.51859,-0.21167 0.30691,-0.20108 0.62441,-0.58208 0.22225,-0.27517 0.43392,-0.58209 0.21167,-0.30691 0.41275,-0.67733 z"
         style="font-style:normal;font-variant:normal;font-weight:normal;font-stretch:normal;font-size:10.58333302px;font-family:'Painter PERSONAL USE ONLY';-inkscape-font-specification:'Painter PERSONAL USE ONLY, Normal';font-variant-ligatures:normal;font-variant-caps:normal;font-variant-numeric:normal;font-feature-settings:normal;text-align:start;writing-mode:lr-tb;text-anchor:start;fill:#ffffff;stroke-width:0.26458332"
         id="path1503"
         inkscape:connector-curvature="0" />
      <path
         d="m -103.32666,169.43909 q 0.10583,-0.0212 0.21166,0.0952 0.11642,0.10583 0.16934,0.22225 0.127,0.14817 0.0635,0.28575 -0.0529,0.127 -0.127,0.29633 -0.11642,0.27517 -0.23284,0.53975 -0.11641,0.26459 -0.24341,0.52917 0.10583,0.15875 0.30691,0.22225 0.21167,0.0529 0.46567,0.0106 0.26458,-0.0529 0.52917,-0.20108 0.27516,-0.14817 0.508,-0.40217 -0.0635,0.40217 -0.34925,0.6985 -0.28575,0.29634 -0.67734,0.40217 -0.33866,0.0847 -0.60325,0.0529 -0.26458,-0.0423 -0.46566,-0.17992 -0.24342,0.47625 -0.51859,0.93133 -0.26458,0.4445 -0.55033,0.889 -0.0529,0.0847 -0.21167,0.29634 -0.14816,0.21166 -0.32808,0.45508 -0.16933,0.24342 -0.33867,0.46567 -0.15875,0.21166 -0.22225,0.28575 -0.22225,0.254 -0.45508,0.0635 -0.32808,-0.26459 -0.42333,-0.47625 -0.0847,-0.21167 -0.0741,-0.35984 0.0106,-0.635 0.20109,-1.24883 0.20108,-0.62442 0.381,-1.23825 -0.23284,0.34925 -0.45509,0.6985 -0.21166,0.34925 -0.42333,0.70908 -0.17992,0.30692 -0.33867,0.61384 -0.15875,0.29633 -0.30691,0.60325 -0.0529,0.10583 -0.11642,0.21166 -0.0529,0.10584 -0.0847,0.22225 -0.0318,0.10584 -0.0635,0.14817 -0.0318,0.0423 -0.15875,0.0529 -0.0635,0 -0.20108,-0.0423 -0.127,-0.0529 -0.27517,-0.13758 -0.14816,-0.0847 -0.27516,-0.20108 -0.127,-0.11642 -0.16934,-0.24342 -0.0423,-0.11642 -0.0318,-0.26458 0.0106,-0.15875 0.0318,-0.27517 0.0212,-0.33867 0.0635,-0.68792 0.0423,-0.34925 0.10584,-0.6985 -0.17992,0.0106 -0.22225,-0.20108 0.17991,-0.30692 0.32808,-0.635 0.14817,-0.32808 0.29633,-0.635 0.22225,-0.45508 0.32809,-0.77258 0.11641,-0.3175 0.27516,-0.40217 0.0952,-0.0529 0.28575,-0.0212 0.1905,0.0212 0.30692,0.0741 0.11642,0.0635 0.21167,0.15875 0.10583,0.0847 0.13758,0.1905 0.0212,0.0635 -0.0106,0.14816 -0.0318,0.0847 -0.0529,0.14817 -0.0212,0.0635 -0.13758,0.33867 -0.11642,0.26458 -0.27517,0.68791 -0.14817,0.41275 -0.30692,0.97367 -0.14816,0.56092 -0.254,1.2065 l 0.28575,-0.53975 q 0.6985,-1.31233 1.60867,-2.52942 0.0529,-0.0635 0.14817,-0.17991 0.0952,-0.11642 0.1905,-0.23284 0.0952,-0.11641 0.16933,-0.20108 0.0741,-0.0847 0.0847,-0.0952 0.0529,-0.0317 0.16933,-0.0212 0.11642,0.0106 0.23283,0.0635 0.127,0.0423 0.22225,0.11642 0.10584,0.0635 0.11642,0.127 0.0212,0.0529 0,0.13758 -0.0212,0.0847 -0.0423,0.13759 -0.0318,0.0952 -0.0953,0.29633 -0.0529,0.1905 -0.127,0.4445 -0.0635,0.24342 -0.13759,0.51858 -0.0635,0.27517 -0.11641,0.52917 -0.0318,0.15875 -0.0847,0.41275 -0.0529,0.254 -0.10583,0.49742 -0.0423,0.24341 -0.0847,0.42333 -0.0317,0.16933 -0.0317,0.16933 0.22225,-0.254 0.43392,-0.56091 0.21166,-0.3175 0.40216,-0.65617 0.1905,-0.34925 0.35984,-0.6985 0.16933,-0.35983 0.3175,-0.6985 -0.0423,-0.0952 -0.0529,-0.16933 -0.0953,-0.39159 0.0106,-0.77259 0.11642,-0.39158 0.35984,-0.6985 0.0847,-0.11641 0.23283,-0.254 0.15875,-0.14816 0.30692,-0.16933 z"
         style="font-style:normal;font-variant:normal;font-weight:normal;font-stretch:normal;font-size:10.58333302px;font-family:'Painter PERSONAL USE ONLY';-inkscape-font-specification:'Painter PERSONAL USE ONLY, Normal';font-variant-ligatures:normal;font-variant-caps:normal;font-variant-numeric:normal;font-feature-settings:normal;text-align:start;writing-mode:lr-tb;text-anchor:start;fill:#ffffff;stroke-width:0.26458332"
         id="path1505"
         inkscape:connector-curvature="0" />
      <path
         d="m -97.554777,170.63501 q -0.116417,0.15875 -0.28575,0.41275 -0.15875,0.254 -0.338667,0.55033 -0.179917,0.29633 -0.359833,0.61383 -0.169334,0.3175 -0.306917,0.60325 -0.28575,0.59267 -0.4445,0.99484 -0.15875,0.40216 -0.08467,0.51858 0.03175,0.0529 0.105833,0.0529 0.08467,-0.0106 0.179916,-0.0423 0.09525,-0.0317 0.169334,-0.0741 0.08467,-0.0529 0.116416,-0.0741 0.232834,-0.14817 0.41275,-0.33867 0.179917,-0.20108 0.338667,-0.41275 0.148167,-0.20108 0.28575,-0.42333 0.137583,-0.22225 0.254,-0.43392 0.127,-0.0317 0.211667,0 0.09525,0.0318 0.127,0.16933 -0.148167,0.27517 -0.28575,0.53975 -0.137584,0.26459 -0.3175,0.51859 -0.169334,0.254 -0.359834,0.48683 -0.179916,0.23283 -0.391583,0.4445 -0.201083,0.20108 -0.4445,0.35983 -0.232833,0.14817 -0.529166,0.13759 -0.296334,0 -0.529166,-0.16934 -0.23283,-0.16933 -0.33866,-0.4445 -0.0529,-0.127 -0.0741,-0.28575 -0.16933,0.24342 -0.35983,0.4445 -0.1905,0.20109 -0.43392,0.33867 -0.33866,0.1905 -0.70908,0.15875 -0.37042,-0.0318 -0.64558,-0.28575 -0.26459,-0.24342 -0.35984,-0.5715 -0.0952,-0.33867 -0.0952,-0.67733 0.0106,-0.42334 0.13759,-0.83609 0.127,-0.41275 0.32808,-0.79375 0.21167,-0.381 0.47625,-0.70908 0.27517,-0.33867 0.58208,-0.61383 0.29634,-0.27517 0.66675,-0.4445 0.381,-0.16934 0.78317,-0.14817 0.391579,0.0212 0.687912,0.24342 0.296333,0.21166 0.433917,0.5715 0.127,-0.14817 0.28575,-0.26459 0.169333,-0.127 0.34925,-0.1905 0.1905,-0.0741 0.402166,-0.0635 0.22225,0.0106 0.359834,0.13759 z m -3.344333,2.89983 q 0.47625,-0.33867 0.85725,-0.86783 0.381,-0.52917 0.497416,-1.12184 0.05292,-0.22225 -0.01058,-0.43391 -0.0635,-0.22225 -0.328083,-0.26459 -0.211673,-0.0317 -0.391583,0.0847 -0.17992,0.11642 -0.32809,0.254 -0.45508,0.4445 -0.74083,1.016 -0.27517,0.5715 -0.42333,1.18533 -0.13759,0.61384 0.0529,0.81492 0.20109,0.1905 0.53975,0.0106 0.22225,-0.11641 0.41275,-0.28575 0.20109,-0.16933 0.381,-0.34925 -0.14816,0.0318 -0.30691,0.0423 -0.14817,0 -0.21167,-0.0847 z"
         style="font-style:normal;font-variant:normal;font-weight:normal;font-stretch:normal;font-size:10.58333302px;font-family:'Painter PERSONAL USE ONLY';-inkscape-font-specification:'Painter PERSONAL USE ONLY, Normal';font-variant-ligatures:normal;font-variant-caps:normal;font-variant-numeric:normal;font-feature-settings:normal;text-align:start;writing-mode:lr-tb;text-anchor:start;fill:#ffffff;stroke-width:0.26458332"
         id="path1507"
         inkscape:connector-curvature="0" />
      <path
         d="m -93.426781,167.78809 q 0.08467,0 0.179917,0.0317 0.08467,-0.0741 0.201083,-0.0317 0.116417,0.0317 0.169333,0.0952 0.07408,0.0847 0.08467,0.21167 0.02117,0.127 0.01058,0.23283 -0.02117,0.37042 -0.201083,0.73025 -0.169333,0.35983 -0.359833,0.66675 -0.211667,0.37042 -0.47625,0.70908 -0.254,0.33867 -0.53975,0.66675 -0.328084,0.37042 -0.687917,0.73025 -0.34925,0.34925 -0.73025,0.66675 -0.116417,0.0847 -0.22225,0.16934 -0.105833,0.0847 -0.211667,0.16933 -0.03175,0.0212 -0.0635,0.0635 -0.03175,0.0317 -0.07408,0.0529 -0.05292,0.14816 -0.105833,0.28575 -0.04233,0.13758 -0.09525,0.28575 -0.0635,0.22225 -0.09525,0.48683 -0.02117,0.26458 0.05292,0.45508 0.07408,0.1905 0.275167,0.24342 0.211667,0.0529 0.592667,-0.15875 0.211666,-0.11642 0.455083,-0.3175 0.254,-0.21167 0.497417,-0.46567 0.254,-0.26458 0.47625,-0.5715 0.232833,-0.30691 0.391583,-0.61383 0.137583,-0.0529 0.22225,-0.0212 0.08467,0.0317 0.116417,0.1905 -0.15875,0.30692 -0.370417,0.635 -0.211667,0.32809 -0.47625,0.64559 -0.254,0.3175 -0.560917,0.60325 -0.296333,0.28575 -0.645583,0.508 -0.402167,0.254 -0.804333,0.30691 -0.402167,0.0529 -0.719667,-0.10583 -0.3175,-0.14817 -0.508,-0.49742 -0.201083,-0.35983 -0.179917,-0.92075 0.01058,-0.34925 0.09525,-0.6985 0.08467,-0.34925 0.22225,-0.67733 0.127,-0.33867 0.296334,-0.65617 0.169333,-0.3175 0.338666,-0.60325 0.381,-0.64558 0.79375,-1.28058 0.423334,-0.64558 0.941917,-1.18533 0.211667,-0.22225 0.433917,-0.41275 0.232833,-0.20109 0.497416,-0.34925 0.179917,-0.11642 0.370417,-0.1905 0.201083,-0.0847 0.41275,-0.0847 z m -2.465917,4.20158 q 0.243417,-0.22225 0.47625,-0.46566 0.232834,-0.24342 0.455084,-0.49742 0.28575,-0.33867 0.550333,-0.6985 0.264583,-0.35983 0.508,-0.73025 0.179917,-0.26458 0.3175,-0.52917 0.148167,-0.27516 0.243417,-0.58208 -0.1905,0.17992 -0.391584,0.35983 -0.1905,0.17992 -0.370416,0.381 -0.402167,0.508 -0.762,1.04775 -0.34925,0.52917 -0.677334,1.09009 z"
         style="font-style:normal;font-variant:normal;font-weight:normal;font-stretch:normal;font-size:10.58333302px;font-family:'Painter PERSONAL USE ONLY';-inkscape-font-specification:'Painter PERSONAL USE ONLY, Normal';font-variant-ligatures:normal;font-variant-caps:normal;font-variant-numeric:normal;font-feature-settings:normal;text-align:start;writing-mode:lr-tb;text-anchor:start;fill:#ffffff;stroke-width:0.26458332"
         id="path1509"
         inkscape:connector-curvature="0" />
      <path
         d="m -87.100108,167.98917 q -0.148166,0.27517 -0.391583,0.70909 -0.243417,0.42333 -0.53975,0.9525 -0.296333,0.51858 -0.613833,1.11125 -0.3175,0.59266 -0.624417,1.19591 -0.296333,0.60325 -0.560917,1.19592 -0.254,0.58208 -0.423333,1.10067 -0.05292,0.17991 -0.02117,0.27516 0.04233,0.0847 0.137584,0.0952 0.105833,0 0.264583,-0.0635 0.15875,-0.0741 0.34925,-0.22225 0.15875,-0.127 0.328083,-0.3175 0.179917,-0.1905 0.359834,-0.42333 0.179916,-0.23283 0.338666,-0.48683 0.169334,-0.26459 0.3175,-0.52917 0.137584,-0.0741 0.232834,-0.0106 0.105833,0.0529 0.105833,0.17991 -0.306917,0.5715 -0.751417,1.143 -0.433916,0.5715 -0.9525,1.016 -0.243416,0.21167 -0.486833,0.33867 -0.232833,0.11642 -0.455083,0.13758 -0.211667,0.0212 -0.402167,-0.0741 -0.1905,-0.0847 -0.328083,-0.29633 -0.116417,-0.16934 -0.15875,-0.34925 -0.03175,-0.1905 -0.02117,-0.40217 -0.179917,0.23283 -0.402167,0.46567 -0.22225,0.22225 -0.486833,0.381 -0.254,0.15875 -0.53975,0.21166 -0.28575,0.0529 -0.582083,-0.0635 -0.306917,-0.11641 -0.47625,-0.34925 -0.169334,-0.23283 -0.232834,-0.51858 -0.07408,-0.28575 -0.0635,-0.58208 0.01058,-0.30692 0.07408,-0.58209 0.137583,-0.60325 0.4445,-1.143 0.3175,-0.53975 0.73025,-0.98425 0.211666,-0.22225 0.47625,-0.42333 0.264583,-0.20108 0.560916,-0.32808 0.306917,-0.127 0.624417,-0.15875 0.3175,-0.0423 0.635,0.0529 0.275167,0.0847 0.41275,0.24342 0.148167,0.15875 0.211667,0.35983 0.148166,-0.27516 0.296333,-0.52916 0.15875,-0.26459 0.3175,-0.52917 0.232833,-0.39158 0.518583,-0.85725 0.296334,-0.46567 0.60325,-0.79375 0.127,-0.13758 0.28575,-0.20108 0.169334,-0.0741 0.338667,-0.0847 0.169333,-0.0212 0.3175,0.0212 0.148167,0.0317 0.232833,0.11641 z m -4.360333,5.54567 q 0.296333,-0.33867 0.47625,-0.75142 0.1905,-0.41275 0.423333,-0.889 0.09525,-0.21166 0.105834,-0.43391 0.02117,-0.23284 -0.0635,-0.39159 -0.07408,-0.15875 -0.254,-0.20108 -0.169334,-0.0423 -0.465667,0.10583 -0.275167,0.14817 -0.508,0.381 -0.22225,0.22225 -0.41275,0.49742 -0.179917,0.27517 -0.328083,0.5715 -0.137584,0.29633 -0.243417,0.58208 -0.04233,0.0952 -0.09525,0.27517 -0.05292,0.16933 -0.105833,0.37042 -0.04233,0.1905 -0.05292,0.381 -0.01058,0.17991 0.04233,0.29633 0.0635,0.10583 0.201084,0.11642 0.137583,0.0106 0.402166,-0.13759 0.254,-0.14816 0.47625,-0.33866 0.22225,-0.20109 0.402167,-0.43392 z"
         style="font-style:normal;font-variant:normal;font-weight:normal;font-stretch:normal;font-size:10.58333302px;font-family:'Painter PERSONAL USE ONLY';-inkscape-font-specification:'Painter PERSONAL USE ONLY, Normal';font-variant-ligatures:normal;font-variant-caps:normal;font-variant-numeric:normal;font-feature-settings:normal;text-align:start;writing-mode:lr-tb;text-anchor:start;fill:#ffffff;stroke-width:0.26458332"
         id="path1511"
         inkscape:connector-curvature="0" />
    </g>
  </g>
</svg>
