<?xml version="1.0" encoding="UTF-8" standalone="no"?>
<!-- Created with Inkscape (http://www.inkscape.org/) -->

<svg
   xmlns:dc="http://purl.org/dc/elements/1.1/"
   xmlns:cc="http://creativecommons.org/ns#"
   xmlns:rdf="http://www.w3.org/1999/02/22-rdf-syntax-ns#"
   xmlns:svg="http://www.w3.org/2000/svg"
   xmlns="http://www.w3.org/2000/svg"
   xmlns:sodipodi="http://sodipodi.sourceforge.net/DTD/sodipodi-0.dtd"
   xmlns:inkscape="http://www.inkscape.org/namespaces/inkscape"
   width="281.47006mm"
   height="32mm"
   viewBox="0 0 281.47006 32"
   version="1.1"
   id="svg8"
   inkscape:version="0.92.4 (5da689c313, 2019-01-14)"
   sodipodi:docname="projectName01.svg">
  <defs
     id="defs2" />
  <sodipodi:namedview
     id="base"
     pagecolor="#ffffff"
     bordercolor="#666666"
     borderopacity="1.0"
     inkscape:pageopacity="0.0"
     inkscape:pageshadow="2"
     inkscape:zoom="0.7"
     inkscape:cx="588.32337"
     inkscape:cy="-38.477193"
     inkscape:document-units="mm"
     inkscape:current-layer="layer1"
     showgrid="false"
     showborder="false"
     fit-margin-top="0"
     fit-margin-left="0"
     fit-margin-right="0"
     fit-margin-bottom="0"
     inkscape:window-width="1920"
     inkscape:window-height="1001"
     inkscape:window-x="-9"
     inkscape:window-y="-9"
     inkscape:window-maximized="1" />
  <metadata
     id="metadata5">
    <rdf:RDF>
      <cc:Work
         rdf:about="">
        <dc:format>image/svg+xml</dc:format>
        <dc:type
           rdf:resource="http://purl.org/dc/dcmitype/StillImage" />
        <dc:title></dc:title>
      </cc:Work>
    </rdf:RDF>
  </metadata>
  <g
     inkscape:label="Layer 1"
     inkscape:groupmode="layer"
     id="layer1"
     transform="translate(-102.14632,-118.14586)">
    <g
       aria-label="kamienica na Górczynie"
       style="font-style:normal;font-variant:normal;font-weight:normal;font-stretch:normal;font-size:28.18558502px;line-height:1.25;font-family:'Painter PERSONAL USE ONLY';-inkscape-font-specification:'Painter PERSONAL USE ONLY, Normal';font-variant-ligatures:normal;font-variant-caps:normal;font-variant-numeric:normal;font-feature-settings:normal;text-align:start;letter-spacing:0px;word-spacing:0px;writing-mode:lr-tb;text-anchor:start;fill:#ffffff;fill-opacity:1;stroke:none;stroke-width:0.70463955"
       id="text835"
       transform="matrix(0.99941347,0,0,0.99941347,0.05991196,0.08806517)">
      <path
         d="m 118.95423,131.20519 q 0.73282,-0.16911 0.90193,0.45097 -1.07105,2.05755 -2.59307,4.00235 -0.73282,0.90194 -1.66295,1.74751 -0.90194,0.84557 -2.00118,1.32472 -0.93012,0.3946 -1.91661,0.25367 -0.9865,-0.11274 -1.71933,-0.84557 -0.47915,-0.45097 -0.76101,-1.01468 -0.28185,-0.59189 -0.42278,-1.21198 -0.14093,-0.62008 -0.16911,-1.26835 0,-0.64827 0.0564,-1.29654 0,-0.14092 0.0564,-0.50734 0.0564,-0.39459 0.11274,-0.78919 0.0564,-0.3946 0.11274,-0.70464 0.0564,-0.33823 0.0846,-0.36641 0.90194,-0.22549 1.80388,-0.62009 0.90194,-0.3946 1.52202,-0.81738 0.36641,-0.25367 0.87375,-0.70464 0.50734,-0.47915 0.93013,-1.04287 0.45097,-0.59189 0.70464,-1.24016 0.25367,-0.64827 0.11274,-1.26835 -0.36641,0.0564 -0.84557,0.31004 -0.47915,0.25367 -0.98649,0.5919 -0.47916,0.31004 -0.93013,0.70464 -0.45097,0.36641 -0.7892,0.67645 -0.78919,0.76101 -1.49383,1.57839 -0.70464,0.81738 -1.35291,1.69114 -1.46565,1.88843 -2.67763,4.00235 -0.0846,0.14093 -0.33823,0.62008 -0.22548,0.47916 -0.53552,1.07106 -0.28186,0.56371 -0.5919,1.12742 -0.28186,0.56371 -0.45097,0.87375 -0.64827,-0.0282 -1.21198,-0.53552 -0.56371,-0.50734 -0.62008,-1.1838 -0.0282,-0.14093 0.0282,-0.45097 0.0564,-0.31004 0.16912,-0.67645 0.0846,-0.3946 0.22548,-0.7892 0.14093,-0.42278 0.31004,-0.78919 0.64827,-1.52203 1.3811,-2.95949 0.73282,-1.46565 1.5502,-2.90312 l 2.00118,-3.49501 1.69114,-2.87493 q 0.19729,-0.31004 0.50734,-0.93012 0.33822,-0.62009 0.67645,-1.26835 0.36641,-0.73283 0.81738,-1.55021 0.3946,0.0564 0.76101,0.1973 0.31004,0.14093 0.64827,0.36641 0.33823,0.22549 0.56371,0.5919 0.14093,0.28185 0.14093,0.81738 0.0282,0.50734 -0.33823,1.24017 -0.33822,0.70464 -0.76101,1.38109 -0.42278,0.64827 -0.81738,1.32472 -0.56371,0.93013 -1.32472,2.05755 -0.73283,1.12742 -1.29654,2.05755 0.7892,-0.81738 1.80388,-1.71932 1.04287,-0.90194 2.02936,-1.46565 0.0846,-0.0564 0.31004,-0.16912 0.25367,-0.11274 0.56371,-0.1973 0.31005,-0.11274 0.62009,-0.16911 0.33822,-0.0846 0.56371,-0.0564 0.47915,-0.31004 1.04287,-0.25367 0.59189,0.0564 1.01468,0.45097 0.56371,0.47915 0.70464,1.24016 0.16911,0.73283 0.0282,1.46565 -0.16911,0.76101 -0.62008,1.46565 -0.42279,0.70464 -1.01468,1.32473 -0.5919,0.59189 -1.29654,1.07105 -0.70464,0.45097 -1.40928,0.76101 -0.3946,0.14093 -0.78919,0.28186 -0.3946,0.11274 -0.81739,0.19729 -0.0564,0.25368 -0.0282,0.90194 0.0282,0.64827 0.14093,1.35291 0.11274,0.70464 0.31004,1.29654 0.22548,0.5919 0.56371,0.76101 0.3946,0.1973 0.84557,0.11274 0.47915,-0.11274 0.93012,-0.36641 0.45097,-0.25367 0.84557,-0.56371 0.3946,-0.33823 0.67645,-0.64827 0.87376,-0.93013 1.55021,-1.91662 0.70464,-1.01468 1.29654,-2.11392 z"
         style="font-style:normal;font-variant:normal;font-weight:normal;font-stretch:normal;font-size:28.18558502px;font-family:'Painter PERSONAL USE ONLY';-inkscape-font-specification:'Painter PERSONAL USE ONLY, Normal';font-variant-ligatures:normal;font-variant-caps:normal;font-variant-numeric:normal;font-feature-settings:normal;text-align:start;writing-mode:lr-tb;text-anchor:start;fill:#ffffff;stroke-width:0.70463955"
         id="path837"
         inkscape:connector-curvature="0" />
      <path
         d="m 132.86469,126.01904 q -0.31004,0.42279 -0.76101,1.09924 -0.42278,0.67645 -0.90194,1.46565 -0.47915,0.7892 -0.95831,1.63476 -0.45097,0.84557 -0.81738,1.60658 -0.76101,1.5784 -1.18379,2.64945 -0.42279,1.07105 -0.22549,1.38109 0.0846,0.14093 0.28186,0.14093 0.22548,-0.0282 0.47915,-0.11274 0.25367,-0.0846 0.45097,-0.1973 0.22549,-0.14093 0.31004,-0.1973 0.62009,-0.3946 1.09924,-0.90194 0.47916,-0.53553 0.90194,-1.09924 0.3946,-0.53552 0.76101,-1.12742 0.36641,-0.5919 0.67646,-1.15561 0.33822,-0.0846 0.56371,0 0.25367,0.0846 0.33822,0.45097 -0.39459,0.73282 -0.76101,1.43746 -0.36641,0.70464 -0.84556,1.3811 -0.45097,0.67645 -0.95831,1.29654 -0.47916,0.62008 -1.04287,1.18379 -0.53553,0.53553 -1.1838,0.95831 -0.62008,0.3946 -1.40927,0.36641 -0.7892,0 -1.40928,-0.45097 -0.62009,-0.45097 -0.90194,-1.18379 -0.14093,-0.33823 -0.1973,-0.76101 -0.45097,0.64827 -0.95831,1.18379 -0.50734,0.53553 -1.15561,0.90194 -0.90194,0.50734 -1.88843,0.42278 -0.9865,-0.0845 -1.71933,-0.76101 -0.70463,-0.64826 -0.95831,-1.52202 -0.25367,-0.90194 -0.25367,-1.80388 0.0282,-1.12742 0.36642,-2.22666 0.33822,-1.09923 0.87375,-2.11392 0.56371,-1.01468 1.26835,-1.88843 0.73283,-0.90194 1.55021,-1.63476 0.7892,-0.73283 1.77569,-1.1838 1.01468,-0.45097 2.08573,-0.3946 1.04287,0.0564 1.83207,0.64827 0.78919,0.56371 1.15561,1.52202 0.33822,-0.39459 0.76101,-0.70464 0.45097,-0.33822 0.93012,-0.50734 0.50734,-0.1973 1.07105,-0.16911 0.5919,0.0282 0.95831,0.36641 z m -8.90664,7.72285 q 1.26835,-0.90194 2.28303,-2.31122 1.01468,-1.40927 1.32472,-2.98767 0.14093,-0.59189 -0.0282,-1.15561 -0.16912,-0.59189 -0.87376,-0.70464 -0.56371,-0.0846 -1.04286,0.22549 -0.47916,0.31004 -0.87376,0.67645 -1.21198,1.1838 -1.97299,2.70582 -0.73282,1.52202 -1.12742,3.15678 -0.36641,1.63477 0.14093,2.17029 0.53552,0.50735 1.43746,0.0282 0.5919,-0.31004 1.09924,-0.76101 0.53553,-0.45097 1.01468,-0.93012 -0.3946,0.0846 -0.81738,0.11274 -0.3946,0 -0.56371,-0.22549 z"
         style="font-style:normal;font-variant:normal;font-weight:normal;font-stretch:normal;font-size:28.18558502px;font-family:'Painter PERSONAL USE ONLY';-inkscape-font-specification:'Painter PERSONAL USE ONLY, Normal';font-variant-ligatures:normal;font-variant-caps:normal;font-variant-numeric:normal;font-feature-settings:normal;text-align:start;writing-mode:lr-tb;text-anchor:start;fill:#ffffff;stroke-width:0.70463955"
         id="path839"
         inkscape:connector-curvature="0" />
      <path
         d="m 154.54073,131.20519 q 0.33823,-0.0846 0.5919,-0.0282 0.25367,0.0564 0.31004,0.47916 -0.7892,1.49384 -1.77569,2.81856 -0.9865,1.32472 -2.19848,2.39577 -0.53553,0.47916 -1.24017,0.90194 -0.67645,0.3946 -1.40928,0.56371 -0.70463,0.16912 -1.40927,0 -0.70464,-0.1973 -1.24017,-0.93012 -0.47916,-0.5919 -0.56371,-1.32472 -0.0846,-0.76101 0.0282,-1.55021 0.14093,-0.7892 0.3946,-1.52202 0.28186,-0.76101 0.56371,-1.40928 0.47916,-1.15561 1.09924,-2.19848 0.64827,-1.07105 1.21198,-2.19847 -0.81738,0.64827 -1.7475,1.52202 -0.90194,0.87375 -1.5784,1.66295 -0.84557,0.98649 -1.60658,2.00117 -0.76101,0.9865 -1.49383,2.05755 -0.64827,0.93013 -1.09924,1.66295 -0.45097,0.73283 -0.7892,1.24017 -0.33822,0.50734 -0.59189,0.76101 -0.22549,0.25367 -0.45097,0.25367 -0.28186,-0.0282 -0.64827,-0.14093 -0.36641,-0.14093 -0.70464,-0.31004 -0.31004,-0.1973 -0.53553,-0.47916 -0.1973,-0.28185 -0.14092,-0.67645 0.0282,-0.11274 0.11274,-0.36641 0.11274,-0.28186 0.22548,-0.5919 0.14093,-0.31004 0.25367,-0.5919 0.14093,-0.31004 0.1973,-0.47915 0.76101,-1.69114 1.60658,-3.43864 0.87375,-1.74751 1.88843,-3.7205 -1.1556,1.07105 -2.25484,2.28303 -1.07105,1.1838 -2.05755,2.42396 -0.64827,0.7892 -1.26835,1.5784 -0.5919,0.78919 -1.1838,1.60657 -0.11274,0.14093 -0.36641,0.50734 -0.25367,0.36642 -0.56371,0.76101 -0.28186,0.3946 -0.56371,0.76102 -0.28186,0.36641 -0.45097,0.50734 -0.25367,0.1973 -0.64827,0.11274 -0.42278,-0.11274 -0.81738,-0.3946 -0.3946,-0.28186 -0.64827,-0.64827 -0.28186,-0.36641 -0.22549,-0.70464 0.11275,-0.67645 0.53553,-1.69113 0.42278,-1.04287 0.9865,-2.17029 0.56371,-1.15561 1.21198,-2.31122 0.67645,-1.15561 1.29653,-2.14211 l 1.71932,-2.81855 q 0.25367,-0.45097 0.7892,-0.62009 0.53553,-0.1973 1.1838,0.28186 0.64826,0.50734 0.81738,0.81738 0.16911,0.31004 -0.11275,0.81738 -0.31004,0.56371 -0.76101,1.26835 -0.42278,0.67646 -0.87375,1.3811 -0.42278,0.67645 -0.81738,1.32472 -0.3946,0.64827 -0.64827,1.09924 0.3946,-0.47916 1.04287,-1.21198 0.64827,-0.76101 1.35291,-1.52202 0.70463,-0.7892 1.38109,-1.49384 0.67645,-0.70464 1.15561,-1.09924 0.16911,-0.16911 0.42278,-0.36641 0.28186,-0.22548 0.5919,-0.42278 0.31004,-0.1973 0.64827,-0.33823 0.36641,-0.14093 0.76101,-0.11274 0.36641,0.0282 0.76101,0.22548 0.42278,0.16912 0.76101,0.45097 0.33823,0.25367 0.53553,0.53553 0.22548,0.28185 0.19729,0.47915 -0.0564,0.31004 -0.28185,0.70464 -0.22549,0.36641 -0.36641,0.67646 l -0.67646,1.38109 q 1.71932,-2.11392 3.86143,-3.57957 1.09924,-0.76101 1.80387,-0.87375 0.70464,-0.11275 1.40928,0.22548 0.73283,0.33823 1.15561,0.76101 0.42279,0.42279 0.36642,0.62009 -0.0564,0.28185 -0.1973,0.56371 -0.14093,0.28185 -0.28186,0.53552 l -1.21198,2.28304 q -0.5919,1.1556 -1.21198,2.31121 -0.5919,1.12743 -1.01468,2.36759 -0.31004,0.87376 0.16911,1.1838 0.50734,0.28185 1.69114,-0.36642 1.15561,-0.64826 2.00117,-1.7475 0.87376,-1.12742 1.63477,-2.56489 z"
         style="font-style:normal;font-variant:normal;font-weight:normal;font-stretch:normal;font-size:28.18558502px;font-family:'Painter PERSONAL USE ONLY';-inkscape-font-specification:'Painter PERSONAL USE ONLY, Normal';font-variant-ligatures:normal;font-variant-caps:normal;font-variant-numeric:normal;font-feature-settings:normal;text-align:start;writing-mode:lr-tb;text-anchor:start;fill:#ffffff;stroke-width:0.70463955"
         id="path841"
         inkscape:connector-curvature="0" />
      <path
         d="m 161.35107,125.42715 q -0.33823,0.39459 -0.78919,1.09923 -0.45097,0.70464 -0.87376,1.46565 -0.42278,0.76101 -0.81738,1.46565 -0.36641,0.70464 -0.56371,1.15561 -0.3946,0.87376 -0.76101,1.74751 -0.36641,0.87375 -0.64827,1.77569 -0.22549,0.84557 -0.22549,1.40928 0.0282,0.53553 0.33823,0.70464 0.31004,0.16911 0.90194,-0.0846 0.5919,-0.28185 1.52202,-1.09923 0.90194,-0.81739 1.69114,-1.80388 0.78919,-0.9865 1.35291,-2.05755 0.76101,-0.36641 0.90193,0.45097 -0.64826,1.18379 -1.46565,2.36759 -0.81738,1.15561 -1.80387,2.1421 -1.52203,1.60658 -2.76219,2.14211 -1.21198,0.50734 -2.11392,0.11274 -0.95831,-0.3946 -1.26835,-1.26835 -0.33823,-0.90194 -0.31004,-1.83206 0.0564,-1.74751 0.62008,-3.43865 0.56371,-1.71932 1.40928,-3.21315 0.50734,-0.90194 1.09924,-1.83207 0.62008,-0.93012 1.40928,-1.57839 0.28185,-0.22548 0.70464,-0.33823 0.42278,-0.14092 0.87375,-0.11274 0.47915,0 0.90194,0.14093 0.42278,0.14093 0.67645,0.47916 z m -0.0282,-2.64945 q -0.62009,-0.1973 -1.07106,-0.73282 -0.45097,-0.56372 -0.31004,-1.35291 0.11274,-0.67646 0.36642,-1.29654 0.28185,-0.62008 0.98649,-0.76101 0.3946,-0.0564 0.76101,0 0.3946,0.0564 0.76101,0.1973 0.84557,0.28185 1.07105,0.76101 0.25367,0.47915 0.28186,0.70464 0.0564,0.56371 -0.11274,1.09924 -0.14093,0.53552 -0.53553,0.93012 -0.45097,0.42278 -1.04286,0.53553 -0.5919,0.0845 -1.15561,-0.0846 z"
         style="font-style:normal;font-variant:normal;font-weight:normal;font-stretch:normal;font-size:28.18558502px;font-family:'Painter PERSONAL USE ONLY';-inkscape-font-specification:'Painter PERSONAL USE ONLY, Normal';font-variant-ligatures:normal;font-variant-caps:normal;font-variant-numeric:normal;font-feature-settings:normal;text-align:start;writing-mode:lr-tb;text-anchor:start;fill:#ffffff;stroke-width:0.70463955"
         id="path843"
         inkscape:connector-curvature="0" />
      <path
         d="m 166.60064,132.64266 q -0.31004,0.0282 -0.64827,0.0282 -0.31004,-0.0282 -0.62008,-0.0846 -0.50734,1.5784 -0.31005,2.59308 0.22549,1.01468 0.95831,1.40928 0.76102,0.3946 1.94481,0.14092 1.18379,-0.25367 2.64945,-1.18379 1.18379,-0.81738 2.11391,-1.97299 0.95831,-1.1838 1.60658,-2.36759 0.31004,-0.11274 0.56371,-0.0846 0.28186,0 0.33823,0.53553 -0.64827,1.24017 -1.71932,2.5367 -1.04287,1.29654 -2.31122,2.39578 -2.02936,1.69113 -4.00235,2.25484 -1.97299,0.56372 -3.38227,-0.33822 -1.07105,-0.73283 -1.63476,-1.88844 -0.5919,-1.18379 -0.53553,-2.45214 0.0282,-1.1838 0.45097,-2.36759 0.3946,-1.21198 1.07105,-2.31122 0.67645,-1.09924 1.57839,-2.00118 0.90194,-0.93012 1.94481,-1.49383 1.04287,-0.56371 2.39577,-0.87376 1.3811,-0.31004 2.56489,0 0.5919,0.14093 0.9865,0.50734 0.3946,0.33823 0.56371,0.81739 0.1973,0.45097 0.16911,0.98649 -0.0282,0.53553 -0.22548,1.07105 -0.47916,1.26836 -1.55021,2.14211 -1.04287,0.87375 -2.25485,1.35291 -1.3529,0.56371 -2.70581,0.64827 z m 2.42396,-5.41164 q -1.04287,0.90194 -1.91662,2.05755 -0.84557,1.15561 -1.43747,2.42396 0.42279,-0.11274 0.95831,-0.31004 0.84557,-0.31004 1.63477,-0.73283 0.78919,-0.45097 1.43746,-1.07105 0.56371,-0.50734 1.04287,-1.18379 0.47915,-0.67646 0.42278,-1.49384 0,-0.45097 -0.28185,-0.50734 -0.28186,-0.0564 -0.64827,0.0846 -0.36641,0.14093 -0.70464,0.36641 -0.33823,0.22548 -0.50734,0.36641 z"
         style="font-style:normal;font-variant:normal;font-weight:normal;font-stretch:normal;font-size:28.18558502px;font-family:'Painter PERSONAL USE ONLY';-inkscape-font-specification:'Painter PERSONAL USE ONLY, Normal';font-variant-ligatures:normal;font-variant-caps:normal;font-variant-numeric:normal;font-feature-settings:normal;text-align:start;writing-mode:lr-tb;text-anchor:start;fill:#ffffff;stroke-width:0.70463955"
         id="path845"
         inkscape:connector-curvature="0" />
      <path
         d="m 188.58319,131.20519 q 0.87375,-0.36641 0.90194,0.45097 -0.84557,1.60658 -1.83207,3.04404 -0.98649,1.40928 -2.22666,2.59308 -0.53552,0.50734 -1.24016,0.95831 -0.70464,0.42278 -1.43747,0.59189 -0.73282,0.1973 -1.46565,0.0282 -0.73282,-0.14093 -1.32472,-0.84557 -0.50734,-0.56371 -0.62008,-1.29654 -0.11275,-0.73282 0,-1.52202 0.14092,-0.78919 0.39459,-1.5502 0.28186,-0.76101 0.53553,-1.40928 0.56371,-1.26835 1.29654,-2.42396 0.76101,-1.1838 1.38109,-2.45215 -0.81738,0.64827 -1.77569,1.52202 -0.93013,0.87376 -1.57839,1.66295 -0.84557,1.01468 -1.60658,2.08574 -0.76101,1.04286 -1.49384,2.1421 -0.36641,0.56371 -0.70464,1.12742 -0.33823,0.53553 -0.64827,1.09924 -0.16911,0.25367 -0.42278,0.64827 -0.25367,0.36641 -0.70464,0.33823 -0.33823,0 -0.67645,-0.1973 -0.33823,-0.1973 -0.5919,-0.47916 -0.28186,-0.28185 -0.42279,-0.5919 -0.16911,-0.33822 -0.11274,-0.59189 0.45097,-2.05755 1.55021,-3.94598 1.07105,-1.91662 2.19848,-3.69232 0.47915,-0.73282 0.90193,-1.52202 0.45097,-0.78919 0.9865,-1.52202 0.25367,-0.36641 0.64827,-0.50734 0.42278,-0.14093 1.15561,0.28186 0.33822,0.1973 0.50734,0.39459 0.1973,0.16912 0.1973,0.45097 0,0.25367 -0.22549,0.64827 -0.1973,0.3946 -0.62008,0.9865 -0.3946,0.53552 -0.84557,1.29653 -0.42278,0.76102 -0.73282,1.3811 0.45097,-0.50734 1.07105,-1.21198 0.64827,-0.70464 1.35291,-1.40928 0.70464,-0.70464 1.40928,-1.29654 0.73282,-0.5919 1.3529,-0.90194 0.76101,-0.39459 1.7757,-0.28185 1.04286,0.11274 1.86024,0.90194 0.22549,0.22548 0.1973,0.39459 -0.0282,0.14093 -0.16911,0.42279 -0.25367,0.5919 -0.5919,1.18379 -0.33822,0.62009 -0.70464,1.24017 -0.36641,0.5919 -0.70464,1.24016 -0.47915,0.87376 -1.04286,1.86025 -0.53553,0.95831 -0.93013,1.91662 -0.42278,1.15561 -0.25367,1.69114 0.1973,0.53552 0.73283,0.53552 0.56371,-0.0282 1.38109,-0.56371 0.81738,-0.53552 1.66295,-1.55021 0.5919,-0.73282 1.15561,-1.5502 0.56371,-0.81738 1.09924,-1.80388 z"
         style="font-style:normal;font-variant:normal;font-weight:normal;font-stretch:normal;font-size:28.18558502px;font-family:'Painter PERSONAL USE ONLY';-inkscape-font-specification:'Painter PERSONAL USE ONLY, Normal';font-variant-ligatures:normal;font-variant-caps:normal;font-variant-numeric:normal;font-feature-settings:normal;text-align:start;writing-mode:lr-tb;text-anchor:start;fill:#ffffff;stroke-width:0.70463955"
         id="path847"
         inkscape:connector-curvature="0" />
      <path
         d="m 195.37195,125.42715 q -0.33823,0.39459 -0.7892,1.09923 -0.45097,0.70464 -0.87375,1.46565 -0.42278,0.76101 -0.81738,1.46565 -0.36641,0.70464 -0.56371,1.15561 -0.3946,0.87376 -0.76101,1.74751 -0.36642,0.87375 -0.64827,1.77569 -0.22549,0.84557 -0.22549,1.40928 0.0282,0.53553 0.33823,0.70464 0.31004,0.16911 0.90194,-0.0846 0.5919,-0.28185 1.52202,-1.09923 0.90194,-0.81739 1.69113,-1.80388 0.7892,-0.9865 1.35291,-2.05755 0.76101,-0.36641 0.90194,0.45097 -0.64827,1.18379 -1.46565,2.36759 -0.81738,1.15561 -1.80388,2.1421 -1.52202,1.60658 -2.76218,2.14211 -1.21198,0.50734 -2.11392,0.11274 -0.95831,-0.3946 -1.26835,-1.26835 -0.33823,-0.90194 -0.31005,-1.83206 0.0564,-1.74751 0.62009,-3.43865 0.56371,-1.71932 1.40928,-3.21315 0.50734,-0.90194 1.09923,-1.83207 0.62009,-0.93012 1.40928,-1.57839 0.28186,-0.22548 0.70464,-0.33823 0.42279,-0.14092 0.87376,-0.11274 0.47915,0 0.90194,0.14093 0.42278,0.14093 0.67645,0.47916 z m -0.0282,-2.64945 q -0.62008,-0.1973 -1.07105,-0.73282 -0.45097,-0.56372 -0.31004,-1.35291 0.11274,-0.67646 0.36641,-1.29654 0.28186,-0.62008 0.9865,-0.76101 0.3946,-0.0564 0.76101,0 0.3946,0.0564 0.76101,0.1973 0.84557,0.28185 1.07105,0.76101 0.25367,0.47915 0.28186,0.70464 0.0564,0.56371 -0.11274,1.09924 -0.14093,0.53552 -0.53553,0.93012 -0.45097,0.42278 -1.04287,0.53553 -0.59189,0.0845 -1.15561,-0.0846 z"
         style="font-style:normal;font-variant:normal;font-weight:normal;font-stretch:normal;font-size:28.18558502px;font-family:'Painter PERSONAL USE ONLY';-inkscape-font-specification:'Painter PERSONAL USE ONLY, Normal';font-variant-ligatures:normal;font-variant-caps:normal;font-variant-numeric:normal;font-feature-settings:normal;text-align:start;writing-mode:lr-tb;text-anchor:start;fill:#ffffff;stroke-width:0.70463955"
         id="path849"
         inkscape:connector-curvature="0" />
      <path
         d="m 202.31265,130.86696 q 0.42279,-0.45097 0.81739,-1.07105 0.39459,-0.64827 0.64826,-1.26835 0.28186,-0.64827 0.3946,-1.18379 0.14093,-0.56372 0.0282,-0.84557 l -0.0564,-0.11274 q -0.3946,0.25367 -0.76101,0.53552 -0.36642,0.25367 -0.67646,0.56371 -1.01468,0.93013 -1.7475,2.05755 -0.56372,0.7892 -1.04287,1.74751 -0.45097,0.95831 -0.67645,1.9448 -0.33823,1.24017 -0.0564,1.97299 0.28186,0.70464 0.93013,0.95831 0.64827,0.25367 1.55021,0.0846 0.90193,-0.1973 1.86024,-0.76101 1.21198,-0.70464 2.22667,-1.77569 1.04286,-1.07105 1.80387,-2.50852 0.33823,-0.14093 0.56371,-0.0846 0.25368,0.0564 0.33823,0.53553 -0.84557,1.60658 -1.97299,2.87493 -1.09924,1.26835 -2.5367,2.31122 -1.66295,1.18379 -3.29772,1.46565 -1.60657,0.28185 -2.79037,-0.28186 -1.18379,-0.5919 -1.69113,-2.02936 -0.53553,-1.46565 0,-3.74868 0.36641,-1.49384 1.15561,-2.84675 0.78919,-1.38109 1.88843,-2.45214 0.62008,-0.5919 1.35291,-1.01468 0.73282,-0.45097 1.55021,-0.64827 0.36641,-0.0846 0.70463,-0.11274 0.36642,-0.0282 0.76102,0.0282 0.14092,-0.0846 0.28185,-0.11274 0.16912,-0.0564 0.33823,-0.11274 0.81738,-0.14093 1.46565,0.16911 0.64827,0.28186 0.95831,0.87375 0.25367,0.50734 0.22548,1.21198 -0.0282,0.67646 -0.28185,1.3811 -0.22549,0.70464 -0.64827,1.29653 -0.42278,0.5919 -0.95831,0.87376 -0.53553,0.31004 -1.26835,0.33822 -0.73283,0 -1.3811,-0.25367 z"
         style="font-style:normal;font-variant:normal;font-weight:normal;font-stretch:normal;font-size:28.18558502px;font-family:'Painter PERSONAL USE ONLY';-inkscape-font-specification:'Painter PERSONAL USE ONLY, Normal';font-variant-ligatures:normal;font-variant-caps:normal;font-variant-numeric:normal;font-feature-settings:normal;text-align:start;writing-mode:lr-tb;text-anchor:start;fill:#ffffff;stroke-width:0.70463955"
         id="path851"
         inkscape:connector-curvature="0" />
      <path
         d="m 221.49514,126.01904 q -0.31004,0.42279 -0.76101,1.09924 -0.42278,0.67645 -0.90194,1.46565 -0.47915,0.7892 -0.95831,1.63476 -0.45097,0.84557 -0.81738,1.60658 -0.76101,1.5784 -1.18379,2.64945 -0.42279,1.07105 -0.22549,1.38109 0.0846,0.14093 0.28186,0.14093 0.22548,-0.0282 0.47915,-0.11274 0.25367,-0.0846 0.45097,-0.1973 0.22549,-0.14093 0.31004,-0.1973 0.62009,-0.3946 1.09924,-0.90194 0.47916,-0.53553 0.90194,-1.09924 0.3946,-0.53552 0.76101,-1.12742 0.36641,-0.5919 0.67646,-1.15561 0.33822,-0.0846 0.56371,0 0.25367,0.0846 0.33822,0.45097 -0.39459,0.73282 -0.76101,1.43746 -0.36641,0.70464 -0.84556,1.3811 -0.45097,0.67645 -0.95831,1.29654 -0.47916,0.62008 -1.04287,1.18379 -0.53553,0.53553 -1.18379,0.95831 -0.62009,0.3946 -1.40928,0.36641 -0.7892,0 -1.40928,-0.45097 -0.62009,-0.45097 -0.90194,-1.18379 -0.14093,-0.33823 -0.1973,-0.76101 -0.45097,0.64827 -0.95831,1.18379 -0.50734,0.53553 -1.15561,0.90194 -0.90194,0.50734 -1.88843,0.42278 -0.9865,-0.0845 -1.71932,-0.76101 -0.70464,-0.64826 -0.95831,-1.52202 -0.25368,-0.90194 -0.25368,-1.80388 0.0282,-1.12742 0.36642,-2.22666 0.33822,-1.09923 0.87375,-2.11392 0.56371,-1.01468 1.26835,-1.88843 0.73283,-0.90194 1.55021,-1.63476 0.7892,-0.73283 1.77569,-1.1838 1.01468,-0.45097 2.08573,-0.3946 1.04287,0.0564 1.83207,0.64827 0.78919,0.56371 1.15561,1.52202 0.33822,-0.39459 0.76101,-0.70464 0.45097,-0.33822 0.93012,-0.50734 0.50734,-0.1973 1.07105,-0.16911 0.5919,0.0282 0.95831,0.36641 z m -8.90664,7.72285 q 1.26835,-0.90194 2.28303,-2.31122 1.01468,-1.40927 1.32472,-2.98767 0.14093,-0.59189 -0.0282,-1.15561 -0.16912,-0.59189 -0.87376,-0.70464 -0.56371,-0.0846 -1.04286,0.22549 -0.47916,0.31004 -0.87375,0.67645 -1.21199,1.1838 -1.973,2.70582 -0.73282,1.52202 -1.12742,3.15678 -0.36641,1.63477 0.14093,2.17029 0.53552,0.50735 1.43746,0.0282 0.5919,-0.31004 1.09924,-0.76101 0.53553,-0.45097 1.01468,-0.93012 -0.3946,0.0846 -0.81738,0.11274 -0.3946,0 -0.56371,-0.22549 z"
         style="font-style:normal;font-variant:normal;font-weight:normal;font-stretch:normal;font-size:28.18558502px;font-family:'Painter PERSONAL USE ONLY';-inkscape-font-specification:'Painter PERSONAL USE ONLY, Normal';font-variant-ligatures:normal;font-variant-caps:normal;font-variant-numeric:normal;font-feature-settings:normal;text-align:start;writing-mode:lr-tb;text-anchor:start;fill:#ffffff;stroke-width:0.70463955"
         id="path853"
         inkscape:connector-curvature="0" />
      <path
         d="m 245.33971,131.20519 q 0.87375,-0.36641 0.90194,0.45097 -0.84557,1.60658 -1.83206,3.04404 -0.9865,1.40928 -2.22666,2.59308 -0.53553,0.50734 -1.24017,0.95831 -0.70464,0.42278 -1.43747,0.59189 -0.73282,0.1973 -1.46565,0.0282 -0.73282,-0.14093 -1.32472,-0.84557 -0.50734,-0.56371 -0.62008,-1.29654 -0.11274,-0.73282 0,-1.52202 0.14093,-0.78919 0.3946,-1.5502 0.28185,-0.76101 0.53552,-1.40928 0.56371,-1.26835 1.29654,-2.42396 0.76101,-1.1838 1.38109,-2.45215 -0.81738,0.64827 -1.77569,1.52202 -0.93012,0.87376 -1.57839,1.66295 -0.84557,1.01468 -1.60658,2.08574 -0.76101,1.04286 -1.49384,2.1421 -0.36641,0.56371 -0.70464,1.12742 -0.33822,0.53553 -0.64826,1.09924 -0.16912,0.25367 -0.42279,0.64827 -0.25367,0.36641 -0.70464,0.33823 -0.33822,0 -0.67645,-0.1973 -0.33823,-0.1973 -0.5919,-0.47916 -0.28185,-0.28185 -0.42278,-0.5919 -0.16912,-0.33822 -0.11274,-0.59189 0.45097,-2.05755 1.5502,-3.94598 1.07106,-1.91662 2.19848,-3.69232 0.47915,-0.73282 0.90194,-1.52202 0.45097,-0.78919 0.98649,-1.52202 0.25367,-0.36641 0.64827,-0.50734 0.42278,-0.14093 1.15561,0.28186 0.33823,0.1973 0.50734,0.39459 0.1973,0.16912 0.1973,0.45097 0,0.25367 -0.22548,0.64827 -0.1973,0.3946 -0.62009,0.9865 -0.3946,0.53552 -0.84557,1.29653 -0.42278,0.76102 -0.73282,1.3811 0.45097,-0.50734 1.07105,-1.21198 0.64827,-0.70464 1.35291,-1.40928 0.70464,-0.70464 1.40928,-1.29654 0.73282,-0.5919 1.35291,-0.90194 0.76101,-0.39459 1.77569,-0.28185 1.04287,0.11274 1.86025,0.90194 0.22548,0.22548 0.1973,0.39459 -0.0282,0.14093 -0.16912,0.42279 -0.25367,0.5919 -0.59189,1.18379 -0.33823,0.62009 -0.70464,1.24017 -0.36642,0.5919 -0.70464,1.24016 -0.47916,0.87376 -1.04287,1.86025 -0.53553,0.95831 -0.93012,1.91662 -0.42279,1.15561 -0.25367,1.69114 0.19729,0.53552 0.73282,0.53552 0.56371,-0.0282 1.38109,-0.56371 0.81739,-0.53552 1.66295,-1.55021 0.5919,-0.73282 1.15561,-1.5502 0.56371,-0.81738 1.09924,-1.80388 z"
         style="font-style:normal;font-variant:normal;font-weight:normal;font-stretch:normal;font-size:28.18558502px;font-family:'Painter PERSONAL USE ONLY';-inkscape-font-specification:'Painter PERSONAL USE ONLY, Normal';font-variant-ligatures:normal;font-variant-caps:normal;font-variant-numeric:normal;font-feature-settings:normal;text-align:start;writing-mode:lr-tb;text-anchor:start;fill:#ffffff;stroke-width:0.70463955"
         id="path855"
         inkscape:connector-curvature="0" />
      <path
         d="m 259.25943,126.01904 q -0.31005,0.42279 -0.76102,1.09924 -0.42278,0.67645 -0.90193,1.46565 -0.47916,0.7892 -0.95831,1.63476 -0.45097,0.84557 -0.81739,1.60658 -0.76101,1.5784 -1.18379,2.64945 -0.42278,1.07105 -0.22548,1.38109 0.0846,0.14093 0.28185,0.14093 0.22549,-0.0282 0.47916,-0.11274 0.25367,-0.0846 0.45097,-0.1973 0.22548,-0.14093 0.31004,-0.1973 0.62008,-0.3946 1.09923,-0.90194 0.47916,-0.53553 0.90194,-1.09924 0.3946,-0.53552 0.76101,-1.12742 0.36642,-0.5919 0.67646,-1.15561 0.33823,-0.0846 0.56371,0 0.25367,0.0846 0.33823,0.45097 -0.3946,0.73282 -0.76101,1.43746 -0.36642,0.70464 -0.84557,1.3811 -0.45097,0.67645 -0.95831,1.29654 -0.47916,0.62008 -1.04287,1.18379 -0.53552,0.53553 -1.18379,0.95831 -0.62009,0.3946 -1.40928,0.36641 -0.7892,0 -1.40928,-0.45097 -0.62008,-0.45097 -0.90194,-1.18379 -0.14093,-0.33823 -0.1973,-0.76101 -0.45097,0.64827 -0.95831,1.18379 -0.50734,0.53553 -1.15561,0.90194 -0.90194,0.50734 -1.88843,0.42278 -0.9865,-0.0845 -1.71932,-0.76101 -0.70464,-0.64826 -0.95831,-1.52202 -0.25367,-0.90194 -0.25367,-1.80388 0.0282,-1.12742 0.36641,-2.22666 0.33823,-1.09923 0.87375,-2.11392 0.56371,-1.01468 1.26835,-1.88843 0.73283,-0.90194 1.55021,-1.63476 0.7892,-0.73283 1.77569,-1.1838 1.01468,-0.45097 2.08574,-0.3946 1.04286,0.0564 1.83206,0.64827 0.7892,0.56371 1.15561,1.52202 0.33823,-0.39459 0.76101,-0.70464 0.45097,-0.33822 0.93012,-0.50734 0.50734,-0.1973 1.07106,-0.16911 0.59189,0.0282 0.95831,0.36641 z m -8.90665,7.72285 q 1.26835,-0.90194 2.28303,-2.31122 1.01468,-1.40927 1.32473,-2.98767 0.14092,-0.59189 -0.0282,-1.15561 -0.16911,-0.59189 -0.87375,-0.70464 -0.56371,-0.0846 -1.04287,0.22549 -0.47915,0.31004 -0.87375,0.67645 -1.21198,1.1838 -1.97299,2.70582 -0.73283,1.52202 -1.12743,3.15678 -0.36641,1.63477 0.14093,2.17029 0.53553,0.50735 1.43747,0.0282 0.59189,-0.31004 1.09923,-0.76101 0.53553,-0.45097 1.01468,-0.93012 -0.39459,0.0846 -0.81738,0.11274 -0.3946,0 -0.56371,-0.22549 z"
         style="font-style:normal;font-variant:normal;font-weight:normal;font-stretch:normal;font-size:28.18558502px;font-family:'Painter PERSONAL USE ONLY';-inkscape-font-specification:'Painter PERSONAL USE ONLY, Normal';font-variant-ligatures:normal;font-variant-caps:normal;font-variant-numeric:normal;font-feature-settings:normal;text-align:start;writing-mode:lr-tb;text-anchor:start;fill:#ffffff;stroke-width:0.70463955"
         id="path857"
         inkscape:connector-curvature="0" />
      <path
         d="m 290.65772,120.35374 q 0.53553,0.73283 0.53553,1.52202 0,0.76101 -0.33823,1.49384 -0.33823,0.73282 -0.90194,1.38109 -0.56371,0.62008 -1.15561,1.04287 -1.18379,0.84557 -2.59307,1.38109 -1.38109,0.53553 -2.81856,0.70464 -1.12742,0.11274 -2.22666,-0.0564 -1.09924,-0.1973 -2.08573,-0.70464 -0.14093,0.1973 -0.28186,0.3946 -0.11274,0.1973 -0.25367,0.42278 -0.28186,0.47916 -0.64827,1.1838 -0.36641,0.67645 -0.67645,1.40928 -0.28186,0.73282 -0.45097,1.49383 -0.14093,0.73283 0.0282,1.35291 0.1973,0.73283 0.84557,1.04287 0.67646,0.31004 1.3811,0.16911 0.76101,-0.14093 1.38109,-0.67645 0.62008,-0.53553 1.04287,-1.15561 0.42278,-0.84557 1.1556,-1.74751 0.73283,-0.90194 1.5784,-1.40928 0.25367,-0.16911 0.64827,-0.31004 0.42278,-0.16911 0.90193,-0.22548 0.50735,-0.0564 0.9865,0.0282 0.50734,0.0564 0.93012,0.33823 -0.87375,1.01468 -1.52202,2.31122 -0.64827,1.26835 -1.32472,2.5367 -0.9865,1.71932 -1.94481,3.43864 -0.9583,1.69114 -2.1421,3.26953 -0.50734,0.67645 -1.09924,1.35291 -0.59189,0.67645 -1.26835,1.21198 -0.67645,0.56371 -1.46565,0.95831 -0.76101,0.42278 -1.63476,0.53552 -0.76101,0.11274 -1.5784,0.0282 -0.78919,-0.0846 -1.52202,-0.36641 -0.73282,-0.25367 -1.35291,-0.73283 -0.62008,-0.45097 -1.07105,-1.09924 -0.50734,-0.73282 -0.67645,-1.60658 -0.16912,-0.87375 -0.0282,-1.7475 0.14093,-0.87376 0.56371,-1.63477 0.45097,-0.78919 1.1838,-1.32472 0.64827,-0.47915 1.46565,-0.64827 0.84557,-0.1973 1.60658,0.11275 0.25367,0.11274 0.28185,0.22548 0.0282,0.0846 -0.0564,0.1973 -0.0846,0.0846 -0.25367,0.1973 -0.14093,0.0845 -0.25367,0.1973 -0.76101,0.76101 -1.12742,1.7475 -0.33823,1.01468 -0.33823,1.97299 0.0282,0.9865 0.3946,1.74751 0.36641,0.7892 1.01468,1.04287 0.7892,0.33822 1.49384,0.14093 0.73282,-0.1973 1.32472,-0.67646 0.62008,-0.47915 1.09924,-1.15561 0.47915,-0.67645 0.78919,-1.29653 0.56372,-1.12743 0.9865,-2.28304 0.42278,-1.15561 0.90194,-2.3394 -0.31004,0.22548 -0.64827,0.45097 -0.33823,0.22548 -0.70464,0.36641 -0.81738,0.36641 -1.63476,0.36641 -0.81739,-0.0282 -1.55021,-0.33822 -0.70464,-0.31004 -1.26835,-0.90194 -0.56371,-0.62008 -0.90194,-1.43747 -0.50734,-1.26835 -0.42279,-2.5367 0.0846,-1.29654 0.5919,-2.50852 0.50734,-1.24016 1.32472,-2.36759 0.81739,-1.12742 1.74751,-2.08573 -0.56371,-0.98649 -0.67645,-2.11392 -0.0846,-1.15561 0.47915,-2.22666 0.11274,-0.1973 0.28186,-0.45097 0.1973,-0.28185 0.42278,-0.50734 0.22549,-0.25367 0.45097,-0.3946 0.25367,-0.16911 0.50734,-0.16911 0.1973,0.90194 0.42278,1.83206 0.22549,0.90194 0.73283,1.69114 1.21198,-0.90194 2.5367,-1.60658 1.32473,-0.73283 2.79038,-1.15561 0.70464,-0.1973 1.5502,-0.36641 0.84557,-0.1973 1.69114,-0.16912 0.84557,0 1.57839,0.28186 0.76101,0.25367 1.26835,0.95831 z m -5.32707,4.03054 q 0.50734,-0.0846 1.18379,-0.25367 0.67646,-0.1973 1.29654,-0.50734 0.62008,-0.33823 1.07105,-0.81738 0.47916,-0.47916 0.56371,-1.1838 0.0564,-0.67645 -0.31004,-0.95831 -0.33823,-0.31004 -0.87375,-0.36641 -0.53553,-0.0846 -1.15561,0.0564 -0.5919,0.11274 -1.01468,0.28186 -0.81738,0.31004 -1.52202,0.78919 -0.70464,0.47916 -1.35291,1.01468 -0.47916,0.3946 -0.95831,0.84557 -0.45097,0.42278 -0.87376,0.87375 0.93013,0.33823 1.973,0.36642 1.04286,0 1.97299,-0.14093 z"
         style="font-style:normal;font-variant:normal;font-weight:normal;font-stretch:normal;font-size:28.18558502px;font-family:'Painter PERSONAL USE ONLY';-inkscape-font-specification:'Painter PERSONAL USE ONLY, Normal';font-variant-ligatures:normal;font-variant-caps:normal;font-variant-numeric:normal;font-feature-settings:normal;text-align:start;writing-mode:lr-tb;text-anchor:start;fill:#ffffff;stroke-width:0.70463955"
         id="path859"
         inkscape:connector-curvature="0" />
      <path
         d="m 296.33184,125.9063 q 0.36641,-0.14093 0.90194,-0.0564 0.81738,0.16911 1.32472,0.84557 0.50734,0.67645 0.70464,1.43746 0.28185,1.24017 0.0282,2.56489 -0.25367,1.29654 -0.78919,2.48033 0.90194,0.36641 1.7475,-0.1973 0.87376,-0.56371 1.52202,-1.77569 0.81739,-0.36641 0.90194,0.45097 -0.90194,1.71932 -2.25484,2.67763 -1.32473,0.93012 -3.26953,1.07105 -0.45097,0.5919 -0.9865,1.1838 -0.50734,0.56371 -1.09923,1.01468 -0.5919,0.45097 -1.29654,0.76101 -0.67646,0.28185 -1.43747,0.33823 -0.93012,0.0564 -1.69113,-0.28186 -0.76101,-0.31004 -1.32472,-0.90194 -0.56372,-0.62008 -0.90194,-1.40928 -0.33823,-0.78919 -0.42279,-1.66295 -0.0845,-0.98649 0.0846,-1.97299 0.16911,-1.01468 0.53553,-1.97299 0.39459,-0.95831 0.95831,-1.80388 0.56371,-0.84556 1.26835,-1.52202 0.70464,-0.64827 1.5502,-1.09924 0.87376,-0.45097 1.83207,-0.53552 0.47915,-0.0564 1.01468,0.0282 0.56371,0.0564 1.01468,0.28186 z m -1.35291,6.2572 q 0.47915,-0.42278 1.01468,-0.67645 0.56371,-0.25367 1.01468,-0.0282 0.1973,0.11274 0.33823,0.31004 0.22548,-0.76101 0.25367,-1.57839 0.0564,-0.81738 -0.14093,-1.63476 -0.14093,-0.47916 -0.42278,-0.76102 -0.25367,-0.31004 -0.64827,-0.59189 -0.50734,-0.0282 -0.95831,0.0846 -0.45097,0.11275 -0.87376,0.33823 -0.70463,0.36641 -1.32472,1.09924 -0.62008,0.70464 -1.09924,1.60658 -0.45096,0.87375 -0.76101,1.83206 -0.28185,0.95831 -0.33822,1.83206 -0.0282,0.84557 0.1973,1.52202 0.22548,0.64827 0.81738,0.93013 0.70464,0.36641 1.63476,0.0564 0.93013,-0.33823 1.77569,-1.32472 -0.39459,-0.14093 -0.73282,-0.36641 -0.31004,-0.25368 -0.47916,-0.62009 -0.22548,-0.47915 0,-1.01468 0.25367,-0.56371 0.73283,-1.01468 z m -0.45097,-8.65297 q 0.5919,-0.62009 1.24016,-1.49384 0.64827,-0.87375 1.32473,-1.63476 0.70464,-0.76102 1.40928,-1.21198 0.73282,-0.45097 1.43746,-0.28186 0.76101,0.1973 1.04287,0.95831 0.28185,0.76101 -0.0846,1.49384 -0.25367,0.53552 -0.90194,0.95831 -0.62008,0.39459 -1.15561,0.62008 -1.49383,0.64827 -2.56488,0.70464 -1.04287,0.0282 -1.74751,-0.11274 z"
         style="font-style:normal;font-variant:normal;font-weight:normal;font-stretch:normal;font-size:28.18558502px;font-family:'Painter PERSONAL USE ONLY';-inkscape-font-specification:'Painter PERSONAL USE ONLY, Normal';font-variant-ligatures:normal;font-variant-caps:normal;font-variant-numeric:normal;font-feature-settings:normal;text-align:start;writing-mode:lr-tb;text-anchor:start;fill:#ffffff;stroke-width:0.70463955"
         id="path861"
         inkscape:connector-curvature="0" />
      <path
         d="m 298.26696,135.96855 q 1.71932,-1.97299 3.10041,-4.22783 1.3811,-2.28304 2.33941,-4.87611 -0.33823,-0.64827 -0.28186,-1.29654 0.0564,-0.64827 0.31004,-1.12742 0.28186,-0.47916 0.70464,-0.67645 0.42278,-0.1973 0.84557,0.0845 0.47915,0.31004 0.3946,0.90194 -0.0846,0.56371 -0.31004,1.12742 0.19729,0.11275 0.45096,0.11275 0.28186,0 0.47916,0 0.73282,-0.0564 1.35291,-0.25367 0.3946,-0.56371 0.73282,-0.76101 0.33823,-0.22549 0.81738,0.16911 1.12743,0.87375 1.26836,1.66295 0.16911,0.76101 -0.47916,1.43746 -1.07105,1.3811 -2.08573,2.95949 -1.01468,1.57839 -1.52202,2.9313 -0.36642,0.9865 -0.31004,1.60658 0.0564,0.5919 0.42278,0.7892 0.36641,0.16911 0.95831,-0.0564 0.62008,-0.22548 1.35291,-0.87375 0.81738,-0.73282 1.71932,-1.91662 0.90194,-1.18379 1.57839,-2.48033 0.3946,-0.22548 0.62008,-0.0282 0.25367,0.16912 0.28186,0.47916 -0.76101,1.43746 -1.57839,2.64944 -0.7892,1.21198 -1.88844,2.31122 -0.90194,0.90194 -1.83206,1.35291 -0.93013,0.42278 -1.77569,0.47916 -0.84557,0.0564 -1.52202,-0.28186 -0.67646,-0.33823 -1.07106,-0.9865 -0.39459,-0.67645 -0.42278,-1.63476 -0.0282,-0.9865 0.45097,-2.22666 0.56371,-1.49384 1.40928,-2.95949 0.84557,-1.46565 1.63476,-2.48033 -0.22548,0 -0.31004,-0.0282 -0.25367,-0.0282 -0.64827,-0.11275 -0.3946,-0.11274 -0.78919,-0.28185 -0.31005,0.81738 -0.7892,1.9448 -0.47916,1.09924 -1.12742,2.28304 -0.53553,1.01468 -1.07106,1.86024 -0.56371,0.84557 -1.12742,1.40928 -0.56371,0.56371 -1.12742,0.84557 -0.5919,0.28186 -1.15561,0.16911 z"
         style="font-style:normal;font-variant:normal;font-weight:normal;font-stretch:normal;font-size:28.18558502px;font-family:'Painter PERSONAL USE ONLY';-inkscape-font-specification:'Painter PERSONAL USE ONLY, Normal';font-variant-ligatures:normal;font-variant-caps:normal;font-variant-numeric:normal;font-feature-settings:normal;text-align:start;writing-mode:lr-tb;text-anchor:start;fill:#ffffff;stroke-width:0.70463955"
         id="path863"
         inkscape:connector-curvature="0" />
      <path
         d="m 317.9176,130.86696 q 0.42278,-0.45097 0.81738,-1.07105 0.3946,-0.64827 0.64827,-1.26835 0.28185,-0.64827 0.3946,-1.18379 0.14092,-0.56372 0.0282,-0.84557 l -0.0564,-0.11274 q -0.3946,0.25367 -0.76101,0.53552 -0.36641,0.25367 -0.67646,0.56371 -1.01468,0.93013 -1.7475,2.05755 -0.56371,0.7892 -1.04287,1.74751 -0.45097,0.95831 -0.67645,1.9448 -0.33823,1.24017 -0.0564,1.97299 0.28185,0.70464 0.93012,0.95831 0.64827,0.25367 1.55021,0.0846 0.90194,-0.1973 1.86025,-0.76101 1.21198,-0.70464 2.22666,-1.77569 1.04286,-1.07105 1.80388,-2.50852 0.33822,-0.14093 0.56371,-0.0846 0.25367,0.0564 0.33822,0.53553 -0.84556,1.60658 -1.97299,2.87493 -1.09923,1.26835 -2.5367,2.31122 -1.66295,1.18379 -3.29771,1.46565 -1.60658,0.28185 -2.79038,-0.28186 -1.18379,-0.5919 -1.69113,-2.02936 -0.53553,-1.46565 0,-3.74868 0.36641,-1.49384 1.15561,-2.84675 0.78919,-1.38109 1.88843,-2.45214 0.62009,-0.5919 1.35291,-1.01468 0.73283,-0.45097 1.55021,-0.64827 0.36641,-0.0846 0.70464,-0.11274 0.36641,-0.0282 0.76101,0.0282 0.14093,-0.0846 0.28185,-0.11274 0.16912,-0.0564 0.33823,-0.11274 0.81738,-0.14093 1.46565,0.16911 0.64827,0.28186 0.95831,0.87375 0.25367,0.50734 0.22549,1.21198 -0.0282,0.67646 -0.28186,1.3811 -0.22548,0.70464 -0.64827,1.29653 -0.42278,0.5919 -0.95831,0.87376 -0.53552,0.31004 -1.26835,0.33822 -0.73282,0 -1.38109,-0.25367 z"
         style="font-style:normal;font-variant:normal;font-weight:normal;font-stretch:normal;font-size:28.18558502px;font-family:'Painter PERSONAL USE ONLY';-inkscape-font-specification:'Painter PERSONAL USE ONLY, Normal';font-variant-ligatures:normal;font-variant-caps:normal;font-variant-numeric:normal;font-feature-settings:normal;text-align:start;writing-mode:lr-tb;text-anchor:start;fill:#ffffff;stroke-width:0.70463955"
         id="path865"
         inkscape:connector-curvature="0" />
      <path
         d="m 332.70313,128.2457 q -0.90194,0.50734 -1.71932,1.12743 -0.81739,0.59189 -1.5784,1.24016 -0.64826,0.53553 -1.38109,1.21198 -0.70464,0.64827 -1.46565,1.32473 -0.76101,0.67645 -1.52202,1.29653 -0.76101,0.62009 -1.46565,1.04287 0.87375,-0.14093 1.86025,-0.33823 1.01468,-0.1973 2.00117,-0.28185 1.01468,-0.11275 1.91662,-0.0282 0.90194,0.0564 1.5784,0.42278 1.04286,0.56372 1.26835,1.40928 0.25367,0.81739 0.0846,1.74751 -0.84556,-0.14093 -2.08573,-0.1973 -1.21198,-0.0564 -2.62126,-0.0282 -1.40928,0 -2.90311,0.0846 -1.46566,0.0846 -2.81856,0.22549 -0.36642,0.0564 -0.73283,0.11274 -0.3946,0.0564 -0.76101,0.0282 -0.45097,-0.0282 -0.67645,-0.25367 -0.22549,-0.25367 -0.36642,-0.87375 -0.14092,-0.62008 0,-0.90194 0.11275,-0.31004 0.33823,-0.3946 0.90194,-0.39459 1.74751,-0.95831 0.81738,-0.59189 1.60658,-1.21198 0.67645,-0.53552 1.40927,-1.1556 0.76102,-0.64827 1.52203,-1.32473 0.78919,-0.67645 1.52202,-1.32472 0.73282,-0.67645 1.38109,-1.24017 0.3946,-0.33822 0.70464,-0.59189 0.31004,-0.25367 0.73283,-0.53553 -0.50734,0 -1.09924,0.0846 -0.56371,0.0564 -1.12742,0.11274 -0.56372,0.0282 -1.09924,0 -0.50734,-0.0282 -0.90194,-0.25367 -0.87375,-0.47915 -0.9865,-1.15561 -0.11274,-0.67645 0.16912,-1.57839 0.1973,0.0846 0.78919,0.11274 0.62009,0 1.43747,0 0.81738,0 1.7475,-0.0282 0.93013,-0.0282 1.7757,-0.0282 0.87375,-0.0282 1.5502,-0.0564 0.67646,-0.0282 0.9865,-0.0282 0.53553,0.0282 0.7892,0.50734 0.25367,0.47916 0.14092,1.88844 -0.45097,0.1973 -0.90194,0.3946 -0.42278,0.16911 -0.84556,0.39459 z"
         style="font-style:normal;font-variant:normal;font-weight:normal;font-stretch:normal;font-size:28.18558502px;font-family:'Painter PERSONAL USE ONLY';-inkscape-font-specification:'Painter PERSONAL USE ONLY, Normal';font-variant-ligatures:normal;font-variant-caps:normal;font-variant-numeric:normal;font-feature-settings:normal;text-align:start;writing-mode:lr-tb;text-anchor:start;fill:#ffffff;stroke-width:0.70463955"
         id="path867"
         inkscape:connector-curvature="0" />
      <path
         d="m 348.60421,125.59626 q -0.53553,1.01468 -1.01468,1.86025 -0.3946,0.73282 -0.7892,1.43746 -0.36641,0.67646 -0.50734,0.93013 -1.35291,2.56488 -2.42396,5.2707 -1.07105,2.67763 -2.17029,5.52438 l 1.26835,0.39459 q 0.50734,0.16912 1.09924,0.28186 0.62008,0.14093 1.18379,0.1973 0.5919,0.0564 1.04287,-0.11274 0.45097,-0.16912 0.84557,-0.47916 -0.25367,0.90194 -0.84557,1.63477 -0.56371,0.73282 -1.38109,1.18379 -0.84557,0.45097 -1.74751,0.50734 -0.90194,0.0564 -1.83206,-0.0846 l -0.95831,-0.1973 q -0.47916,1.1838 -1.09924,2.25485 -0.62008,1.09924 -1.52202,2.00118 -0.90194,0.84557 -2.00118,1.38109 -1.09924,0.56371 -2.36759,0.56371 -1.32472,0 -2.48033,-0.67645 -1.15561,-0.67645 -1.80388,-1.83206 -0.62008,-1.07106 -0.64827,-2.31122 -0.0282,-1.24017 0.42279,-2.39578 0.45097,-1.12742 1.29654,-2.02936 0.84556,-0.90194 2.00117,-1.32472 1.46565,-0.53553 3.1286,-0.3946 1.66295,0.14093 3.15679,0.50734 h 0.0282 q 0.36642,-1.09924 0.76101,-2.17029 0.3946,-1.09924 0.81739,-2.17029 l -0.33823,0.47916 q -0.36641,0.53552 -0.81738,1.12742 -0.42279,0.5919 -0.95831,1.01468 -0.50734,0.42278 -1.12743,0.56371 -0.62008,0.14093 -1.38109,-0.22548 -1.29654,-0.5919 -1.60658,-1.74751 -0.33823,-1.15561 -0.0846,-2.59307 0.31005,-1.60658 1.07106,-3.04405 0.76101,-1.46565 1.69113,-2.81855 0.3946,-0.5919 0.9865,-1.29654 0.62008,-0.70464 1.26835,-1.04287 0.45097,-0.22548 1.18379,-0.16911 0.76101,0.0282 1.63477,0.5919 -0.50734,0.67645 -1.26835,1.86024 -0.76101,1.1838 -1.52203,2.50852 -0.73282,1.29654 -1.29653,2.59308 -0.56371,1.29653 -0.64827,2.19847 -0.0282,0.33823 0.0846,0.5919 0.14092,0.25367 0.39459,0.31004 0.25367,0.0564 0.64827,-0.14093 0.3946,-0.22548 0.95831,-0.81738 0.87376,-0.93012 1.55021,-1.97299 0.70464,-1.04287 1.35291,-2.11392 0.3946,-0.87375 0.90194,-1.80388 0.50734,-0.95831 1.09923,-1.77569 0.5919,-0.81738 1.26836,-1.40928 0.67645,-0.62008 1.40927,-0.84557 0.47916,-0.14092 0.84557,-0.0845 0.36642,0.0282 0.64827,0.0845 0.31004,0.11275 0.5919,0.22549 z m -13.86731,22.06931 q 1.07105,-0.81738 1.63476,-2.05755 0.56372,-1.24016 0.95831,-2.48033 v -0.0564 q -0.81738,-0.25367 -1.63476,-0.45097 -0.7892,-0.1973 -1.60658,-0.25367 -0.90194,-0.0564 -1.80388,0.22549 -0.90193,0.31004 -1.52202,1.04286 -0.56371,0.67646 -0.70464,1.5784 -0.14092,0.93012 0.31004,1.69113 0.33823,0.56371 0.87376,0.87375 0.50734,0.33823 1.12742,0.42279 0.62008,0.11274 1.24017,-0.0282 0.62008,-0.14093 1.12742,-0.50734 z"
         style="font-style:normal;font-variant:normal;font-weight:normal;font-stretch:normal;font-size:28.18558502px;font-family:'Painter PERSONAL USE ONLY';-inkscape-font-specification:'Painter PERSONAL USE ONLY, Normal';font-variant-ligatures:normal;font-variant-caps:normal;font-variant-numeric:normal;font-feature-settings:normal;text-align:start;writing-mode:lr-tb;text-anchor:start;fill:#ffffff;stroke-width:0.70463955"
         id="path869"
         inkscape:connector-curvature="0" />
      <path
         d="m 363.14665,131.20519 q 0.87375,-0.36641 0.90194,0.45097 -0.84557,1.60658 -1.83207,3.04404 -0.98649,1.40928 -2.22666,2.59308 -0.53552,0.50734 -1.24016,0.95831 -0.70464,0.42278 -1.43747,0.59189 -0.73282,0.1973 -1.46565,0.0282 -0.73282,-0.14093 -1.32472,-0.84557 -0.50734,-0.56371 -0.62008,-1.29654 -0.11275,-0.73282 0,-1.52202 0.14092,-0.78919 0.3946,-1.5502 0.28185,-0.76101 0.53552,-1.40928 0.56371,-1.26835 1.29654,-2.42396 0.76101,-1.1838 1.38109,-2.45215 -0.81738,0.64827 -1.77569,1.52202 -0.93012,0.87376 -1.57839,1.66295 -0.84557,1.01468 -1.60658,2.08574 -0.76101,1.04286 -1.49384,2.1421 -0.36641,0.56371 -0.70464,1.12742 -0.33822,0.53553 -0.64827,1.09924 -0.16911,0.25367 -0.42278,0.64827 -0.25367,0.36641 -0.70464,0.33823 -0.33823,0 -0.67645,-0.1973 -0.33823,-0.1973 -0.5919,-0.47916 -0.28186,-0.28185 -0.42278,-0.5919 -0.16912,-0.33822 -0.11275,-0.59189 0.45097,-2.05755 1.55021,-3.94598 1.07105,-1.91662 2.19848,-3.69232 0.47915,-0.73282 0.90194,-1.52202 0.45096,-0.78919 0.98649,-1.52202 0.25367,-0.36641 0.64827,-0.50734 0.42278,-0.14093 1.15561,0.28186 0.33823,0.1973 0.50734,0.39459 0.1973,0.16912 0.1973,0.45097 0,0.25367 -0.22549,0.64827 -0.1973,0.3946 -0.62008,0.9865 -0.3946,0.53552 -0.84557,1.29653 -0.42278,0.76102 -0.73282,1.3811 0.45097,-0.50734 1.07105,-1.21198 0.64827,-0.70464 1.35291,-1.40928 0.70464,-0.70464 1.40928,-1.29654 0.73282,-0.5919 1.35291,-0.90194 0.76101,-0.39459 1.77569,-0.28185 1.04286,0.11274 1.86025,0.90194 0.22548,0.22548 0.19729,0.39459 -0.0282,0.14093 -0.16911,0.42279 -0.25367,0.5919 -0.5919,1.18379 -0.33822,0.62009 -0.70464,1.24017 -0.36641,0.5919 -0.70464,1.24016 -0.47915,0.87376 -1.04286,1.86025 -0.53553,0.95831 -0.93013,1.91662 -0.42278,1.15561 -0.25367,1.69114 0.1973,0.53552 0.73283,0.53552 0.56371,-0.0282 1.38109,-0.56371 0.81738,-0.53552 1.66295,-1.55021 0.5919,-0.73282 1.15561,-1.5502 0.56371,-0.81738 1.09924,-1.80388 z"
         style="font-style:normal;font-variant:normal;font-weight:normal;font-stretch:normal;font-size:28.18558502px;font-family:'Painter PERSONAL USE ONLY';-inkscape-font-specification:'Painter PERSONAL USE ONLY, Normal';font-variant-ligatures:normal;font-variant-caps:normal;font-variant-numeric:normal;font-feature-settings:normal;text-align:start;writing-mode:lr-tb;text-anchor:start;fill:#ffffff;stroke-width:0.70463955"
         id="path871"
         inkscape:connector-curvature="0" />
      <path
         d="m 369.93542,125.42715 q -0.33823,0.39459 -0.7892,1.09923 -0.45097,0.70464 -0.87375,1.46565 -0.42278,0.76101 -0.81738,1.46565 -0.36642,0.70464 -0.56371,1.15561 -0.3946,0.87376 -0.76102,1.74751 -0.36641,0.87375 -0.64826,1.77569 -0.22549,0.84557 -0.22549,1.40928 0.0282,0.53553 0.33823,0.70464 0.31004,0.16911 0.90194,-0.0846 0.59189,-0.28185 1.52202,-1.09923 0.90194,-0.81739 1.69113,-1.80388 0.7892,-0.9865 1.35291,-2.05755 0.76101,-0.36641 0.90194,0.45097 -0.64827,1.18379 -1.46565,2.36759 -0.81738,1.15561 -1.80388,2.1421 -1.52202,1.60658 -2.76218,2.14211 -1.21198,0.50734 -2.11392,0.11274 -0.95831,-0.3946 -1.26835,-1.26835 -0.33823,-0.90194 -0.31005,-1.83206 0.0564,-1.74751 0.62009,-3.43865 0.56371,-1.71932 1.40928,-3.21315 0.50734,-0.90194 1.09923,-1.83207 0.62009,-0.93012 1.40928,-1.57839 0.28186,-0.22548 0.70464,-0.33823 0.42279,-0.14092 0.87376,-0.11274 0.47915,0 0.90193,0.14093 0.42279,0.14093 0.67646,0.47916 z m -0.0282,-2.64945 q -0.62008,-0.1973 -1.07105,-0.73282 -0.45097,-0.56372 -0.31004,-1.35291 0.11274,-0.67646 0.36641,-1.29654 0.28186,-0.62008 0.9865,-0.76101 0.3946,-0.0564 0.76101,0 0.3946,0.0564 0.76101,0.1973 0.84557,0.28185 1.07105,0.76101 0.25367,0.47915 0.28186,0.70464 0.0564,0.56371 -0.11275,1.09924 -0.14092,0.53552 -0.53552,0.93012 -0.45097,0.42278 -1.04287,0.53553 -0.5919,0.0845 -1.15561,-0.0846 z"
         style="font-style:normal;font-variant:normal;font-weight:normal;font-stretch:normal;font-size:28.18558502px;font-family:'Painter PERSONAL USE ONLY';-inkscape-font-specification:'Painter PERSONAL USE ONLY, Normal';font-variant-ligatures:normal;font-variant-caps:normal;font-variant-numeric:normal;font-feature-settings:normal;text-align:start;writing-mode:lr-tb;text-anchor:start;fill:#ffffff;stroke-width:0.70463955"
         id="path873"
         inkscape:connector-curvature="0" />
      <path
         d="m 375.18497,132.64266 q -0.31004,0.0282 -0.64827,0.0282 -0.31004,-0.0282 -0.62008,-0.0846 -0.50734,1.5784 -0.31004,2.59308 0.22548,1.01468 0.95831,1.40928 0.76101,0.3946 1.94481,0.14092 1.18379,-0.25367 2.64944,-1.18379 1.1838,-0.81738 2.11392,-1.97299 0.95831,-1.1838 1.60658,-2.36759 0.31004,-0.11274 0.56371,-0.0846 0.28186,0 0.33823,0.53553 -0.64827,1.24017 -1.71932,2.5367 -1.04287,1.29654 -2.31122,2.39578 -2.02936,1.69113 -4.00236,2.25484 -1.97299,0.56372 -3.38227,-0.33822 -1.07105,-0.73283 -1.63476,-1.88844 -0.5919,-1.18379 -0.53553,-2.45214 0.0282,-1.1838 0.45097,-2.36759 0.3946,-1.21198 1.07106,-2.31122 0.67645,-1.09924 1.57839,-2.00118 0.90194,-0.93012 1.9448,-1.49383 1.04287,-0.56371 2.39578,-0.87376 1.38109,-0.31004 2.56489,0 0.59189,0.14093 0.98649,0.50734 0.3946,0.33823 0.56371,0.81739 0.1973,0.45097 0.16912,0.98649 -0.0282,0.53553 -0.22549,1.07105 -0.47915,1.26836 -1.5502,2.14211 -1.04287,0.87375 -2.25485,1.35291 -1.35291,0.56371 -2.70582,0.64827 z m 2.42396,-5.41164 q -1.04286,0.90194 -1.91662,2.05755 -0.84556,1.15561 -1.43746,2.42396 0.42278,-0.11274 0.95831,-0.31004 0.84557,-0.31004 1.63476,-0.73283 0.7892,-0.45097 1.43747,-1.07105 0.56371,-0.50734 1.04286,-1.18379 0.47916,-0.67646 0.42279,-1.49384 0,-0.45097 -0.28186,-0.50734 -0.28185,-0.0564 -0.64827,0.0846 -0.36641,0.14093 -0.70464,0.36641 -0.33822,0.22548 -0.50734,0.36641 z"
         style="font-style:normal;font-variant:normal;font-weight:normal;font-stretch:normal;font-size:28.18558502px;font-family:'Painter PERSONAL USE ONLY';-inkscape-font-specification:'Painter PERSONAL USE ONLY, Normal';font-variant-ligatures:normal;font-variant-caps:normal;font-variant-numeric:normal;font-feature-settings:normal;text-align:start;writing-mode:lr-tb;text-anchor:start;fill:#ffffff;stroke-width:0.70463955"
         id="path875"
         inkscape:connector-curvature="0" />
    </g>
  </g>
</svg>
