<?xml version="1.0" encoding="UTF-8" standalone="no"?>
<!-- Created with Inkscape (http://www.inkscape.org/) -->

<svg
   xmlns:dc="http://purl.org/dc/elements/1.1/"
   xmlns:cc="http://creativecommons.org/ns#"
   xmlns:rdf="http://www.w3.org/1999/02/22-rdf-syntax-ns#"
   xmlns:svg="http://www.w3.org/2000/svg"
   xmlns="http://www.w3.org/2000/svg"
   xmlns:sodipodi="http://sodipodi.sourceforge.net/DTD/sodipodi-0.dtd"
   xmlns:inkscape="http://www.inkscape.org/namespaces/inkscape"
   width="30.41675mm"
   height="12.71235mm"
   viewBox="0 0 30.41675 12.71235"
   version="1.1"
   id="svg8"
   inkscape:version="0.92.4 (5da689c313, 2019-01-14)"
   sodipodi:docname="welcomeIcon.svg">
  <defs
     id="defs2" />
  <sodipodi:namedview
     id="base"
     pagecolor="#ffffff"
     bordercolor="#666666"
     borderopacity="1.0"
     inkscape:pageopacity="0.0"
     inkscape:pageshadow="2"
     inkscape:zoom="0.98994949"
     inkscape:cx="-256.57049"
     inkscape:cy="56.141607"
     inkscape:document-units="mm"
     inkscape:current-layer="layer1"
     showgrid="false"
     fit-margin-top="0"
     fit-margin-left="0"
     fit-margin-right="0"
     fit-margin-bottom="0"
     showborder="false"
     inkscape:window-width="1920"
     inkscape:window-height="1001"
     inkscape:window-x="-9"
     inkscape:window-y="-9"
     inkscape:window-maximized="1" />
  <metadata
     id="metadata5">
    <rdf:RDF>
      <cc:Work
         rdf:about="">
        <dc:format>image/svg+xml</dc:format>
        <dc:type
           rdf:resource="http://purl.org/dc/dcmitype/StillImage" />
        <dc:title></dc:title>
      </cc:Work>
    </rdf:RDF>
  </metadata>
  <g
     inkscape:label="Layer 1"
     inkscape:groupmode="layer"
     id="layer1"
     transform="translate(-125.33213,-136.358)">
    <g
       aria-label="Oferta"
       style="font-style:normal;font-variant:normal;font-weight:normal;font-stretch:normal;font-size:10.58333302px;line-height:1.25;font-family:Pacifico;-inkscape-font-specification:'Pacifico, Normal';font-variant-ligatures:normal;font-variant-caps:normal;font-variant-numeric:normal;font-feature-settings:normal;text-align:start;letter-spacing:0px;word-spacing:0px;writing-mode:lr-tb;text-anchor:start;fill:#000000;fill-opacity:1;stroke:none;stroke-width:0.26458332"
       id="text1389">
      <path
         d="m 128.67043,146.94133 q -0.76998,0 -1.3901,-0.31523 -0.61495,-0.31522 -1.04903,-0.8785 -0.43408,-0.56844 -0.66663,-1.34875 -0.23254,-0.78548 -0.23254,-1.72083 0,-0.49609 0.0724,-1.01802 0.0723,-0.52193 0.21704,-1.0387 0.14986,-0.52193 0.3669,-1.01802 0.22221,-0.50126 0.5116,-0.94568 0.29455,-0.44442 0.65629,-0.81649 0.36173,-0.37724 0.79582,-0.64595 0.43925,-0.27389 0.94051,-0.42375 0.50643,-0.15503 1.0852,-0.15503 0.77515,0 1.38493,0.27905 0.61495,0.27905 1.03353,0.78032 0.42375,0.50126 0.64595,1.19889 0.22738,0.69246 0.22738,1.52962 0,0.69247 -0.13953,1.44694 -0.13435,0.74931 -0.3979,1.47795 -0.26355,0.72347 -0.6563,1.37976 -0.39274,0.65629 -0.90433,1.15238 -0.5116,0.4961 -1.14205,0.78548 -0.62529,0.29456 -1.35909,0.29456 z m 0.12402,-1.2609 q 0.41341,0 0.76998,-0.1602 0.35657,-0.1602 0.65112,-0.43925 0.29973,-0.27905 0.54261,-0.65112 0.24804,-0.37724 0.43925,-0.80616 0.1912,-0.42891 0.33072,-0.88883 0.1447,-0.45992 0.23772,-0.90951 0.093,-0.44958 0.13435,-0.86299 0.0465,-0.41858 0.0465,-0.75965 0,-0.49609 -0.10852,-0.93017 -0.10852,-0.43925 -0.33073,-0.75965 -0.21704,-0.32556 -0.55293,-0.51159 -0.33073,-0.18604 -0.77515,-0.18604 -0.47542,0 -0.91984,0.23255 -0.44442,0.22737 -0.83716,0.62011 -0.39274,0.38758 -0.7183,0.90434 -0.32556,0.5116 -0.55811,1.08004 -0.23254,0.56844 -0.36173,1.15755 -0.12919,0.58911 -0.12919,1.12655 0,0.58394 0.14469,1.09037 0.14986,0.50126 0.42375,0.86816 0.27905,0.36691 0.67179,0.57878 0.39791,0.20671 0.89917,0.20671 z"
         style="font-style:normal;font-variant:normal;font-weight:normal;font-stretch:normal;font-size:10.58333302px;font-family:Pacifico;-inkscape-font-specification:'Pacifico, Normal';font-variant-ligatures:normal;font-variant-caps:normal;font-variant-numeric:normal;font-feature-settings:normal;text-align:start;writing-mode:lr-tb;text-anchor:start;stroke-width:0.26458332"
         id="path1391"
         inkscape:connector-curvature="0" />
      <path
         d="m 133.62103,146.14551 q 0,-0.0258 0.0103,-0.31522 0.0155,-0.28939 0.0517,-0.76998 0.0362,-0.48059 0.0982,-1.10588 0.062,-0.63045 0.16019,-1.32808 0.10336,-0.7028 0.23772,-1.43661 0.13952,-0.73897 0.32556,-1.4366 0.1912,-0.69763 0.43408,-1.31258 0.24288,-0.62012 0.5426,-1.08004 0.30489,-0.46509 0.67696,-0.73381 0.37207,-0.26871 0.81649,-0.26871 0.1757,0 0.3669,0.062 0.19637,0.062 0.35657,0.20154 0.1602,0.13952 0.26355,0.37207 0.10852,0.22737 0.10852,0.56327 0,0.30489 -0.0982,0.7028 -0.093,0.39274 -0.26872,0.84233 -0.17053,0.44958 -0.40825,0.93534 -0.23254,0.48576 -0.51159,0.97152 -0.27906,0.48059 -0.58911,0.95084 -0.30489,0.46509 -0.62529,0.87333 l -0.0103,0.0827 q 0.10335,-0.0517 0.15503,-0.0672 0.0517,-0.0155 0.10852,-0.0155 0.0672,0 0.10852,0.0155 0.0413,0.0103 0.0723,0.0258 0.0362,0.0155 0.0724,0.031 0.0362,0.0103 0.0879,0.0103 0.5116,0 0.90434,-0.11886 0.39274,-0.12402 0.66146,-0.27388 0.31522,-0.17054 0.54777,-0.39791 l -0.11369,1.25573 q -0.34107,0.18604 -0.71314,0.28939 -0.37207,0.10335 -0.68729,0.15503 -0.36691,0.0568 -0.72864,0.0724 0.18603,0.34106 0.3359,0.70797 0.12919,0.31522 0.23254,0.70796 0.10852,0.38758 0.10852,0.78548 0,0.0465 -0.0155,0.19637 -0.0103,0.14987 -0.0413,0.36691 -0.031,0.21704 -0.0879,0.48059 -0.0568,0.26355 -0.14986,0.53227 -0.0879,0.26871 -0.21705,0.51676 -0.12919,0.25321 -0.30489,0.44442 -0.17053,0.19637 -0.39791,0.31522 -0.2222,0.11886 -0.50642,0.11886 -0.28422,0 -0.4961,-0.12919 -0.21187,-0.12919 -0.36173,-0.3514 -0.14986,-0.21704 -0.25322,-0.5116 -0.0982,-0.28939 -0.15503,-0.61495 -0.0568,-0.32556 -0.0827,-0.66662 -0.0207,-0.3359 -0.0207,-0.65113 z m 1.37976,-2.48047 q -0.0207,0 -0.0465,0.11886 -0.0258,0.11369 -0.0517,0.29972 -0.0207,0.18087 -0.0414,0.40825 -0.0207,0.22737 -0.0362,0.44958 -0.0155,0.21704 -0.0258,0.40825 -0.0103,0.18603 -0.0103,0.29455 0,0.75965 0.0258,1.20923 0.031,0.44958 0.0723,0.68213 0.0465,0.23254 0.0982,0.29972 0.0568,0.0724 0.11369,0.0724 0.1757,0 0.27905,-0.1602 0.10852,-0.16019 0.1602,-0.40824 0.0568,-0.24288 0.0723,-0.53744 0.0207,-0.28938 0.0207,-0.5581 0,-0.18087 -0.031,-0.44442 -0.0258,-0.26355 -0.0775,-0.54777 -0.0465,-0.28939 -0.11369,-0.57361 -0.062,-0.28422 -0.13435,-0.50643 -0.0672,-0.22737 -0.13953,-0.3669 -0.0724,-0.13953 -0.13436,-0.13953 z m 1.25574,-5.63789 q -0.29973,0.74414 -0.47026,1.31258 -0.17053,0.56327 -0.25838,1.00252 -0.0879,0.43925 -0.12402,0.77515 -0.0362,0.33073 -0.0724,0.61495 0.31523,-0.59428 0.63562,-1.16789 0.32039,-0.57878 0.57878,-1.0697 0.25838,-0.4961 0.41858,-0.87334 0.16536,-0.37723 0.16536,-0.5736 0,-0.27389 -0.0775,-0.39791 -0.0775,-0.12919 -0.21188,-0.12919 -0.23771,0 -0.36173,0.12919 -0.12403,0.12402 -0.22221,0.37724 z"
         style="font-style:normal;font-variant:normal;font-weight:normal;font-stretch:normal;font-size:10.58333302px;font-family:Pacifico;-inkscape-font-specification:'Pacifico, Normal';font-variant-ligatures:normal;font-variant-caps:normal;font-variant-numeric:normal;font-feature-settings:normal;text-align:start;writing-mode:lr-tb;text-anchor:start;stroke-width:0.26458332"
         id="path1393"
         inkscape:connector-curvature="0" />
      <path
         d="m 139.41913,145.94914 q -0.48576,0 -0.85267,-0.1757 -0.36173,-0.1757 -0.60461,-0.47025 -0.24288,-0.29973 -0.3669,-0.6873 -0.11886,-0.39274 -0.11886,-0.82165 0,-0.28939 0.0568,-0.60979 0.0568,-0.32556 0.17053,-0.63562 0.11885,-0.31006 0.29455,-0.58911 0.1757,-0.28422 0.40825,-0.49609 0.23771,-0.21704 0.5271,-0.34107 0.29455,-0.12919 0.65112,-0.12919 0.28939,0 0.53743,0.093 0.24805,0.093 0.42892,0.26355 0.18603,0.16536 0.28939,0.40308 0.10335,0.23771 0.10335,0.53226 0,0.3204 -0.1602,0.64079 -0.15503,0.3204 -0.43408,0.60462 -0.27905,0.28422 -0.66663,0.50642 -0.3824,0.22221 -0.83199,0.34624 0.0775,0.13952 0.14987,0.23254 0.0775,0.093 0.15503,0.14469 0.0775,0.0517 0.16019,0.0724 0.0879,0.0207 0.18604,0.0207 0.31006,0 0.65112,-0.12402 0.34623,-0.12402 0.67179,-0.31006 0.32557,-0.18604 0.61495,-0.40308 0.28939,-0.2222 0.49093,-0.41858 l 0.66663,0.69247 q -0.45476,0.47025 -0.96635,0.83199 -0.22221,0.15503 -0.48059,0.30489 -0.25322,0.14986 -0.53744,0.26872 -0.27905,0.11369 -0.58394,0.18603 -0.29973,0.0672 -0.60978,0.0672 z m -0.6873,-2.42879 q 0.18603,0 0.40307,-0.093 0.22221,-0.0982 0.40825,-0.24804 0.1912,-0.14987 0.32039,-0.32557 0.12919,-0.1757 0.12919,-0.34106 0,-0.23254 -0.0879,-0.38241 -0.0827,-0.14986 -0.2067,-0.14986 -0.22221,0 -0.38241,0.0827 -0.15503,0.0827 -0.26355,0.21705 -0.10335,0.12919 -0.17053,0.29972 -0.062,0.16536 -0.0982,0.3359 -0.031,0.17053 -0.0413,0.33073 -0.0103,0.16019 -0.0103,0.27388 z"
         style="font-style:normal;font-variant:normal;font-weight:normal;font-stretch:normal;font-size:10.58333302px;font-family:Pacifico;-inkscape-font-specification:'Pacifico, Normal';font-variant-ligatures:normal;font-variant-caps:normal;font-variant-numeric:normal;font-feature-settings:normal;text-align:start;writing-mode:lr-tb;text-anchor:start;stroke-width:0.26458332"
         id="path1395"
         inkscape:connector-curvature="0" />
      <path
         d="m 141.74457,144.86911 q 0,-0.22738 0.0258,-0.5271 0.0258,-0.3049 0.0672,-0.64079 0.0465,-0.3359 0.10336,-0.68213 0.062,-0.3514 0.12919,-0.66663 0.0672,-0.31522 0.13436,-0.57877 0.0672,-0.26355 0.13435,-0.43409 0.0413,-0.11368 0.0827,-0.18086 0.0413,-0.0672 0.093,-0.10336 0.0568,-0.0413 0.13436,-0.0517 0.0827,-0.0155 0.20154,-0.0155 0.13436,0 0.20671,0.0155 0.0775,0.0103 0.11368,0.062 0.0362,0.0465 0.0413,0.13953 0.0103,0.093 0.0103,0.25321 0,0.1912 0,0.46509 0,0.26872 0.0103,0.53227 h 0.0568 q 0.10335,-0.20671 0.23254,-0.45992 0.1292,-0.25839 0.29973,-0.4806 0.17053,-0.2222 0.38757,-0.37207 0.21704,-0.15502 0.50126,-0.15502 0.0982,0 0.19121,0.0362 0.093,0.031 0.16019,0.093 0.0724,0.062 0.11369,0.15503 0.0413,0.0878 0.0413,0.20153 0,0.0879 -0.0258,0.24805 -0.0258,0.15503 -0.0568,0.33073 -0.031,0.17053 -0.0568,0.3359 -0.0258,0.16019 -0.0258,0.26871 0,0.18604 0.0362,0.31006 0.0362,0.12403 0.093,0.20154 0.062,0.0724 0.13436,0.10335 0.0775,0.031 0.16019,0.031 0.23255,0 0.48059,-0.10335 0.24805,-0.10336 0.45476,-0.23255 0.24288,-0.14986 0.47542,-0.34106 l -0.0775,1.20923 q -0.13436,0.0879 -0.3049,0.19637 -0.17053,0.10852 -0.3669,0.2067 -0.1912,0.093 -0.40307,0.1602 -0.20671,0.062 -0.42375,0.062 -0.38757,0 -0.62529,-0.15503 -0.23771,-0.16019 -0.37723,-0.41341 -0.13953,-0.25838 -0.20671,-0.57361 -0.0672,-0.32039 -0.10852,-0.64595 h -0.0827 l -0.92501,2.57865 q -0.0724,0.20154 -0.13953,0.3359 -0.062,0.12919 -0.12919,0.21187 -0.0672,0.0827 -0.14469,0.11886 -0.0775,0.031 -0.17053,0.031 -0.21188,0 -0.34107,-0.0879 -0.12919,-0.093 -0.20154,-0.24288 -0.0672,-0.15503 -0.093,-0.34623 -0.0207,-0.19637 -0.0207,-0.40307 z"
         style="font-style:normal;font-variant:normal;font-weight:normal;font-stretch:normal;font-size:10.58333302px;font-family:Pacifico;-inkscape-font-specification:'Pacifico, Normal';font-variant-ligatures:normal;font-variant-caps:normal;font-variant-numeric:normal;font-feature-settings:normal;text-align:start;writing-mode:lr-tb;text-anchor:start;stroke-width:0.26458332"
         id="path1397"
         inkscape:connector-curvature="0" />
      <path
         d="m 150.50889,144.79159 q -0.4961,0.28939 -0.88367,0.50643 -0.38757,0.21704 -0.69246,0.36173 -0.29973,0.1447 -0.53744,0.21705 -0.23254,0.0723 -0.42374,0.0723 -0.39275,0 -0.69247,-0.23771 -0.29972,-0.23771 -0.50126,-0.68213 -0.20154,-0.44958 -0.30489,-1.0852 -0.0982,-0.63562 -0.0982,-1.43144 0,-0.31006 0.0258,-0.66146 0.0258,-0.3514 0.0724,-0.69763 -0.15503,-0.0207 -0.24288,-0.0362 -0.0827,-0.0207 -0.18087,-0.0362 -0.093,-0.0207 -0.24288,-0.0413 -0.14469,-0.0207 -0.42374,-0.0517 -0.12403,-0.0155 -0.19121,-0.0568 -0.0672,-0.0465 -0.0982,-0.10335 -0.031,-0.062 -0.0362,-0.12403 -0.005,-0.0672 -0.005,-0.11368 0,-0.10336 0.10335,-0.15503 0.0982,-0.0568 0.25838,-0.0827 0.15503,-0.0258 0.34107,-0.0258 0.1912,-0.005 0.36173,0 0.1757,0.005 0.31006,0.0103 0.13953,0 0.1912,-0.0103 0.13953,-0.69764 0.3514,-1.34876 0.21704,-0.65629 0.48059,-1.16272 0.26872,-0.51159 0.58395,-0.81649 0.31522,-0.31005 0.66146,-0.31005 0.2222,0 0.40307,0.12402 0.18604,0.12402 0.31523,0.33073 0.12919,0.2067 0.19637,0.48576 0.0724,0.27388 0.0724,0.57361 0,0.25321 -0.0724,0.53743 -0.0724,0.27905 -0.19637,0.57361 -0.12403,0.28939 -0.29456,0.58911 -0.16536,0.29972 -0.3514,0.59428 0.0465,0.005 0.15503,0.0103 0.10852,0 0.24805,0.005 0.14469,0.005 0.31006,0.0155 0.16536,0.005 0.32039,0.0103 0.15503,0.005 0.28939,0.0103 0.13436,0.005 0.22221,0.0103 0.10335,0.005 0.14986,0.10335 0.0465,0.0982 0.0465,0.24805 0,0.18087 -0.10335,0.29456 -0.10336,0.11368 -0.22738,0.11368 h -1.98438 q -0.14986,0.20671 -0.30489,0.40825 -0.14986,0.19637 -0.27905,0.35657 -0.0207,0.32039 -0.0362,0.63045 -0.005,0.13436 -0.0103,0.27905 -0.005,0.13953 -0.0103,0.27905 -0.005,0.13953 -0.0103,0.26872 0,0.12919 0,0.23771 0,0.27906 0.0517,0.47026 0.0517,0.1912 0.14986,0.31522 0.0982,0.11886 0.23771,0.1757 0.14469,0.0517 0.32039,0.0517 0.10853,0 0.26872,-0.0517 0.16537,-0.0517 0.35657,-0.13952 0.19637,-0.093 0.40824,-0.21704 0.21704,-0.12403 0.42375,-0.26872 0.21187,-0.14986 0.40308,-0.31006 0.1912,-0.16536 0.34623,-0.3359 z m -1.65365,-6.54224 q 0,-0.0568 -0.0103,-0.12402 -0.005,-0.0724 -0.031,-0.13436 -0.0258,-0.062 -0.0827,-0.10335 -0.0517,-0.0413 -0.14986,-0.0413 -0.13436,0 -0.27389,0.23771 -0.13436,0.23771 -0.26355,0.60978 -0.12402,0.3669 -0.23771,0.81132 -0.10852,0.44442 -0.20154,0.863 0.0775,0.0103 0.15503,0.0207 0.0775,0.005 0.1602,0.0155 0.15503,-0.26355 0.32039,-0.56844 0.17054,-0.31006 0.30489,-0.60461 0.13436,-0.29973 0.22221,-0.55811 0.0879,-0.25838 0.0879,-0.42375 z"
         style="font-style:normal;font-variant:normal;font-weight:normal;font-stretch:normal;font-size:10.58333302px;font-family:Pacifico;-inkscape-font-specification:'Pacifico, Normal';font-variant-ligatures:normal;font-variant-caps:normal;font-variant-numeric:normal;font-feature-settings:normal;text-align:start;writing-mode:lr-tb;text-anchor:start;stroke-width:0.26458332"
         id="path1399"
         inkscape:connector-curvature="0" />
      <path
         d="m 155.74888,144.68307 q -0.11886,0.16536 -0.3204,0.38757 -0.19637,0.22221 -0.44441,0.42375 -0.24805,0.20154 -0.53227,0.34106 -0.28422,0.13953 -0.56844,0.13953 -0.34107,0 -0.56844,-0.21704 -0.22738,-0.22221 -0.39274,-0.64079 -0.12403,0.1447 -0.30489,0.29456 -0.18087,0.14986 -0.39791,0.27388 -0.21188,0.11886 -0.44442,0.19637 -0.23254,0.0775 -0.46509,0.0775 -0.24805,0 -0.48576,-0.0982 -0.23254,-0.10335 -0.41341,-0.28939 -0.18087,-0.1912 -0.28939,-0.45992 -0.10852,-0.27388 -0.10852,-0.61495 0,-0.38757 0.10852,-0.79581 0.10852,-0.40825 0.29973,-0.79582 0.1912,-0.39274 0.44958,-0.73897 0.26355,-0.34623 0.57361,-0.60462 0.31006,-0.25838 0.65112,-0.40824 0.34624,-0.15503 0.7028,-0.15503 0.11886,0 0.18604,0.0465 0.0672,0.0465 0.10852,0.10852 0.0465,0.0568 0.0879,0.11369 0.0413,0.0568 0.10335,0.0827 0.062,0.0258 0.12402,0.0362 0.0672,0.005 0.13436,0.005 0.0568,0 0.11369,0 0.062,-0.005 0.11886,-0.005 0.0775,0 0.14469,0.0155 0.0672,0.0155 0.11886,0.0672 0.0517,0.0517 0.0775,0.14469 0.031,0.093 0.031,0.25321 0,0.24805 -0.0517,0.55294 -0.0517,0.29973 -0.11369,0.62012 -0.062,0.31523 -0.11369,0.63562 -0.0517,0.31523 -0.0517,0.59945 0,0.24288 0.0413,0.3824 0.0465,0.13436 0.1912,0.13436 0.10852,0 0.22738,-0.0517 0.11885,-0.0568 0.23771,-0.14469 0.12402,-0.0879 0.24288,-0.19637 0.12402,-0.11369 0.23254,-0.23254 0.25322,-0.27906 0.5116,-0.63046 z m -4.41317,-0.40824 q 0,0.12919 0.0155,0.25321 0.0207,0.11886 0.0672,0.21704 0.0465,0.093 0.12403,0.15503 0.0775,0.0568 0.19637,0.0568 0.1912,0 0.34623,-0.16536 0.15503,-0.16536 0.26872,-0.39791 0.11368,-0.23254 0.18086,-0.48059 0.0724,-0.24805 0.093,-0.41341 l 0.31523,-1.51929 q -0.21188,0 -0.41341,0.10852 -0.20154,0.10336 -0.38241,0.28422 -0.1757,0.18087 -0.32556,0.41341 -0.14986,0.23255 -0.25838,0.49093 -0.10852,0.25322 -0.17054,0.5116 -0.0568,0.25838 -0.0568,0.48576 z"
         style="font-style:normal;font-variant:normal;font-weight:normal;font-stretch:normal;font-size:10.58333302px;font-family:Pacifico;-inkscape-font-specification:'Pacifico, Normal';font-variant-ligatures:normal;font-variant-caps:normal;font-variant-numeric:normal;font-feature-settings:normal;text-align:start;writing-mode:lr-tb;text-anchor:start;stroke-width:0.26458332"
         id="path1401"
         inkscape:connector-curvature="0" />
    </g>
  </g>
</svg>
