<?xml version="1.0" encoding="UTF-8" standalone="no"?>
<svg
   xmlns:dc="http://purl.org/dc/elements/1.1/"
   xmlns:cc="http://creativecommons.org/ns#"
   xmlns:rdf="http://www.w3.org/1999/02/22-rdf-syntax-ns#"
   xmlns:svg="http://www.w3.org/2000/svg"
   xmlns="http://www.w3.org/2000/svg"
   xmlns:sodipodi="http://sodipodi.sourceforge.net/DTD/sodipodi-0.dtd"
   xmlns:inkscape="http://www.inkscape.org/namespaces/inkscape"
   height="150.05815mm"
   id="Layer_1"
   version="1.1"
   viewBox="0 0 974.07739 567.14892"
   width="257.72464mm"
   xml:space="preserve"
   sodipodi:docname="RMcolor.svg"
   inkscape:version="0.92.4 (5da689c313, 2019-01-14)"
   inkscape:export-filename="C:\Users\Maro\Documents\##Marek\Projekty\RemontyMarcina\res\logo\RemontyMarcinaKolor.png"
   inkscape:export-xdpi="96"
   inkscape:export-ydpi="96"><metadata
   id="metadata9"><rdf:RDF><cc:Work
       rdf:about=""><dc:format>image/svg+xml</dc:format><dc:type
         rdf:resource="http://purl.org/dc/dcmitype/StillImage" /><dc:title /></cc:Work></rdf:RDF></metadata><defs
   id="defs7">
	

		
		
		
		
	





</defs><sodipodi:namedview
   pagecolor="#ffffff"
   bordercolor="#666666"
   borderopacity="1"
   objecttolerance="1"
   gridtolerance="10"
   guidetolerance="10"
   inkscape:pageopacity="0"
   inkscape:pageshadow="2"
   inkscape:window-width="1920"
   inkscape:window-height="1001"
   id="namedview5"
   showgrid="false"
   inkscape:zoom="0.921875"
   inkscape:cx="511.76447"
   inkscape:cy="269.32513"
   inkscape:window-x="-9"
   inkscape:window-y="-9"
   inkscape:window-maximized="1"
   inkscape:current-layer="Layer_1"
   units="mm"
   inkscape:snap-text-baseline="false"
   fit-margin-top="0"
   fit-margin-left="0"
   fit-margin-right="0"
   fit-margin-bottom="0" />

<g
   id="g4682"
   transform="matrix(0,0.57103563,-0.57103563,0,859.892,416.05057)">
</g><g
   id="g4684"
   transform="matrix(0,0.57103563,-0.57103563,0,859.892,416.05057)">
</g><g
   id="g4686"
   transform="matrix(0,0.57103563,-0.57103563,0,859.892,416.05057)">
</g><g
   id="g4688"
   transform="matrix(0,0.57103563,-0.57103563,0,859.892,416.05057)">
</g><g
   id="g4690"
   transform="matrix(0,0.57103563,-0.57103563,0,859.892,416.05057)">
</g><g
   id="g4692"
   transform="matrix(0,0.57103563,-0.57103563,0,859.892,416.05057)">
</g><g
   id="g4694"
   transform="matrix(0,0.57103563,-0.57103563,0,859.892,416.05057)">
</g><g
   id="g4696"
   transform="matrix(0,0.57103563,-0.57103563,0,859.892,416.05057)">
</g><g
   id="g4698"
   transform="matrix(0,0.57103563,-0.57103563,0,859.892,416.05057)">
</g><g
   id="g4700"
   transform="matrix(0,0.57103563,-0.57103563,0,859.892,416.05057)">
</g><g
   id="g4702"
   transform="matrix(0,0.57103563,-0.57103563,0,859.892,416.05057)">
</g><g
   id="g4704"
   transform="matrix(0,0.57103563,-0.57103563,0,859.892,416.05057)">
</g><g
   id="g4706"
   transform="matrix(0,0.57103563,-0.57103563,0,859.892,416.05057)">
</g><g
   id="g4708"
   transform="matrix(0,0.57103563,-0.57103563,0,859.892,416.05057)">
</g><g
   id="g4710"
   transform="matrix(0,0.57103563,-0.57103563,0,859.892,416.05057)">
</g>
<g
   id="g914"><path
     inkscape:connector-curvature="0"
     id="path2"
     d="m 152.81445,0 c -9.1115,0 -13.88681,5.67334 -19.10156,10.60157 L 95.50976,48.76758 V 38.20313 c 0,-10.50594 -8.59562,-19.10156 -19.101555,-19.10156 H 57.306641 c -10.50594,0 -19.103516,8.59562 -19.103516,19.10156 v 67.83008 L 10.507813,133.71094 C 4.548073,139.919 0,144.44789 0,152.81446 c 0,10.75426 8.253756,19.09961 19.103516,19.09961 h 19.099609 v 114.61132 c 0,10.50595 8.597576,19.10157 19.103516,19.10157 h 57.304679 v -0.0937 h 76.40625 v 0.0937 h 57.30664 c 10.506,0 19.09961,-8.59562 19.09961,-19.10157 V 171.91407 h 19.10352 c 10.8498,0 19.10156,-8.34535 19.10156,-19.09961 0,-8.36657 -4.54616,-12.89546 -10.50586,-19.10352 L 171.91796,10.60157 C 166.70326,5.67334 161.92598,0 152.81445,0 Z m 49.74219,95.46485 c 7.04041,-0.0273 13.94235,0.5602 20.70703,1.76172 11.05878,1.92243 21.64802,4.62966 31.76562,8.125 4.23528,1.57291 7.88259,4.28208 10.94141,8.12695 3.2941,3.84487 5.76311,8.04005 7.41015,12.58398 1.88236,4.54394 2.82422,9.08693 2.82422,13.63086 0,4.54395 -1.05814,8.3024 -3.17578,11.27344 -3.2941,4.19441 -6.35423,8.12678 -9.17773,11.79688 -2.82354,3.6701 -5.88168,7.16576 -9.17578,10.48632 -3.05881,3.14581 -6.58791,6.2028 -10.58789,9.17383 -3.76469,2.97103 -8.23565,5.94303 -13.41211,8.91406 -9.88232,5.59255 -19.88238,11.09787 -30,16.51563 -9.88232,5.243 -20.00063,10.6594 -30.35352,16.25195 -0.70588,0.34953 -1.52757,0.78821 -2.46875,1.3125 -0.94116,0.34954 -1.76482,0.87319 -2.4707,1.57227 -0.4706,0.34952 -0.70703,0.96014 -0.70703,1.83398 0,0.69908 0.23643,1.22469 0.70703,1.57422 1.64704,0.87383 3.05791,1.57336 4.23437,2.09766 1.41178,0.5243 2.82458,1.22187 4.23633,2.0957 11.29407,5.06824 22.23406,10.22378 32.82227,15.4668 10.82348,5.06822 21.52898,10.22379 32.11718,15.46679 2.58822,1.22338 5.05917,2.53546 7.41211,3.9336 2.35293,1.39812 4.70566,2.79521 7.0586,4.19336 5.41174,3.32056 6.35361,6.90317 2.82422,10.74804 -1.41176,1.39814 -2.35364,2.88413 -2.82422,4.45703 -0.4706,1.39813 -0.11788,2.97108 1.05859,4.71876 0.70588,0.87384 0.70588,1.92313 0,3.14648 -0.47059,1.39814 -0.82331,2.70827 -1.05859,3.93164 -1.41177,-0.34953 -3.05907,-0.61234 -4.94141,-0.78711 -1.64705,-0.17476 -3.05791,-0.61148 -4.23437,-1.31055 -11.52938,-5.06824 -22.35311,-10.48661 -32.47071,-16.2539 -9.88232,-5.94208 -20.58781,-11.44544 -32.11718,-16.51367 -3.2941,-1.22338 -6.70693,-2.88523 -10.23633,-4.98243 -3.29411,-2.09721 -6.82321,-4.19382 -10.58789,-6.29101 -3.7647,-2.09721 -7.52828,-4.01991 -11.29297,-5.76758 -3.5294,-1.74767 -7.06045,-2.97086 -10.58985,-3.66992 -0.70588,-0.17477 -1.29309,-0.69845 -1.76367,-1.57227 -0.2353,-1.04861 -0.588,-2.01093 -1.05859,-2.88476 l -0.35352,-0.26172 0.35352,0.78711 c -1.41176,0.34954 -2.58814,0.61039 -3.5293,0.78515 -0.70589,0 -1.29504,0.0889 -1.76562,0.26368 -0.4706,0 -0.82332,0.17389 -1.0586,0.52343 -0.23529,0.34952 -0.46978,1.04906 -0.70508,2.09766 -0.4706,2.27197 -1.05975,5.24201 -1.76562,8.91211 -0.47059,3.49533 -0.94151,7.16684 -1.41211,11.01172 -0.47058,3.84486 -1.0578,7.60138 -1.76367,11.27148 -0.4706,3.6701 -0.82331,6.64209 -1.0586,8.91406 -0.47058,0.69907 -0.94153,1.48555 -1.4121,2.35938 -0.2353,0.69907 -0.58801,1.48554 -1.0586,2.35937 -1.17645,-0.87383 -2.47103,-1.57335 -3.88281,-2.09765 -1.17645,-0.52431 -2.00012,-1.22383 -2.4707,-2.09766 -0.47059,-1.39812 -0.70508,-2.97107 -0.70508,-4.71875 0,-1.92244 -0.23644,-3.75624 -0.70703,-5.5039 0,-0.34954 -0.35272,-0.61235 -1.0586,-0.78711 -0.47058,-0.17477 -0.94151,-0.43758 -1.41211,-0.78711 -0.23528,0.34953 -0.46978,0.61234 -0.70507,0.78711 -0.23529,0.17476 -0.35352,0.43757 -0.35352,0.78711 0.23528,1.57289 0.35351,3.14583 0.35352,4.71875 0.23529,1.39813 0.46979,2.96913 0.70507,4.71679 0.2353,2.97104 -0.23369,4.8068 -1.41015,5.50586 -0.94118,0.69907 -3.41213,0.96188 -7.41211,0.78711 -5.17645,-0.17477 -9.41292,-0.52454 -12.70703,-1.04883 -3.05882,-0.69907 -5.411545,-1.74833 -7.058595,-3.14648 -1.64706,-1.39813 -2.7052,-3.32084 -3.17578,-5.76758 -0.23529,-2.44673 -0.11706,-5.67957 0.35352,-9.69922 1.64706,-12.40844 3.2924,-23.41908 4.93945,-33.03125 1.882335,-9.61218 3.882355,-18.52425 5.999995,-26.73828 2.35293,-8.3888 4.82389,-16.51634 7.41211,-24.38086 2.82353,-7.8645 5.99992,-16.2529 9.5293,-25.16601 0.2353,-0.69906 0.35351,-1.30969 0.35351,-1.83399 v -1.83594 c -0.94118,0.17478 -1.76482,0.26172 -2.4707,0.26172 -0.70587,0 -1.41131,0.17587 -2.11719,0.52539 -1.64705,1.22338 -3.17612,2.5335 -4.58789,3.93164 -1.41175,1.22336 -2.94084,2.44655 -4.58789,3.66993 -2.11764,2.44673 -4.3541,3.93272 -6.70703,4.45703 -2.117635,0.5243 -5.059525,0.34845 -8.824215,-0.52539 -1.88235,-0.5243 -3.64593,-0.96104 -5.29297,-1.31055 -1.64707,-0.52431 -3.41258,-1.13492 -5.294921,-1.83399 -6.588207,-1.39813 -10.940956,-3.9334 -13.058593,-7.60351 -1.882354,-3.6701 -0.940476,-7.51356 2.824218,-11.5332 3.294105,-3.49534 6.941421,-6.90405 10.941406,-10.22461 4.23527,-3.49534 8.70624,-6.55429 13.41211,-9.17578 16.235215,-9.26265 33.527975,-16.51482 51.880855,-21.75782 18.58815,-5.41778 38.11738,-9.08733 58.58789,-11.00976 4.32352,-0.45876 8.59802,-0.69651 12.82227,-0.71289 z m 27.14843,24.91211 c -1.88234,-0.0109 -3.91142,0.0486 -6.08789,0.17968 -8.70582,0.34954 -17.64776,1.57273 -26.82422,3.66993 -8.94114,2.0972 -17.17569,4.80638 -24.70507,8.12695 -7.2941,3.32057 -11.76506,6.99013 -13.41211,11.00976 -1.41176,3.32056 -2.94083,7.25294 -4.58789,11.79688 -1.64705,4.36917 -3.41258,9.00106 -5.29493,13.89453 -1.64706,4.7187 -3.29241,9.43754 -4.93945,14.15625 -1.64706,4.71871 -3.05987,8.9139 -4.23633,12.58398 l 0.70703,2.09571 c 0.70588,-0.52432 1.99851,-1.13493 3.88086,-1.83399 7.99998,-3.32056 16.9419,-7.33989 26.82422,-12.05859 10.1176,-4.71871 19.88124,-9.52451 29.29297,-14.41797 9.64703,-5.06825 18.35446,-9.96293 26.11914,-14.68164 7.76467,-4.89345 13.41005,-8.99973 16.93945,-12.32031 5.41174,-5.06824 7.6482,-9.26341 6.70704,-12.58399 -0.70589,-3.32056 -3.17684,-5.8539 -7.41211,-7.60156 -2.99998,-1.31075 -7.32367,-1.98285 -12.97071,-2.01562 z m -86.91211,26.39453 c 0,0.29519 0.26807,0.458 0.77149,0.5039 0.0961,-0.0786 0.19301,-0.16889 0.28906,-0.24023 z m 0.73438,0.53515 c -1.95416,0.0269 -3.50273,0.2796 -4.61524,0.77539 -0.94116,0.52432 -1.64854,1.22383 -2.11914,2.09766 -0.23529,0.69905 -0.46979,1.57248 -0.70507,2.62109 -0.2353,0.87383 -0.58802,1.66031 -1.0586,2.35938 0,0.17477 0.11822,0.35062 0.35352,0.52539 0.47058,0.17477 0.8233,0.34867 1.05859,0.52344 0.94119,-0.87385 1.64662,-1.83423 2.11719,-2.88281 0.70588,-1.22338 1.52954,-2.27266 2.4707,-3.14649 0.83274,-1.23704 1.66532,-2.18327 2.49805,-2.87305 z m -12.83789,19.70313 c -0.0754,0.0701 -0.15367,0.14084 -0.24805,0.21094 -0.2353,0.17476 -0.47174,0.34867 -0.70703,0.52343 -0.2353,0 -0.46978,0.087 -0.70508,0.26172 v 0.26172 h 0.35352 c 0.49449,-0.24486 0.92762,-0.66989 1.30664,-1.25781 z m -9.77735,21.70703 c -0.16566,0.12305 -0.27431,0.18317 -0.41406,0.27734 0.024,-0.002 0.0335,-0.0156 0.0606,-0.0156 0.23529,0 0.35351,-0.0869 0.35351,-0.26172 z m -0.69531,0.46484 c -0.3155,0.19263 -0.57418,0.32032 -0.71679,0.32032 0.47058,0 0.70507,-0.0869 0.70507,-0.26172 0,-0.0222 0.008,-0.0392 0.0117,-0.0586 z m -1.42187,4.77735 c 0,0.34952 -0.11821,0.61234 -0.35352,0.78711 v 0.52343 H 119.5 c 0,-0.17476 -0.11822,-0.34867 -0.35352,-0.52343 -0.23529,-0.17477 -0.35156,-0.43759 -0.35156,-0.78711 z m -0.70703,8.91406 c 0,0.17477 -0.11823,0.34867 -0.35352,0.52344 v 0.52343 c 0.23529,-0.17477 0.35352,-0.52258 0.35352,-1.04687 z m -0.35352,1.04687 c -0.47059,0.17477 -0.82331,0.26368 -1.05859,0.26368 -0.2353,0 -0.588,0.1739 -1.0586,0.52343 -0.47057,0.34953 -0.70508,0.61234 -0.70508,0.78711 0,0.17476 -0.1182,0.34866 -0.35351,0.52344 v 0.26172 0.26367 c 0.23531,0 0.35351,0.087 0.35351,0.26172 0.23528,-0.69907 0.70623,-1.31164 1.41211,-1.83594 z m 23.29492,31.19727 c 0.2353,0.17477 0.35352,0.34866 0.35352,0.52344 0.2353,0 0.35156,-0.087 0.35156,-0.26172 z M 111.73437,256.875 c -0.2353,0.5243 -0.46979,1.13687 -0.70508,1.83594 0,0.69907 -0.11821,1.30969 -0.35351,1.83398 v 1.04883 c 0.2353,0.17477 0.35351,0.43759 0.35351,0.78711 0.47059,-0.34952 0.70508,-0.69929 0.70508,-1.04883 0.23529,-0.52429 0.47174,-0.96102 0.70703,-1.31054 -0.23529,-0.87384 -0.47174,-1.48641 -0.70703,-1.83594 z"
     style="fill:#20ff57;fill-opacity:0.93532338;stroke-width:19.10171127" /><path
     d="m 380.1985,191.51799 q 1.14965,1.0674 1.72448,2.56176 0.57483,1.28087 1.43707,2.34828 -1.72448,-0.42697 -3.44896,-0.64044 -1.43707,-0.21348 -3.16156,-0.42697 -0.86225,-0.21347 -2.0119,-0.64043 -1.14965,-0.64044 -2.0119,-0.21348 -2.87413,0.85391 -5.46086,0.21348 -2.2993,-0.64044 -4.59861,-1.92132 -4.59863,-2.13481 -7.76018,0 -4.02379,2.56175 -8.04758,4.91003 -3.73639,2.13481 -6.32311,5.12353 -4.88604,5.76396 -9.48465,11.95487 -4.31122,5.97745 -8.90984,12.16836 v 2.13481 q 2.29931,0.85391 4.31122,0.85391 7.18534,-0.21348 13.50844,-0.42695 6.61052,-0.42696 13.50845,-0.64045 0.57483,-0.21348 1.72448,0 1.43707,0.21349 2.0119,0.85392 0.86224,0.42697 1.72448,1.49436 0.86224,0.85392 0.57483,1.70784 0,0.85393 -1.14966,1.49436 -0.86224,0.64044 -2.01189,0.85392 l -26.15466,1.28089 q -1.72448,0.21347 -3.73637,0.21347 -1.72449,0 -3.44898,0 -4.3112,0.21348 -7.18534,1.49437 -2.87413,1.28088 -3.73637,4.69656 -1.14966,2.98872 -2.87414,5.97744 -1.43708,2.98871 -1.72449,5.97743 -0.57483,6.83137 -0.28742,11.52793 0.57483,4.69656 1.43707,7.68527 0.86224,2.98872 2.01191,4.69656 1.14965,1.49436 2.29931,2.34828 1.43706,-0.21348 4.3112,-1.0674 12.93362,-3.2022 24.43017,-7.68528 11.78397,-4.48308 22.41828,-10.67399 l 3.73638,-2.13481 q 0.86224,-0.21347 2.58673,-0.21347 1.72448,0 3.16155,0.21347 1.72448,0.21348 2.87413,0.64044 1.14966,0.42696 1.14966,0.85392 -0.28742,1.0674 -1.14966,2.1348 -0.86224,0.85393 -2.01189,1.70784 -10.63431,7.25832 -22.70569,13.02228 -11.78397,5.76396 -25.86725,9.82008 -8.335,2.34828 -18.39448,1.92132 -18.39449,-0.64044 -26.44207,-13.44924 -2.29931,-3.84264 -4.3112,-7.89876 -1.72448,-4.26959 -4.02379,-8.32571 0.57481,-5.55049 0.2874,-11.10096 0,-5.55049 0.86224,-10.46053 2.01191,-11.95488 6.61052,-22.41539 4.59862,-10.67401 12.07139,-20.70757 3.16155,-4.26959 6.89793,-7.89875 4.02379,-3.62916 8.6224,-6.83136 9.19725,-6.19092 20.11898,-7.25832 11.20913,-1.0674 24.14276,4.05612 6.3231,2.34828 12.35879,5.337 6.03569,2.98872 11.78396,5.97744 1.14966,0.42696 2.01191,1.28088 1.14965,0.85392 1.72448,1.49436 z m -68.40449,32.66243 q 2.29931,-5.55047 4.31121,-11.10095 2.29931,-5.76396 4.59861,-11.52792 -5.74827,5.97744 -9.19723,12.8088 -3.44898,6.61787 -6.32311,13.66271 -0.28742,0.42697 0.28741,1.06741 0.57483,0.42696 0.86224,0.85391 0.57483,0 1.43707,0 1.14967,-0.21348 1.14967,-0.64044 1.14965,-1.28088 1.72448,-2.56175 0.57482,-1.28088 1.14965,-2.56177 z m -14.94552,44.8308 q 0.28742,1.70784 0.28742,3.2022 0.28741,1.28088 0.86224,2.34828 l 4.88603,-35.86464 q -0.86224,0 -1.43707,0.42696 -0.57483,0.42697 -1.14965,2.34828 -1.72449,6.83137 -3.16155,13.66272 -1.43707,6.83136 -0.28742,13.8762 z m 18.6819,13.66272 h -0.28741 z m -9.48466,-44.19036 q 0.28741,0.21348 0.28741,0 z"
     style="font-style:normal;font-variant:normal;font-weight:normal;font-stretch:normal;font-size:247.7036438px;line-height:1.25;font-family:Takota;-inkscape-font-specification:'Takota, Normal';font-variant-ligatures:normal;font-variant-caps:normal;font-variant-numeric:normal;font-feature-settings:normal;text-align:start;letter-spacing:0px;word-spacing:0px;writing-mode:lr-tb;text-anchor:start;fill:#20ff57;fill-opacity:0.99502486;stroke:none;stroke-width:6.19242573"
     id="path4522"
     inkscape:connector-curvature="0" /><path
     d="m 559.63309,171.87783 q 9.77206,0.64044 7.47276,8.32571 -2.0119,5.55049 -4.31121,11.31445 -2.29931,5.55047 -4.02379,11.10096 -6.61052,18.1458 -11.20914,36.50507 -4.31121,18.1458 -8.335,36.50508 -0.28741,2.34828 -0.28741,4.69656 0.28741,2.1348 0.28741,4.48308 -0.28741,0.85392 -1.14965,1.49436 -0.57483,0.64044 -1.14966,1.70784 -1.14965,-0.42696 -2.0119,-1.0674 -0.86224,-0.64044 -1.43707,-1.0674 -1.14966,-1.0674 -1.72448,-2.56176 -0.57483,-1.49436 -2.87414,-1.70784 0.57483,1.0674 0.86224,2.1348 0.57483,0.85392 0,1.28088 -1.43707,1.0674 -3.73638,2.56176 -2.01189,1.28088 -4.3112,1.92132 -1.43707,0.42696 -3.44896,-0.64044 -1.7245,-1.28088 -2.58674,-2.34828 -1.14965,-1.0674 -1.43707,-2.34828 0,-1.28088 -0.28741,-2.56176 -1.43707,-16.65144 0,-33.0894 1.43707,-16.43796 7.18535,-32.66244 l -0.57483,-0.21347 0.28742,0.21347 q -2.29931,-0.85391 -3.16156,0.21349 -0.86224,0.85391 -1.43707,1.49435 -4.59862,5.337 -8.90982,10.674 -4.31121,5.12352 -8.62242,10.46052 -1.43707,1.92133 -3.16155,3.84265 -1.72448,1.70784 -3.44897,3.84263 l -0.28741,0.21349 q -9.19725,6.19091 -14.08328,13.87619 -4.88603,7.68529 -9.77206,15.58404 -3.16156,4.48308 -10.63432,3.84265 -5.74827,-1.06741 -5.74827,-6.40441 0.57483,-11.52792 1.43707,-22.84235 0.86224,-11.52793 1.72448,-23.26932 0.57483,-4.05613 1.14966,-8.11225 0.57482,-4.26959 0.86224,-8.5392 0,-0.42695 -0.57483,-1.70783 -0.57483,0.42695 -1.14966,0.64044 -0.57482,0.21348 -0.57482,0.42695 -0.57483,0.64044 -1.14966,1.28089 -0.57482,0.42695 -0.86224,1.06739 -14.6581,18.78624 -27.87914,37.99944 -13.22104,19.2132 -21.55604,40.13424 -0.57482,1.92132 -2.01189,2.98872 -1.14966,1.0674 -4.02379,1.0674 h -6.89794 q -2.01189,0 -4.3112,0.21348 -2.29931,0.42696 -2.58673,-0.21348 -2.58672,-3.41568 -2.58672,-7.4718 0,-2.98872 0.57483,-5.55048 0.28741,-2.56176 0.86224,-5.55048 2.29931,-19.42668 4.88603,-38.85335 2.87414,-19.64017 9.48466,-39.06684 1.72448,-5.55048 4.31121,-10.674 2.58672,-5.337 5.17344,-10.88748 0.57483,-1.49436 2.29931,-2.77525 2.0119,-1.49435 3.44896,-1.28087 3.16156,0.42696 6.0357,1.49436 2.87414,0.85392 6.03569,2.13479 0.57482,0.42697 0,2.13481 -0.28742,1.49436 -0.86224,2.56175 -4.31121,12.8088 -8.62241,25.6176 -4.0238,12.59533 -8.0476,25.40413 -0.57482,1.06739 -0.28741,2.34828 0.28741,1.28088 0.28741,2.34828 1.43707,-1.0674 3.73638,-1.0674 2.29931,0 2.87415,-1.92133 0.57483,1.0674 1.14965,1.28089 0.28742,0.21347 1.14966,0 0.86224,-0.21349 0.86224,-0.42697 6.61051,-8.5392 12.6462,-16.86492 6.32311,-8.32571 12.93362,-16.86492 3.73638,-4.69656 7.76018,-9.17963 4.02379,-4.48308 8.04758,-8.75268 3.16155,-3.20221 5.46086,-3.84264 2.58674,-0.64044 6.89794,0.64043 5.74827,1.28088 7.76017,3.20221 2.29931,1.92132 1.72448,5.55047 -1.14965,8.11225 -2.29931,16.22449 -0.86224,7.89875 -2.29931,15.79752 -0.86224,5.76396 -2.01189,11.52792 -0.86224,5.55047 -1.72449,11.31443 0,0.42697 0,0.85392 0.28742,0.42696 0.28742,0.85393 0.57483,-0.42697 1.14965,-0.64044 0.86224,-0.21349 1.43707,-0.85393 7.47276,-8.96616 14.65811,-17.71884 7.18534,-8.96615 15.23293,-17.50536 9.19724,-9.60659 18.6819,-18.57276 9.48465,-8.96615 19.25672,-17.93231 3.73638,-3.62916 5.46086,-3.62916 2.0119,-0.21348 6.61051,2.1348 1.43708,0.64043 2.58674,1.0674 1.43707,0.42696 3.44896,0.64044 z m -61.50656,60.84179 v 0.21348 z m -9.19724,13.87621 q 0.86225,0 1.43707,0 0.57483,-0.21349 1.43707,-0.21349 -0.57483,-2.13479 -0.57483,-3.41567 -0.57482,0.42695 -0.86224,0.85391 -0.28741,0.42697 -0.57482,0.85392 -0.57483,0.42696 -0.57483,1.0674 0,0.42696 -0.28742,0.85393 z m 10.3469,-13.66273 q 0,0 0.57482,-0.21348 h -1.43707 q 0.28742,0.21348 0.86225,0.21348 z m 3.73638,-6.19091 q 0,0.21347 0,0.21347 0.28742,0 0.28742,0.21349 v -0.42696 z m 25.86724,54.86435 q 2.0119,-2.1348 2.58672,-4.2696 0.57483,-2.34828 0.57483,-4.48307 0,-2.34828 -0.28741,-4.69656 -0.28742,-2.34828 0.28741,-4.69657 h -0.28741 q -0.57483,0 -0.57483,-0.21348 -0.86224,0.64044 -0.86224,1.28088 -0.57483,4.26961 -0.86224,8.5392 0,4.2696 -0.57483,8.5392 z m 2.58672,-22.62888 q 0,0 0.57483,-0.21348 h 0.57483 q -0.28742,-1.49436 -1.14966,-2.56176 0,-0.21348 -0.28741,-0.42696 -0.28741,-0.21348 -0.57483,-0.64044 0,0.21349 0,0.42696 0.28742,0 0.28742,0.21348 0,0.21348 0.28741,0.42696 0.28741,1.0674 0.28741,2.77524 z m -0.86224,-3.84264 q 2.0119,-1.28088 2.58673,-2.56176 0.86224,-1.49436 0.28741,-3.84264 v -0.42695 q 0,1.28087 -0.57483,2.34828 -0.28741,1.06739 -0.86224,2.13479 -0.57483,1.49436 -1.43707,2.34828 z m 3.73638,-8.53919 q 0,-0.64044 0.28741,-0.85393 0,-0.21348 -0.28741,-0.21348 0,0 0,-0.21347 v 0.64044 z m 0.28741,-6.4044 q 0,0 0.57483,-0.85393 v -0.64044 q -0.57483,0.42696 -0.57483,0.85393 z m -121.57604,-7.04484 q 0,0.42695 -0.2874,0.42695 v -0.64044 h 0.2874 v 0.42696 z"
     style="font-style:normal;font-variant:normal;font-weight:normal;font-stretch:normal;font-size:247.7036438px;line-height:1.25;font-family:Takota;-inkscape-font-specification:'Takota, Normal';font-variant-ligatures:normal;font-variant-caps:normal;font-variant-numeric:normal;font-feature-settings:normal;text-align:start;letter-spacing:0px;word-spacing:0px;writing-mode:lr-tb;text-anchor:start;fill:#20ff57;fill-opacity:0.93532338;stroke:none;stroke-width:6.19242573"
     id="path4524"
     inkscape:connector-curvature="0" /><path
     d="m 573.52328,224.39391 q -0.86224,0.64044 -1.72448,1.28087 -0.57483,0.42697 -1.14965,1.49437 -6.0357,16.22447 -2.29931,33.30287 0.86224,2.34828 1.14965,4.91004 0.57483,2.34828 0.86224,4.69656 l 0.28742,0.21348 q -5.17346,-2.56176 -7.18536,-6.19091 -1.72448,-3.62917 -3.16155,-7.89877 -2.58672,-8.11224 -1.72448,-16.22448 0.86224,-8.11223 3.73638,-16.22447 4.88604,-14.51664 13.79586,-26.89848 9.19725,-12.59533 25.005,-22.20192 8.33501,-5.337 18.10708,-7.89877 10.05948,-2.56175 21.26862,-0.64043 4.31121,0.64043 8.335,2.56176 4.02379,1.70784 7.76017,3.41568 2.0119,0.64044 3.16155,1.92132 1.43707,1.0674 0,2.98872 -1.43706,1.70784 -3.16155,2.98872 -1.43706,1.0674 -4.31121,0.85391 -0.57483,-0.21347 -1.14965,-0.21347 -0.28742,0 -0.86225,-0.21348 -5.74827,-2.34828 -10.34689,-0.42696 -4.31121,1.70784 -8.04759,4.48308 -14.6581,10.24704 -23.85534,23.05584 -8.90983,12.8088 -13.79587,27.11195 -2.29931,6.4044 -3.16155,12.8088 -0.57482,6.4044 0.86224,12.8088 0.57483,1.28088 0.57483,2.56176 0,1.0674 0.57483,2.34828 1.43707,3.62917 2.58672,5.55048 1.14966,1.92132 2.87414,2.34828 1.72448,0.21348 4.0238,-0.85392 2.58672,-1.28088 6.61051,-3.84264 9.19724,-5.97743 14.08328,-13.66271 5.17345,-7.89877 9.19724,-16.01101 4.88604,-9.82008 4.88604,-19.42668 0.28741,-9.82008 -5.17345,-19.64015 -2.58673,-3.84264 2.87413,-3.84264 6.89794,0.42696 12.07138,2.56175 5.17345,2.13481 7.18536,7.68528 3.16155,6.83136 4.02379,13.66273 0.86224,6.61787 -1.72449,13.23575 -3.16156,10.67401 -8.90983,20.2806 -5.74827,9.39312 -15.80776,17.0784 -6.03569,4.48308 -12.93361,7.25833 -6.89794,2.77523 -15.23294,3.41567 -4.0238,0.42696 -8.335,0 -4.31121,-0.64044 -8.335,-2.1348 -4.0238,-1.70784 -7.47276,-4.48308 -3.16155,-2.77524 -4.88603,-6.83136 -7.18534,-16.43796 -3.73638,-33.0894 0.57483,-2.56175 1.14965,-5.12352 0.57483,-2.77524 1.14966,-5.12352 0.28741,-1.28088 0.28741,-2.56176 0,-1.28087 0.28742,-2.77524 2.58672,-0.42695 2.01189,-1.70784 -0.28741,-1.28088 -0.86224,-2.56176 0.28741,-0.21347 0.86224,-1.28087 0.28741,0.42696 1.14966,1.0674 -1.43707,0 -2.0119,0.21347 -0.28741,1.06741 -0.57483,2.34828 0,1.28088 -0.28741,2.34828 -0.28741,1.28088 -0.57483,2.56176 0,1.28089 0,2.56177 z"
     style="font-style:normal;font-variant:normal;font-weight:normal;font-stretch:normal;font-size:247.7036438px;line-height:1.25;font-family:Takota;-inkscape-font-specification:'Takota, Normal';font-variant-ligatures:normal;font-variant-caps:normal;font-variant-numeric:normal;font-feature-settings:normal;text-align:start;letter-spacing:0px;word-spacing:0px;writing-mode:lr-tb;text-anchor:start;fill:#20ff57;fill-opacity:0.93532338;stroke:none;stroke-width:6.19242573"
     id="path4526"
     inkscape:connector-curvature="0" /><path
     d="m 671.01044,243.60711 q 3.73638,-17.71885 6.61052,-35.22421 3.16156,-17.71884 8.90983,-35.01071 0.57483,-1.70784 1.14966,-2.98872 0.86224,-1.49436 1.43706,-3.2022 2.58673,-5.12353 5.74828,-5.97744 3.16156,-1.0674 9.77207,1.92132 1.43707,0.42696 2.58672,2.77524 0.28742,0.21348 -0.28741,0.64044 -0.28741,0.21347 0,0.42696 2.87414,2.34828 3.16155,4.69656 0.57483,2.34828 -0.28741,4.69656 -0.57483,2.34828 -2.0119,4.69656 -1.14965,2.34828 -1.43707,4.69656 -1.14965,4.91003 -3.16155,10.03356 -1.72448,4.91003 -3.44896,10.03355 -0.57483,1.06741 -0.86224,2.56176 -0.28743,1.28089 -0.86224,2.56177 -3.73639,7.4718 -5.17346,15.37055 -1.14965,7.89877 -2.58672,15.79752 -0.28742,1.28088 0.28741,3.41568 0.57483,-0.64043 1.14966,-1.0674 0.86224,-0.42696 1.43706,-1.28088 7.47277,-8.96615 14.65811,-17.93232 7.47277,-9.17963 14.08328,-18.57275 4.88603,-7.25833 10.6343,-13.44924 6.0357,-6.19092 13.50846,-11.31445 6.61052,-4.48307 13.79586,-8.11224 7.18534,-3.84263 13.79586,-7.89875 2.58673,-1.70784 5.17345,-1.49437 2.87414,0.21349 5.74827,0.64045 3.16156,0.42696 4.88605,1.49436 2.01189,0.85392 1.43706,3.62916 0,0.42696 1.14966,1.0674 1.14965,0.42696 1.72448,1.0674 0.57483,0.64044 1.14965,1.49435 0.57483,0.85393 0.28742,1.70784 -2.0119,5.12353 -3.73638,10.46053 -1.72448,5.12352 -4.02379,10.03355 -4.31121,9.60661 -7.47276,18.35929 -3.16156,8.53919 -5.46086,17.0784 -2.0119,8.53919 -3.16155,17.29187 -1.14966,8.75268 -1.7245,18.78624 -0.2874,2.56176 -0.2874,5.12352 0.2874,2.56177 0.57483,4.91005 1.14965,2.56175 -0.28743,3.62915 -1.14965,0.85392 -4.3112,0.85392 h -0.86224 q -10.92172,0.85392 -15.23293,-1.70784 -4.0238,-2.56176 -3.44897,-11.10096 0,-2.34828 0,-3.41567 0.28742,-1.28089 0.57483,-2.13481 0.28741,-1.0674 0.86224,-2.1348 0.86224,-1.0674 2.0119,-3.41568 l 0.28741,0.21348 q 1.43708,-5.97743 2.87415,-11.52792 1.43706,-5.76396 2.2993,-11.52792 2.0119,-10.03356 2.87414,-19.85363 1.14966,-9.82008 4.59862,-19.64016 0.28741,-1.0674 0,-1.92132 -0.28741,-0.85393 -0.28741,-1.92133 h 0.57482 l -0.28741,0.21349 q -3.44896,2.34828 -6.89793,4.48307 -3.16155,2.13481 -6.32311,4.69656 -33.6274,27.53892 -52.88414,61.9092 -0.86224,1.70784 -2.29931,4.48308 -1.43707,2.77525 -2.87413,5.76396 -1.14966,2.98872 -2.29931,5.97744 -1.14966,2.77524 -1.72449,4.48308 -0.57482,1.0674 -1.14965,2.56176 -0.28741,1.28088 0.57483,1.92132 2.01189,1.92132 2.01189,2.98872 0,1.0674 -1.14965,1.70784 -1.14966,0.64044 -2.87414,0.85392 -1.43707,0.42696 -2.58672,1.0674 -1.14967,0.42696 -2.29932,0.64044 -0.86224,0.21348 -2.0119,0.64044 -10.05947,2.1348 -14.08326,-0.21348 -4.31122,-2.34828 -3.73639,-9.82008 0.28741,-3.2022 1.43707,-7.4718 0.86224,-4.2696 2.01189,-8.75268 0.86224,-4.69656 2.01191,-8.96616 1.14965,-4.2696 2.01189,-7.25832 0.57483,-2.56175 1.43707,-5.12352 1.14966,-2.56176 2.58672,-5.12351 l -0.57482,-0.21349 h 0.28741 z"
     style="font-style:normal;font-variant:normal;font-weight:normal;font-stretch:normal;font-size:247.7036438px;line-height:1.25;font-family:Takota;-inkscape-font-specification:'Takota, Normal';font-variant-ligatures:normal;font-variant-caps:normal;font-variant-numeric:normal;font-feature-settings:normal;text-align:start;letter-spacing:0px;word-spacing:0px;writing-mode:lr-tb;text-anchor:start;fill:#20ff57;fill-opacity:0.93532338;stroke:none;stroke-width:6.19242573"
     id="path4528"
     inkscape:connector-curvature="0" /><path
     d="m 972.92768,122.77743 q 0.57486,0.21348 0.57486,1.28088 0.2874,1.0674 0.5748,1.92132 -1.72449,0.64044 -4.31121,0.64044 -8.62241,-0.21348 -17.53224,-0.42696 -8.62241,-0.42696 -17.53224,-0.21348 -18.96932,0.85392 -37.3638,1.92132 -18.39448,1.0674 -37.36379,2.1348 -3.44897,0 -5.46086,0.21348 -2.01191,0.21348 -3.16156,1.0674 -1.14966,0.64044 -2.0119,2.1348 -0.57482,1.49436 -1.72448,4.05612 -9.77206,27.96588 -18.39448,55.50479 -8.62241,27.53892 -14.37069,55.93177 -1.72449,7.47179 -2.0119,15.15708 -0.28741,7.68527 -0.86224,15.15707 -0.57483,1.70784 0.57483,3.2022 0.86224,4.2696 0,5.337 -0.86224,0.85392 -6.61052,1.70784 -5.74827,0.64044 -9.77207,-1.0674 -3.73638,-1.92132 -4.59862,-6.19092 -0.86224,-5.337 -1.43707,-10.46052 -0.86224,-5.33699 -0.28741,-10.46052 0.57483,-18.1458 3.44896,-35.43768 3.16155,-17.29187 7.47277,-34.79723 3.16155,-12.8088 6.61051,-25.6176 3.73638,-13.02228 7.18534,-25.83108 0,-0.42696 0,-0.85392 0.28742,-0.64044 0.28742,-1.28088 0.57482,-2.77524 -0.28742,-3.41568 -0.57483,-0.64044 -4.59862,0.21348 -5.74827,0.42696 -11.20914,1.0674 -5.17344,0.64044 -10.6343,1.49436 -7.76018,1.28088 -15.23294,2.56176 -7.76016,1.28088 -15.80776,2.56176 -3.16155,0.64044 -5.74827,0.85392 -2.58672,0.21348 -4.88604,-1.70784 -2.58672,-2.56176 -4.88603,-5.12352 -2.29931,-2.56176 -2.0119,-5.97744 0.28741,-3.62916 5.74827,-4.2696 12.93363,-1.70784 25.57984,-3.41568 12.35878,-1.70784 25.005,-3.41568 5.17345,-0.42696 10.3469,-0.85392 5.17344,-0.42696 10.6343,-0.85392 6.0357,0 7.76018,-4.48308 1.43707,-3.41568 3.16155,-7.04484 1.72448,-3.62916 3.44896,-7.25832 1.43707,-2.34828 3.16155,-3.2022 1.7245,-0.85392 4.88605,0.21348 4.02379,1.06741 8.04758,1.70785 4.02379,0.64043 7.47276,2.34828 4.59862,1.70784 5.17345,3.41567 0.86224,1.49436 -0.57483,5.33701 -0.86224,2.56175 -1.14965,4.05612 -0.28742,1.28087 0.28741,1.92131 0.57483,0.42697 2.58672,0.64044 2.0119,0 5.46086,0 10.3469,-0.21347 20.69379,0 10.34691,0 20.69381,0 4.59861,0 8.90982,-0.21347 4.59862,-0.21349 9.48466,-0.42697 l 0.28741,0.42697 -0.28741,-0.42697 q 1.14965,0 2.01189,0.64044 0.86225,3.84264 6.03569,3.84264 7.18535,0 13.79587,0.21348 6.89792,0 13.50845,0.64044 3.16155,0.42696 5.74827,1.28088 2.87414,0.85392 5.46086,1.92132 z"
     style="font-style:normal;font-variant:normal;font-weight:normal;font-stretch:normal;font-size:247.7036438px;line-height:1.25;font-family:Takota;-inkscape-font-specification:'Takota, Normal';font-variant-ligatures:normal;font-variant-caps:normal;font-variant-numeric:normal;font-feature-settings:normal;text-align:start;letter-spacing:0px;word-spacing:0px;writing-mode:lr-tb;text-anchor:start;fill:#20ff57;fill-opacity:0.93532338;stroke:none;stroke-width:6.19242573"
     id="path4530"
     inkscape:connector-curvature="0" /><g
     aria-label="Marcina"
     transform="scale(1.1603132,0.86183627)"
     style="font-style:normal;font-variant:normal;font-weight:normal;font-stretch:normal;font-size:159.98445129px;line-height:1.25;font-family:Takota;-inkscape-font-specification:'Takota, Normal';font-variant-ligatures:normal;font-variant-caps:normal;font-variant-numeric:normal;font-feature-settings:normal;text-align:start;letter-spacing:0px;word-spacing:0px;writing-mode:lr-tb;text-anchor:start;fill:#20ff57;fill-opacity:0.93532338;stroke:none;stroke-width:3.99948692"
     id="text4531"><path
       d="m 349.76919,348.67969 q 0.47995,1.75982 0.15999,4.31958 -1.27988,8.63916 -2.87972,16.95835 -1.43986,8.31919 -2.39977,16.79837 -1.75983,13.2787 -2.87972,26.23745 -1.11989,12.95874 -2.39977,26.07746 -0.63994,6.71935 -0.63994,13.27871 0,6.39938 0.79993,12.79876 0.9599,2.87972 -2.23979,3.99961 -6.07941,1.59984 -8.1592,0.47995 -1.91982,-0.95991 -2.71974,-7.03931 -0.47995,-2.23979 -0.63994,-4.47957 0,-2.23978 -0.15998,-4.47956 -0.15999,-2.71974 -0.15999,-5.43948 0.15999,-2.71973 0.15999,-5.59945 0.31997,-14.07863 1.59984,-27.8373 1.43986,-13.75866 3.83963,-27.67731 0.47995,-3.19969 1.43986,-6.39937 1.11989,-3.19969 1.91981,-6.39938 0.31997,-1.11989 0.47996,-2.0798 0.15998,-1.11989 0.47995,-2.23978 0,-0.31997 -0.31997,-0.47996 -0.15998,-0.15998 -0.15998,-0.47995 -0.47996,0 -0.79993,0.31997 -1.27987,2.0798 -2.23978,3.19969 -8.63916,12.79876 -15.51849,26.07746 -6.71935,13.27871 -12.3188,27.67731 -1.27988,2.55976 -2.87972,4.1596 -1.59985,1.59984 -3.35968,3.51966 -0.15998,0.15998 -0.47995,0.31997 -0.15998,0.15998 -0.31997,0 -2.0798,-0.63994 -4.63955,-1.75983 -0.79992,1.59984 -1.91981,2.23978 -1.11989,0.47995 -2.39977,-0.47995 -1.27987,-0.95991 -2.39976,-2.39977 -0.95991,-1.43986 -1.59985,-3.19969 -0.79992,-4.15959 -1.59984,-8.47917 -0.79993,-4.31958 -1.59985,-8.63916 -0.31997,-2.71974 -0.47995,-5.59946 -0.15999,-2.87972 -0.47995,-5.59946 0,-0.31997 -0.31997,-0.79992 -0.15999,-0.63994 -0.31997,-1.11989 -0.31997,0.31997 -0.63994,0.79992 -0.31997,0.31997 -0.63994,0.95991 -1.75983,6.39938 -3.67964,12.79876 -1.75983,6.23939 -3.19969,12.95874 -1.75983,6.71934 -3.19969,13.59867 -1.43986,6.71935 -3.0397,13.59868 -1.59985,6.07941 -6.55937,6.2394 h -0.9599 q -1.91982,-1.27988 -3.83963,-1.75983 -1.75983,-0.47996 -3.99961,0.79992 -0.79992,0.63994 -2.0798,-1.11989 -1.11989,-1.75983 -0.9599,-3.51966 0.15998,-3.35967 0.31996,-6.71935 0.15999,-3.51965 0.79993,-7.03931 3.19969,-22.87778 10.239,-43.99573 7.1993,-21.27793 17.75828,-41.75594 0.31996,-0.63994 0.47995,-1.27987 2.23978,-3.03971 3.35967,0.15998 0.79992,1.91981 1.59985,1.75983 0.9599,-0.15999 1.43986,-1.27988 1.11989,-2.23978 2.71973,-2.07979 1.59985,0.15998 2.87972,0.9599 1.75983,0.79992 3.03971,1.59985 1.43986,0.79992 1.75983,3.35967 1.59984,13.59868 2.07979,26.87739 0.47996,13.11872 0.63994,26.7174 0,1.27988 0.31997,1.75983 0.31997,0.79992 0.95991,0.95991 0,0.15998 0.15998,0 0.31997,-0.31997 0.31997,-0.63994 0.95991,-1.91981 1.75983,-3.83963 0.95991,-2.0798 1.75983,-4.15959 6.71935,-15.51849 15.03854,-29.59713 8.31919,-14.23861 18.07824,-27.83729 1.27988,-1.91981 3.51966,-2.71974 2.23978,-0.9599 4.63955,-0.79992 2.39976,0.15999 4.47956,1.27988 2.23978,1.11989 3.19969,3.19969 z m -58.71429,80.63216 q 0.15998,-0.47995 0.31997,-0.79992 0.15998,-0.31997 0.15998,-0.63994 0,-0.63994 -0.15998,-1.11989 0,-0.63994 0,-1.43986 -0.79993,-7.35929 -1.59985,-15.03854 -0.63994,-7.67925 -1.59984,-16.15843 V 375.2371 q 0,-0.47995 -0.15999,-0.79992 -0.15998,-0.47995 -0.31997,-0.79992 -0.31997,0.31997 -0.79992,0.63994 -0.31997,0.31997 -0.31997,0.79992 -0.31997,1.75983 -0.79992,3.67964 -0.31997,1.91982 -0.15998,3.99961 0.79992,9.75906 1.59984,19.67809 0.95991,9.75905 1.91981,19.67809 0.15999,1.43986 0.31997,3.0397 0.31997,1.59985 0.63994,3.03971 0,0.31997 0.31997,0.47995 0.31997,0.15999 0.63994,0.63994 z"
       style="font-style:normal;font-variant:normal;font-weight:normal;font-stretch:normal;font-size:159.98445129px;font-family:Takota;-inkscape-font-specification:'Takota, Normal';font-variant-ligatures:normal;font-variant-caps:normal;font-variant-numeric:normal;font-feature-settings:normal;text-align:start;writing-mode:lr-tb;text-anchor:start;fill:#20ff57;fill-opacity:0.93532338;stroke-width:3.99948692"
       id="path858"
       inkscape:connector-curvature="0" /><path
       d="m 392.34005,452.34961 q -0.15998,-2.39977 -0.31997,-4.63955 -0.15998,-2.39977 -0.47995,-4.79953 0,-0.79992 -0.47995,-2.0798 -0.63994,0.31997 -1.1199,0.63994 -0.47995,0.31997 -0.79992,0.9599 -3.19969,3.83963 -6.39938,7.99923 -3.19968,3.99961 -6.39937,8.1592 -3.67965,4.63955 -8.63916,6.07941 -4.79954,1.43986 -10.55898,1.11989 -4.79953,-0.31996 -7.51927,-3.0397 -2.55975,-2.71974 -3.0397,-6.23939 -1.75983,-9.59907 0,-18.71818 1.91981,-9.2791 7.35928,-17.75828 3.51966,-4.95952 8.63916,-7.35928 5.11951,-2.55975 11.03893,-3.03971 3.99961,-0.31997 7.99922,0 4.1596,0.31997 7.99923,2.0798 0.47995,0.47995 1.11989,0.63994 0.79992,0 1.27987,0.15998 2.23979,0.31997 2.55975,-1.43986 0.95991,-7.35928 1.91982,-14.55858 1.11989,-7.1993 2.23978,-14.71857 0.31997,-3.99961 -2.87972,-1.59985 -4.1596,3.35968 -8.47918,6.71935 -4.15959,3.35967 -8.1592,7.03932 -2.55975,2.23978 -4.79954,4.95951 -2.23978,2.55975 -4.47956,5.11951 -1.91981,2.23978 -5.43947,2.71973 -3.35968,0.47995 -5.59946,-1.43986 -0.31997,-0.15998 -0.47995,-0.79992 -0.15999,-0.79992 0,-1.11989 0.31997,-1.11989 0.9599,-1.75983 0.63994,-0.79992 1.27988,-1.43986 2.0798,-2.55975 4.1596,-4.79953 2.23978,-2.23979 4.15959,-4.79954 2.71974,-2.87972 5.1195,-5.91942 2.39977,-3.03971 5.11951,-5.75944 6.39937,-6.71935 15.51849,-9.2791 2.55975,-0.79992 4.79953,0 2.23978,0.79992 4.47957,2.87972 1.75983,1.59984 3.51965,3.0397 1.91982,1.27988 4.31958,1.59985 2.71974,0.47995 3.35968,1.59984 0.63994,0.95991 -0.15999,3.83963 -1.11989,6.07941 -2.71973,12.15882 -1.43986,5.91942 -2.39977,11.99883 -1.27987,9.75905 -2.55975,19.35812 -1.11989,9.59907 -2.23978,19.67809 -0.31997,2.23978 -0.47996,4.31958 0,2.0798 0.79993,4.31958 0.63993,3.19969 -0.63994,5.59945 -1.11989,2.39977 -1.43986,5.11951 0,0.79992 -0.95991,0.9599 -3.0397,1.75983 -6.07941,0.15999 -3.0397,-1.59985 -3.67964,-5.27949 -0.15998,-2.23978 -0.31997,-4.31958 0,-2.0798 -0.31997,-4.31958 z m 3.99961,-79.83224 q -0.47995,0.47995 -0.63993,0.79992 v -0.15998 q 0.15998,-0.15999 0.15998,-0.31997 0.15998,-0.15999 0.31997,-0.31997 0.31997,0.15998 0.63994,0.31997 0.31997,0 0.63993,0.15998 -0.47995,-0.47995 -0.31996,-0.47995 z m -30.55703,77.59246 q 0.47996,-0.31997 0.79993,-0.47996 0.31996,-0.15998 0.63993,-0.47995 5.43947,-5.59945 10.71896,-11.35889 5.27949,-5.91943 10.71896,-11.51889 0.79992,-1.11989 0.95991,-1.91981 0.15998,-1.11989 -0.63994,-2.39977 -0.79992,-1.27987 -2.23978,-2.23978 -1.27988,-0.9599 -2.87972,-1.27987 -1.43986,-0.31997 -2.39977,0.31997 -1.91981,0.9599 -3.83963,2.23978 -1.75983,1.11989 -3.19969,2.87972 -4.15959,5.43947 -6.07941,11.83885 -1.75982,6.39938 -3.0397,13.11872 0,0.31997 0.15998,0.63994 0.15999,0.31997 0.31997,0.63994 z m -3.51966,-1.59985 q -0.31996,-0.9599 -0.47995,-1.43986 -0.15998,0.31997 -0.47995,1.59985 0,0.31997 0.15998,0.63994 0.15999,0.15998 0.15999,0.63993 0.15998,-0.47995 0.31997,-0.79992 0.15998,-0.31997 0.31996,-0.63994 z m -0.63993,4.1596 h 0.15998 l -0.15998,-0.31997 z"
       style="font-style:normal;font-variant:normal;font-weight:normal;font-stretch:normal;font-size:159.98445129px;font-family:Takota;-inkscape-font-specification:'Takota, Normal';font-variant-ligatures:normal;font-variant-caps:normal;font-variant-numeric:normal;font-feature-settings:normal;text-align:start;writing-mode:lr-tb;text-anchor:start;fill:#20ff57;fill-opacity:0.93532338;stroke-width:3.99948692"
       id="path860"
       inkscape:connector-curvature="0" /><path
       d="m 503.53174,363.39826 q 4.31958,1.27987 5.43948,4.95951 1.27987,3.67965 -1.59985,7.99923 -1.75983,2.87972 -4.15959,5.59945 -2.23979,2.71974 -4.79954,4.95952 -8.15921,7.83924 -17.4383,14.23862 -9.11912,6.23939 -19.03815,11.99883 -2.39977,1.59984 -5.11951,2.87972 -2.71973,1.11989 -5.27948,2.39977 -2.23979,1.27987 -2.55975,2.39976 -0.15999,0.95991 1.59984,2.55975 6.23939,5.27949 12.3188,10.71896 6.2394,5.27949 12.63877,10.87895 1.43987,1.11989 3.03971,2.23978 1.59984,0.9599 2.87972,2.23978 0.47995,0.31997 0.63994,0.79992 0.15998,0.47996 0.47995,1.11989 -0.95991,0.47996 -1.59984,1.27988 -0.47996,0.79992 -1.11989,1.75983 -0.63994,0.79992 -1.43986,1.43986 -0.63994,0.63994 -1.91982,0.79992 -1.43986,0 -2.23978,0.79992 -1.59985,1.75983 -3.19969,1.59985 -1.43986,-0.31997 -3.0397,-1.59985 -5.59946,-4.31958 -11.03893,-8.63916 -5.27949,-4.31958 -10.87894,-8.95913 -2.0798,-1.75983 -3.99962,-3.35967 -1.91981,-1.75983 -3.83962,-3.35967 -1.43986,-1.43986 -2.0798,-1.27988 -0.47995,0.15998 -0.79992,2.0798 -1.43986,4.63955 -2.55975,9.43908 -1.11989,4.79953 -2.0798,9.59907 -0.79992,3.19969 -1.43986,6.39938 -0.47995,3.19969 -1.11989,6.39937 -0.15999,0.79993 -0.15999,1.59985 0,0.95991 -0.31997,1.75983 -1.27987,1.59984 -3.0397,2.0798 -0.15999,0 -0.79992,-0.79993 -0.63994,-0.63993 -0.95991,-1.27987 -0.63994,-0.79992 -0.63994,-1.75983 -0.31997,0.79992 -0.9599,1.11989 -0.79993,2.39977 -1.75983,3.0397 -0.95991,0.63994 -3.19969,0.15999 -3.67964,-0.63994 -3.83963,-4.79953 0,-0.47996 0,-0.79993 0.15999,-0.31997 0,0 0.95991,-13.59868 3.19969,-26.23745 2.23978,-12.63877 4.79953,-25.11756 0.31997,-0.9599 0.31997,-2.07979 0.15999,-1.11989 0.47996,-2.0798 0.79992,-2.23978 0.47995,-3.83963 -0.31997,-1.75983 -2.71974,-3.51966 -3.67964,-2.55975 -4.31958,-5.75944 -0.47995,-3.35967 2.0798,-6.87933 2.23978,-3.19969 4.79953,-5.91942 2.71974,-2.87972 5.43948,-5.59946 1.27987,-1.27987 2.23978,-2.55975 1.11989,-1.43986 1.59984,-3.19969 0.79993,-3.35967 1.59985,-6.39938 0.9599,-3.19969 2.23978,-6.23939 0.79992,-2.39977 1.59984,-2.87972 0.95991,-0.47995 2.87972,-0.15999 1.75983,0.31997 2.23979,1.43987 0.47995,0.9599 0.31997,3.19968 -0.31997,0.95991 -0.63994,1.91982 -0.31997,0.9599 -0.31997,2.23978 0,0.47995 0.15998,1.11989 0.15999,0.63994 0.31997,1.11989 0.47996,-0.31997 1.27988,-0.47995 0.79992,-0.31997 1.11989,-0.79992 0.47995,-1.11989 0.79992,-2.0798 0.31997,-1.11989 0.79992,-2.23978 0.31997,-0.95991 0.63994,-1.91982 0.47995,-0.9599 1.27988,-1.59984 1.43986,-1.11989 2.87972,-0.79992 1.43986,0.15998 2.39976,2.07979 0.79993,1.59985 1.43986,1.59985 0.79993,0 1.91982,-0.47995 6.07941,-2.71974 12.15882,-4.63955 6.23939,-2.0798 12.63877,-3.35968 2.55975,-0.31997 4.95952,-0.47995 2.55975,-0.15999 5.1195,0.15998 3.51966,0.31997 6.23939,2.0798 2.71974,1.75983 3.83963,5.43947 0.63994,1.91982 2.71973,2.23979 z m -81.2721,100.15026 q 0,-0.31997 0.31997,-0.63994 -0.31997,-0.47995 -0.31997,-0.47995 v 0.15999 z m 1.27988,-8.79914 q 0.31997,-0.79993 0.31997,-1.59985 0.15998,-0.79992 0.31997,-1.59984 v -0.15999 q -0.79993,1.91982 -0.79993,3.19969 z m 0.79992,-4.1596 q 0,-0.15998 0,-0.15998 0.15998,-0.15999 0.15998,-0.31997 0,0 -0.15998,-0.31997 z m 0.79992,-4.47956 q 0.31997,-0.79993 0.31997,-1.59985 0,-0.79992 0.31997,-1.59984 0,-0.15999 0.15999,-0.15999 0.15998,0 0.31996,-0.31997 -1.27987,0.31997 -1.11989,1.27988 0.15999,0.95991 -0.63994,1.75983 0,0.31997 0.63994,0.63994 z m 1.27988,-3.99961 q 0.31997,-2.23979 0.95991,-4.47957 -1.75983,0.79992 -1.75983,2.0798 0,1.11989 0.79992,2.39977 z m 0.95991,-4.47957 q 0,-0.31997 0,-0.79992 0.15998,-0.47995 0,-0.95991 0,-0.47995 -0.15999,-1.11989 -0.15998,-0.63994 -0.31997,-1.11989 0.15999,1.11989 0.15999,2.23978 0.15998,0.95991 0.31997,1.75983 z m 1.11989,-9.43908 -0.31997,0.63994 q -0.15999,0.15998 -0.15999,0 -0.15998,0.31996 -0.15998,1.11989 h 0.63994 z m 4.47956,-17.75828 q 1.27988,-5.43947 2.55975,-10.71895 1.43986,-5.43948 2.71974,-11.03893 0,-0.31997 -0.47996,-1.27988 -0.31996,0.31997 -0.63993,0.63994 -0.31997,0.15999 -0.63994,0.47995 -0.15999,0.47996 -0.15999,0.95991 0,0.47995 -0.15998,0.79992 -1.27988,4.95952 -2.39977,10.07902 -1.11989,4.95952 -1.91981,9.91904 -0.15998,0.31997 0,0.63994 0.15998,0.31997 0.15998,0.63994 0.31997,-0.31997 0.47996,-0.63994 0.31997,-0.31997 0.47995,-0.47996 z m 67.19347,-40.95602 q -0.31997,-0.79992 -0.95991,-1.75982 -0.63993,0.9599 -0.79992,1.75982 z m -3.83963,2.0798 q -1.11989,1.27988 -0.47995,1.43986 0.63994,0.15999 1.43986,0.31997 0.15998,-0.95991 0.31997,-1.75983 0.15998,-0.79992 0.47995,-1.75983 -0.47995,0.47996 -0.9599,0.95991 -0.31997,0.47995 -0.79993,0.79992 z m -48.15532,36.63644 q 0.15999,0.15999 0.15999,0.15999 0.15998,0 0.31997,0.15998 v -0.15998 q -0.31997,0 -0.47996,-0.15999 z m 0.31997,-1.91981 v 0.47995 z m -2.39976,-4.31958 q 9.11911,-6.71935 18.07824,-13.59868 9.11911,-7.03932 18.23823,-14.07863 1.75983,-1.43986 3.35967,-3.03971 1.59984,-1.75983 3.35967,-3.51965 0.63994,-0.79993 0.79993,-1.75983 -0.31997,0 -0.79993,0 -0.47995,-0.15999 -0.9599,0 -4.1596,1.11989 -8.15921,2.39976 -3.83963,1.11989 -7.99922,2.39977 0.63993,-0.63994 1.11989,-1.27988 0.63994,-0.79992 1.27987,-1.11989 3.67965,-1.27987 7.03932,-2.39976 3.51966,-1.11989 7.03932,-2.23979 2.07979,-0.47995 3.51965,-2.39976 0.95991,-1.11989 0.79993,-1.43986 -0.15999,-0.47996 -1.1199,-0.63994 -1.75982,-0.31997 -3.51965,-0.47995 -1.75983,-0.15999 -3.51966,0.15998 -6.87933,0.79992 -13.27871,3.19969 -6.23939,2.39977 -12.63877,4.79953 -0.79992,0.15999 -2.0798,0.79993 -1.27988,0.47995 -1.11989,2.23978 -0.15999,0 -0.47995,0 -0.15999,-0.15999 -0.47996,0 -0.47995,0 -0.79992,0.15998 0.31997,-0.15998 0.79992,-0.15998 h 0.95991 q 0.31997,-0.31997 0.63994,-0.63994 0.47995,-0.47995 0.79992,-0.63994 5.59945,-1.59984 11.19891,-3.0397 5.75944,-1.59985 11.3589,-3.35968 0.31997,0 1.27987,0.31997 -0.31997,0.95991 -0.63994,1.11989 -1.11989,0.63994 -3.0397,1.1199 h -1.11989 q -1.27988,0.31996 -2.71974,0.63993 -1.27987,0.31997 -2.55975,0.79993 -1.27987,0.63993 -2.39977,1.59984 -0.9599,0.95991 -2.23978,1.75983 -3.19969,1.75983 -6.39938,3.35967 -3.0397,1.59985 -6.23939,3.03971 -1.75983,0.79992 -2.71974,1.91981 -0.9599,1.11989 -1.43986,2.71974 -1.27987,5.1195 -2.71973,10.07902 -1.27988,4.95951 -2.55975,9.91903 0,0.63994 0,1.43986 0,0.63994 -0.15999,1.27988 0.47996,-0.31997 1.11989,-0.47996 0.63994,-0.15998 1.1199,-0.9599 z m 26.55741,-0.31997 h 0.15999 z m 4.1596,-2.55975 h 0.15999 l -0.47996,-0.95991 0.47996,0.95991 z m 27.99728,-26.87739 q 0.79992,-1.27988 0.79992,-2.71974 0.15999,-1.59984 -1.27987,-2.87972 -1.43986,-1.27987 -2.71974,-0.63993 -1.11989,0.63993 -2.39977,1.43986 1.75983,0.47995 1.11989,2.07979 v 0.15999 l -0.15998,0.15998 v -0.15998 q -0.31997,0.79992 -0.79992,1.43986 -0.31997,0.63994 -0.79992,1.43986 l 0.15998,0.15998 q -0.31997,0.31997 -1.27988,0.63994 1.27988,1.11989 0.63994,2.23978 -0.47995,0.95991 -1.27987,1.75983 -3.19969,3.19969 -6.39938,6.55936 -3.19969,3.19969 -6.39938,6.39938 l -4.79953,5.27949 q 1.59984,-0.47995 2.23978,-1.11989 3.67964,-2.71974 7.03932,-5.59946 3.35967,-2.87972 6.71934,-5.59945 3.03971,-2.39977 5.43947,-5.11951 2.39977,-2.71973 4.1596,-5.91942 z m -17.11834,-10.71896 q -0.63993,0.15999 -2.23978,0.79992 -0.47995,0 -0.79992,-0.15998 0.95991,-0.63994 1.59984,-0.79992 0.31997,0 0.63994,0.15998 0.47995,0 0.79992,0 z m -19.99805,10.23901 0.15998,0.15998 -0.15998,0.15999 z m 2.71973,-0.63994 q 0.31997,0 0.63994,0 0.31997,-0.15999 0.63994,-0.15999 0.15998,0 0.15998,0 0,-0.15998 0.15999,-0.15998 -0.15999,0.15998 -0.15999,0.31997 z m 28.31725,1.59984 -0.15998,-0.15998 h 0.47995 z"
       style="font-style:normal;font-variant:normal;font-weight:normal;font-stretch:normal;font-size:159.98445129px;font-family:Takota;-inkscape-font-specification:'Takota, Normal';font-variant-ligatures:normal;font-variant-caps:normal;font-variant-numeric:normal;font-feature-settings:normal;text-align:start;writing-mode:lr-tb;text-anchor:start;fill:#20ff57;fill-opacity:0.93532338;stroke-width:3.99948692"
       id="path862"
       inkscape:connector-curvature="0" /><path
       d="m 528.38934,386.91597 q -11.99884,15.35851 -16.31842,34.23667 -1.27987,6.71935 -2.39976,13.75866 -1.1199,6.87934 0.15998,13.75867 0.47995,2.71973 1.43986,5.59945 1.11989,2.71974 2.39977,5.43947 0.79992,2.0798 2.39976,2.39977 1.59985,0.31997 3.19969,-0.95991 3.19969,-2.39976 6.07941,-4.79953 3.03971,-2.55975 5.75944,-5.27949 3.19969,-3.35967 3.67964,-3.67964 0.63994,-0.47995 0.63994,-0.31997 0.15999,0.15999 0.63994,-0.15998 0.63994,-0.47995 3.83963,-3.83963 1.27987,-1.27987 2.71973,-2.0798 1.59985,-0.9599 3.03971,-1.75982 0.79992,-0.15999 1.91981,0 1.11989,0.15998 1.91981,0.47995 3.51966,1.11989 1.1199,4.47956 l -9.43909,11.99884 -0.47995,0.63993 q 0.15998,-0.31996 -0.31997,0.15999 -0.47995,0.47995 -1.91981,2.23978 -6.55937,7.67926 -14.23862,8.79915 -7.67925,1.27987 -16.95835,-1.43986 -7.03932,-2.23979 -10.23901,-6.71935 -3.0397,-4.63955 -4.79953,-10.71896 -1.75983,-7.1993 -2.39977,-14.3986 -0.47995,-7.35928 1.27988,-14.71857 1.75983,-6.87933 3.83963,-13.59868 2.07979,-6.87933 4.31958,-13.59868 1.75983,-5.27948 4.95951,-9.75905 3.35968,-4.47956 7.67926,-8.1592 1.75983,-1.27988 3.67964,-2.23979 2.0798,-0.9599 3.83963,-2.07979 1.59984,-0.79993 3.0397,-1.75983 1.43986,-0.95991 3.03971,-1.91982 4.15959,-2.87972 8.95913,-1.91981 4.95951,0.79992 8.1592,5.27949 0.31997,0.47995 0.63994,0.9599 0.31997,0.31997 0.79992,0.63994 3.67965,2.0798 4.1596,5.1195 0.63994,2.87972 -0.15999,6.07941 -1.27987,4.1596 -2.87972,8.31919 -1.43986,3.99962 -2.87972,8.15921 -0.9599,2.87972 -2.39976,3.67964 -1.27988,0.63994 -3.83963,-0.15998 l -1.59984,-0.47995 q -2.0798,-0.79993 -3.19969,-1.27988 -0.95991,-0.47995 -1.27988,-1.11989 -0.31997,-0.79992 0,-1.91981 0.31997,-1.1199 1.11989,-3.19969 1.11989,-3.03971 1.75983,-6.07941 0.79992,-3.03971 1.59985,-6.2394 -2.39977,-0.31997 -3.67965,1.27988 -1.11989,1.43986 -2.39976,2.87972 z"
       style="font-style:normal;font-variant:normal;font-weight:normal;font-stretch:normal;font-size:159.98445129px;font-family:Takota;-inkscape-font-specification:'Takota, Normal';font-variant-ligatures:normal;font-variant-caps:normal;font-variant-numeric:normal;font-feature-settings:normal;text-align:start;writing-mode:lr-tb;text-anchor:start;fill:#20ff57;fill-opacity:0.93532338;stroke-width:3.99948692"
       id="path864"
       inkscape:connector-curvature="0" /><path
       d="m 577.73454,381.95645 q 4.47957,0.31997 5.1195,0.95991 0.63994,0.63994 -0.15998,3.35967 -4.47957,14.87856 -7.51927,29.75711 -3.0397,14.71857 -5.43947,29.59712 -0.15999,1.27988 -0.47995,2.39977 -0.15999,1.11989 -1.59985,2.39977 -0.79992,0.47995 -0.95991,1.27987 -0.15998,0.79992 -0.31996,1.59985 -0.15999,3.0397 -0.15999,5.91942 0,2.71974 -0.15998,5.75944 0,0.79992 0.31997,1.59985 0.47995,0.9599 -1.59985,1.27987 -0.79992,0.31997 -2.0798,0.15999 -1.11989,0 -2.23978,-0.15999 -1.11989,-0.15998 -2.0798,-0.63994 -0.79992,-0.31996 -0.9599,-0.79992 -0.79993,-1.75983 -1.1199,-3.35967 -0.31996,-1.59985 -0.9599,-3.35968 0.31997,-11.99883 1.59984,-23.83768 1.43986,-11.99883 3.03971,-23.99767 0.9599,-6.71934 2.23978,-13.27871 1.43986,-6.55936 3.67964,-13.11872 0.47996,-1.11989 0.79992,-1.75983 0.47996,-0.63994 0.95991,-0.95991 0.63994,-0.47995 1.59985,-0.47995 1.11989,-0.15998 3.0397,-0.31997 2.71974,-0.31997 5.43947,0 z m -22.55781,37.75633 q -0.15998,0.47996 -0.63993,0.79992 -0.31997,0.31997 -0.63994,0.63994 -0.31997,-0.47995 -0.47996,-0.79992 -0.15998,-0.31997 -0.47995,-1.11989 1.11989,-4.31958 2.23978,-8.95913 1.11989,-4.63955 2.39977,-9.2791 1.43986,-4.31958 3.35967,-8.63916 0,-0.31997 0.47996,-0.63994 0.63993,-0.47995 0.9599,-0.79992 0,0.31997 0.15999,0.79992 0.15998,0.47996 -0.15999,0.79993 -1.43986,5.59945 -2.87972,11.19891 -1.27987,5.59945 -2.71973,11.19891 -0.31997,1.27987 -0.79992,2.55975 -0.47996,1.11989 -0.79993,2.23978 z"
       style="font-style:normal;font-variant:normal;font-weight:normal;font-stretch:normal;font-size:159.98445129px;font-family:Takota;-inkscape-font-specification:'Takota, Normal';font-variant-ligatures:normal;font-variant-caps:normal;font-variant-numeric:normal;font-feature-settings:normal;text-align:start;writing-mode:lr-tb;text-anchor:start;fill:#20ff57;fill-opacity:0.93532338;stroke-width:3.99948692"
       id="path866"
       inkscape:connector-curvature="0" /><path
       d="m 582.71904,431.39165 q 2.0798,-13.27871 3.67965,-26.39744 1.75983,-13.27871 4.95951,-26.23745 0.31997,-1.27987 0.63994,-2.23978 0.47996,-1.11989 0.79992,-2.39977 1.43987,-3.83962 3.19969,-4.47956 1.75983,-0.79992 5.43948,1.43986 0.79992,0.31997 1.43986,2.0798 0.15998,0.15998 -0.15999,0.47995 -0.15998,0.15998 0,0.31997 1.59985,1.75983 1.75983,3.51966 0.31997,1.75983 -0.15998,3.51965 -0.31997,1.75983 -1.1199,3.51966 -0.63993,1.75983 -0.79992,3.51966 -0.63994,3.67964 -1.75983,7.51927 -0.9599,3.67964 -1.91981,7.51927 -0.31997,0.79992 -0.47995,1.91981 -0.15999,0.95991 -0.47996,1.91982 -2.07979,5.59945 -2.87972,11.51888 -0.63993,5.91942 -1.43986,11.83885 -0.15998,0.9599 0.15999,2.55975 0.31997,-0.47996 0.63994,-0.79993 0.47995,-0.31996 0.79992,-0.9599 4.15959,-6.71935 8.1592,-13.4387 4.1596,-6.87933 7.83924,-13.91864 2.71974,-5.43947 5.91943,-10.07902 3.35967,-4.63955 7.51927,-8.47918 3.67964,-3.35967 7.67925,-6.07941 3.99961,-2.87972 7.67925,-5.91942 1.43986,-1.27988 2.87972,-1.11989 1.59985,0.15998 3.19969,0.47995 1.75983,0.31997 2.71974,1.11989 1.11989,0.63994 0.79992,2.71974 0,0.31996 0.63994,0.79992 0.63994,0.31997 0.95991,0.79992 0.31996,0.47995 0.63993,1.11989 0.31997,0.63994 0.15999,1.27988 -1.11989,3.83962 -2.0798,7.83924 -0.95991,3.83962 -2.23978,7.51926 -2.39977,7.1993 -4.1596,13.75867 -1.75983,6.39938 -3.0397,12.79875 -1.11989,6.39938 -1.75983,12.95874 -0.63994,6.55937 -0.95991,14.07864 -0.15998,1.91981 -0.15998,3.83962 0.15998,1.91982 0.31997,3.67964 0.63993,1.91982 -0.15999,2.71974 -0.63994,0.63994 -2.39977,0.63994 h -0.47995 q -6.07941,0.63994 -8.47917,-1.27988 -2.23979,-1.91981 -1.91982,-8.31919 0,-1.75983 0,-2.55975 0.15999,-0.95991 0.31997,-1.59984 0.15999,-0.79993 0.47995,-1.59985 0.47996,-0.79992 1.1199,-2.55975 l 0.15998,0.15998 q 0.79992,-4.47956 1.59984,-8.63916 0.79993,-4.31958 1.27988,-8.63916 1.11989,-7.51927 1.59984,-14.87855 0.63994,-7.35929 2.55976,-14.71857 0.15998,-0.79992 0,-1.43986 -0.15999,-0.63994 -0.15999,-1.43986 h 0.31997 l -0.15998,0.15998 q -1.91982,1.75983 -3.83963,3.35968 -1.75983,1.59984 -3.51966,3.51966 -18.71818,20.63799 -29.43714,46.39549 -0.47995,1.27987 -1.27987,3.35967 -0.79993,2.0798 -1.59985,4.31958 -0.63994,2.23978 -1.27987,4.47956 -0.63994,2.0798 -0.95991,3.35968 -0.31997,0.79992 -0.63994,1.91981 -0.15998,0.95991 0.31997,1.43986 1.11989,1.43986 1.11989,2.23978 0,0.79993 -0.63994,1.27988 -0.63993,0.47995 -1.59984,0.63994 -0.79992,0.31997 -1.43986,0.79992 -0.63994,0.31997 -1.27988,0.47995 -0.47995,0.15999 -1.11989,0.47996 -5.59945,1.59984 -7.83924,-0.15999 -2.39976,-1.75983 -2.07979,-7.35928 0.15998,-2.39977 0.79992,-5.59946 0.47995,-3.19969 1.11989,-6.55936 0.47995,-3.51966 1.11989,-6.71935 0.63994,-3.19969 1.11989,-5.43947 0.31997,-1.91981 0.79992,-3.83963 0.63994,-1.91981 1.43986,-3.83962 l -0.31996,-0.15999 h 0.15998 z"
       style="font-style:normal;font-variant:normal;font-weight:normal;font-stretch:normal;font-size:159.98445129px;font-family:Takota;-inkscape-font-specification:'Takota, Normal';font-variant-ligatures:normal;font-variant-caps:normal;font-variant-numeric:normal;font-feature-settings:normal;text-align:start;writing-mode:lr-tb;text-anchor:start;fill:#20ff57;fill-opacity:0.93532338;stroke-width:3.99948692"
       id="path868"
       inkscape:connector-curvature="0" /><path
       d="m 691.99842,452.34961 q -0.15998,-2.39977 -0.31997,-4.63955 -0.15998,-2.39977 -0.47995,-4.79953 0,-0.79992 -0.47995,-2.0798 -0.63994,0.31997 -1.11989,0.63994 -0.47996,0.31997 -0.79993,0.9599 -3.19969,3.83963 -6.39937,7.99923 -3.19969,3.99961 -6.39938,8.1592 -3.67964,4.63955 -8.63916,6.07941 -4.79954,1.43986 -10.55898,1.11989 -4.79953,-0.31996 -7.51927,-3.0397 -2.55975,-2.71974 -3.0397,-6.23939 -1.75983,-9.59907 0,-18.71818 1.91981,-9.2791 7.35928,-17.75828 3.51966,-4.95952 8.63916,-7.35928 5.11951,-2.55975 11.03893,-3.03971 3.99961,-0.31997 7.99922,0 4.1596,0.31997 7.99923,2.0798 0.47995,0.47995 1.11989,0.63994 0.79992,0 1.27987,0.15998 2.23979,0.31997 2.55976,-1.43986 0.9599,-7.35928 1.91981,-14.55858 1.11989,-7.1993 2.23978,-14.71857 0.31997,-3.99961 -2.87972,-1.59985 -4.1596,3.35968 -8.47918,6.71935 -4.15959,3.35967 -8.1592,7.03932 -2.55975,2.23978 -4.79954,4.95951 -2.23978,2.55975 -4.47956,5.11951 -1.91981,2.23978 -5.43947,2.71973 -3.35968,0.47995 -5.59946,-1.43986 -0.31997,-0.15998 -0.47995,-0.79992 -0.15999,-0.79992 0,-1.11989 0.31997,-1.11989 0.95991,-1.75983 0.63993,-0.79992 1.27987,-1.43986 2.0798,-2.55975 4.1596,-4.79953 2.23978,-2.23979 4.15959,-4.79954 2.71974,-2.87972 5.11951,-5.91942 2.39976,-3.03971 5.1195,-5.75944 6.39938,-6.71935 15.51849,-9.2791 2.55975,-0.79992 4.79953,0 2.23979,0.79992 4.47957,2.87972 1.75983,1.59984 3.51966,3.0397 1.91981,1.27988 4.31958,1.59985 2.71973,0.47995 3.35967,1.59984 0.63994,0.95991 -0.15999,3.83963 -1.11989,6.07941 -2.71973,12.15882 -1.43986,5.91942 -2.39977,11.99883 -1.27987,9.75905 -2.55975,19.35812 -1.11989,9.59907 -2.23978,19.67809 -0.31997,2.23978 -0.47995,4.31958 0,2.0798 0.79992,4.31958 0.63994,3.19969 -0.63994,5.59945 -1.11989,2.39977 -1.43986,5.11951 0,0.79992 -0.95991,0.9599 -3.0397,1.75983 -6.07941,0.15999 -3.0397,-1.59985 -3.67964,-5.27949 -0.15998,-2.23978 -0.31997,-4.31958 0,-2.0798 -0.31997,-4.31958 z m 3.99961,-79.83224 q -0.47995,0.47995 -0.63993,0.79992 v -0.15998 q 0.15998,-0.15999 0.15998,-0.31997 0.15999,-0.15999 0.31997,-0.31997 0.31997,0.15998 0.63994,0.31997 0.31997,0 0.63994,0.15998 -0.47996,-0.47995 -0.31997,-0.47995 z M 665.441,450.10983 q 0.47996,-0.31997 0.79993,-0.47996 0.31996,-0.15998 0.63993,-0.47995 5.43948,-5.59945 10.71896,-11.35889 5.27949,-5.91943 10.71896,-11.51889 0.79992,-1.11989 0.95991,-1.91981 0.15998,-1.11989 -0.63994,-2.39977 -0.79992,-1.27987 -2.23978,-2.23978 -1.27988,-0.9599 -2.87972,-1.27987 -1.43986,-0.31997 -2.39977,0.31997 -1.91981,0.9599 -3.83963,2.23978 -1.75983,1.11989 -3.19969,2.87972 -4.15959,5.43947 -6.0794,11.83885 -1.75983,6.39938 -3.03971,13.11872 0,0.31997 0.15998,0.63994 0.15999,0.31997 0.31997,0.63994 z m -3.51965,-1.59985 q -0.31997,-0.9599 -0.47996,-1.43986 -0.15998,0.31997 -0.47995,1.59985 0,0.31997 0.15998,0.63994 0.15999,0.15998 0.15999,0.63993 0.15998,-0.47995 0.31997,-0.79992 0.15998,-0.31997 0.31997,-0.63994 z m -0.63994,4.1596 h 0.15998 l -0.15998,-0.31997 z"
       style="font-style:normal;font-variant:normal;font-weight:normal;font-stretch:normal;font-size:159.98445129px;font-family:Takota;-inkscape-font-specification:'Takota, Normal';font-variant-ligatures:normal;font-variant-caps:normal;font-variant-numeric:normal;font-feature-settings:normal;text-align:start;writing-mode:lr-tb;text-anchor:start;fill:#20ff57;fill-opacity:0.93532338;stroke-width:3.99948692"
       id="path870"
       inkscape:connector-curvature="0" /></g><path
     style="fill:#20ff57;fill-opacity:0.93532338;stroke:#20ff57;stroke-width:6.75722837;stroke-miterlimit:4;stroke-dasharray:none;stroke-opacity:1"
     id="path4670"
     d="m 55.290423,399.96502 193.711827,-0.57415 c 7.79244,-0.0231 14.09327,-6.36141 14.07274,-14.15642 l -0.0514,-17.49968 -0.0336,-11.29022 -0.0519,-17.50532 c -0.0231,-7.79244 -6.3614,-14.09327 -14.15641,-14.07273 l -193.712864,0.57415 c -7.792432,0.0231 -14.093273,6.36139 -14.072734,14.15639 l 0.137255,46.29474 c 0.02562,7.79601 6.360897,14.09378 14.156923,14.07324 z"
     inkscape:connector-curvature="0" /><path
     style="fill:#20ff57;fill-opacity:1;stroke:#20ff57;stroke-width:7.99300003;stroke-miterlimit:4;stroke-dasharray:none;stroke-opacity:1"
     id="path4674"
     d="m 176.46903,543.75212 -0.27511,-92.81579 -38.68561,0.11471 0.2751,92.81581 c 0.0321,10.68233 8.71832,19.31715 19.40014,19.28548 10.68183,-0.0317 19.31715,-8.71833 19.28548,-19.40015 z"
     inkscape:connector-curvature="0" /><path
     style="fill:#20ff57;fill-opacity:1;stroke:#20ff57;stroke-width:7.99296522;stroke-miterlimit:4;stroke-dasharray:none;stroke-opacity:0"
     id="path4676"
     d="m 162.73595,453.53865 -0.0475,-16.02632 c -0.0358,-11.95136 -12.72645,-21.63902 -28.29084,-21.59288 l -90.736066,0.27149 c -9.340059,0.0277 -16.958353,-7.54559 -16.986036,-16.88563 l -0.04071,-13.73407 c -0.02391,-8.06591 5.632977,-14.82379 13.189428,-16.53979 l -0.03393,-11.45307 c -13.813122,1.86053 -24.489075,13.72073 -24.449226,28.02889 l 0.04071,13.73406 c 0.04614,15.56439 12.745857,28.18905 28.310237,28.14292 l 90.733513,-0.26893 c 9.97919,-0.0297 16.95206,5.42233 16.96662,10.33562 l 0.0475,16.02631 z"
     inkscape:connector-curvature="0" /><g
     aria-label="y"
     transform="scale(1.0841522,0.92237972)"
     style="font-style:normal;font-variant:normal;font-weight:normal;font-stretch:normal;font-size:291.08535767px;line-height:1.25;font-family:Takota;-inkscape-font-specification:'Takota, Normal';font-variant-ligatures:normal;font-variant-caps:normal;font-variant-numeric:normal;font-feature-settings:normal;text-align:start;letter-spacing:0px;word-spacing:0px;writing-mode:lr-tb;text-anchor:start;fill:#20ff57;fill-opacity:0.93532338;stroke:none;stroke-width:7.27713394"
     id="text4775"><path
       d="m 778.59273,366.28034 q 1.16434,-9.31473 1.45543,-16.00969 0.58217,-6.98605 1.74651,-13.68102 0.29108,-2.61976 2.32868,-4.36628 2.32868,-2.03759 4.94845,-2.91085 2.91086,-0.87326 5.82171,-0.58217 3.20194,0.29108 4.94845,2.0376 0.58217,2.61976 0,5.23953 0,6.40388 -0.29108,12.51667 -0.29109,6.1128 -0.87326,12.22559 -0.29109,3.49302 0.58217,7.27713 0.58217,2.91086 1.74651,4.36628 0.87326,-2.03759 1.45543,-3.78411 2.61977,-10.18798 4.65736,-20.37597 2.32869,-10.47907 4.65737,-20.66706 3.20194,-13.9721 6.69496,-27.36203 3.78411,-13.38992 8.73256,-26.48876 0.58217,-1.45543 0.87326,-3.20194 0.58217,-1.74651 1.16434,-4.0752 0.29109,-0.58217 0,-1.45542 0,-0.87326 0.29109,-1.45543 -1.16434,0.58217 -1.74652,1.16434 -0.58217,0.29109 -1.16434,0.87326 -5.23953,9.02364 -10.77015,18.04729 -5.53063,8.73256 -11.06125,17.46512 -1.45543,2.61977 -3.20194,5.53062 -1.45542,2.91086 -3.78411,4.0752 -4.07519,1.45542 -8.44147,1.74651 -4.36628,0 -8.44148,0.29108 -3.20194,0 -5.23953,-2.03759 -2.0376,-2.32869 -2.91086,-5.53062 -0.58217,-2.61977 -0.87325,-5.23954 -0.29109,-2.61977 -0.29109,-5.23954 -0.58217,-18.62946 2.61977,-36.67675 3.20194,-18.33838 7.27713,-36.67676 2.0376,-8.15039 3.78411,-16.30078 1.74651,-8.44147 4.0752,-16.88295 0.58217,-2.32868 1.45542,-4.36628 0.87326,-2.32868 4.0752,-2.61977 4.07519,-0.29108 8.15039,-0.29108 4.36628,0 7.56822,3.78411 0.87325,1.45542 0.87325,3.49302 0.29109,1.74651 0,3.20194 -2.91085,14.55427 -5.53062,28.52637 -2.61977,13.97209 -4.94845,27.94419 -1.16434,7.27713 -2.32868,14.55427 -0.87326,7.27713 -1.74651,14.84535 0,0.58217 0.29108,1.16434 0.58217,0.29109 0.87326,0.87326 0,-0.29109 0.29108,-0.29109 0.58217,-0.29108 0.87326,-0.87325 0.58217,-1.45543 2.61977,-3.78411 10.18799,-18.33838 22.12249,-34.93025 11.93449,-16.88295 25.03334,-33.47481 4.07519,-4.94845 7.27713,-10.18799 3.20194,-5.23954 6.69496,-10.47907 2.0376,-3.20194 3.49303,-4.94845 1.74651,-1.74652 3.49302,-2.32869 1.74651,-0.87325 4.0752,-0.58217 2.32868,0.29109 6.11279,1.16434 3.20194,0.87326 6.11279,2.32869 3.20194,1.45542 6.40388,2.91085 3.49302,1.45543 1.16434,4.65737 -9.31473,12.80775 -15.71861,27.07094 -6.11279,13.97209 -11.9345,28.23527 -13.68101,32.89265 -23.869,66.94964 -10.18798,33.7659 -19.7938,68.11397 -2.0376,6.40388 -4.0752,12.80776 -1.74651,6.40387 -4.36628,13.09884 -1.74651,4.65736 -6.69496,7.56822 -4.65737,3.20194 -9.60582,2.61977 -5.23953,-0.58218 -9.02364,-3.49303 -3.49303,-2.91085 -4.65737,-8.73256 -1.74651,-9.60582 -3.20194,-19.21163 -1.16434,-9.60582 -2.32868,-17.17404 z m 58.79924,-136.81012 q 0,0 0.29109,-0.29108 0.29108,-0.87326 0.58217,-1.45543 0.29108,-0.87326 0.87325,-2.32868 0.58217,-0.29109 1.16435,-0.58217 0.58217,-0.29109 1.16434,-0.87326 l 2.61976,-2.61977 q -0.58217,-0.58217 -0.58217,-1.16434 v 0.29109 q 0.29109,0 0.29109,0.87325 -0.58217,0.58217 -1.45543,1.16434 -0.58217,0.29109 -1.16434,0.87326 -0.87325,1.45543 -2.32868,2.0376 -0.29109,1.16434 -0.58217,2.03759 -0.29109,0.87326 -0.58217,1.74652 z"
       style="fill:#20ff57;fill-opacity:0.93532338;stroke-width:7.27713394"
       id="path873"
       inkscape:connector-curvature="0" /></g></g>
<flowRoot
   xml:space="preserve"
   id="flowRoot4781"
   style="font-style:normal;font-weight:normal;font-size:40px;line-height:1.25;font-family:sans-serif;letter-spacing:0px;word-spacing:0px;fill:#000000;fill-opacity:1;stroke:none"
   transform="translate(-17.42926,-118.55601)"><flowRegion
     id="flowRegion4783"><rect
       id="rect4785"
       width="374.31116"
       height="124.25903"
       x="1271.7375"
       y="577.39801" /></flowRegion><flowPara
     id="flowPara4787" /></flowRoot></svg>