<?xml version="1.0" encoding="UTF-8" standalone="no"?>
<!-- Created with Inkscape (http://www.inkscape.org/) -->

<svg
   xmlns:dc="http://purl.org/dc/elements/1.1/"
   xmlns:cc="http://creativecommons.org/ns#"
   xmlns:rdf="http://www.w3.org/1999/02/22-rdf-syntax-ns#"
   xmlns:svg="http://www.w3.org/2000/svg"
   xmlns="http://www.w3.org/2000/svg"
   xmlns:sodipodi="http://sodipodi.sourceforge.net/DTD/sodipodi-0.dtd"
   xmlns:inkscape="http://www.inkscape.org/namespaces/inkscape"
   width="261.28137mm"
   height="152.58514mm"
   viewBox="0 0 261.28137 152.58514"
   version="1.1"
   id="svg900"
   inkscape:version="0.92.4 (5da689c313, 2019-01-14)"
   sodipodi:docname="RMwhite.svg">
  <defs
     id="defs894" />
  <sodipodi:namedview
     id="base"
     pagecolor="#000000"
     bordercolor="#666666"
     borderopacity="1.0"
     inkscape:pageopacity="0"
     inkscape:pageshadow="2"
     inkscape:zoom="0.49497475"
     inkscape:cx="635.97558"
     inkscape:cy="-28.881668"
     inkscape:document-units="mm"
     inkscape:current-layer="layer1"
     showgrid="false"
     fit-margin-top="0"
     fit-margin-left="0"
     fit-margin-right="0"
     fit-margin-bottom="0"
     showborder="false"
     inkscape:window-width="1920"
     inkscape:window-height="1001"
     inkscape:window-x="-9"
     inkscape:window-y="-9"
     inkscape:window-maximized="1" />
  <metadata
     id="metadata897">
    <rdf:RDF>
      <cc:Work
         rdf:about="">
        <dc:format>image/svg+xml</dc:format>
        <dc:type
           rdf:resource="http://purl.org/dc/dcmitype/StillImage" />
        <dc:title></dc:title>
      </cc:Work>
    </rdf:RDF>
  </metadata>
  <g
     inkscape:label="Layer 1"
     inkscape:groupmode="layer"
     id="layer1"
     transform="translate(147.26431,-19.116548)">
    <g
       id="g1546">
      <path
         inkscape:connector-curvature="0"
         id="path2"
         d="m -104.30515,21.643545 c -2.41075,0 -3.67422,1.501071 -5.05396,2.804999 l -10.10791,10.09809 v -2.795178 c 0,-2.779696 -2.27426,-5.053954 -5.05395,-5.053954 h -5.05396 c -2.77969,0 -5.05447,2.274258 -5.05447,5.053954 v 17.946709 l -7.32772,7.323066 c -1.57685,1.642549 -2.78019,2.840818 -2.78019,5.054473 0,2.845398 2.18381,5.053438 5.05447,5.053438 h 5.05344 v 30.324245 c 0,2.779703 2.27478,5.053953 5.05447,5.053953 h 15.16186 v -0.0248 h 20.215825 v 0.0248 h 15.162381 c 2.779713,0 5.053439,-2.27425 5.053439,-5.053953 V 67.129142 h 5.054473 c 2.870676,0 5.053954,-2.20804 5.053954,-5.053438 0,-2.213655 -1.202838,-3.411924 -2.779675,-5.054473 L -99.250684,24.448544 c -1.379726,-1.303928 -2.643706,-2.804999 -5.054466,-2.804999 z m 13.16095,25.258408 c 1.862775,-0.0072 3.688914,0.148219 5.478735,0.466122 2.925969,0.508643 5.727705,1.224931 8.404654,2.149739 1.120584,0.416166 2.085602,1.132967 2.894914,2.150256 0.871564,1.017288 1.524823,2.127263 1.960603,3.329511 0.498041,1.202251 0.747241,2.40425 0.747241,3.606498 0,1.202254 -0.279966,2.196677 -0.840258,2.982765 -0.871564,1.109771 -1.681224,2.15021 -2.428275,3.121257 -0.747061,0.971048 -1.556194,1.895941 -2.427758,2.774506 -0.80931,0.832329 -1.743051,1.641157 -2.801379,2.427242 -0.996074,0.786085 -2.179016,1.572427 -3.548621,2.358512 -2.614697,1.479696 -5.260546,2.936311 -7.9375,4.36976 -2.614697,1.387211 -5.291833,2.8203 -8.031035,4.299996 -0.186764,0.09248 -0.404171,0.208547 -0.653191,0.347265 -0.24901,0.09248 -0.46694,0.231032 -0.65371,0.415997 -0.12451,0.09248 -0.18706,0.254037 -0.18706,0.48524 0,0.184965 0.0625,0.324033 0.18706,0.416512 0.43578,0.231201 0.80908,0.416285 1.120348,0.555006 0.373534,0.138721 0.747337,0.323287 1.120863,0.554488 2.988222,1.340971 5.882761,2.705041 8.684225,4.092257 2.863712,1.340967 5.696209,2.705044 8.497671,4.092255 0.684799,0.323686 1.338572,0.67084 1.96112,1.040765 0.622546,0.369919 1.245039,0.739566 1.867588,1.109493 1.431856,0.878565 1.681059,1.826464 0.747242,2.843752 -0.373528,0.369925 -0.622734,0.763093 -0.747242,1.179256 -0.124513,0.369922 -0.03119,0.786098 0.280085,1.248505 0.186765,0.231204 0.186765,0.508828 0,0.832502 -0.12451,0.36993 -0.217834,0.71657 -0.280085,1.04025 -0.373531,-0.0925 -0.809379,-0.16201 -1.307415,-0.20826 -0.435782,-0.0462 -0.809072,-0.16178 -1.120343,-0.34674 -3.050482,-1.340977 -5.914261,-2.774587 -8.591209,-4.300516 -2.614697,-1.572175 -5.447191,-3.028273 -8.49767,-4.369242 -0.871564,-0.323686 -1.774542,-0.763384 -2.708363,-1.318268 -0.871565,-0.554887 -1.805305,-1.109615 -2.801375,-1.664496 -0.99608,-0.554887 -1.99186,-1.063601 -2.98794,-1.526006 -0.93382,-0.462404 -1.86807,-0.78604 -2.80189,-0.970999 -0.18677,-0.04624 -0.34213,-0.184798 -0.46664,-0.415997 -0.0623,-0.277444 -0.15558,-0.532058 -0.28009,-0.763259 l -0.0935,-0.06925 0.0935,0.208256 c -0.37352,0.09248 -0.68477,0.161499 -0.93379,0.207738 -0.18677,0 -0.34265,0.02352 -0.46715,0.06977 -0.12452,0 -0.21784,0.04601 -0.28009,0.138491 -0.0623,0.09248 -0.1243,0.277564 -0.18655,0.555006 -0.12452,0.601125 -0.2804,1.386948 -0.46716,2.357996 -0.12451,0.924806 -0.24911,1.896226 -0.37362,2.913517 -0.12451,1.017286 -0.27987,2.011199 -0.46664,2.982246 -0.12451,0.971047 -0.21783,1.757386 -0.28008,2.358512 -0.12451,0.184962 -0.24912,0.393051 -0.37362,0.624252 -0.0623,0.184963 -0.15558,0.393049 -0.28009,0.62425 -0.31127,-0.231201 -0.65379,-0.416282 -1.02733,-0.555003 -0.31127,-0.138724 -0.5292,-0.323805 -0.6537,-0.555006 -0.12451,-0.369919 -0.18656,-0.786095 -0.18656,-1.248502 0,-0.508646 -0.0626,-0.993839 -0.18706,-1.456241 0,-0.09248 -0.0933,-0.162017 -0.28009,-0.208256 -0.12451,-0.04624 -0.24911,-0.115776 -0.37362,-0.208256 -0.0622,0.09248 -0.1243,0.162015 -0.18655,0.208256 -0.0623,0.04624 -0.0935,0.115774 -0.0935,0.208256 0.0623,0.416161 0.0935,0.832335 0.0935,1.248503 0.0623,0.369922 0.1243,0.785582 0.18655,1.247984 0.0623,0.786088 -0.0618,1.271799 -0.3731,1.456759 -0.24902,0.184962 -0.9028,0.254497 -1.96113,0.208256 -1.3696,-0.04624 -2.4905,-0.138785 -3.36206,-0.277503 -0.80932,-0.184962 -1.43181,-0.462579 -1.86759,-0.832506 -0.43578,-0.369922 -0.71575,-0.878639 -0.84026,-1.526006 -0.0622,-0.647364 -0.031,-1.502719 0.0935,-2.566252 0.43578,-3.283066 0.87111,-6.196298 1.30689,-8.739518 0.49804,-2.543222 1.02721,-4.901207 1.5875,-7.074503 0.62255,-2.219537 1.27632,-4.369948 1.96112,-6.450769 0.74706,-2.080816 1.58748,-4.300246 2.5213,-6.658507 0.0622,-0.184959 0.0935,-0.346522 0.0935,-0.485243 v -0.485759 c -0.24902,0.04624 -0.46694,0.06925 -0.65371,0.06925 -0.18676,0 -0.37341,0.04653 -0.56017,0.139009 -0.43578,0.323686 -0.84035,0.670322 -1.21388,1.040247 -0.37352,0.32368 -0.7781,0.647316 -1.21388,0.971002 -0.56029,0.647364 -1.15202,1.040532 -1.77457,1.179256 -0.56029,0.138721 -1.33866,0.09219 -2.33474,-0.13901 -0.49804,-0.138721 -0.96465,-0.254275 -1.40043,-0.346749 -0.43579,-0.138724 -0.90291,-0.300281 -1.40095,-0.485244 -1.74313,-0.369921 -2.89479,-1.040712 -3.45508,-2.011762 -0.49804,-0.971047 -0.24884,-1.987962 0.74724,-3.051492 0.87156,-0.924809 1.83658,-1.826697 2.89491,-2.705261 1.12058,-0.924809 2.30353,-1.734156 3.54862,-2.427759 4.29557,-2.450743 8.87095,-4.369546 13.72681,-5.756756 4.91812,-1.433455 10.085226,-2.404356 15.501381,-2.912999 1.143932,-0.121381 2.274893,-0.184285 3.392559,-0.188619 z m 7.183022,6.591329 c -0.498035,-0.0029 -1.034896,0.01286 -1.610754,0.04754 -2.303415,0.09248 -4.669303,0.416118 -7.097241,0.971003 -2.365677,0.554884 -4.544402,1.271688 -6.53655,2.150255 -1.929897,0.878568 -3.112837,1.849472 -3.548617,2.912999 -0.37353,0.878565 -0.7781,1.919007 -1.21388,3.121258 -0.43578,1.156009 -0.90291,2.38153 -1.40095,3.676261 -0.43579,1.248489 -0.87112,2.497016 -1.3069,3.745508 -0.43578,1.248492 -0.80959,2.358469 -1.12086,3.329511 l 0.18707,0.55449 c 0.18676,-0.138726 0.52877,-0.300284 1.02681,-0.485243 2.11666,-0.878565 4.48254,-1.942013 7.097239,-3.190502 2.676948,-1.248492 5.260245,-2.520027 7.750432,-3.814755 2.552443,-1.340974 4.856284,-2.636025 6.910689,-3.884517 2.054402,-1.294725 3.548075,-2.381178 4.481896,-3.259749 1.431856,-1.340971 2.023586,-2.450943 1.774571,-3.329514 -0.186767,-0.878564 -0.840539,-1.548844 -1.961121,-2.011246 -0.793745,-0.346802 -1.937721,-0.524629 -3.431834,-0.533299 z m -22.995492,6.983553 c 0,0.0781 0.0709,0.121179 0.20412,0.133323 0.0254,-0.0208 0.0511,-0.04469 0.0765,-0.06356 z m 0.1943,0.141591 c -0.51704,0.0071 -0.92676,0.07398 -1.22111,0.205156 -0.24902,0.138726 -0.43618,0.323805 -0.56069,0.555005 -0.0623,0.184957 -0.1243,0.416052 -0.18655,0.693497 -0.0623,0.231201 -0.15558,0.439291 -0.28009,0.624253 0,0.04624 0.0313,0.09277 0.0935,0.139009 0.12451,0.04624 0.21784,0.09225 0.28009,0.138494 0.24902,-0.231206 0.43567,-0.485307 0.56017,-0.762744 0.18677,-0.323686 0.40469,-0.601308 0.65371,-0.832509 0.22033,-0.3273 0.44062,-0.577656 0.66094,-0.760161 z m -3.39669,5.21312 c -0.02,0.01855 -0.0407,0.03726 -0.0656,0.05581 -0.0623,0.04624 -0.12481,0.09225 -0.18707,0.138491 -0.0623,0 -0.12429,0.02302 -0.18655,0.06925 v 0.06925 h 0.0935 c 0.13084,-0.06479 0.24544,-0.177242 0.34572,-0.332796 z m -2.58692,5.743318 c -0.0438,0.03256 -0.0726,0.04846 -0.10956,0.07338 0.006,-5.29e-4 0.009,-0.0041 0.016,-0.0041 0.0623,0 0.0935,-0.02299 0.0935,-0.06925 z m -0.18397,0.122989 c -0.0835,0.05097 -0.15192,0.08475 -0.18965,0.08475 0.12451,0 0.18655,-0.02299 0.18655,-0.06925 0,-0.0059 0.002,-0.01037 0.003,-0.01551 z m -0.3762,1.264007 c 0,0.09248 -0.0313,0.162015 -0.0935,0.208257 v 0.13849 h 0.28009 c 0,-0.04624 -0.0313,-0.09225 -0.0935,-0.13849 -0.0623,-0.04624 -0.093,-0.115779 -0.093,-0.208257 z m -0.18707,2.358512 c 0,0.04624 -0.0313,0.09225 -0.0935,0.138494 v 0.13849 c 0.0623,-0.04624 0.0935,-0.138265 0.0935,-0.276984 z m -0.0935,0.276984 c -0.12451,0.04624 -0.21783,0.06977 -0.28008,0.06977 -0.0623,0 -0.15558,0.04601 -0.28009,0.138491 -0.12451,0.09248 -0.18655,0.162015 -0.18655,0.208256 0,0.04624 -0.0313,0.09225 -0.0935,0.138493 v 0.06925 0.06976 c 0.0623,0 0.0935,0.02302 0.0935,0.06925 0.0622,-0.184963 0.18685,-0.347039 0.37362,-0.48576 z m 6.16345,8.254278 c 0.0623,0.04624 0.0935,0.09225 0.0935,0.138494 0.0623,0 0.093,-0.02302 0.093,-0.06925 z m -7.75095,5.756754 c -0.0622,0.138721 -0.1243,0.300797 -0.18655,0.485759 0,0.184962 -0.0313,0.346522 -0.0935,0.485241 v 0.277502 c 0.0623,0.04624 0.0935,0.11578 0.0935,0.208257 0.12451,-0.09248 0.18655,-0.185021 0.18655,-0.277503 0.0623,-0.138719 0.12482,-0.25427 0.18707,-0.346747 -0.0623,-0.231204 -0.12481,-0.39328 -0.18707,-0.485759 z"
         style="fill:#ffffff;fill-opacity:1;stroke:none;stroke-width:5.05399418" />
      <path
         d="m -44.143125,72.316013 q 0.304178,0.282416 0.456269,0.677799 0.15209,0.338896 0.380225,0.621315 -0.456269,-0.112969 -0.912538,-0.169449 -0.380224,-0.05648 -0.836496,-0.11297 -0.228137,-0.05648 -0.532315,-0.169447 -0.304178,-0.169449 -0.532315,-0.05648 -0.760447,0.22593 -1.444853,0.05648 -0.608356,-0.169449 -1.216715,-0.508349 -1.216721,-0.564835 -2.053215,0 -1.064627,0.677796 -2.129255,1.299112 -0.988587,0.564835 -1.67299,1.355601 -1.292764,1.525047 -2.50948,3.163059 -1.140677,1.581534 -2.357395,3.219545 v 0.564835 q 0.608359,0.225931 1.140677,0.225931 1.901121,-0.05648 3.574108,-0.112964 1.749033,-0.112967 3.574111,-0.169452 0.15209,-0.05648 0.456268,0 0.380225,0.05648 0.532316,0.225933 0.228134,0.112969 0.456268,0.395382 0.228135,0.225933 0.152091,0.451866 0,0.225936 -0.304181,0.395383 -0.228135,0.16945 -0.532313,0.225933 l -6.920087,0.338902 q -0.456268,0.05648 -0.988581,0.05648 -0.456271,0 -0.912543,0 -1.140671,0.05648 -1.901121,0.395385 -0.760447,0.3389 -0.988581,1.242632 -0.304181,0.790765 -0.76045,1.581531 -0.380227,0.790762 -0.456271,1.581528 -0.15209,1.807467 -0.07605,3.050098 0.15209,1.242632 0.380224,2.033394 0.228135,0.790766 0.532318,1.242632 0.304178,0.395383 0.608359,0.621316 0.380222,-0.05648 1.140672,-0.282417 3.42202,-0.847248 6.463816,-2.033397 3.117842,-1.186148 5.931503,-2.824159 l 0.988584,-0.564836 q 0.228134,-0.05648 0.684405,-0.05648 0.456269,0 0.836494,0.05648 0.456268,0.05648 0.760447,0.16945 0.304181,0.112967 0.304181,0.225933 -0.07605,0.282416 -0.304181,0.564833 -0.228135,0.225935 -0.532313,0.451866 -2.813661,1.92043 -6.007547,3.445478 -3.117842,1.525048 -6.844043,2.598229 -2.205302,0.621316 -4.866873,0.50835 -4.866875,-0.16945 -6.996131,-3.558445 -0.608359,-1.016699 -1.140671,-2.08988 -0.456269,-1.129663 -1.064628,-2.202844 0.152085,-1.468568 0.07604,-2.937129 0,-1.468568 0.228134,-2.767682 0.532318,-3.163062 1.749034,-5.930739 1.216718,-2.824165 3.193888,-5.478878 0.836494,-1.129662 1.825078,-2.089877 1.064627,-0.960215 2.281343,-1.807464 2.433439,-1.638014 5.323147,-1.920431 2.965749,-0.282416 6.387771,1.073182 1.672987,0.621316 3.26993,1.412081 1.596943,0.790766 3.11784,1.581531 0.304181,0.112967 0.532318,0.3389 0.304178,0.225933 0.456268,0.395383 z m -18.098688,8.641934 q 0.60836,-1.468562 1.140675,-2.937126 0.608359,-1.525048 1.216715,-3.050096 -1.520896,1.581531 -2.433433,3.388995 -0.912543,1.750978 -1.67299,3.614926 -0.07605,0.112969 0.07604,0.282418 0.15209,0.112967 0.228134,0.225931 0.152091,0 0.380225,0 0.304184,-0.05648 0.304184,-0.16945 0.304178,-0.338899 0.456268,-0.677796 0.152088,-0.3389 0.304178,-0.677802 z m -3.954335,11.861482 q 0.07605,0.451866 0.07605,0.847249 0.07604,0.3389 0.228134,0.621316 l 1.292762,-9.489186 q -0.228134,0 -0.380225,0.112966 -0.15209,0.11297 -0.304178,0.621316 -0.456271,1.807467 -0.836493,3.614928 -0.380225,1.807464 -0.07605,3.671411 z m 4.942919,3.614928 h -0.07604 z m -2.509483,-11.692032 q 0.07604,0.05648 0.07604,0 z"
         style="font-style:normal;font-variant:normal;font-weight:normal;font-stretch:normal;font-size:247.7036438px;line-height:1.25;font-family:Takota;-inkscape-font-specification:'Takota, Normal';font-variant-ligatures:normal;font-variant-caps:normal;font-variant-numeric:normal;font-feature-settings:normal;text-align:start;letter-spacing:0px;word-spacing:0px;writing-mode:lr-tb;text-anchor:start;fill:#ffffff;fill-opacity:1;stroke:none;stroke-width:1.63841259"
         id="path4522"
         inkscape:connector-curvature="0" />
      <path
         d="m 3.3322765,67.119554 q 2.5855242,0.169449 1.9771678,2.202844 -0.5323152,1.468567 -1.1406743,2.993615 -0.6083591,1.468561 -1.0646278,2.937129 -1.7490334,4.801076 -2.96575159,9.658632 -1.14067431,4.801077 -2.20530201,9.658636 -0.076044,0.621316 -0.076044,1.242632 0.076044,0.564832 0.076044,1.186148 -0.076044,0.225933 -0.3041783,0.395383 -0.1520904,0.169449 -0.3041808,0.451866 -0.3041783,-0.112967 -0.5323152,-0.282417 -0.2281344,-0.169449 -0.3802248,-0.282416 -0.3041809,-0.282416 -0.4562687,-0.677799 -0.1520904,-0.395383 -0.7604495,-0.451866 0.1520904,0.282416 0.2281343,0.564833 0.1520905,0.225933 0,0.338899 -0.3802247,0.282416 -0.9885838,0.677799 -0.5323126,0.3389 -1.1406717,0.508349 -0.3802248,0.112967 -0.9125373,-0.169449 -0.456274,-0.3389 -0.6844083,-0.621316 -0.3041782,-0.282416 -0.3802248,-0.621316 0,-0.338899 -0.076044,-0.677799 -0.3802247,-4.405693 0,-8.754904 0.3802248,-4.34921 1.9011239,-8.641937 l -0.1520905,-0.05648 0.076047,0.05648 q -0.6083591,-0.22593 -0.8364961,0.05649 -0.2281343,0.225931 -0.3802248,0.39538 -1.2167181,1.412082 -2.3573902,2.824163 -1.140674,1.355598 -2.281348,2.767679 -0.380225,0.508352 -0.836494,1.016701 -0.456269,0.451866 -0.91254,1.016696 l -0.07604,0.05649 q -2.433439,1.638011 -3.726201,3.671408 -1.292762,2.0334 -2.585524,4.123278 -0.836496,1.186148 -2.813664,1.016701 -1.520896,-0.282419 -1.520896,-1.6945 0.15209,-3.050096 0.380224,-6.043705 0.228135,-3.050099 0.456269,-6.156675 0.152091,-1.073184 0.304181,-2.146366 0.152088,-1.129662 0.228134,-2.25933 0,-0.112964 -0.15209,-0.451863 -0.152091,0.112964 -0.304181,0.16945 -0.152088,0.05648 -0.152088,0.112964 -0.15209,0.169449 -0.304181,0.338902 -0.152087,0.112964 -0.228134,0.282413 -3.878289,4.970526 -7.376356,10.054019 -3.498066,5.083492 -5.703369,10.618851 -0.152087,0.508349 -0.532312,0.790765 -0.304181,0.282416 -1.064628,0.282416 h -1.82508 q -0.532312,0 -1.140671,0.05648 -0.60836,0.112966 -0.684406,-0.05648 -0.684403,-0.903732 -0.684403,-1.976913 0,-0.790766 0.15209,-1.468565 0.07604,-0.677799 0.228135,-1.468564 0.608359,-5.139976 1.292762,-10.279949 0.760449,-5.196462 2.509483,-10.336435 0.456268,-1.468564 1.140674,-2.824162 0.684403,-1.412081 1.368806,-2.880646 0.15209,-0.395383 0.608359,-0.734285 0.532315,-0.39538 0.912537,-0.338897 0.836497,0.112967 1.596946,0.395383 0.76045,0.225933 1.596943,0.56483 0.152088,0.112969 0,0.564835 -0.07605,0.395383 -0.228134,0.677796 -1.140675,3.388995 -2.281346,6.77799 -1.064631,3.332515 -2.129261,6.72151 -0.152088,0.282413 -0.07604,0.621315 0.07604,0.3389 0.07604,0.621316 0.380225,-0.282416 0.988584,-0.282416 0.608359,0 0.760452,-0.508352 0.15209,0.282416 0.304178,0.338902 0.07605,0.05648 0.304181,0 0.228134,-0.05649 0.228134,-0.112969 1.749031,-2.25933 3.345974,-4.462177 1.67299,-2.202844 3.42202,-4.462176 0.988584,-1.242632 2.053215,-2.428777 1.064627,-1.186149 2.129255,-2.315814 0.836494,-0.847251 1.444853,-1.016698 0.684408,-0.16945 1.82508,0.169447 1.520896,0.338899 2.053211,0.847251 0.608359,0.50835 0.456269,1.468562 -0.304178,2.146366 -0.608359,4.29273 -0.228135,2.089877 -0.608359,4.17976 -0.228135,1.525048 -0.532313,3.050096 -0.228134,1.468562 -0.456271,2.993609 0,0.112969 0,0.225933 0.07605,0.112967 0.07605,0.225936 0.152091,-0.112969 0.304179,-0.16945 0.228134,-0.05649 0.380224,-0.225936 1.977168,-2.372296 3.878292,-4.688109 1.901121,-2.372294 4.030379,-4.631627 2.4334369,-2.541743 4.9429199,-4.914042 2.5094802,-2.372294 5.0950071,-4.744591 0.98858382,-0.960215 1.44485248,-0.960215 0.5323152,-0.05648 1.74903072,0.564833 0.3802274,0.169447 0.6844083,0.282416 0.3802248,0.112966 0.9125373,0.16945 z M -12.941334,83.217277 v 0.05648 z m -2.433436,3.671414 q 0.228137,0 0.380224,0 0.152091,-0.05649 0.380225,-0.05649 -0.15209,-0.56483 -0.15209,-0.903729 -0.152088,0.112963 -0.228135,0.22593 -0.07604,0.112969 -0.152087,0.225933 -0.152091,0.112966 -0.152091,0.282416 0,0.112967 -0.07605,0.225936 z m 2.737617,-3.614931 q 0,0 0.152088,-0.05648 h -0.380225 q 0.07605,0.05648 0.228137,0.05648 z m 0.988584,-1.638011 q 0,0.05648 0,0.05648 0.07605,0 0.07605,0.05649 v -0.112966 z m 6.8440403,14.516192 q 0.5323152,-0.564832 0.684403,-1.129665 0.1520904,-0.621316 0.1520904,-1.186145 0,-0.621316 -0.076044,-1.242632 -0.076047,-0.621316 0.076044,-1.242634 h -0.076044 q -0.1520904,0 -0.1520904,-0.05648 -0.2281343,0.169449 -0.2281343,0.338899 -0.1520905,1.129668 -0.2281344,2.25933 0,1.129665 -0.1520904,2.25933 z m 0.684403,-5.987224 q 0,0 0.1520904,-0.05648 h 0.1520905 q -0.076047,-0.395382 -0.3041809,-0.677799 0,-0.05648 -0.076044,-0.112966 -0.076044,-0.05648 -0.1520904,-0.16945 0,0.05649 0,0.112967 0.076046,0 0.076046,0.05648 0,0.05648 0.076044,0.112966 0.076044,0.282417 0.076044,0.734283 z M -4.34826,89.148018 q 0.5323152,-0.338899 0.6844056,-0.677799 0.2281343,-0.395383 0.076044,-1.016698 v -0.112964 q 0,0.338897 -0.1520904,0.621316 -0.076044,0.282413 -0.2281344,0.564829 -0.1520904,0.395383 -0.3802248,0.621316 z m 0.9885838,-2.259327 q 0,-0.16945 0.076044,-0.225936 0,-0.05648 -0.076044,-0.05648 0,0 0,-0.05648 v 0.16945 z m 0.076044,-1.694498 q 0,0 0.1520905,-0.225935 v -0.16945 q -0.1520905,0.112966 -0.1520905,0.225936 z M -35.450626,83.330246 q 0,0.112964 -0.07604,0.112964 v -0.16945 h 0.07604 v 0.112967 z"
         style="font-style:normal;font-variant:normal;font-weight:normal;font-stretch:normal;font-size:247.7036438px;line-height:1.25;font-family:Takota;-inkscape-font-specification:'Takota, Normal';font-variant-ligatures:normal;font-variant-caps:normal;font-variant-numeric:normal;font-feature-settings:normal;text-align:start;letter-spacing:0px;word-spacing:0px;writing-mode:lr-tb;text-anchor:start;fill:#ffffff;fill-opacity:1;stroke:none;stroke-width:1.63841259"
         id="path4524"
         inkscape:connector-curvature="0" />
      <path
         d="m 7.0073893,81.014433 q -0.2281344,0.16945 -0.4562687,0.338897 -0.1520904,0.112969 -0.3041782,0.395385 -1.5969456,4.292724 -0.6083591,8.811384 0.2281343,0.621316 0.3041782,1.299115 0.1520904,0.621316 0.2281343,1.242632 l 0.076047,0.05648 Q 4.8781311,92.48053 4.3458159,91.520317 3.8895472,90.560099 3.5093225,89.430434 2.8249195,87.284071 3.0530538,85.137707 q 0.2281343,-2.14636 0.9885839,-4.292724 1.2927647,-3.840861 3.6501545,-7.116889 2.4334388,-3.332515 6.6159058,-5.874258 2.205305,-1.412081 4.790832,-2.089883 2.661571,-0.677796 5.627322,-0.169447 1.140675,0.169447 2.205302,0.677799 1.064628,0.451866 2.053212,0.903732 0.532315,0.16945 0.836493,0.508349 0.380225,0.282416 0,0.790766 -0.380222,0.451866 -0.836493,0.790765 -0.380222,0.282416 -1.140674,0.22593 -0.152091,-0.05648 -0.304179,-0.05648 -0.07605,0 -0.228137,-0.05648 -1.520896,-0.621316 -2.737614,-0.112967 -1.140674,0.451866 -2.129258,1.186148 -3.878289,2.711196 -6.311726,6.100191 -2.357392,3.388995 -3.650157,7.17337 -0.608359,1.694498 -0.836493,3.388995 -0.152088,1.694498 0.228134,3.388995 0.15209,0.3389 0.15209,0.677799 0,0.282416 0.152091,0.621316 0.380225,0.960218 0.684403,1.468564 0.304181,0.50835 0.760449,0.621316 0.456269,0.05648 1.064631,-0.225933 0.684403,-0.338899 1.749031,-1.016698 2.433436,-1.581529 3.726201,-3.614926 1.368808,-2.089883 2.433436,-4.236246 1.292765,-2.598229 1.292765,-5.139976 0.07604,-2.598229 -1.368809,-5.196456 -0.684405,-1.016698 0.760447,-1.016698 1.82508,0.112966 3.193886,0.677796 1.368809,0.564835 1.901126,2.033397 0.836494,1.807464 1.064628,3.61493 0.228135,1.750979 -0.456271,3.501959 -0.836496,2.824165 -2.357393,5.365909 -1.520896,2.485263 -4.182469,4.51866 -1.596943,1.186148 -3.422018,1.920433 -1.82508,0.73428 -4.030382,0.903729 -1.06463,0.112967 -2.205302,0 Q 11.646128,95.813042 10.5815,95.417659 9.5168695,94.965793 8.6043322,94.231511 7.7678388,93.497228 7.3115701,92.424047 5.4104489,88.074836 6.3229863,83.669143 q 0.1520904,-0.677796 0.3041782,-1.355598 0.1520904,-0.734282 0.3041809,-1.355598 0.076044,-0.338899 0.076044,-0.677799 0,-0.338897 0.076047,-0.734282 Q 7.7678394,79.432902 7.615749,79.094 7.539705,78.7551 7.3876146,78.416201 q 0.076044,-0.05648 0.2281344,-0.338897 0.076044,0.112966 0.3041808,0.282416 -0.3802247,0 -0.5323152,0.05648 -0.076044,0.282419 -0.1520904,0.621316 0,0.338899 -0.076044,0.621315 -0.076044,0.3389 -0.1520904,0.677799 0,0.338902 0,0.677802 z"
         style="font-style:normal;font-variant:normal;font-weight:normal;font-stretch:normal;font-size:247.7036438px;line-height:1.25;font-family:Takota;-inkscape-font-specification:'Takota, Normal';font-variant-ligatures:normal;font-variant-caps:normal;font-variant-numeric:normal;font-feature-settings:normal;text-align:start;letter-spacing:0px;word-spacing:0px;writing-mode:lr-tb;text-anchor:start;fill:#ffffff;fill-opacity:1;stroke:none;stroke-width:1.63841259"
         id="path4526"
         inkscape:connector-curvature="0" />
      <path
         d="m 32.800867,86.097925 q 0.988584,-4.688112 1.749033,-9.319738 0.836496,-4.68811 2.357393,-9.263251 0.15209,-0.451866 0.30418,-0.790765 0.228135,-0.395383 0.380223,-0.847249 0.684405,-1.3556 1.520899,-1.581531 0.836496,-0.282416 2.585526,0.508349 0.380225,0.112967 0.684403,0.734283 0.07605,0.05648 -0.07604,0.169449 -0.07604,0.05648 0,0.112967 0.760449,0.621316 0.836493,1.242631 0.15209,0.621316 -0.07604,1.242632 -0.15209,0.621316 -0.532315,1.242631 -0.304178,0.621316 -0.380225,1.242632 -0.304178,1.299112 -0.836493,2.654713 -0.456269,1.299112 -0.912538,2.65471 -0.15209,0.282418 -0.228134,0.677799 -0.07605,0.338902 -0.228134,0.677801 -0.988587,1.976914 -1.368812,4.066792 -0.304178,2.089882 -0.684403,4.17976 -0.07605,0.338899 0.07604,0.903732 0.152091,-0.169447 0.304181,-0.282416 0.228135,-0.112967 0.380222,-0.3389 1.977171,-2.372294 3.878292,-4.744593 1.97717,-2.428777 3.726201,-4.91404 1.292762,-1.920433 2.813658,-3.558444 1.596946,-1.638015 3.574114,-2.993615 1.749033,-1.186146 3.650154,-2.146364 1.901122,-1.016696 3.650155,-2.089877 0.684406,-0.451866 1.368809,-0.395386 0.760449,0.05649 1.520896,0.169453 0.836496,0.112966 1.292767,0.395382 0.532313,0.225933 0.380223,0.960216 0,0.112966 0.30418,0.282416 0.304179,0.112966 0.456269,0.282416 0.15209,0.16945 0.304178,0.39538 0.152091,0.225936 0.07605,0.451866 -0.532315,1.355601 -0.988584,2.767682 -0.456269,1.355598 -1.064628,2.65471 -1.140674,2.541749 -1.977168,4.857562 -0.836496,2.259328 -1.444852,4.51866 -0.532315,2.259327 -0.836493,4.575141 -0.304181,2.315813 -0.456274,4.970526 -0.07604,0.677799 -0.07604,1.355598 0.07604,0.677801 0.152091,1.299117 0.304178,0.677796 -0.07605,0.960213 -0.304179,0.225933 -1.140672,0.225933 h -0.228134 q -2.889705,0.225933 -4.03038,-0.451866 -1.06463,-0.677799 -0.91254,-2.937129 0,-0.621316 0,-0.90373 0.07605,-0.338902 0.152091,-0.564835 0.07604,-0.282416 0.228134,-0.564832 0.228134,-0.282417 0.532315,-0.903732 l 0.07604,0.05648 q 0.380228,-1.581528 0.760452,-3.050096 0.380222,-1.525047 0.608357,-3.050095 0.532315,-2.654713 0.760449,-5.25294 0.304181,-2.598229 1.216719,-5.196458 0.07604,-0.282417 0,-0.50835 -0.07604,-0.225935 -0.07604,-0.508352 h 0.152087 l -0.07604,0.05649 q -0.912538,0.621316 -1.825078,1.186146 -0.836493,0.564835 -1.672989,1.242631 -8.89725,7.28634 -13.992262,16.380143 -0.228134,0.451866 -0.608359,1.186148 -0.380225,0.734285 -0.760447,1.525048 -0.304181,0.790765 -0.608359,1.581531 -0.304181,0.734282 -0.456272,1.186148 -0.152087,0.282416 -0.304178,0.677799 -0.07604,0.338899 0.152091,0.508349 0.532312,0.508349 0.532312,0.790766 0,0.282416 -0.304178,0.451866 -0.304181,0.169449 -0.76045,0.225933 -0.380224,0.112966 -0.684403,0.282416 -0.304183,0.112966 -0.608361,0.16945 -0.228135,0.05648 -0.532315,0.169453 -2.661569,0.56483 -3.726196,-0.05649 -1.140677,-0.621316 -0.988587,-2.598229 0.07604,-0.847249 0.380225,-1.976914 0.228134,-1.129665 0.532313,-2.315813 0.228134,-1.242632 0.532317,-2.372297 0.304179,-1.129665 0.532313,-1.92043 0.15209,-0.677797 0.380225,-1.355598 0.304181,-0.677799 0.684403,-1.355596 l -0.152088,-0.05649 h 0.07604 z"
         style="font-style:normal;font-variant:normal;font-weight:normal;font-stretch:normal;font-size:247.7036438px;line-height:1.25;font-family:Takota;-inkscape-font-specification:'Takota, Normal';font-variant-ligatures:normal;font-variant-caps:normal;font-variant-numeric:normal;font-feature-settings:normal;text-align:start;letter-spacing:0px;word-spacing:0px;writing-mode:lr-tb;text-anchor:start;fill:#ffffff;fill-opacity:1;stroke:none;stroke-width:1.63841259"
         id="path4528"
         inkscape:connector-curvature="0" />
      <path
         d="m 112.68314,54.128406 q 0.15209,0.05648 0.15209,0.3389 0.0761,0.282416 0.15209,0.508349 -0.45628,0.16945 -1.14068,0.16945 -2.28134,-0.05648 -4.63874,-0.112967 -2.28134,-0.112966 -4.63873,-0.05648 -5.018971,0.225933 -9.885844,0.508349 -4.866872,0.282417 -9.885835,0.564833 -0.91254,0 -1.444853,0.05648 -0.532318,0.05648 -0.836496,0.282416 -0.304181,0.16945 -0.532315,0.564833 -0.152088,0.395382 -0.456269,1.073181 -2.585524,7.399306 -4.866873,14.685643 -2.281346,7.286339 -3.802245,14.798614 -0.456271,1.976911 -0.532315,4.01031 -0.07604,2.033395 -0.228134,4.010308 -0.152091,0.451866 0.15209,0.847249 0.228134,1.129665 0,1.412081 -0.228134,0.225933 -1.749033,0.451866 -1.520897,0.16945 -2.585527,-0.282416 -0.988584,-0.508349 -1.216718,-1.638014 -0.228135,-1.412081 -0.380225,-2.767679 -0.228134,-1.412079 -0.07604,-2.76768 0.152091,-4.801076 0.912537,-9.376219 0.836494,-4.575141 1.977171,-9.206767 0.836493,-3.388995 1.749031,-6.77799 0.988583,-3.445478 1.901121,-6.834473 0,-0.112967 0,-0.225933 0.07605,-0.16945 0.07605,-0.3389 0.152088,-0.734282 -0.07605,-0.903732 -0.152091,-0.169449 -1.216718,0.05648 -1.520897,0.112966 -2.965752,0.282416 -1.368806,0.16945 -2.813659,0.395383 -2.053214,0.338899 -4.030382,0.677799 -2.053209,0.338899 -4.182469,0.677799 -0.836494,0.169449 -1.520897,0.225933 -0.684403,0.05648 -1.292764,-0.451866 -0.684403,-0.677799 -1.292763,-1.355598 -0.608359,-0.677799 -0.532315,-1.581531 0.07604,-0.960215 1.520897,-1.129665 3.422023,-0.451866 6.767999,-0.903732 3.269927,-0.451866 6.615906,-0.903732 1.368809,-0.112967 2.737617,-0.225933 1.368806,-0.112967 2.813659,-0.225933 1.596945,0 2.053214,-1.186148 0.380225,-0.903732 0.836494,-1.863948 0.456268,-0.960215 0.912537,-1.92043 0.380225,-0.621316 0.836493,-0.847249 0.456274,-0.225933 1.292768,0.05648 1.064627,0.282419 2.129255,0.451869 1.064628,0.169447 1.977168,0.621316 1.216718,0.451866 1.368809,0.903729 0.228134,0.395383 -0.152091,1.412084 -0.228134,0.677796 -0.304178,1.073182 -0.07605,0.338897 0.07604,0.508346 0.15209,0.112969 0.684403,0.16945 0.532315,0 1.444852,0 2.737618,-0.05648 5.475232,0 2.73762,0 5.475237,0 1.216716,0 2.35739,-0.05648 1.216718,-0.05649 2.50948,-0.112969 l 0.076,0.112969 -0.076,-0.112969 q 0.30418,0 0.53232,0.16945 0.22813,1.016699 1.59694,1.016699 1.90112,0 3.65016,0.05648 1.82507,0 3.57411,0.16945 0.83649,0.112966 1.52089,0.338899 0.76045,0.225933 1.44486,0.508349 z"
         style="font-style:normal;font-variant:normal;font-weight:normal;font-stretch:normal;font-size:247.7036438px;line-height:1.25;font-family:Takota;-inkscape-font-specification:'Takota, Normal';font-variant-ligatures:normal;font-variant-caps:normal;font-variant-numeric:normal;font-feature-settings:normal;text-align:start;letter-spacing:0px;word-spacing:0px;writing-mode:lr-tb;text-anchor:start;fill:#ffffff;fill-opacity:1;stroke:none;stroke-width:1.63841259"
         id="path4530"
         inkscape:connector-curvature="0" />
      <g
         aria-label="Marcina"
         transform="matrix(0.30699953,0,0,0.22802751,-144.73731,21.643545)"
         style="font-style:normal;font-variant:normal;font-weight:normal;font-stretch:normal;font-size:159.98445129px;line-height:1.25;font-family:Takota;-inkscape-font-specification:'Takota, Normal';font-variant-ligatures:normal;font-variant-caps:normal;font-variant-numeric:normal;font-feature-settings:normal;text-align:start;letter-spacing:0px;word-spacing:0px;writing-mode:lr-tb;text-anchor:start;fill:#ffffff;fill-opacity:1;stroke:none;stroke-width:3.99948692"
         id="text4531">
        <path
           d="m 349.76919,348.67969 q 0.47995,1.75982 0.15999,4.31958 -1.27988,8.63916 -2.87972,16.95835 -1.43986,8.31919 -2.39977,16.79837 -1.75983,13.2787 -2.87972,26.23745 -1.11989,12.95874 -2.39977,26.07746 -0.63994,6.71935 -0.63994,13.27871 0,6.39938 0.79993,12.79876 0.9599,2.87972 -2.23979,3.99961 -6.07941,1.59984 -8.1592,0.47995 -1.91982,-0.95991 -2.71974,-7.03931 -0.47995,-2.23979 -0.63994,-4.47957 0,-2.23978 -0.15998,-4.47956 -0.15999,-2.71974 -0.15999,-5.43948 0.15999,-2.71973 0.15999,-5.59945 0.31997,-14.07863 1.59984,-27.8373 1.43986,-13.75866 3.83963,-27.67731 0.47995,-3.19969 1.43986,-6.39937 1.11989,-3.19969 1.91981,-6.39938 0.31997,-1.11989 0.47996,-2.0798 0.15998,-1.11989 0.47995,-2.23978 0,-0.31997 -0.31997,-0.47996 -0.15998,-0.15998 -0.15998,-0.47995 -0.47996,0 -0.79993,0.31997 -1.27987,2.0798 -2.23978,3.19969 -8.63916,12.79876 -15.51849,26.07746 -6.71935,13.27871 -12.3188,27.67731 -1.27988,2.55976 -2.87972,4.1596 -1.59985,1.59984 -3.35968,3.51966 -0.15998,0.15998 -0.47995,0.31997 -0.15998,0.15998 -0.31997,0 -2.0798,-0.63994 -4.63955,-1.75983 -0.79992,1.59984 -1.91981,2.23978 -1.11989,0.47995 -2.39977,-0.47995 -1.27987,-0.95991 -2.39976,-2.39977 -0.95991,-1.43986 -1.59985,-3.19969 -0.79992,-4.15959 -1.59984,-8.47917 -0.79993,-4.31958 -1.59985,-8.63916 -0.31997,-2.71974 -0.47995,-5.59946 -0.15999,-2.87972 -0.47995,-5.59946 0,-0.31997 -0.31997,-0.79992 -0.15999,-0.63994 -0.31997,-1.11989 -0.31997,0.31997 -0.63994,0.79992 -0.31997,0.31997 -0.63994,0.95991 -1.75983,6.39938 -3.67964,12.79876 -1.75983,6.23939 -3.19969,12.95874 -1.75983,6.71934 -3.19969,13.59867 -1.43986,6.71935 -3.0397,13.59868 -1.59985,6.07941 -6.55937,6.2394 h -0.9599 q -1.91982,-1.27988 -3.83963,-1.75983 -1.75983,-0.47996 -3.99961,0.79992 -0.79992,0.63994 -2.0798,-1.11989 -1.11989,-1.75983 -0.9599,-3.51966 0.15998,-3.35967 0.31996,-6.71935 0.15999,-3.51965 0.79993,-7.03931 3.19969,-22.87778 10.239,-43.99573 7.1993,-21.27793 17.75828,-41.75594 0.31996,-0.63994 0.47995,-1.27987 2.23978,-3.03971 3.35967,0.15998 0.79992,1.91981 1.59985,1.75983 0.9599,-0.15999 1.43986,-1.27988 1.11989,-2.23978 2.71973,-2.07979 1.59985,0.15998 2.87972,0.9599 1.75983,0.79992 3.03971,1.59985 1.43986,0.79992 1.75983,3.35967 1.59984,13.59868 2.07979,26.87739 0.47996,13.11872 0.63994,26.7174 0,1.27988 0.31997,1.75983 0.31997,0.79992 0.95991,0.95991 0,0.15998 0.15998,0 0.31997,-0.31997 0.31997,-0.63994 0.95991,-1.91981 1.75983,-3.83963 0.95991,-2.0798 1.75983,-4.15959 6.71935,-15.51849 15.03854,-29.59713 8.31919,-14.23861 18.07824,-27.83729 1.27988,-1.91981 3.51966,-2.71974 2.23978,-0.9599 4.63955,-0.79992 2.39976,0.15999 4.47956,1.27988 2.23978,1.11989 3.19969,3.19969 z m -58.71429,80.63216 q 0.15998,-0.47995 0.31997,-0.79992 0.15998,-0.31997 0.15998,-0.63994 0,-0.63994 -0.15998,-1.11989 0,-0.63994 0,-1.43986 -0.79993,-7.35929 -1.59985,-15.03854 -0.63994,-7.67925 -1.59984,-16.15843 V 375.2371 q 0,-0.47995 -0.15999,-0.79992 -0.15998,-0.47995 -0.31997,-0.79992 -0.31997,0.31997 -0.79992,0.63994 -0.31997,0.31997 -0.31997,0.79992 -0.31997,1.75983 -0.79992,3.67964 -0.31997,1.91982 -0.15998,3.99961 0.79992,9.75906 1.59984,19.67809 0.95991,9.75905 1.91981,19.67809 0.15999,1.43986 0.31997,3.0397 0.31997,1.59985 0.63994,3.03971 0,0.31997 0.31997,0.47995 0.31997,0.15999 0.63994,0.63994 z"
           style="font-style:normal;font-variant:normal;font-weight:normal;font-stretch:normal;font-size:159.98445129px;font-family:Takota;-inkscape-font-specification:'Takota, Normal';font-variant-ligatures:normal;font-variant-caps:normal;font-variant-numeric:normal;font-feature-settings:normal;text-align:start;writing-mode:lr-tb;text-anchor:start;fill:#ffffff;fill-opacity:1;stroke:none;stroke-width:3.99948692"
           id="path858"
           inkscape:connector-curvature="0" />
        <path
           d="m 392.34005,452.34961 q -0.15998,-2.39977 -0.31997,-4.63955 -0.15998,-2.39977 -0.47995,-4.79953 0,-0.79992 -0.47995,-2.0798 -0.63994,0.31997 -1.1199,0.63994 -0.47995,0.31997 -0.79992,0.9599 -3.19969,3.83963 -6.39938,7.99923 -3.19968,3.99961 -6.39937,8.1592 -3.67965,4.63955 -8.63916,6.07941 -4.79954,1.43986 -10.55898,1.11989 -4.79953,-0.31996 -7.51927,-3.0397 -2.55975,-2.71974 -3.0397,-6.23939 -1.75983,-9.59907 0,-18.71818 1.91981,-9.2791 7.35928,-17.75828 3.51966,-4.95952 8.63916,-7.35928 5.11951,-2.55975 11.03893,-3.03971 3.99961,-0.31997 7.99922,0 4.1596,0.31997 7.99923,2.0798 0.47995,0.47995 1.11989,0.63994 0.79992,0 1.27987,0.15998 2.23979,0.31997 2.55975,-1.43986 0.95991,-7.35928 1.91982,-14.55858 1.11989,-7.1993 2.23978,-14.71857 0.31997,-3.99961 -2.87972,-1.59985 -4.1596,3.35968 -8.47918,6.71935 -4.15959,3.35967 -8.1592,7.03932 -2.55975,2.23978 -4.79954,4.95951 -2.23978,2.55975 -4.47956,5.11951 -1.91981,2.23978 -5.43947,2.71973 -3.35968,0.47995 -5.59946,-1.43986 -0.31997,-0.15998 -0.47995,-0.79992 -0.15999,-0.79992 0,-1.11989 0.31997,-1.11989 0.9599,-1.75983 0.63994,-0.79992 1.27988,-1.43986 2.0798,-2.55975 4.1596,-4.79953 2.23978,-2.23979 4.15959,-4.79954 2.71974,-2.87972 5.1195,-5.91942 2.39977,-3.03971 5.11951,-5.75944 6.39937,-6.71935 15.51849,-9.2791 2.55975,-0.79992 4.79953,0 2.23978,0.79992 4.47957,2.87972 1.75983,1.59984 3.51965,3.0397 1.91982,1.27988 4.31958,1.59985 2.71974,0.47995 3.35968,1.59984 0.63994,0.95991 -0.15999,3.83963 -1.11989,6.07941 -2.71973,12.15882 -1.43986,5.91942 -2.39977,11.99883 -1.27987,9.75905 -2.55975,19.35812 -1.11989,9.59907 -2.23978,19.67809 -0.31997,2.23978 -0.47996,4.31958 0,2.0798 0.79993,4.31958 0.63993,3.19969 -0.63994,5.59945 -1.11989,2.39977 -1.43986,5.11951 0,0.79992 -0.95991,0.9599 -3.0397,1.75983 -6.07941,0.15999 -3.0397,-1.59985 -3.67964,-5.27949 -0.15998,-2.23978 -0.31997,-4.31958 0,-2.0798 -0.31997,-4.31958 z m 3.99961,-79.83224 q -0.47995,0.47995 -0.63993,0.79992 v -0.15998 q 0.15998,-0.15999 0.15998,-0.31997 0.15998,-0.15999 0.31997,-0.31997 0.31997,0.15998 0.63994,0.31997 0.31997,0 0.63993,0.15998 -0.47995,-0.47995 -0.31996,-0.47995 z m -30.55703,77.59246 q 0.47996,-0.31997 0.79993,-0.47996 0.31996,-0.15998 0.63993,-0.47995 5.43947,-5.59945 10.71896,-11.35889 5.27949,-5.91943 10.71896,-11.51889 0.79992,-1.11989 0.95991,-1.91981 0.15998,-1.11989 -0.63994,-2.39977 -0.79992,-1.27987 -2.23978,-2.23978 -1.27988,-0.9599 -2.87972,-1.27987 -1.43986,-0.31997 -2.39977,0.31997 -1.91981,0.9599 -3.83963,2.23978 -1.75983,1.11989 -3.19969,2.87972 -4.15959,5.43947 -6.07941,11.83885 -1.75982,6.39938 -3.0397,13.11872 0,0.31997 0.15998,0.63994 0.15999,0.31997 0.31997,0.63994 z m -3.51966,-1.59985 q -0.31996,-0.9599 -0.47995,-1.43986 -0.15998,0.31997 -0.47995,1.59985 0,0.31997 0.15998,0.63994 0.15999,0.15998 0.15999,0.63993 0.15998,-0.47995 0.31997,-0.79992 0.15998,-0.31997 0.31996,-0.63994 z m -0.63993,4.1596 h 0.15998 l -0.15998,-0.31997 z"
           style="font-style:normal;font-variant:normal;font-weight:normal;font-stretch:normal;font-size:159.98445129px;font-family:Takota;-inkscape-font-specification:'Takota, Normal';font-variant-ligatures:normal;font-variant-caps:normal;font-variant-numeric:normal;font-feature-settings:normal;text-align:start;writing-mode:lr-tb;text-anchor:start;fill:#ffffff;fill-opacity:1;stroke:none;stroke-width:3.99948692"
           id="path860"
           inkscape:connector-curvature="0" />
        <path
           d="m 503.53174,363.39826 q 4.31958,1.27987 5.43948,4.95951 1.27987,3.67965 -1.59985,7.99923 -1.75983,2.87972 -4.15959,5.59945 -2.23979,2.71974 -4.79954,4.95952 -8.15921,7.83924 -17.4383,14.23862 -9.11912,6.23939 -19.03815,11.99883 -2.39977,1.59984 -5.11951,2.87972 -2.71973,1.11989 -5.27948,2.39977 -2.23979,1.27987 -2.55975,2.39976 -0.15999,0.95991 1.59984,2.55975 6.23939,5.27949 12.3188,10.71896 6.2394,5.27949 12.63877,10.87895 1.43987,1.11989 3.03971,2.23978 1.59984,0.9599 2.87972,2.23978 0.47995,0.31997 0.63994,0.79992 0.15998,0.47996 0.47995,1.11989 -0.95991,0.47996 -1.59984,1.27988 -0.47996,0.79992 -1.11989,1.75983 -0.63994,0.79992 -1.43986,1.43986 -0.63994,0.63994 -1.91982,0.79992 -1.43986,0 -2.23978,0.79992 -1.59985,1.75983 -3.19969,1.59985 -1.43986,-0.31997 -3.0397,-1.59985 -5.59946,-4.31958 -11.03893,-8.63916 -5.27949,-4.31958 -10.87894,-8.95913 -2.0798,-1.75983 -3.99962,-3.35967 -1.91981,-1.75983 -3.83962,-3.35967 -1.43986,-1.43986 -2.0798,-1.27988 -0.47995,0.15998 -0.79992,2.0798 -1.43986,4.63955 -2.55975,9.43908 -1.11989,4.79953 -2.0798,9.59907 -0.79992,3.19969 -1.43986,6.39938 -0.47995,3.19969 -1.11989,6.39937 -0.15999,0.79993 -0.15999,1.59985 0,0.95991 -0.31997,1.75983 -1.27987,1.59984 -3.0397,2.0798 -0.15999,0 -0.79992,-0.79993 -0.63994,-0.63993 -0.95991,-1.27987 -0.63994,-0.79992 -0.63994,-1.75983 -0.31997,0.79992 -0.9599,1.11989 -0.79993,2.39977 -1.75983,3.0397 -0.95991,0.63994 -3.19969,0.15999 -3.67964,-0.63994 -3.83963,-4.79953 0,-0.47996 0,-0.79993 0.15999,-0.31997 0,0 0.95991,-13.59868 3.19969,-26.23745 2.23978,-12.63877 4.79953,-25.11756 0.31997,-0.9599 0.31997,-2.07979 0.15999,-1.11989 0.47996,-2.0798 0.79992,-2.23978 0.47995,-3.83963 -0.31997,-1.75983 -2.71974,-3.51966 -3.67964,-2.55975 -4.31958,-5.75944 -0.47995,-3.35967 2.0798,-6.87933 2.23978,-3.19969 4.79953,-5.91942 2.71974,-2.87972 5.43948,-5.59946 1.27987,-1.27987 2.23978,-2.55975 1.11989,-1.43986 1.59984,-3.19969 0.79993,-3.35967 1.59985,-6.39938 0.9599,-3.19969 2.23978,-6.23939 0.79992,-2.39977 1.59984,-2.87972 0.95991,-0.47995 2.87972,-0.15999 1.75983,0.31997 2.23979,1.43987 0.47995,0.9599 0.31997,3.19968 -0.31997,0.95991 -0.63994,1.91982 -0.31997,0.9599 -0.31997,2.23978 0,0.47995 0.15998,1.11989 0.15999,0.63994 0.31997,1.11989 0.47996,-0.31997 1.27988,-0.47995 0.79992,-0.31997 1.11989,-0.79992 0.47995,-1.11989 0.79992,-2.0798 0.31997,-1.11989 0.79992,-2.23978 0.31997,-0.95991 0.63994,-1.91982 0.47995,-0.9599 1.27988,-1.59984 1.43986,-1.11989 2.87972,-0.79992 1.43986,0.15998 2.39976,2.07979 0.79993,1.59985 1.43986,1.59985 0.79993,0 1.91982,-0.47995 6.07941,-2.71974 12.15882,-4.63955 6.23939,-2.0798 12.63877,-3.35968 2.55975,-0.31997 4.95952,-0.47995 2.55975,-0.15999 5.1195,0.15998 3.51966,0.31997 6.23939,2.0798 2.71974,1.75983 3.83963,5.43947 0.63994,1.91982 2.71973,2.23979 z m -81.2721,100.15026 q 0,-0.31997 0.31997,-0.63994 -0.31997,-0.47995 -0.31997,-0.47995 v 0.15999 z m 1.27988,-8.79914 q 0.31997,-0.79993 0.31997,-1.59985 0.15998,-0.79992 0.31997,-1.59984 v -0.15999 q -0.79993,1.91982 -0.79993,3.19969 z m 0.79992,-4.1596 q 0,-0.15998 0,-0.15998 0.15998,-0.15999 0.15998,-0.31997 0,0 -0.15998,-0.31997 z m 0.79992,-4.47956 q 0.31997,-0.79993 0.31997,-1.59985 0,-0.79992 0.31997,-1.59984 0,-0.15999 0.15999,-0.15999 0.15998,0 0.31996,-0.31997 -1.27987,0.31997 -1.11989,1.27988 0.15999,0.95991 -0.63994,1.75983 0,0.31997 0.63994,0.63994 z m 1.27988,-3.99961 q 0.31997,-2.23979 0.95991,-4.47957 -1.75983,0.79992 -1.75983,2.0798 0,1.11989 0.79992,2.39977 z m 0.95991,-4.47957 q 0,-0.31997 0,-0.79992 0.15998,-0.47995 0,-0.95991 0,-0.47995 -0.15999,-1.11989 -0.15998,-0.63994 -0.31997,-1.11989 0.15999,1.11989 0.15999,2.23978 0.15998,0.95991 0.31997,1.75983 z m 1.11989,-9.43908 -0.31997,0.63994 q -0.15999,0.15998 -0.15999,0 -0.15998,0.31996 -0.15998,1.11989 h 0.63994 z m 4.47956,-17.75828 q 1.27988,-5.43947 2.55975,-10.71895 1.43986,-5.43948 2.71974,-11.03893 0,-0.31997 -0.47996,-1.27988 -0.31996,0.31997 -0.63993,0.63994 -0.31997,0.15999 -0.63994,0.47995 -0.15999,0.47996 -0.15999,0.95991 0,0.47995 -0.15998,0.79992 -1.27988,4.95952 -2.39977,10.07902 -1.11989,4.95952 -1.91981,9.91904 -0.15998,0.31997 0,0.63994 0.15998,0.31997 0.15998,0.63994 0.31997,-0.31997 0.47996,-0.63994 0.31997,-0.31997 0.47995,-0.47996 z m 67.19347,-40.95602 q -0.31997,-0.79992 -0.95991,-1.75982 -0.63993,0.9599 -0.79992,1.75982 z m -3.83963,2.0798 q -1.11989,1.27988 -0.47995,1.43986 0.63994,0.15999 1.43986,0.31997 0.15998,-0.95991 0.31997,-1.75983 0.15998,-0.79992 0.47995,-1.75983 -0.47995,0.47996 -0.9599,0.95991 -0.31997,0.47995 -0.79993,0.79992 z m -48.15532,36.63644 q 0.15999,0.15999 0.15999,0.15999 0.15998,0 0.31997,0.15998 v -0.15998 q -0.31997,0 -0.47996,-0.15999 z m 0.31997,-1.91981 v 0.47995 z m -2.39976,-4.31958 q 9.11911,-6.71935 18.07824,-13.59868 9.11911,-7.03932 18.23823,-14.07863 1.75983,-1.43986 3.35967,-3.03971 1.59984,-1.75983 3.35967,-3.51965 0.63994,-0.79993 0.79993,-1.75983 -0.31997,0 -0.79993,0 -0.47995,-0.15999 -0.9599,0 -4.1596,1.11989 -8.15921,2.39976 -3.83963,1.11989 -7.99922,2.39977 0.63993,-0.63994 1.11989,-1.27988 0.63994,-0.79992 1.27987,-1.11989 3.67965,-1.27987 7.03932,-2.39976 3.51966,-1.11989 7.03932,-2.23979 2.07979,-0.47995 3.51965,-2.39976 0.95991,-1.11989 0.79993,-1.43986 -0.15999,-0.47996 -1.1199,-0.63994 -1.75982,-0.31997 -3.51965,-0.47995 -1.75983,-0.15999 -3.51966,0.15998 -6.87933,0.79992 -13.27871,3.19969 -6.23939,2.39977 -12.63877,4.79953 -0.79992,0.15999 -2.0798,0.79993 -1.27988,0.47995 -1.11989,2.23978 -0.15999,0 -0.47995,0 -0.15999,-0.15999 -0.47996,0 -0.47995,0 -0.79992,0.15998 0.31997,-0.15998 0.79992,-0.15998 h 0.95991 q 0.31997,-0.31997 0.63994,-0.63994 0.47995,-0.47995 0.79992,-0.63994 5.59945,-1.59984 11.19891,-3.0397 5.75944,-1.59985 11.3589,-3.35968 0.31997,0 1.27987,0.31997 -0.31997,0.95991 -0.63994,1.11989 -1.11989,0.63994 -3.0397,1.1199 h -1.11989 q -1.27988,0.31996 -2.71974,0.63993 -1.27987,0.31997 -2.55975,0.79993 -1.27987,0.63993 -2.39977,1.59984 -0.9599,0.95991 -2.23978,1.75983 -3.19969,1.75983 -6.39938,3.35967 -3.0397,1.59985 -6.23939,3.03971 -1.75983,0.79992 -2.71974,1.91981 -0.9599,1.11989 -1.43986,2.71974 -1.27987,5.1195 -2.71973,10.07902 -1.27988,4.95951 -2.55975,9.91903 0,0.63994 0,1.43986 0,0.63994 -0.15999,1.27988 0.47996,-0.31997 1.11989,-0.47996 0.63994,-0.15998 1.1199,-0.9599 z m 26.55741,-0.31997 h 0.15999 z m 4.1596,-2.55975 h 0.15999 l -0.47996,-0.95991 0.47996,0.95991 z m 27.99728,-26.87739 q 0.79992,-1.27988 0.79992,-2.71974 0.15999,-1.59984 -1.27987,-2.87972 -1.43986,-1.27987 -2.71974,-0.63993 -1.11989,0.63993 -2.39977,1.43986 1.75983,0.47995 1.11989,2.07979 v 0.15999 l -0.15998,0.15998 v -0.15998 q -0.31997,0.79992 -0.79992,1.43986 -0.31997,0.63994 -0.79992,1.43986 l 0.15998,0.15998 q -0.31997,0.31997 -1.27988,0.63994 1.27988,1.11989 0.63994,2.23978 -0.47995,0.95991 -1.27987,1.75983 -3.19969,3.19969 -6.39938,6.55936 -3.19969,3.19969 -6.39938,6.39938 l -4.79953,5.27949 q 1.59984,-0.47995 2.23978,-1.11989 3.67964,-2.71974 7.03932,-5.59946 3.35967,-2.87972 6.71934,-5.59945 3.03971,-2.39977 5.43947,-5.11951 2.39977,-2.71973 4.1596,-5.91942 z m -17.11834,-10.71896 q -0.63993,0.15999 -2.23978,0.79992 -0.47995,0 -0.79992,-0.15998 0.95991,-0.63994 1.59984,-0.79992 0.31997,0 0.63994,0.15998 0.47995,0 0.79992,0 z m -19.99805,10.23901 0.15998,0.15998 -0.15998,0.15999 z m 2.71973,-0.63994 q 0.31997,0 0.63994,0 0.31997,-0.15999 0.63994,-0.15999 0.15998,0 0.15998,0 0,-0.15998 0.15999,-0.15998 -0.15999,0.15998 -0.15999,0.31997 z m 28.31725,1.59984 -0.15998,-0.15998 h 0.47995 z"
           style="font-style:normal;font-variant:normal;font-weight:normal;font-stretch:normal;font-size:159.98445129px;font-family:Takota;-inkscape-font-specification:'Takota, Normal';font-variant-ligatures:normal;font-variant-caps:normal;font-variant-numeric:normal;font-feature-settings:normal;text-align:start;writing-mode:lr-tb;text-anchor:start;fill:#ffffff;fill-opacity:1;stroke:none;stroke-width:3.99948692"
           id="path862"
           inkscape:connector-curvature="0" />
        <path
           d="m 528.38934,386.91597 q -11.99884,15.35851 -16.31842,34.23667 -1.27987,6.71935 -2.39976,13.75866 -1.1199,6.87934 0.15998,13.75867 0.47995,2.71973 1.43986,5.59945 1.11989,2.71974 2.39977,5.43947 0.79992,2.0798 2.39976,2.39977 1.59985,0.31997 3.19969,-0.95991 3.19969,-2.39976 6.07941,-4.79953 3.03971,-2.55975 5.75944,-5.27949 3.19969,-3.35967 3.67964,-3.67964 0.63994,-0.47995 0.63994,-0.31997 0.15999,0.15999 0.63994,-0.15998 0.63994,-0.47995 3.83963,-3.83963 1.27987,-1.27987 2.71973,-2.0798 1.59985,-0.9599 3.03971,-1.75982 0.79992,-0.15999 1.91981,0 1.11989,0.15998 1.91981,0.47995 3.51966,1.11989 1.1199,4.47956 l -9.43909,11.99884 -0.47995,0.63993 q 0.15998,-0.31996 -0.31997,0.15999 -0.47995,0.47995 -1.91981,2.23978 -6.55937,7.67926 -14.23862,8.79915 -7.67925,1.27987 -16.95835,-1.43986 -7.03932,-2.23979 -10.23901,-6.71935 -3.0397,-4.63955 -4.79953,-10.71896 -1.75983,-7.1993 -2.39977,-14.3986 -0.47995,-7.35928 1.27988,-14.71857 1.75983,-6.87933 3.83963,-13.59868 2.07979,-6.87933 4.31958,-13.59868 1.75983,-5.27948 4.95951,-9.75905 3.35968,-4.47956 7.67926,-8.1592 1.75983,-1.27988 3.67964,-2.23979 2.0798,-0.9599 3.83963,-2.07979 1.59984,-0.79993 3.0397,-1.75983 1.43986,-0.95991 3.03971,-1.91982 4.15959,-2.87972 8.95913,-1.91981 4.95951,0.79992 8.1592,5.27949 0.31997,0.47995 0.63994,0.9599 0.31997,0.31997 0.79992,0.63994 3.67965,2.0798 4.1596,5.1195 0.63994,2.87972 -0.15999,6.07941 -1.27987,4.1596 -2.87972,8.31919 -1.43986,3.99962 -2.87972,8.15921 -0.9599,2.87972 -2.39976,3.67964 -1.27988,0.63994 -3.83963,-0.15998 l -1.59984,-0.47995 q -2.0798,-0.79993 -3.19969,-1.27988 -0.95991,-0.47995 -1.27988,-1.11989 -0.31997,-0.79992 0,-1.91981 0.31997,-1.1199 1.11989,-3.19969 1.11989,-3.03971 1.75983,-6.07941 0.79992,-3.03971 1.59985,-6.2394 -2.39977,-0.31997 -3.67965,1.27988 -1.11989,1.43986 -2.39976,2.87972 z"
           style="font-style:normal;font-variant:normal;font-weight:normal;font-stretch:normal;font-size:159.98445129px;font-family:Takota;-inkscape-font-specification:'Takota, Normal';font-variant-ligatures:normal;font-variant-caps:normal;font-variant-numeric:normal;font-feature-settings:normal;text-align:start;writing-mode:lr-tb;text-anchor:start;fill:#ffffff;fill-opacity:1;stroke:none;stroke-width:3.99948692"
           id="path864"
           inkscape:connector-curvature="0" />
        <path
           d="m 577.73454,381.95645 q 4.47957,0.31997 5.1195,0.95991 0.63994,0.63994 -0.15998,3.35967 -4.47957,14.87856 -7.51927,29.75711 -3.0397,14.71857 -5.43947,29.59712 -0.15999,1.27988 -0.47995,2.39977 -0.15999,1.11989 -1.59985,2.39977 -0.79992,0.47995 -0.95991,1.27987 -0.15998,0.79992 -0.31996,1.59985 -0.15999,3.0397 -0.15999,5.91942 0,2.71974 -0.15998,5.75944 0,0.79992 0.31997,1.59985 0.47995,0.9599 -1.59985,1.27987 -0.79992,0.31997 -2.0798,0.15999 -1.11989,0 -2.23978,-0.15999 -1.11989,-0.15998 -2.0798,-0.63994 -0.79992,-0.31996 -0.9599,-0.79992 -0.79993,-1.75983 -1.1199,-3.35967 -0.31996,-1.59985 -0.9599,-3.35968 0.31997,-11.99883 1.59984,-23.83768 1.43986,-11.99883 3.03971,-23.99767 0.9599,-6.71934 2.23978,-13.27871 1.43986,-6.55936 3.67964,-13.11872 0.47996,-1.11989 0.79992,-1.75983 0.47996,-0.63994 0.95991,-0.95991 0.63994,-0.47995 1.59985,-0.47995 1.11989,-0.15998 3.0397,-0.31997 2.71974,-0.31997 5.43947,0 z m -22.55781,37.75633 q -0.15998,0.47996 -0.63993,0.79992 -0.31997,0.31997 -0.63994,0.63994 -0.31997,-0.47995 -0.47996,-0.79992 -0.15998,-0.31997 -0.47995,-1.11989 1.11989,-4.31958 2.23978,-8.95913 1.11989,-4.63955 2.39977,-9.2791 1.43986,-4.31958 3.35967,-8.63916 0,-0.31997 0.47996,-0.63994 0.63993,-0.47995 0.9599,-0.79992 0,0.31997 0.15999,0.79992 0.15998,0.47996 -0.15999,0.79993 -1.43986,5.59945 -2.87972,11.19891 -1.27987,5.59945 -2.71973,11.19891 -0.31997,1.27987 -0.79992,2.55975 -0.47996,1.11989 -0.79993,2.23978 z"
           style="font-style:normal;font-variant:normal;font-weight:normal;font-stretch:normal;font-size:159.98445129px;font-family:Takota;-inkscape-font-specification:'Takota, Normal';font-variant-ligatures:normal;font-variant-caps:normal;font-variant-numeric:normal;font-feature-settings:normal;text-align:start;writing-mode:lr-tb;text-anchor:start;fill:#ffffff;fill-opacity:1;stroke:none;stroke-width:3.99948692"
           id="path866"
           inkscape:connector-curvature="0" />
        <path
           d="m 582.71904,431.39165 q 2.0798,-13.27871 3.67965,-26.39744 1.75983,-13.27871 4.95951,-26.23745 0.31997,-1.27987 0.63994,-2.23978 0.47996,-1.11989 0.79992,-2.39977 1.43987,-3.83962 3.19969,-4.47956 1.75983,-0.79992 5.43948,1.43986 0.79992,0.31997 1.43986,2.0798 0.15998,0.15998 -0.15999,0.47995 -0.15998,0.15998 0,0.31997 1.59985,1.75983 1.75983,3.51966 0.31997,1.75983 -0.15998,3.51965 -0.31997,1.75983 -1.1199,3.51966 -0.63993,1.75983 -0.79992,3.51966 -0.63994,3.67964 -1.75983,7.51927 -0.9599,3.67964 -1.91981,7.51927 -0.31997,0.79992 -0.47995,1.91981 -0.15999,0.95991 -0.47996,1.91982 -2.07979,5.59945 -2.87972,11.51888 -0.63993,5.91942 -1.43986,11.83885 -0.15998,0.9599 0.15999,2.55975 0.31997,-0.47996 0.63994,-0.79993 0.47995,-0.31996 0.79992,-0.9599 4.15959,-6.71935 8.1592,-13.4387 4.1596,-6.87933 7.83924,-13.91864 2.71974,-5.43947 5.91943,-10.07902 3.35967,-4.63955 7.51927,-8.47918 3.67964,-3.35967 7.67925,-6.07941 3.99961,-2.87972 7.67925,-5.91942 1.43986,-1.27988 2.87972,-1.11989 1.59985,0.15998 3.19969,0.47995 1.75983,0.31997 2.71974,1.11989 1.11989,0.63994 0.79992,2.71974 0,0.31996 0.63994,0.79992 0.63994,0.31997 0.95991,0.79992 0.31996,0.47995 0.63993,1.11989 0.31997,0.63994 0.15999,1.27988 -1.11989,3.83962 -2.0798,7.83924 -0.95991,3.83962 -2.23978,7.51926 -2.39977,7.1993 -4.1596,13.75867 -1.75983,6.39938 -3.0397,12.79875 -1.11989,6.39938 -1.75983,12.95874 -0.63994,6.55937 -0.95991,14.07864 -0.15998,1.91981 -0.15998,3.83962 0.15998,1.91982 0.31997,3.67964 0.63993,1.91982 -0.15999,2.71974 -0.63994,0.63994 -2.39977,0.63994 h -0.47995 q -6.07941,0.63994 -8.47917,-1.27988 -2.23979,-1.91981 -1.91982,-8.31919 0,-1.75983 0,-2.55975 0.15999,-0.95991 0.31997,-1.59984 0.15999,-0.79993 0.47995,-1.59985 0.47996,-0.79992 1.1199,-2.55975 l 0.15998,0.15998 q 0.79992,-4.47956 1.59984,-8.63916 0.79993,-4.31958 1.27988,-8.63916 1.11989,-7.51927 1.59984,-14.87855 0.63994,-7.35929 2.55976,-14.71857 0.15998,-0.79992 0,-1.43986 -0.15999,-0.63994 -0.15999,-1.43986 h 0.31997 l -0.15998,0.15998 q -1.91982,1.75983 -3.83963,3.35968 -1.75983,1.59984 -3.51966,3.51966 -18.71818,20.63799 -29.43714,46.39549 -0.47995,1.27987 -1.27987,3.35967 -0.79993,2.0798 -1.59985,4.31958 -0.63994,2.23978 -1.27987,4.47956 -0.63994,2.0798 -0.95991,3.35968 -0.31997,0.79992 -0.63994,1.91981 -0.15998,0.95991 0.31997,1.43986 1.11989,1.43986 1.11989,2.23978 0,0.79993 -0.63994,1.27988 -0.63993,0.47995 -1.59984,0.63994 -0.79992,0.31997 -1.43986,0.79992 -0.63994,0.31997 -1.27988,0.47995 -0.47995,0.15999 -1.11989,0.47996 -5.59945,1.59984 -7.83924,-0.15999 -2.39976,-1.75983 -2.07979,-7.35928 0.15998,-2.39977 0.79992,-5.59946 0.47995,-3.19969 1.11989,-6.55936 0.47995,-3.51966 1.11989,-6.71935 0.63994,-3.19969 1.11989,-5.43947 0.31997,-1.91981 0.79992,-3.83963 0.63994,-1.91981 1.43986,-3.83962 l -0.31996,-0.15999 h 0.15998 z"
           style="font-style:normal;font-variant:normal;font-weight:normal;font-stretch:normal;font-size:159.98445129px;font-family:Takota;-inkscape-font-specification:'Takota, Normal';font-variant-ligatures:normal;font-variant-caps:normal;font-variant-numeric:normal;font-feature-settings:normal;text-align:start;writing-mode:lr-tb;text-anchor:start;fill:#ffffff;fill-opacity:1;stroke:none;stroke-width:3.99948692"
           id="path868"
           inkscape:connector-curvature="0" />
        <path
           d="m 691.99842,452.34961 q -0.15998,-2.39977 -0.31997,-4.63955 -0.15998,-2.39977 -0.47995,-4.79953 0,-0.79992 -0.47995,-2.0798 -0.63994,0.31997 -1.11989,0.63994 -0.47996,0.31997 -0.79993,0.9599 -3.19969,3.83963 -6.39937,7.99923 -3.19969,3.99961 -6.39938,8.1592 -3.67964,4.63955 -8.63916,6.07941 -4.79954,1.43986 -10.55898,1.11989 -4.79953,-0.31996 -7.51927,-3.0397 -2.55975,-2.71974 -3.0397,-6.23939 -1.75983,-9.59907 0,-18.71818 1.91981,-9.2791 7.35928,-17.75828 3.51966,-4.95952 8.63916,-7.35928 5.11951,-2.55975 11.03893,-3.03971 3.99961,-0.31997 7.99922,0 4.1596,0.31997 7.99923,2.0798 0.47995,0.47995 1.11989,0.63994 0.79992,0 1.27987,0.15998 2.23979,0.31997 2.55976,-1.43986 0.9599,-7.35928 1.91981,-14.55858 1.11989,-7.1993 2.23978,-14.71857 0.31997,-3.99961 -2.87972,-1.59985 -4.1596,3.35968 -8.47918,6.71935 -4.15959,3.35967 -8.1592,7.03932 -2.55975,2.23978 -4.79954,4.95951 -2.23978,2.55975 -4.47956,5.11951 -1.91981,2.23978 -5.43947,2.71973 -3.35968,0.47995 -5.59946,-1.43986 -0.31997,-0.15998 -0.47995,-0.79992 -0.15999,-0.79992 0,-1.11989 0.31997,-1.11989 0.95991,-1.75983 0.63993,-0.79992 1.27987,-1.43986 2.0798,-2.55975 4.1596,-4.79953 2.23978,-2.23979 4.15959,-4.79954 2.71974,-2.87972 5.11951,-5.91942 2.39976,-3.03971 5.1195,-5.75944 6.39938,-6.71935 15.51849,-9.2791 2.55975,-0.79992 4.79953,0 2.23979,0.79992 4.47957,2.87972 1.75983,1.59984 3.51966,3.0397 1.91981,1.27988 4.31958,1.59985 2.71973,0.47995 3.35967,1.59984 0.63994,0.95991 -0.15999,3.83963 -1.11989,6.07941 -2.71973,12.15882 -1.43986,5.91942 -2.39977,11.99883 -1.27987,9.75905 -2.55975,19.35812 -1.11989,9.59907 -2.23978,19.67809 -0.31997,2.23978 -0.47995,4.31958 0,2.0798 0.79992,4.31958 0.63994,3.19969 -0.63994,5.59945 -1.11989,2.39977 -1.43986,5.11951 0,0.79992 -0.95991,0.9599 -3.0397,1.75983 -6.07941,0.15999 -3.0397,-1.59985 -3.67964,-5.27949 -0.15998,-2.23978 -0.31997,-4.31958 0,-2.0798 -0.31997,-4.31958 z m 3.99961,-79.83224 q -0.47995,0.47995 -0.63993,0.79992 v -0.15998 q 0.15998,-0.15999 0.15998,-0.31997 0.15999,-0.15999 0.31997,-0.31997 0.31997,0.15998 0.63994,0.31997 0.31997,0 0.63994,0.15998 -0.47996,-0.47995 -0.31997,-0.47995 z M 665.441,450.10983 q 0.47996,-0.31997 0.79993,-0.47996 0.31996,-0.15998 0.63993,-0.47995 5.43948,-5.59945 10.71896,-11.35889 5.27949,-5.91943 10.71896,-11.51889 0.79992,-1.11989 0.95991,-1.91981 0.15998,-1.11989 -0.63994,-2.39977 -0.79992,-1.27987 -2.23978,-2.23978 -1.27988,-0.9599 -2.87972,-1.27987 -1.43986,-0.31997 -2.39977,0.31997 -1.91981,0.9599 -3.83963,2.23978 -1.75983,1.11989 -3.19969,2.87972 -4.15959,5.43947 -6.0794,11.83885 -1.75983,6.39938 -3.03971,13.11872 0,0.31997 0.15998,0.63994 0.15999,0.31997 0.31997,0.63994 z m -3.51965,-1.59985 q -0.31997,-0.9599 -0.47996,-1.43986 -0.15998,0.31997 -0.47995,1.59985 0,0.31997 0.15998,0.63994 0.15999,0.15998 0.15999,0.63993 0.15998,-0.47995 0.31997,-0.79992 0.15998,-0.31997 0.31997,-0.63994 z m -0.63994,4.1596 h 0.15998 l -0.15998,-0.31997 z"
           style="font-style:normal;font-variant:normal;font-weight:normal;font-stretch:normal;font-size:159.98445129px;font-family:Takota;-inkscape-font-specification:'Takota, Normal';font-variant-ligatures:normal;font-variant-caps:normal;font-variant-numeric:normal;font-feature-settings:normal;text-align:start;writing-mode:lr-tb;text-anchor:start;fill:#ffffff;fill-opacity:1;stroke:none;stroke-width:3.99948692"
           id="path870"
           inkscape:connector-curvature="0" />
      </g>
      <path
         style="fill:#ffffff;fill-opacity:1;stroke:#ffffff;stroke-width:1.78785002;stroke-miterlimit:4;stroke-dasharray:none;stroke-opacity:1"
         id="path4670"
         d="m -130.10839,127.46762 51.252924,-0.15191 c 2.06175,-0.006 3.728845,-1.68312 3.723413,-3.74555 l -0.0136,-4.63012 -0.0089,-2.98721 -0.01373,-4.63161 c -0.0061,-2.06175 -1.68312,-3.72885 -3.74555,-3.72341 l -51.253197,0.15191 c -2.06175,0.006 -3.72884,1.68311 -3.72341,3.74554 l 0.0363,12.24882 c 0.007,2.06269 1.68298,3.72898 3.74568,3.72354 z"
         inkscape:connector-curvature="0" />
      <path
         style="fill:#ffffff;fill-opacity:1;stroke:#ffffff;stroke-width:2.11481452;stroke-miterlimit:4;stroke-dasharray:none;stroke-opacity:1"
         id="path4674"
         d="m -98.046546,165.51129 -0.07279,-24.55751 -10.235564,0.0303 0.0728,24.55752 c 0.009,2.82636 2.30673,5.11099 5.13296,5.10261 2.82623,-0.008 5.110993,-2.30672 5.102614,-5.13295 z"
         inkscape:connector-curvature="0" />
      <path
         style="fill:#ffffff;fill-opacity:1;stroke:#ffffff;stroke-width:2.11480546;stroke-miterlimit:4;stroke-dasharray:none;stroke-opacity:0"
         id="path4676"
         d="m -101.68009,141.64231 -0.0126,-4.2403 c -0.009,-3.16213 -3.3672,-5.72532 -7.48528,-5.71311 l -24.00725,0.0718 c -2.47123,0.007 -4.4869,-1.99644 -4.49423,-4.46766 l -0.0108,-3.6338 c -0.006,-2.13411 1.4904,-3.92213 3.48971,-4.37616 l -0.009,-3.03029 c -3.65472,0.49227 -6.4794,3.63028 -6.46886,7.41598 l 0.0108,3.6338 c 0.0122,4.11808 3.37234,7.45836 7.49042,7.44615 l 24.00657,-0.0711 c 2.64033,-0.008 4.48524,1.43466 4.48909,2.73463 l 0.0126,4.24029 z"
         inkscape:connector-curvature="0" />
      <g
         aria-label="y"
         transform="matrix(0.2868486,0,0,0.2440463,-144.73731,21.643545)"
         style="font-style:normal;font-variant:normal;font-weight:normal;font-stretch:normal;font-size:291.08535767px;line-height:1.25;font-family:Takota;-inkscape-font-specification:'Takota, Normal';font-variant-ligatures:normal;font-variant-caps:normal;font-variant-numeric:normal;font-feature-settings:normal;text-align:start;letter-spacing:0px;word-spacing:0px;writing-mode:lr-tb;text-anchor:start;fill:#ffffff;fill-opacity:1;stroke:none;stroke-width:7.27713394"
         id="text4775">
        <path
           d="m 778.59273,366.28034 q 1.16434,-9.31473 1.45543,-16.00969 0.58217,-6.98605 1.74651,-13.68102 0.29108,-2.61976 2.32868,-4.36628 2.32868,-2.03759 4.94845,-2.91085 2.91086,-0.87326 5.82171,-0.58217 3.20194,0.29108 4.94845,2.0376 0.58217,2.61976 0,5.23953 0,6.40388 -0.29108,12.51667 -0.29109,6.1128 -0.87326,12.22559 -0.29109,3.49302 0.58217,7.27713 0.58217,2.91086 1.74651,4.36628 0.87326,-2.03759 1.45543,-3.78411 2.61977,-10.18798 4.65736,-20.37597 2.32869,-10.47907 4.65737,-20.66706 3.20194,-13.9721 6.69496,-27.36203 3.78411,-13.38992 8.73256,-26.48876 0.58217,-1.45543 0.87326,-3.20194 0.58217,-1.74651 1.16434,-4.0752 0.29109,-0.58217 0,-1.45542 0,-0.87326 0.29109,-1.45543 -1.16434,0.58217 -1.74652,1.16434 -0.58217,0.29109 -1.16434,0.87326 -5.23953,9.02364 -10.77015,18.04729 -5.53063,8.73256 -11.06125,17.46512 -1.45543,2.61977 -3.20194,5.53062 -1.45542,2.91086 -3.78411,4.0752 -4.07519,1.45542 -8.44147,1.74651 -4.36628,0 -8.44148,0.29108 -3.20194,0 -5.23953,-2.03759 -2.0376,-2.32869 -2.91086,-5.53062 -0.58217,-2.61977 -0.87325,-5.23954 -0.29109,-2.61977 -0.29109,-5.23954 -0.58217,-18.62946 2.61977,-36.67675 3.20194,-18.33838 7.27713,-36.67676 2.0376,-8.15039 3.78411,-16.30078 1.74651,-8.44147 4.0752,-16.88295 0.58217,-2.32868 1.45542,-4.36628 0.87326,-2.32868 4.0752,-2.61977 4.07519,-0.29108 8.15039,-0.29108 4.36628,0 7.56822,3.78411 0.87325,1.45542 0.87325,3.49302 0.29109,1.74651 0,3.20194 -2.91085,14.55427 -5.53062,28.52637 -2.61977,13.97209 -4.94845,27.94419 -1.16434,7.27713 -2.32868,14.55427 -0.87326,7.27713 -1.74651,14.84535 0,0.58217 0.29108,1.16434 0.58217,0.29109 0.87326,0.87326 0,-0.29109 0.29108,-0.29109 0.58217,-0.29108 0.87326,-0.87325 0.58217,-1.45543 2.61977,-3.78411 10.18799,-18.33838 22.12249,-34.93025 11.93449,-16.88295 25.03334,-33.47481 4.07519,-4.94845 7.27713,-10.18799 3.20194,-5.23954 6.69496,-10.47907 2.0376,-3.20194 3.49303,-4.94845 1.74651,-1.74652 3.49302,-2.32869 1.74651,-0.87325 4.0752,-0.58217 2.32868,0.29109 6.11279,1.16434 3.20194,0.87326 6.11279,2.32869 3.20194,1.45542 6.40388,2.91085 3.49302,1.45543 1.16434,4.65737 -9.31473,12.80775 -15.71861,27.07094 -6.11279,13.97209 -11.9345,28.23527 -13.68101,32.89265 -23.869,66.94964 -10.18798,33.7659 -19.7938,68.11397 -2.0376,6.40388 -4.0752,12.80776 -1.74651,6.40387 -4.36628,13.09884 -1.74651,4.65736 -6.69496,7.56822 -4.65737,3.20194 -9.60582,2.61977 -5.23953,-0.58218 -9.02364,-3.49303 -3.49303,-2.91085 -4.65737,-8.73256 -1.74651,-9.60582 -3.20194,-19.21163 -1.16434,-9.60582 -2.32868,-17.17404 z m 58.79924,-136.81012 q 0,0 0.29109,-0.29108 0.29108,-0.87326 0.58217,-1.45543 0.29108,-0.87326 0.87325,-2.32868 0.58217,-0.29109 1.16435,-0.58217 0.58217,-0.29109 1.16434,-0.87326 l 2.61976,-2.61977 q -0.58217,-0.58217 -0.58217,-1.16434 v 0.29109 q 0.29109,0 0.29109,0.87325 -0.58217,0.58217 -1.45543,1.16434 -0.58217,0.29109 -1.16434,0.87326 -0.87325,1.45543 -2.32868,2.0376 -0.29109,1.16434 -0.58217,2.03759 -0.29109,0.87326 -0.58217,1.74652 z"
           style="fill:#ffffff;fill-opacity:1;stroke:none;stroke-width:7.27713394"
           id="path873"
           inkscape:connector-curvature="0" />
      </g>
      <flowRoot
         transform="matrix(0.26458333,0,0,0.26458333,-149.3488,-9.7243989)"
         style="font-style:normal;font-weight:normal;font-size:40px;line-height:1.25;font-family:sans-serif;letter-spacing:0px;word-spacing:0px;fill:#ffffff;fill-opacity:1;stroke:#ffffff"
         id="flowRoot4781"
         xml:space="preserve"><flowRegion
           style="fill:#ffffff;fill-opacity:1;stroke:#ffffff"
           id="flowRegion4783"><rect
             style="fill:#ffffff;fill-opacity:1;stroke:#ffffff"
             y="577.39801"
             x="1271.7375"
             height="124.25903"
             width="374.31116"
             id="rect4785" /></flowRegion><flowPara
           id="flowPara4787" /></flowRoot>    </g>
  </g>
</svg>
